<svg width="338" height="154" viewBox="0 0 338 154" fill="none" xmlns="http://www.w3.org/2000/svg">
<path d="M51.4123 2.1959V18.6394C51.4123 19.0721 50.2583 19.2885 47.9505 19.2885C45.6426 19.1442 44.4166 19.0721 44.2723 19.0721C43.2626 19.0721 41.5318 19.1442 39.0797 19.2885C36.6276 19.2885 34.8245 19.2885 33.6706 19.2885C33.2379 65.5899 33.4543 99.4865 34.3197 120.978C35.0409 126.171 35.4015 131.22 35.4015 136.124C35.4015 140.884 35.2573 146.509 34.9688 153H19.3907C19.3907 146.942 19.2465 137.494 18.958 124.657C18.6695 111.819 18.5253 102.443 18.5253 96.5296C18.5253 90.4715 18.7417 81.0237 19.1744 68.1862C19.3186 59.3875 19.3907 53.9785 19.3907 51.9591C19.535 49.9397 19.3907 44.6028 18.958 35.9483C18.5253 27.1496 18.2368 21.7406 18.0926 19.7212C12.0344 20.2982 6.04844 20.0818 0.134553 19.0721C0.278794 10.1292 0.278794 4.28739 0.134553 1.54681C5.61572 1.8353 14.1981 1.90742 25.8816 1.76317C37.5651 1.61893 46.0754 1.76318 51.4123 2.1959ZM103.613 148.456C103.901 149.899 103.397 150.62 102.098 150.62C101.521 150.62 100.151 150.836 97.9875 151.269C95.8239 151.558 94.2372 151.63 93.2275 151.485C92.3621 146.87 91.3524 140.163 90.1985 131.364C89.1888 122.565 88.5397 117.012 88.2512 114.704C79.741 115.137 71.3029 114.632 62.9369 113.189C62.2157 115.93 60.9175 121.772 59.0424 130.715C57.3115 139.658 55.797 146.509 54.4988 151.269C54.2103 151.702 52.4794 151.918 49.3061 151.918C46.1328 151.774 44.4019 151.558 44.1134 151.269C43.825 146.942 44.6183 140.667 46.4934 132.446C48.3686 124.224 49.3782 119.464 49.5225 118.166C50.0995 113.406 50.7485 108.429 51.4697 103.237C52.1909 98.0441 52.9122 93.3563 53.6334 89.1733C54.3546 84.9903 55.2921 79.9419 56.4461 74.028C57.6 68.1141 58.4654 63.4984 59.0424 60.1808C59.7636 56.8633 60.8454 51.887 62.2878 45.2519C63.8745 38.6168 64.9563 34.0011 65.5333 31.4047C66.2545 28.8084 67.4805 23.8321 69.2114 16.4758C70.9423 8.97524 72.0241 4.21528 72.4568 2.1959C73.4665 2.1959 74.6204 2.12378 75.9186 1.97955C77.2168 1.69106 78.4428 1.47469 79.5968 1.33046C80.7507 1.04198 81.9046 0.897738 83.0585 0.897738C83.924 0.75349 84.4288 0.825609 84.5731 1.1141C84.7173 1.69106 85.15 3.34984 85.8713 6.09042C88.4676 20.0818 90.7033 35.0108 92.5785 50.8773C94.5978 66.5996 96.6172 84.197 98.6366 103.67C100.656 122.998 102.315 137.927 103.613 148.456ZM75.0532 104.535C76.4956 104.679 78.515 104.823 81.1113 104.968C83.7076 105.112 85.6549 105.256 86.9531 105.4C83.0585 72.0807 79.9574 47.9925 77.6495 33.1356C77.0725 36.0204 75.1974 46.3337 72.0241 64.0753C68.995 81.6728 66.5429 95.0872 64.6678 104.319C66.9757 104.174 70.4375 104.246 75.0532 104.535ZM159.473 135.475V150.404C157.165 150.981 152.333 151.63 144.977 152.351C137.621 153.072 130.336 153.288 123.124 153C116.057 152.712 112.595 151.558 112.739 149.538C111.441 122.132 111.369 84.7018 112.523 37.2465C110.503 24.6975 110.071 13.0861 111.224 2.41226L111.441 1.97955C117.355 1.40258 125.649 1.4747 136.322 2.1959C146.996 2.91711 154.713 3.06135 159.473 2.62862L160.555 14.5285C158.968 14.6728 155.723 14.7449 150.819 14.7449C146.059 14.6006 142.02 14.6006 138.702 14.7449C135.529 14.8891 132.428 15.3218 129.399 16.0431C128.533 17.0527 127.956 18.3509 127.668 19.9376C127.524 21.38 127.524 23.2551 127.668 25.563C127.812 27.7266 127.884 29.169 127.884 29.8902C128.029 32.775 128.029 39.6986 127.884 50.6609C127.74 61.479 128.029 68.2583 128.75 70.9989C129.182 71.4316 130.048 71.648 131.346 71.648C134.087 71.7922 138.053 71.7201 143.246 71.4316C148.439 71.1432 151.468 70.9268 152.333 70.7826L153.415 81.817C153.415 81.9612 153.271 82.1776 152.982 82.4661C152.838 82.6103 152.694 82.6825 152.55 82.6825C151.973 82.6825 150.025 82.6103 146.708 82.4661C143.534 82.3218 141.227 82.3218 139.784 82.4661C138.486 82.4661 136.683 82.6825 134.375 83.1152C132.067 83.4037 130.048 83.9085 128.317 84.6297C127.884 85.2067 127.596 86.2164 127.452 87.6588C127.307 89.1012 127.019 91.9139 126.586 96.0969C126.298 100.28 126.081 103.597 125.937 106.05C125.793 108.357 125.649 111.314 125.504 114.92C125.36 118.382 125.36 121.628 125.504 124.657C125.793 127.541 126.226 130.282 126.802 132.878C131.13 135.475 136.611 136.917 143.246 137.206C144.977 137.206 147.645 136.917 151.251 136.34C154.857 135.619 157.598 135.33 159.473 135.475ZM217.629 53.2573C217.629 55.2766 217.629 58.6663 217.629 63.4263C217.773 68.1862 217.845 71.9365 217.845 74.6771C217.845 77.2734 217.773 81.0237 217.629 85.9279C217.485 90.6878 217.196 94.5823 216.763 97.6114C216.475 100.64 215.97 104.391 215.249 108.862C214.528 113.334 213.662 117.084 212.652 120.113C211.643 122.998 210.272 126.243 208.542 129.849C206.955 133.311 205.08 136.268 202.916 138.72C200.753 141.172 198.156 143.552 195.127 145.86C192.242 148.024 188.997 149.755 185.391 151.053V153C184.093 153 182.434 153 180.415 153C178.395 153.144 177.097 153.216 176.52 153.216C175.943 153.216 175.078 153.144 173.924 153C172.914 152.856 172.337 152.712 172.193 152.567C172.049 152.423 171.688 152.062 171.111 151.485C170.678 150.909 170.534 150.332 170.678 149.755C170.823 149.033 170.75 148.096 170.462 146.942C170.173 145.644 170.029 144.418 170.029 143.264C170.029 141.966 169.885 140.235 169.596 138.071C169.308 135.907 168.947 133.744 168.515 131.58C168.659 128.695 168.226 123.358 167.216 115.569C166.207 110.521 166.207 99.9193 167.216 83.7643C168.226 67.6093 168.659 56.9354 168.515 51.7427C168.515 50.0118 168.226 44.5307 167.649 35.2992C167.072 25.9236 166.784 20.4424 166.784 18.8558C166.928 17.1249 167 11.6437 167 2.41226C171.327 2.12378 176.015 2.05166 181.064 2.1959L181.28 4.35952C185.463 4.93648 189.357 6.52314 192.964 9.11948C196.57 11.5716 199.526 14.3843 201.834 17.5576C204.286 20.5866 206.594 24.5533 208.758 29.4575C211.066 34.2174 212.725 38.2562 213.734 41.5737C214.888 44.747 216.186 48.6415 217.629 53.2573ZM208.542 65.8062C208.542 62.2002 207.965 57.7287 206.811 52.3918C205.801 47.0549 204.286 41.6458 202.267 36.1647C200.248 30.6835 197.507 26.3563 194.045 23.183C190.584 20.0097 186.905 19.1442 183.011 20.5866C182.722 26.2121 182.578 30.395 182.578 33.1356C182.722 35.732 182.867 39.915 183.011 45.6846C183.299 51.31 183.516 55.493 183.66 58.2336C183.66 62.5608 183.444 69.0517 183.011 77.7061C182.722 86.2164 182.578 92.6351 182.578 96.9623C182.578 101.145 182.867 107.492 183.444 116.002C183.444 117.012 183.444 118.526 183.444 120.546C183.588 122.565 183.66 124.584 183.66 126.604C183.66 128.623 183.804 130.571 184.093 132.446C184.525 134.177 185.102 135.33 185.824 135.907C189.43 135.475 192.531 134.249 195.127 132.229C197.868 130.21 199.959 127.469 201.402 124.008C202.988 120.546 204.286 117.012 205.296 113.406C206.306 109.8 207.027 105.545 207.46 100.64C207.892 95.592 208.109 91.3369 208.109 87.8751C208.253 84.2691 208.325 80.1582 208.325 75.5425C208.469 70.7826 208.542 67.5371 208.542 65.8062ZM279.195 148.456C279.484 149.899 278.979 150.62 277.681 150.62C277.104 150.62 275.734 150.836 273.57 151.269C271.406 151.558 269.82 151.63 268.81 151.485C267.945 146.87 266.935 140.163 265.781 131.364C264.771 122.565 264.122 117.012 263.834 114.704C255.324 115.137 246.885 114.632 238.519 113.189C237.798 115.93 236.5 121.772 234.625 130.715C232.894 139.658 231.38 146.509 230.081 151.269C229.793 151.702 228.062 151.918 224.889 151.918C221.715 151.774 219.984 151.558 219.696 151.269C219.408 146.942 220.201 140.667 222.076 132.446C223.951 124.224 224.961 119.464 225.105 118.166C225.682 113.406 226.331 108.429 227.052 103.237C227.774 98.0441 228.495 93.3563 229.216 89.1733C229.937 84.9903 230.875 79.9419 232.029 74.028C233.183 68.1141 234.048 63.4984 234.625 60.1808C235.346 56.8633 236.428 51.887 237.87 45.2519C239.457 38.6168 240.539 34.0011 241.116 31.4047C241.837 28.8084 243.063 23.8321 244.794 16.4758C246.525 8.97524 247.607 4.21528 248.039 2.1959C249.049 2.1959 250.203 2.12378 251.501 1.97955C252.799 1.69106 254.025 1.47469 255.179 1.33046C256.333 1.04198 257.487 0.897738 258.641 0.897738C259.507 0.75349 260.011 0.825609 260.156 1.1141C260.3 1.69106 260.733 3.34984 261.454 6.09042C264.05 20.0818 266.286 35.0108 268.161 50.8773C270.18 66.5996 272.2 84.197 274.219 103.67C276.239 122.998 277.897 137.927 279.195 148.456ZM250.636 104.535C252.078 104.679 254.098 104.823 256.694 104.968C259.29 105.112 261.237 105.256 262.536 105.4C258.641 72.0807 255.54 47.9925 253.232 33.1356C252.655 36.0204 250.78 46.3337 247.607 64.0753C244.578 81.6728 242.126 95.0872 240.25 104.319C242.558 104.174 246.02 104.246 250.636 104.535ZM337.868 137.422V153C334.695 153.144 329.575 153.072 322.507 152.784C315.583 152.495 310.607 152.567 307.578 153C304.26 153.144 299.717 153 293.947 152.567C292.649 153 291.279 153.072 289.836 152.784C288.394 152.495 287.745 151.63 287.889 150.187C287.889 146.437 287.745 137.278 287.456 122.709C287.168 108.141 287.023 99.0538 287.023 95.4478C287.168 91.8418 287.384 82.7546 287.672 68.1862C288.249 58.2336 288.249 49.1464 287.672 40.9246C286.807 22.0291 286.591 9.33584 287.023 2.84499C290.197 2.55651 295.245 2.12378 302.169 1.54681C301.303 60.1087 301.736 105.328 303.467 137.206C317.17 138.504 326.834 138.648 332.459 137.638C333.036 137.638 333.974 137.638 335.272 137.638C336.57 137.494 337.436 137.422 337.868 137.422Z" fill="black"/>
</svg>
