<svg width="621" height="944" viewBox="0 0 621 944" fill="none" xmlns="http://www.w3.org/2000/svg">
<path d="M5 33.1892C5 17.0684 18.0684 4 34.1892 4H587.811C603.932 4 617 17.0684 617 33.1892V909.351C617 925.472 603.932 938.541 587.811 938.541H34.1892C18.0685 938.541 5 925.472 5 909.351V33.1892Z" fill="black"/>
<path d="M120.458 7.61739C144.435 7.64294 174.118 7.4789 197.839 7.57984C198.172 7.58126 198.504 7.58267 198.837 7.58409C208.532 7.62535 218.411 7.68492 230.362 7.75695C231.885 7.76612 233.445 7.77571 235.038 7.78528C249.207 7.87035 266.611 7.97231 290.327 8.08565C369.962 8.46625 432.751 8.21331 452.282 8.13454C490.891 7.9788 532.041 7.97332 587.811 7.96895C588.518 7.96896 589.219 7.99757 589.926 8.05597C594.417 8.41981 598.911 10.0387 602.73 12.8515C605.853 15.1251 607.643 17.8322 607.568 17.9754C607.482 18.155 605.645 15.7518 602.633 13.4959C599.012 10.7599 594.751 9.13692 590.473 8.68572C590.453 8.68362 590.434 8.68155 590.414 8.6795C589.548 8.5889 588.681 8.54418 587.811 8.54425C532.048 8.54873 491.953 8.55474 454.394 8.70623C434.438 8.78673 370.106 9.04521 288.505 8.65523C264.537 8.54068 246.937 8.43831 232.683 8.35273C231.122 8.34336 229.602 8.33401 228.123 8.3251C228.088 8.32487 228.053 8.32463 228.019 8.32439C215.988 8.25192 206.526 8.19457 197.247 8.15508C197.05 8.15437 196.853 8.15366 196.656 8.15295C172.667 8.05087 143.55 8.2167 120.296 8.19192C115.857 8.18711 112.291 8.05446 112.336 7.8958C112.384 7.73723 116.021 7.61277 120.458 7.61739ZM404.021 936.81C380.871 937.02 350.074 936.997 322.881 936.903C295.499 936.809 270.717 936.639 259.053 936.535C247.652 936.433 234.984 936.4 219.869 936.38C216.403 936.375 212.808 936.371 209.09 936.367C196.808 936.353 183.143 936.338 168.143 936.293C113.042 936.126 77.1183 936.119 51.4626 936.134C46.1854 936.137 41.2754 936.141 36.6803 936.145C36.6725 936.145 36.6649 936.145 36.6571 936.145C35.8244 936.146 35.002 936.147 34.1892 936.147C19.022 935.943 9.94561 924.844 8.01787 914.934C7.63356 913.068 7.45764 911.196 7.46905 909.351C7.57275 890.868 7.6746 874.95 7.85654 856.121C8.13472 827.329 8.10171 786.318 7.91038 759.63C7.89988 758.166 7.88872 756.667 7.87779 755.152C7.73824 735.805 7.56656 711.983 7.43857 676.263C7.33223 646.584 7.3406 620.719 7.37056 597.826C7.37915 591.265 7.38981 585.005 7.3996 578.994C7.42432 563.824 7.44656 550.246 7.43361 537.455C7.35329 458.137 7.4572 412.395 7.61355 383.645C7.7338 361.534 7.88856 349.183 8.00035 340.273C8.03413 337.58 8.06444 335.202 8.08819 332.963C8.29999 312.997 8.3952 294.666 8.50971 272.616C8.53512 267.722 8.56166 262.63 8.59047 257.311C8.6868 239.52 8.67013 226.261 8.62943 215.865C8.61162 211.318 8.58967 207.316 8.5685 203.543C8.56803 203.473 8.56756 203.403 8.56709 203.334C8.56414 202.808 8.56147 202.286 8.55859 201.767C8.55641 201.376 8.55364 200.986 8.5515 200.595C8.54863 200.442 8.54677 200.304 8.54513 200.201C8.54383 200.119 8.5429 200.056 8.54229 200.015C8.54206 200.008 8.54182 200 8.54158 199.992C8.53056 199.252 8.52621 198.615 8.52529 198.484C8.52367 198.256 8.52296 198.053 8.52246 197.95C8.5198 197.404 8.51829 196.7 8.5175 196.233C8.51545 195.03 8.51303 192.942 8.51041 189.712C8.50213 186.9 8.488 184.201 8.47003 180.824C8.46885 180.611 8.46767 180.398 8.46649 180.186C8.44894 176.892 8.42883 173.037 8.40911 168.2C8.39117 163.799 8.50431 159.751 8.66202 159.161C8.81974 158.573 8.9621 161.664 8.9801 166.065C8.99868 170.622 9.0178 174.233 9.03536 177.529C9.03654 177.738 9.03772 177.946 9.0389 178.155C9.05718 181.592 9.07429 184.847 9.08424 188.354C9.08756 189.529 9.09014 190.739 9.09203 191.87C9.09914 193.906 9.11133 196.222 9.12674 198.994C9.12984 199.551 9.13266 200.125 9.13595 200.712C9.1571 204.478 9.18176 208.864 9.20113 213.811C9.24646 225.39 9.26347 240.061 9.15862 259.423C9.13113 264.5 9.10561 269.422 9.0807 274.228C8.96595 296.366 8.86416 316.062 8.63935 337.256C8.6085 340.164 8.57325 342.953 8.53592 345.935C8.42525 354.774 8.29287 365.328 8.1817 385.769C8.03278 413.156 7.92829 457.81 8.00814 536.678C8.02173 550.103 7.99786 564.586 7.97272 580.015C7.96312 585.905 7.95386 591.942 7.9458 598.104C7.91631 620.642 7.9083 645.693 8.01097 674.348C8.1361 709.271 8.30277 732.443 8.4417 751.706C8.44666 752.371 8.45161 753.036 8.45657 753.701C8.46253 754.527 8.46845 755.348 8.47428 756.161C8.6782 784.6 8.7186 828.236 8.41123 860.043C8.24431 877.318 8.14747 892.044 8.04932 909.351C8.03398 911.77 8.34697 914.236 9.04246 916.683C11.483 925.063 19.0047 935.125 34.1892 935.571C34.4726 935.571 34.7575 935.571 35.0443 935.571C39.8156 935.567 45.0616 935.563 50.8824 935.559C76.9977 935.544 113.469 935.551 169.187 935.719C183.714 935.763 196.785 935.778 208.997 935.792C212.791 935.796 216.513 935.8 220.159 935.805C235.347 935.826 249.483 935.859 262.661 935.977C273.494 936.073 297.478 936.239 324.111 936.331C350.935 936.423 379.413 936.437 399.763 936.252C401.879 936.233 404.013 936.214 406.145 936.195C424.502 936.03 443.219 935.862 458.289 935.582C491.869 934.708 538.993 934.434 587.811 934.392C601.116 934.732 613.202 922.638 612.87 909.351C612.917 875.284 613.022 842.197 613.059 814.142C613.06 813.083 613.062 812.023 613.063 810.963C613.185 717.814 613.17 650.118 613.164 627.043C613.164 625.967 613.164 624.988 613.164 624.108C613.164 623.322 613.163 622.611 613.163 621.984C613.161 612.584 613.141 604.267 613.12 595.553C613.119 595.077 613.117 594.601 613.116 594.125C613.094 584.917 613.072 575.253 613.074 563.83C613.081 521.354 613.055 486.728 613.027 456.768C613.022 451.222 613.017 445.829 613.012 440.571C613.012 440.555 613.012 440.54 613.012 440.524C612.99 417.45 612.97 396.98 612.97 377.554C612.969 342.132 612.933 318.204 612.894 299.594C612.882 293.757 612.869 288.379 612.857 283.303C612.831 272.328 612.808 262.742 612.8 252.856C612.785 234.263 612.746 217.151 612.707 200.295C612.704 198.792 612.701 197.292 612.698 195.793C612.656 177.52 612.618 159.425 612.617 140.295C612.617 135.855 612.746 132.174 612.904 132.08C613.063 131.991 613.192 135.521 613.192 139.959C613.193 158.541 613.23 176.191 613.271 194.458C613.275 195.965 613.279 197.479 613.282 198.995C613.32 215.809 613.36 233.234 613.375 252.172C613.382 261.703 613.404 270.758 613.429 281.516C613.442 286.65 613.455 292.178 613.468 298.329C613.507 317.222 613.545 341.465 613.545 377.23C613.545 396.421 613.564 416.629 613.587 439.689C613.592 444.98 613.597 450.423 613.602 456.038C613.63 486.072 613.656 520.877 613.649 563.586C613.647 574.379 613.668 583.541 613.69 592.71C613.691 593.224 613.692 593.739 613.694 594.253C613.715 602.891 613.737 611.671 613.738 621.601C613.738 622.928 613.738 624.622 613.739 626.66C613.744 649.77 613.76 717.74 613.638 811.23C613.637 811.52 613.637 811.81 613.636 812.1C613.579 855.618 613.539 885.96 613.568 909.351C613.581 918.521 608.858 925.926 603.118 930.171C598.361 933.724 592.861 935.266 587.811 935.274C575.619 935.319 565.525 935.335 556.741 935.345C554.285 935.347 551.96 935.35 549.744 935.352C540.169 935.36 532.603 935.367 525.041 935.407C502.165 935.528 485.761 935.725 465.912 936.093C449.085 936.406 428.472 936.591 410.415 936.752C410.387 936.753 410.36 936.753 410.333 936.753C408.191 936.772 406.081 936.791 404.021 936.81ZM8.02727 104.476C8.03201 100.038 8.16413 96.4761 8.32268 96.5161C8.48136 96.5613 8.60648 100.199 8.6018 104.638C8.59047 115.216 8.57913 125.794 8.5678 136.373C8.56302 140.809 8.43092 144.373 8.27238 144.332C8.11373 144.287 7.98862 140.649 7.99326 136.21C8.0046 125.632 8.01593 115.054 8.02727 104.476ZM422.54 939.67C418.209 939.702 413.894 939.601 412.909 939.446C411.931 939.29 414.65 939.139 418.978 939.106C421.266 939.089 425.03 939.059 430.093 939.017C455.948 938.805 515.815 938.314 587.811 937.958C602.539 938.309 616.618 924.937 616.218 909.351C616.16 893.802 616.111 877.935 616.075 861.935C616.054 852.638 616.033 844.31 616.013 836.374C615.928 802.431 615.52 775.182 615.536 710.26C615.594 484.422 616.103 258.73 615.994 33.1892C616.353 18.1761 602.804 4.65604 587.811 5.03689C556.018 5.0648 524.228 5.10644 492.44 5.16482C413.725 5.30939 335.257 5.33102 256.481 5.32138C190.822 5.31334 70.4679 5.0186 42.1493 4.98842C37.7083 4.98369 34.1442 4.85101 34.1896 4.6923C34.2371 4.53368 37.8727 4.40919 42.3118 4.41389C70.4303 4.44386 190.384 4.73815 255.796 4.74614C334.421 4.75575 412.728 4.73457 491.292 4.59029C523.455 4.53122 555.628 4.47957 587.811 4.43453C603.123 4.03804 616.979 17.8372 616.625 33.1892C616.898 258.811 616.866 484.834 616.808 710.62C616.791 774.91 616.501 801.08 616.586 834.9C616.606 842.855 616.627 851.23 616.648 860.613C616.686 877.071 616.736 893.386 616.797 909.351C617.203 925.274 602.82 938.9 587.811 938.54C517.975 938.89 459.949 939.365 434.108 939.577C428.884 939.62 424.961 939.652 422.54 939.67ZM216.04 939.429C166.468 939.473 95.9995 939.396 34.4177 939.327C34.3415 939.327 34.2654 939.327 34.1892 939.327C17.2214 939.632 3.72387 924.15 4.26259 909.351C4.27486 896.981 4.28488 885.459 4.29104 875.127C4.31166 840.496 4.44919 818.694 4.58574 797.073C4.58716 796.841 4.58858 796.609 4.58999 796.377C4.72643 774.772 4.86072 753.148 4.88186 717.976C4.90317 682.514 4.80968 633.444 4.71538 583.949C4.71538 583.91 4.71538 583.871 4.71538 583.833C4.62158 534.601 4.23558 484.663 4.25774 448.576C4.33497 322.821 4.72987 245.279 5.03984 206.072C5.47184 151.433 5.17364 90.9526 5.38133 33.1892C5.12935 18.3785 17.868 5.3652 31.9374 4.74724C39.8131 5.24455 25.5342 2.85456 15.0853 12.6281C14.7205 12.9624 14.3645 13.3062 14.0176 13.6593C10.7764 17.0529 8.40575 20.6558 6.88414 26.2817C6.26844 28.7043 6.02227 31.0225 6.01907 33.1892C6.01248 38.5144 6.01171 42.9763 6.01109 47.1568C6.00878 62.745 5.90436 170.961 5.60162 209.251C5.30749 246.461 5.60708 322.375 5.52936 448.936C5.50761 484.355 5.19562 533.292 5.28992 582.788C5.29015 582.924 5.29039 583.059 5.29062 583.194C5.38423 632.328 5.47876 681.875 5.4571 717.929C5.4352 754.373 5.29426 776.982 5.15602 798.872C5.15461 799.085 5.15319 799.297 5.15177 799.51C5.01649 820.93 4.88543 841.728 4.86557 875.081C4.85937 885.491 4.84959 897.022 4.8376 909.351C4.31408 923.922 17.6 939.056 34.1892 938.752C34.586 938.752 34.9832 938.752 35.3808 938.753C96.6987 938.821 166.184 938.898 215.332 938.855C219.768 938.851 223.526 938.977 223.721 939.135C223.914 939.294 220.474 939.425 216.04 939.429ZM215.019 943.01C154.793 943.286 94.4228 943.409 34.1892 943.405C16.0284 943.839 -0.293494 927.465 0.161994 909.351C0.232057 845.662 0.436578 782.207 0.744665 719.321C0.76621 683.472 0.81084 633.444 0.855887 583.485C0.856596 582.92 0.857305 582.355 0.858013 581.791C0.902574 532.372 0.946831 483.17 0.968527 447.845C1.04576 322.091 1.14951 244.259 1.45947 205.051C1.7485 168.493 1.74934 158.345 1.75134 143.3C1.75157 142.89 1.75181 142.48 1.75204 142.07C1.75157 142.043 1.7511 142.015 1.75063 141.989C1.74323 141.473 1.73901 141.04 1.73717 140.817C1.73342 140.362 1.73203 139.992 1.7315 139.854C1.73027 139.533 1.73019 139.265 1.73008 139.169C1.72967 138.778 1.72978 138.331 1.73008 138.043C1.73294 135.364 1.75033 126.974 1.77401 120.326C1.79827 113.513 1.82952 108.656 1.86398 103.536C1.86752 103.018 1.87106 102.499 1.8746 101.981C1.90582 97.3657 1.93976 92.3436 1.97661 85.1103C1.99912 80.7036 2.14463 77.5719 2.30178 78.1137C2.45882 78.6585 2.56786 82.6666 2.54548 87.0713C2.50671 94.681 2.47058 100.025 2.43922 104.661C2.43567 105.176 2.43213 105.69 2.42859 106.205C2.39561 111.105 2.36885 115.4 2.34712 121.439C2.32936 130.185 2.32816 136.686 2.32729 142.627C2.32499 158.202 2.32325 169.931 2.02054 208.219C1.72635 245.427 1.62079 321.232 1.54306 447.798C1.52132 483.189 1.47707 532.448 1.43254 581.825C1.43207 582.406 1.4316 582.986 1.43113 583.566C1.38606 633.553 1.34069 683.508 1.3192 719.275C1.28088 783.031 1.32027 846.184 1.33427 909.351C0.917635 926.85 16.6793 942.62 34.1892 942.202C93.9071 942.206 153.77 942.255 214.3 942.436C240.079 942.413 263.642 942.404 285.473 942.396C349.719 942.372 399.023 942.354 446.024 942.005C456.329 941.928 483.339 941.863 522.372 941.782C533.811 941.758 546.359 941.734 559.92 941.706C568.787 941.689 578.091 941.67 587.811 941.65C603.854 942.139 620.354 927.649 620.015 909.351C619.985 895.531 619.954 881.095 619.92 866.089C619.899 856.792 619.878 848.464 619.858 840.528C619.773 806.584 619.706 779.791 619.722 714.867C619.743 634.984 619.885 501.14 619.995 429.559C620.05 393.708 620.101 373.47 620.143 359.152C620.155 355.165 620.166 351.66 620.176 348.442C620.203 340.038 620.223 333.512 620.237 324.958C620.334 263.363 620.267 220.239 620.127 149.589C620.118 145.162 620.24 141.302 620.398 140.968C620.557 140.636 620.693 143.956 620.701 148.383C620.842 219.136 620.91 262.918 620.811 325.352C620.797 334.283 620.775 341.271 620.748 349.823C620.738 352.994 620.727 356.381 620.716 360.161C620.675 374.242 620.624 394.268 620.57 429.931C620.46 501.383 620.318 635.032 620.298 714.67C620.281 778.959 620.347 805.233 620.431 839.054C620.451 847.006 620.473 855.376 620.494 864.755C620.529 880.239 620.561 895.122 620.591 909.351C620.935 927.988 604.128 942.727 587.811 942.227C578.503 942.246 569.582 942.264 561.069 942.281C547.525 942.308 535.007 942.333 523.614 942.357C483.794 942.439 458.414 942.502 449.586 942.568C400.937 942.929 349.49 942.948 284.649 942.972C263.057 942.98 239.973 942.989 215.019 943.01ZM495.446 0.74496C499.875 0.736859 503.717 0.859154 504.032 1.0177C504.344 1.17622 501.012 1.31136 496.583 1.31949C473.187 1.36246 456.368 1.39791 443.22 1.42576C418.885 1.47729 407.124 1.50242 389.51 1.49802C344.039 1.48663 300.135 1.48089 260.635 1.47605C194.977 1.46802 141.466 1.4616 113.148 1.43142C108.708 1.42666 105.143 1.29399 105.189 1.1353C105.238 0.976765 108.874 0.852229 113.311 0.856891C141.429 0.886858 194.538 0.893529 259.95 0.901522C299.496 0.906355 343.545 0.91132 389.301 0.922775C406.385 0.927052 417.488 0.9038 441.283 0.853349C454.418 0.825498 471.426 0.789076 495.446 0.74496Z" fill="#F2F2F2"/>
</svg>
