<svg width="896" height="71" viewBox="0 0 896 71" fill="none" xmlns="http://www.w3.org/2000/svg">
<path d="M736.285 0.361137C747.608 0.358547 758.223 0.420463 771.629 0.498845C771.636 0.498845 771.644 0.498845 771.651 0.498845C773.566 0.510043 775.54 0.521771 777.579 0.533494C794.004 0.627897 815.345 0.738685 847.525 0.802247C855.82 0.818634 863.716 0.845038 871.166 0.878992C886.397 0.822599 896.474 14.658 895.891 25.8336C895.82 33.597 895.744 40.4122 895.667 46.1664C895.654 47.2302 895.574 48.2522 895.438 49.2407C894.735 52.6352 894.536 57.0447 887.967 63.8188C884.615 66.9744 879.126 70.4593 871.166 70.5008C868.979 70.4968 866.626 70.4925 864.089 70.4879C858.376 70.4775 851.728 70.4655 843.945 70.4506C818.181 70.4012 777.804 70.4166 740.599 70.431C718.017 70.4398 696.6 70.4482 680.332 70.4412C656.541 70.4311 633.585 70.3854 608.63 70.3355C585.775 70.2898 561.242 70.2405 532.856 70.2125C511.075 70.191 489.915 70.0062 468.41 69.7998C465.674 69.7735 462.925 69.747 460.174 69.7203C441.198 69.5361 421.799 69.3476 400.822 69.2396C363.431 69.0472 333.592 69.1267 300.554 69.2148C287.633 69.2492 274.22 69.285 259.674 69.3063C236.67 69.3399 203.599 69.3331 170.393 69.3236C167.564 69.3228 164.732 69.3222 161.907 69.3214C161.893 69.3214 161.878 69.3214 161.864 69.3214C131.467 69.3124 101.634 69.3036 79.7467 69.3231C47.9483 69.3515 34.2838 69.4152 23.8336 69.4728C22.7846 69.478 21.7743 69.4152 20.7794 69.2905C16.4443 68.7173 12.4974 67.1321 8.75842 64.0427C4.24989 60.3389 0.379583 53.8289 0.41061 46.1664C0.404514 39.828 0.402729 32.9774 0.403298 25.8336C0.233291 16.6096 6.48533 7.15024 15.6911 3.86673C15.7874 3.83103 15.8829 3.79633 15.9791 3.76208C20.2078 2.24296 23.8842 2.64525 23.8336 2.87098C23.8159 3.14416 20.2463 3.17421 16.2154 4.6452C7.15928 7.78315 1.14409 16.9986 1.31432 25.8336C1.31402 29.5743 1.31437 33.2187 1.31564 36.7377C1.53176 37.3365 1.69535 40.4465 1.69367 44.1737C1.69341 44.7618 1.69381 45.4262 1.69486 46.1664C1.20227 51.673 6.05599 67.604 23.8336 68.1507C36.4733 68.081 51.9924 67.9898 70.1821 67.8817C67.1181 67.8423 64.552 67.8039 62.3032 67.7675C59.6635 67.7247 57.6416 67.6879 55.903 67.6564C52.2792 67.5908 49.868 67.5474 45.5884 67.5156C39.898 67.4949 32.3407 67.4835 23.8336 67.4763C17.6709 67.5444 10.9675 64.5269 6.86102 59.0347C4.38135 55.7931 3.72785 52.4869 3.96209 52.464C4.22322 52.3977 5.25204 55.4651 7.62671 58.537C7.67266 58.5971 7.71893 58.657 7.76552 58.7165C11.6425 63.7549 17.9272 66.6271 23.8336 66.5653C32.6629 66.5728 40.6491 66.5847 46.6884 66.6072C49.3229 66.617 51.592 66.6286 53.2958 66.6392C54.6578 66.6476 56.3581 66.6591 57.303 66.6738C57.4284 66.6758 57.6677 66.6798 57.953 66.6858C57.9578 66.686 57.9627 66.6861 57.9673 66.6863C58.1269 66.6896 58.9413 66.7066 59.8103 66.7436C59.9856 66.751 60.3674 66.7677 60.8103 66.7947C60.9246 66.7967 61.0388 66.7988 61.1532 66.8009C62.7465 66.8296 64.3722 66.859 66.1319 66.8875C73.0024 66.9988 83.885 67.1391 106.548 67.2877C127.391 67.4244 162.627 67.4857 206.594 67.4867C203.624 67.4679 200.647 67.4496 197.672 67.4321C190.186 67.388 182.666 67.3478 175.143 67.3095C172.261 67.2949 169.418 67.2805 166.521 67.2664C161.858 67.2436 157.181 67.2212 152.506 67.1993C149.347 67.1845 146.182 67.17 143.02 67.1554C143.013 67.1554 143.006 67.1554 142.999 67.1554C138.61 67.135 134.211 67.1146 129.777 67.0936C128.225 67.0858 126.692 67.0783 125.17 67.071C119.11 67.0418 113.158 67.0135 106.305 66.9586C105.471 66.9495 104.566 66.9377 103.89 66.9279C103.164 66.9176 102.465 66.9071 101.805 66.8964C101.222 66.8869 100.666 66.8773 100.133 66.8684C100.062 66.8672 99.9903 66.866 99.9188 66.8648C99.3224 66.8548 98.7525 66.8456 98.2045 66.8369C97.6575 66.8281 97.1305 66.8197 96.6116 66.8124C96.6069 66.8124 96.602 66.8124 96.5973 66.8124C96.055 66.8049 95.6434 66.7993 95.0686 66.7929C94.3471 66.7848 93.727 66.7786 92.9758 66.7724C92.249 66.7665 91.4911 66.7611 90.7256 66.7564C89.9605 66.7518 89.1808 66.7477 88.3899 66.744C87.5982 66.7403 86.7936 66.7369 85.9826 66.7338C85.1723 66.7307 84.3511 66.7281 83.5254 66.7254C82.6993 66.7227 81.8641 66.7199 81.0253 66.7174C79.0935 66.7113 77.2417 66.6609 75.8823 66.5752C74.5234 66.4895 73.7663 66.3762 73.7751 66.2589C73.7843 66.1416 74.5599 66.0289 75.9323 65.9444C77.3052 65.86 79.1643 65.811 81.0967 65.8067C81.6228 65.8056 82.1517 65.8043 82.6825 65.8032C82.9977 65.8025 83.3157 65.802 83.6325 65.8014C84.4844 65.7997 85.3452 65.7978 86.2112 65.7965C87.0764 65.7952 87.9497 65.7944 88.8327 65.7938C89.7181 65.7933 90.6157 65.7931 91.5257 65.7938C92.4336 65.7945 93.3616 65.796 94.3043 65.7987C95.2242 65.8012 96.2732 65.8056 97.2116 65.8112C97.8974 65.815 98.7425 65.8216 99.4474 65.8276C100.183 65.8338 100.907 65.8408 101.605 65.848C102.304 65.8553 102.98 65.863 103.626 65.8702C103.695 65.871 103.764 65.8717 103.833 65.8725C104.404 65.8789 104.955 65.8851 105.476 65.8907C106.058 65.8969 106.61 65.9021 107.133 65.9067C107.71 65.9117 108.061 65.9137 108.491 65.916C114.174 65.9306 121.2 65.9276 127.898 65.9249C128.74 65.9245 129.578 65.9243 130.406 65.924C134.806 65.9218 139.197 65.9191 143.585 65.9164C146.774 65.9145 149.967 65.9124 153.164 65.9107C157.868 65.908 162.586 65.906 167.3 65.9044C170.227 65.9035 173.101 65.903 176.022 65.9027C183.647 65.9018 191.298 65.903 198.958 65.9084C206.608 65.9139 214.306 65.9234 222.009 65.9395C229.682 65.9556 237.655 65.9797 245.353 66.0164C251.012 66.0438 256.814 66.0915 262.182 66.1408C265.066 66.1673 267.891 66.1942 270.675 66.2212C270.684 66.2213 270.694 66.2215 270.703 66.2216C273.147 66.2453 275.559 66.2687 277.954 66.2909C283.088 66.3388 288.132 66.3815 293.176 66.4175C298.211 66.4535 303.225 66.4829 308.276 66.5055C313.289 66.5278 318.387 66.544 323.434 66.5539C328.506 66.5639 333.487 66.568 338.72 66.5677C345.601 66.5668 352.434 66.5586 359.449 66.549C366.413 66.5392 373.433 66.5268 380.472 66.5143C382.932 66.51 385.397 66.5059 387.865 66.5015C387.874 66.5015 387.884 66.5015 387.893 66.5015C392.459 66.4932 397.035 66.485 401.615 66.477C408.686 66.4648 415.777 66.4532 422.895 66.4437C430.01 66.4343 437.17 66.4269 444.367 66.4242C451.564 66.4216 458.956 66.4232 466.382 66.4379C473.006 66.4507 479.683 66.4677 486.211 66.4846C487.935 66.489 489.659 66.4935 491.383 66.4979C499.562 66.5187 507.481 66.5353 515.312 66.5383C523.137 66.5418 530.957 66.5324 538.849 66.5126C546.716 66.4929 554.683 66.4633 562.714 66.4277C570.779 66.392 578.741 66.3507 586.865 66.3056C594.926 66.2606 603.025 66.2123 611.223 66.1612C615.78 66.1329 620.628 66.1069 625.209 66.0848C629.834 66.0625 634.43 66.0427 638.966 66.0244C640.807 66.0169 642.64 66.0098 644.46 66.0026C647.113 65.9921 649.743 65.9818 652.331 65.9711C656.7 65.9529 660.962 65.9335 665.103 65.9107C669.242 65.8878 673.259 65.8613 677.139 65.8289C681.155 65.7953 684.466 65.761 688.425 65.7121C698.068 65.6177 704.043 65.5888 710.683 65.5562C711.991 65.5498 713.327 65.5429 714.719 65.5357C722.681 65.4992 730.635 65.4719 738.484 65.4513C746.41 65.4307 754.211 65.4168 762.114 65.4087C769.939 65.4006 777.821 65.3987 785.672 65.402C793.51 65.4053 801.335 65.414 809.18 65.4282C817.019 65.4424 825.02 65.4625 832.702 65.4869C837.141 65.5009 841.857 65.5196 846.238 65.5388C849.398 65.5527 852.513 65.5672 855.567 65.5815C856.814 65.5873 858.054 65.5931 859.281 65.5988C863.36 65.6177 867.328 65.6352 871.166 65.6488C871.298 65.6493 871.428 65.6485 871.558 65.6465C875.112 65.5948 878.511 64.5599 881.375 62.7974C884.248 61.0342 886.596 58.5588 888.197 55.6784C889.822 52.679 890.598 49.8472 890.624 46.2198C890.624 46.202 890.623 46.1842 890.623 46.1664C890.608 43.5415 890.593 40.9691 890.577 38.4041C890.554 34.5353 890.53 30.6944 890.505 26.8252C890.503 26.4943 890.501 26.1638 890.499 25.8336C890.478 22.7002 889.699 19.634 888.24 16.9053C887.728 15.9455 887.1 14.9797 886.427 14.1216C884.354 11.4654 881.607 9.39867 878.542 8.15315C876.192 7.1946 873.676 6.72636 871.166 6.75239C870.304 6.75975 869.443 6.76721 868.583 6.77478C864.851 6.80757 861.181 6.84173 857.439 6.87872C851.079 6.9418 844.991 6.97107 839.66 6.99067C834.265 7.01005 829.224 7.0208 824.317 7.03109C823.398 7.03301 822.479 7.03494 821.56 7.03686C817.601 7.04492 813.708 7.05254 809.873 7.06174C805.147 7.07304 800.507 7.08652 795.852 7.10261C791.237 7.1185 786.576 7.13713 781.987 7.15902C777.354 7.18118 772.924 7.20513 768.151 7.23454C763.429 7.2634 758.634 7.30106 753.379 7.34204C748.171 7.38273 742.705 7.42454 737.171 7.46109C731.642 7.49777 726.025 7.52946 720.449 7.55438C714.861 7.57944 709.255 7.5984 703.727 7.61168C698.169 7.62508 692.644 7.63293 687.148 7.63656C681.664 7.64021 675.999 7.63958 670.697 7.63523C662.112 7.62819 653.565 7.61825 645.003 7.60724C636.489 7.59619 627.947 7.58386 619.424 7.57082C610.916 7.55777 602.398 7.54415 593.894 7.52995C585.387 7.51574 576.88 7.50115 568.386 7.48641C566.508 7.48316 564.629 7.4799 562.75 7.47664C556.136 7.46515 549.522 7.45365 542.935 7.44244C542.89 7.44229 542.845 7.44214 542.8 7.44199C534.322 7.42773 525.999 7.41385 517.592 7.40201C514.506 7.39778 511.54 7.39379 508.527 7.39046C505.51 7.38715 502.55 7.38446 499.563 7.38247C496.571 7.38049 493.597 7.37938 490.669 7.37936C487.709 7.3794 484.824 7.38042 481.912 7.38336C479.243 7.38592 476.593 7.39055 473.697 7.39535C473.433 7.39579 473.169 7.39624 472.904 7.39668C469.736 7.40197 466.133 7.40532 462.783 7.4029C453.91 7.39573 445.263 7.39234 436.46 7.39268C427.652 7.39301 418.864 7.39693 410.002 7.40246C406.542 7.40458 403.065 7.4072 399.588 7.40956C394.177 7.41324 388.748 7.41692 383.301 7.41978C374.34 7.42454 365.36 7.4267 356.322 7.42378C347.318 7.42086 338.256 7.41266 329.235 7.39846C320.221 7.38432 311.129 7.36429 302.156 7.33893C292.158 7.31056 282.218 7.27923 272.233 7.24654C262.265 7.2138 252.291 7.17952 242.361 7.14437C232.394 7.10917 222.454 7.07302 212.51 7.03598C202.56 6.99892 192.616 6.96099 182.666 6.92226C176.71 6.89906 170.757 6.87544 164.801 6.85162C161.649 6.873 158.628 6.89395 155.722 6.91382C134.247 7.06062 118.719 7.16651 98.234 7.23943C96.2722 7.25047 94.6759 7.2662 92.7338 7.28518C92.3633 7.2888 91.9703 7.29243 91.5695 7.29629C89.0314 7.32073 86.1168 7.3463 82.0621 7.36248C73.9733 7.39474 61.5751 7.38773 45.5536 7.17502C41.5065 7.12128 38.9311 6.87873 39.8034 6.63307C40.4166 6.46076 42.5662 6.33271 45.1893 6.29013C40.343 6.2609 35.5097 6.23033 30.6888 6.19996C28.7646 6.18779 26.9581 6.13126 25.6743 6.04137C24.3914 5.95145 23.7349 5.83596 23.8457 5.71887C23.9566 5.60174 24.8299 5.49189 26.2744 5.41191C27.7183 5.33203 29.6129 5.28875 31.546 5.29064C36.674 5.29585 41.7847 5.30113 46.8965 5.30485C52.0125 5.30862 57.1044 5.31082 62.2113 5.31196C67.3168 5.31311 72.4206 5.31297 77.5405 5.31196C82.6403 5.31091 87.7503 5.30922 92.8696 5.30663C98.0213 5.3041 103.076 5.30055 108.213 5.29686C111.291 5.2946 114.406 5.29236 117.463 5.28975C118.603 5.28885 119.715 5.28762 120.828 5.28664C121.737 5.28584 122.651 5.28519 123.592 5.28442C133.49 5.2755 143.483 5.2655 153.386 5.25466C163.336 5.24387 173.276 5.23245 183.216 5.22045C193.161 5.20845 203.097 5.19567 213.038 5.18269C222.974 5.1697 232.904 5.15628 242.853 5.14227C252.766 5.12821 262.719 5.11383 272.647 5.09829C280.327 5.08628 287.942 5.07339 295.57 5.05964C298.572 5.03615 301.544 5.01394 304.477 4.99257C313.014 4.93035 321.563 4.84869 329.985 4.76779C314.996 4.80801 302.954 4.87084 291.491 4.93082C289.954 4.93886 288.427 4.94694 286.905 4.95481C271.367 5.03516 256.357 5.10318 236.167 5.08807C178.747 5.04511 145.453 5.01376 124.706 4.95525C103.964 4.89675 95.0515 4.81003 86.7336 4.63764C74.9803 4.39401 52.2956 4.25543 40.8963 4.25028C36.7554 4.24841 33.413 4.04287 33.4318 3.7914C33.4517 3.53986 36.8261 3.33732 40.9677 3.33918C53.0044 3.34462 77.5515 3.48547 91.541 3.77541C97.7718 3.90456 104.937 3.98788 125.364 4.04549C145.792 4.1031 178.78 4.13393 236.31 4.17698C255.773 4.19154 270.218 4.12677 285.591 4.04727C287.098 4.03947 288.616 4.0313 290.148 4.02328C290.157 4.02328 290.167 4.02328 290.177 4.02328C304.297 3.94937 319.673 3.86881 340.407 3.83315C388.196 3.75097 452.48 3.59165 467.74 3.50177C470.735 3.48413 473.63 3.46432 476.683 3.44357C488.404 3.36395 502.554 3.26792 534.442 3.20414C541.417 3.19019 549.586 3.18209 558.5 3.17838C571.877 3.05579 584.866 2.94207 596.159 2.87453C605.906 2.81625 614.894 2.70903 623.603 2.59156C626.11 2.55774 628.634 2.52238 631.153 2.48717C637.229 2.40225 643.309 2.31738 649.232 2.25173C653.954 2.19941 658.899 2.13653 664.125 2.07005C683.163 1.82787 705.977 1.53768 735.707 1.53388C767.221 1.52985 794.203 1.58223 817.474 1.63338C800.384 1.57421 787.191 1.50331 776.201 1.44015C774.128 1.42823 772.142 1.41666 770.229 1.4055C756.722 1.32668 746.902 1.26938 736.378 1.27179C686.11 1.2833 667.256 1.36052 645.982 1.58363C640.381 1.64237 634.202 1.72062 627.546 1.80485C614.241 1.97318 599.024 2.16565 582.673 2.27572C567.443 2.37824 550.411 2.52957 532.364 2.68973C532.357 2.68973 532.349 2.68973 532.342 2.68973C528.816 2.72103 525.248 2.75266 521.649 2.78435C499.706 2.97759 476.628 3.17189 454.161 3.29432C451.758 3.30741 448.88 3.32547 445.575 3.34629C426.501 3.46649 393.014 3.6775 352.122 3.54219C343.14 3.51246 333.807 3.44949 323.156 3.37739C319.912 3.35542 316.544 3.33235 313.027 3.30942C297.846 3.21044 279.4 3.10528 254.84 3.042C234.57 2.98978 209.867 2.96474 184.216 2.9385C171.58 2.92557 158.715 2.91214 146.036 2.89541C107.736 2.84486 72.6328 2.76468 37.5962 2.6844C37.589 2.6844 37.5819 2.6844 37.5748 2.6844C33.4356 2.67492 30.1934 2.46312 30.3388 2.21175C30.4857 1.96052 33.959 1.76434 38.0962 1.77375C73.1535 1.85408 108.149 1.93438 146.321 1.98476C158.808 2.00124 171.573 2.01452 184.159 2.0274C209.935 2.05379 234.981 2.07909 255.44 2.1318C280.418 2.19615 299.201 2.30331 314.592 2.40366C318.298 2.42783 321.784 2.45146 325.092 2.47384C335.625 2.54511 344.381 2.60468 352.9 2.63287C392.495 2.76389 424.715 2.56127 443.861 2.44097C447.256 2.41964 450.241 2.40107 452.782 2.38722C474.808 2.2672 497.534 2.07609 519.456 1.88303C523.013 1.85171 526.552 1.82047 530.064 1.7893C530.071 1.78915 530.078 1.78901 530.085 1.78886C548.128 1.62872 565.467 1.47482 580.98 1.3704C596.725 1.26441 610.458 1.08983 623.303 0.926628C630.195 0.839054 636.833 0.755065 643.389 0.686306C665.958 0.449611 685.855 0.372684 736.285 0.361137ZM52.6824 6.33411C62.644 6.44826 70.7604 6.47233 76.8047 6.46471C71.6714 6.43878 66.5505 6.41157 61.4256 6.38342C58.5087 6.3674 55.5953 6.35097 52.6824 6.33411ZM559.722 4.08858C558.108 4.1034 556.482 4.11838 554.85 4.13345C559.354 4.12631 563.86 4.11968 568.358 4.11301C573.881 4.10484 579.403 4.09711 584.923 4.08947C576.146 4.08648 567.641 4.08562 559.722 4.08858ZM735.778 2.44497C707.741 2.44855 686.79 2.71425 667.897 2.95404C662.456 3.0231 657.18 3.08989 651.961 3.14772C649.796 3.17171 647.634 3.19822 645.453 3.22635C658.15 3.24063 669.822 3.25563 679.376 3.26811C707.886 3.30535 724.112 3.38295 738.371 3.45113C742.496 3.47085 746.461 3.48971 750.507 3.50665C753.855 3.47608 757.331 3.44576 760.843 3.41914C765.761 3.38152 771.077 3.34543 776.137 3.31475C781.215 3.28388 786.376 3.25627 791.444 3.23301C796.555 3.20955 801.618 3.18999 806.659 3.17304C811.402 3.15704 816.129 3.14351 820.702 3.1304C820.964 3.12966 821.226 3.12892 821.488 3.12818C826.322 3.11423 831.025 3.10087 835.346 3.08242C839.744 3.06347 843.401 3.04112 846.646 3.00735C850.699 2.96529 854.857 2.92492 858.968 2.88741C863.05 2.85014 867.114 2.81544 871.166 2.78295C871.203 2.78268 871.239 2.78249 871.275 2.78238C875.596 2.76163 879.891 3.98484 883.543 6.27361C884.726 7.01041 885.891 7.89695 886.91 8.83141C887.381 9.26157 887.833 9.71082 888.266 10.1769C884.082 5.55822 877.767 2.60834 871.166 2.63913C868.974 2.63751 866.763 2.63573 864.533 2.63376C852.204 2.62291 839.042 2.59314 824.524 2.56047C799.757 2.50472 771.041 2.44047 735.778 2.44497ZM821.437 69.432C824.895 69.4296 829.958 69.4225 836.488 69.4133C838.032 69.4112 839.66 69.4086 841.366 69.4062C841.326 69.406 841.285 69.406 841.245 69.4058C837.015 69.3826 833.11 69.3623 828.895 69.3436C821.381 69.3103 814.081 69.2818 806.708 69.2574C799.307 69.2329 791.925 69.2129 784.536 69.197C777.135 69.1811 769.713 69.1696 762.357 69.1628C754.928 69.156 747.606 69.1533 740.213 69.1566C737.858 69.1576 735.496 69.1592 733.134 69.1615C738.406 69.1844 743.881 69.2033 749.663 69.2232C754.281 69.2391 759.098 69.2557 764.164 69.2756C766.102 69.2832 768.448 69.2949 771.185 69.3085C782.033 69.3624 799.054 69.4473 821.437 69.432ZM674.161 69.4124C672.445 69.4185 670.739 69.4239 669.053 69.4284C664.253 69.4412 659.575 69.4485 654.988 69.4542C651.767 69.4581 648.583 69.4609 645.445 69.464C644.121 69.4652 642.798 69.4666 641.488 69.468C639.293 69.4702 637.115 69.4728 634.952 69.4755C650.121 69.503 664.95 69.524 680.404 69.5306C680.607 69.5307 680.812 69.5305 681.018 69.5306C678.679 69.4904 676.394 69.451 674.161 69.4124Z" fill="#F2F2F2"/>
</svg>
