<svg width="2371" height="20" viewBox="0 0 2371 20" fill="none" xmlns="http://www.w3.org/2000/svg">
<path d="M67.2185 17.4357C85.9002 17.4883 109.028 17.1511 127.511 17.3586C127.771 17.3615 128.03 17.3644 128.289 17.3673C135.843 17.4521 143.54 17.5746 152.853 17.7226C154.039 17.7415 155.254 17.7612 156.496 17.7809C167.535 17.9557 181.096 18.1653 199.575 18.3983C261.625 19.1806 310.549 18.6607 325.766 18.4988C356.287 18.174 388.845 18.1671 433.27 18.158C437.333 18.1572 441.496 18.1577 445.764 18.1566C449.223 18.1557 452.086 18.4186 452.165 18.7449C452.243 19.0712 449.504 19.3366 446.045 19.3375C441.865 19.3386 437.791 19.3396 433.822 19.3405C433.804 19.3405 433.785 19.3405 433.767 19.3405C389.063 19.3498 357.213 19.3568 327.412 19.6739C311.862 19.8394 261.737 20.3707 198.156 19.5691C179.48 19.3336 165.767 19.1232 154.661 18.9473C153.445 18.928 152.26 18.9088 151.108 18.8905C151.081 18.89 151.053 18.8895 151.026 18.889C141.653 18.7401 134.28 18.6222 127.05 18.541C126.897 18.5395 126.743 18.5381 126.589 18.5366C107.898 18.3268 85.2111 18.6677 67.0919 18.6167C63.6329 18.6068 60.8546 18.3342 60.8899 18.008C60.9272 17.6821 63.7613 17.4262 67.2185 17.4357ZM1328.7 13.5579C1346.74 13.1252 1370.74 13.173 1391.93 13.3656C1413.26 13.5596 1432.57 13.9086 1441.66 14.1229C1450.54 14.3323 1460.41 14.4001 1472.19 14.4418C1474.89 14.4513 1477.69 14.4595 1480.59 14.468C1490.16 14.4961 1500.81 14.5276 1512.49 14.6209C1555.43 14.9637 1583.42 14.9782 1603.41 14.9471C1607.52 14.9407 1611.35 14.9319 1614.93 14.9238C1614.93 14.9238 1614.94 14.9238 1614.94 14.9238C1628.46 14.8932 1638.54 14.8708 1647.82 15.0053C1664.32 15.2448 1677.8 15.4571 1694.07 15.8718C1716.5 16.4436 1748.46 16.3757 1769.25 15.9824C1770.39 15.9609 1771.56 15.9379 1772.74 15.9155C1787.82 15.6286 1806.38 15.2757 1834.21 15.0126C1857.33 14.794 1877.49 14.8112 1895.33 14.8728C1900.44 14.8905 1905.32 14.9124 1910 14.9325C1921.82 14.9833 1932.4 15.029 1942.36 15.0024C2004.17 14.8373 2039.81 15.0509 2062.21 15.3723C2079.44 15.6195 2089.06 15.9376 2096 16.1674C2098.1 16.2368 2099.95 16.2991 2101.7 16.348C2117.26 16.7833 2131.54 16.979 2148.72 17.2144C2152.53 17.2666 2156.5 17.3212 2160.64 17.3804C2174.51 17.5784 2184.84 17.5442 2192.94 17.4605C2196.48 17.4239 2199.6 17.3788 2202.54 17.3353C2202.59 17.3343 2202.65 17.3333 2202.7 17.3323C2203.11 17.3263 2203.52 17.3208 2203.92 17.3149C2204.23 17.3104 2204.53 17.3047 2204.84 17.3003C2204.96 17.2944 2205.06 17.2906 2205.14 17.2872C2205.21 17.2845 2205.26 17.2826 2205.29 17.2814C2205.29 17.2809 2205.3 17.2804 2205.31 17.2799C2205.88 17.2573 2206.38 17.2483 2206.48 17.2464C2206.66 17.2431 2206.82 17.2416 2206.9 17.2406C2207.32 17.2352 2207.87 17.232 2208.24 17.2304C2209.17 17.2262 2210.8 17.2212 2213.32 17.2159C2215.51 17.1988 2217.61 17.1698 2220.24 17.1328C2220.41 17.1304 2220.57 17.128 2220.74 17.1256C2223.3 17.0895 2226.31 17.0481 2230.08 17.0076C2233.51 16.9707 2236.66 17.2033 2237.12 17.5275C2237.58 17.8517 2235.17 18.1443 2231.74 18.1813C2228.19 18.2195 2225.38 18.2588 2222.81 18.2949C2222.65 18.2973 2222.48 18.2998 2222.32 18.3022C2219.64 18.3398 2217.11 18.3749 2214.37 18.3954C2213.46 18.4022 2212.52 18.4075 2211.63 18.4114C2210.05 18.426 2208.24 18.4511 2206.08 18.4827C2205.65 18.4891 2205.2 18.4949 2204.75 18.5017C2201.81 18.5452 2198.39 18.5958 2194.54 18.6357C2185.52 18.7288 2174.09 18.7638 2159 18.5483C2155.04 18.4918 2151.21 18.4393 2147.46 18.3881C2130.21 18.1522 2114.87 17.943 2098.35 17.4809C2096.09 17.4175 2093.91 17.345 2091.59 17.2683C2084.7 17.0408 2076.48 16.7687 2060.55 16.5402C2039.21 16.2341 2004.42 16.0193 1942.97 16.1834C1932.51 16.2113 1921.22 16.1623 1909.2 16.1106C1904.61 16.0909 1899.91 16.0718 1895.11 16.0553C1877.55 15.9946 1858.03 15.9782 1835.7 16.1892C1808.49 16.4464 1790.44 16.789 1775.43 17.0746C1774.91 17.0848 1774.39 17.095 1773.87 17.1052C1773.23 17.1174 1772.59 17.1296 1771.95 17.1416C1749.8 17.5608 1715.8 17.6438 1691.01 17.012C1675.46 16.6155 1662.56 16.4114 1646.14 16.1732C1638.07 16.0561 1629.44 16.0754 1616.2 16.1048C1612.48 16.113 1608.4 16.121 1603.86 16.1281C1583.51 16.1597 1555.09 16.1456 1511.68 15.799C1500.36 15.7086 1490.18 15.6784 1480.66 15.6504C1477.71 15.6417 1474.8 15.6328 1471.96 15.6228C1460.13 15.5809 1449.12 15.5125 1438.85 15.2704C1430.41 15.0713 1411.72 14.731 1390.97 14.5423C1370.07 14.3522 1347.88 14.3237 1332.02 14.7039C1330.37 14.7434 1328.71 14.7825 1327.05 14.8218C1312.75 15.1609 1298.16 15.5064 1286.42 16.0815C1233.79 19.6951 1138.47 18.319 1075.59 18.1012C1074.76 18.0983 1073.94 18.0954 1073.11 18.0925C1000.53 17.8414 947.786 17.8733 929.807 17.8842C928.969 17.8848 928.206 17.8853 927.52 17.8857C926.908 17.8861 926.354 17.887 925.865 17.8872C918.541 17.8902 912.061 17.9321 905.271 17.976C904.9 17.9784 904.529 17.9808 904.159 17.9833C896.984 18.0295 889.453 18.0746 880.553 18.0706C847.457 18.0559 820.478 18.1097 797.134 18.1668C792.812 18.1773 788.61 18.1869 784.513 18.1973C784.501 18.1973 784.489 18.1973 784.477 18.1973C766.498 18.2432 750.548 18.2844 735.413 18.2847C707.812 18.2853 689.169 18.36 674.668 18.4405C670.12 18.4658 665.929 18.4916 661.974 18.5162C653.423 18.5696 645.954 18.6164 638.252 18.6327C623.764 18.6634 610.431 18.7446 597.297 18.8235C596.126 18.8305 594.957 18.8369 593.789 18.8439C579.552 18.9289 565.453 19.0078 550.547 19.0099C547.087 19.0104 544.219 18.7451 544.146 18.4187C544.077 18.0926 546.827 17.8279 550.285 17.8275C564.763 17.8254 578.516 17.7494 592.749 17.6644C593.923 17.6573 595.103 17.6496 596.284 17.6425C609.385 17.5638 622.963 17.483 637.718 17.4518C645.145 17.436 652.2 17.392 660.582 17.3396C664.582 17.3146 668.889 17.2876 673.682 17.261C688.404 17.1793 707.293 17.1029 735.159 17.1023C750.113 17.102 765.858 17.0621 783.826 17.0164C787.949 17.0058 792.19 16.995 796.564 16.9843C819.967 16.9271 847.085 16.8734 880.363 16.8882C888.773 16.8919 895.911 16.8497 903.056 16.8037C903.456 16.8013 903.857 16.7989 904.258 16.7965C910.989 16.753 917.83 16.7079 925.567 16.7047C926.601 16.7043 927.921 16.7042 929.509 16.7033C947.515 16.6923 1000.48 16.6595 1073.32 16.9115C1073.55 16.9125 1073.77 16.9134 1074 16.9144C1122.81 17.0833 1150.34 17.1787 1171.08 16.8867C1187.44 16.6564 1199.67 16.5974 1209.71 16.5693C1211.62 16.5639 1213.43 16.5588 1215.16 16.5547C1222.62 16.5371 1228.52 16.523 1234.41 16.4411C1252.23 16.1934 1265.01 15.7875 1280.48 15.0301C1293.59 14.3881 1309.65 14.0082 1323.72 13.6758C1323.74 13.6753 1323.77 13.6748 1323.79 13.6744C1325.46 13.6349 1327.1 13.5964 1328.7 13.5579ZM2279.73 16.2227C2283.19 16.2325 2285.96 16.5041 2285.93 16.83C2285.9 17.1561 2283.06 17.4133 2279.6 17.4037C2271.36 17.3804 2263.12 17.3571 2254.88 17.3338C2251.42 17.324 2248.64 17.0524 2248.67 16.7266C2248.71 16.4004 2251.54 16.1433 2255 16.1528C2263.25 16.1761 2271.49 16.1994 2279.73 16.2227ZM1314.27 7.67916C1317.65 7.61304 1321.01 7.81971 1321.78 8.13932C1322.54 8.45867 1320.42 8.77077 1317.05 8.83684C1315.27 8.87179 1312.33 8.935 1308.39 9.02032C1279.98 9.63481 1198.84 11.3896 1112.83 11.9022C1105.58 11.9453 1099.1 11.988 1092.91 12.0288C1066.46 12.2037 1045.23 13.043 994.648 13.0089C781.948 12.8654 569.415 11.3654 357.056 12.3944C295.723 12.6915 234.583 12.736 173.203 12.7162C122.044 12.6997 28.2673 12.0938 6.2023 12.0318C2.74195 12.022 -0.0350198 11.7493 0.00033385 11.4231C0.0373005 11.097 2.87011 10.8411 6.32887 10.8508C28.238 10.9124 121.702 11.5173 172.67 11.5337C233.932 11.5535 294.947 11.51 356.161 11.2134C568.767 10.1832 781.982 10.2513 994.928 10.395C1045.02 10.4288 1065.41 11.0249 1091.76 10.8508C1097.96 10.8098 1104.49 10.7662 1111.8 10.7226C1196.6 10.2173 1276.51 8.49101 1305.26 7.86992C1309.33 7.78201 1312.39 7.71612 1314.27 7.67916ZM1475.17 8.17281C1513.8 8.08344 1568.71 8.24257 1616.69 8.38251C1640.09 8.45075 1661.84 8.51533 1679.26 8.54269C1706.24 8.58507 1723.23 8.86777 1740.08 9.14847C1740.26 9.15138 1740.44 9.15429 1740.62 9.15721C1757.45 9.43767 1774.3 9.71371 1801.71 9.75716C1829.34 9.80096 1867.57 9.60879 1906.14 9.41496C1906.17 9.41496 1906.2 9.41496 1906.23 9.41496C1944.59 9.22214 1983.5 8.42869 2011.62 8.47425C2109.6 8.633 2170.02 9.44472 2200.57 10.0819C2254.01 11.1965 2314.61 9.94634 2369.21 11.3561C2375.23 11.6683 2365.07 12.5671 2353.97 12.3084C2353.57 12.3012 2353.17 12.2939 2352.77 12.2866C2348.95 12.2188 2345.61 12.1638 2340.91 12.1191C2334.09 12.0826 2329.02 12.0802 2324.39 12.0784C2312.25 12.0736 2227.93 11.859 2198.09 11.2367C2169.1 10.6321 2109.95 11.2479 2011.34 11.0881C1983.74 11.0434 1945.61 10.4021 1907.04 10.5959C1906.94 10.5964 1906.83 10.5969 1906.73 10.5974C1868.44 10.7898 1829.84 10.9841 1801.74 10.9396C1773.35 10.8946 1755.73 10.6049 1738.68 10.3207C1738.51 10.3178 1738.34 10.3149 1738.18 10.312C1721.49 10.0339 1705.28 9.76449 1679.3 9.72367C1661.5 9.69571 1639.49 9.63225 1615.94 9.56349C1568.16 9.424 1514.02 9.26519 1475.72 9.35379C1472.27 9.36164 1469.34 9.10333 1469.19 8.77714C1469.04 8.45112 1471.72 8.18091 1475.17 8.17281ZM1475.97 0.811692C1584.5 -0.497909 1693.64 -0.130283 1800.66 1.25292C1828.59 1.29721 1867.57 1.38895 1906.5 1.48155C1906.94 1.483 1907.38 1.48446 1907.82 1.48592C1946.33 1.57751 1984.66 1.66849 2012.19 1.71308C2110.17 1.87184 2170.81 2.08511 2201.36 2.72223C2229.85 3.31637 2237.76 3.3181 2249.48 3.32219C2249.8 3.32268 2250.12 3.32316 2250.44 3.32365C2250.46 3.32268 2250.48 3.32171 2250.5 3.32073C2250.9 3.30554 2251.24 3.29685 2251.41 3.29307C2251.77 3.28537 2252.06 3.28251 2252.16 3.28142C2252.41 3.27889 2252.62 3.27872 2252.7 3.2785C2253 3.27765 2253.35 3.27787 2253.57 3.2785C2255.66 3.28437 2262.2 3.32013 2267.38 3.36879C2272.69 3.41866 2276.47 3.4829 2280.46 3.55373C2280.87 3.56101 2281.27 3.56829 2281.67 3.57557C2285.27 3.63974 2289.18 3.70951 2294.82 3.78526C2298.25 3.83152 2300.69 4.13063 2300.27 4.45366C2299.85 4.77646 2296.72 5.0006 2293.29 4.9546C2287.36 4.8749 2283.2 4.80064 2279.58 4.73617C2279.18 4.72889 2278.78 4.7216 2278.38 4.71432C2274.56 4.64653 2271.22 4.59152 2266.51 4.54686C2259.7 4.51034 2254.63 4.50788 2250 4.50609C2237.87 4.50137 2228.73 4.49778 2198.9 3.87555C2169.9 3.27083 2110.84 3.05385 2012.22 2.89407C1984.65 2.84939 1946.27 2.75842 1907.79 2.6669C1907.34 2.66593 1906.89 2.66496 1906.44 2.66399C1867.49 2.57134 1828.56 2.47809 1800.7 2.43391C1692.07 2.26169 1585.69 2.85319 1476.53 1.99267C1456.44 2.03915 1438.08 2.05751 1421.07 2.07422C1371.01 2.12339 1332.6 2.16192 1295.98 2.8795C1287.95 3.03683 1266.9 3.1704 1236.49 3.33675C1227.58 3.3855 1217.8 3.43662 1207.23 3.49257C1181.33 3.62971 1150.64 3.79184 1116.07 3.99787C1108.82 4.04104 1102.33 4.08369 1096.15 4.12456C1069.7 4.29936 1048.82 4.43827 998.237 4.40415C935.995 4.36217 831.707 4.0688 775.933 3.84351C747.999 3.73068 732.23 3.62612 721.074 3.53917C717.968 3.51495 715.236 3.4915 712.729 3.47072C706.181 3.41645 701.096 3.37485 694.431 3.34695C646.438 3.14606 612.837 3.28446 557.789 3.57266C554.339 3.59063 551.331 3.34066 551.071 3.01493C550.812 2.68915 553.399 2.40989 556.848 2.39168C611.977 2.10305 646.091 1.96234 694.738 2.16596C701.697 2.19509 707.142 2.24033 713.805 2.29557C716.276 2.31605 718.914 2.33813 721.861 2.36109C732.831 2.44661 748.435 2.55029 776.223 2.66253C831.897 2.88741 936.032 3.17986 998.083 3.22171C1048.18 3.2555 1068.65 3.12063 1095 2.94649C1101.2 2.90555 1107.72 2.86189 1115.03 2.81834C1149.65 2.61202 1180.42 2.4488 1206.34 2.31158C1216.89 2.25571 1226.64 2.20432 1235.52 2.15577C1266.55 1.98607 1286.32 1.8566 1293.2 1.72182C1331.11 0.979125 1371.19 0.9395 1421.72 0.890327C1438.54 0.873952 1456.53 0.856677 1475.97 0.811692ZM359.398 3.30908C362.849 3.29243 365.843 3.54382 366.088 3.86972C366.332 4.19556 363.735 4.47335 360.284 4.49007C342.055 4.57839 328.95 4.65126 318.706 4.7085C299.744 4.81444 290.58 4.86609 276.856 4.85703C241.426 4.83363 207.217 4.82183 176.44 4.81189C125.282 4.79537 83.5871 4.78218 61.5228 4.72015C58.063 4.71036 55.2854 4.43765 55.3208 4.11145C55.3593 3.78557 58.1922 3.52958 61.6493 3.53917C83.5585 3.60076 124.939 3.61448 175.907 3.63091C206.72 3.64084 241.041 3.65105 276.693 3.67459C290.004 3.68338 298.656 3.63559 317.196 3.53188C327.431 3.47463 340.682 3.39977 359.398 3.30908Z" fill="white"/>
</svg>
