<svg width="899" height="80" viewBox="0 0 899 80" fill="none" xmlns="http://www.w3.org/2000/svg">
<path d="M3 25C3 13.9543 11.9543 5 23 5H874C885.046 5 894 13.9543 894 25V56C894 67.0457 885.046 76 874 76H23C11.9543 76 3 67.0457 3 56V25Z" fill="#F2F2F2"/>
<path d="M741.976 0.000107708C753.403 -0.00345105 764.114 0.0816226 777.644 0.189322C777.651 0.189322 777.658 0.189322 777.665 0.189322C779.598 0.204709 781.59 0.220823 783.648 0.236931C800.223 0.366643 821.76 0.518869 854.234 0.606204C861.102 0.624678 867.7 0.652419 874 0.687553C888.493 0.602384 898.611 13.7581 898.057 25C897.923 37.2904 897.766 47.6037 897.613 55.5832C897.61 55.7218 897.607 55.8606 897.605 56C897.322 59.5108 897.602 64.3266 891.456 71.7104C888.182 75.3119 882.462 79.3899 874 79.4362C871.793 79.4307 869.418 79.4248 866.858 79.4184C861.093 79.4041 854.384 79.3877 846.529 79.3672C820.53 79.2993 779.783 79.3204 742.237 79.3403C719.448 79.3524 697.835 79.3639 681.418 79.3543C657.409 79.3404 634.243 79.2776 609.059 79.2091C585.996 79.1463 561.237 79.0785 532.591 79.04C510.611 79.0104 489.257 78.7566 467.556 78.473C464.794 78.4369 462.02 78.4004 459.244 78.3637C440.094 78.1107 420.518 77.8516 399.349 77.7033C361.615 77.4389 331.503 77.5481 298.163 77.6691C285.123 77.7164 271.588 77.7656 256.908 77.7948C233.693 77.8411 200.32 77.8318 166.809 77.8187C163.955 77.8175 161.096 77.8167 158.245 77.8156C158.231 77.8156 158.217 77.8156 158.202 77.8156C127.527 77.8033 97.4209 77.7912 75.333 77.818C47.2141 77.8522 33.1464 77.9237 23 77.9941C20.2316 78.009 17.7273 77.5278 15.4533 76.7196C11.1736 75.1571 7.55428 72.5472 4.66482 68.3953C2.41724 65.1333 0.826922 60.7829 0.828919 56C0.808211 46.8293 0.804059 36.2268 0.806634 25C0.669249 16.4602 6.24856 7.7992 14.5422 4.48824C14.6407 4.4476 14.7395 4.40765 14.8387 4.36838C19.2054 2.62551 23.0648 3.13223 22.9999 3.44869C22.9805 3.81782 19.3022 3.90567 15.2294 5.56026C7.21462 8.66502 1.92265 16.9489 2.05841 25C2.05728 29.8989 2.05744 34.6523 2.05967 39.1984C2.35662 39.8027 2.5814 42.9411 2.57909 46.7025C2.5778 48.8259 2.58818 51.9371 2.60922 56C2.17044 63.1277 8.62488 76.0762 23 76.1761C34.9646 76.0848 49.242 75.9705 65.6807 75.8374C62.589 75.7833 59.999 75.7306 57.7298 75.6805C55.066 75.6218 53.0254 75.5712 51.2709 75.5279C47.6139 75.4377 45.1807 75.3782 40.8618 75.3344C36.0495 75.3105 29.914 75.2957 23 75.2857C15.8045 75.4537 7.68822 70.5397 4.90115 62.6146C3.83006 59.7176 3.89686 57.025 4.13347 56C4.20536 55.6573 4.28371 55.4709 4.36564 55.4753C4.44553 55.48 4.52182 55.6656 4.59187 56C4.81964 57.0245 5.08254 59.5338 6.09876 62.246C6.12431 62.3151 6.15027 62.384 6.17664 62.4527C8.79722 69.5755 16.2163 74.1841 23 74.034C30.2778 74.0444 36.8254 74.0601 41.9719 74.0862C44.6304 74.0997 46.9205 74.1157 48.6398 74.1302C50.0144 74.1418 51.7301 74.1575 52.6838 74.1778C52.8104 74.1805 53.0517 74.1859 53.3397 74.1943C53.3446 74.1945 53.3493 74.1947 53.3542 74.1949C53.5151 74.1995 54.3371 74.2228 55.2139 74.2736C55.3911 74.2839 55.7761 74.3068 56.2232 74.3438C56.3385 74.3467 56.4539 74.3495 56.5692 74.3524C58.177 74.3919 59.8177 74.4322 61.5935 74.4714C68.527 74.6244 79.5091 74.8172 102.379 75.0213C123.414 75.2091 158.973 75.2933 203.342 75.2948C200.345 75.2689 197.34 75.2438 194.338 75.2197C186.784 75.1591 179.195 75.1039 171.603 75.0512C168.695 75.0311 165.825 75.0114 162.902 74.992C158.196 74.9607 153.477 74.9299 148.759 74.8999C145.571 74.8795 142.377 74.8595 139.186 74.8394C139.179 74.8394 139.172 74.8394 139.164 74.8394C134.736 74.8115 130.296 74.7835 125.821 74.7546C124.255 74.7439 122.708 74.7335 121.172 74.7235C115.057 74.6834 109.05 74.6445 102.134 74.569C101.293 74.5566 100.38 74.5404 99.6978 74.5269C98.9649 74.5127 98.2595 74.4983 97.5928 74.4836C97.0048 74.4706 96.4438 74.4574 95.9061 74.4451C95.834 74.4435 95.762 74.4419 95.6898 74.4403C95.0878 74.4265 94.5129 74.4138 93.9598 74.4018C93.408 74.3898 92.876 74.3783 92.3522 74.3682C92.3474 74.3682 92.3426 74.3682 92.3378 74.3682C91.7907 74.358 91.3751 74.3502 90.7952 74.3414C90.0671 74.3303 89.4413 74.3218 88.6831 74.3133C87.9498 74.3051 87.1849 74.2977 86.4124 74.2913C85.6402 74.2849 84.8537 74.2793 84.0552 74.2742C83.2566 74.2691 82.4443 74.2644 81.626 74.2602C80.8083 74.256 79.9795 74.2523 79.1463 74.2486C78.3127 74.2449 77.4697 74.2412 76.6233 74.2376C74.6739 74.2294 72.805 74.16 71.4331 74.0423C70.0617 73.9246 69.2978 73.7689 69.3066 73.6077C69.316 73.4465 70.0986 73.2917 71.4836 73.1756C72.8691 73.0596 74.7451 72.9922 76.6954 72.9864C77.2262 72.9848 77.76 72.983 78.2957 72.9815C78.6135 72.9806 78.9348 72.9799 79.2544 72.979C80.114 72.9767 80.9829 72.9741 81.8566 72.9723C82.73 72.9706 83.6111 72.9694 84.5022 72.9687C85.3956 72.9679 86.3015 72.9677 87.2198 72.9687C88.1361 72.9696 89.0726 72.9717 90.0239 72.9754C90.9522 72.9788 92.0108 72.9849 92.9578 72.9925C93.6501 72.9978 94.5026 73.0069 95.2141 73.015C95.9563 73.0236 96.6868 73.0332 97.391 73.0431C98.0968 73.0531 98.7794 73.0637 99.431 73.0736C99.5006 73.0747 99.5705 73.0757 99.6401 73.0767C100.216 73.0855 100.772 73.0941 101.298 73.1017C101.886 73.1102 102.442 73.1175 102.97 73.1237C103.552 73.1307 103.906 73.1334 104.34 73.1365C110.076 73.1566 117.165 73.1525 123.926 73.1487C124.775 73.1482 125.62 73.1479 126.456 73.1475C130.896 73.1446 135.327 73.1409 139.755 73.1371C142.974 73.1344 146.196 73.1316 149.422 73.1292C154.169 73.1256 158.931 73.1228 163.688 73.1206C166.642 73.1194 169.542 73.1186 172.489 73.1182C180.185 73.117 187.905 73.1187 195.636 73.1261C203.356 73.1336 211.124 73.1466 218.898 73.1689C226.642 73.191 234.687 73.2241 242.455 73.2745C248.166 73.3121 254.022 73.3777 259.439 73.4454C262.35 73.4818 265.201 73.5188 268.01 73.5558C268.019 73.556 268.029 73.5562 268.038 73.5564C270.504 73.5889 272.938 73.6211 275.355 73.6517C280.537 73.7175 285.627 73.7761 290.716 73.8256C295.798 73.8751 300.858 73.9155 305.955 73.9465C311.014 73.9772 316.158 73.9994 321.252 74.013C326.371 74.0268 331.397 74.0323 336.678 74.0319C343.622 74.0307 350.518 74.0195 357.597 74.0063C364.625 73.9928 371.709 73.9758 378.812 73.9587C381.294 73.9527 383.782 73.9471 386.273 73.941C386.282 73.941 386.292 73.941 386.301 73.941C390.908 73.9297 395.527 73.9183 400.149 73.9074C407.285 73.8906 414.441 73.8746 421.623 73.8616C428.804 73.8487 436.029 73.8386 443.292 73.8348C450.555 73.8313 458.015 73.8334 465.509 73.8537C472.194 73.8712 478.932 73.8946 485.519 73.9178C487.259 73.9239 488.999 73.93 490.738 73.9361C498.993 73.9646 506.985 73.9874 514.887 73.9916C522.784 73.9964 530.675 73.9834 538.639 73.9562C546.578 73.9291 554.618 73.8886 562.723 73.8397C570.862 73.7905 578.897 73.7339 587.095 73.6718C595.23 73.61 603.403 73.5436 611.676 73.4734C616.275 73.4346 621.167 73.3988 625.79 73.3685C630.458 73.3378 635.095 73.3106 639.674 73.2854C641.532 73.2752 643.381 73.2654 645.217 73.2555C647.895 73.2411 650.549 73.227 653.161 73.2122C657.57 73.1872 661.871 73.1605 666.05 73.1292C670.226 73.0978 674.28 73.0614 678.196 73.0169C682.249 72.9706 685.59 72.9236 689.586 72.8564C699.317 72.7267 705.347 72.6869 712.047 72.6421C713.367 72.6333 714.715 72.6239 716.12 72.614C724.155 72.5638 732.181 72.5264 740.103 72.4981C748.101 72.4697 755.974 72.4506 763.949 72.4395C771.846 72.4284 779.8 72.4258 787.722 72.4303C795.632 72.4349 803.529 72.4468 811.446 72.4663C819.357 72.4858 827.431 72.5134 835.183 72.5469C839.663 72.5662 844.423 72.5919 848.843 72.6183C852.032 72.6373 855.176 72.6573 858.258 72.6769C859.516 72.6849 860.767 72.6929 862.006 72.7007C866.122 72.7266 870.126 72.7507 874 72.7694C874.125 72.7701 874.249 72.7695 874.372 72.7675C877.748 72.7183 880.958 71.6359 883.581 69.8128C886.213 67.9904 888.258 65.4467 889.467 62.5661C890.375 60.3763 890.765 58.296 890.758 56C890.751 54.9995 890.744 53.9646 890.735 52.8656C890.714 50.1959 890.692 47.5802 890.671 44.9722C890.639 41.0679 890.606 37.1919 890.572 33.2872C890.548 30.5081 890.523 27.7541 890.498 25C890.488 24.0784 890.402 23.1635 890.241 22.2631C890.062 21.2551 889.771 20.2118 889.401 19.2574C888.263 16.3053 886.261 13.7362 883.743 11.9118C881.23 10.0837 878.24 9.02935 875.206 8.85668C874.802 8.83305 874.404 8.82457 874 8.83052C870.742 8.8701 867.518 8.91131 864.24 8.95544C857.821 9.04211 851.678 9.08232 846.297 9.10925C840.853 9.13588 835.766 9.15065 830.814 9.1648C829.886 9.16744 828.959 9.17009 828.031 9.17273C824.037 9.1838 820.108 9.19426 816.238 9.20691C811.468 9.22243 806.786 9.24096 802.088 9.26307C797.431 9.2849 792.727 9.3105 788.096 9.34058C783.421 9.37103 778.95 9.40393 774.133 9.44434C769.368 9.48399 764.529 9.53574 759.226 9.59205C753.97 9.64795 748.455 9.70541 742.87 9.75563C737.29 9.80603 731.622 9.84957 725.994 9.88381C720.356 9.91824 714.698 9.94429 709.119 9.96255C703.511 9.98096 697.935 9.99174 692.388 9.99673C686.854 10.0017 681.138 10.0009 675.787 9.9949C667.123 9.98523 658.499 9.97157 649.858 9.95644C641.265 9.94126 632.646 9.92431 624.044 9.90639C615.458 9.88847 606.863 9.86976 598.281 9.85024C589.695 9.83072 581.111 9.81067 572.539 9.79042C570.644 9.78595 568.748 9.78147 566.852 9.777C560.177 9.76121 553.502 9.7454 546.855 9.73C546.81 9.72979 546.764 9.72959 546.718 9.72939C538.163 9.70979 529.763 9.69072 521.28 9.67445C518.165 9.66864 515.173 9.66316 512.132 9.65858C509.088 9.65403 506.1 9.65033 503.085 9.6476C500.067 9.64488 497.066 9.64336 494.111 9.64333C491.123 9.64338 488.212 9.64479 485.273 9.64882C482.58 9.65235 479.905 9.6587 476.983 9.6653C476.717 9.66591 476.45 9.66652 476.183 9.66713C472.986 9.67439 469.349 9.679 465.969 9.67567C457.015 9.66582 448.289 9.66116 439.405 9.66164C430.517 9.66208 421.648 9.66748 412.705 9.67506C409.213 9.67799 405.704 9.68159 402.195 9.68483C396.735 9.68987 391.256 9.69493 385.759 9.69887C376.716 9.70541 367.654 9.70837 358.533 9.70436C349.447 9.70036 340.302 9.68908 331.198 9.66957C322.102 9.65015 312.926 9.62262 303.871 9.58778C293.781 9.5488 283.75 9.50575 273.674 9.46082C263.614 9.41585 253.549 9.36874 243.528 9.32044C233.471 9.27207 223.439 9.22241 213.404 9.17151C203.363 9.12059 193.328 9.06848 183.286 9.01526C177.277 8.98338 171.269 8.95093 165.258 8.91821C162.078 8.94758 159.029 8.97636 156.096 9.00366C134.424 9.20537 118.754 9.35087 98.0817 9.45106C96.1019 9.46623 94.491 9.48785 92.5311 9.51393C92.1573 9.5189 91.7606 9.52388 91.3562 9.52919C88.7949 9.56277 85.8535 9.59791 81.7616 9.62013C73.5988 9.66446 61.087 9.65482 44.9189 9.36256C40.8346 9.28872 38.2357 8.95545 39.116 8.61791C39.7348 8.38114 41.9041 8.20521 44.5512 8.1467C39.6605 8.10654 34.7829 8.06453 29.9179 8.0228C27.9761 8.00608 26.153 7.9284 24.8575 7.80489C23.5628 7.68135 22.9003 7.52265 23.0122 7.36177C23.124 7.20084 24.0054 7.04989 25.4631 6.94C26.9203 6.83024 28.8322 6.77078 30.783 6.77337C35.958 6.78054 41.1155 6.78779 46.2741 6.7929C51.4369 6.79808 56.5754 6.8011 61.7291 6.80267C66.8814 6.80425 72.0319 6.80405 77.1986 6.80267C82.3451 6.80122 87.502 6.79891 92.6681 6.79534C97.867 6.79187 102.968 6.78699 108.152 6.78192C111.258 6.77881 114.401 6.77574 117.487 6.77215C118.637 6.77092 119.759 6.76922 120.882 6.76788C121.8 6.76678 122.722 6.76588 123.672 6.76483C133.661 6.75256 143.745 6.73883 153.739 6.72393C163.78 6.7091 173.811 6.69342 183.842 6.67693C193.878 6.66045 203.905 6.64288 213.937 6.62505C223.964 6.6072 233.985 6.58876 244.025 6.56951C254.029 6.55019 264.073 6.53043 274.092 6.50908C281.843 6.49258 289.527 6.47486 297.224 6.45598C300.255 6.42369 303.253 6.39319 306.213 6.36381C314.829 6.27832 323.456 6.16612 331.955 6.05497C316.828 6.11023 304.677 6.19656 293.108 6.27897C291.557 6.29002 290.017 6.30112 288.48 6.31193C272.8 6.42234 257.653 6.5158 237.278 6.49504C179.332 6.43601 145.733 6.39293 124.797 6.31254C103.864 6.23216 94.87 6.11301 86.476 5.87613C74.615 5.54138 51.7226 5.35097 40.2189 5.34389C36.0401 5.34132 32.667 5.05891 32.686 4.71338C32.7062 4.36776 36.1114 4.08946 40.291 4.09202C52.4379 4.09949 77.2097 4.29302 91.3273 4.6914C97.6152 4.86887 104.846 4.98335 125.46 5.06251C146.076 5.14166 179.365 5.18403 237.422 5.24318C257.063 5.26319 271.641 5.17418 287.154 5.06495C288.675 5.05424 290.207 5.043 291.753 5.03199C291.763 5.03199 291.772 5.03199 291.782 5.03199C306.032 4.93044 321.549 4.81974 342.472 4.77075C390.699 4.65783 455.572 4.43891 470.971 4.31542C473.994 4.29118 476.915 4.26396 479.996 4.23546C491.825 4.12605 506.104 3.9941 538.285 3.90647C545.323 3.8873 553.567 3.87617 562.563 3.87107C576.063 3.70263 589.169 3.54638 600.566 3.45357C610.402 3.37349 619.473 3.22617 628.261 3.06477C630.792 3.0183 633.338 2.96971 635.881 2.92133C642.013 2.80465 648.148 2.68803 654.125 2.59784C658.891 2.52594 663.881 2.43954 669.155 2.3482C688.367 2.01544 711.391 1.6167 741.392 1.61148C773.195 1.60595 800.424 1.67792 823.908 1.7482C806.661 1.6669 793.348 1.56949 782.257 1.48269C780.165 1.46632 778.16 1.45042 776.231 1.43508C762.6 1.32679 752.69 1.24805 742.069 1.25136C691.341 1.26718 672.314 1.37328 650.846 1.67984C645.193 1.76056 638.958 1.86808 632.24 1.98381C618.814 2.2151 603.457 2.47955 586.956 2.6308C571.588 2.77165 554.399 2.9796 536.187 3.19966C536.18 3.19966 536.172 3.19966 536.165 3.19966C532.607 3.24266 529.006 3.28612 525.374 3.32967C503.231 3.59518 479.94 3.86216 457.268 4.03037C454.843 4.04836 451.938 4.07317 448.603 4.10179C429.354 4.26694 395.562 4.55688 354.294 4.37096C345.23 4.33011 335.812 4.24358 325.064 4.14451C321.79 4.11434 318.391 4.08263 314.842 4.05113C299.521 3.91512 280.907 3.77063 256.121 3.68368C235.666 3.61193 210.737 3.57752 184.851 3.54147C172.1 3.52371 159.117 3.50525 146.321 3.48226C107.671 3.41281 72.246 3.30264 36.8886 3.19234C36.8814 3.19234 36.8742 3.19234 36.8669 3.19234C32.6899 3.1793 29.4179 2.88829 29.5647 2.5429C29.713 2.1977 33.218 1.92815 37.3932 1.94108C72.7715 2.05145 108.088 2.16178 146.609 2.23101C159.21 2.25365 172.092 2.2719 184.793 2.2896C210.805 2.32585 236.081 2.36062 256.727 2.43304C281.934 2.52147 300.889 2.66871 316.421 2.80658C320.161 2.83979 323.678 2.87226 327.017 2.90302C337.646 3.00095 346.483 3.0828 355.08 3.12153C395.037 3.30155 427.552 3.02314 446.873 2.85785C450.3 2.82854 453.312 2.80303 455.877 2.784C478.104 2.61909 501.038 2.3565 523.161 2.09123C526.75 2.04819 530.322 2.00527 533.866 1.96244C533.873 1.96224 533.88 1.96204 533.887 1.96183C552.095 1.74179 569.593 1.53034 585.248 1.38687C601.138 1.24123 614.996 1.00135 627.959 0.777107C634.914 0.656779 641.613 0.541375 648.229 0.446898C671.004 0.121673 691.084 0.0159729 741.976 0.000107708ZM52.113 8.20713C62.1657 8.36397 70.3564 8.39705 76.4562 8.38658C71.2759 8.35094 66.108 8.31356 60.9362 8.27488C57.9926 8.25287 55.0525 8.2303 52.113 8.20713ZM563.796 5.12171C562.167 5.14207 560.526 5.16266 558.879 5.18336C563.425 5.17356 567.972 5.16444 572.511 5.15528C578.084 5.14405 583.657 5.13343 589.227 5.12293C580.37 5.11883 571.787 5.11764 563.796 5.12171ZM741.464 2.86335C713.171 2.86827 692.027 3.23335 672.961 3.56283C667.471 3.65771 662.147 3.74948 656.879 3.82895C654.695 3.86191 652.512 3.89834 650.312 3.93699C663.126 3.9566 674.904 3.97721 684.545 3.99436C713.317 4.04553 729.691 4.15216 744.081 4.24583C748.244 4.27293 752.245 4.29885 756.328 4.32213C759.706 4.28012 763.214 4.23846 766.759 4.20189C771.722 4.15019 777.086 4.1006 782.192 4.05845C787.317 4.01603 792.525 3.9781 797.64 3.94614C802.797 3.91391 807.907 3.88702 812.994 3.86374C817.78 3.84174 822.551 3.82316 827.166 3.80515C827.43 3.80413 827.695 3.80311 827.959 3.8021C832.837 3.78292 837.583 3.76458 841.944 3.73923C846.382 3.71318 850.073 3.68248 853.347 3.63607C857.437 3.57829 861.633 3.52281 865.782 3.47128C868.529 3.43713 871.267 3.40455 874 3.3734C875.512 3.35721 877.028 3.49816 878.513 3.79743C882.911 4.67653 886.973 6.9614 890.029 10.2238C891.02 11.2763 891.944 12.4845 892.696 13.708C893.044 14.2711 893.366 14.8503 893.66 15.4423C890.285 8.3112 882.483 3.05245 874 3.12577C873.135 3.1248 872.268 3.1238 871.398 3.12275C858.956 3.10784 845.674 3.06694 831.023 3.02204C806.028 2.94545 777.05 2.85716 741.464 2.86335ZM823.815 77.9676C827.304 77.9643 832.414 77.9545 839.004 77.9419C840.562 77.939 842.206 77.9354 843.927 77.9322C843.887 77.9319 843.845 77.9319 843.805 77.9316C839.536 77.8997 835.595 77.8719 831.341 77.8461C823.758 77.8004 816.392 77.7613 808.951 77.7277C801.482 77.6941 794.033 77.6665 786.576 77.6447C779.108 77.6228 771.618 77.6071 764.194 77.5977C756.697 77.5883 749.308 77.5847 741.847 77.5892C739.471 77.5906 737.087 77.5928 734.704 77.5959C740.024 77.6274 745.549 77.6533 751.384 77.6807C756.044 77.7026 760.906 77.7254 766.018 77.7527C767.974 77.7632 770.341 77.7792 773.103 77.7979C784.05 77.872 801.227 77.9886 823.815 77.9676ZM675.19 77.9407C673.459 77.949 671.737 77.9565 670.036 77.9627C665.192 77.9803 660.471 77.9903 655.842 77.9981C652.592 78.0035 649.379 78.0074 646.212 78.0115C644.875 78.0133 643.541 78.0152 642.218 78.017C640.003 78.0201 637.805 78.0237 635.623 78.0274C650.931 78.0651 665.895 78.094 681.49 78.1031C681.696 78.1032 681.903 78.103 682.11 78.1031C679.75 78.0478 677.444 77.9937 675.19 77.9407Z" fill="black"/>
<g clip-path="url(#clip0_117_51262)">
<path d="M266.547 41.3554C266.547 39.7986 266.421 38.6625 266.148 37.4844H248.37V44.5112H258.805C258.595 46.2574 257.459 48.8873 254.934 50.6544L254.899 50.8897L260.52 55.2442L260.909 55.283C264.486 51.9799 266.547 47.12 266.547 41.3554Z" fill="#4285F4"/>
<path d="M248.37 59.8695C253.482 59.8695 257.774 58.1864 260.909 55.2831L254.934 50.6545C253.335 51.7696 251.189 52.548 248.37 52.548C243.363 52.548 239.113 49.2451 237.598 44.6797L237.376 44.6985L231.532 49.2218L231.455 49.4343C234.569 55.6196 240.965 59.8695 248.37 59.8695Z" fill="#34A853"/>
<path d="M237.598 44.6797C237.199 43.5015 236.967 42.2391 236.967 40.9348C236.967 39.6303 237.199 38.368 237.577 37.1899L237.567 36.939L231.649 32.343L231.455 32.4351C230.172 35.0019 229.436 37.8842 229.436 40.9348C229.436 43.9854 230.172 46.8676 231.455 49.4343L237.598 44.6797Z" fill="#FBBC05"/>
<path d="M248.37 29.3214C251.926 29.3214 254.324 30.8572 255.692 32.1406L261.035 26.923C257.753 23.8724 253.482 22 248.37 22C240.965 22 234.569 26.2498 231.455 32.4351L237.577 37.1898C239.113 32.6245 243.363 29.3214 248.37 29.3214Z" fill="#EB4335"/>
</g>
<path d="M300.52 50.12C299.533 51.48 298.293 52.56 296.8 53.36C295.307 54.16 293.693 54.56 291.96 54.56C290.067 54.56 288.307 54.0933 286.68 53.16C285.08 52.2 283.8 50.92 282.84 49.32C281.907 47.6933 281.44 45.9333 281.44 44.04C281.44 42.1467 281.907 40.4 282.84 38.8C283.8 37.1733 285.08 35.8933 286.68 34.96C288.307 34 290.067 33.52 291.96 33.52C293.667 33.52 295.267 33.92 296.76 34.72C298.253 35.4933 299.493 36.5467 300.48 37.88L296.4 40.64C295.147 39.1733 293.667 38.44 291.96 38.44C290.947 38.44 290.013 38.6933 289.16 39.2C288.307 39.7067 287.627 40.3867 287.12 41.24C286.613 42.0933 286.36 43.0267 286.36 44.04C286.36 45.0533 286.613 45.9867 287.12 46.84C287.627 47.6933 288.307 48.3733 289.16 48.88C290.013 49.36 290.947 49.6 291.96 49.6C293.667 49.6 295.147 48.8667 296.4 47.4L300.52 50.12ZM312.468 54.56C310.574 54.56 308.814 54.0933 307.188 53.16C305.588 52.2 304.308 50.92 303.348 49.32C302.414 47.6933 301.948 45.9333 301.948 44.04C301.948 42.1467 302.414 40.4 303.348 38.8C304.308 37.1733 305.588 35.8933 307.188 34.96C308.814 34 310.574 33.52 312.468 33.52C314.361 33.52 316.108 34 317.708 34.96C319.334 35.8933 320.614 37.1733 321.548 38.8C322.508 40.4 322.988 42.1467 322.988 44.04C322.988 45.9333 322.508 47.6933 321.548 49.32C320.614 50.92 319.334 52.2 317.708 53.16C316.108 54.0933 314.361 54.56 312.468 54.56ZM312.428 49.6C313.441 49.6 314.374 49.36 315.228 48.88C316.081 48.3733 316.761 47.6933 317.268 46.84C317.774 45.9867 318.028 45.0533 318.028 44.04C318.028 43.0267 317.774 42.0933 317.268 41.24C316.761 40.3867 316.081 39.7067 315.228 39.2C314.374 38.6933 313.441 38.44 312.428 38.44C311.414 38.44 310.481 38.6933 309.628 39.2C308.774 39.7067 308.094 40.3867 307.588 41.24C307.108 42.0933 306.868 43.0267 306.868 44.04C306.868 45.0533 307.108 45.9867 307.588 46.84C308.094 47.6933 308.774 48.3733 309.628 48.88C310.481 49.36 311.414 49.6 312.428 49.6ZM336.314 33.48C337.487 33.48 338.674 33.7333 339.874 34.24C341.1 34.72 342.14 35.6 342.994 36.88C343.874 38.16 344.314 39.88 344.314 42.04V54H339.354V42.04C339.354 40.5467 338.927 39.48 338.074 38.84C337.247 38.1733 336.274 37.84 335.154 37.84C334.034 37.84 333.074 38.24 332.274 39.04C331.5 39.8133 331.114 41.0667 331.114 42.8V54H326.154V34H331.114V35.68C331.834 35.0133 332.634 34.48 333.514 34.08C334.394 33.68 335.327 33.48 336.314 33.48ZM354.832 47.16C354.832 48.0667 355.045 48.6933 355.472 49.04C355.898 49.3867 356.578 49.56 357.512 49.56C358.072 49.56 358.685 49.52 359.352 49.44V54C358.098 54.1333 357.058 54.2 356.232 54.2C354.098 54.2 352.498 53.72 351.432 52.76C350.392 51.7733 349.872 50.0133 349.872 47.48V38.44H346.112V34H349.872V29.08L354.832 27.4V34H359.272V38.44H354.832V47.16ZM365.901 30.68C364.968 30.68 364.235 30.4267 363.701 29.92C363.168 29.4133 362.901 28.72 362.901 27.84C362.901 26.9333 363.168 26.2267 363.701 25.72C364.235 25.2133 364.968 24.96 365.901 24.96C366.835 24.96 367.568 25.2133 368.101 25.72C368.635 26.2267 368.901 26.9333 368.901 27.84C368.901 28.6933 368.621 29.3867 368.061 29.92C367.528 30.4267 366.808 30.68 365.901 30.68ZM363.381 54V34H368.341V54H363.381ZM383.462 33.48C384.636 33.48 385.822 33.7333 387.022 34.24C388.249 34.72 389.289 35.6 390.142 36.88C391.022 38.16 391.462 39.88 391.462 42.04V54H386.502V42.04C386.502 40.5467 386.076 39.48 385.222 38.84C384.396 38.1733 383.422 37.84 382.302 37.84C381.182 37.84 380.222 38.24 379.422 39.04C378.649 39.8133 378.262 41.0667 378.262 42.8V54H373.302V34H378.262V35.68C378.982 35.0133 379.782 34.48 380.662 34.08C381.542 33.68 382.476 33.48 383.462 33.48ZM408.012 34H412.972V54H408.012V52.32C407.292 52.9867 406.492 53.52 405.612 53.92C404.732 54.32 403.798 54.52 402.812 54.52C401.638 54.52 400.438 54.28 399.212 53.8C398.012 53.2933 396.972 52.4 396.092 51.12C395.238 49.84 394.812 48.12 394.812 45.96V34H399.772V45.96C399.772 47.4533 400.185 48.5333 401.012 49.2C401.865 49.84 402.852 50.16 403.972 50.16C405.092 50.16 406.038 49.7733 406.812 49C407.612 48.2 408.012 46.9333 408.012 45.2V34ZM426.726 33.48C428.646 33.48 430.366 33.96 431.886 34.92C433.432 35.8533 434.632 37.12 435.486 38.72C436.339 40.32 436.766 42.0933 436.766 44.04C436.766 44.68 436.712 45.2667 436.606 45.8H421.166C421.566 47.2133 422.272 48.32 423.286 49.12C424.299 49.8933 425.592 50.28 427.166 50.28C428.126 50.28 429.046 50.0667 429.926 49.64C430.832 49.2133 431.512 48.6667 431.966 48L435.766 50.24C434.832 51.6267 433.619 52.6933 432.126 53.44C430.659 54.16 428.966 54.52 427.046 54.52C424.912 54.52 423.019 54.0667 421.366 53.16C419.712 52.2533 418.432 51 417.526 49.4C416.646 47.8 416.206 46 416.206 44C416.206 42.0267 416.646 40.24 417.526 38.64C418.432 37.04 419.686 35.7867 421.286 34.88C422.886 33.9467 424.699 33.48 426.726 33.48ZM432.126 41.92C431.912 40.64 431.312 39.64 430.326 38.92C429.366 38.1733 428.152 37.8 426.686 37.8C425.672 37.8 424.739 37.9867 423.886 38.36C423.059 38.7333 422.392 39.24 421.886 39.88C421.379 40.52 421.112 41.2 421.086 41.92H432.126ZM470.198 46.12L473.918 34H479.118L472.638 54H467.718L463.958 42.12L460.198 54H455.358L449.038 34H454.198L457.798 46.04L461.318 34H466.598L470.198 46.12ZM484.847 30.68C483.913 30.68 483.18 30.4267 482.647 29.92C482.113 29.4133 481.847 28.72 481.847 27.84C481.847 26.9333 482.113 26.2267 482.647 25.72C483.18 25.2133 483.913 24.96 484.847 24.96C485.78 24.96 486.513 25.2133 487.047 25.72C487.58 26.2267 487.847 26.9333 487.847 27.84C487.847 28.6933 487.567 29.3867 487.007 29.92C486.473 30.4267 485.753 30.68 484.847 30.68ZM482.327 54V34H487.287V54H482.327ZM499.402 47.16C499.402 48.0667 499.615 48.6933 500.042 49.04C500.469 49.3867 501.149 49.56 502.082 49.56C502.642 49.56 503.255 49.52 503.922 49.44V54C502.669 54.1333 501.629 54.2 500.802 54.2C498.669 54.2 497.069 53.72 496.002 52.76C494.962 51.7733 494.442 50.0133 494.442 47.48V38.44H490.682V34H494.442V29.08L499.402 27.4V34H503.842V38.44H499.402V47.16ZM525.443 54H520.523V42.16C520.523 40.6667 520.096 39.6 519.243 38.96C518.416 38.2933 517.429 37.96 516.283 37.96C515.376 37.96 514.549 38.24 513.803 38.8C513.083 39.36 512.616 40.2533 512.403 41.48V54H507.443V26H512.403V35.68C513.069 35.04 513.829 34.5333 514.683 34.16C515.563 33.7867 516.496 33.6 517.483 33.6C518.656 33.6 519.843 33.8533 521.043 34.36C522.243 34.84 523.269 35.7067 524.123 36.96C525.003 38.2133 525.443 39.9067 525.443 42.04V54ZM556.249 34H561.209V53C561.209 54.8933 560.729 56.56 559.769 58C558.835 59.44 557.529 60.5467 555.849 61.32C554.169 62.12 552.289 62.52 550.209 62.52C547.889 62.52 545.782 62.0667 543.889 61.16C541.995 60.28 540.662 59.12 539.889 57.68L544.129 55.24C544.529 56.0133 545.275 56.6533 546.369 57.16C547.462 57.6933 548.782 57.96 550.329 57.96C552.035 57.96 553.449 57.4933 554.569 56.56C555.689 55.6533 556.249 54.4667 556.249 53V52.08C555.342 52.88 554.329 53.4933 553.209 53.92C552.089 54.3467 550.929 54.56 549.729 54.56C547.702 54.56 545.929 54.1067 544.409 53.2C542.889 52.2933 541.715 51.04 540.889 49.44C540.089 47.84 539.689 46.04 539.689 44.04C539.689 42.04 540.089 40.24 540.889 38.64C541.715 37.04 542.889 35.7867 544.409 34.88C545.929 33.9467 547.702 33.48 549.729 33.48C550.929 33.48 552.075 33.7067 553.169 34.16C554.289 34.5867 555.315 35.1867 556.249 35.96V34ZM550.369 49.8C551.462 49.8 552.449 49.56 553.329 49.08C554.235 48.5733 554.942 47.88 555.449 47C555.982 46.12 556.249 45.12 556.249 44C556.249 42.32 555.675 40.9467 554.529 39.88C553.409 38.8133 552.022 38.28 550.369 38.28C548.689 38.28 547.302 38.8267 546.209 39.92C545.142 40.9867 544.609 42.36 544.609 44.04C544.609 45.72 545.142 47.1067 546.209 48.2C547.302 49.2667 548.689 49.8 550.369 49.8ZM574.929 54.56C573.035 54.56 571.275 54.0933 569.649 53.16C568.049 52.2 566.769 50.92 565.809 49.32C564.875 47.6933 564.409 45.9333 564.409 44.04C564.409 42.1467 564.875 40.4 565.809 38.8C566.769 37.1733 568.049 35.8933 569.649 34.96C571.275 34 573.035 33.52 574.929 33.52C576.822 33.52 578.569 34 580.169 34.96C581.795 35.8933 583.075 37.1733 584.009 38.8C584.969 40.4 585.449 42.1467 585.449 44.04C585.449 45.9333 584.969 47.6933 584.009 49.32C583.075 50.92 581.795 52.2 580.169 53.16C578.569 54.0933 576.822 54.56 574.929 54.56ZM574.889 49.6C575.902 49.6 576.835 49.36 577.689 48.88C578.542 48.3733 579.222 47.6933 579.729 46.84C580.235 45.9867 580.489 45.0533 580.489 44.04C580.489 43.0267 580.235 42.0933 579.729 41.24C579.222 40.3867 578.542 39.7067 577.689 39.2C576.835 38.6933 575.902 38.44 574.889 38.44C573.875 38.44 572.942 38.6933 572.089 39.2C571.235 39.7067 570.555 40.3867 570.049 41.24C569.569 42.0933 569.329 43.0267 569.329 44.04C569.329 45.0533 569.569 45.9867 570.049 46.84C570.555 47.6933 571.235 48.3733 572.089 48.88C572.942 49.36 573.875 49.6 574.889 49.6ZM598.015 54.56C596.121 54.56 594.361 54.0933 592.735 53.16C591.135 52.2 589.855 50.92 588.895 49.32C587.961 47.6933 587.495 45.9333 587.495 44.04C587.495 42.1467 587.961 40.4 588.895 38.8C589.855 37.1733 591.135 35.8933 592.735 34.96C594.361 34 596.121 33.52 598.015 33.52C599.908 33.52 601.655 34 603.255 34.96C604.881 35.8933 606.161 37.1733 607.095 38.8C608.055 40.4 608.535 42.1467 608.535 44.04C608.535 45.9333 608.055 47.6933 607.095 49.32C606.161 50.92 604.881 52.2 603.255 53.16C601.655 54.0933 599.908 54.56 598.015 54.56ZM597.975 49.6C598.988 49.6 599.921 49.36 600.775 48.88C601.628 48.3733 602.308 47.6933 602.815 46.84C603.321 45.9867 603.575 45.0533 603.575 44.04C603.575 43.0267 603.321 42.0933 602.815 41.24C602.308 40.3867 601.628 39.7067 600.775 39.2C599.921 38.6933 598.988 38.44 597.975 38.44C596.961 38.44 596.028 38.6933 595.175 39.2C594.321 39.7067 593.641 40.3867 593.135 41.24C592.655 42.0933 592.415 43.0267 592.415 44.04C592.415 45.0533 592.655 45.9867 593.135 46.84C593.641 47.6933 594.321 48.3733 595.175 48.88C596.028 49.36 596.961 49.6 597.975 49.6ZM627.421 34H632.381V53C632.381 54.8933 631.901 56.56 630.941 58C630.007 59.44 628.701 60.5467 627.021 61.32C625.341 62.12 623.461 62.52 621.381 62.52C619.061 62.52 616.954 62.0667 615.061 61.16C613.167 60.28 611.834 59.12 611.061 57.68L615.301 55.24C615.701 56.0133 616.447 56.6533 617.541 57.16C618.634 57.6933 619.954 57.96 621.501 57.96C623.207 57.96 624.621 57.4933 625.741 56.56C626.861 55.6533 627.421 54.4667 627.421 53V52.08C626.514 52.88 625.501 53.4933 624.381 53.92C623.261 54.3467 622.101 54.56 620.901 54.56C618.874 54.56 617.101 54.1067 615.581 53.2C614.061 52.2933 612.887 51.04 612.061 49.44C611.261 47.84 610.861 46.04 610.861 44.04C610.861 42.04 611.261 40.24 612.061 38.64C612.887 37.04 614.061 35.7867 615.581 34.88C617.101 33.9467 618.874 33.48 620.901 33.48C622.101 33.48 623.247 33.7067 624.341 34.16C625.461 34.5867 626.487 35.1867 627.421 35.96V34ZM621.541 49.8C622.634 49.8 623.621 49.56 624.501 49.08C625.407 48.5733 626.114 47.88 626.621 47C627.154 46.12 627.421 45.12 627.421 44C627.421 42.32 626.847 40.9467 625.701 39.88C624.581 38.8133 623.194 38.28 621.541 38.28C619.861 38.28 618.474 38.8267 617.381 39.92C616.314 40.9867 615.781 42.36 615.781 44.04C615.781 45.72 616.314 47.1067 617.381 48.2C618.474 49.2667 619.861 49.8 621.541 49.8ZM642.442 48.36C642.442 48.7867 642.549 49.0933 642.762 49.28C642.975 49.4667 643.309 49.56 643.762 49.56C644.109 49.56 644.522 49.52 645.002 49.44V54C644.015 54.16 643.095 54.24 642.242 54.24C640.695 54.24 639.509 53.84 638.682 53.04C637.882 52.2133 637.482 50.76 637.482 48.68V26H642.442V48.36ZM657.194 33.48C659.114 33.48 660.834 33.96 662.354 34.92C663.901 35.8533 665.101 37.12 665.954 38.72C666.808 40.32 667.234 42.0933 667.234 44.04C667.234 44.68 667.181 45.2667 667.074 45.8H651.634C652.034 47.2133 652.741 48.32 653.754 49.12C654.768 49.8933 656.061 50.28 657.634 50.28C658.594 50.28 659.514 50.0667 660.394 49.64C661.301 49.2133 661.981 48.6667 662.434 48L666.234 50.24C665.301 51.6267 664.088 52.6933 662.594 53.44C661.128 54.16 659.434 54.52 657.514 54.52C655.381 54.52 653.488 54.0667 651.834 53.16C650.181 52.2533 648.901 51 647.994 49.4C647.114 47.8 646.674 46 646.674 44C646.674 42.0267 647.114 40.24 647.994 38.64C648.901 37.04 650.154 35.7867 651.754 34.88C653.354 33.9467 655.168 33.48 657.194 33.48ZM662.594 41.92C662.381 40.64 661.781 39.64 660.794 38.92C659.834 38.1733 658.621 37.8 657.154 37.8C656.141 37.8 655.208 37.9867 654.354 38.36C653.528 38.7333 652.861 39.24 652.354 39.88C651.848 40.52 651.581 41.2 651.554 41.92H662.594Z" fill="black"/>
<defs>
<clipPath id="clip0_117_51262">
<rect width="38" height="38" fill="white" transform="translate(229 22)"/>
</clipPath>
</defs>
</svg>
