<svg width="938" height="593" viewBox="0 0 938 593" fill="none" xmlns="http://www.w3.org/2000/svg">
<path d="M142.8 54.6221V100.222C142.8 101.422 139.6 102.022 133.2 102.022C126.8 101.622 123.4 101.422 123 101.422C120.2 101.422 115.4 101.622 108.6 102.022C101.8 102.022 96.8 102.022 93.6 102.022C92.4 230.422 93 324.422 95.4 384.022C97.4 398.422 98.4 412.422 98.4 426.022C98.4 439.222 98 454.822 97.2 472.822H54C54 456.022 53.6 429.822 52.8 394.222C52 358.622 51.6 332.622 51.6 316.222C51.6 299.422 52.2 273.222 53.4 237.622C53.8 213.222 54 198.222 54 192.622C54.4 187.022 54 172.222 52.8 148.222C51.6 123.822 50.8 108.822 50.4 103.222C33.6 104.822 17 104.222 0.6 101.422C1 76.6221 1 60.4221 0.6 52.8221C15.8 53.6221 39.6 53.8221 72 53.4221C104.4 53.0221 128 53.4221 142.8 54.6221ZM287.559 460.222C288.359 464.222 286.959 466.222 283.359 466.222C281.759 466.222 277.959 466.822 271.959 468.022C265.959 468.822 261.559 469.022 258.759 468.622C256.359 455.822 253.559 437.222 250.359 412.822C247.559 388.422 245.759 373.022 244.959 366.622C221.359 367.822 197.959 366.422 174.759 362.422C172.759 370.022 169.159 386.222 163.959 411.022C159.159 435.822 154.959 454.822 151.359 468.022C150.559 469.222 145.759 469.822 136.959 469.822C128.159 469.422 123.359 468.822 122.559 468.022C121.759 456.022 123.959 438.622 129.159 415.822C134.359 393.022 137.159 379.822 137.559 376.222C139.159 363.022 140.959 349.222 142.959 334.822C144.959 320.422 146.959 307.422 148.959 295.822C150.959 284.222 153.559 270.222 156.759 253.822C159.959 237.422 162.359 224.622 163.959 215.422C165.959 206.222 168.959 192.422 172.959 174.022C177.359 155.622 180.359 142.822 181.959 135.622C183.959 128.422 187.359 114.622 192.159 94.2221C196.959 73.4221 199.959 60.2221 201.159 54.6221C203.959 54.6221 207.159 54.4221 210.759 54.0221C214.359 53.2221 217.759 52.6221 220.959 52.2221C224.159 51.4221 227.359 51.0221 230.559 51.0221C232.959 50.6221 234.359 50.8221 234.759 51.6221C235.159 53.2221 236.359 57.8221 238.359 65.4221C245.559 104.222 251.759 145.622 256.959 189.622C262.559 233.222 268.159 282.022 273.759 336.022C279.359 389.622 283.959 431.022 287.559 460.222ZM208.359 338.422C212.359 338.822 217.959 339.222 225.159 339.622C232.359 340.022 237.759 340.422 241.359 340.822C230.559 248.422 221.959 181.622 215.559 140.422C213.959 148.422 208.759 177.022 199.959 226.222C191.559 275.022 184.759 312.222 179.559 337.822C185.959 337.422 195.559 337.622 208.359 338.422ZM442.467 424.222V465.622C436.067 467.222 422.667 469.022 402.267 471.022C381.867 473.022 361.667 473.622 341.667 472.822C322.067 472.022 312.467 468.822 312.867 463.222C309.267 387.222 309.067 283.422 312.267 151.822C306.667 117.022 305.467 84.8221 308.667 55.2221L309.267 54.0221C325.667 52.4221 348.667 52.6221 378.267 54.6221C407.867 56.6221 429.267 57.0221 442.467 55.8221L445.467 88.8221C441.067 89.2221 432.067 89.4221 418.467 89.4221C405.267 89.0221 394.067 89.0221 384.867 89.4221C376.067 89.8221 367.467 91.0221 359.067 93.0221C356.667 95.8221 355.067 99.4221 354.267 103.822C353.867 107.822 353.867 113.022 354.267 119.422C354.667 125.422 354.867 129.422 354.867 131.422C355.267 139.422 355.267 158.622 354.867 189.022C354.467 219.022 355.267 237.822 357.267 245.422C358.467 246.622 360.867 247.222 364.467 247.222C372.067 247.622 383.067 247.422 397.467 246.622C411.867 245.822 420.267 245.222 422.667 244.822L425.667 275.422C425.667 275.822 425.267 276.422 424.467 277.222C424.067 277.622 423.667 277.822 423.267 277.822C421.667 277.822 416.267 277.622 407.067 277.222C398.267 276.822 391.867 276.822 387.867 277.222C384.267 277.222 379.267 277.822 372.867 279.022C366.467 279.822 360.867 281.222 356.067 283.222C354.867 284.822 354.067 287.622 353.667 291.622C353.267 295.622 352.467 303.422 351.267 315.022C350.467 326.622 349.867 335.822 349.467 342.622C349.067 349.022 348.667 357.222 348.267 367.222C347.867 376.822 347.867 385.822 348.267 394.222C349.067 402.222 350.267 409.822 351.867 417.022C363.867 424.222 379.067 428.222 397.467 429.022C402.267 429.022 409.667 428.222 419.667 426.622C429.667 424.622 437.267 423.822 442.467 424.222ZM603.741 196.222C603.741 201.822 603.741 211.222 603.741 224.422C604.141 237.622 604.341 248.022 604.341 255.622C604.341 262.822 604.141 273.222 603.741 286.822C603.341 300.022 602.541 310.822 601.341 319.222C600.541 327.622 599.141 338.022 597.141 350.422C595.141 362.822 592.741 373.222 589.941 381.622C587.141 389.622 583.341 398.622 578.541 408.622C574.141 418.222 568.941 426.422 562.941 433.222C556.941 440.022 549.741 446.622 541.341 453.022C533.341 459.022 524.341 463.822 514.341 467.422V472.822C510.741 472.822 506.141 472.822 500.541 472.822C494.941 473.222 491.341 473.422 489.741 473.422C488.141 473.422 485.741 473.222 482.541 472.822C479.741 472.422 478.141 472.022 477.741 471.622C477.341 471.222 476.341 470.222 474.741 468.622C473.541 467.022 473.141 465.422 473.541 463.822C473.941 461.822 473.741 459.222 472.941 456.022C472.141 452.422 471.741 449.022 471.741 445.822C471.741 442.222 471.341 437.422 470.541 431.422C469.741 425.422 468.741 419.422 467.541 413.422C467.941 405.422 466.741 390.622 463.941 369.022C461.141 355.022 461.141 325.622 463.941 280.822C466.741 236.022 467.941 206.422 467.541 192.022C467.541 187.222 466.741 172.022 465.141 146.422C463.541 120.422 462.741 105.222 462.741 100.822C463.141 96.0221 463.341 80.8221 463.341 55.2221C475.341 54.4221 488.341 54.2221 502.341 54.6221L502.941 60.6221C514.541 62.2221 525.341 66.6221 535.341 73.8221C545.341 80.6221 553.541 88.4221 559.941 97.2221C566.741 105.622 573.141 116.622 579.141 130.222C585.541 143.422 590.141 154.622 592.941 163.822C596.141 172.622 599.741 183.422 603.741 196.222ZM578.541 231.022C578.541 221.022 576.941 208.622 573.741 193.822C570.941 179.022 566.741 164.022 561.141 148.822C555.541 133.622 547.941 121.622 538.341 112.822C528.741 104.022 518.541 101.622 507.741 105.622C506.941 121.222 506.541 132.822 506.541 140.422C506.941 147.622 507.341 159.222 507.741 175.222C508.541 190.822 509.141 202.422 509.541 210.022C509.541 222.022 508.941 240.022 507.741 264.022C506.941 287.622 506.541 305.422 506.541 317.422C506.541 329.022 507.341 346.622 508.941 370.222C508.941 373.022 508.941 377.222 508.941 382.822C509.341 388.422 509.541 394.022 509.541 399.622C509.541 405.222 509.941 410.622 510.741 415.822C511.941 420.622 513.541 423.822 515.541 425.422C525.541 424.222 534.141 420.822 541.341 415.222C548.941 409.622 554.741 402.022 558.741 392.422C563.141 382.822 566.741 373.022 569.541 363.022C572.341 353.022 574.341 341.222 575.541 327.622C576.741 313.622 577.341 301.822 577.341 292.222C577.741 282.222 577.941 270.822 577.941 258.022C578.341 244.822 578.541 235.822 578.541 231.022ZM774.473 460.222C775.273 464.222 773.873 466.222 770.273 466.222C768.673 466.222 764.873 466.822 758.873 468.022C752.873 468.822 748.473 469.022 745.673 468.622C743.273 455.822 740.473 437.222 737.273 412.822C734.473 388.422 732.673 373.022 731.873 366.622C708.273 367.822 684.873 366.422 661.673 362.422C659.673 370.022 656.073 386.222 650.873 411.022C646.073 435.822 641.873 454.822 638.273 468.022C637.473 469.222 632.673 469.822 623.873 469.822C615.073 469.422 610.273 468.822 609.473 468.022C608.673 456.022 610.873 438.622 616.073 415.822C621.273 393.022 624.073 379.822 624.473 376.222C626.073 363.022 627.873 349.222 629.873 334.822C631.873 320.422 633.873 307.422 635.873 295.822C637.873 284.222 640.473 270.222 643.673 253.822C646.873 237.422 649.273 224.622 650.873 215.422C652.873 206.222 655.873 192.422 659.873 174.022C664.273 155.622 667.273 142.822 668.873 135.622C670.873 128.422 674.273 114.622 679.073 94.2221C683.873 73.4221 686.873 60.2221 688.073 54.6221C690.873 54.6221 694.073 54.4221 697.673 54.0221C701.273 53.2221 704.673 52.6221 707.873 52.2221C711.073 51.4221 714.273 51.0221 717.473 51.0221C719.873 50.6221 721.273 50.8221 721.673 51.6221C722.073 53.2221 723.273 57.8221 725.273 65.4221C732.473 104.222 738.673 145.622 743.873 189.622C749.473 233.222 755.073 282.022 760.673 336.022C766.273 389.622 770.873 431.022 774.473 460.222ZM695.273 338.422C699.273 338.822 704.873 339.222 712.073 339.622C719.273 340.022 724.673 340.422 728.273 340.822C717.473 248.422 708.873 181.622 702.473 140.422C700.873 148.422 695.673 177.022 686.873 226.222C678.473 275.022 671.673 312.222 666.473 337.822C672.873 337.422 682.473 337.622 695.273 338.422ZM937.181 429.622V472.822C928.381 473.222 914.181 473.022 894.581 472.222C875.381 471.422 861.581 471.622 853.181 472.822C843.981 473.222 831.381 472.822 815.381 471.622C811.781 472.822 807.981 473.022 803.981 472.222C799.981 471.422 798.181 469.022 798.581 465.022C798.581 454.622 798.181 429.222 797.381 388.822C796.581 348.422 796.181 323.222 796.181 313.222C796.581 303.222 797.181 278.022 797.981 237.622C799.581 210.022 799.581 184.822 797.981 162.022C795.581 109.622 794.981 74.4221 796.181 56.4221C804.981 55.6221 818.981 54.4221 838.181 52.8221C835.781 215.222 836.981 340.622 841.781 429.022C879.781 432.622 906.581 433.022 922.181 430.222C923.781 430.222 926.381 430.222 929.981 430.222C933.581 429.822 935.981 429.622 937.181 429.622Z" fill="black"/>
<circle cx="67" cy="306.822" r="15" fill="black"/>
<path d="M61.3193 302.545C59.937 306.001 63.8868 310.83 60.4311 309.448C56.9754 308.066 55.2946 304.144 56.677 300.688C58.0593 297.232 61.9813 295.551 65.437 296.934C68.8927 298.316 62.7017 299.089 61.3193 302.545Z" fill="#F2F2F2"/>
<circle cx="25.9999" cy="74.8222" r="15" transform="rotate(32.7536 25.9999 74.8222)" fill="black"/>
<path d="M23.5365 68.1516C20.5043 70.31 21.2131 76.5087 19.0548 73.4765C16.8964 70.4443 17.6048 66.2365 20.6369 64.0782C23.6691 61.9198 27.8769 62.6282 30.0353 65.6604C32.1936 68.6925 26.5687 65.9932 23.5365 68.1516Z" fill="#F2F2F2"/>
<circle cx="494.731" cy="436.553" r="15" transform="rotate(32.7536 494.731 436.553)" fill="black"/>
<path d="M492.267 429.882C489.235 432.04 489.944 438.239 487.786 435.207C485.627 432.175 486.336 427.967 489.368 425.809C492.4 423.65 496.608 424.359 498.766 427.391C500.924 430.423 495.299 427.724 492.267 429.882Z" fill="#F2F2F2"/>
<circle cx="704.73" cy="116.553" r="15" transform="rotate(32.7536 704.73 116.553)" fill="black"/>
<path d="M702.267 109.882C699.235 112.04 699.944 118.239 697.785 115.207C695.627 112.175 696.335 107.967 699.367 105.809C702.4 103.65 706.607 104.359 708.766 107.391C710.924 110.423 705.299 107.724 702.267 109.882Z" fill="#F2F2F2"/>
<circle cx="500.73" cy="84.5526" r="15" transform="rotate(32.7536 500.73 84.5526)" fill="black"/>
<path d="M498.267 77.8821C495.235 80.0404 495.944 86.2391 493.785 83.207C491.627 80.1748 492.335 75.967 495.368 73.8086C498.4 71.6503 502.607 72.3586 504.766 75.3908C506.924 78.423 501.299 75.7237 498.267 77.8821Z" fill="#F2F2F2"/>
<circle cx="255.07" cy="249.892" r="15" transform="rotate(141.669 255.07 249.892)" fill="black"/>
<path d="M262.179 249.724C261.12 246.156 255.026 244.817 258.594 243.758C262.162 242.699 265.913 244.733 266.972 248.301C268.031 251.869 265.997 255.62 262.429 256.679C258.861 257.738 263.238 253.292 262.179 249.724Z" fill="#F2F2F2"/>
<circle cx="317.731" cy="63.5526" r="15" transform="rotate(32.7536 317.731 63.5526)" fill="black"/>
<path d="M315.267 56.8821C312.235 59.0404 312.944 65.2391 310.786 62.207C308.627 59.1748 309.336 54.967 312.368 52.8086C315.4 50.6503 319.608 51.3586 321.766 54.3908C323.924 57.423 318.299 54.7237 315.267 56.8821Z" fill="#F2F2F2"/>
<circle cx="413.73" cy="252.553" r="15" transform="rotate(32.7536 413.73 252.553)" fill="black"/>
<path d="M411.267 245.882C408.235 248.04 408.944 254.239 406.785 251.207C404.627 248.175 405.335 243.967 408.368 241.809C411.4 239.65 415.607 240.359 417.766 243.391C419.924 246.423 414.299 243.724 411.267 245.882Z" fill="#F2F2F2"/>
<circle cx="51.7306" cy="193.553" r="15" transform="rotate(32.7536 51.7306 193.553)" fill="black"/>
<path d="M49.2672 186.882C46.235 189.04 46.9438 195.239 44.7855 192.207C42.6271 189.175 43.3355 184.967 46.3677 182.809C49.3998 180.65 53.6076 181.359 55.766 184.391C57.9243 187.423 52.2994 184.724 49.2672 186.882Z" fill="#F2F2F2"/>
<circle cx="213.731" cy="116.553" r="15" transform="rotate(32.7536 213.731 116.553)" fill="black"/>
<path d="M211.267 109.882C208.235 112.04 208.944 118.239 206.785 115.207C204.627 112.175 205.335 107.967 208.368 105.809C211.4 103.65 215.607 104.359 217.766 107.391C219.924 110.423 214.299 107.724 211.267 109.882Z" fill="#F2F2F2"/>
</svg>
