<svg width="108" height="29" viewBox="0 0 108 29" fill="none" xmlns="http://www.w3.org/2000/svg">
<path d="M6.95444 1.16689C6.32341 1.75028 5.52819 4.52043 5.22762 5.44591C4.75815 6.89157 4.36422 8.06774 3.7699 9.46222C3.29571 10.5741 3.1011 12.3645 2.0798 13.0847C1.41519 13.5537 0.222891 13.7376 0.0534611 14.7409C-0.124886 15.7974 0.150507 16.888 0.753216 17.7586C0.989262 18.0996 1.69583 18.6966 1.75195 19.0497C1.96177 20.3663 1.00605 21.7655 1.2038 23.1025C1.34281 24.0447 1.87155 24.4923 2.81522 24.0943C3.09795 23.9753 3.34554 23.5825 3.72741 23.7742C4.26927 24.3513 3.63981 25.1185 4.29865 25.6544C4.6076 25.9061 4.98528 25.9186 5.36978 25.8178C5.89905 25.6794 6.14139 24.8631 6.78554 25.0558C7.01949 25.1258 8.42161 26.7935 8.8124 27.1214C10.3084 28.378 12.5162 29.3406 14.4765 28.7536C15.3651 28.4877 16.7378 27.3601 17.4297 26.7135C17.8205 26.3485 18.9341 24.9514 19.3118 24.8307C20.1259 24.5712 20.1553 25.645 20.4616 25.9813C20.7485 26.2968 21.2185 26.2968 21.56 26.0884C22.307 25.6324 22.0505 24.0912 22.4024 23.9847C22.8735 23.8415 23.3388 25.2992 24.2593 24.6344C24.7818 24.2568 24.7734 23.2916 24.7346 22.7119C24.6417 21.3341 23.7028 19.8738 24.5809 18.5686C25.3709 17.394 26.2972 17.1042 25.9426 15.3922C25.7171 14.3027 24.7099 13.983 24.0726 13.254C23.2658 12.3311 22.6941 10.7919 22.1758 9.67426C21.2364 7.64678 21.121 5.72951 20.3021 3.70568C20.1285 3.27689 19.3517 1.56487 19.1056 1.30582C18.7453 0.926647 18.3534 0.896877 17.9265 1.18413C17.2173 1.66201 16.3643 4.26609 15.9122 5.13672C15.6032 5.7316 15.1636 6.60223 14.4335 6.68475C13.8376 6.75212 11.5191 6.761 11.027 6.56358C10.3703 6.30035 9.99473 4.77374 9.7314 4.18095C9.5583 3.79186 9.28974 3.45029 9.1266 3.06903C8.88426 2.50183 8.83862 1.779 8.43682 1.30739C8.03501 0.83577 7.43283 0.723481 6.95391 1.16585L6.95444 1.16689ZM18.4316 4.49798C19.2043 4.68861 19.5206 6.80383 19.3947 7.45824C19.2745 8.08393 18.2868 7.46712 17.9469 7.27075C17.1837 6.8289 17.147 6.85449 17.3694 5.93424C17.468 5.52738 17.9028 4.36741 18.4316 4.49745V4.49798ZM8.05389 4.66719C8.32666 4.92729 8.72479 6.47271 8.61097 6.8524C8.43157 7.45041 6.72049 8.32783 6.53218 7.68909C6.37901 7.17151 6.75197 5.21036 7.12702 4.8056C7.33894 4.57736 7.81575 4.44 8.05389 4.66719ZM14.9659 20.7162C14.9197 18.6773 15.8964 14.7315 18.0864 13.9888C19.8112 13.4038 20.8812 15.2302 21.0276 16.6884C21.2259 18.6621 20.6982 20.4494 19.5127 22.0146C18.3325 23.5721 16.1954 26.1934 14.4775 27.0426C12.2912 28.1237 10.3116 26.923 8.94249 25.1963C6.92874 22.6565 4.69415 20.0639 4.95276 16.5939C5.11379 14.4338 6.97594 12.494 8.85436 14.5158C10.279 16.0492 10.8875 18.6841 11.0281 20.7162C11.0916 20.7899 11.9135 20.2232 12.0704 20.1626C13.046 19.784 13.6472 20.0237 14.5011 20.4854C14.6554 20.569 14.733 20.7747 14.9654 20.7162H14.9659Z" fill="black"/>
<path d="M14.9658 20.7165C14.7334 20.7749 14.6558 20.5692 14.5016 20.4856C13.6476 20.0239 13.0465 19.7842 12.0708 20.1628C11.914 20.2234 11.092 20.7906 11.0285 20.7165C10.888 18.6843 10.28 16.0494 8.8548 14.516C6.97639 12.4942 5.11424 14.434 4.9532 16.5941C4.69407 20.0641 6.92918 22.6567 8.94293 25.1965C10.312 26.9232 12.2911 28.1239 14.478 27.0428C16.1959 26.1936 18.3329 23.5728 19.5131 22.0148C20.6991 20.4496 21.2263 18.6623 21.028 16.6887C20.8817 15.2305 19.8116 13.4041 18.0869 13.989C15.8969 14.7317 14.9202 18.6775 14.9663 20.7165H14.9658ZM17.4501 15.5094C17.9678 15.5877 18.142 16.9064 18.1656 17.3326C18.1949 17.8606 18.1283 19.9978 17.3887 20.0323C16.8301 20.0579 16.6375 18.9726 16.6045 18.5584C16.5604 18.0006 16.4891 15.3642 17.4501 15.5094ZM8.42362 15.5088C8.58518 15.5391 8.66439 15.6347 8.74937 15.7632C9.20835 16.4552 9.19785 19.0091 8.74832 19.7147C8.36697 20.3133 7.95258 19.9915 7.74276 19.4562C7.41491 18.6206 7.43327 16.7461 7.81305 15.9298C7.93841 15.6603 8.07375 15.443 8.42362 15.5088Z" fill="white"/>
<path d="M8.05383 4.66718C7.81516 4.43999 7.33887 4.57735 7.12695 4.80558C6.75137 5.21035 6.37894 7.1715 6.53211 7.68907C6.72094 8.32782 8.4315 7.45039 8.6109 6.85239C8.72472 6.47269 8.32659 4.92727 8.05383 4.66718Z" fill="white"/>
<path d="M18.4315 4.49798C17.9027 4.36741 17.4679 5.52739 17.3693 5.93477C17.1463 6.85502 17.1836 6.82943 17.9468 7.27127C18.2867 7.46817 19.2744 8.08446 19.3945 7.45877C19.5204 6.80383 19.2041 4.68861 18.4315 4.4985V4.49798Z" fill="white"/>
<path d="M8.42401 15.5084C8.07361 15.4421 7.9388 15.6594 7.81344 15.9294C7.43314 16.7457 7.4153 18.6207 7.74315 19.4558C7.95297 19.9911 8.36736 20.3129 8.7487 19.7143C9.19877 19.0087 9.20926 16.4548 8.74975 15.7628C8.66478 15.6343 8.58557 15.5392 8.42401 15.5084Z" fill="black"/>
<path d="M17.4504 15.5093C16.4895 15.3641 16.5603 18.0006 16.6049 18.5584C16.6379 18.9725 16.8304 20.0578 17.3891 20.0322C18.1292 19.9983 18.1953 17.8606 18.1659 17.3326C18.1423 16.9069 17.9682 15.5877 17.4504 15.5093Z" fill="black"/>
<path d="M14.5561 22.7478L13.4871 24.4175C13.3266 24.5544 13.1105 24.9106 12.8807 24.8745L11.3569 22.9504L11.4796 22.7478H14.5566H14.5561Z" fill="black"/>
<path d="M44.214 19.238C44.214 19.7367 44.3313 20.0813 44.566 20.272C44.8007 20.4627 45.1747 20.558 45.688 20.558C45.996 20.558 46.3333 20.536 46.7 20.492V23C46.0107 23.0733 45.4387 23.11 44.984 23.11C43.8107 23.11 42.9307 22.846 42.344 22.318C41.772 21.7753 41.486 20.8073 41.486 19.414V14.442H39.418V12H41.486V9.294L44.214 8.37V12H46.656V14.442H44.214V19.238ZM57.1531 12H59.8811V23H57.1531V21.922C56.6398 22.362 56.0751 22.7067 55.4591 22.956C54.8578 23.1907 54.2198 23.308 53.5451 23.308C52.4304 23.308 51.4551 23.0587 50.6191 22.56C49.7831 22.0613 49.1378 21.372 48.6831 20.492C48.2431 19.612 48.0231 18.622 48.0231 17.522C48.0231 16.422 48.2431 15.432 48.6831 14.552C49.1378 13.672 49.7831 12.9827 50.6191 12.484C51.4551 11.9707 52.4304 11.714 53.5451 11.714C54.2198 11.714 54.8578 11.8387 55.4591 12.088C56.0751 12.3227 56.6398 12.66 57.1531 13.1V12ZM53.8971 20.69C54.4984 20.69 55.0411 20.558 55.5251 20.294C56.0238 20.0153 56.4124 19.634 56.6911 19.15C56.9844 18.666 57.1311 18.116 57.1311 17.5C57.1311 16.576 56.8158 15.8207 56.1851 15.234C55.5691 14.6473 54.8064 14.354 53.8971 14.354C52.9731 14.354 52.2104 14.6547 51.6091 15.256C51.0224 15.8427 50.7291 16.598 50.7291 17.522C50.7291 18.446 51.0224 19.2087 51.6091 19.81C52.2104 20.3967 52.9731 20.69 53.8971 20.69ZM67.6854 11.714C68.7414 11.714 69.6874 11.978 70.5234 12.506C71.3741 13.0193 72.0341 13.716 72.5034 14.596C72.9728 15.476 73.2074 16.4513 73.2074 17.522C73.2074 17.874 73.1781 18.1967 73.1194 18.49H64.6274C64.8474 19.2673 65.2361 19.876 65.7934 20.316C66.3508 20.7413 67.0621 20.954 67.9274 20.954C68.4554 20.954 68.9614 20.8367 69.4454 20.602C69.9441 20.3673 70.3181 20.0667 70.5674 19.7L72.6574 20.932C72.1441 21.6947 71.4768 22.2813 70.6554 22.692C69.8488 23.088 68.9174 23.286 67.8614 23.286C66.6881 23.286 65.6468 23.0367 64.7374 22.538C63.8281 22.0393 63.1241 21.35 62.6254 20.47C62.1414 19.59 61.8994 18.6 61.8994 17.5C61.8994 16.4147 62.1414 15.432 62.6254 14.552C63.1241 13.672 63.8134 12.9827 64.6934 12.484C65.5734 11.9707 66.5708 11.714 67.6854 11.714ZM70.6554 16.356C70.5381 15.652 70.2081 15.102 69.6654 14.706C69.1374 14.2953 68.4701 14.09 67.6634 14.09C67.1061 14.09 66.5928 14.1927 66.1234 14.398C65.6688 14.6033 65.3021 14.882 65.0234 15.234C64.7448 15.586 64.5981 15.96 64.5834 16.356H70.6554ZM83.5354 7.6H86.2634V23H83.5354V21.944C83.0367 22.384 82.4794 22.7213 81.8634 22.956C81.2474 23.1907 80.6094 23.308 79.9494 23.308C78.8347 23.308 77.8594 23.0587 77.0234 22.56C76.1874 22.0613 75.5421 21.372 75.0874 20.492C74.6474 19.612 74.4274 18.622 74.4274 17.522C74.4274 16.422 74.6474 15.432 75.0874 14.552C75.5421 13.672 76.1874 12.9827 77.0234 12.484C77.8594 11.9707 78.8347 11.714 79.9494 11.714C80.6094 11.714 81.2401 11.8387 81.8414 12.088C82.4574 12.3227 83.0221 12.6527 83.5354 13.078V7.6ZM80.3014 20.69C80.9027 20.69 81.4454 20.558 81.9294 20.294C82.4281 20.0153 82.8167 19.634 83.0954 19.15C83.3887 18.666 83.5354 18.116 83.5354 17.5C83.5354 16.576 83.2201 15.8207 82.5894 15.234C81.9734 14.6473 81.2107 14.354 80.3014 14.354C79.3774 14.354 78.6147 14.6547 78.0134 15.256C77.4267 15.8427 77.1334 16.598 77.1334 17.522C77.1334 18.446 77.4267 19.2087 78.0134 19.81C78.6147 20.3967 79.3774 20.69 80.3014 20.69ZM97.2644 12H99.9924V23H97.2644V21.922C96.7511 22.362 96.1864 22.7067 95.5704 22.956C94.9691 23.1907 94.3311 23.308 93.6564 23.308C92.5418 23.308 91.5664 23.0587 90.7304 22.56C89.8944 22.0613 89.2491 21.372 88.7944 20.492C88.3544 19.612 88.1344 18.622 88.1344 17.522C88.1344 16.422 88.3544 15.432 88.7944 14.552C89.2491 13.672 89.8944 12.9827 90.7304 12.484C91.5664 11.9707 92.5418 11.714 93.6564 11.714C94.3311 11.714 94.9691 11.8387 95.5704 12.088C96.1864 12.3227 96.7511 12.66 97.2644 13.1V12ZM94.0084 20.69C94.6098 20.69 95.1524 20.558 95.6364 20.294C96.1351 20.0153 96.5238 19.634 96.8024 19.15C97.0958 18.666 97.2424 18.116 97.2424 17.5C97.2424 16.576 96.9271 15.8207 96.2964 15.234C95.6804 14.6473 94.9178 14.354 94.0084 14.354C93.0844 14.354 92.3218 14.6547 91.7204 15.256C91.1338 15.8427 90.8404 16.598 90.8404 17.522C90.8404 18.446 91.1338 19.2087 91.7204 19.81C92.3218 20.3967 93.0844 20.69 94.0084 20.69ZM105.204 19.898C105.204 20.1327 105.263 20.3013 105.38 20.404C105.498 20.5067 105.681 20.558 105.93 20.558C106.121 20.558 106.348 20.536 106.612 20.492V23C106.07 23.088 105.564 23.132 105.094 23.132C104.244 23.132 103.591 22.912 103.136 22.472C102.696 22.0173 102.476 21.218 102.476 20.074V7.6H105.204V19.898Z" fill="black"/>
</svg>
