<svg width="49" height="50" viewBox="0 0 49 50" fill="none" xmlns="http://www.w3.org/2000/svg">
<path d="M9.53604 8.71787C10.7967 8.74413 12.3575 8.57554 13.6047 8.67928C13.6222 8.68074 13.6397 8.68219 13.6572 8.68365C14.167 8.72605 14.6864 8.78728 15.3148 8.8613C15.3949 8.87073 15.4769 8.8806 15.5607 8.89043C16.3056 8.97785 17.2208 9.08265 18.4678 9.19914C22.655 9.59031 25.9565 9.33035 26.9834 9.24938C29.043 9.08699 31.2401 9.08356 34.238 9.07901C34.5121 9.07859 34.793 9.07884 35.0811 9.07828C35.3145 9.07783 35.5077 9.20932 35.513 9.37243C35.5183 9.53562 35.3335 9.66832 35.1 9.66877C34.8179 9.66932 34.543 9.66981 34.2752 9.67023C34.274 9.67023 34.2727 9.67023 34.2715 9.67023C31.2548 9.67491 29.1055 9.6784 27.0944 9.83696C26.0451 9.91969 22.6626 10.1854 18.372 9.78454C17.1117 9.66681 16.1863 9.5616 15.4368 9.47364C15.3548 9.46401 15.2748 9.4544 15.1971 9.44524C15.1952 9.445 15.1934 9.44476 15.1916 9.44452C14.559 9.37003 14.0615 9.31108 13.5736 9.2705C13.5632 9.26977 13.5529 9.26904 13.5425 9.26831C12.2812 9.1634 10.7502 9.33383 9.5275 9.30836C9.29408 9.30342 9.10659 9.16708 9.10898 9.00401C9.11149 8.84105 9.30274 8.71312 9.53604 8.71787ZM35.3363 43.2211C34.1191 43.4374 32.4998 43.4135 31.07 43.3172C29.6302 43.2202 28.3271 43.0457 27.7139 42.9386C27.1144 42.8338 26.4483 42.8 25.6536 42.7791C25.4714 42.7743 25.2823 42.7703 25.0868 42.766C24.441 42.752 23.7225 42.7362 22.9338 42.6896C20.0366 42.5182 18.1477 42.5109 16.7988 42.5265C16.5213 42.5297 16.2631 42.5341 16.0215 42.5381C16.0211 42.5381 16.0207 42.5381 16.0203 42.5381C15.1083 42.5534 14.4278 42.5646 13.802 42.4973C12.6881 42.3776 11.7785 42.2715 10.6808 42.0641C9.16685 41.7782 7.0105 41.8121 5.60727 42.0088C5.53026 42.0196 5.45148 42.031 5.37177 42.0423C5.25137 42.0592 5.12765 42.0767 5 42.0945L7.90554 45C7.77316 44.0492 7.62228 42.8796 7.50631 41.2238C7.39701 39.6633 7.40561 38.3033 7.43641 37.0996C7.44523 36.7546 7.4562 36.4254 7.46626 36.1094C7.49166 35.3117 7.51452 34.5978 7.50121 33.9253C7.41866 29.7547 7.52546 27.3496 7.68615 25.8379C7.80974 24.6753 7.9688 24.0259 8.08369 23.5574C8.11841 23.4158 8.14957 23.2908 8.17398 23.173C8.39165 22.1232 8.48951 21.1594 8.6072 20C8.63332 19.7427 8.6606 19.4749 8.6902 19.1953C8.78921 18.2598 8.77208 17.5627 8.73025 17.016C8.71194 16.7769 8.68939 16.5665 8.66763 16.3681C8.66714 16.3644 8.66666 16.3608 8.66617 16.3571C8.66314 16.3295 8.6604 16.302 8.65744 16.2748C8.6552 16.2542 8.65235 16.2337 8.65016 16.2132C8.64721 16.2051 8.64529 16.1978 8.6436 16.1924C8.64227 16.1881 8.64131 16.1848 8.64069 16.1826C8.64045 16.1822 8.6402 16.1818 8.63996 16.1814C8.62863 16.1425 8.62416 16.109 8.62322 16.1021C8.62155 16.0901 8.62082 16.0795 8.6203 16.074C8.61758 16.0453 8.61602 16.0083 8.61521 15.9838C8.6131 15.9205 8.61062 15.8107 8.60793 15.6409C8.59941 15.493 8.58489 15.3512 8.56642 15.1736C8.56521 15.1624 8.564 15.1512 8.56278 15.14C8.54475 14.9668 8.52407 14.7641 8.50381 14.5098C8.48537 14.2784 8.60165 14.0655 8.76374 14.0345C8.92584 14.0036 9.07215 14.1661 9.09066 14.3975C9.10975 14.6371 9.1294 14.827 9.14745 15.0003C9.14866 15.0113 9.14988 15.0223 9.15109 15.0332C9.16988 15.2139 9.18746 15.3851 9.19769 15.5695C9.20111 15.6312 9.20375 15.6949 9.2057 15.7544C9.213 15.8614 9.22554 15.9832 9.24137 16.129C9.24455 16.1582 9.24745 16.1884 9.25084 16.2192C9.27258 16.4173 9.29792 16.6479 9.31783 16.908C9.36442 17.5169 9.3819 18.2882 9.27414 19.3063C9.24588 19.5733 9.21965 19.8321 9.19405 20.0848C9.07612 21.2488 8.9715 22.2844 8.74044 23.3988C8.70874 23.5517 8.67251 23.6983 8.63414 23.8551C8.5204 24.3199 8.38434 24.8748 8.27009 25.9496C8.11703 27.3896 8.00963 29.7375 8.0917 33.8844C8.10567 34.5903 8.08113 35.3518 8.05529 36.1631C8.04543 36.4728 8.03592 36.7902 8.02763 37.1142C7.99731 38.2992 7.98909 39.6164 8.09461 41.1231C8.21526 42.8457 8.37347 44.0245 8.51047 45L5 41.4895C5.06437 41.4805 5.12787 41.4715 5.19058 41.4627C5.22556 41.4576 5.26053 41.4525 5.29551 41.4474C5.33896 41.4413 5.3821 41.4352 5.42485 41.4292C6.92014 41.2196 9.21454 41.1781 10.887 41.494C11.9365 41.6922 12.8071 41.7943 13.9149 41.9134C14.4596 41.972 15.0417 41.9623 15.9355 41.9476C16.1864 41.9435 16.4622 41.9395 16.7682 41.936C18.1414 41.9201 20.059 41.9272 22.9887 42.1005C23.7525 42.1457 24.4398 42.1608 25.0819 42.1748C25.2814 42.1791 25.4771 42.1836 25.6688 42.1886C26.4674 42.2096 27.2107 42.2438 27.9036 42.3648C28.4732 42.4643 29.7343 42.6345 31.1346 42.7289C32.5451 42.8239 34.0424 42.8382 35.1124 42.6481C35.2237 42.6283 35.3359 42.6088 35.448 42.5891C36.4132 42.4196 37.3973 42.2468 38.1897 41.9593C39.9554 41.061 42.4332 40.7794 45 40.7367L40.7367 45C40.6935 42.4039 40.8946 39.7167 40.9494 37.583C40.9508 37.5273 40.9523 37.4716 40.9538 37.4158C41.0793 32.5181 41.0634 28.9586 41.0579 27.7453C41.0576 27.6887 41.0573 27.6372 41.0571 27.591C41.057 27.5496 41.0565 27.5122 41.0564 27.4793C41.0549 26.985 41.0339 26.5477 41.012 26.0895C41.0108 26.0645 41.0096 26.0395 41.0084 26.0145C40.9853 25.5303 40.9627 25.0221 40.9647 24.4215C40.972 22.1881 40.9451 20.3675 40.9166 18.7922C40.9113 18.5006 40.9066 18.217 40.9013 17.9406C40.9013 17.9397 40.9013 17.9389 40.9013 17.9381C40.8784 16.7248 40.8578 15.6485 40.8576 14.6272C40.8574 12.7646 40.82 11.5065 40.7797 10.528C40.7671 10.2211 40.7542 9.93828 40.7419 9.6714C40.7152 9.09434 40.6918 8.59032 40.6836 8.07052C40.6683 7.09287 40.6277 6.1931 40.5882 5.30682C40.5847 5.22782 40.5815 5.14893 40.5781 5.0701C40.577 5.04673 40.576 5.02336 40.575 5L45 9.42504C44.063 9.46637 43.1334 9.50393 42.152 9.50495C41.9186 9.50519 41.725 9.37253 41.7201 9.20934C41.7154 9.04629 41.901 8.91397 42.1343 8.91373C43.1114 8.91271 44.0394 8.8747 44.9999 8.83218C45 8.83218 45 8.83218 45 8.83218L41.1678 5C41.1713 5.07921 41.1752 5.15878 41.1787 5.23849C41.2181 6.12256 41.2585 7.03879 41.2741 8.03453C41.282 8.5357 41.304 9.01178 41.3302 9.57744C41.3427 9.84738 41.3562 10.138 41.3695 10.4615C41.4104 11.4549 41.4486 12.7296 41.4489 14.6101C41.449 15.6191 41.4689 16.6817 41.4918 17.8942C41.4971 18.1724 41.5025 18.4586 41.5078 18.7538C41.5364 20.333 41.5633 22.1631 41.5559 24.4087C41.554 24.9762 41.5751 25.4579 41.5981 25.94C41.5993 25.9671 41.6006 25.9941 41.6018 26.0212C41.6235 26.4754 41.646 26.9371 41.6476 27.4592C41.6479 27.5289 41.6479 27.618 41.6484 27.7252C41.6539 28.9403 41.6703 32.5142 41.5442 37.4299C41.5438 37.4451 41.5433 37.4604 41.5428 37.4756C41.4583 40.7694 41.4107 42.6276 41.5566 44.0268C41.5933 44.378 41.6212 44.701 41.6428 45L45 41.6428C44.3589 41.689 43.8282 41.7058 43.3663 41.7154C43.2372 41.718 43.115 41.7206 42.9984 41.7226C42.495 41.7314 42.0972 41.7385 41.6996 41.7794C40.4967 41.9033 39.6342 42.1062 38.5905 42.485C37.7058 42.806 36.622 42.9959 35.6725 43.1621C35.6711 43.1623 35.6696 43.1626 35.6682 43.1628C35.5556 43.1825 35.4446 43.2018 35.3363 43.2211ZM8.11136 11.1592C8.11623 10.9258 8.25203 10.7385 8.41498 10.7406C8.57806 10.743 8.70666 10.9343 8.70185 11.1677C8.6902 11.7239 8.67855 12.2801 8.6669 12.8363C8.66199 13.0696 8.52622 13.257 8.36328 13.2548C8.20022 13.2524 8.07163 13.0612 8.07641 12.8278C8.08806 12.2716 8.09971 11.7154 8.11136 11.1592ZM36.31 46.1604C36.0823 46.1935 35.8554 46.0901 35.8037 45.9303C35.7522 45.7707 35.8952 45.6146 36.1227 45.5816C36.2431 45.5641 36.441 45.5325 36.7072 45.4898C38.0667 45.272 41.2145 44.7676 45 44.4011L44.4011 45C44.2507 43.4462 44.1235 41.785 44.0489 40.096C44.0273 39.6071 44.006 39.1692 43.9856 38.7519C43.8982 36.9672 43.4785 35.5344 43.4956 32.1209C43.5408 23.0761 43.8553 14.0357 43.953 5L45 6.04696C39.6967 5.98959 34.395 6.00691 29.0949 6.19718C24.956 6.34576 20.8302 6.36799 16.6881 6.35809C13.2358 6.34983 6.90754 6.0469 5.41854 6.01588C5.18503 6.01101 4.99764 5.87465 5.00002 5.71153C5.00252 5.5485 5.19368 5.42056 5.42709 5.42539C6.90556 5.45619 13.2127 5.75865 16.6521 5.76687C20.7862 5.77674 24.9036 5.75498 29.0345 5.60668C34.3517 5.4158 39.6745 5.30033 45 5.23426L44.7657 5C44.878 14.0439 44.8477 23.0955 44.8025 32.1398C44.7856 35.5202 44.4876 36.8962 44.5746 38.6744C44.5951 39.0927 44.6169 39.533 44.6387 40.0264C44.7144 41.742 44.845 43.4279 44.9992 45C41.328 45.3592 38.277 45.8476 36.9183 46.065C36.6436 46.109 36.4373 46.1419 36.31 46.1604ZM25.4523 45.9136C22.8458 45.9583 19.1405 45.8787 15.9025 45.8087C14.3234 45.7746 12.8554 45.7423 11.6801 45.7287C9.85917 45.7075 8.71282 45.5661 7.57603 45.4258C7.56383 45.4243 7.55162 45.4229 7.53942 45.4214C6.76772 45.3261 5.99559 45.2319 5 45.1744L4.8371 45.1846L4.82556 45C4.85269 44.53 4.87161 44.0101 4.87858 43.417C4.90048 41.5525 4.80439 38.9724 4.70748 36.3699C4.70748 36.3679 4.70748 36.3658 4.70748 36.3638C4.61107 33.7752 4.21434 31.1495 4.23712 29.252C4.3165 22.6398 4.72236 18.5626 5.04095 16.5011C5.59825 12.8951 4.97317 8.80507 5.67804 5.12111C5.83414 4.71481 6.28355 5.4001 6.15422 6.14911C6.15058 6.17615 6.14694 6.20321 6.1433 6.23025C6.10941 6.48785 6.08189 6.71326 6.05957 7.03069C6.0413 7.49066 6.04008 7.83294 6.03918 8.14533C6.03681 8.96496 5.92948 14.655 5.61833 16.6683C5.31603 18.6248 5.62395 22.6163 5.54407 29.2709C5.52171 31.1332 5.20105 33.7064 5.29797 36.3089C5.29821 36.316 5.29845 36.3231 5.2987 36.3302C5.3949 38.9137 5.49206 41.5189 5.4698 43.4146C5.46286 44.0055 5.44428 44.5272 5.41774 45L5 44.5823C6.0604 44.6418 6.87455 44.7414 7.67059 44.8396C7.68178 44.8411 7.69296 44.8426 7.70415 44.844C8.83039 44.9831 9.92396 45.1178 11.6777 45.1382C12.8788 45.1521 14.364 45.1839 15.9532 45.2183C19.1773 45.288 22.8308 45.3674 25.415 45.3231C25.6483 45.3192 25.8459 45.4483 25.8561 45.6114C25.8663 45.7744 25.6854 45.9095 25.4523 45.9136ZM25.3986 49.5942C18.5851 50.2033 11.7363 50.0867 5 49.5106L0.787725 49.7739L0.489356 45C0.532516 44.4953 0.578255 43.9912 0.626461 43.4878C0.648605 41.6028 0.694475 38.9724 0.740773 36.3455C0.741501 36.3158 0.742229 36.2861 0.742958 36.2564C0.788756 33.658 0.834243 31.0709 0.856542 29.2136C0.935918 22.6014 1.04256 18.509 1.36112 16.4474C1.65819 14.5252 1.65905 13.9916 1.6611 13.2005C1.66134 13.179 1.66158 13.1574 1.66182 13.1359C1.66134 13.1344 1.66085 13.133 1.66037 13.1316C1.65277 13.1045 1.64842 13.0817 1.64653 13.07C1.64268 13.0461 1.64125 13.0266 1.64071 13.0193C1.63945 13.0025 1.63936 12.9884 1.63925 12.9833C1.63883 12.9628 1.63894 12.9393 1.63925 12.9242C1.64219 12.7833 1.66007 12.3421 1.68439 11.9925C1.70933 11.6343 1.74145 11.379 1.77686 11.1097C1.7805 11.0825 1.78414 11.0552 1.78779 11.028C1.81987 10.7853 1.85475 10.5212 1.89263 10.1409C1.91576 9.90921 2.06531 9.74456 2.22683 9.77304C2.38823 9.80169 2.5003 10.0124 2.4773 10.244C2.43745 10.6442 2.40032 10.9251 2.36808 11.1689C2.36444 11.196 2.3608 11.223 2.35716 11.2501C2.32327 11.5077 2.29576 11.7335 2.27343 12.0511C2.25517 12.511 2.25394 12.8528 2.25304 13.1651C2.25068 13.9841 2.24889 14.6008 1.93777 16.614C1.63542 18.5704 1.52692 22.5562 1.44703 29.2111C1.42469 31.072 1.37921 33.662 1.33345 36.2583C1.33296 36.2888 1.33248 36.3193 1.33199 36.3498C1.28567 38.9781 1.23905 41.6047 1.21695 43.4854C1.21101 43.9909 1.20689 44.4958 1.20422 45L1.4553 49.0173L5 48.7958C11.8068 48.8318 18.5025 48.6031 25.3608 49.0037C26.7162 48.9804 27.9551 48.9712 29.103 48.9629C32.4811 48.9383 35.0735 48.919 37.5449 48.5602C38.0867 48.4816 39.5069 48.4148 41.5592 48.3316C42.1607 48.3073 42.8204 48.2817 43.5335 48.2537C43.9997 48.2354 44.489 48.2162 45 48.196L48.3825 47.9846L48.196 45C48.1403 43.5951 48.0766 42.0252 48.0011 40.3144C47.9795 39.8255 47.9582 39.3876 47.9377 38.9703C47.8503 37.1856 47.7809 35.7768 47.7979 32.3631C47.8189 28.1628 47.9656 21.1253 48.0782 17.3616C48.1347 15.4765 48.1869 14.4124 48.2304 13.6596C48.2425 13.4499 48.2542 13.2656 48.2646 13.0964C48.2918 12.6545 48.3126 12.3114 48.3265 11.8616C48.4039 9.36659 48.3806 7.44798 48.2999 5L48.0817 1.50746L45 1.70006C44.2704 1.7241 43.4937 1.75324 42.6407 1.78633C42.408 1.79531 42.205 1.67033 42.1874 1.50747C42.1699 1.34458 42.3445 1.20495 42.5773 1.19584C43.453 1.16187 44.2501 1.13199 45 1.1075L48.635 0.880312L48.8925 5C48.9721 7.43563 48.9949 9.37231 48.917 11.8824C48.9025 12.3519 48.8798 12.7194 48.8522 13.169C48.842 13.3358 48.8309 13.5138 48.8195 13.7126C48.7767 14.453 48.7249 15.506 48.6687 17.3811C48.5563 21.1381 48.4101 28.1654 48.3891 32.3527C48.3722 35.7331 48.4397 37.1145 48.5268 38.8929C48.5472 39.311 48.5691 39.751 48.5908 40.2442C48.6676 41.9827 48.7324 43.5772 48.7888 45L49.01 48.5382L45 48.7888C44.5106 48.8082 44.0415 48.8266 43.5939 48.8442C42.8818 48.8721 42.2236 48.8978 41.6245 48.9221C39.5308 49.007 38.1963 49.0717 37.7321 49.1391C35.1742 49.5104 32.4691 49.5303 29.0597 49.5548C27.9244 49.563 26.7107 49.5717 25.3986 49.5942ZM29.2529 1.65454C29.4858 1.64622 29.6878 1.77191 29.7044 1.93486C29.7208 2.09778 29.5456 2.23667 29.3127 2.24503C28.0826 2.2892 27.1982 2.32563 26.5069 2.35425C25.2274 2.40722 24.6089 2.43305 23.6828 2.42852C21.2919 2.41682 18.9834 2.41092 16.9065 2.40594C13.4543 2.39768 10.6406 2.39109 9.15168 2.36007C8.91821 2.35518 8.73078 2.21882 8.73316 2.05573C8.73576 1.89279 8.92693 1.76479 9.16022 1.76958C10.6387 1.80038 13.4311 1.80724 16.8705 1.81545C18.9499 1.82042 21.266 1.82552 23.6718 1.8373C24.5701 1.84169 25.1539 1.81779 26.405 1.76594C27.0957 1.73732 27.9899 1.69988 29.2529 1.65454Z" fill="black"/>
</svg>
