<svg width="607" height="504" viewBox="0 0 607 504" fill="none" xmlns="http://www.w3.org/2000/svg">
<path d="M606.061 238.68C606.065 251.885 605.96 264.264 605.826 279.899C605.826 279.908 605.826 279.916 605.826 279.924C605.807 282.158 605.787 284.46 605.767 286.838C605.606 305.993 605.417 330.881 605.309 368.41C605.189 409.877 604.756 442.799 604.34 462.902C604.262 466.651 604.219 470.532 604.181 480.321C604.161 485.224 604.143 491.445 604.121 499.69L604.145 503.929L599.857 503.954C597.307 503.947 594.562 503.94 591.603 503.932C584.941 503.914 577.188 503.894 568.111 503.868C538.065 503.784 490.976 503.81 447.587 503.835C421.252 503.85 396.275 503.864 377.303 503.852C349.558 503.835 322.786 503.757 293.682 503.672C267.029 503.594 238.418 503.51 205.313 503.462C179.913 503.426 155.235 503.111 130.156 502.759C126.965 502.714 123.759 502.669 120.551 502.623C98.4207 502.309 75.7977 501.988 51.3339 501.804C34.3553 501.676 18.7121 501.618 3.66406 501.605L1.76044 501.616L1.7495 499.69C1.77094 476.09 1.68472 453.953 1.59307 430.426C1.53437 415.357 1.47335 399.715 1.43706 382.751C1.37967 355.923 1.39126 317.355 1.40752 278.629C1.40891 275.33 1.40989 272.027 1.41131 268.733C1.41131 268.716 1.41131 268.699 1.41131 268.682C1.42658 233.234 1.44157 198.442 1.40828 172.916C1.35538 132.355 1.23037 117.093 1.1258 104.365C1.08649 99.5803 1.04977 95.1508 1.02128 89.87C0.91869 70.8513 0.937739 42.1413 0.956912 13.0386C0.956912 12.9275 0.956912 12.8165 0.956912 12.7054C0.960093 7.87555 1.31044 3.97743 1.73924 4.00009C2.16807 4.02338 2.51338 7.95851 2.5102 12.7887C2.50004 28.2042 2.49022 43.2467 2.49732 56.715C2.86577 57.4133 3.14468 61.0401 3.14181 65.387C3.13472 76.2692 3.4123 109.599 3.86582 161.762C3.93298 158.188 3.99833 155.196 4.06046 152.573C4.13338 149.495 4.19608 147.137 4.24979 145.109C4.36174 140.883 4.43561 138.071 4.48986 133.08C4.55153 121.52 4.56436 103.35 4.57696 84.2304C4.58025 79.4025 4.92989 75.5036 5.35852 75.5251C5.78726 75.5485 6.1325 79.4851 6.12949 84.3137C6.12949 84.4081 6.12949 84.5025 6.12949 84.5969C6.11701 103.534 6.10435 122.287 6.03861 134.363C6.02188 137.435 6.00207 140.082 5.98408 142.068C5.96969 143.657 5.95016 145.64 5.92501 146.742C5.92166 146.888 5.9149 147.167 5.90456 147.5C5.90431 147.505 5.90405 147.511 5.9038 147.517C5.89809 147.703 5.86914 148.653 5.80611 149.666C5.79337 149.871 5.76494 150.315 5.71901 150.832C5.71548 150.965 5.71194 151.099 5.70841 151.232C5.65935 153.09 5.60935 154.986 5.56073 157.038C5.37092 165.051 5.1317 177.742 4.87837 204.172C4.64539 228.48 4.54093 269.573 4.53909 320.848C4.57121 317.384 4.60234 313.912 4.63224 310.443C4.70739 301.713 4.77591 292.942 4.84126 284.169C4.86623 280.808 4.89067 277.492 4.91473 274.114C4.95362 268.675 4.99181 263.222 5.02908 257.77C5.05432 254.086 5.07911 250.394 5.10406 246.707C5.10406 246.699 5.10406 246.69 5.10406 246.682C5.13869 241.564 5.17352 236.433 5.20933 231.262C5.22266 229.452 5.23546 227.665 5.24795 225.889C5.29768 218.823 5.34595 211.881 5.43956 203.889C5.45506 202.917 5.47511 201.861 5.49181 201.073C5.50942 200.226 5.52734 199.411 5.54558 198.64C5.56168 197.961 5.57806 197.312 5.5933 196.691C5.59531 196.608 5.59733 196.524 5.59935 196.441C5.6164 195.746 5.63217 195.081 5.64707 194.442C5.66195 193.804 5.67628 193.189 5.68872 192.584C5.68872 192.579 5.68872 192.573 5.68872 192.567C5.70147 191.935 5.71106 191.455 5.72204 190.785C5.7358 189.943 5.74638 189.22 5.75688 188.344C5.76708 187.496 5.77619 186.612 5.78414 185.72C5.79208 184.827 5.79903 183.918 5.80535 182.996C5.81166 182.073 5.81754 181.134 5.82277 180.188C5.82799 179.243 5.83255 178.286 5.83716 177.323C5.84176 176.359 5.84638 175.385 5.85079 174.407C5.86103 172.154 5.94706 169.995 6.09313 168.409C6.23921 166.824 6.43241 165.942 6.63235 165.952C6.83233 165.963 7.02452 166.867 7.16854 168.468C7.3125 170.069 7.39603 172.237 7.40332 174.49C7.40527 175.104 7.40748 175.721 7.40938 176.34C7.41051 176.707 7.41133 177.078 7.41241 177.448C7.4153 178.441 7.41853 179.445 7.42074 180.455C7.42293 181.464 7.42437 182.483 7.42528 183.512C7.42618 184.545 7.42648 185.592 7.42528 186.653C7.42408 187.712 7.4215 188.794 7.41695 189.893C7.41265 190.966 7.40514 192.19 7.39574 193.284C7.38915 194.084 7.37787 195.069 7.36772 195.891C7.3571 196.749 7.34524 197.593 7.33289 198.407C7.3205 199.223 7.30738 200.012 7.29502 200.765C7.29376 200.845 7.29249 200.926 7.29123 201.006C7.2803 201.672 7.26964 202.315 7.26018 202.922C7.24961 203.601 7.2406 204.244 7.23292 204.855C7.22428 205.528 7.22085 205.936 7.21701 206.438C7.19205 213.066 7.1972 221.259 7.20187 229.071C7.20245 230.053 7.20286 231.03 7.20338 231.995C7.20703 237.127 7.21162 242.247 7.21626 247.365C7.21962 251.084 7.22311 254.808 7.2261 258.536C7.23055 264.022 7.23408 269.525 7.2367 275.022C7.23822 278.436 7.23922 281.788 7.23973 285.193C7.24122 294.087 7.23913 303.009 7.22989 311.942C7.22062 320.863 7.20444 329.841 7.17688 338.825C7.1494 347.774 7.10831 357.071 7.04586 366.048C6.99918 372.648 6.91781 379.415 6.8338 385.675C6.78856 389.039 6.74266 392.334 6.69673 395.58C6.69647 395.591 6.69622 395.602 6.69597 395.613C6.65566 398.462 6.61575 401.275 6.57783 404.068C6.49616 410.057 6.42337 415.939 6.36199 421.821C6.30058 427.693 6.2505 433.54 6.21203 439.431C6.17395 445.277 6.14641 451.222 6.12949 457.108C6.11241 463.024 6.10548 468.832 6.10601 474.935C6.10751 482.96 6.12138 490.929 6.13782 499.11C6.13822 499.304 6.13862 499.497 6.13902 499.69L3.66406 497.215C11.595 497.199 19.5875 497.178 27.6005 497.157C30.4695 497.15 33.3443 497.143 36.2225 497.135C36.2335 497.135 36.2447 497.135 36.2558 497.135C41.5799 497.121 46.9168 497.107 52.2585 497.094C60.5052 497.073 68.7743 497.053 77.0748 497.037C85.3735 497.021 93.7233 497.008 102.116 497.004C110.51 496.999 119.131 497.002 127.79 497.027C135.516 497.049 143.303 497.078 150.916 497.107C152.926 497.114 154.937 497.122 156.947 497.129C166.486 497.165 175.721 497.193 184.854 497.198C193.98 497.204 203.099 497.188 212.303 497.154C221.478 497.121 230.769 497.07 240.134 497.01C249.541 496.949 258.826 496.878 268.3 496.801C277.701 496.725 287.146 496.642 296.706 496.555C302.021 496.507 307.675 496.463 313.017 496.425C318.411 496.387 323.771 496.353 329.062 496.322C331.209 496.309 333.346 496.297 335.468 496.285C338.562 496.267 341.629 496.25 344.648 496.231C349.743 496.2 354.714 496.167 359.543 496.128C364.369 496.089 369.054 496.044 373.579 495.989C378.263 495.931 382.124 495.873 386.742 495.79C397.987 495.629 404.956 495.579 412.699 495.524C414.224 495.513 415.782 495.501 417.406 495.489C426.691 495.427 435.967 495.38 445.121 495.345C454.364 495.31 463.462 495.286 472.678 495.272C481.805 495.259 490.996 495.255 500.152 495.261C509.293 495.267 518.418 495.282 527.567 495.306C536.71 495.33 546.041 495.364 554.999 495.406C560.177 495.43 565.677 495.462 570.785 495.494C574.471 495.518 578.104 495.543 581.665 495.567C583.119 495.577 584.565 495.587 585.997 495.597C590.753 495.629 595.381 495.659 599.857 495.682L595.849 499.69C595.85 499.52 595.851 499.35 595.851 499.181C595.875 494.545 595.892 490.059 595.898 485.669C595.904 481.271 595.899 476.969 595.884 472.665C595.868 468.203 595.846 464.498 595.806 459.761C595.78 456.676 595.753 453.653 595.727 450.639C595.687 446.127 595.646 441.648 595.604 437.136C595.562 432.629 595.519 428.18 595.474 423.707C595.459 422.269 595.444 420.751 595.429 419.309C595.383 414.853 595.335 410.448 595.285 406.047C595.235 401.654 595.182 397.302 595.127 392.968C595.071 388.616 595.013 384.336 594.949 379.972C594.842 372.555 594.792 365.455 594.759 359.238C594.726 352.946 594.707 347.067 594.69 341.344C594.686 340.273 594.683 339.201 594.68 338.129C594.666 333.513 594.653 328.972 594.637 324.5C594.618 318.988 594.595 313.577 594.568 308.148C594.541 302.766 594.509 297.331 594.472 291.978C594.434 286.576 594.393 281.409 594.343 275.842C594.294 270.336 594.229 264.744 594.16 258.615C594.09 252.541 594.019 246.168 593.957 239.713C593.894 233.265 593.84 226.715 593.798 220.212C593.755 213.695 593.723 207.157 593.7 200.71C593.677 194.229 593.664 187.785 593.657 181.375C593.651 174.98 593.652 168.373 593.66 162.19C593.672 152.178 593.689 142.211 593.707 132.226C593.726 122.296 593.747 112.335 593.77 102.395C593.792 92.4723 593.815 82.5388 593.839 72.6216C593.863 62.6996 593.888 52.7793 593.913 42.8737C593.919 40.6828 593.925 38.4919 593.93 36.301C593.95 28.5868 593.969 20.8734 593.988 13.1924C593.989 13.1396 593.989 13.0869 593.989 13.0341C593.997 10.0086 594.004 6.99986 594.011 4L599.857 9.84606C593.054 9.82964 586.297 9.81396 579.493 9.79995C575.894 9.79273 572.436 9.78593 568.922 9.78026C565.404 9.77461 561.952 9.77002 558.467 9.76663C554.979 9.76326 551.511 9.76138 548.096 9.76133C544.644 9.76139 541.279 9.76315 537.883 9.76815C534.77 9.77253 531.68 9.78041 528.303 9.78859C527.995 9.78935 527.686 9.79011 527.378 9.79087C523.683 9.79988 519.481 9.8056 515.574 9.80147C505.227 9.78924 495.143 9.78346 484.876 9.78405C474.605 9.7846 464.355 9.7913 454.021 9.80071C449.985 9.80434 445.93 9.80881 441.875 9.81283C435.565 9.81909 429.233 9.82537 422.882 9.83025C412.431 9.83836 401.958 9.84204 391.417 9.83706C380.917 9.83209 370.349 9.8181 359.829 9.79389C349.316 9.76979 338.713 9.73564 328.248 9.69241C316.588 9.64404 304.996 9.59063 293.352 9.53489C281.726 9.47908 270.095 9.42063 258.514 9.3607C246.891 9.30069 235.298 9.23906 223.701 9.17591C212.097 9.11273 200.501 9.04808 188.897 8.98204C181.952 8.94249 175.009 8.90222 168.062 8.86162C164.387 8.89806 160.864 8.93377 157.474 8.96765C132.43 9.21793 114.321 9.39845 90.4311 9.52277C88.1431 9.5416 86.2815 9.56842 84.0167 9.60078C83.5846 9.60695 83.1262 9.61313 82.6588 9.61971C79.6989 9.66138 76.2998 9.70498 71.571 9.73255C62.1378 9.78756 47.6788 9.7756 28.9943 9.41296C24.2744 9.32135 21.271 8.90783 22.2883 8.48901C23.0034 8.19524 25.5103 7.97695 28.5694 7.90435C22.9175 7.85452 17.2808 7.80239 11.6587 7.75061C9.41458 7.72987 7.3078 7.6335 5.81071 7.48025C4.31449 7.32695 3.54889 7.13005 3.67812 6.93042C3.8074 6.73075 4.82589 6.54346 6.51047 6.40711C8.19445 6.27092 10.404 6.19714 12.6583 6.20036C18.6387 6.20925 24.599 6.21825 30.5604 6.22459C36.5268 6.23102 42.465 6.23476 48.4208 6.23671C54.3749 6.23867 60.327 6.23842 66.2979 6.23671C72.2454 6.23492 78.2048 6.23204 84.175 6.22762C90.183 6.22331 96.0778 6.21726 102.069 6.21096C105.658 6.20711 109.291 6.2033 112.857 6.19884C114.186 6.19732 115.483 6.19521 116.78 6.19354C117.841 6.19218 118.907 6.19107 120.004 6.18975C131.547 6.17454 143.201 6.1575 154.75 6.13901C166.354 6.12062 177.946 6.10116 189.538 6.0807C201.136 6.06024 212.724 6.03845 224.318 6.01633C235.905 5.99418 247.486 5.97129 259.089 5.94741C270.649 5.92344 282.256 5.89892 293.835 5.87243C302.792 5.85196 311.672 5.82997 320.567 5.80654C324.069 5.76648 327.535 5.72863 330.955 5.69219C340.912 5.58611 350.882 5.4469 360.703 5.30898C343.222 5.37755 329.18 5.48466 315.811 5.58692C314.018 5.60063 312.238 5.61439 310.462 5.62781C292.342 5.76481 274.837 5.88077 251.292 5.85501C184.327 5.78177 145.498 5.72831 121.304 5.62857C97.1134 5.52884 86.7195 5.38099 77.0191 5.08708C63.3122 4.67173 36.8569 4.43548 23.5628 4.42669C18.7336 4.42351 14.8356 4.07309 14.8575 3.64436C14.8809 3.21553 18.8161 2.87022 23.6461 2.8734C37.6835 2.88266 66.3107 3.1228 82.6255 3.6171C89.892 3.83729 98.2482 3.97934 122.07 4.07756C145.894 4.17577 184.365 4.22834 251.458 4.30173C274.156 4.32655 291.002 4.21612 308.93 4.08059C310.688 4.06729 312.458 4.05336 314.244 4.03969C314.256 4.03969 314.267 4.03969 314.278 4.03969C330.746 3.91369 348.677 3.77634 372.857 3.71555C428.59 3.57544 503.559 3.30381 521.355 3.15058C524.848 3.12051 528.224 3.08674 531.785 3.05137C545.454 2.91563 561.956 2.7519 599.145 2.64317C599.381 2.64248 599.619 2.6418 599.857 2.64112L601.208 2.63345L601.216 4C601.239 11.9756 601.252 21.2506 601.258 31.3444C601.467 46.9451 601.661 62.0918 601.776 75.2624C601.875 86.6293 602.058 97.1113 602.258 107.268C602.316 110.192 602.376 113.135 602.436 116.073C602.581 123.16 602.726 130.249 602.838 137.157C602.927 142.664 603.034 148.431 603.148 154.526C603.56 176.729 604.055 203.335 604.062 238.005C604.069 274.758 603.979 306.225 603.892 333.364C603.993 313.433 604.114 298.047 604.221 285.231C604.242 282.813 604.262 280.497 604.281 278.266C604.415 262.514 604.513 251.062 604.509 238.788C604.489 180.165 604.357 158.177 603.977 133.367C603.877 126.835 603.743 119.629 603.6 111.866C603.313 96.3506 602.985 78.6033 602.797 59.5345C602.631 42.6587 602.39 23.8843 602.132 4L602.119 1.71264L599.857 1.72549C598.815 1.73901 597.769 1.75258 596.721 1.76618C596.712 1.76618 596.704 1.76618 596.696 1.76618C592.583 1.81954 588.422 1.87346 584.225 1.92749C558.635 2.25694 531.72 2.5882 505.519 2.79691C502.717 2.81923 499.36 2.85002 495.506 2.88552C473.261 3.09044 434.209 3.45018 386.519 3.2195C376.045 3.16882 365.16 3.06146 352.739 2.93853C348.956 2.90109 345.028 2.86175 340.927 2.82266C323.222 2.65391 301.71 2.47462 273.067 2.36675C249.429 2.27772 220.62 2.23502 190.704 2.19029C175.969 2.16825 160.965 2.14535 146.178 2.11683C101.512 2.03065 60.5745 1.89396 19.7142 1.75709C19.7059 1.75709 19.6975 1.75709 19.6892 1.75709C14.862 1.74092 11.0809 1.37984 11.2505 0.951293C11.4218 0.522969 15.4724 0.188522 20.2973 0.204564C61.1817 0.341512 101.995 0.478408 146.511 0.564296C161.074 0.592391 175.96 0.615036 190.638 0.637C220.698 0.681982 249.908 0.725113 273.767 0.814973C302.897 0.924695 324.803 1.10739 342.751 1.27846C347.074 1.31966 351.139 1.35995 354.997 1.39812C367.28 1.51962 377.492 1.62118 387.427 1.66924C433.603 1.8926 471.179 1.54716 493.507 1.34208C497.467 1.3057 500.948 1.27405 503.911 1.25044C529.598 1.04582 556.102 0.720005 581.668 0.390867C585.815 0.337468 589.943 0.284208 594.038 0.231071C594.047 0.230818 594.055 0.230566 594.063 0.230313C596.002 0.205159 597.934 0.180095 599.857 0.15518L603.68 0.133459L603.702 4C603.948 22.9558 604.179 41.136 604.34 57.5602C604.521 75.9232 604.819 91.9378 605.097 106.918C605.246 114.956 605.389 122.698 605.507 130.343C605.91 156.663 606.041 179.868 606.061 238.68ZM37.308 7.97933C48.9253 8.17394 58.3908 8.21498 65.4399 8.20198C59.4533 8.15777 53.4812 8.11139 47.5045 8.06339C44.1028 8.03609 40.705 8.00808 37.308 7.97933ZM599.706 32.7689C599.681 30.8865 599.655 28.9902 599.63 27.0875C599.642 32.3405 599.653 37.5949 599.665 42.8404C599.679 49.2815 599.692 55.7215 599.705 62.1586C599.71 51.9229 599.711 42.0045 599.706 32.7689ZM602.508 238.089C602.502 205.392 602.049 180.958 601.641 158.925C601.523 152.58 601.409 146.427 601.31 140.34C601.269 137.815 601.224 135.293 601.176 132.751C601.152 147.558 601.126 161.169 601.105 172.312C601.042 205.561 600.909 224.484 600.793 241.113C600.759 245.924 600.727 250.548 600.698 255.266C600.75 259.17 600.802 263.224 600.848 267.32C600.912 273.056 600.973 279.255 601.026 285.156C601.078 291.078 601.125 297.097 601.165 303.008C601.205 308.968 601.238 314.873 601.267 320.751C601.294 326.283 601.318 331.795 601.34 337.129C601.341 337.435 601.342 337.74 601.344 338.045C601.367 343.683 601.39 349.168 601.422 354.206C601.454 359.336 601.492 363.601 601.55 367.385C601.621 372.111 601.69 376.96 601.754 381.755C601.818 386.555 601.878 391.335 601.934 396.1C601.99 400.876 602.042 405.604 602.091 410.345C602.107 411.878 602.124 413.482 602.139 415.002C602.146 415.702 602.153 416.403 602.16 417.101C602.165 407.827 602.174 398.197 602.187 388.245C602.205 373.867 602.256 358.517 602.312 341.586C602.407 312.702 602.516 279.213 602.508 238.089ZM541.862 502.132C545.894 502.128 551.799 502.115 559.414 502.1C561.215 502.096 563.115 502.092 565.104 502.088C565.057 502.087 565.009 502.087 564.963 502.087C560.03 502.047 555.475 502.013 550.559 501.981C541.796 501.924 533.283 501.876 524.685 501.834C516.053 501.792 507.445 501.758 498.827 501.731C490.197 501.704 481.541 501.684 472.961 501.673C464.298 501.661 455.759 501.656 447.137 501.662C444.391 501.664 441.636 501.667 438.882 501.67C445.03 501.709 451.414 501.742 458.158 501.776C463.544 501.803 469.161 501.831 475.069 501.865C477.329 501.878 480.066 501.898 483.258 501.921C495.908 502.013 515.758 502.158 541.862 502.132ZM370.106 502.098C368.105 502.109 366.116 502.118 364.149 502.126C358.552 502.147 353.096 502.16 347.747 502.169C343.99 502.176 340.277 502.181 336.617 502.186C335.073 502.188 333.53 502.191 332.002 502.193C329.443 502.197 326.902 502.201 324.38 502.206C342.071 502.253 359.364 502.288 377.386 502.3C377.624 502.3 377.863 502.3 378.103 502.3C375.375 502.231 372.71 502.164 370.106 502.098Z" fill="#F2F2F2"/>
</svg>
