<svg width="467" height="70" viewBox="0 0 467 70" fill="none" xmlns="http://www.w3.org/2000/svg">
<rect x="2" y="2" width="463" height="66" rx="33" stroke="white" stroke-width="4"/>
<path d="M105.488 27.48C107.514 27.48 109.288 27.9467 110.808 28.88C112.328 29.7867 113.488 31.04 114.288 32.64C115.114 34.24 115.528 36.04 115.528 38.04C115.528 40.04 115.114 41.84 114.288 43.44C113.488 45.04 112.328 46.2933 110.808 47.2C109.288 48.1067 107.514 48.56 105.488 48.56C104.181 48.56 102.928 48.3067 101.728 47.8C100.528 47.2933 99.4611 46.5867 98.5278 45.68V48H93.5678V20H98.5278V30.36C99.4611 29.4533 100.528 28.7467 101.728 28.24C102.954 27.7333 104.208 27.48 105.488 27.48ZM104.848 43.8C106.528 43.8 107.901 43.2667 108.968 42.2C110.061 41.1067 110.608 39.72 110.608 38.04C110.608 36.36 110.061 34.9867 108.968 33.92C107.901 32.8267 106.528 32.28 104.848 32.28C103.194 32.28 101.794 32.8133 100.648 33.88C99.5278 34.9467 98.9678 36.32 98.9678 38C98.9678 39.12 99.2211 40.12 99.7278 41C100.261 41.88 100.968 42.5733 101.848 43.08C102.754 43.56 103.754 43.8 104.848 43.8ZM134.443 28H139.403V48H134.443V46.04C133.51 46.84 132.483 47.4667 131.363 47.92C130.27 48.3467 129.11 48.56 127.883 48.56C125.856 48.56 124.083 48.1067 122.563 47.2C121.043 46.2933 119.87 45.04 119.043 43.44C118.243 41.84 117.843 40.04 117.843 38.04C117.843 36.04 118.243 34.24 119.043 32.64C119.87 31.04 121.043 29.7867 122.563 28.88C124.083 27.9467 125.856 27.48 127.883 27.48C129.11 27.48 130.27 27.7067 131.363 28.16C132.483 28.5867 133.51 29.2 134.443 30V28ZM128.523 43.8C129.616 43.8 130.603 43.56 131.483 43.08C132.39 42.5733 133.096 41.88 133.603 41C134.136 40.12 134.403 39.12 134.403 38C134.403 36.32 133.83 34.9467 132.683 33.88C131.563 32.8133 130.176 32.28 128.523 32.28C126.843 32.28 125.456 32.8267 124.363 33.92C123.296 34.9867 122.763 36.36 122.763 38.04C122.763 39.72 123.296 41.1067 124.363 42.2C125.456 43.2667 126.843 43.8 128.523 43.8ZM161.489 44.12C160.502 45.48 159.262 46.56 157.769 47.36C156.275 48.16 154.662 48.56 152.929 48.56C151.035 48.56 149.275 48.0933 147.649 47.16C146.049 46.2 144.769 44.92 143.809 43.32C142.875 41.6933 142.409 39.9333 142.409 38.04C142.409 36.1467 142.875 34.4 143.809 32.8C144.769 31.1733 146.049 29.8933 147.649 28.96C149.275 28 151.035 27.52 152.929 27.52C154.635 27.52 156.235 27.92 157.729 28.72C159.222 29.4933 160.462 30.5467 161.449 31.88L157.369 34.64C156.115 33.1733 154.635 32.44 152.929 32.44C151.915 32.44 150.982 32.6933 150.129 33.2C149.275 33.7067 148.595 34.3867 148.089 35.24C147.582 36.0933 147.329 37.0267 147.329 38.04C147.329 39.0533 147.582 39.9867 148.089 40.84C148.595 41.6933 149.275 42.3733 150.129 42.88C150.982 43.36 151.915 43.6 152.929 43.6C154.635 43.6 156.115 42.8667 157.369 41.4L161.489 44.12ZM184.107 48H177.907L172.307 40.52L169.387 43.72V48H164.427V20H169.387V36.44L176.907 28H183.827L175.667 36.88L184.107 48ZM204.277 41.16C204.277 42.0667 204.49 42.6933 204.917 43.04C205.344 43.3867 206.024 43.56 206.957 43.56C207.517 43.56 208.13 43.52 208.797 43.44V48C207.544 48.1333 206.504 48.2 205.677 48.2C203.544 48.2 201.944 47.72 200.877 46.76C199.837 45.7733 199.317 44.0133 199.317 41.48V32.44H195.557V28H199.317V23.08L204.277 21.4V28H208.717V32.44H204.277V41.16ZM221.523 48.56C219.629 48.56 217.869 48.0933 216.243 47.16C214.643 46.2 213.363 44.92 212.403 43.32C211.469 41.6933 211.003 39.9333 211.003 38.04C211.003 36.1467 211.469 34.4 212.403 32.8C213.363 31.1733 214.643 29.8933 216.243 28.96C217.869 28 219.629 27.52 221.523 27.52C223.416 27.52 225.163 28 226.763 28.96C228.389 29.8933 229.669 31.1733 230.603 32.8C231.563 34.4 232.043 36.1467 232.043 38.04C232.043 39.9333 231.563 41.6933 230.603 43.32C229.669 44.92 228.389 46.2 226.763 47.16C225.163 48.0933 223.416 48.56 221.523 48.56ZM221.483 43.6C222.496 43.6 223.429 43.36 224.283 42.88C225.136 42.3733 225.816 41.6933 226.323 40.84C226.829 39.9867 227.083 39.0533 227.083 38.04C227.083 37.0267 226.829 36.0933 226.323 35.24C225.816 34.3867 225.136 33.7067 224.283 33.2C223.429 32.6933 222.496 32.44 221.483 32.44C220.469 32.44 219.536 32.6933 218.683 33.2C217.829 33.7067 217.149 34.3867 216.643 35.24C216.163 36.0933 215.923 37.0267 215.923 38.04C215.923 39.0533 216.163 39.9867 216.643 40.84C217.149 41.6933 217.829 42.3733 218.683 42.88C219.536 43.36 220.469 43.6 221.483 43.6ZM258.863 28H263.823V48H258.863V46.32C258.143 46.9867 257.343 47.52 256.463 47.92C255.583 48.32 254.65 48.52 253.663 48.52C252.49 48.52 251.29 48.28 250.063 47.8C248.863 47.2933 247.823 46.4 246.943 45.12C246.09 43.84 245.663 42.12 245.663 39.96V28H250.623V39.96C250.623 41.4533 251.036 42.5333 251.863 43.2C252.716 43.84 253.703 44.16 254.823 44.16C255.943 44.16 256.89 43.7733 257.663 43C258.463 42.2 258.863 40.9333 258.863 39.2V28ZM280.438 27.48C282.465 27.48 284.238 27.9333 285.758 28.84C287.305 29.7467 288.478 31 289.278 32.6C290.105 34.2 290.518 36 290.518 38C290.518 40 290.105 41.8 289.278 43.4C288.478 45 287.305 46.2667 285.758 47.2C284.238 48.1067 282.465 48.56 280.438 48.56C279.238 48.56 278.078 48.3467 276.958 47.92C275.865 47.4667 274.852 46.84 273.918 46.04V56H268.958V28H273.918V29.96C274.825 29.16 275.838 28.5467 276.958 28.12C278.078 27.6933 279.238 27.48 280.438 27.48ZM279.838 43.76C281.492 43.76 282.852 43.2267 283.918 42.16C285.012 41.0667 285.558 39.68 285.558 38C285.558 36.32 285.012 34.9467 283.918 33.88C282.852 32.7867 281.492 32.24 279.838 32.24C278.745 32.24 277.745 32.4933 276.838 33C275.932 33.48 275.212 34.16 274.678 35.04C274.172 35.92 273.918 36.92 273.918 38.04C273.918 39.72 274.478 41.0933 275.598 42.16C276.745 43.2267 278.158 43.76 279.838 43.76ZM298.84 42.36C298.84 42.7867 298.947 43.0933 299.16 43.28C299.374 43.4667 299.707 43.56 300.16 43.56C300.507 43.56 300.92 43.52 301.4 43.44V48C300.414 48.16 299.494 48.24 298.64 48.24C297.094 48.24 295.907 47.84 295.08 47.04C294.28 46.2133 293.88 44.76 293.88 42.68V20H298.84V42.36ZM313.202 48.56C311.309 48.56 309.549 48.0933 307.922 47.16C306.322 46.2 305.042 44.92 304.082 43.32C303.149 41.6933 302.682 39.9333 302.682 38.04C302.682 36.1467 303.149 34.4 304.082 32.8C305.042 31.1733 306.322 29.8933 307.922 28.96C309.549 28 311.309 27.52 313.202 27.52C315.096 27.52 316.842 28 318.442 28.96C320.069 29.8933 321.349 31.1733 322.282 32.8C323.242 34.4 323.722 36.1467 323.722 38.04C323.722 39.9333 323.242 41.6933 322.282 43.32C321.349 44.92 320.069 46.2 318.442 47.16C316.842 48.0933 315.096 48.56 313.202 48.56ZM313.162 43.6C314.176 43.6 315.109 43.36 315.962 42.88C316.816 42.3733 317.496 41.6933 318.002 40.84C318.509 39.9867 318.762 39.0533 318.762 38.04C318.762 37.0267 318.509 36.0933 318.002 35.24C317.496 34.3867 316.816 33.7067 315.962 33.2C315.109 32.6933 314.176 32.44 313.162 32.44C312.149 32.44 311.216 32.6933 310.362 33.2C309.509 33.7067 308.829 34.3867 308.322 35.24C307.842 36.0933 307.602 37.0267 307.602 38.04C307.602 39.0533 307.842 39.9867 308.322 40.84C308.829 41.6933 309.509 42.3733 310.362 42.88C311.216 43.36 312.149 43.6 313.162 43.6ZM342.568 28H347.528V48H342.568V46.04C341.635 46.84 340.608 47.4667 339.488 47.92C338.395 48.3467 337.235 48.56 336.008 48.56C333.981 48.56 332.208 48.1067 330.688 47.2C329.168 46.2933 327.995 45.04 327.168 43.44C326.368 41.84 325.968 40.04 325.968 38.04C325.968 36.04 326.368 34.24 327.168 32.64C327.995 31.04 329.168 29.7867 330.688 28.88C332.208 27.9467 333.981 27.48 336.008 27.48C337.235 27.48 338.395 27.7067 339.488 28.16C340.608 28.5867 341.635 29.2 342.568 30V28ZM336.648 43.8C337.741 43.8 338.728 43.56 339.608 43.08C340.515 42.5733 341.221 41.88 341.728 41C342.261 40.12 342.528 39.12 342.528 38C342.528 36.32 341.955 34.9467 340.808 33.88C339.688 32.8133 338.301 32.28 336.648 32.28C334.968 32.28 333.581 32.8267 332.488 33.92C331.421 34.9867 330.888 36.36 330.888 38.04C330.888 39.72 331.421 41.1067 332.488 42.2C333.581 43.2667 334.968 43.8 336.648 43.8ZM367.489 20H372.449V48H367.489V46.08C366.582 46.88 365.569 47.4933 364.449 47.92C363.329 48.3467 362.169 48.56 360.969 48.56C358.942 48.56 357.169 48.1067 355.649 47.2C354.129 46.2933 352.956 45.04 352.129 43.44C351.329 41.84 350.929 40.04 350.929 38.04C350.929 36.04 351.329 34.24 352.129 32.64C352.956 31.04 354.129 29.7867 355.649 28.88C357.169 27.9467 358.942 27.48 360.969 27.48C362.169 27.48 363.316 27.7067 364.409 28.16C365.529 28.5867 366.556 29.1867 367.489 29.96V20ZM361.609 43.8C362.702 43.8 363.689 43.56 364.569 43.08C365.476 42.5733 366.182 41.88 366.689 41C367.222 40.12 367.489 39.12 367.489 38C367.489 36.32 366.916 34.9467 365.769 33.88C364.649 32.8133 363.262 32.28 361.609 32.28C359.929 32.28 358.542 32.8267 357.449 33.92C356.382 34.9867 355.849 36.36 355.849 38.04C355.849 39.72 356.382 41.1067 357.449 42.2C358.542 43.2667 359.929 43.8 361.609 43.8Z" fill="white"/>
</svg>
