<svg width="467" height="70" viewBox="0 0 467 70" fill="none" xmlns="http://www.w3.org/2000/svg">
<rect width="467" height="70" rx="35" fill="white"/>
<path d="M174.958 44.12C173.971 45.48 172.731 46.56 171.238 47.36C169.744 48.16 168.131 48.56 166.398 48.56C164.504 48.56 162.744 48.0933 161.118 47.16C159.518 46.2 158.238 44.92 157.278 43.32C156.344 41.6933 155.878 39.9333 155.878 38.04C155.878 36.1467 156.344 34.4 157.278 32.8C158.238 31.1733 159.518 29.8933 161.118 28.96C162.744 28 164.504 27.52 166.398 27.52C168.104 27.52 169.704 27.92 171.198 28.72C172.691 29.4933 173.931 30.5467 174.918 31.88L170.838 34.64C169.584 33.1733 168.104 32.44 166.398 32.44C165.384 32.44 164.451 32.6933 163.598 33.2C162.744 33.7067 162.064 34.3867 161.558 35.24C161.051 36.0933 160.798 37.0267 160.798 38.04C160.798 39.0533 161.051 39.9867 161.558 40.84C162.064 41.6933 162.744 42.3733 163.598 42.88C164.451 43.36 165.384 43.6 166.398 43.6C168.104 43.6 169.584 42.8667 170.838 41.4L174.958 44.12ZM186.905 48.56C185.012 48.56 183.252 48.0933 181.625 47.16C180.025 46.2 178.745 44.92 177.785 43.32C176.852 41.6933 176.385 39.9333 176.385 38.04C176.385 36.1467 176.852 34.4 177.785 32.8C178.745 31.1733 180.025 29.8933 181.625 28.96C183.252 28 185.012 27.52 186.905 27.52C188.799 27.52 190.545 28 192.145 28.96C193.772 29.8933 195.052 31.1733 195.985 32.8C196.945 34.4 197.425 36.1467 197.425 38.04C197.425 39.9333 196.945 41.6933 195.985 43.32C195.052 44.92 193.772 46.2 192.145 47.16C190.545 48.0933 188.799 48.56 186.905 48.56ZM186.865 43.6C187.879 43.6 188.812 43.36 189.665 42.88C190.519 42.3733 191.199 41.6933 191.705 40.84C192.212 39.9867 192.465 39.0533 192.465 38.04C192.465 37.0267 192.212 36.0933 191.705 35.24C191.199 34.3867 190.519 33.7067 189.665 33.2C188.812 32.6933 187.879 32.44 186.865 32.44C185.852 32.44 184.919 32.6933 184.065 33.2C183.212 33.7067 182.532 34.3867 182.025 35.24C181.545 36.0933 181.305 37.0267 181.305 38.04C181.305 39.0533 181.545 39.9867 182.025 40.84C182.532 41.6933 183.212 42.3733 184.065 42.88C184.919 43.36 185.852 43.6 186.865 43.6ZM210.751 27.48C211.925 27.48 213.111 27.7333 214.311 28.24C215.538 28.72 216.578 29.6 217.431 30.88C218.311 32.16 218.751 33.88 218.751 36.04V48H213.791V36.04C213.791 34.5467 213.365 33.48 212.511 32.84C211.685 32.1733 210.711 31.84 209.591 31.84C208.471 31.84 207.511 32.24 206.711 33.04C205.938 33.8133 205.551 35.0667 205.551 36.8V48H200.591V28H205.551V29.68C206.271 29.0133 207.071 28.48 207.951 28.08C208.831 27.68 209.765 27.48 210.751 27.48ZM229.269 41.16C229.269 42.0667 229.482 42.6933 229.909 43.04C230.336 43.3867 231.016 43.56 231.949 43.56C232.509 43.56 233.122 43.52 233.789 43.44V48C232.536 48.1333 231.496 48.2 230.669 48.2C228.536 48.2 226.936 47.72 225.869 46.76C224.829 45.7733 224.309 44.0133 224.309 41.48V32.44H220.549V28H224.309V23.08L229.269 21.4V28H233.709V32.44H229.269V41.16ZM240.339 24.68C239.405 24.68 238.672 24.4267 238.139 23.92C237.605 23.4133 237.339 22.72 237.339 21.84C237.339 20.9333 237.605 20.2267 238.139 19.72C238.672 19.2133 239.405 18.96 240.339 18.96C241.272 18.96 242.005 19.2133 242.539 19.72C243.072 20.2267 243.339 20.9333 243.339 21.84C243.339 22.6933 243.059 23.3867 242.499 23.92C241.965 24.4267 241.245 24.68 240.339 24.68ZM237.819 48V28H242.779V48H237.819ZM257.9 27.48C259.073 27.48 260.26 27.7333 261.46 28.24C262.686 28.72 263.726 29.6 264.58 30.88C265.46 32.16 265.9 33.88 265.9 36.04V48H260.94V36.04C260.94 34.5467 260.513 33.48 259.66 32.84C258.833 32.1733 257.86 31.84 256.74 31.84C255.62 31.84 254.66 32.24 253.86 33.04C253.086 33.8133 252.7 35.0667 252.7 36.8V48H247.74V28H252.7V29.68C253.42 29.0133 254.22 28.48 255.1 28.08C255.98 27.68 256.913 27.48 257.9 27.48ZM282.449 28H287.409V48H282.449V46.32C281.729 46.9867 280.929 47.52 280.049 47.92C279.169 48.32 278.236 48.52 277.249 48.52C276.076 48.52 274.876 48.28 273.649 47.8C272.449 47.2933 271.409 46.4 270.529 45.12C269.676 43.84 269.249 42.12 269.249 39.96V28H274.209V39.96C274.209 41.4533 274.622 42.5333 275.449 43.2C276.302 43.84 277.289 44.16 278.409 44.16C279.529 44.16 280.476 43.7733 281.249 43C282.049 42.2 282.449 40.9333 282.449 39.2V28ZM301.163 27.48C303.083 27.48 304.803 27.96 306.323 28.92C307.87 29.8533 309.07 31.12 309.923 32.72C310.776 34.32 311.203 36.0933 311.203 38.04C311.203 38.68 311.15 39.2667 311.043 39.8H295.603C296.003 41.2133 296.71 42.32 297.723 43.12C298.736 43.8933 300.03 44.28 301.603 44.28C302.563 44.28 303.483 44.0667 304.363 43.64C305.27 43.2133 305.95 42.6667 306.403 42L310.203 44.24C309.27 45.6267 308.056 46.6933 306.563 47.44C305.096 48.16 303.403 48.52 301.483 48.52C299.35 48.52 297.456 48.0667 295.803 47.16C294.15 46.2533 292.87 45 291.963 43.4C291.083 41.8 290.643 40 290.643 38C290.643 36.0267 291.083 34.24 291.963 32.64C292.87 31.04 294.123 29.7867 295.723 28.88C297.323 27.9467 299.136 27.48 301.163 27.48ZM306.563 35.92C306.35 34.64 305.75 33.64 304.763 32.92C303.803 32.1733 302.59 31.8 301.123 31.8C300.11 31.8 299.176 31.9867 298.323 32.36C297.496 32.7333 296.83 33.24 296.323 33.88C295.816 34.52 295.55 35.2 295.523 35.92H306.563Z" fill="black"/>
</svg>
