<svg width="393" height="440" viewBox="0 0 393 440" fill="none" xmlns="http://www.w3.org/2000/svg">
<path d="M141 0H149.25L153 0.75L159.5 2.25L164 4.25L167.5 6.75L169.5 8.75L171.25 11.25L172.75 14.5V18.25L173.25 19.5V21.75L171.5 27.75L169.5 31L167.25 33.5L165.5 35.5L163.25 38.25L164.5 38.5L168.5 40.5L175 44L177.5 45.75L180.25 48L183.25 50.75L185.75 53.5L189.25 58.25L192.5 62.75L193.5 64L196.5 66.25L200.5 68.25L205 69.75L211.5 71.25L214 71.75L220 72.25L231.75 72.5L235 72.75L237.5 73L246.75 73.75L253 74.5L257.5 75.75L262.25 77L266.25 79L269 80.75L272 82.75L274 84.5V85L275 85.5L276.75 87.5L279 90.5L281 94.25L283 99.25L284.5 103.75L285 106.5L285.25 109.25V119L285 121.5L283.75 127.75L282.75 131.75L281.25 136.25L280.25 138.5L278.75 142L276.5 146L274.25 149.5L270.75 154L268.5 156.75L267.25 158.25L266 159.5L263.25 162.5L261.25 164.25L258 167.25L255.25 169.25L252.5 171L249.5 173.25L244.25 176.25L238.25 179L235 180.25L232 181.75L223.75 184.5L217.75 186.25L205.25 189.5L203 189.75L204.25 192.5L206 197.5L208 201.5L210.75 206.5L213.25 210.5L216.25 214.5L218.25 217L221.25 220.5L223.25 222.75L225 225L227.75 228L230 230.5L231.5 232.5L234.5 235.5L236.25 237L237.25 238.25H237.75L241 232.75L243.5 228.5L246.25 225L249 222.75L253 220.75L257.25 220L258.75 219.75H261L268 220.75L272.25 221L275 221.75L285.5 223.25L288.75 224L296.75 225L301.5 226L309.5 227.25L323.5 229.5L330.5 230.5L334.25 231L337 231.75L347 233L353.75 234.25L357.75 234.75L363 236L369.75 237L380 239L384 240.5L386.75 242.5L388.75 244.75L390.75 247.75L392.25 251.25L392.75 253.5L393 257.5V261.25L392 265.25L387.5 276.25L384.75 282.75L383.5 285.75L381.5 290.25L379.5 295L377.25 300L374.25 307.25L371 314.5L368.25 321L366.5 324.75L364.25 330L361 337.25L358.5 343L356.25 348L353.75 353.5L351.75 358.25L350 362.5L348 366.5L345.75 371.5L342.75 378.75L341 382.5L338 389.25L334.5 397.25L332.5 401.75L330.5 405.75L329 409.75L332.25 409.25L334.75 409.5H338.75L340.25 409.25L341 409.5L344.75 409.75L346.75 410.5L347.75 411.25H348.75V410.75L352 410.5L355.25 411.25L358.5 413L360.5 415L362.5 414.75L365.75 415.75L367 417V418.75L366.25 419.5L364 420.25L360.25 420.75L361 422L362.25 422.75L362 424.5L361.25 426L359 427L351.5 429L345.75 430L343.25 430.75L336 431.75L334.25 432.25H332.25L331.5 432.75L324.5 434L321 435L316.5 435.5L310.5 435.75L308.25 437.25L304.5 438.75L302.25 439.25L299.5 439.5L292.5 439.25L288.75 438.75L280 437L275.75 435.75L271.75 435L268 434L264 433.25L262 433L258.75 432L253 430.75L239.5 427.75L235 427L230.75 425.75L223.25 424L218 423L215.5 422.25L209.25 421L206.75 420.25L192.75 416.75L188 415.5L183 414L177 412.5L170.75 410.75L166.75 409.25L162.75 407.25L160.75 405.75L160 405V404.5L159 404L158.25 403L156.75 399L156.5 398V391.5L158.25 385.5L161 379.75L164 374.5L167 368.75L169 365.25L171.75 360.25L173.25 357.25L175.5 353.25L176.75 350.75L179.75 345.25L182 341.25L184.5 337L187.5 331.5L191.25 324.75L192.75 321.75L195.25 317L197.25 313.25L198.75 310.5L201.25 306L204 300.5L206 296.75L207.75 294L208.25 293.5L210.25 293.25L216 296.25L217 297.5L217.5 298.25L217.25 300L215.75 303.5L213.25 308.25L212 310.75L209.5 315.5L205.75 322.5L203.75 326.5L199.75 333.75L197.25 338.25L195.25 342.25L193.75 344.75L192.5 347.25L190 352L187.75 356L185.75 360L183.5 364.25L181.5 368.25L180.25 371.25V374.25L181.25 376L182.5 377.25L185 378.75L192.75 380.75L195.75 381.25L206.25 383.75L213.25 385.25L216.5 386.25L219 386.5L219.75 386.75L222.5 387L224.75 388L228.75 388.75L232.5 389.25L234.5 390L240.5 391L244.75 392L251 393.25L254.25 393.75L260 395L262 395.75L269 396.75L272.75 397.75L280.75 399.25L285.75 400.25L291.75 401.25L293.75 401.75L297.25 402L298.5 402.25L302.75 402.5L305.75 401.75L308.75 399.75L310.75 397.25L312.25 394.5L313.5 391.75L315.75 386.5L318.5 380.5L320.75 375.25L324 368L327 361.25L328.75 356.75L330.75 352.5L332 350L333.25 347L336.5 339.25L338 336.25L340 331.5L341.5 327.75L345.25 320L347.5 314.75L348.75 312L351 306.5L352.25 303.75L354.5 298.5L358 290.25L360 285.5L361.25 282.75L363.75 276.5L367.25 268.25L369.25 263.5L370.75 259.5L370 257.25L368.75 255.75L365.25 254.25L361.25 253.5L358 253L354.5 252.25L340.25 250L322 247L313 245.5L304.5 244L294.5 242.5L284 241L282.25 240.5L275 239.75L270.5 238.75L267.25 238.25L262 238L259.5 237.25L259.25 238L257.25 237.25L255.75 237.5L255.5 237.75L253.25 238L251.25 239.25L249.75 241L247.5 244.25L245.75 247.75L242.75 253L240.75 257L236.25 265.25L233.75 269.5L231.5 272L230 273L228.75 273.25L227 272.75L226.25 272L223.25 271L222.25 269.75L222 268L223.5 264.5L226.25 259.5L227.5 257L230.5 251.5L232.5 247.5L234 245L234.5 243.5L233.25 243L228.5 238.25L227.25 236.75L225.25 235.25L222.75 232.5L220.5 229.75L217.25 226L215.5 224L212.25 220L209 215.75L206.75 212.5L202.25 204.5L201 201.75L199.5 198L198.5 192L198.25 190.75L197.25 191L193.75 191.25H190.5L188.5 191L187.5 189.25L187.25 188.25V186.25L188.5 185.5L195.25 184.75L197.75 184L204 182.75L207.75 181.75L212 180.75L222.75 177.75L227.5 176.25L231.75 174.75L234.75 173.5L237 172.5L243.25 169.25L244.5 168.5L247.5 166.25L250.5 164.25L253.75 161.75L256.25 159.25L258.25 157.5L260.75 155.25L263 152.5L265.5 149.75L268.25 146.25L269.75 144L271.75 140.5L273.25 137.5L274.5 134.5L276.25 129.75L278 123.25L278.25 121.25V119.25L278.75 116.5V108.75L277.25 102.75L275.75 98.75L273 93.75L270.75 90.5L268.75 88.5L265.5 86.25L261.5 84.25L257 82.5L250.5 81.25L245.5 80.5L241 80.25L240.25 80L229.25 79.5L225.25 79.25L224 79.5L208.5 77.5L202.75 76L198.25 74.25L195.5 73.25L192 71.25L188.75 68.5L187 66.5L183 60.75L181 58L178.25 54.75L175.25 51.75L171 48.75L165 45.25L161.5 43.25L158.5 42.25L157.5 42.5L148 45.5L132.25 50.75L129.75 51.75L126 53L120 55.25L118.25 56.25L115.75 57L109.25 59.75L104.75 61.75L98.5 64.25L95 66L89.25 68.75L83.75 71.5L79.5 73.75L73.5 77.5L71 79L71.25 79.25L73.75 79.5L75.75 80.5L77.5 83L78 84.75L78.5 86L81.25 86.25L85.75 88.5L88.25 90.5L90 92.75L91.5 95.75L92.75 101V106.5L91.25 111.75L90 114.5L90.5 115.75L92.25 117.75L93.25 119L96 124.25L97 128L97.25 130V135.75L96 140.25L94.5 143.25L92.5 146L90.5 147.5L90.25 149L92 152.5L93.5 157L93.75 158.25V166.75L93 170.5L91.25 176L89.25 179.75L87.25 182.5L85 184.75L83.25 187L80.5 189L79 189.75L77.75 196.5L75.75 201.75L72.5 207.5L71 209.5L69 212L67.5 214L65 216.75L62.75 219.5L60.5 222L58.5 224.5L54 230L51.75 233L48.75 237.5L46.25 241L43.75 244.75L42 247.5L40 250.75L36 258.75L34.25 263.25L32.5 270.75L31.5 276.75V282.75L32.25 286.25L34 291.5L36 295.75L38 298.25L41.75 302L44.5 304.25L47 306L48.25 306.5L50.25 307L51.5 308L57.25 309.5L60 310L64.75 310.25H73L77.75 309.75L81.75 308.75L86 308L91 306.25L95 304L97.25 302.25L99.25 300L101 297L101.5 295.25L101.75 293V290.75L99.25 291L92.75 292.5L86.75 293.25L81.5 293.5L80.5 292.75L80.25 292V290L81.25 289L83.25 288L87 287.25L91.25 286.5L94 285.5L98.75 284.5L101.5 283L102.5 281.75L103.25 279.5V277.25L102.75 275L101 271.5L99.25 270L95.25 269.5H92.25L87.25 270.5L85.5 271.25L83.25 272L80.5 273.25L79.5 273.5H75.75L74.75 272.5L74.5 272V270.25L75.75 269L79.5 267L83.75 265.25L86.25 264.25L87.25 263.75L93.5 263L94.25 262.75L94.75 263L98.5 263.5L97.25 259.25L95.5 256.25L94.25 255.5L92 254.75L88 254.25L86.75 254.5L83.25 254L79.25 254.5L70.75 256.25L64.75 258.5L62.5 259.5L60.5 260.5L57.25 262.5L54 264.75L52.25 265.75H50.5L49.25 265L49 264.25L49.5 262.5L50.25 260.75L51.5 259.5L54.5 257L57.25 255.25L60 253.75L62.25 252.75L65.75 251L72.25 249L75.75 248.25L83 247.75H84.5L83.75 241.5L82.75 232.75L82.5 232.25L81.5 221.5L81 218.25L80.75 213.75L81.5 212.5L83 211.5L89.5 210.25L95.5 209.25L106.25 207.75L112.75 206.75L121.5 205.5L133.75 203.25L148 201L156.5 199.75L167 198.75H170.75L171.75 199.75L173 205.75L175.5 220.25L176.5 228L177.5 233.75L178.75 241.75L179.5 246.25V248.75L178.75 250L177.25 251.25H175L174.25 250.5L172.5 243.75L170.5 230.75L168.75 218.75L166.75 205.25L155.75 206.75L147 208L136 209.75L120.5 212.5L112 213.75L99.5 215.5L90.25 217L87.5 217.25L88 221.25L88.5 227.5L89 231.5L89.75 238.25L90.5 247.25L92.75 248L95.75 248.75L98.75 250.25L101 252.25L103.25 255.75L105 259.75L105.5 262.25L111.5 260.5L114.75 260H116.5L120.75 261.25L126 264L130.25 267.5L133.75 270.25L136.5 272.5L137.75 273.25L138.75 272L142.25 269.75L147.5 268L150.5 267.5L154 267.25H157L160.25 267.75L165.75 270.25L169.5 273.75L170.75 275.75L170.5 277L168.75 279L167.75 278.5L163.75 275.75L159.5 273.75L157.5 273.25H152.75L148.5 274L144.5 276L142 277.5L143.25 278.75L146 281L149.75 283.5L151.5 285.25L151.75 287L150.5 288.5L149 289L147.25 288.75L144.25 287L140 283.75L137.25 281.5L134 278.5L132 276.75L129 274L126.25 271.75L123 269L118.5 266.25L115.25 265.5H110.5L107.25 266.25L107 266.75L107.5 269.5L109 273L109.5 277L109.25 282.5L108.5 284.75L107.25 287L107.5 289.25L108 292L107.75 295.75L107.25 298.75L104.5 303.25L102.25 306.25L100 308.25L99.5 308.5V313.75L99.75 319L100 319.75H102.25L105.5 319.25L109.75 318.5L119.5 317L125.75 316L129.25 315.5L132.5 314.75L137.75 314L142.25 313.25L144.75 312.75L152 311.75L157 310.75L164.75 310L168.75 309L172.5 308.5L180 307.75L181.5 307.25L181 303L180 298.25L179.5 292L178 283L177.5 277.75L176.75 274L177 272.25L178.25 271L179 270.75H181L182.25 271.5L182.75 272.5L183.75 279L184.75 285.25L185.25 286L185.5 290L186 294L187.25 298.5L188.25 305.25L188.5 306.5V310L187.25 312L186 312.75L181.25 314L176.5 314.5L170 315.5L168 316L161.75 316.75L156.5 317.75L148.75 319L145.25 319.75L139.25 320.5L132.5 321.75L125.5 322.75L118.75 324L113 325L106.75 326L102.5 326.75L99.25 327.5H96.25L95.5 327V326.5L94.5 326L94 325.25L93.75 322L93 317.25L92.5 314.75L92.75 312.5L87.75 314L82.25 315.25L79.25 316L71.25 316.75L70 317L68.75 316.75H65.75L55.75 316L50.25 314.5L49.25 314L48.25 321.25L48 321.75L47.5 330.75L48 332.25V334.25L48.75 337.5L49.75 342L51.75 347.75L54 353.75L54.75 357.75L55 362.5V365.5L54.25 370.25L53 375L49.75 388.5L49.5 389.25L49.25 392V394.75L50 398.25L51 401.25L53 404L54.75 405.75L58.5 408.25L62 410L67.25 411.25L68 411.5L75.25 412L83.5 412.25L95.5 412L96.5 408L96.75 406.5V404L96 401.5L94.5 399.25L93 398V397.5L92.25 397.25L91.5 396.25V394.5L92.75 393L93.25 392.75H95.25L97.75 393.75L100.25 396L101.75 397.75L103.25 401L103.5 406.75L103.25 410.75L102.75 412.25L115.5 412L118 411.5L118.75 409.5L119.25 407.5V403L118.75 400.75L117.25 398.25L115 395.75L112.5 394L111.5 393L111.75 391.75L113.5 390.25H115.25L117.75 391L120.5 392.75L122.25 394.25L124 397L125 398.5L126 401.5L126.25 404.25V407.5L125.5 411.25L129.25 410.75L132.25 409.75L135 408L136 407.5L136.5 406.5L138.25 404L139.25 400.25V396.25L139 396L138.75 393.75L137.5 391.5L135.75 389L133.5 387L131 385.25L126.25 383L121.25 381.25L117.25 380.25L116 379.25L115.5 378.25V376L116.5 372L117.75 365.75L118.5 364L119 359.25L119.75 357L121.25 355.75L132.5 355.5L137.5 355.25L143.25 354L148 352.75L151.25 351.5L152.25 351.25H154.25L155.5 352.5L155.75 353V354.75L155 356.25L153.25 357.75L150 359L145.75 360.25L141.25 361.5H140.25L140.75 363.5L140.5 372.25L140.25 378.5L139.5 381.75L139 382.75L140 383.25L142.25 386L144.25 389L146.25 395L146.5 397.25V401.75L152.5 402.5L155 404L156 405.25L156.75 407.5L158.5 408.25L160.75 410L162.75 411.5L164.5 412.75L168.75 414.5L170 414.75L171.75 415.25H173.75L175 415L175.25 415.25L175.5 419L174.75 419.75L166.75 420.25L166 421L165 421.25L163.25 421L155.75 421.75L147.5 422L144.75 422.5L142.75 423L138.25 423.25L137 423L136.75 423.25L117.25 423.75H115.5L113.75 424H85.75L83.25 424.5L80.25 424.25L80 424.5H78.5L78 424H70.75L70 423.75H68.5L67.5 423.25L64 423L62.25 422.75L60.25 422.25L60 423H57.75L56.25 422.5L55 422.25V421.75H54.5L53.75 422.5L51.25 422L51 421L51.25 420.5L50.75 420.75V422L48.75 421.75L48.5 421.25H49.5L49.75 420.5L47.75 420.25L47.25 420.5V420H46.75L47 421L45.75 421.25L45 420.5L44.75 420L43.25 419.75L24.5 419L22 418.75L20 416.5L19 416.25L18 416.75L14.75 415.75L13.25 414.5L13.5 413.75L17 412L20.75 411H21.5V410.5L18.5 410.75L14.25 412.25L14 413L12.25 414H10.5L9.25 413.25L8.75 412.25L9 410.5L10 409.25L12 408.25L17 406.25L20.5 405.25L28.75 404L33.25 403.75L35.5 403.25L39.5 403H42.5L44.75 403.75L43.5 401.5L42.75 396.75V391.25L43.5 385.25L46.75 373L48.25 365V359.25L47 355L44.25 348L43 348.5L42.25 349.25L39.75 350L37.5 351L33.5 351.5H29.75L25.5 351L20.25 349L17 346.5L15.25 344.75L13.75 343L12.5 340.25L12.25 338.5L13 336.25H11.25L7.75 335.25L5 334L2 332.5L-1 330L-3.5 326L-4.75 323.75L-5.5 322.25L-6.25 318.75L-7 314.25V309.25L-6.5 305.25L-5.5 300.75L-4.5 298.25L-2.75 295.5L-1.75 294.25L0.5 292.75L1.25 292.5H3.5L4.75 293L5.5 293.75L7.25 297.75L8.5 300L11 303.25L14.25 307.5L17 310.75L20.25 314L24.75 317L29 319.25L31.25 320.25L35.25 321.75L37.5 322.25L41.75 322L42.25 320.5L43 316.25L44 312.5V311.5L40.25 309.25L37.75 307.5L34 304L31.5 301L29 296.5L27.5 293.5L26 288.5L25 283.75V276.25L25.5 271L26 268.5L27 265L28.25 260.75L30 256L32.25 251.25L35.5 245.5L38.5 240.75L40 238.25L46.5 229.25L49 226L50.75 224L52.5 221.75L54.75 219L57.25 216L59 214L61.25 211.5L63 209.5L65.25 206.75L66.5 205.25L69 201.75L70.75 199L71.75 196.75L72.5 193.5V191.75L64.25 191.5L63.25 193L61.25 194.75L58.75 197L56.5 198.25L52.5 200.25L50 201.25L45.5 202.25H40.25L37.5 202L33.5 201L31.5 200.25L30.25 199.5L27.75 198.25L24.75 196.25L22.25 194L20 191.25L18 188.5L16 183.5L12.5 183L11.25 182.25L11 181.75L8.75 180.75L6.25 178.5L4 176.25L2 173.5L0.75 169.75L0.25 167.5V162.25L2.25 153.75L4.25 149.75L6.5 146L8.75 143.25L11.75 140.5L12 139.75V131.25L13.25 128.75L14.5 125.75L16.5 122.75L18.75 120L22.75 116L26 113.5L30 111L33.25 109.25L33.75 104.25L34.25 102.25L35.75 98.5L38.5 93.5L40.5 90.75L42 89.25H42.5V88.5H39L35.5 88L32.25 86.75L29 85L27.25 83L25.5 80.5L24.25 77.5L23.75 75.75V73.75L25 69.5L26.25 67L27.5 65.5L28.5 63L30.5 59.5L32.5 56.5L35 53.25L36.75 51L38.25 49.25L40.25 47.5L42.5 44.75L46 41.25L48.75 39L52.25 36.25L55.75 33.75L59.5 31L64 28.25L71 24L75 22L75.5 21.5L72.25 21L70 19.5L69 18.25L67 14.5L66.75 13.25L68.75 7.75L70.5 5.5L72.5 4L76.75 2.75L78 3L82.5 3.5L84.75 4.25L85.75 5.75L86.75 9.75L87 13.75L86.75 15.25L90.75 13.25H92.5L94 12L98 10.5L100 9.5L102.25 8.75L104 7.75L107 7L109.25 6L111.5 5.5L113.5 4.75L116.75 3.75L124.5 2L131.25 1L134.25 0.5L136.25 0.25L141 0ZM162.75 17.75L163.25 18.25V17.75H162.75ZM152.75 20.25L153.25 20.75V20.25H152.75ZM164.75 21.5L164.5 22.75L165.5 22.25L165.25 21.5H164.75ZM126.75 27.5L125.75 28L127.5 27.75L126.75 27.5ZM141.75 29.75L138 31.5L138.75 31.75L140.75 31L143.25 30.5V29.75H141.75ZM154.75 36.75L154 37.5L155.5 37.25V36.75H154.75ZM65.75 66.75L64.75 67.5L65 68L66.25 67.5V66.75H65.75ZM49.75 74.25V75.5H50.25V74.25H49.75ZM42 102.5L41.5 103V103.75H42.5L42.25 102.5H42ZM17.75 135L17.5 135.5H18L17.75 135ZM86.25 143L86.5 144L87.5 144.25L87.25 143.25L86.25 143ZM24 145V146.25L24.5 145.75V145H24ZM87.75 166.5L88.25 167V166.5H87.75ZM31.25 185.25L31.5 185.75L32 185.5L31.25 185.25ZM380 267.5L379.75 268.5L380.25 268.25L380 267.5ZM1 321L0.75 322L1.5 322.5V321.25L1 321ZM2.5 324.5V325.25L3.25 325.5L3 324.5H2.5ZM16 328.5L16.5 329.75L18 331L19 330.75L16.25 328.5H16ZM19.25 330.75V331.25L20.25 331L19.25 330.75ZM36.25 332.5V333H36.75V332.5H36.25ZM25.25 344.5L25 345L25.75 345.25L29.5 345.5V344.75L25.25 344.5ZM125 362.75L124.75 363L124 368.25L123.25 370.5L122.75 373.25V375L126 376L130.75 377.75L133.75 379.25L134.5 374L135 365.5V362.75H125ZM169.75 392.75L170.75 393.75L172.5 394.25L173.5 394L171 392.75H169.75ZM215 393.5L215.25 394.25L216.25 393.75L215 393.5ZM225.25 398.5L223 399.5L222.25 400.5L221 403.5L221.5 405L222.75 406.5L224.75 407.5L229 408.5L234.75 409.75L240.25 410.5H243.25L244.75 409.75L246.25 408L246.5 407.5L246.25 405L245.25 403.5L244.25 402.25L241.5 401.25L235.25 400L233 399.75L230.25 399L227.5 398.5H225.25ZM36 408.5L35.75 409H37.75V408.75L36 408.5ZM48 410.75L48.75 411.25H49.75V410.75H48ZM26.5 413.75L24.75 414H23.25L23.5 414.5L26.25 414.75L30.75 414.25L29.75 413.75H26.5ZM52.5 415.25L53.25 415.75H53.75V415.25H52.5ZM138.75 416.75V417.75L140 417.5L139.25 416.75H138.75ZM134 417.5V418L134.75 417.75L134 417.5ZM51.5 420.75L52 421V421.5L52.75 421.25L52.5 420.75H51.5ZM331.5 421.75V422.75L332.25 422L331.5 421.75ZM357.5 421.5L350.5 423.5L350 424H352.25L355.25 423.25L358 422.25V421.5H357.5Z" fill="white"/>
<path d="M284.5 258H286.5L288.25 258.5L291.5 258.25L294.75 258.75L297.5 259.25L301.5 259.75L307.25 261L312 262.5L318 265.25L322 267.75L325.25 270.25L328 272.75L329.75 274.75L332 277.5L333.75 280.25L335.75 285.25L337 289.5L337.75 296V301.75L337.25 306.25L334.75 316L333.25 321.25L330.25 328.75L329 331.75L327.25 335.75L325.5 339.5L323 343.75L320.5 346.75L318.75 348.75L314.25 351.25L311.5 351.75H308.25L305.25 351L302.75 349.75L300.5 347.25L299.5 345.25L299 343.25V340.25L299.5 337.75L301.75 332.75L303 330.25L304.5 327L306.5 322.75L307.75 319.75L308.5 317.75L309.5 315L310.25 312.75L311.75 307.75L312.25 304.5V299.25L311.5 296.5L309.75 293L307.75 290.5L306 289L301 286L299.25 285.25L295.25 284.25L291 283.5L285.5 283L280.5 283.25L276 284.5L271.25 286.5L266.25 289.5L264.75 291H264.25L263.75 292L262 293.5L257.5 300.25L254.75 306L252.75 309.5L251.25 312.25L250 314.25L248 316.75L244.5 320.5L242.75 322.25L240.5 324L237 326.25L233 328.25L229.25 329.5L228 329.75H222.75L221 328.75L220.5 328L220.25 326.75V325L221.25 323L222.25 322.25L225.75 321L231 319.75L235.25 317.5L237.5 316H238L238.5 315L240.25 313.5L242.5 310.5L245 306.25L247.5 301.5L250.75 295.25L253.5 291.75L256.5 288.25L258.25 286.25L260.75 283.75L265.25 280.5L269.75 278.5L271.75 277.5L274.75 276.75L276.75 276L282.5 275H290.25L297 275.75L304.25 278L308.5 280L311 281.75L313 283.5L315.25 285.5L318 289L320 292.75L321.25 297L321.75 301L321.5 303.5L321 306.75L319.75 312L318.5 315L317.5 318.25L316 322L314.5 325.25L313.5 327.75L312.5 330.5L310.75 334.5L309 338.75L309.25 341L310.25 342.25L312.25 342.5L314.5 341.5L316 339.75L318 336L319 333.5L320.25 330.75L321 328.5L322.25 326L323.25 322.75L325 318.5L326 316.25L328.25 307.25L328.75 303.5V297L328 291.25L327 288L325.75 285L323.75 281.75L322 279.75L320 278L318.25 276.25L314.75 274L310 271.75L302.5 269.5L297.25 268.25L294.25 267.75L291.75 267.5L290 267.75L288.75 267.5L284.5 267.25L279.5 267.75L271 269.75L268.25 271L265.75 272L264.25 273L261.75 274L258.25 276.25L255.5 278.5L251.5 282.5L249 285.25L246.5 288.5L244.75 291.5L242 296L238 304L235.25 309.25L234.5 310.25L233.5 312.25L231.25 314.75L229.25 316L228 315.75L226 314L225.5 313L225.75 310.75L226.75 308L229.75 301.5L232 296.75L235.25 291L239 285L241 282L243.5 279.25L245.5 276.75L249.5 273L251.5 271.25L256.25 267.75L262.25 264.25L265.25 263L267.25 261.75L272.25 260L277.75 259.25L280.25 259L282.75 258.5L284.5 258Z" fill="#3F6981"/>
<path d="M254 91.5L260.5 91.75L263.25 92.25L267.25 94.25L270.25 96.5L272.5 100L273.5 102.75L274.25 104.75L274.5 108.25L274 110.75L273 115.5L271 119.5L268.75 123L266.75 125.75L264.25 128.5L262.25 130.25L259 132.25L254.25 134.5L252 135L250.25 135.75L248.75 135.5L246.25 136L244.75 136.25L244.25 136L241 135.5L237.5 134.5L233.5 132.5L231.5 131L230.5 130L230 128.75L229 127.75L227.75 124.75L226.75 122.25L226.5 120.5V115.75L227 112.25L228 110.25L228.75 107.75L230.25 105.5L231 104L234.25 100L235.75 98.25L239 95.75L242 94L246.5 92.5L247.75 92L252.5 91.75L254 91.5ZM247 104.25L246.5 105L247.5 104.5L247 104.25ZM246 105L245 105.75V106.5L245.75 106.25L246.5 105H246ZM261.75 105.75L261.5 106.75L262.25 106.5V105.75H261.75ZM235.5 121.75L236.25 124L237.25 124.5L236 121.75H235.5Z" fill="white"/>
<path d="M285.75 290.25L291 290.75L293.5 291.5L296.5 292.75L300 294.75L302.25 297L304.25 301L304.75 305L304.25 308.5L302.25 315L300.75 318.25L299.5 321L295.75 329.5L294 333.25L292.5 337.25L291.5 340.25L291.25 342.25V345.25L291.75 347.75L293.5 352.25L296 355L299.5 357L303.75 358.75L306 360.75L306.25 361.25V363.25L305 365.25L303.75 366.25L301.25 366.75L298 366.25L294 364.5L289.75 361.5L288 360L286 357.5L284.25 354L283 351L282.5 347.75V343.75L283.25 338.25L284 335.25L290 321.75L292 317L294.25 311L294.75 309V304L293.75 302L292.25 300.75L289.25 299.25L287 298.75H284.25L280.75 299.75L278 301L276 302.5L273.5 305L271 308.5L267.75 314L266.75 316L264.75 319.25L262 323.75L260 326.25L258.5 328.25L256.5 330.75L253 334.25L250.25 336.5L246.75 338.75L242 341.25L235.75 343.25L230.25 344.25H228.25L227.25 344L226.5 344.5H221.5L218.25 343.5L217 342L216.75 340L217.5 338L218.75 337L219.25 336.25L220.25 336L224.5 335.75H227.25L228.25 336L232.25 335.25L237.75 333.5L243.5 330.5L247.75 327.5L250 325.75L252.25 323L254.25 320.75L256 318L258.25 314.25L261.75 308L264.25 303.5L266.5 300.5L268.75 297.75L271 295.5L274.75 293L278.5 291.25L281.25 290.75L285.75 290.25Z" fill="#3E6981"/>
<path d="M282.25 306.75L284.5 307.25L285.75 308.25L286.5 309.5V311.25L283.75 317.25L281.5 321.5L280 324.25L277.25 328.75L273.25 334L270.5 337.75L267.25 341.5L261.75 347L259.5 348.75L257.5 350.25L254.75 352.25L251.25 354.25L247.75 355.75L243 357.5L237.25 359L233.25 359.5H226L222.75 359L221 357.75L220 356V354.25L221 352.25L222 351.5L223.5 351.25L233.25 351L237.75 350L240 349.75L244 348L246.5 347L250.5 344.75L254.75 341.75L258.25 338.75L260.25 337L263.25 333.75L266 330.25L268.5 327L271.5 322.25L273.5 319L275.75 315L278.75 310.25L280.75 307.75L282.25 306.75Z" fill="#3E6981"/>
<path d="M269.5 348.5H272.5L274.5 349.75L275.5 351.75L276.75 357.25L278 360.75L280.25 363.5L281.5 365L285.75 368L288 369.75L288.75 370.75V372.5L287.75 375L286.5 376.25H284.75L281.5 375.25L278.25 373.5L275 371L271.25 367.25L269 363.25L268.25 361.5L267 362L265.75 363L262.25 365L259.75 365.75L259.25 366.75L256.25 368.5L251.5 370.5L244.75 372.5L240.5 373.25L237.75 373.5L236 373.75L235.5 373.5L232 373.25L230.75 372.5L229.5 371.25L228.75 369.25L229 367.75L231 365.75L231.5 365.5L240.25 364.75L242.5 364L249 362.25L253 360.25L256.75 358.25L259.75 356.25L263.25 353.75L266.5 351L268.5 349.25L269.5 348.5Z" fill="#3F6A82"/>
<path d="M144.75 148.5L146.5 148.75L148.25 150.25L150 153.75L151.25 157.5L152.25 159L155 161L156.75 161.75L159.25 162.25H164L166.25 161.75L168.75 160.25L170 159L171.5 157.75L172.75 156.5L174 156L176.5 156.25L177.5 156.75L178.75 158.75V160.5L177.75 162.75L175.75 165.25L172.75 167.5L168.5 169.25L166 169.75L163.25 170H159L155 169.5L149.5 167.25L146 164.75L144 162.5L142.5 160.25L141.5 156.25L141.75 153.75L142.5 150.5L144 148.75L144.75 148.5Z" fill="white"/>
<path d="M169.5 293.75H171L172.5 295.25L172.25 297.25L171.5 298.75L171 299.25L166.25 300.25L160.25 301L157.75 301.25L146.75 303L145 303.25L140 304.25L137.5 304.5L132.75 305L129.75 305.75L124.25 306.5L119.25 307L117.5 307.25L115.25 307.5H111.5L109.5 306.5L109 305.5L109.25 303.5L110.75 302.75L115.25 302L118.25 301.25L128 300L133.75 299L140.5 298L146.25 297L153.75 296L158 295.25L168 294L169.5 293.75Z" fill="white"/>
<path d="M345.75 133.75H349.25L349.75 134H351.25L352.75 133.75L353.25 134H355L356.75 133.75L358.75 134.75L359 135.5L359.25 139.25V148.25L359 150.75L358 152L355 153H345.25L342.75 152.25L341.5 151.25L341 150.25L340.75 146.25V141.5L341 137.75L341.75 135.25L342.75 134.5L345.75 133.75Z" fill="#3E6981"/>
<path d="M345.25 87.5H357.5L359.75 88L360.75 88.75L361 89.5V98.5L360.75 101.25L360.25 104.5L359.75 105.5L358.75 106.25L352 106.5L344.75 106.25L344 105.5L343 102.25L342.75 96L343 94.5L342.75 93.75V90.25L343.75 88.25L345.25 87.5Z" fill="white"/>
<path d="M320.25 108.5L324.25 108.75H326.75L331.25 109.25L331.75 109.75L332 111.75V124.5L330.5 125.5L329.5 126.5H320L317.5 126L316.5 125.5L316 124.25V121.5L315 120.25L314.75 119.5V111.5L316.25 109.5L316.75 109L319.75 108.75L320.25 108.5Z" fill="white"/>
<path d="M293.25 173H303.75L304.75 174L305.25 177.5L305 180L305.25 182.5L305 188.75L304.75 189.5L302.75 190.25H301L300.25 190L297 190.25H290.25L289 189.25L288.25 188L288 186.5L288.25 184.25V175.25L289.25 173.5L289.75 173.25L293.25 173Z" fill="#3F6A82"/>
<path d="M322.75 151.25H328.25L329.75 151.75L331.5 153L331.75 153.75V163.75L331.5 166.5L330.5 167.5L329.25 168.25H317L315.25 167.75L314.75 167.25L314.5 159.5L314.25 157.5L314.75 153.5L315.5 152.25L317 151.75L322.75 151.25Z" fill="#3F6A82"/>
<path d="M269.5 193H279.75L282.75 193.5L283.25 194L283.5 195.25V205.75L283.25 208L282.25 209.5L279.75 210H270.75L268.25 209.5L267.25 207.75V194.75L267.75 193.5L269.5 193Z" fill="#3F6A82"/>
<path d="M370 61.5L378.5 61.75L380 62.5L380.75 63.5L381 67.75V71.5L380.75 73.5V76.25L379.5 77.75L378.75 78L367.75 78.25L365.75 77.5L364.5 76.25L364.25 74.5V63.25L364.75 62.25L365.75 61.75L370 61.5Z" fill="white"/>
<path d="M141.5 235.25H144L147.5 236.25L149.5 237.5L151 238.75L152.5 241.25L153.25 244V246L152.25 250.25L150.25 252.75L148 254.75L145.75 255.75L144.5 256H140.25L137.5 255.25L136 254.25L134.25 252.5L133 250.25L132.5 249L132.25 246.25L132.75 242.5L133.5 240.5L135.25 238.25L137 236.75L140 235.5L141.5 235.25ZM141.5 240L139.5 241L137.75 243L137 244.75V246.5L138 249L139.75 250.5L141.25 251H143.5L145.5 250.25L147 249.25L148.25 247.5L148.5 246.75V243.75L147.5 242.25L145.5 240.5L144 240H141.5Z" fill="white"/>
<path d="M142.75 83.5L145 83.75L146.5 84.75L147.75 86L149.25 88.5L150 91.5V95.75L149 98.75L147.5 100.75L146.5 101.5H141.75L140.5 100.75L139 98.25L137.75 93.5L137.5 90L138 87.5L139.25 85.25L140.75 84L142.75 83.5Z" fill="white"/>
<path d="M205.25 273.5L216.25 273.75L217.75 275.75L218.25 281V283.25L217.25 285.25L216.25 286.5L215.5 286.75H209.5L207 286.5L205.25 285L205 283.25V273.75L205.25 273.5Z" fill="#3F6A82"/>
<path d="M177.5 77.75H180.25L181.5 78.5L183 80.25L184.25 83.5L184.75 85.75V89.5L183.75 92.25L182.25 94L181 94.5H178.5L177 93.5L176 92L174.75 87.75L174.25 85.5V81.75L175.75 78.75L176.75 78L177.5 77.75Z" fill="white"/>
<path d="M191.75 254.25H200.25L201.25 255.75V265L200 266.25L197.5 266.5H193L191 266L189.75 264V256.5L190.75 255L191.75 254.25Z" fill="#3F6A82"/>
<path d="M205.5 236.5L206.75 236.75L208.5 238.25L209.5 240.25V242.75L208.75 245L207.5 248.25L207.25 248.5L204 248.25L201.75 247.5L200.25 244V242.25L200.75 241.25L201.75 240.25L202.5 238.5L204.25 237L205.5 236.5Z" fill="white"/>
<path d="M123.75 228.5L126.25 229.75L128.25 231.25L130.75 233.75L131.25 235V236.5L130 238L128 237.75L126.5 236.75L124.75 235L123.25 233.75L122.25 232.25L122.5 230.25L123.25 228.75L123.75 228.5Z" fill="white"/>
<path d="M159 228.5L161.25 228.75L162 229.75V231.75L160.5 234L157.5 236.25L155.75 236.75H154.25L153.25 235.75L153 234.75L153.75 233L157 230L159 228.5Z" fill="white"/>
<path d="M141.5 221H144L145.25 222.5L145.5 223.5V229.75L144.5 230.5H142.5L141.25 229L140.75 226.75V222.25L141.5 221Z" fill="white"/>
<path d="M159 249.5L162.5 250.25L164.5 251.75L165.75 253V254.25L164 255.75H161.25L158.75 254.5L157.25 252.75L158 250.5L159 249.5Z" fill="white"/>
<path d="M214.75 252H217.75L218.5 252.75L219.25 254.5V256.25L218.75 257.75L217.5 259H215.5L214 257.75L213.25 256.5V253.5L214 252.25L214.75 252Z" fill="white"/>
<path d="M51.25 420.5L51.5 421H52V421.5L52.75 421H54L54.25 422.25L53 422.5L51.25 422L51 421L51.25 420.5Z" fill="#1C2C35"/>
<path d="M49.75 420.5L50.75 420.75V422L48.75 421.75L48.5 421.25H49.5L49.75 420.5Z" fill="#1C2B34"/>
<path d="M47.5 420.75L48 421.25H47.5V420.75Z" fill="#3F6A82"/>
</svg>
