<svg width="443" height="335" viewBox="0 0 443 335" fill="none" xmlns="http://www.w3.org/2000/svg">
<path d="M415.578 2.4873L410.943 8.66699L406.694 13.3018L405.536 14.46H404.764L404.378 15.6191L398.971 19.8672L393.563 23.3438L388.156 26.4336L381.977 29.5234L373.865 32.999L368.845 34.5439L362.279 36.0889L353.396 37.2471H344.126L330.995 35.3164H329.836L325.201 43.8135L321.339 48.4482L319.021 51.5381L315.546 55.4004L312.842 58.4902L308.594 61.9658L305.117 65.0557L294.304 72.7803L290.441 75.4834L286.965 78.5732L286.579 79.3457L296.621 80.5049L305.504 82.8223L312.456 84.3672L322.111 87.0703L330.608 90.5469L341.423 95.5674L346.058 98.6572L349.92 102.133L353.01 104.837L358.03 109.857L361.507 114.106L365.369 119.127L369.617 126.466L374.252 135.349L377.342 143.073L378.887 149.253L380.045 151.57V152.343L383.907 153.115L390.474 156.591L395.108 161.226L398.584 166.633L400.901 171.653L402.061 177.061L402.833 191.737L403.219 195.986L402.833 204.097V227.271L403.219 243.878L402.833 249.285L402.061 251.603L401.674 256.623L399.356 262.417L396.653 266.665L391.632 272.458L384.68 277.093L379.272 280.183L375.797 282.5L374.252 285.977L373.479 288.294L380.817 285.59L387.77 283.272L398.198 279.41L412.102 274.775L427.938 269.369L432.186 268.21H434.117L434.503 269.755L430.255 272.458L422.144 276.32L408.626 280.955L394.722 286.362L383.135 290.611L372.32 294.087L369.231 294.474L368.459 296.019L364.597 298.722L363.824 300.267L371.549 297.563L385.066 293.314L403.219 287.907L409.012 285.977L419.44 282.887L429.096 280.183L439.138 276.707L443 276.32V277.865L439.91 279.797L431.8 282.887L419.44 287.135L405.15 292.156L390.859 296.791L378.5 300.653L362.665 306.06L350.692 310.309L338.333 315.329L329.836 318.419L314.773 323.054L300.869 326.144L295.462 327.303L288.124 328.848L281.172 330.006L266.495 331.551L262.633 332.323H258.771L257.998 332.71L247.184 333.482H243.708L242.936 332.323H242.163L241.776 333.096L236.369 333.868L223.624 334.255H201.995L181.525 333.868L164.146 333.096L150.241 331.551L134.02 329.62L129.771 328.461L122.434 327.303L118.185 326.916L112.005 325.371L106.598 324.213L103.122 323.826L98.4873 322.281L94.625 321.896L88.832 324.213L83.8105 325.758H79.9482L79.1758 324.985V322.281L85.3555 319.964L86.5146 319.578V318.806L83.4248 318.419L79.5625 317.646L75.7002 316.102H73.3828L68.3613 318.033L59.0928 320.351L56.3887 321.123H54.8438L54.458 320.351V318.033L55.6162 316.874L58.7061 315.716L64.8857 313.784L66.0439 313.012L62.1826 311.467L59.4785 309.922H56.3887L50.5957 311.854L42.0986 313.784H40.167L39.3945 311.854L39.7812 310.694L43.2568 309.149L50.9814 306.06L51.3682 305.288L49.4365 304.516L47.5059 303.356H44.416L40.167 305.288L26.2637 308.764L22.4014 309.149L20.8564 307.991L21.2422 306.446L26.6494 303.743L37.4639 300.653L41.3262 299.881L37.4639 294.859L33.6016 289.452L31.2842 284.817L29.7393 280.183L22.0146 272.458L18.5391 267.052L16.2217 261.258L14.29 253.147L13.9043 244.65V234.995L9.65527 231.905L5.02051 227.656L1.93066 223.408L0.385742 219.546L0 209.504V192.124L0.385742 170.881L2.31738 167.02L5.40723 163.157L10.4277 159.295L16.6074 156.591L18.9248 155.818L20.4697 150.025L22.4014 141.914L25.877 133.418L28.9668 128.396L35.1465 119.127L39.3945 113.72L44.0293 108.699L45.9609 106.382H46.7334L47.5059 104.837L51.7539 101.36L57.1611 97.499L64.8857 92.8643L72.6104 89.3877L81.8799 86.2979L93.4668 83.208L102.735 80.8906L109.688 79.7324L113.937 79.3457L116.254 78.5732L120.502 78.1875L121.274 77.8008L133.248 76.6426V75.4834L129.386 66.9863L125.137 60.4209L121.661 56.1729L116.254 51.5381L110.46 47.6758L102.35 43.4268L93.4668 39.1787L76.4727 30.6816L71.4512 27.5918L64.8857 21.4121L64.208 20.5264C78.6694 25.4205 93.5765 29.6347 108.867 33.1182L114.322 35.7021L120.889 40.3369L124.751 43.4268L129.386 47.6758L131.316 49.6064L134.406 53.4688L139.427 61.5801L144.062 70.4629L145.606 75.0977L147.538 75.4834L149.083 75.0977L162.601 74.3252L163.373 73.9385L161.828 66.9863L159.897 58.4902L157.58 51.5381L154.353 41.1416C158.441 41.6588 162.551 42.1248 166.682 42.5391L169.166 49.9932L171.483 58.1035L173.801 66.9863L175.732 73.166L176.118 73.5527H196.589L198.134 69.6904L201.609 59.6484L204.699 51.9238L208.385 44.9199C210.756 44.9541 213.132 44.9717 215.514 44.9717C217.51 44.9717 219.504 44.9576 221.493 44.9336L220.148 47.2891L215.127 57.3311L211.265 68.918L210.492 72.3936V73.9385L222.079 74.3252L223.624 75.0977V78.96L222.852 82.4355L222.466 82.8223L213.969 82.4355H209.334L208.562 82.8223L207.017 92.0918V94.4092L207.402 94.7949L211.651 95.1816V99.8164L211.265 101.36L209.334 102.133L207.402 103.292L206.244 105.223V105.995L208.175 105.609L210.879 104.064H212.424L212.037 105.609L210.879 108.312L207.402 112.175L207.017 112.947V117.196L207.402 119.514V124.921H214.741L215.899 123.762L216.286 122.989L217.444 115.265L216.672 113.334L217.059 111.017L219.762 100.975L222.852 91.7051L225.169 85.5254L228.259 80.1182L231.349 73.9385L233.666 70.0762L238.301 63.125L243.321 57.3311L248.343 51.9238L251.046 48.834L254.136 45.7441L256.292 43.2793C261.917 42.8099 267.507 42.2443 273.059 41.585L271.13 44.5859L269.585 46.5166L268.812 46.9033L268.04 48.834L260.315 56.5586L257.612 59.6484L253.363 63.8975L250.66 66.9863L247.184 71.6211L242.163 78.5732L239.846 82.4355L237.914 86.2979L235.211 93.25L231.735 105.609L230.576 108.312V109.472L232.121 109.085L235.983 105.609L237.914 103.678L240.231 104.064L239.073 105.995L234.825 109.857L230.576 112.562L229.804 114.879L229.418 121.444L230.576 121.059L233.28 117.969L244.866 106.382L245.253 105.609H247.57V109.472L245.253 110.244L243.321 112.562L238.301 117.582L235.983 120.286L231.735 123.762L230.963 124.921H234.438L237.528 122.604L243.321 117.582L246.411 115.651L247.57 113.72L249.888 107.154L251.046 105.223V104.064L247.184 103.292L237.142 101.747L237.914 97.8848L239.073 95.9541L255.295 95.5674L257.612 92.0918L261.088 87.457V86.6846L257.226 85.9121L249.501 85.1396L247.184 84.3672L246.798 83.208L248.729 78.1875L249.501 75.8701L255.295 76.6426L264.95 77.415H268.812L269.585 75.8701L270.743 75.4834L272.675 73.5527L278.854 68.5312L284.262 64.2832L288.896 60.8076L293.145 57.3311L298.166 53.083L302.414 49.6064L308.594 43.8135L312.069 39.9512L315.921 34.4932C327.782 31.9623 339.421 28.9927 350.809 25.6094L352.237 25.6611L356.872 24.8887L366.142 22.5713L375.024 18.709L380.045 16.0049L380.552 15.624C393.065 10.9224 405.215 5.70332 416.959 0L415.578 2.4873ZM441.455 290.611L441.069 292.156L438.365 293.314L422.144 297.563L401.288 303.742L386.225 308.377L370.39 313.012L353.782 318.033L345.671 320.351L332.54 324.599L329.45 324.985L327.519 326.144L317.091 329.233L311.297 330.778H308.979L308.207 329.62V327.688L311.297 325.758L322.884 321.896L334.085 318.806L345.285 315.329L361.12 310.694L375.024 306.06L384.294 303.356L394.722 300.652L406.309 297.177L416.351 294.474L435.662 289.839H439.524L441.455 290.611ZM377.342 319.191L376.955 320.736L364.982 324.599L358.417 326.53H356.872L356.1 324.985V322.668L359.189 321.509L366.914 319.191L372.321 318.033H376.569L377.342 319.191ZM328.678 324.599L329.063 323.44L328.291 323.054L328.678 324.599ZM72.6104 257.782L70.6787 259.713L69.9062 261.258L70.293 263.575L69.9062 266.665H71.0654L73.3828 264.734L75.7002 265.12L78.79 266.665L80.7207 268.597L83.0381 271.686L84.1973 274.775L84.583 278.252V285.204L83.8105 289.066L81.1074 292.542L78.0176 294.087L74.1553 295.246H67.2031L61.7959 294.087L58.3203 292.156L54.458 289.452L53.6855 288.68L47.1191 287.907L48.2783 289.839L52.5264 293.314L59.8652 297.563L67.2031 300.653L74.9277 303.743L79.5625 305.288L84.583 306.832L90.377 308.377L104.667 311.854L114.709 313.784L122.434 315.329L141.744 318.033L160.67 319.964L171.098 321.123L185.388 321.896L214.354 322.281H224.396L235.598 321.896L239.846 321.509L248.729 321.123L271.516 318.419L278.082 317.646L283.489 316.488L292.759 315.329L300.869 313.398L307.435 312.239L321.339 308.377L329.063 305.288L335.63 302.198L343.354 297.177L346.443 294.859L347.603 293.701L344.126 292.156L340.264 289.839L338.719 290.225L331.768 297.949L327.519 301.426L325.201 302.971H322.498L323.656 301.039L330.223 294.474L334.085 289.452L335.63 286.749L334.857 282.114L332.926 283.272L328.291 288.294L325.588 291.384L313.614 303.356L312.069 305.288L308.594 307.604L307.435 307.733V306.446L306.835 305.846L311.684 299.881L317.091 294.087L321.339 289.452L332.926 277.865L335.63 272.458L336.402 268.982L339.878 263.962L342.581 261.645H346.058L344.898 258.168L343.354 257.782L338.719 262.803L333.698 268.597L330.608 272.458L328.678 274.775L326.36 276.707L323.656 279.797L305.504 297.949L302.801 301.039L299.324 304.901L295.462 308.377L291.6 310.694L288.896 310.309L289.669 308.764L295.076 303.743L297.779 300.653L302.414 296.019L305.117 292.929L317.863 280.183L320.566 277.093L326.746 270.527L329.836 266.665L336.788 258.168L337.947 257.01V256.623L334.857 257.01L328.678 258.555L325.974 260.1L326.746 262.417L320.566 268.597L317.091 273.23L313.614 277.093L305.504 285.204V285.977H304.731L297.394 293.314L294.304 296.019L283.489 306.832L280.399 309.536L276.923 312.239L274.605 313.012H271.902L273.061 310.694L276.923 307.604L280.785 304.129L285.034 299.494L292.372 292.156L295.462 289.452L301.642 283.272L303.187 281.342L306.276 278.638L313.229 271.686L316.704 267.438L322.111 262.03L322.884 260.485L315.932 260.872L312.456 261.645L310.911 264.734L307.049 269.755L298.938 277.865L298.166 278.252V279.024L296.621 279.797L293.145 283.272L290.055 285.977L281.172 294.859L278.082 297.563L271.13 304.516L268.04 307.219L265.723 309.149V309.922L264.178 310.694L260.702 313.784L258.385 314.943L256.84 314.557L257.226 312.239L261.088 308.377L265.337 304.901V304.129L266.882 303.356L271.516 298.722L274.22 295.632L280.399 289.839L283.489 287.135L286.192 284.432L286.965 284.045V283.272L288.51 282.5L295.462 275.548L298.552 272.845L304.731 266.665L306.276 264.734L308.207 263.575L308.594 262.803L305.504 263.189L294.304 264.734L288.124 265.893L279.627 266.665L276.923 267.438L275.378 269.755L270.743 274.003L265.337 277.865L263.792 279.024L264.564 275.548L266.882 272.458L271.13 268.597V267.824L261.475 268.982L236.369 270.142L222.852 270.527L221.307 270.914L212.81 271.3L197.747 270.914L191.567 270.527L162.987 269.369L150.628 268.21L137.496 266.665L132.089 266.279L126.682 265.12L116.64 263.575L109.302 262.417L98.4873 260.485L86.1279 257.782L79.9482 257.01L75.3135 255.465H74.541L72.6104 257.782ZM412.488 307.991L415.578 309.149V310.694L412.488 311.854L398.971 315.329L393.177 316.874H390.859L389.701 315.329L389.314 313.784L390.087 313.012L400.129 309.922L409.012 307.604L412.488 307.991ZM292.759 268.982L290.055 272.072L279.24 282.887L274.992 286.362L270.744 290.225L266.495 293.701L261.86 297.949L257.998 301.039L252.978 305.674L248.729 309.149L243.708 313.784L241.004 315.329L236.756 314.943V313.784L239.073 312.239L242.936 308.764L248.729 302.97L251.818 300.267L256.84 296.019L263.405 290.997L268.427 286.362L272.675 282.887L280.399 275.935L283.103 273.23L286.192 270.527L289.282 268.21L290.441 267.824H292.372L292.759 268.982ZM248.729 289.839L244.867 294.087L241.777 296.791L236.37 301.426L229.804 306.446L224.783 309.922L222.852 310.694L221.307 310.309L220.921 309.149L221.693 307.604L225.941 304.515L228.646 301.812L232.894 298.336L238.688 293.314L243.708 289.452L247.957 286.749H249.115L248.729 289.839ZM305.117 307.991L307.435 307.733V308.377H305.118L304.731 307.604L305.117 307.219V307.991ZM305.117 307.219V306.832L305.892 306.444L305.117 307.219ZM306.835 305.846L306.662 306.06L305.892 306.444L306.663 305.674L306.835 305.846ZM226.328 289.452L226.714 291.384L224.011 294.474L214.354 302.197L211.651 303.742H210.106L210.492 302.197L212.81 298.722L216.286 295.246L222.466 290.611L224.783 289.066L226.328 289.452ZM30.8984 295.632V296.404L24.7188 298.722L16.2217 300.652H13.5176L12.7451 299.494V297.949L22.0146 295.246L27.0361 294.087H29.7393L30.8984 295.632ZM63.3408 175.516L59.4785 177.061L54.8438 181.31L52.1406 185.558L49.4365 192.51L48.2783 201.007V229.201L48.6641 262.417L52.5264 274.003L55.2305 278.252L59.4785 282.5L63.7275 285.204L71.4512 287.521L73.7686 287.135L75.7002 284.817V274.39L75.3135 273.617L73.7686 274.003L72.6104 276.707L71.4512 277.479L68.748 277.093L65.2725 274.775L62.5684 270.914L61.0234 267.824L59.8652 263.962L59.4785 260.1L59.8652 202.552L61.0234 195.214L62.5684 191.737L64.8857 189.034L69.1338 186.33L71.4512 185.558H72.2236L72.6104 189.034L74.541 189.42L75.7002 186.717V178.605L74.541 176.288L72.2236 175.13L67.9756 174.743L63.3408 175.516ZM348.375 173.585L346.058 175.13L344.898 177.061L345.671 182.468L346.83 186.717L347.988 187.103L349.92 184.785L350.692 183.24H353.782L356.872 184.785L358.803 187.103L360.348 190.965L360.734 192.896V212.594L361.12 227.271V250.83L360.348 256.623L358.03 263.962L355.327 268.982L351.078 273.617L348.761 276.32H347.988L347.603 269.755H346.443L345.285 273.23L344.898 278.252L346.058 282.114L346.443 282.5H353.396L356.485 280.183L358.417 278.252L361.893 274.39L365.369 269.369L369.231 262.417L371.549 255.851L371.935 242.333V192.51L370.776 185.944L368.072 179.765L364.597 175.902L361.507 173.971L357.258 172.812H351.851L348.375 173.585ZM38.6221 166.633L34.7598 168.95L30.8984 172.426L27.8086 175.902L24.7188 181.31L23.9463 184.785L23.1738 188.647L22.7871 200.234L23.1738 248.898L24.7188 256.623L27.8086 263.575L30.126 267.052L33.6016 270.914L37.4639 274.39L40.9395 276.32L45.1885 277.479L47.1191 278.252L46.7334 276.707L41.7119 268.21L39.0088 264.734L37.0771 262.03L33.9873 255.851L32.8291 250.443L32.4424 243.878L32.8291 194.827L34.7598 186.717L37.8496 181.695L42.4844 177.061L47.1191 173.585L49.8232 171.653L49.4365 169.336L47.1191 166.247L44.416 164.702H43.6436L38.6221 166.633ZM28.9668 275.162L30.5117 274.775V274.003H28.9668V275.162ZM423.688 264.348L419.054 266.665L413.261 268.982L403.605 272.458L401.288 273.23H399.356L398.584 272.458L398.198 270.527L398.971 268.982L402.061 267.823L420.985 262.803H423.303L423.688 264.348ZM399.356 272.072L399.743 272.458H401.674L402.061 271.3L401.674 270.527H398.971L399.356 272.072ZM373.865 163.543L371.549 164.702L369.617 167.405L370.39 169.336L371.549 170.881L375.024 171.653L379.272 173.971H380.045L380.817 175.902L382.749 178.992L383.521 182.468V226.498L383.135 246.968L382.362 253.92L380.432 262.417L377.728 268.597V269.755L379.659 269.369L381.59 267.438L384.68 263.962L388.542 258.555L390.474 254.692L392.404 249.671L393.177 242.719L393.563 209.504V182.082L393.177 177.061L392.019 173.198L390.087 169.336L386.611 165.475L383.521 163.93L381.204 163.157L377.728 162.771L373.865 163.543ZM297.779 260.872V260.1H297.007L297.779 260.872ZM342.195 201.394L334.085 203.324L327.133 204.869L314.001 207.572L302.414 209.117L289.669 210.276L276.923 211.821L257.612 213.366L251.433 214.139L242.549 214.911L216.286 215.684H191.182L164.918 214.911L147.924 213.752L137.496 212.594L122.819 211.049L104.28 208.731L88.832 206.027L82.2656 204.869L74.9277 203.324L69.5205 202.552L69.1338 212.207L70.6787 211.821L72.9961 210.276L76.0859 209.89L75.7002 211.821L71.0654 219.159L69.5205 222.636L69.1338 225.726L69.5205 226.884L71.0654 226.111L73.7686 223.021L75.7002 222.249H77.2451L76.8584 224.953L74.1553 228.815L70.293 233.063L69.5205 234.608V243.105L71.0654 242.333L74.9277 236.153L76.8584 234.223L79.1758 234.608L79.9482 234.995V236.926L76.0859 242.719V243.878L82.6523 245.809L93.0801 247.74L101.19 249.285L120.889 252.375L138.269 254.692L165.305 257.01L176.505 257.782L190.022 258.168L214.741 258.555L232.894 258.168L241.391 257.782L244.48 255.078L247.184 251.988L251.433 246.581L254.522 242.719L256.453 240.788L261.86 238.471L267.654 237.312L274.605 236.54L280.399 235.381L283.489 233.063L287.737 227.271L291.214 223.021L295.462 218.001L297.779 215.297L300.483 214.911L301.256 215.297V217.229L297.394 220.704L296.234 221.863V222.636H295.462L291.214 228.815L286.965 234.223L283.875 237.312L278.082 238.856L263.405 241.561L259.157 242.719L257.226 244.65L252.205 250.83L248.729 255.851L247.57 257.782L256.453 257.396L272.675 255.851L286.965 254.692L293.145 253.147L301.642 251.988L304.731 251.216L308.979 250.058L318.249 248.513L323.271 246.968L329.063 245.809L335.63 243.878L339.105 243.491V242.719L338.333 242.333L338.719 240.016L341.809 235.768L347.216 228.429L349.533 224.566L350.306 223.408V221.477L348.375 222.636L344.513 226.884L341.423 230.746L337.947 235.381L334.471 239.629L332.153 241.946L329.45 242.719H327.133L329.836 239.629L333.312 234.223L336.402 229.974L340.65 224.181L344.513 219.159L349.147 212.979L350.692 211.049V207.959L349.92 207.187V207.959L348.375 208.731V209.504H347.603L344.898 212.594L335.63 223.408L330.608 229.974L326.36 235.381L322.884 239.243L319.794 242.333L319.021 243.878L317.091 245.036L315.159 243.878L315.546 241.946L319.408 238.471L323.271 233.836L327.905 227.271L331.768 222.249L337.175 214.911L342.195 208.731L346.443 203.324L347.988 201.394L350.692 200.234V199.462H348.761L342.195 201.394ZM320.181 214.524L317.477 217.614L314.001 221.477L311.297 224.181L307.049 229.588L302.801 234.222L299.324 238.471L295.462 242.719L292.759 245.809L289.669 249.285L285.42 249.671L284.647 249.285L285.42 247.74L288.896 243.878L292.372 239.243L295.849 235.381L298.552 232.678L303.573 226.111L307.821 221.863L310.139 219.159L313.229 216.456L316.318 213.366L317.863 212.594H320.566L320.181 214.524ZM338.333 207.959L336.402 209.89L331.768 215.297L326.746 221.863L321.726 227.656L317.863 231.905L313.614 237.312L309.366 242.333L306.663 245.809L303.573 248.898L301.642 249.671L299.711 249.285L298.938 248.513L299.324 246.968L302.028 244.264L305.504 240.016L310.139 234.608L313.614 230.36L317.091 226.498L320.566 222.249L325.974 215.297L329.45 211.435L333.698 207.187H337.175L338.333 207.959ZM342.968 241.561H344.513L344.898 240.016H343.74L342.968 241.561ZM347.603 235.381L346.058 237.698V239.243H348.375L350.692 237.312V234.608L349.533 234.223L347.603 235.381ZM7.33789 224.181V223.021H6.95215L7.33789 224.181ZM9.65527 187.103V214.139L11.9727 221.091L13.1318 222.249H14.29L14.6768 219.546V202.938L15.4492 200.234L15.0625 196.759L15.4492 192.896V189.034L15.835 185.944L11.2002 184.013H10.042L9.65527 187.103ZM44.8018 124.921L45.9609 127.624L49.0508 131.101L53.2988 134.576L59.0928 138.052L64.5 141.142L69.5205 143.459L81.1074 147.321L90.7627 150.025L98.1016 151.956L110.847 154.273L113.55 155.046L113.937 155.433V158.136L110.074 159.295L109.302 159.681L103.895 158.522L94.2393 156.591L83.0381 153.888L75.3135 151.57L69.1338 149.253L65.2725 148.094L61.4102 146.163L57.9336 145.004L56.7754 143.846L53.2988 141.914L48.2783 137.666L42.0986 132.646L40.5537 131.873L38.2363 135.734L33.9873 145.004L32.4424 152.343L32.0566 157.363L32.8291 159.295L36.3047 158.136L42.4844 156.591L47.1191 157.75L53.2988 160.84L57.1611 164.702L59.4785 168.178L67.2031 167.405H71.0654L74.9277 168.178L78.0176 169.723L81.1074 172.812L83.0381 177.061L83.8105 179.378V186.717L82.2656 191.737L79.9482 196.372V197.145L99.2598 200.621L121.274 203.71L144.834 206.414L186.547 209.117L196.975 209.504H211.651L231.735 208.731L240.231 208.345L259.543 206.8L271.13 205.642L286.579 203.71L294.689 202.552L298.166 201.779L300.097 199.462V198.689L302.414 197.917L307.821 192.124L310.524 189.034L312.456 187.489L323.656 176.288L326.746 173.585L332.153 168.178L334.857 165.088L339.491 159.681L343.354 155.433L347.603 150.025L349.92 146.936L351.465 145.391H353.396L354.168 146.163V148.48L350.692 154.273L346.443 159.681L344.513 161.612V162.385H343.74L340.65 166.247L328.678 178.22L326.36 180.15L324.429 182.468L318.249 188.647L315.159 191.352L309.366 196.759L305.89 199.849V200.234L309.366 199.849L314.001 198.689L317.091 198.304L317.477 196.759V194.827L320.566 191.737L323.271 188.647L334.471 177.447L337.561 173.198L340.264 169.723L343.354 167.405L347.603 165.088L349.92 162.385L353.396 156.978L356.1 151.956L357.645 150.411H359.575L360.734 151.956V154.66L356.872 160.453L356.485 161.612H363.824L365.755 159.681L368.072 157.75L368.459 155.433L366.142 147.708L363.438 141.528L360.348 135.349L358.803 133.031L357.258 133.804L352.623 138.438L349.147 141.142L346.83 143.073L346.058 144.231V145.391L344.513 146.163L341.423 149.639L340.628 150.301L340.265 148.48L339.491 148.866L337.947 149.253L335.243 151.57L333.312 153.115L330.223 156.978L326.746 160.453L324.043 163.543L319.021 168.564L313.229 173.971L307.821 179.765L304.731 182.468L298.166 189.034L295.462 192.124L290.827 196.759V198.689L291.6 199.076L295.076 196.759L299.324 193.282L310.524 182.082L316.704 176.288L319.794 173.585L325.974 167.405L326.747 167.019L319.795 173.971L316.705 176.675L310.525 182.468L299.324 193.669L295.076 197.145L291.6 199.462L290.441 198.689V196.759L295.076 192.124L297.779 189.034L304.731 182.082L307.821 179.378L312.456 174.357L319.022 168.178L323.657 163.543L326.36 160.453L329.836 156.978L332.926 153.115L335.243 151.184L337.947 148.866L339.492 148.48H340.264V147.321L337.947 147.708L313.229 155.433L305.117 157.363L289.282 160.067L261.475 163.543L237.528 165.475L216.286 166.633H190.022L175.732 166.247L159.511 165.088L137.109 163.157L126.296 160.84L124.751 160.453V156.205L136.337 158.136L144.834 158.908L178.436 160.84L187.319 161.226H220.148L247.184 159.295L261.86 157.75L285.807 154.66L301.256 151.956L315.159 148.48L324.043 146.163L333.312 142.301L339.491 139.211L345.671 135.734L352.237 131.101L355.327 127.624L353.782 123.762L352.237 121.831L350.306 121.444L346.83 125.307L342.581 128.783L337.175 132.259L330.995 135.349L324.429 137.666L317.863 139.597L304.731 142.687L289.282 145.391L264.95 148.48L246.798 150.025L234.053 151.184L226.328 151.57H173.801L159.125 150.798L142.903 149.253L128.613 148.094L112.005 145.776L107.757 145.391L93.8525 142.301L82.2656 139.211L72.9961 135.734L65.2725 132.259L60.251 129.169L56.7754 126.466L53.6855 123.376L51.7539 120.672L50.5957 118.741H49.4365L44.8018 124.921ZM332.153 186.717L327.519 191.352L322.498 195.214L321.339 196.372V197.145L327.905 195.6L332.54 193.669L334.857 190.965L335.63 189.034V184.399H334.857L332.153 186.717ZM321.726 158.522L304.731 175.516L300.483 178.992L297.779 181.695L290.441 187.103L286.965 189.807H285.807L286.192 187.489L287.737 185.172L298.552 174.357H299.324V173.585L302.414 170.881L306.276 167.019L308.979 163.93L312.069 160.84L316.318 158.136L318.636 157.75H320.953L321.726 158.522ZM17.3799 165.86L15.4492 168.178L14.29 171.653V174.357L16.2217 177.061H17.3799L20.084 172.04L22.7871 169.336L24.7188 167.02V166.247L20.4697 164.702H20.084L17.3799 165.86ZM297.394 165.86L297.007 167.405L294.689 170.108L290.827 172.426L290.055 172.812H287.737L288.124 171.268L290.055 169.336L293.145 167.019L295.849 165.474L297.394 165.86ZM327.519 166.633L326.747 167.019L327.519 166.247V166.633ZM340.65 150.411L338.72 152.729L337.561 155.046V157.363L336.402 158.522L333.698 159.295L332.926 160.84L327.519 166.247V165.86L330.995 162.385L333.698 159.295L335.243 158.522L337.175 157.363V155.046L339.105 151.57L340.628 150.301L340.65 150.411ZM343.74 151.184L340.65 154.66L338.72 155.433L339.492 153.501L340.65 151.956H341.423L342.195 150.411L343.74 149.253H344.513L343.74 151.184ZM347.603 145.776L345.671 148.094L344.513 149.253L345.285 146.936L346.058 145.391L347.603 145.776ZM119.344 87.457L105.825 89.3877L91.5352 92.4775L82.2656 95.1816L73.3828 98.2715L66.0439 102.133L63.3408 104.45L61.0234 107.54L60.251 109.857V114.879L61.7959 118.354L65.2725 122.217L71.0654 126.079L77.2451 128.783L92.3076 134.19L99.6465 135.734L106.212 137.279L115.481 138.824L121.274 139.983L137.496 141.528L150.241 143.073L163.373 143.846L178.05 144.231H222.466L243.321 143.459L254.908 142.301L260.315 141.528L273.061 140.369L283.875 138.824L295.076 136.894L304.731 134.576L318.636 130.714L322.498 129.169L327.519 127.624L334.085 124.148L338.719 120.672L341.423 117.582L341.809 116.81V111.402L339.491 106.768L336.016 103.678L329.836 100.588L324.043 98.2715L314.773 95.5674L306.276 93.25L301.256 92.0918L290.441 90.1602L280.399 88.6152H275.378L271.902 93.6367L269.585 96.7266V97.499L284.647 99.0439L302.028 102.52L310.911 105.609L315.159 108.699L317.091 111.017L317.477 111.789L317.091 115.265L315.546 117.582L313.229 119.127L308.207 121.444L297.779 124.921L287.737 127.238L274.22 129.169L267.268 130.328L244.48 132.259L235.983 132.646L226.714 133.418H181.14L158.353 132.259L137.109 130.328L132.089 129.169L115.481 127.238L110.46 125.693L101.963 123.762L92.6943 120.672L87.2871 117.582L84.9697 114.879L83.8105 112.175V109.857L84.583 108.312L89.2178 105.223L98.4873 102.133L105.825 100.202L109.688 99.0439L122.819 97.499L139.427 95.5674L139.813 94.0225L137.882 87.8428L136.724 85.5254H134.406L119.344 87.457ZM188.092 121.059L185.002 122.604L185.774 124.148L188.092 124.534L192.34 122.604L193.499 121.444L194.657 119.127V117.196H194.271L188.092 121.059ZM163.373 116.81L157.966 120.672L157.58 122.604L157.966 122.989L161.056 122.604L166.463 119.514L169.938 116.81L170.325 116.037V112.947H169.166L163.373 116.81ZM276.15 107.54L274.992 108.312V109.085L273.061 109.857L268.04 114.106L262.633 118.354L260.702 120.672L260.315 122.217L262.633 121.831L268.04 117.196L270.743 114.492L275.378 111.017L280.399 106.768V105.609H279.627L276.15 107.54ZM140.972 120.672L141.358 121.831L142.903 121.444V120.286H141.744L140.972 120.672ZM136.337 114.879L129.386 118.741L127.068 119.899L127.841 120.672L130.544 120.286L137.496 116.424L142.131 113.334L142.903 111.789L142.131 111.402L136.337 114.879ZM287.352 108.699H285.034L284.262 109.857L284.647 111.402L283.489 112.562L281.558 113.72L276.537 117.969L274.992 119.514L275.378 120.286L279.24 118.741L283.489 114.879L286.965 112.562L290.827 108.699L290.055 107.54H288.124L287.352 108.699ZM134.02 106.768L117.799 117.196L115.095 118.354V119.127L118.185 119.514L122.047 117.582L126.682 114.492L132.089 110.244L135.564 107.927L138.654 105.609L138.269 104.837H137.109L134.02 106.768ZM188.478 109.085L184.229 112.562L183.843 112.947V115.651L184.229 117.582L186.16 116.81L192.727 112.175L193.885 111.017V106.768L192.727 106.382L188.478 109.085ZM118.185 109.472L113.164 112.947L111.619 113.72V114.492L113.937 114.106L117.799 111.017L122.434 108.312L124.364 107.54L123.592 106.768L118.185 109.472ZM163.76 107.154L157.193 111.402L156.421 112.562V114.492L158.353 114.106L162.987 110.244L167.235 107.54L169.166 106.382V104.45L168.008 104.064L163.76 107.154ZM260.702 112.175H261.475L261.088 111.402L260.702 112.175ZM103.895 111.402L105.053 111.789V110.244H104.28L103.895 111.402ZM263.02 107.927L261.475 111.402L263.02 110.63L266.882 107.54L269.199 105.995V104.837L265.337 104.45L263.02 107.927ZM181.912 102.52V106.768L182.298 108.312L184.615 107.54L190.022 103.292L190.409 102.133H189.25L181.912 102.52ZM159.125 103.292L154.49 103.678L154.104 104.45L155.263 106.768L156.808 106.382L161.056 103.678L161.442 102.905H160.283L159.125 103.292ZM157.193 83.5947L151.4 84.3672L150.628 84.7529L151.014 89.002L152.173 94.4092L152.559 94.7949H166.463L167.235 94.0225L166.077 83.5947L165.69 83.208H163.373L157.193 83.5947ZM178.05 85.9121L179.595 93.6367H193.499L193.885 92.8643L195.044 82.4355H178.05V85.9121Z" fill="#FDFDFD"/>
</svg>
