<svg width="93" height="234" viewBox="0 0 93 234" fill="none" xmlns="http://www.w3.org/2000/svg">
<path d="M64.25 0H66.25L68 0.5L71.25 0.25L74.5 0.75L77.25 1.25L81.25 1.75L87 3L91.75 4.5L97.75 7.25L101.75 9.75L105 12.25L107.75 14.75L109.5 16.75L111.75 19.5L113.5 22.25L115.5 27.25L116.75 31.5L117.5 38V43.75L117 48.25L114.5 58L113 63.25L110 70.75L108.75 73.75L107 77.75L105.25 81.5L102.75 85.75L100.25 88.75L98.5 90.75L94 93.25L91.25 93.75H88L85 93L82.5 91.75L80.25 89.25L79.25 87.25L78.75 85.25V82.25L79.25 79.75L81.5 74.75L82.75 72.25L84.25 69L86.25 64.75L87.5 61.75L88.25 59.75L89.25 57L90 54.75L91.5 49.75L92 46.5V41.25L91.25 38.5L89.5 35L87.5 32.5L85.75 31L80.75 28L79 27.25L75 26.25L70.75 25.5L65.25 25L60.25 25.25L55.75 26.5L51 28.5L46 31.5L44.5 33H44L43.5 34L41.75 35.5L37.25 42.25L34.5 48L32.5 51.5L31 54.25L29.75 56.25L27.75 58.75L24.25 62.5L22.5 64.25L20.25 66L16.75 68.25L12.75 70.25L9 71.5L7.75 71.75H2.5L0.75 70.75L0.25 70L0 68.75V67L1 65L2 64.25L5.5 63L10.75 61.75L15 59.5L17.25 58H17.75L18.25 57L20 55.5L22.25 52.5L24.75 48.25L27.25 43.5L30.5 37.25L33.25 33.75L36.25 30.25L38 28.25L40.5 25.75L45 22.5L49.5 20.5L51.5 19.5L54.5 18.75L56.5 18L62.25 17H70L76.75 17.75L84 20L88.25 22L90.75 23.75L92.75 25.5L95 27.5L97.75 31L99.75 34.75L101 39L101.5 43L101.25 45.5L100.75 48.75L99.5 54L98.25 57L97.25 60.25L95.75 64L94.25 67.25L93.25 69.75L92.25 72.5L90.5 76.5L88.75 80.75L89 83L90 84.25L92 84.5L94.25 83.5L95.75 81.75L97.75 78L98.75 75.5L100 72.75L100.75 70.5L102 68L103 64.75L104.75 60.5L105.75 58.25L108 49.25L108.5 45.5V39L107.75 33.25L106.75 30L105.5 27L103.5 23.75L101.75 21.75L99.75 20L98 18.25L94.5 16L89.75 13.75L82.25 11.5L77 10.25L74 9.75L71.5 9.5L69.75 9.75L68.5 9.5L64.25 9.25L59.25 9.75L50.75 11.75L48 13L45.5 14L44 15L41.5 16L38 18.25L35.25 20.5L31.25 24.5L28.75 27.25L26.25 30.5L24.5 33.5L21.75 38L17.75 46L15 51.25L14.25 52.25L13.25 54.25L11 56.75L9 58L7.75 57.75L5.75 56L5.25 55L5.5 52.75L6.5 50L9.5 43.5L11.75 38.75L15 33L18.75 27L20.75 24L23.25 21.25L25.25 18.75L29.25 15L31.25 13.25L36 9.75L42 6.25L45 5L47 3.75L52 2L57.5 1.25L60 1L62.5 0.5L64.25 0Z" fill="#3F6981"/>
<path d="M97 157L102.25 157.5L104.75 158.25L107.75 159.5L111.25 161.5L113.5 163.75L115.5 167.75L116 171.75L115.5 175.25L113.5 181.75L112 185L110.75 187.75L107 196.25L105.25 200L103.75 204L102.75 207L102.5 209V212L103 214.5L104.75 219L107.25 221.75L110.75 223.75L115 225.5L117.25 227.5L117.5 228V230L116.25 232L115 233L112.5 233.5L109.25 233L105.25 231.25L101 228.25L99.25 226.75L97.25 224.25L95.5 220.75L94.25 217.75L93.75 214.5V210.5L94.5 205L95.25 202L101.25 188.5L103.25 183.75L105.5 177.75L106 175.75V170.75L105 168.75L103.5 167.5L100.5 166L98.25 165.5H95.5L92 166.5L89.25 167.75L87.25 169.25L84.75 171.75L82.25 175.25L79 180.75L78 182.75L76 186L73.25 190.5L71.25 193L69.75 195L67.75 197.5L64.25 201L61.5 203.25L58 205.5L53.25 208L47 210L41.5 211H39.5L38.5 210.75L37.75 211.25H32.75L29.5 210.25L28.25 208.75L28 206.75L28.75 204.75L30 203.75L30.5 203L31.5 202.75L35.75 202.5H38.5L39.5 202.75L43.5 202L49 200.25L54.75 197.25L59 194.25L61.25 192.5L63.5 189.75L65.5 187.5L67.25 184.75L69.5 181L73 174.75L75.5 170.25L77.75 167.25L80 164.5L82.25 162.25L86 159.75L89.75 158L92.5 157.5L97 157Z" fill="#3E6981"/>
</svg>
