<svg width="392" height="58" viewBox="0 0 392 58" fill="none" xmlns="http://www.w3.org/2000/svg">
<path d="M8.6 28C8.6 28.7 8.98333 29.2333 9.75 29.6C10.55 29.9333 11.8 30.2833 13.5 30.65C15.4333 31.05 17.05 31.5 18.35 32C19.65 32.5 20.7667 33.3 21.7 34.4C22.6667 35.4667 23.15 36.9167 23.15 38.75C23.15 40.3833 22.65 41.8 21.65 43C20.6833 44.2 19.3833 45.1167 17.75 45.75C16.1167 46.35 14.3333 46.65 12.4 46.65C9.76667 46.65 7.5 46.15 5.6 45.15C3.73333 44.15 2.35 42.7167 1.45 40.85L6.55 38.2C7.45 40.5 9.4 41.65 12.4 41.65C13.7 41.65 14.8167 41.4 15.75 40.9C16.6833 40.4 17.15 39.6833 17.15 38.75C17.15 37.95 16.7167 37.3667 15.85 37C15.0167 36.6 13.65 36.1667 11.75 35.7C9.78333 35.2333 8.18333 34.7667 6.95 34.3C5.71667 33.8333 4.65 33.1167 3.75 32.15C2.85 31.15 2.4 29.8333 2.4 28.2C2.4 26.6 2.85 25.2167 3.75 24.05C4.65 22.85 5.86667 21.9333 7.4 21.3C8.93333 20.6667 10.6167 20.35 12.45 20.35C14.6167 20.35 16.55 20.8 18.25 21.7C19.9833 22.6 21.3167 23.8833 22.25 25.55L17.2 28.1C16.3333 26.2333 14.75 25.3 12.45 25.3C11.2833 25.3 10.35 25.55 9.65 26.05C8.95 26.5167 8.6 27.1667 8.6 28ZM30.1793 16.85C29.0126 16.85 28.096 16.5333 27.4293 15.9C26.7626 15.2667 26.4293 14.4 26.4293 13.3C26.4293 12.1667 26.7626 11.2833 27.4293 10.65C28.096 10.0167 29.0126 9.7 30.1793 9.7C31.346 9.7 32.2626 10.0167 32.9293 10.65C33.596 11.2833 33.9293 12.1667 33.9293 13.3C33.9293 14.3667 33.5793 15.2333 32.8793 15.9C32.2126 16.5333 31.3126 16.85 30.1793 16.85ZM27.0293 46V21H33.2293V46H27.0293ZM68.2805 20.35C69.7471 20.35 71.2305 20.6667 72.7305 21.3C74.2305 21.9 75.5138 23 76.5805 24.6C77.6805 26.2 78.2305 28.35 78.2305 31.05V46H72.0805V31.05C72.0805 29.1833 71.5471 27.85 70.4805 27.05C69.4471 26.2167 68.2305 25.8 66.8305 25.8C65.6305 25.8 64.5805 26.1667 63.6805 26.9C62.7805 27.6 62.1971 28.7333 61.9305 30.3V31.05V46H55.7805V31.05C55.7805 29.1833 55.2471 27.85 54.1805 27.05C53.1471 26.2167 51.9138 25.8 50.4805 25.8C49.3471 25.8 48.3138 26.15 47.3805 26.85C46.4805 27.55 45.8971 28.6667 45.6305 30.2V46H39.4305V21H45.6305V22.95C46.4638 22.15 47.4138 21.5167 48.4805 21.05C49.5805 20.5833 50.7471 20.35 51.9805 20.35C53.5138 20.35 55.0638 20.6833 56.6305 21.35C58.1971 22.0167 59.4471 23.1333 60.3805 24.7C61.2471 23.4667 62.3805 22.4333 63.7805 21.6C65.1805 20.7667 66.6805 20.35 68.2805 20.35ZM87.3082 16.85C86.1415 16.85 85.2249 16.5333 84.5582 15.9C83.8915 15.2667 83.5582 14.4 83.5582 13.3C83.5582 12.1667 83.8915 11.2833 84.5582 10.65C85.2249 10.0167 86.1415 9.7 87.3082 9.7C88.4749 9.7 89.3915 10.0167 90.0582 10.65C90.7249 11.2833 91.0582 12.1667 91.0582 13.3C91.0582 14.3667 90.7082 15.2333 90.0082 15.9C89.3415 16.5333 88.4415 16.85 87.3082 16.85ZM84.1582 46V21H90.3582V46H84.1582ZM102.759 38.95C102.759 39.4833 102.893 39.8667 103.159 40.1C103.426 40.3333 103.843 40.45 104.409 40.45C104.843 40.45 105.359 40.4 105.959 40.3V46C104.726 46.2 103.576 46.3 102.509 46.3C100.576 46.3 99.0927 45.8 98.0594 44.8C97.0594 43.7667 96.5594 41.95 96.5594 39.35V11H102.759V38.95ZM129.294 21H135.494V46H129.294V43.55C128.127 44.55 126.844 45.3333 125.444 45.9C124.077 46.4333 122.627 46.7 121.094 46.7C118.561 46.7 116.344 46.1333 114.444 45C112.544 43.8667 111.077 42.3 110.044 40.3C109.044 38.3 108.544 36.05 108.544 33.55C108.544 31.05 109.044 28.8 110.044 26.8C111.077 24.8 112.544 23.2333 114.444 22.1C116.344 20.9333 118.561 20.35 121.094 20.35C122.627 20.35 124.077 20.6333 125.444 21.2C126.844 21.7333 128.127 22.5 129.294 23.5V21ZM121.894 40.75C123.261 40.75 124.494 40.45 125.594 39.85C126.727 39.2167 127.611 38.35 128.244 37.25C128.911 36.15 129.244 34.9 129.244 33.5C129.244 31.4 128.527 29.6833 127.094 28.35C125.694 27.0167 123.961 26.35 121.894 26.35C119.794 26.35 118.061 27.0333 116.694 28.4C115.361 29.7333 114.694 31.45 114.694 33.55C114.694 35.65 115.361 37.3833 116.694 38.75C118.061 40.0833 119.794 40.75 121.894 40.75ZM156.722 20.5L156.272 26.35C156.072 26.2833 155.722 26.25 155.222 26.25C153.155 26.25 151.439 26.85 150.072 28.05C148.739 29.25 148.072 30.8833 148.072 32.95V46H141.872V21H148.072V25.2C148.639 23.8667 149.605 22.75 150.972 21.85C152.339 20.95 153.989 20.5 155.922 20.5H156.722ZM164.359 16.85C163.192 16.85 162.276 16.5333 161.609 15.9C160.942 15.2667 160.609 14.4 160.609 13.3C160.609 12.1667 160.942 11.2833 161.609 10.65C162.276 10.0167 163.192 9.7 164.359 9.7C165.526 9.7 166.442 10.0167 167.109 10.65C167.776 11.2833 168.109 12.1667 168.109 13.3C168.109 14.3667 167.759 15.2333 167.059 15.9C166.392 16.5333 165.492 16.85 164.359 16.85ZM161.209 46V21H167.409V46H161.209ZM182.553 37.45C182.553 38.5833 182.82 39.3667 183.353 39.8C183.886 40.2333 184.736 40.45 185.903 40.45C186.603 40.45 187.37 40.4 188.203 40.3V46C186.636 46.1667 185.336 46.25 184.303 46.25C181.636 46.25 179.636 45.65 178.303 44.45C177.003 43.2167 176.353 41.0167 176.353 37.85V26.55H171.653V21H176.353V14.85L182.553 12.75V21H188.103V26.55H182.553V37.45ZM210.231 21H216.731L207.981 46.05C206.681 49.4833 204.881 52.05 202.581 53.75C200.314 55.4833 197.631 56.2333 194.531 56V50C194.731 50.0333 195.031 50.05 195.431 50.05C198.098 50.05 200.181 48.4333 201.681 45.2L190.681 21H197.331L204.681 36.9L210.231 21ZM255.533 41.15C254.299 42.85 252.749 44.2 250.883 45.2C249.016 46.2 246.999 46.7 244.833 46.7C242.466 46.7 240.266 46.1167 238.233 44.95C236.233 43.75 234.633 42.15 233.433 40.15C232.266 38.1167 231.683 35.9167 231.683 33.55C231.683 31.1833 232.266 29 233.433 27C234.633 24.9667 236.233 23.3667 238.233 22.2C240.266 21 242.466 20.4 244.833 20.4C246.966 20.4 248.966 20.9 250.833 21.9C252.699 22.8667 254.249 24.1833 255.483 25.85L250.383 29.3C248.816 27.4667 246.966 26.55 244.833 26.55C243.566 26.55 242.399 26.8667 241.333 27.5C240.266 28.1333 239.416 28.9833 238.783 30.05C238.149 31.1167 237.833 32.2833 237.833 33.55C237.833 34.8167 238.149 35.9833 238.783 37.05C239.416 38.1167 240.266 38.9667 241.333 39.6C242.399 40.2 243.566 40.5 244.833 40.5C246.966 40.5 248.816 39.5833 250.383 37.75L255.533 41.15ZM282.194 46H276.044V31.2C276.044 29.3333 275.511 28 274.444 27.2C273.411 26.3667 272.177 25.95 270.744 25.95C269.611 25.95 268.577 26.3 267.644 27C266.744 27.7 266.161 28.8167 265.894 30.35V46H259.694V11H265.894V23.1C266.727 22.3 267.677 21.6667 268.744 21.2C269.844 20.7333 271.011 20.5 272.244 20.5C273.711 20.5 275.194 20.8167 276.694 21.45C278.194 22.05 279.477 23.1333 280.544 24.7C281.644 26.2667 282.194 28.3833 282.194 31.05V46ZM298.641 20.35C301.041 20.35 303.191 20.95 305.091 22.15C307.025 23.3167 308.525 24.9 309.591 26.9C310.658 28.9 311.191 31.1167 311.191 33.55C311.191 34.35 311.125 35.0833 310.991 35.75H291.691C292.191 37.5167 293.075 38.9 294.341 39.9C295.608 40.8667 297.225 41.35 299.191 41.35C300.391 41.35 301.541 41.0833 302.641 40.55C303.775 40.0167 304.625 39.3333 305.191 38.5L309.941 41.3C308.775 43.0333 307.258 44.3667 305.391 45.3C303.558 46.2 301.441 46.65 299.041 46.65C296.375 46.65 294.008 46.0833 291.941 44.95C289.875 43.8167 288.275 42.25 287.141 40.25C286.041 38.25 285.491 36 285.491 33.5C285.491 31.0333 286.041 28.8 287.141 26.8C288.275 24.8 289.841 23.2333 291.841 22.1C293.841 20.9333 296.108 20.35 298.641 20.35ZM305.391 30.9C305.125 29.3 304.375 28.05 303.141 27.15C301.941 26.2167 300.425 25.75 298.591 25.75C297.325 25.75 296.158 25.9833 295.091 26.45C294.058 26.9167 293.225 27.55 292.591 28.35C291.958 29.15 291.625 30 291.591 30.9H305.391ZM337.564 41.15C336.331 42.85 334.781 44.2 332.914 45.2C331.047 46.2 329.031 46.7 326.864 46.7C324.497 46.7 322.297 46.1167 320.264 44.95C318.264 43.75 316.664 42.15 315.464 40.15C314.297 38.1167 313.714 35.9167 313.714 33.55C313.714 31.1833 314.297 29 315.464 27C316.664 24.9667 318.264 23.3667 320.264 22.2C322.297 21 324.497 20.4 326.864 20.4C328.997 20.4 330.997 20.9 332.864 21.9C334.731 22.8667 336.281 24.1833 337.514 25.85L332.414 29.3C330.847 27.4667 328.997 26.55 326.864 26.55C325.597 26.55 324.431 26.8667 323.364 27.5C322.297 28.1333 321.447 28.9833 320.814 30.05C320.181 31.1167 319.864 32.2833 319.864 33.55C319.864 34.8167 320.181 35.9833 320.814 37.05C321.447 38.1167 322.297 38.9667 323.364 39.6C324.431 40.2 325.597 40.5 326.864 40.5C328.997 40.5 330.847 39.5833 332.414 37.75L337.564 41.15ZM365.837 46H358.087L351.087 36.65L347.437 40.65V46H341.237V11H347.437V31.55L356.837 21H365.487L355.287 32.1L365.837 46ZM374.957 28C374.957 28.7 375.341 29.2333 376.107 29.6C376.907 29.9333 378.157 30.2833 379.857 30.65C381.791 31.05 383.407 31.5 384.707 32C386.007 32.5 387.124 33.3 388.057 34.4C389.024 35.4667 389.507 36.9167 389.507 38.75C389.507 40.3833 389.007 41.8 388.007 43C387.041 44.2 385.741 45.1167 384.107 45.75C382.474 46.35 380.691 46.65 378.757 46.65C376.124 46.65 373.857 46.15 371.957 45.15C370.091 44.15 368.707 42.7167 367.807 40.85L372.907 38.2C373.807 40.5 375.757 41.65 378.757 41.65C380.057 41.65 381.174 41.4 382.107 40.9C383.041 40.4 383.507 39.6833 383.507 38.75C383.507 37.95 383.074 37.3667 382.207 37C381.374 36.6 380.007 36.1667 378.107 35.7C376.141 35.2333 374.541 34.7667 373.307 34.3C372.074 33.8333 371.007 33.1167 370.107 32.15C369.207 31.15 368.757 29.8333 368.757 28.2C368.757 26.6 369.207 25.2167 370.107 24.05C371.007 22.85 372.224 21.9333 373.757 21.3C375.291 20.6667 376.974 20.35 378.807 20.35C380.974 20.35 382.907 20.8 384.607 21.7C386.341 22.6 387.674 23.8833 388.607 25.55L383.557 28.1C382.691 26.2333 381.107 25.3 378.807 25.3C377.641 25.3 376.707 25.55 376.007 26.05C375.307 26.5167 374.957 27.1667 374.957 28Z" fill="#E6E8EB"/>
</svg>
