<svg width="166" height="65" viewBox="0 0 166 65" fill="none" xmlns="http://www.w3.org/2000/svg">
<path d="M68.7093 11.5455H70.9638V20.6364H68.7093V19.8727C68.382 20.1758 68.0184 20.4182 67.6184 20.6C67.2184 20.7818 66.7941 20.8727 66.3456 20.8727C65.8123 20.8727 65.2668 20.7636 64.7093 20.5455C64.1638 20.3152 63.6911 19.9091 63.2911 19.3273C62.9032 18.7455 62.7093 17.9636 62.7093 16.9818V11.5455H64.9638V16.9818C64.9638 17.6606 65.1517 18.1515 65.5275 18.4545C65.9153 18.7455 66.3638 18.8909 66.8729 18.8909C67.382 18.8909 67.8123 18.7152 68.1638 18.3636C68.5275 18 68.7093 17.4242 68.7093 16.6364V11.5455ZM78.5162 11.3091C79.4374 11.3091 80.2435 11.5152 80.9344 11.9273C81.6374 12.3394 82.1708 12.9091 82.5344 13.6364C82.9102 14.3636 83.098 15.1818 83.098 16.0909C83.098 17 82.9102 17.8182 82.5344 18.5455C82.1708 19.2727 81.6374 19.8485 80.9344 20.2727C80.2435 20.6849 79.4374 20.8909 78.5162 20.8909C77.9708 20.8909 77.4435 20.7939 76.9344 20.6C76.4374 20.3939 75.9768 20.1091 75.5526 19.7455V24.2727H73.298V11.5455H75.5526V12.4364C75.9647 12.0727 76.4253 11.7939 76.9344 11.6C77.4435 11.4061 77.9708 11.3091 78.5162 11.3091ZM78.2435 18.7091C78.995 18.7091 79.6132 18.4667 80.098 17.9818C80.595 17.4849 80.8435 16.8545 80.8435 16.0909C80.8435 15.3273 80.595 14.703 80.098 14.2182C79.6132 13.7212 78.995 13.4727 78.2435 13.4727C77.7465 13.4727 77.292 13.5879 76.8799 13.8182C76.4677 14.0364 76.1405 14.3455 75.898 14.7455C75.6677 15.1455 75.5526 15.6 75.5526 16.1091C75.5526 16.8727 75.8071 17.497 76.3162 17.9818C76.8374 18.4667 77.4799 18.7091 78.2435 18.7091ZM86.8807 18.0727C86.8807 18.2667 86.9292 18.4061 87.0262 18.4909C87.1231 18.5758 87.2747 18.6182 87.4807 18.6182C87.6383 18.6182 87.8262 18.6 88.0444 18.5636V20.6364C87.5959 20.7091 87.1777 20.7455 86.7898 20.7455C86.0868 20.7455 85.5474 20.5636 85.1716 20.2C84.808 19.8242 84.6262 19.1636 84.6262 18.2182V7.90909H86.8807V18.0727ZM93.4088 20.8909C92.5482 20.8909 91.7482 20.6788 91.0088 20.2545C90.2816 19.8182 89.6998 19.2364 89.2634 18.5091C88.8391 17.7697 88.627 16.9697 88.627 16.1091C88.627 15.2485 88.8391 14.4545 89.2634 13.7273C89.6998 12.9879 90.2816 12.4061 91.0088 11.9818C91.7482 11.5455 92.5482 11.3273 93.4088 11.3273C94.2694 11.3273 95.0634 11.5455 95.7907 11.9818C96.5301 12.4061 97.1119 12.9879 97.5361 13.7273C97.9725 14.4545 98.1907 15.2485 98.1907 16.1091C98.1907 16.9697 97.9725 17.7697 97.5361 18.5091C97.1119 19.2364 96.5301 19.8182 95.7907 20.2545C95.0634 20.6788 94.2694 20.8909 93.4088 20.8909ZM93.3907 18.6364C93.8513 18.6364 94.2755 18.5273 94.6634 18.3091C95.0513 18.0788 95.3604 17.7697 95.5907 17.3818C95.821 16.9939 95.9361 16.5697 95.9361 16.1091C95.9361 15.6485 95.821 15.2242 95.5907 14.8364C95.3604 14.4485 95.0513 14.1394 94.6634 13.9091C94.2755 13.6788 93.8513 13.5636 93.3907 13.5636C92.9301 13.5636 92.5058 13.6788 92.1179 13.9091C91.7301 14.1394 91.421 14.4485 91.1907 14.8364C90.9725 15.2242 90.8634 15.6485 90.8634 16.1091C90.8634 16.5697 90.9725 16.9939 91.1907 17.3818C91.421 17.7697 91.7301 18.0788 92.1179 18.3091C92.5058 18.5273 92.9301 18.6364 93.3907 18.6364ZM106.757 11.5455H109.012V20.6364H106.757V19.7455C106.333 20.1091 105.866 20.3939 105.357 20.6C104.86 20.7939 104.333 20.8909 103.775 20.8909C102.854 20.8909 102.048 20.6849 101.357 20.2727C100.666 19.8606 100.133 19.2909 99.757 18.5636C99.3934 17.8364 99.2115 17.0182 99.2115 16.1091C99.2115 15.2 99.3934 14.3818 99.757 13.6545C100.133 12.9273 100.666 12.3576 101.357 11.9455C102.048 11.5212 102.854 11.3091 103.775 11.3091C104.333 11.3091 104.86 11.4121 105.357 11.6182C105.866 11.8121 106.333 12.0909 106.757 12.4545V11.5455ZM104.066 18.7273C104.563 18.7273 105.012 18.6182 105.412 18.4C105.824 18.1697 106.145 17.8545 106.375 17.4545C106.618 17.0545 106.739 16.6 106.739 16.0909C106.739 15.3273 106.478 14.703 105.957 14.2182C105.448 13.7333 104.818 13.4909 104.066 13.4909C103.302 13.4909 102.672 13.7394 102.175 14.2364C101.69 14.7212 101.448 15.3455 101.448 16.1091C101.448 16.8727 101.69 17.503 102.175 18C102.672 18.4849 103.302 18.7273 104.066 18.7273ZM118.085 7.90909H120.339V20.6364H118.085V19.7636C117.673 20.1273 117.212 20.4061 116.703 20.6C116.194 20.7939 115.667 20.8909 115.121 20.8909C114.2 20.8909 113.394 20.6849 112.703 20.2727C112.012 19.8606 111.479 19.2909 111.103 18.5636C110.739 17.8364 110.557 17.0182 110.557 16.1091C110.557 15.2 110.739 14.3818 111.103 13.6545C111.479 12.9273 112.012 12.3576 112.703 11.9455C113.394 11.5212 114.2 11.3091 115.121 11.3091C115.667 11.3091 116.188 11.4121 116.685 11.6182C117.194 11.8121 117.66 12.0849 118.085 12.4364V7.90909ZM115.412 18.7273C115.909 18.7273 116.357 18.6182 116.757 18.4C117.17 18.1697 117.491 17.8545 117.721 17.4545C117.963 17.0545 118.085 16.6 118.085 16.0909C118.085 15.3273 117.824 14.703 117.303 14.2182C116.794 13.7333 116.163 13.4909 115.412 13.4909C114.648 13.4909 114.018 13.7394 113.521 14.2364C113.036 14.7212 112.794 15.3455 112.794 16.1091C112.794 16.8727 113.036 17.503 113.521 18C114.018 18.4849 114.648 18.7273 115.412 18.7273Z" fill="#E6E8EB"/>
<path d="M66.9865 33.4545H68.6775V40.2727H66.9865V39.7C66.7411 39.9273 66.4684 40.1091 66.1684 40.2455C65.8684 40.3818 65.5502 40.45 65.2138 40.45C64.8138 40.45 64.4047 40.3682 63.9865 40.2045C63.5775 40.0318 63.2229 39.7273 62.9229 39.2909C62.632 38.8545 62.4865 38.2682 62.4865 37.5318V33.4545H64.1775V37.5318C64.1775 38.0409 64.3184 38.4091 64.6002 38.6364C64.8911 38.8545 65.2275 38.9636 65.6093 38.9636C65.9911 38.9636 66.3138 38.8318 66.5775 38.5682C66.8502 38.2955 66.9865 37.8636 66.9865 37.2727V33.4545ZM74.3418 33.2773C75.0327 33.2773 75.6372 33.4318 76.1554 33.7409C76.6827 34.05 77.0827 34.4773 77.3554 35.0227C77.6372 35.5682 77.7781 36.1818 77.7781 36.8636C77.7781 37.5455 77.6372 38.1591 77.3554 38.7045C77.0827 39.25 76.6827 39.6818 76.1554 40C75.6372 40.3091 75.0327 40.4636 74.3418 40.4636C73.9327 40.4636 73.5372 40.3909 73.1554 40.2455C72.7827 40.0909 72.4372 39.8773 72.119 39.6045V43H70.4281V33.4545H72.119V34.1227C72.4281 33.85 72.7736 33.6409 73.1554 33.4955C73.5372 33.35 73.9327 33.2773 74.3418 33.2773ZM74.1372 38.8273C74.7009 38.8273 75.1645 38.6455 75.5281 38.2818C75.9009 37.9091 76.0872 37.4364 76.0872 36.8636C76.0872 36.2909 75.9009 35.8227 75.5281 35.4591C75.1645 35.0864 74.7009 34.9 74.1372 34.9C73.7645 34.9 73.4236 34.9864 73.1145 35.1591C72.8054 35.3227 72.5599 35.5545 72.3781 35.8545C72.2054 36.1545 72.119 36.4955 72.119 36.8773C72.119 37.45 72.3099 37.9182 72.6918 38.2818C73.0827 38.6455 73.5645 38.8273 74.1372 38.8273ZM80.6151 38.35C80.6151 38.4955 80.6515 38.6 80.7242 38.6636C80.7969 38.7273 80.9106 38.7591 81.0651 38.7591C81.1833 38.7591 81.3242 38.7455 81.4879 38.7182V40.2727C81.1515 40.3273 80.8379 40.3545 80.5469 40.3545C80.0197 40.3545 79.6151 40.2182 79.3333 39.9455C79.0606 39.6636 78.9242 39.1682 78.9242 38.4591V30.7273H80.6151V38.35ZM85.5112 40.4636C84.8658 40.4636 84.2658 40.3045 83.7112 39.9864C83.1658 39.6591 82.7294 39.2227 82.4021 38.6773C82.0839 38.1227 81.9249 37.5227 81.9249 36.8773C81.9249 36.2318 82.0839 35.6364 82.4021 35.0909C82.7294 34.5364 83.1658 34.1 83.7112 33.7818C84.2658 33.4545 84.8658 33.2909 85.5112 33.2909C86.1567 33.2909 86.7521 33.4545 87.2976 33.7818C87.8521 34.1 88.2885 34.5364 88.6067 35.0909C88.9339 35.6364 89.0976 36.2318 89.0976 36.8773C89.0976 37.5227 88.9339 38.1227 88.6067 38.6773C88.2885 39.2227 87.8521 39.6591 87.2976 39.9864C86.7521 40.3045 86.1567 40.4636 85.5112 40.4636ZM85.4976 38.7727C85.843 38.7727 86.1612 38.6909 86.4521 38.5273C86.743 38.3545 86.9749 38.1227 87.1476 37.8318C87.3203 37.5409 87.4067 37.2227 87.4067 36.8773C87.4067 36.5318 87.3203 36.2136 87.1476 35.9227C86.9749 35.6318 86.743 35.4 86.4521 35.2273C86.1612 35.0545 85.843 34.9682 85.4976 34.9682C85.1521 34.9682 84.8339 35.0545 84.543 35.2273C84.2521 35.4 84.0203 35.6318 83.8476 35.9227C83.6839 36.2136 83.6021 36.5318 83.6021 36.8773C83.6021 37.2227 83.6839 37.5409 83.8476 37.8318C84.0203 38.1227 84.2521 38.3545 84.543 38.5273C84.8339 38.6909 85.1521 38.7727 85.4976 38.7727ZM95.5223 33.4545H97.2132V40.2727H95.5223V39.6045C95.2042 39.8773 94.8542 40.0909 94.4723 40.2455C94.0996 40.3909 93.7042 40.4636 93.286 40.4636C92.5951 40.4636 91.9905 40.3091 91.4723 40C90.9542 39.6909 90.5542 39.2636 90.2723 38.7182C89.9996 38.1727 89.8632 37.5591 89.8632 36.8773C89.8632 36.1955 89.9996 35.5818 90.2723 35.0364C90.5542 34.4909 90.9542 34.0636 91.4723 33.7545C91.9905 33.4364 92.5951 33.2773 93.286 33.2773C93.7042 33.2773 94.0996 33.3545 94.4723 33.5091C94.8542 33.6545 95.2042 33.8636 95.5223 34.1364V33.4545ZM93.5042 38.8409C93.8769 38.8409 94.2132 38.7591 94.5132 38.5955C94.8223 38.4227 95.0632 38.1864 95.236 37.8864C95.4178 37.5864 95.5087 37.2455 95.5087 36.8636C95.5087 36.2909 95.3132 35.8227 94.9223 35.4591C94.5405 35.0955 94.0678 34.9136 93.5042 34.9136C92.9314 34.9136 92.4587 35.1 92.086 35.4727C91.7223 35.8364 91.5405 36.3045 91.5405 36.8773C91.5405 37.45 91.7223 37.9227 92.086 38.2955C92.4587 38.6591 92.9314 38.8409 93.5042 38.8409ZM104.018 30.7273H105.709V40.2727H104.018V39.6182C103.709 39.8909 103.364 40.1 102.982 40.2455C102.6 40.3909 102.204 40.4636 101.795 40.4636C101.104 40.4636 100.5 40.3091 99.9818 40C99.4636 39.6909 99.0636 39.2636 98.7817 38.7182C98.509 38.1727 98.3727 37.5591 98.3727 36.8773C98.3727 36.1955 98.509 35.5818 98.7817 35.0364C99.0636 34.4909 99.4636 34.0636 99.9818 33.7545C100.5 33.4364 101.104 33.2773 101.795 33.2773C102.204 33.2773 102.595 33.3545 102.968 33.5091C103.35 33.6545 103.7 33.8591 104.018 34.1227V30.7273ZM102.014 38.8409C102.386 38.8409 102.723 38.7591 103.023 38.5955C103.332 38.4227 103.573 38.1864 103.745 37.8864C103.927 37.5864 104.018 37.2455 104.018 36.8636C104.018 36.2909 103.823 35.8227 103.432 35.4591C103.05 35.0955 102.577 34.9136 102.014 34.9136C101.441 34.9136 100.968 35.1 100.595 35.4727C100.232 35.8364 100.05 36.3045 100.05 36.8773C100.05 37.45 100.232 37.9227 100.595 38.2955C100.968 38.6591 101.441 38.8409 102.014 38.8409ZM115.492 33.4545H117.265L114.878 40.2864C114.524 41.2227 114.033 41.9227 113.406 42.3864C112.787 42.8591 112.056 43.0636 111.21 43V41.3636C111.265 41.3727 111.346 41.3773 111.456 41.3773C112.183 41.3773 112.751 40.9364 113.16 40.0545L110.16 33.4545H111.974L113.978 37.7909L115.492 33.4545ZM121.427 40.4636C120.781 40.4636 120.181 40.3045 119.627 39.9864C119.081 39.6591 118.645 39.2227 118.317 38.6773C117.999 38.1227 117.84 37.5227 117.84 36.8773C117.84 36.2318 117.999 35.6364 118.317 35.0909C118.645 34.5364 119.081 34.1 119.627 33.7818C120.181 33.4545 120.781 33.2909 121.427 33.2909C122.072 33.2909 122.667 33.4545 123.213 33.7818C123.767 34.1 124.204 34.5364 124.522 35.0909C124.849 35.6364 125.013 36.2318 125.013 36.8773C125.013 37.5227 124.849 38.1227 124.522 38.6773C124.204 39.2227 123.767 39.6591 123.213 39.9864C122.667 40.3045 122.072 40.4636 121.427 40.4636ZM121.413 38.7727C121.758 38.7727 122.077 38.6909 122.367 38.5273C122.658 38.3545 122.89 38.1227 123.063 37.8318C123.236 37.5409 123.322 37.2227 123.322 36.8773C123.322 36.5318 123.236 36.2136 123.063 35.9227C122.89 35.6318 122.658 35.4 122.367 35.2273C122.077 35.0545 121.758 34.9682 121.413 34.9682C121.067 34.9682 120.749 35.0545 120.458 35.2273C120.167 35.4 119.936 35.6318 119.763 35.9227C119.599 36.2136 119.517 36.5318 119.517 36.8773C119.517 37.2227 119.599 37.5409 119.763 37.8318C119.936 38.1227 120.167 38.3545 120.458 38.5273C120.749 38.6909 121.067 38.7727 121.413 38.7727ZM130.388 33.4545H132.079V40.2727H130.388V39.7C130.142 39.9273 129.869 40.1091 129.569 40.2455C129.269 40.3818 128.951 40.45 128.615 40.45C128.215 40.45 127.806 40.3682 127.388 40.2045C126.979 40.0318 126.624 39.7273 126.324 39.2909C126.033 38.8545 125.888 38.2682 125.888 37.5318V33.4545H127.579V37.5318C127.579 38.0409 127.719 38.4091 128.001 38.6364C128.292 38.8545 128.629 38.9636 129.01 38.9636C129.392 38.9636 129.715 38.8318 129.979 38.5682C130.251 38.2955 130.388 37.8636 130.388 37.2727V33.4545ZM137.879 33.3182L137.756 34.9136C137.702 34.8955 137.606 34.8864 137.47 34.8864C136.906 34.8864 136.438 35.05 136.066 35.3773C135.702 35.7045 135.52 36.15 135.52 36.7136V40.2727H133.829V33.4545H135.52V34.6C135.675 34.2364 135.938 33.9318 136.311 33.6864C136.684 33.4409 137.134 33.3182 137.661 33.3182H137.879ZM68.0365 49.4545H69.7275V56.2727H68.0365V55.6045C67.7184 55.8773 67.3684 56.0909 66.9865 56.2455C66.6138 56.3909 66.2184 56.4636 65.8002 56.4636C65.1093 56.4636 64.5047 56.3091 63.9865 56C63.4684 55.6909 63.0684 55.2636 62.7865 54.7182C62.5138 54.1727 62.3775 53.5591 62.3775 52.8773C62.3775 52.1955 62.5138 51.5818 62.7865 51.0364C63.0684 50.4909 63.4684 50.0636 63.9865 49.7545C64.5047 49.4364 65.1093 49.2773 65.8002 49.2773C66.2184 49.2773 66.6138 49.3545 66.9865 49.5091C67.3684 49.6545 67.7184 49.8636 68.0365 50.1364V49.4545ZM66.0184 54.8409C66.3911 54.8409 66.7275 54.7591 67.0275 54.5955C67.3365 54.4227 67.5775 54.1864 67.7502 53.8864C67.932 53.5864 68.0229 53.2455 68.0229 52.8636C68.0229 52.2909 67.8275 51.8227 67.4365 51.4591C67.0547 51.0955 66.582 50.9136 66.0184 50.9136C65.4456 50.9136 64.9729 51.1 64.6002 51.4727C64.2365 51.8364 64.0547 52.3045 64.0547 52.8773C64.0547 53.45 64.2365 53.9227 64.6002 54.2955C64.9729 54.6591 65.4456 54.8409 66.0184 54.8409ZM75.5168 49.3182L75.3941 50.9136C75.3396 50.8955 75.2441 50.8864 75.1077 50.8864C74.5441 50.8864 74.0759 51.05 73.7032 51.3773C73.3396 51.7045 73.1577 52.15 73.1577 52.7136V56.2727H71.4668V49.4545H73.1577V50.6C73.3123 50.2364 73.5759 49.9318 73.9487 49.6864C74.3214 49.4409 74.7714 49.3182 75.2987 49.3182H75.5168ZM79.3657 53.9409C79.3657 54.25 79.4384 54.4636 79.5839 54.5818C79.7293 54.7 79.9612 54.7591 80.2793 54.7591C80.4702 54.7591 80.6793 54.7455 80.9066 54.7182V56.2727C80.4793 56.3182 80.1248 56.3409 79.843 56.3409C79.1157 56.3409 78.5702 56.1773 78.2066 55.85C77.8521 55.5136 77.6748 54.9136 77.6748 54.05V50.9682H76.393V49.4545H77.6748V47.7773L79.3657 47.2045V49.4545H80.8793V50.9682H79.3657V53.9409ZM88.9324 53.5864L90.2005 49.4545H91.9733L89.7642 56.2727H88.0869L86.8051 52.2227L85.5233 56.2727H83.8733L81.7187 49.4545H83.4778L84.7051 53.5591L85.9051 49.4545H87.7051L88.9324 53.5864ZM95.7918 56.4636C95.1463 56.4636 94.5463 56.3045 93.9918 55.9864C93.4463 55.6591 93.0099 55.2227 92.6827 54.6773C92.3645 54.1227 92.2054 53.5227 92.2054 52.8773C92.2054 52.2318 92.3645 51.6364 92.6827 51.0909C93.0099 50.5364 93.4463 50.1 93.9918 49.7818C94.5463 49.4545 95.1463 49.2909 95.7918 49.2909C96.4372 49.2909 97.0327 49.4545 97.5781 49.7818C98.1327 50.1 98.569 50.5364 98.8872 51.0909C99.2145 51.6364 99.3781 52.2318 99.3781 52.8773C99.3781 53.5227 99.2145 54.1227 98.8872 54.6773C98.569 55.2227 98.1327 55.6591 97.5781 55.9864C97.0327 56.3045 96.4372 56.4636 95.7918 56.4636ZM95.7781 54.7727C96.1236 54.7727 96.4418 54.6909 96.7327 54.5273C97.0236 54.3545 97.2554 54.1227 97.4281 53.8318C97.6009 53.5409 97.6872 53.2227 97.6872 52.8773C97.6872 52.5318 97.6009 52.2136 97.4281 51.9227C97.2554 51.6318 97.0236 51.4 96.7327 51.2273C96.4418 51.0545 96.1236 50.9682 95.7781 50.9682C95.4327 50.9682 95.1145 51.0545 94.8236 51.2273C94.5327 51.4 94.3009 51.6318 94.1281 51.9227C93.9645 52.2136 93.8827 52.5318 93.8827 52.8773C93.8827 53.2227 93.9645 53.5409 94.1281 53.8318C94.3009 54.1227 94.5327 54.3545 94.8236 54.5273C95.1145 54.6909 95.4327 54.7727 95.7781 54.7727ZM104.507 49.3182L104.385 50.9136C104.33 50.8955 104.235 50.8864 104.098 50.8864C103.535 50.8864 103.067 51.05 102.694 51.3773C102.33 51.7045 102.148 52.15 102.148 52.7136V56.2727H100.457V49.4545H102.148V50.6C102.303 50.2364 102.567 49.9318 102.939 49.6864C103.312 49.4409 103.762 49.3182 104.289 49.3182H104.507ZM112.347 56.2727H110.233L108.324 53.7227L107.329 54.8136V56.2727H105.638V46.7273H107.329V52.3318L109.892 49.4545H112.251L109.469 52.4818L112.347 56.2727ZM114.834 51.3636C114.834 51.5545 114.939 51.7 115.148 51.8C115.366 51.8909 115.707 51.9864 116.17 52.0864C116.698 52.1955 117.139 52.3182 117.493 52.4545C117.848 52.5909 118.152 52.8091 118.407 53.1091C118.67 53.4 118.802 53.7955 118.802 54.2955C118.802 54.7409 118.666 55.1273 118.393 55.4545C118.13 55.7818 117.775 56.0318 117.33 56.2045C116.884 56.3682 116.398 56.45 115.87 56.45C115.152 56.45 114.534 56.3136 114.016 56.0409C113.507 55.7682 113.13 55.3773 112.884 54.8682L114.275 54.1455C114.52 54.7727 115.052 55.0864 115.87 55.0864C116.225 55.0864 116.53 55.0182 116.784 54.8818C117.039 54.7455 117.166 54.55 117.166 54.2955C117.166 54.0773 117.048 53.9182 116.811 53.8182C116.584 53.7091 116.211 53.5909 115.693 53.4636C115.157 53.3364 114.72 53.2091 114.384 53.0818C114.048 52.9545 113.757 52.7591 113.511 52.4955C113.266 52.2227 113.143 51.8636 113.143 51.4182C113.143 50.9818 113.266 50.6045 113.511 50.2864C113.757 49.9591 114.089 49.7091 114.507 49.5364C114.925 49.3636 115.384 49.2773 115.884 49.2773C116.475 49.2773 117.002 49.4 117.466 49.6455C117.939 49.8909 118.302 50.2409 118.557 50.6955L117.18 51.3909C116.943 50.8818 116.511 50.6273 115.884 50.6273C115.566 50.6273 115.311 50.6955 115.12 50.8318C114.93 50.9591 114.834 51.1364 114.834 51.3636ZM127.42 48.1591C127.193 48.1318 126.988 48.1182 126.806 48.1182C126.488 48.1182 126.256 48.1773 126.111 48.2955C125.965 48.4136 125.893 48.6318 125.893 48.95V49.4545H127.406V50.9682H125.893V56.2727H124.202V50.9682H123.07V49.4545H124.202V48.8409C124.202 47.9773 124.379 47.3818 124.733 47.0545C125.088 46.7182 125.624 46.55 126.343 46.55C126.624 46.55 126.983 46.5727 127.42 46.6182V48.1591ZM129.247 48.3227C128.929 48.3227 128.679 48.2364 128.497 48.0636C128.315 47.8909 128.224 47.6545 128.224 47.3545C128.224 47.0455 128.315 46.8045 128.497 46.6318C128.679 46.4591 128.929 46.3727 129.247 46.3727C129.565 46.3727 129.815 46.4591 129.997 46.6318C130.179 46.8045 130.27 47.0455 130.27 47.3545C130.27 47.6455 130.174 47.8818 129.983 48.0636C129.802 48.2364 129.556 48.3227 129.247 48.3227ZM128.388 56.2727V49.4545H130.079V56.2727H128.388ZM133.456 54.35C133.456 54.4955 133.492 54.6 133.565 54.6636C133.638 54.7273 133.751 54.7591 133.906 54.7591C134.024 54.7591 134.165 54.7455 134.329 54.7182V56.2727C133.992 56.3273 133.679 56.3545 133.388 56.3545C132.861 56.3545 132.456 56.2182 132.174 55.9455C131.901 55.6636 131.765 55.1682 131.765 54.4591V46.7273H133.456V54.35ZM138.485 49.2773C139.14 49.2773 139.726 49.4409 140.244 49.7682C140.772 50.0864 141.181 50.5182 141.472 51.0636C141.763 51.6091 141.908 52.2136 141.908 52.8773C141.908 53.0955 141.89 53.2955 141.853 53.4773H136.59C136.726 53.9591 136.967 54.3364 137.313 54.6091C137.658 54.8727 138.099 55.0045 138.635 55.0045C138.963 55.0045 139.276 54.9318 139.576 54.7864C139.885 54.6409 140.117 54.4545 140.272 54.2273L141.567 54.9909C141.249 55.4636 140.835 55.8273 140.326 56.0818C139.826 56.3273 139.249 56.45 138.594 56.45C137.867 56.45 137.222 56.2955 136.658 55.9864C136.094 55.6773 135.658 55.25 135.349 54.7045C135.049 54.1591 134.899 53.5455 134.899 52.8636C134.899 52.1909 135.049 51.5818 135.349 51.0364C135.658 50.4909 136.085 50.0636 136.631 49.7545C137.176 49.4364 137.794 49.2773 138.485 49.2773ZM140.326 52.1545C140.253 51.7182 140.049 51.3773 139.713 51.1318C139.385 50.8773 138.972 50.75 138.472 50.75C138.126 50.75 137.808 50.8136 137.517 50.9409C137.235 51.0682 137.008 51.2409 136.835 51.4591C136.663 51.6773 136.572 51.9091 136.563 52.1545H140.326ZM144.451 51.3636C144.451 51.5545 144.555 51.7 144.764 51.8C144.982 51.8909 145.323 51.9864 145.787 52.0864C146.314 52.1955 146.755 52.3182 147.11 52.4545C147.464 52.5909 147.769 52.8091 148.023 53.1091C148.287 53.4 148.419 53.7955 148.419 54.2955C148.419 54.7409 148.282 55.1273 148.01 55.4545C147.746 55.7818 147.391 56.0318 146.946 56.2045C146.501 56.3682 146.014 56.45 145.487 56.45C144.769 56.45 144.151 56.3136 143.632 56.0409C143.123 55.7682 142.746 55.3773 142.501 54.8682L143.891 54.1455C144.137 54.7727 144.669 55.0864 145.487 55.0864C145.841 55.0864 146.146 55.0182 146.401 54.8818C146.655 54.7455 146.782 54.55 146.782 54.2955C146.782 54.0773 146.664 53.9182 146.428 53.8182C146.201 53.7091 145.828 53.5909 145.31 53.4636C144.773 53.3364 144.337 53.2091 144.001 53.0818C143.664 52.9545 143.373 52.7591 143.128 52.4955C142.882 52.2227 142.76 51.8636 142.76 51.4182C142.76 50.9818 142.882 50.6045 143.128 50.2864C143.373 49.9591 143.705 49.7091 144.123 49.5364C144.541 49.3636 145.001 49.2773 145.501 49.2773C146.091 49.2773 146.619 49.4 147.082 49.6455C147.555 49.8909 147.919 50.2409 148.173 50.6955L146.796 51.3909C146.56 50.8818 146.128 50.6273 145.501 50.6273C145.182 50.6273 144.928 50.6955 144.737 50.8318C144.546 50.9591 144.451 51.1364 144.451 51.3636Z" fill="#E6E8EB" fill-opacity="0.8"/>
<rect width="50" height="65" rx="25" fill="white"/>
<path d="M27.3228 20.8182V39.1455H33.3682V43.0909H16.6637V39.1455H23.1546V25.2727L19.6864 27.3727L17.5228 24.1273L23.1546 20.85V20.8182H27.3228Z" fill="black"/>
</svg>
