<svg width="166" height="65" viewBox="0 0 166 65" fill="none" xmlns="http://www.w3.org/2000/svg">
<path d="M73.6399 11.3091C74.1732 11.3091 74.7126 11.4242 75.2581 11.6545C75.8035 11.8727 76.2702 12.2727 76.6581 12.8545C77.0581 13.4364 77.2581 14.2182 77.2581 15.2V20.6364H75.0217V15.2C75.0217 14.5212 74.8278 14.0364 74.4399 13.7455C74.0641 13.4424 73.6217 13.2909 73.1126 13.2909C72.6763 13.2909 72.2944 13.4242 71.9672 13.6909C71.6399 13.9455 71.4278 14.3576 71.3308 14.9273V15.2V20.6364H69.0944V15.2C69.0944 14.5212 68.9005 14.0364 68.5126 13.7455C68.1369 13.4424 67.6884 13.2909 67.1672 13.2909C66.755 13.2909 66.3793 13.4182 66.0399 13.6727C65.7126 13.9273 65.5005 14.3333 65.4035 14.8909V20.6364H63.149V11.5455H65.4035V12.2545C65.7066 11.9636 66.052 11.7333 66.4399 11.5636C66.8399 11.3939 67.2641 11.3091 67.7126 11.3091C68.2702 11.3091 68.8338 11.4303 69.4035 11.6727C69.9732 11.9152 70.4278 12.3212 70.7672 12.8909C71.0823 12.4424 71.4944 12.0667 72.0035 11.7636C72.5126 11.4606 73.0581 11.3091 73.6399 11.3091ZM80.5591 10.0364C80.1348 10.0364 79.8015 9.92122 79.5591 9.69091C79.3166 9.46061 79.1954 9.14546 79.1954 8.74546C79.1954 8.33334 79.3166 8.01213 79.5591 7.78182C79.8015 7.55152 80.1348 7.43637 80.5591 7.43637C80.9833 7.43637 81.3166 7.55152 81.5591 7.78182C81.8015 8.01213 81.9227 8.33334 81.9227 8.74546C81.9227 9.13334 81.7954 9.44849 81.5409 9.69091C81.2985 9.92122 80.9712 10.0364 80.5591 10.0364ZM79.4136 20.6364V11.5455H81.6682V20.6364H79.4136ZM88.5413 11.3091C89.0747 11.3091 89.614 11.4242 90.1595 11.6545C90.7171 11.8727 91.1898 12.2727 91.5777 12.8545C91.9777 13.4364 92.1777 14.2182 92.1777 15.2V20.6364H89.9231V15.2C89.9231 14.5212 89.7292 14.0364 89.3413 13.7455C88.9656 13.4424 88.5231 13.2909 88.014 13.2909C87.505 13.2909 87.0686 13.4727 86.705 13.8364C86.3534 14.1879 86.1777 14.7576 86.1777 15.5455V20.6364H83.9231V11.5455H86.1777V12.3091C86.505 12.0061 86.8686 11.7636 87.2686 11.5818C87.6686 11.4 88.0928 11.3091 88.5413 11.3091ZM96.9585 17.5273C96.9585 17.9394 97.0555 18.2242 97.2494 18.3818C97.4434 18.5394 97.7524 18.6182 98.1767 18.6182C98.4312 18.6182 98.71 18.6 99.0131 18.5636V20.6364C98.4434 20.697 97.9706 20.7273 97.5949 20.7273C96.6252 20.7273 95.8979 20.5091 95.4131 20.0727C94.9403 19.6242 94.704 18.8242 94.704 17.6727V13.5636H92.9949V11.5455H94.704V9.30909L96.9585 8.54546V11.5455H98.9767V13.5636H96.9585V17.5273Z" fill="#E6E8EB"/>
<path d="M68.9808 38.95C68.6444 39.4136 68.2217 39.7818 67.7126 40.0545C67.2035 40.3273 66.6535 40.4636 66.0626 40.4636C65.4172 40.4636 64.8172 40.3045 64.2626 39.9864C63.7172 39.6591 63.2808 39.2227 62.9535 38.6773C62.6354 38.1227 62.4763 37.5227 62.4763 36.8773C62.4763 36.2318 62.6354 35.6364 62.9535 35.0909C63.2808 34.5364 63.7172 34.1 64.2626 33.7818C64.8172 33.4545 65.4172 33.2909 66.0626 33.2909C66.6444 33.2909 67.1899 33.4273 67.699 33.7C68.2081 33.9636 68.6308 34.3227 68.9672 34.7773L67.5763 35.7182C67.149 35.2182 66.6444 34.9682 66.0626 34.9682C65.7172 34.9682 65.399 35.0545 65.1081 35.2273C64.8172 35.4 64.5854 35.6318 64.4126 35.9227C64.2399 36.2136 64.1535 36.5318 64.1535 36.8773C64.1535 37.2227 64.2399 37.5409 64.4126 37.8318C64.5854 38.1227 64.8172 38.3545 65.1081 38.5273C65.399 38.6909 65.7172 38.7727 66.0626 38.7727C66.6444 38.7727 67.149 38.5227 67.5763 38.0227L68.9808 38.95ZM74.1657 33.3182L74.043 34.9136C73.9884 34.8955 73.893 34.8864 73.7566 34.8864C73.193 34.8864 72.7248 35.05 72.3521 35.3773C71.9884 35.7045 71.8066 36.15 71.8066 36.7136V40.2727H70.1157V33.4545H71.8066V34.6C71.9612 34.2364 72.2248 33.9318 72.5975 33.6864C72.9703 33.4409 73.4203 33.3182 73.9475 33.3182H74.1657ZM78.1143 33.2773C78.7688 33.2773 79.3552 33.4409 79.8734 33.7682C80.4007 34.0864 80.8097 34.5182 81.1007 35.0636C81.3916 35.6091 81.537 36.2136 81.537 36.8773C81.537 37.0955 81.5188 37.2955 81.4825 37.4773H76.2188C76.3552 37.9591 76.5961 38.3364 76.9416 38.6091C77.287 38.8727 77.7279 39.0045 78.2643 39.0045C78.5916 39.0045 78.9052 38.9318 79.2052 38.7864C79.5143 38.6409 79.7461 38.4545 79.9007 38.2273L81.1961 38.9909C80.8779 39.4636 80.4643 39.8273 79.9552 40.0818C79.4552 40.3273 78.8779 40.45 78.2234 40.45C77.4961 40.45 76.8507 40.2955 76.287 39.9864C75.7234 39.6773 75.287 39.25 74.9779 38.7045C74.6779 38.1591 74.5279 37.5455 74.5279 36.8636C74.5279 36.1909 74.6779 35.5818 74.9779 35.0364C75.287 34.4909 75.7143 34.0636 76.2597 33.7545C76.8052 33.4364 77.4234 33.2773 78.1143 33.2773ZM79.9552 36.1545C79.8825 35.7182 79.6779 35.3773 79.3416 35.1318C79.0143 34.8773 78.6007 34.75 78.1007 34.75C77.7552 34.75 77.437 34.8136 77.1461 34.9409C76.8643 35.0682 76.637 35.2409 76.4643 35.4591C76.2916 35.6773 76.2007 35.9091 76.1916 36.1545H79.9552ZM87.9523 33.4545H89.6432V40.2727H87.9523V39.6045C87.6341 39.8773 87.2841 40.0909 86.9023 40.2455C86.5296 40.3909 86.1341 40.4636 85.7159 40.4636C85.025 40.4636 84.4205 40.3091 83.9023 40C83.3841 39.6909 82.9841 39.2636 82.7023 38.7182C82.4296 38.1727 82.2932 37.5591 82.2932 36.8773C82.2932 36.1955 82.4296 35.5818 82.7023 35.0364C82.9841 34.4909 83.3841 34.0636 83.9023 33.7545C84.4205 33.4364 85.025 33.2773 85.7159 33.2773C86.1341 33.2773 86.5296 33.3545 86.9023 33.5091C87.2841 33.6545 87.6341 33.8636 87.9523 34.1364V33.4545ZM85.9341 38.8409C86.3068 38.8409 86.6432 38.7591 86.9432 38.5955C87.2523 38.4227 87.4932 38.1864 87.6659 37.8864C87.8477 37.5864 87.9387 37.2455 87.9387 36.8636C87.9387 36.2909 87.7432 35.8227 87.3523 35.4591C86.9705 35.0955 86.4977 34.9136 85.9341 34.9136C85.3614 34.9136 84.8887 35.1 84.5159 35.4727C84.1523 35.8364 83.9705 36.3045 83.9705 36.8773C83.9705 37.45 84.1523 37.9227 84.5159 38.2955C84.8887 38.6591 85.3614 38.8409 85.9341 38.8409ZM93.5552 37.9409C93.5552 38.25 93.628 38.4636 93.7734 38.5818C93.9189 38.7 94.1507 38.7591 94.4689 38.7591C94.6598 38.7591 94.8689 38.7455 95.0961 38.7182V40.2727C94.6689 40.3182 94.3143 40.3409 94.0325 40.3409C93.3052 40.3409 92.7598 40.1773 92.3961 39.85C92.0416 39.5136 91.8643 38.9136 91.8643 38.05V34.9682H90.5825V33.4545H91.8643V31.7773L93.5552 31.2045V33.4545H95.0689V34.9682H93.5552V37.9409ZM99.3812 33.2773C100.036 33.2773 100.622 33.4409 101.14 33.7682C101.668 34.0864 102.077 34.5182 102.368 35.0636C102.658 35.6091 102.804 36.2136 102.804 36.8773C102.804 37.0955 102.786 37.2955 102.749 37.4773H97.4857C97.6221 37.9591 97.863 38.3364 98.2084 38.6091C98.5539 38.8727 98.9948 39.0045 99.5312 39.0045C99.8584 39.0045 100.172 38.9318 100.472 38.7864C100.781 38.6409 101.013 38.4545 101.168 38.2273L102.463 38.9909C102.145 39.4636 101.731 39.8273 101.222 40.0818C100.722 40.3273 100.145 40.45 99.4903 40.45C98.763 40.45 98.1175 40.2955 97.5539 39.9864C96.9903 39.6773 96.5539 39.25 96.2448 38.7045C95.9448 38.1591 95.7948 37.5455 95.7948 36.8636C95.7948 36.1909 95.9448 35.5818 96.2448 35.0364C96.5539 34.4909 96.9812 34.0636 97.5266 33.7545C98.0721 33.4364 98.6903 33.2773 99.3812 33.2773ZM101.222 36.1545C101.149 35.7182 100.945 35.3773 100.608 35.1318C100.281 34.8773 99.8675 34.75 99.3675 34.75C99.0221 34.75 98.7039 34.8136 98.413 34.9409C98.1312 35.0682 97.9039 35.2409 97.7312 35.4591C97.5584 35.6773 97.4675 35.9091 97.4584 36.1545H101.222ZM113.411 36.7273V30.7273H115.197V40.2727H113.67L109.524 33.8091V40.2727H107.738V30.7273H109.524L113.411 36.7273ZM122.853 30.7273V32.4182H118.926V34.7091H122.703V36.4H118.926V40.2727H117.139V30.7273H122.853ZM130.843 30.7273V32.4182H128.211V40.2727H126.438V32.4182H123.82V30.7273H130.843ZM138.626 40.4636C137.98 40.4636 137.38 40.3045 136.826 39.9864C136.28 39.6591 135.844 39.2227 135.517 38.6773C135.198 38.1227 135.039 37.5227 135.039 36.8773C135.039 36.2318 135.198 35.6364 135.517 35.0909C135.844 34.5364 136.28 34.1 136.826 33.7818C137.38 33.4545 137.98 33.2909 138.626 33.2909C139.271 33.2909 139.867 33.4545 140.412 33.7818C140.967 34.1 141.403 34.5364 141.721 35.0909C142.048 35.6364 142.212 36.2318 142.212 36.8773C142.212 37.5227 142.048 38.1227 141.721 38.6773C141.403 39.2227 140.967 39.6591 140.412 39.9864C139.867 40.3045 139.271 40.4636 138.626 40.4636ZM138.612 38.7727C138.957 38.7727 139.276 38.6909 139.567 38.5273C139.857 38.3545 140.089 38.1227 140.262 37.8318C140.435 37.5409 140.521 37.2227 140.521 36.8773C140.521 36.5318 140.435 36.2136 140.262 35.9227C140.089 35.6318 139.857 35.4 139.567 35.2273C139.276 35.0545 138.957 34.9682 138.612 34.9682C138.267 34.9682 137.948 35.0545 137.657 35.2273C137.367 35.4 137.135 35.6318 136.962 35.9227C136.798 36.2136 136.717 36.5318 136.717 36.8773C136.717 37.2227 136.798 37.5409 136.962 37.8318C137.135 38.1227 137.367 38.3545 137.657 38.5273C137.948 38.6909 138.267 38.7727 138.612 38.7727ZM146.755 33.2773C147.155 33.2773 147.56 33.3636 147.969 33.5364C148.387 33.7 148.741 34 149.032 34.4364C149.332 34.8727 149.482 35.4591 149.482 36.1955V40.2727H147.791V36.1955C147.791 35.6864 147.646 35.3227 147.355 35.1045C147.073 34.8773 146.741 34.7636 146.36 34.7636C145.978 34.7636 145.65 34.9 145.378 35.1727C145.114 35.4364 144.982 35.8636 144.982 36.4545V40.2727H143.291V33.4545H144.982V34.0273C145.228 33.8 145.5 33.6182 145.8 33.4818C146.1 33.3455 146.419 33.2773 146.755 33.2773ZM66.9217 49.2773C67.6126 49.2773 68.2172 49.4364 68.7354 49.7545C69.2535 50.0636 69.649 50.4909 69.9217 51.0364C70.2035 51.5818 70.3444 52.1955 70.3444 52.8773C70.3444 53.5591 70.2035 54.1727 69.9217 54.7182C69.649 55.2636 69.2535 55.6909 68.7354 56C68.2172 56.3091 67.6126 56.4636 66.9217 56.4636C66.4763 56.4636 66.049 56.3773 65.6399 56.2045C65.2308 56.0318 64.8672 55.7909 64.549 55.4818V56.2727H62.8581V46.7273H64.549V50.2591C64.8672 49.95 65.2308 49.7091 65.6399 49.5364C66.0581 49.3636 66.4854 49.2773 66.9217 49.2773ZM66.7035 54.8409C67.2763 54.8409 67.7444 54.6591 68.1081 54.2955C68.4808 53.9227 68.6672 53.45 68.6672 52.8773C68.6672 52.3045 68.4808 51.8364 68.1081 51.4727C67.7444 51.1 67.2763 50.9136 66.7035 50.9136C66.1399 50.9136 65.6626 51.0955 65.2717 51.4591C64.8899 51.8227 64.699 52.2909 64.699 52.8636C64.699 53.2455 64.7854 53.5864 64.9581 53.8864C65.1399 54.1864 65.3808 54.4227 65.6808 54.5955C65.9899 54.7591 66.3308 54.8409 66.7035 54.8409ZM73.2315 54.35C73.2315 54.4955 73.2679 54.6 73.3406 54.6636C73.4133 54.7273 73.527 54.7591 73.6815 54.7591C73.7997 54.7591 73.9406 54.7455 74.1042 54.7182V56.2727C73.7679 56.3273 73.4542 56.3545 73.1633 56.3545C72.6361 56.3545 72.2315 56.2182 71.9497 55.9455C71.677 55.6636 71.5406 55.1682 71.5406 54.4591V46.7273H73.2315V54.35ZM78.1276 56.4636C77.4822 56.4636 76.8822 56.3045 76.3276 55.9864C75.7822 55.6591 75.3458 55.2227 75.0185 54.6773C74.7003 54.1227 74.5412 53.5227 74.5412 52.8773C74.5412 52.2318 74.7003 51.6364 75.0185 51.0909C75.3458 50.5364 75.7822 50.1 76.3276 49.7818C76.8822 49.4545 77.4822 49.2909 78.1276 49.2909C78.7731 49.2909 79.3685 49.4545 79.914 49.7818C80.4685 50.1 80.9049 50.5364 81.2231 51.0909C81.5503 51.6364 81.714 52.2318 81.714 52.8773C81.714 53.5227 81.5503 54.1227 81.2231 54.6773C80.9049 55.2227 80.4685 55.6591 79.914 55.9864C79.3685 56.3045 78.7731 56.4636 78.1276 56.4636ZM78.114 54.7727C78.4594 54.7727 78.7776 54.6909 79.0685 54.5273C79.3594 54.3545 79.5912 54.1227 79.764 53.8318C79.9367 53.5409 80.0231 53.2227 80.0231 52.8773C80.0231 52.5318 79.9367 52.2136 79.764 51.9227C79.5912 51.6318 79.3594 51.4 79.0685 51.2273C78.7776 51.0545 78.4594 50.9682 78.114 50.9682C77.7685 50.9682 77.4503 51.0545 77.1594 51.2273C76.8685 51.4 76.6367 51.6318 76.464 51.9227C76.3003 52.2136 76.2185 52.5318 76.2185 52.8773C76.2185 53.2227 76.3003 53.5409 76.464 53.8318C76.6367 54.1227 76.8685 54.3545 77.1594 54.5273C77.4503 54.6909 77.7685 54.7727 78.114 54.7727ZM88.916 54.95C88.5796 55.4136 88.1569 55.7818 87.6478 56.0545C87.1387 56.3273 86.5887 56.4636 85.9978 56.4636C85.3524 56.4636 84.7524 56.3045 84.1978 55.9864C83.6524 55.6591 83.216 55.2227 82.8887 54.6773C82.5705 54.1227 82.4115 53.5227 82.4115 52.8773C82.4115 52.2318 82.5705 51.6364 82.8887 51.0909C83.216 50.5364 83.6524 50.1 84.1978 49.7818C84.7524 49.4545 85.3524 49.2909 85.9978 49.2909C86.5796 49.2909 87.1251 49.4273 87.6342 49.7C88.1433 49.9636 88.566 50.3227 88.9024 50.7773L87.5115 51.7182C87.0842 51.2182 86.5796 50.9682 85.9978 50.9682C85.6524 50.9682 85.3342 51.0545 85.0433 51.2273C84.7524 51.4 84.5205 51.6318 84.3478 51.9227C84.1751 52.2136 84.0887 52.5318 84.0887 52.8773C84.0887 53.2227 84.1751 53.5409 84.3478 53.8318C84.5205 54.1227 84.7524 54.3545 85.0433 54.5273C85.3342 54.6909 85.6524 54.7727 85.9978 54.7727C86.5796 54.7727 87.0842 54.5227 87.5115 54.0227L88.916 54.95ZM96.6268 56.2727H94.5132L92.6041 53.7227L91.6086 54.8136V56.2727H89.9177V46.7273H91.6086V52.3318L94.1723 49.4545H96.5314L93.7496 52.4818L96.6268 56.2727ZM103.764 54.95C103.428 55.4136 103.005 55.7818 102.496 56.0545C101.987 56.3273 101.437 56.4636 100.846 56.4636C100.201 56.4636 99.6006 56.3045 99.046 55.9864C98.5006 55.6591 98.0642 55.2227 97.7369 54.6773C97.4187 54.1227 97.2596 53.5227 97.2596 52.8773C97.2596 52.2318 97.4187 51.6364 97.7369 51.0909C98.0642 50.5364 98.5006 50.1 99.046 49.7818C99.6006 49.4545 100.201 49.2909 100.846 49.2909C101.428 49.2909 101.973 49.4273 102.482 49.7C102.991 49.9636 103.414 50.3227 103.751 50.7773L102.36 51.7182C101.932 51.2182 101.428 50.9682 100.846 50.9682C100.501 50.9682 100.182 51.0545 99.8915 51.2273C99.6006 51.4 99.3687 51.6318 99.196 51.9227C99.0233 52.2136 98.9369 52.5318 98.9369 52.8773C98.9369 53.2227 99.0233 53.5409 99.196 53.8318C99.3687 54.1227 99.6006 54.3545 99.8915 54.5273C100.182 54.6909 100.501 54.7727 100.846 54.7727C101.428 54.7727 101.932 54.5227 102.36 54.0227L103.764 54.95ZM111.035 56.2727H109.358V52.2364C109.358 51.7273 109.213 51.3636 108.922 51.1455C108.64 50.9182 108.304 50.8045 107.913 50.8045C107.604 50.8045 107.322 50.9 107.067 51.0909C106.822 51.2818 106.663 51.5864 106.59 52.0045V56.2727H104.899V46.7273H106.59V50.0273C106.817 49.8091 107.076 49.6364 107.367 49.5091C107.667 49.3818 107.985 49.3182 108.322 49.3182C108.722 49.3182 109.126 49.4045 109.535 49.5773C109.945 49.7409 110.295 50.0364 110.585 50.4636C110.885 50.8909 111.035 51.4682 111.035 52.1955V56.2727ZM117.755 49.4545H119.446V56.2727H117.755V55.6045C117.437 55.8773 117.087 56.0909 116.705 56.2455C116.332 56.3909 115.937 56.4636 115.519 56.4636C114.828 56.4636 114.223 56.3091 113.705 56C113.187 55.6909 112.787 55.2636 112.505 54.7182C112.232 54.1727 112.096 53.5591 112.096 52.8773C112.096 52.1955 112.232 51.5818 112.505 51.0364C112.787 50.4909 113.187 50.0636 113.705 49.7545C114.223 49.4364 114.828 49.2773 115.519 49.2773C115.937 49.2773 116.332 49.3545 116.705 49.5091C117.087 49.6545 117.437 49.8636 117.755 50.1364V49.4545ZM115.737 54.8409C116.11 54.8409 116.446 54.7591 116.746 54.5955C117.055 54.4227 117.296 54.1864 117.469 53.8864C117.651 53.5864 117.742 53.2455 117.742 52.8636C117.742 52.2909 117.546 51.8227 117.155 51.4591C116.773 51.0955 116.301 50.9136 115.737 50.9136C115.164 50.9136 114.692 51.1 114.319 51.4727C113.955 51.8364 113.773 52.3045 113.773 52.8773C113.773 53.45 113.955 53.9227 114.319 54.2955C114.692 54.6591 115.164 54.8409 115.737 54.8409ZM122.058 48.3227C121.74 48.3227 121.49 48.2364 121.308 48.0636C121.126 47.8909 121.035 47.6545 121.035 47.3545C121.035 47.0455 121.126 46.8045 121.308 46.6318C121.49 46.4591 121.74 46.3727 122.058 46.3727C122.376 46.3727 122.626 46.4591 122.808 46.6318C122.99 46.8045 123.081 47.0455 123.081 47.3545C123.081 47.6455 122.985 47.8818 122.795 48.0636C122.613 48.2364 122.367 48.3227 122.058 48.3227ZM121.199 56.2727V49.4545H122.89V56.2727H121.199ZM128.045 49.2773C128.445 49.2773 128.849 49.3636 129.259 49.5364C129.677 49.7 130.031 50 130.322 50.4364C130.622 50.8727 130.772 51.4591 130.772 52.1955V56.2727H129.081V52.1955C129.081 51.6864 128.936 51.3227 128.645 51.1045C128.363 50.8773 128.031 50.7636 127.649 50.7636C127.268 50.7636 126.94 50.9 126.668 51.1727C126.404 51.4364 126.272 51.8636 126.272 52.4545V56.2727H124.581V49.4545H126.272V50.0273C126.518 49.8 126.79 49.6182 127.09 49.4818C127.39 49.3455 127.709 49.2773 128.045 49.2773Z" fill="#E6E8EB" fill-opacity="0.8"/>
<rect x="0.453246" y="0.286254" width="49.4275" height="64.4275" rx="24.7137" stroke="white" stroke-width="0.572507"/>
<path d="M31.4352 34.8182H33.8216V38.7636H31.4352V43.0909H27.2989V38.7636H16.3852V34.8182L23.3534 20.8182H27.967L21.0307 34.8182H27.2989V29.8545H31.4352V34.8182Z" fill="white"/>
</svg>
