<svg width="166" height="65" viewBox="0 0 166 65" fill="none" xmlns="http://www.w3.org/2000/svg">
<path d="M68.3115 11.3091C69.2327 11.3091 70.0388 11.5152 70.7297 11.9273C71.4327 12.3394 71.9661 12.9091 72.3297 13.6364C72.7054 14.3636 72.8933 15.1818 72.8933 16.0909C72.8933 17 72.7054 17.8182 72.3297 18.5455C71.9661 19.2727 71.4327 19.8485 70.7297 20.2727C70.0388 20.6849 69.2327 20.8909 68.3115 20.8909C67.7661 20.8909 67.2388 20.7939 66.7297 20.6C66.2327 20.3939 65.7721 20.1091 65.3479 19.7455V24.2727H63.0933V11.5455H65.3479V12.4364C65.76 12.0727 66.2206 11.7939 66.7297 11.6C67.2388 11.4061 67.7661 11.3091 68.3115 11.3091ZM68.0388 18.7091C68.7903 18.7091 69.4085 18.4667 69.8933 17.9818C70.3903 17.4849 70.6388 16.8545 70.6388 16.0909C70.6388 15.3273 70.3903 14.703 69.8933 14.2182C69.4085 13.7212 68.7903 13.4727 68.0388 13.4727C67.5418 13.4727 67.0873 13.5879 66.6751 13.8182C66.263 14.0364 65.9357 14.3455 65.6933 14.7455C65.463 15.1455 65.3479 15.6 65.3479 16.1091C65.3479 16.8727 65.6024 17.497 66.1115 17.9818C66.6327 18.4667 67.2751 18.7091 68.0388 18.7091ZM79.8214 11.3636L79.6578 13.4909C79.5851 13.4667 79.4578 13.4545 79.276 13.4545C78.5245 13.4545 77.9002 13.6727 77.4033 14.1091C76.9184 14.5455 76.676 15.1394 76.676 15.8909V20.6364H74.4214V11.5455H76.676V13.0727C76.8821 12.5879 77.2336 12.1818 77.7305 11.8545C78.2275 11.5273 78.8275 11.3636 79.5305 11.3636H79.8214ZM82.5986 10.0364C82.1743 10.0364 81.841 9.92122 81.5986 9.69091C81.3562 9.46061 81.2349 9.14546 81.2349 8.74546C81.2349 8.33334 81.3562 8.01213 81.5986 7.78182C81.841 7.55152 82.1743 7.43637 82.5986 7.43637C83.0228 7.43637 83.3562 7.55152 83.5986 7.78182C83.841 8.01213 83.9622 8.33334 83.9622 8.74546C83.9622 9.13334 83.8349 9.44849 83.5804 9.69091C83.338 9.92122 83.0107 10.0364 82.5986 10.0364ZM81.4531 20.6364V11.5455H83.7077V20.6364H81.4531ZM93.7712 18.8727C93.3227 19.4909 92.759 19.9818 92.0803 20.3455C91.4015 20.7091 90.6681 20.8909 89.8803 20.8909C89.0196 20.8909 88.2196 20.6788 87.4803 20.2545C86.753 19.8182 86.1712 19.2364 85.7348 18.5091C85.3106 17.7697 85.0984 16.9697 85.0984 16.1091C85.0984 15.2485 85.3106 14.4545 85.7348 13.7273C86.1712 12.9879 86.753 12.4061 87.4803 11.9818C88.2196 11.5455 89.0196 11.3273 89.8803 11.3273C90.656 11.3273 91.3833 11.5091 92.0621 11.8727C92.7409 12.2242 93.3045 12.703 93.753 13.3091L91.8984 14.5636C91.3287 13.897 90.656 13.5636 89.8803 13.5636C89.4196 13.5636 88.9954 13.6788 88.6075 13.9091C88.2196 14.1394 87.9106 14.4485 87.6803 14.8364C87.45 15.2242 87.3348 15.6485 87.3348 16.1091C87.3348 16.5697 87.45 16.9939 87.6803 17.3818C87.9106 17.7697 88.2196 18.0788 88.6075 18.3091C88.9954 18.5273 89.4196 18.6364 89.8803 18.6364C90.656 18.6364 91.3287 18.303 91.8984 17.6364L93.7712 18.8727ZM96.2705 10.0364C95.8462 10.0364 95.5129 9.92122 95.2705 9.69091C95.028 9.46061 94.9068 9.14546 94.9068 8.74546C94.9068 8.33334 95.028 8.01213 95.2705 7.78182C95.5129 7.55152 95.8462 7.43637 96.2705 7.43637C96.6947 7.43637 97.028 7.55152 97.2705 7.78182C97.5129 8.01213 97.6341 8.33334 97.6341 8.74546C97.6341 9.13334 97.5068 9.44849 97.2523 9.69091C97.0098 9.92122 96.6826 10.0364 96.2705 10.0364ZM95.125 20.6364V11.5455H97.3795V20.6364H95.125ZM104.253 11.3091C104.786 11.3091 105.325 11.4242 105.871 11.6545C106.428 11.8727 106.901 12.2727 107.289 12.8545C107.689 13.4364 107.889 14.2182 107.889 15.2V20.6364H105.635V15.2C105.635 14.5212 105.441 14.0364 105.053 13.7455C104.677 13.4424 104.235 13.2909 103.725 13.2909C103.216 13.2909 102.78 13.4727 102.416 13.8364C102.065 14.1879 101.889 14.7576 101.889 15.5455V20.6364H99.6345V11.5455H101.889V12.3091C102.216 12.0061 102.58 11.7636 102.98 11.5818C103.38 11.4 103.804 11.3091 104.253 11.3091ZM116.83 11.5455H119.084V20.1818C119.084 21.0424 118.866 21.8 118.43 22.4545C118.005 23.1091 117.412 23.6121 116.648 23.9636C115.884 24.3273 115.03 24.5091 114.084 24.5091C113.03 24.5091 112.072 24.303 111.212 23.8909C110.351 23.4909 109.745 22.9636 109.393 22.3091L111.321 21.2C111.502 21.5515 111.842 21.8424 112.339 22.0727C112.836 22.3152 113.436 22.4364 114.139 22.4364C114.915 22.4364 115.557 22.2242 116.066 21.8C116.575 21.3879 116.83 20.8485 116.83 20.1818V19.7636C116.418 20.1273 115.957 20.4061 115.448 20.6C114.939 20.7939 114.412 20.8909 113.866 20.8909C112.945 20.8909 112.139 20.6849 111.448 20.2727C110.757 19.8606 110.224 19.2909 109.848 18.5636C109.484 17.8364 109.302 17.0182 109.302 16.1091C109.302 15.2 109.484 14.3818 109.848 13.6545C110.224 12.9273 110.757 12.3576 111.448 11.9455C112.139 11.5212 112.945 11.3091 113.866 11.3091C114.412 11.3091 114.933 11.4121 115.43 11.6182C115.939 11.8121 116.405 12.0849 116.83 12.4364V11.5455ZM114.157 18.7273C114.654 18.7273 115.102 18.6182 115.502 18.4C115.915 18.1697 116.236 17.8545 116.466 17.4545C116.708 17.0545 116.83 16.6 116.83 16.0909C116.83 15.3273 116.569 14.703 116.048 14.2182C115.539 13.7333 114.908 13.4909 114.157 13.4909C113.393 13.4909 112.763 13.7394 112.266 14.2364C111.781 14.7212 111.539 15.3455 111.539 16.1091C111.539 16.8727 111.781 17.503 112.266 18C112.763 18.4849 113.393 18.7273 114.157 18.7273Z" fill="#E6E8EB"/>
<path d="M64.2751 35.3636C64.2751 35.5545 64.3797 35.7 64.5888 35.8C64.807 35.8909 65.1479 35.9864 65.6115 36.0864C66.1388 36.1955 66.5797 36.3182 66.9342 36.4545C67.2888 36.5909 67.5933 36.8091 67.8479 37.1091C68.1115 37.4 68.2433 37.7955 68.2433 38.2955C68.2433 38.7409 68.107 39.1273 67.8342 39.4545C67.5706 39.7818 67.2161 40.0318 66.7706 40.2045C66.3251 40.3682 65.8388 40.45 65.3115 40.45C64.5933 40.45 63.9751 40.3136 63.457 40.0409C62.9479 39.7682 62.5706 39.3773 62.3251 38.8682L63.7161 38.1455C63.9615 38.7727 64.4933 39.0864 65.3115 39.0864C65.6661 39.0864 65.9706 39.0182 66.2251 38.8818C66.4797 38.7455 66.607 38.55 66.607 38.2955C66.607 38.0773 66.4888 37.9182 66.2524 37.8182C66.0251 37.7091 65.6524 37.5909 65.1342 37.4636C64.5979 37.3364 64.1615 37.2091 63.8251 37.0818C63.4888 36.9545 63.1979 36.7591 62.9524 36.4955C62.707 36.2227 62.5842 35.8636 62.5842 35.4182C62.5842 34.9818 62.707 34.6045 62.9524 34.2864C63.1979 33.9591 63.5297 33.7091 63.9479 33.5364C64.3661 33.3636 64.8251 33.2773 65.3251 33.2773C65.9161 33.2773 66.4433 33.4 66.907 33.6455C67.3797 33.8909 67.7433 34.2409 67.9979 34.6955L66.6206 35.3909C66.3842 34.8818 65.9524 34.6273 65.3251 34.6273C65.007 34.6273 64.7524 34.6955 64.5615 34.8318C64.3706 34.9591 64.2751 35.1364 64.2751 35.3636ZM72.4922 33.2773C73.1468 33.2773 73.7331 33.4409 74.2513 33.7682C74.7786 34.0864 75.1877 34.5182 75.4786 35.0636C75.7695 35.6091 75.915 36.2136 75.915 36.8773C75.915 37.0955 75.8968 37.2955 75.8604 37.4773H70.5968C70.7331 37.9591 70.974 38.3364 71.3195 38.6091C71.665 38.8727 72.1059 39.0045 72.6422 39.0045C72.9695 39.0045 73.2831 38.9318 73.5831 38.7864C73.8922 38.6409 74.124 38.4545 74.2786 38.2273L75.574 38.9909C75.2559 39.4636 74.8422 39.8273 74.3331 40.0818C73.8331 40.3273 73.2559 40.45 72.6013 40.45C71.874 40.45 71.2286 40.2955 70.665 39.9864C70.1013 39.6773 69.665 39.25 69.3559 38.7045C69.0559 38.1591 68.9059 37.5455 68.9059 36.8636C68.9059 36.1909 69.0559 35.5818 69.3559 35.0364C69.665 34.4909 70.0922 34.0636 70.6377 33.7545C71.1831 33.4364 71.8013 33.2773 72.4922 33.2773ZM74.3331 36.1545C74.2604 35.7182 74.0559 35.3773 73.7195 35.1318C73.3922 34.8773 72.9786 34.75 72.4786 34.75C72.1331 34.75 71.815 34.8136 71.524 34.9409C71.2422 35.0682 71.015 35.2409 70.8422 35.4591C70.6695 35.6773 70.5786 35.9091 70.5695 36.1545H74.3331ZM79.2773 37.9409C79.2773 38.25 79.35 38.4636 79.4955 38.5818C79.6409 38.7 79.8727 38.7591 80.1909 38.7591C80.3818 38.7591 80.5909 38.7455 80.8182 38.7182V40.2727C80.3909 40.3182 80.0364 40.3409 79.7545 40.3409C79.0273 40.3409 78.4818 40.1773 78.1182 39.85C77.7636 39.5136 77.5864 38.9136 77.5864 38.05V34.9682H76.3045V33.4545H77.5864V31.7773L79.2773 31.2045V33.4545H80.7909V34.9682H79.2773V37.9409ZM89.7008 33.2773C90.3917 33.2773 90.9962 33.4318 91.5144 33.7409C92.0417 34.05 92.4417 34.4773 92.7144 35.0227C92.9962 35.5682 93.1371 36.1818 93.1371 36.8636C93.1371 37.5455 92.9962 38.1591 92.7144 38.7045C92.4417 39.25 92.0417 39.6818 91.5144 40C90.9962 40.3091 90.3917 40.4636 89.7008 40.4636C89.2917 40.4636 88.8962 40.3909 88.5144 40.2455C88.1417 40.0909 87.7962 39.8773 87.4781 39.6045V43H85.7871V33.4545H87.4781V34.1227C87.7871 33.85 88.1326 33.6409 88.5144 33.4955C88.8962 33.35 89.2917 33.2773 89.7008 33.2773ZM89.4962 38.8273C90.0599 38.8273 90.5235 38.6455 90.8871 38.2818C91.2599 37.9091 91.4462 37.4364 91.4462 36.8636C91.4462 36.2909 91.2599 35.8227 90.8871 35.4591C90.5235 35.0864 90.0599 34.9 89.4962 34.9C89.1235 34.9 88.7826 34.9864 88.4735 35.1591C88.1644 35.3227 87.919 35.5545 87.7371 35.8545C87.5644 36.1545 87.4781 36.4955 87.4781 36.8773C87.4781 37.45 87.669 37.9182 88.0508 38.2818C88.4417 38.6455 88.9235 38.8273 89.4962 38.8273ZM98.3332 33.3182L98.2105 34.9136C98.156 34.8955 98.0605 34.8864 97.9241 34.8864C97.3605 34.8864 96.8923 35.05 96.5196 35.3773C96.156 35.7045 95.9741 36.15 95.9741 36.7136V40.2727H94.2832V33.4545H95.9741V34.6C96.1287 34.2364 96.3923 33.9318 96.7651 33.6864C97.1378 33.4409 97.5878 33.3182 98.1151 33.3182H98.3332ZM100.416 32.3227C100.098 32.3227 99.8479 32.2364 99.6661 32.0636C99.4843 31.8909 99.3934 31.6545 99.3934 31.3545C99.3934 31.0455 99.4843 30.8045 99.6661 30.6318C99.8479 30.4591 100.098 30.3727 100.416 30.3727C100.734 30.3727 100.984 30.4591 101.166 30.6318C101.348 30.8045 101.439 31.0455 101.439 31.3545C101.439 31.6455 101.343 31.8818 101.152 32.0636C100.971 32.2364 100.725 32.3227 100.416 32.3227ZM99.557 40.2727V33.4545H101.248V40.2727H99.557ZM108.796 38.95C108.459 39.4136 108.036 39.7818 107.527 40.0545C107.018 40.3273 106.468 40.4636 105.877 40.4636C105.232 40.4636 104.632 40.3045 104.077 39.9864C103.532 39.6591 103.096 39.2227 102.768 38.6773C102.45 38.1227 102.291 37.5227 102.291 36.8773C102.291 36.2318 102.45 35.6364 102.768 35.0909C103.096 34.5364 103.532 34.1 104.077 33.7818C104.632 33.4545 105.232 33.2909 105.877 33.2909C106.459 33.2909 107.005 33.4273 107.514 33.7C108.023 33.9636 108.446 34.3227 108.782 34.7773L107.391 35.7182C106.964 35.2182 106.459 34.9682 105.877 34.9682C105.532 34.9682 105.214 35.0545 104.923 35.2273C104.632 35.4 104.4 35.6318 104.227 35.9227C104.055 36.2136 103.968 36.5318 103.968 36.8773C103.968 37.2227 104.055 37.5409 104.227 37.8318C104.4 38.1227 104.632 38.3545 104.923 38.5273C105.214 38.6909 105.532 38.7727 105.877 38.7727C106.459 38.7727 106.964 38.5227 107.391 38.0227L108.796 38.95ZM112.922 33.2773C113.576 33.2773 114.163 33.4409 114.681 33.7682C115.208 34.0864 115.617 34.5182 115.908 35.0636C116.199 35.6091 116.345 36.2136 116.345 36.8773C116.345 37.0955 116.326 37.2955 116.29 37.4773H111.026C111.163 37.9591 111.404 38.3364 111.749 38.6091C112.095 38.8727 112.536 39.0045 113.072 39.0045C113.399 39.0045 113.713 38.9318 114.013 38.7864C114.322 38.6409 114.554 38.4545 114.708 38.2273L116.004 38.9909C115.686 39.4636 115.272 39.8273 114.763 40.0818C114.263 40.3273 113.686 40.45 113.031 40.45C112.304 40.45 111.658 40.2955 111.095 39.9864C110.531 39.6773 110.095 39.25 109.786 38.7045C109.486 38.1591 109.336 37.5455 109.336 36.8636C109.336 36.1909 109.486 35.5818 109.786 35.0364C110.095 34.4909 110.522 34.0636 111.067 33.7545C111.613 33.4364 112.231 33.2773 112.922 33.2773ZM114.763 36.1545C114.69 35.7182 114.486 35.3773 114.149 35.1318C113.822 34.8773 113.408 34.75 112.908 34.75C112.563 34.75 112.245 34.8136 111.954 34.9409C111.672 35.0682 111.445 35.2409 111.272 35.4591C111.099 35.6773 111.008 35.9091 110.999 36.1545H114.763ZM118.887 35.3636C118.887 35.5545 118.992 35.7 119.201 35.8C119.419 35.8909 119.76 35.9864 120.224 36.0864C120.751 36.1955 121.192 36.3182 121.546 36.4545C121.901 36.5909 122.205 36.8091 122.46 37.1091C122.724 37.4 122.855 37.7955 122.855 38.2955C122.855 38.7409 122.719 39.1273 122.446 39.4545C122.183 39.7818 121.828 40.0318 121.383 40.2045C120.937 40.3682 120.451 40.45 119.924 40.45C119.205 40.45 118.587 40.3136 118.069 40.0409C117.56 39.7682 117.183 39.3773 116.937 38.8682L118.328 38.1455C118.574 38.7727 119.105 39.0864 119.924 39.0864C120.278 39.0864 120.583 39.0182 120.837 38.8818C121.092 38.7455 121.219 38.55 121.219 38.2955C121.219 38.0773 121.101 37.9182 120.864 37.8182C120.637 37.7091 120.264 37.5909 119.746 37.4636C119.21 37.3364 118.774 37.2091 118.437 37.0818C118.101 36.9545 117.81 36.7591 117.564 36.4955C117.319 36.2227 117.196 35.8636 117.196 35.4182C117.196 34.9818 117.319 34.6045 117.564 34.2864C117.81 33.9591 118.142 33.7091 118.56 33.5364C118.978 33.3636 119.437 33.2773 119.937 33.2773C120.528 33.2773 121.055 33.4 121.519 33.6455C121.992 33.8909 122.355 34.2409 122.61 34.6955L121.233 35.3909C120.996 34.8818 120.564 34.6273 119.937 34.6273C119.619 34.6273 119.364 34.6955 119.174 34.8318C118.983 34.9591 118.887 35.1364 118.887 35.3636ZM133.014 33.4545H134.705V40.2727H133.014V39.6045C132.696 39.8773 132.346 40.0909 131.964 40.2455C131.591 40.3909 131.196 40.4636 130.777 40.4636C130.087 40.4636 129.482 40.3091 128.964 40C128.446 39.6909 128.046 39.2636 127.764 38.7182C127.491 38.1727 127.355 37.5591 127.355 36.8773C127.355 36.1955 127.491 35.5818 127.764 35.0364C128.046 34.4909 128.446 34.0636 128.964 33.7545C129.482 33.4364 130.087 33.2773 130.777 33.2773C131.196 33.2773 131.591 33.3545 131.964 33.5091C132.346 33.6545 132.696 33.8636 133.014 34.1364V33.4545ZM130.996 38.8409C131.368 38.8409 131.705 38.7591 132.005 38.5955C132.314 38.4227 132.555 38.1864 132.727 37.8864C132.909 37.5864 133 37.2455 133 36.8636C133 36.2909 132.805 35.8227 132.414 35.4591C132.032 35.0955 131.559 34.9136 130.996 34.9136C130.423 34.9136 129.95 35.1 129.577 35.4727C129.214 35.8364 129.032 36.3045 129.032 36.8773C129.032 37.45 129.214 37.9227 129.577 38.2955C129.95 38.6591 130.423 38.8409 130.996 38.8409ZM139.908 33.2773C140.308 33.2773 140.712 33.3636 141.121 33.5364C141.54 33.7 141.894 34 142.185 34.4364C142.485 34.8727 142.635 35.4591 142.635 36.1955V40.2727H140.944V36.1955C140.944 35.6864 140.799 35.3227 140.508 35.1045C140.226 34.8773 139.894 34.7636 139.512 34.7636C139.13 34.7636 138.803 34.9 138.53 35.1727C138.267 35.4364 138.135 35.8636 138.135 36.4545V40.2727H136.444V33.4545H138.135V34.0273C138.38 33.8 138.653 33.6182 138.953 33.4818C139.253 33.3455 139.571 33.2773 139.908 33.2773ZM149.313 30.7273H151.004V40.2727H149.313V39.6182C149.004 39.8909 148.659 40.1 148.277 40.2455C147.895 40.3909 147.5 40.4636 147.09 40.4636C146.4 40.4636 145.795 40.3091 145.277 40C144.759 39.6909 144.359 39.2636 144.077 38.7182C143.804 38.1727 143.668 37.5591 143.668 36.8773C143.668 36.1955 143.804 35.5818 144.077 35.0364C144.359 34.4909 144.759 34.0636 145.277 33.7545C145.795 33.4364 146.4 33.2773 147.09 33.2773C147.5 33.2773 147.89 33.3545 148.263 33.5091C148.645 33.6545 148.995 33.8591 149.313 34.1227V30.7273ZM147.309 38.8409C147.681 38.8409 148.018 38.7591 148.318 38.5955C148.627 38.4227 148.868 38.1864 149.04 37.8864C149.222 37.5864 149.313 37.2455 149.313 36.8636C149.313 36.2909 149.118 35.8227 148.727 35.4591C148.345 35.0955 147.872 34.9136 147.309 34.9136C146.736 34.9136 146.263 35.1 145.89 35.4727C145.527 35.8364 145.345 36.3045 145.345 36.8773C145.345 37.45 145.527 37.9227 145.89 38.2955C146.263 38.6591 146.736 38.8409 147.309 38.8409ZM66.8524 49.3182L66.7297 50.9136C66.6751 50.8955 66.5797 50.8864 66.4433 50.8864C65.8797 50.8864 65.4115 51.05 65.0388 51.3773C64.6751 51.7045 64.4933 52.15 64.4933 52.7136V56.2727H62.8024V49.4545H64.4933V50.6C64.6479 50.2364 64.9115 49.9318 65.2842 49.6864C65.657 49.4409 66.107 49.3182 66.6342 49.3182H66.8524ZM70.761 56.4636C70.1156 56.4636 69.5156 56.3045 68.961 55.9864C68.4156 55.6591 67.9792 55.2227 67.652 54.6773C67.3338 54.1227 67.1747 53.5227 67.1747 52.8773C67.1747 52.2318 67.3338 51.6364 67.652 51.0909C67.9792 50.5364 68.4156 50.1 68.961 49.7818C69.5156 49.4545 70.1156 49.2909 70.761 49.2909C71.4065 49.2909 72.002 49.4545 72.5474 49.7818C73.102 50.1 73.5383 50.5364 73.8565 51.0909C74.1838 51.6364 74.3474 52.2318 74.3474 52.8773C74.3474 53.5227 74.1838 54.1227 73.8565 54.6773C73.5383 55.2227 73.102 55.6591 72.5474 55.9864C72.002 56.3045 71.4065 56.4636 70.761 56.4636ZM70.7474 54.7727C71.0929 54.7727 71.411 54.6909 71.702 54.5273C71.9929 54.3545 72.2247 54.1227 72.3974 53.8318C72.5701 53.5409 72.6565 53.2227 72.6565 52.8773C72.6565 52.5318 72.5701 52.2136 72.3974 51.9227C72.2247 51.6318 71.9929 51.4 71.702 51.2273C71.411 51.0545 71.0929 50.9682 70.7474 50.9682C70.402 50.9682 70.0838 51.0545 69.7929 51.2273C69.502 51.4 69.2701 51.6318 69.0974 51.9227C68.9338 52.2136 68.852 52.5318 68.852 52.8773C68.852 53.2227 68.9338 53.5409 69.0974 53.8318C69.2701 54.1227 69.502 54.3545 69.7929 54.5273C70.0838 54.6909 70.402 54.7727 70.7474 54.7727ZM80.2339 49.4545H82.0067L79.6203 56.2864C79.2658 57.2227 78.7749 57.9227 78.1476 58.3864C77.5294 58.8591 76.7976 59.0636 75.9521 59V57.3636C76.0067 57.3727 76.0885 57.3773 76.1976 57.3773C76.9249 57.3773 77.493 56.9364 77.9021 56.0545L74.9021 49.4545H76.7158L78.7203 53.7909L80.2339 49.4545ZM88.3094 49.4545H90.0004V56.2727H88.3094V55.6045C87.9913 55.8773 87.6413 56.0909 87.2594 56.2455C86.8867 56.3909 86.4913 56.4636 86.0731 56.4636C85.3822 56.4636 84.7776 56.3091 84.2594 56C83.7413 55.6909 83.3413 55.2636 83.0594 54.7182C82.7867 54.1727 82.6504 53.5591 82.6504 52.8773C82.6504 52.1955 82.7867 51.5818 83.0594 51.0364C83.3413 50.4909 83.7413 50.0636 84.2594 49.7545C84.7776 49.4364 85.3822 49.2773 86.0731 49.2773C86.4913 49.2773 86.8867 49.3545 87.2594 49.5091C87.6413 49.6545 87.9913 49.8636 88.3094 50.1364V49.4545ZM86.2913 54.8409C86.664 54.8409 87.0004 54.7591 87.3004 54.5955C87.6094 54.4227 87.8504 54.1864 88.0231 53.8864C88.2049 53.5864 88.2958 53.2455 88.2958 52.8636C88.2958 52.2909 88.1004 51.8227 87.7094 51.4591C87.3276 51.0955 86.8549 50.9136 86.2913 50.9136C85.7185 50.9136 85.2458 51.1 84.8731 51.4727C84.5094 51.8364 84.3276 52.3045 84.3276 52.8773C84.3276 53.45 84.5094 53.9227 84.8731 54.2955C85.2458 54.6591 85.7185 54.8409 86.2913 54.8409ZM93.2309 54.35C93.2309 54.4955 93.2673 54.6 93.34 54.6636C93.4127 54.7273 93.5264 54.7591 93.6809 54.7591C93.7991 54.7591 93.94 54.7455 94.1036 54.7182V56.2727C93.7673 56.3273 93.4536 56.3545 93.1627 56.3545C92.6354 56.3545 92.2309 56.2182 91.9491 55.9455C91.6764 55.6636 91.54 55.1682 91.54 54.4591V46.7273H93.2309V54.35ZM97.7476 53.9409C97.7476 54.25 97.8204 54.4636 97.9658 54.5818C98.1113 54.7 98.3431 54.7591 98.6613 54.7591C98.8522 54.7591 99.0613 54.7455 99.2885 54.7182V56.2727C98.8613 56.3182 98.5067 56.3409 98.2249 56.3409C97.4976 56.3409 96.9522 56.1773 96.5885 55.85C96.234 55.5136 96.0567 54.9136 96.0567 54.05V50.9682H94.7749V49.4545H96.0567V47.7773L97.7476 47.2045V49.4545H99.2613V50.9682H97.7476V53.9409ZM101.521 48.3227C101.203 48.3227 100.953 48.2364 100.771 48.0636C100.59 47.8909 100.499 47.6545 100.499 47.3545C100.499 47.0455 100.59 46.8045 100.771 46.6318C100.953 46.4591 101.203 46.3727 101.521 46.3727C101.84 46.3727 102.09 46.4591 102.271 46.6318C102.453 46.8045 102.544 47.0455 102.544 47.3545C102.544 47.6455 102.449 47.8818 102.258 48.0636C102.076 48.2364 101.83 48.3227 101.521 48.3227ZM100.662 56.2727V49.4545H102.353V56.2727H100.662ZM106.983 49.2773C107.637 49.2773 108.224 49.4409 108.742 49.7682C109.269 50.0864 109.678 50.5182 109.969 51.0636C110.26 51.6091 110.405 52.2136 110.405 52.8773C110.405 53.0955 110.387 53.2955 110.351 53.4773H105.087C105.224 53.9591 105.464 54.3364 105.81 54.6091C106.155 54.8727 106.596 55.0045 107.133 55.0045C107.46 55.0045 107.774 54.9318 108.074 54.7864C108.383 54.6409 108.614 54.4545 108.769 54.2273L110.064 54.9909C109.746 55.4636 109.333 55.8273 108.824 56.0818C108.324 56.3273 107.746 56.45 107.092 56.45C106.364 56.45 105.719 56.2955 105.155 55.9864C104.592 55.6773 104.155 55.25 103.846 54.7045C103.546 54.1591 103.396 53.5455 103.396 52.8636C103.396 52.1909 103.546 51.5818 103.846 51.0364C104.155 50.4909 104.583 50.0636 105.128 49.7545C105.674 49.4364 106.292 49.2773 106.983 49.2773ZM108.824 52.1545C108.751 51.7182 108.546 51.3773 108.21 51.1318C107.883 50.8773 107.469 50.75 106.969 50.75C106.624 50.75 106.305 50.8136 106.014 50.9409C105.733 51.0682 105.505 51.2409 105.333 51.4591C105.16 51.6773 105.069 51.9091 105.06 52.1545H108.824ZM112.948 51.3636C112.948 51.5545 113.052 51.7 113.262 51.8C113.48 51.8909 113.821 51.9864 114.284 52.0864C114.812 52.1955 115.252 52.3182 115.607 52.4545C115.962 52.5909 116.266 52.8091 116.521 53.1091C116.784 53.4 116.916 53.7955 116.916 54.2955C116.916 54.7409 116.78 55.1273 116.507 55.4545C116.243 55.7818 115.889 56.0318 115.443 56.2045C114.998 56.3682 114.512 56.45 113.984 56.45C113.266 56.45 112.648 56.3136 112.13 56.0409C111.621 55.7682 111.243 55.3773 110.998 54.8682L112.389 54.1455C112.634 54.7727 113.166 55.0864 113.984 55.0864C114.339 55.0864 114.643 55.0182 114.898 54.8818C115.152 54.7455 115.28 54.55 115.28 54.2955C115.28 54.0773 115.162 53.9182 114.925 53.8182C114.698 53.7091 114.325 53.5909 113.807 53.4636C113.271 53.3364 112.834 53.2091 112.498 53.0818C112.162 52.9545 111.871 52.7591 111.625 52.4955C111.38 52.2227 111.257 51.8636 111.257 51.4182C111.257 50.9818 111.38 50.6045 111.625 50.2864C111.871 49.9591 112.202 49.7091 112.621 49.5364C113.039 49.3636 113.498 49.2773 113.998 49.2773C114.589 49.2773 115.116 49.4 115.58 49.6455C116.052 49.8909 116.416 50.2409 116.671 50.6955L115.293 51.3909C115.057 50.8818 114.625 50.6273 113.998 50.6273C113.68 50.6273 113.425 50.6955 113.234 50.8318C113.043 50.9591 112.948 51.1364 112.948 51.3636Z" fill="#E6E8EB" fill-opacity="0.8"/>
<rect x="0.397582" y="0.286254" width="49.4275" height="64.4275" rx="24.7137" stroke="white" stroke-width="0.572507"/>
<path d="M30.5205 31.2545C31.3902 31.8697 32.0689 32.6333 32.5568 33.5455C33.0447 34.4364 33.2886 35.4121 33.2886 36.4727C33.2886 37.7879 32.9174 38.9758 32.175 40.0364C31.4538 41.097 30.4568 41.9349 29.1841 42.55C27.9326 43.1439 26.5326 43.4409 24.9841 43.4409C23.5417 43.4409 22.2053 43.1652 20.975 42.6136C19.7659 42.0621 18.7902 41.3091 18.0477 40.3545C17.3053 39.3788 16.9023 38.2864 16.8386 37.0773L21.1341 36.7591C21.325 37.5652 21.7811 38.2333 22.5023 38.7636C23.2235 39.2939 24.0508 39.5591 24.9841 39.5591C26.1932 39.5591 27.1902 39.2515 27.975 38.6364C28.7599 38.0212 29.1523 37.2364 29.1523 36.2818C29.1523 35.3273 28.7599 34.5424 27.975 33.9273C27.1902 33.3121 26.1932 33.0045 24.9841 33.0045H23.8068L23.8386 29.6318H24.9841C26.0447 29.6318 26.9144 29.3773 27.5932 28.8682C28.2932 28.3591 28.6432 27.7015 28.6432 26.8955C28.6432 26.0894 28.2932 25.4318 27.5932 24.9227C26.8932 24.3924 26.0023 24.1273 24.9205 24.1273C24.1568 24.1273 23.4462 24.3076 22.7886 24.6682C22.1311 25.0288 21.6644 25.4955 21.3886 26.0682L17.2841 25.8136C17.4326 24.7955 17.8568 23.8727 18.5568 23.0455C19.278 22.2182 20.1902 21.5712 21.2932 21.1045C22.3962 20.6379 23.6053 20.4045 24.9205 20.4045C26.4053 20.4045 27.7311 20.6909 28.8977 21.2636C30.0856 21.8152 31.0083 22.5894 31.6659 23.5864C32.3447 24.5621 32.6841 25.6652 32.6841 26.8955C32.6841 27.7652 32.4932 28.5712 32.1114 29.3136C31.7508 30.0561 31.2205 30.703 30.5205 31.2545Z" fill="white"/>
</svg>
