<svg width="166" height="65" viewBox="0 0 166 65" fill="none" xmlns="http://www.w3.org/2000/svg">
<path d="M70.1468 7.90909H72.4013V20.6364H70.1468V19.7636C69.7346 20.1273 69.274 20.4061 68.7649 20.6C68.2558 20.7939 67.7286 20.8909 67.1831 20.8909C66.2619 20.8909 65.4558 20.6849 64.7649 20.2727C64.074 19.8606 63.5407 19.2909 63.1649 18.5636C62.8013 17.8364 62.6195 17.0182 62.6195 16.1091C62.6195 15.2 62.8013 14.3818 63.1649 13.6545C63.5407 12.9273 64.074 12.3576 64.7649 11.9455C65.4558 11.5212 66.2619 11.3091 67.1831 11.3091C67.7286 11.3091 68.2498 11.4121 68.7468 11.6182C69.2558 11.8121 69.7225 12.0849 70.1468 12.4364V7.90909ZM67.474 18.7273C67.971 18.7273 68.4195 18.6182 68.8195 18.4C69.2316 18.1697 69.5528 17.8545 69.7831 17.4545C70.0255 17.0545 70.1468 16.6 70.1468 16.0909C70.1468 15.3273 69.8861 14.703 69.3649 14.2182C68.8558 13.7333 68.2255 13.4909 67.474 13.4909C66.7104 13.4909 66.0801 13.7394 65.5831 14.2364C65.0983 14.7212 64.8558 15.3455 64.8558 16.1091C64.8558 16.8727 65.0983 17.503 65.5831 18C66.0801 18.4849 66.7104 18.7273 67.474 18.7273ZM78.6385 11.3091C79.5112 11.3091 80.2931 11.5273 80.984 11.9636C81.687 12.3879 82.2325 12.9636 82.6203 13.6909C83.0082 14.4182 83.2021 15.2242 83.2021 16.1091C83.2021 16.4 83.1779 16.6667 83.1294 16.9091H76.1112C76.2931 17.5515 76.6143 18.0545 77.0749 18.4182C77.5355 18.7697 78.1234 18.9455 78.8385 18.9455C79.2749 18.9455 79.6931 18.8485 80.0931 18.6545C80.5052 18.4606 80.8143 18.2121 81.0203 17.9091L82.7476 18.9273C82.3234 19.5576 81.7718 20.0424 81.0931 20.3818C80.4264 20.7091 79.6567 20.8727 78.784 20.8727C77.8143 20.8727 76.9537 20.6667 76.2021 20.2545C75.4506 19.8424 74.8688 19.2727 74.4567 18.5455C74.0567 17.8182 73.8567 17 73.8567 16.0909C73.8567 15.1939 74.0567 14.3818 74.4567 13.6545C74.8688 12.9273 75.4385 12.3576 76.1658 11.9455C76.8931 11.5212 77.7173 11.3091 78.6385 11.3091ZM81.0931 15.1455C80.9961 14.5636 80.7234 14.1091 80.2749 13.7818C79.8385 13.4424 79.287 13.2727 78.6203 13.2727C78.1597 13.2727 77.7355 13.3576 77.3476 13.5273C76.9718 13.697 76.6688 13.9273 76.4385 14.2182C76.2082 14.5091 76.087 14.8182 76.0749 15.1455H81.0931ZM87.6852 17.5273C87.6852 17.9394 87.7822 18.2242 87.9762 18.3818C88.1701 18.5394 88.4792 18.6182 88.9034 18.6182C89.158 18.6182 89.4368 18.6 89.7398 18.5636V20.6364C89.1701 20.697 88.6974 20.7273 88.3216 20.7273C87.3519 20.7273 86.6246 20.5091 86.1398 20.0727C85.6671 19.6242 85.4307 18.8242 85.4307 17.6727V13.5636H83.7216V11.5455H85.4307V9.30909L87.6852 8.54546V11.5455H89.7034V13.5636H87.6852V17.5273ZM98.3787 11.5455H100.633V20.6364H98.3787V19.7455C97.9545 20.1091 97.4878 20.3939 96.9787 20.6C96.4817 20.7939 95.9545 20.8909 95.3969 20.8909C94.4757 20.8909 93.6696 20.6849 92.9787 20.2727C92.2878 19.8606 91.7545 19.2909 91.3787 18.5636C91.0151 17.8364 90.8333 17.0182 90.8333 16.1091C90.8333 15.2 91.0151 14.3818 91.3787 13.6545C91.7545 12.9273 92.2878 12.3576 92.9787 11.9455C93.6696 11.5212 94.4757 11.3091 95.3969 11.3091C95.9545 11.3091 96.4817 11.4121 96.9787 11.6182C97.4878 11.8121 97.9545 12.0909 98.3787 12.4545V11.5455ZM95.6878 18.7273C96.1848 18.7273 96.6333 18.6182 97.0333 18.4C97.4454 18.1697 97.7666 17.8545 97.9969 17.4545C98.2393 17.0545 98.3605 16.6 98.3605 16.0909C98.3605 15.3273 98.0999 14.703 97.5787 14.2182C97.0696 13.7333 96.4393 13.4909 95.6878 13.4909C94.9242 13.4909 94.2939 13.7394 93.7969 14.2364C93.312 14.7212 93.0696 15.3455 93.0696 16.1091C93.0696 16.8727 93.312 17.503 93.7969 18C94.2939 18.4849 94.9242 18.7273 95.6878 18.7273ZM104.116 10.0364C103.692 10.0364 103.358 9.92122 103.116 9.69091C102.874 9.46061 102.752 9.14546 102.752 8.74546C102.752 8.33334 102.874 8.01213 103.116 7.78182C103.358 7.55152 103.692 7.43637 104.116 7.43637C104.54 7.43637 104.874 7.55152 105.116 7.78182C105.358 8.01213 105.48 8.33334 105.48 8.74546C105.48 9.13334 105.352 9.44849 105.098 9.69091C104.855 9.92122 104.528 10.0364 104.116 10.0364ZM102.971 20.6364V11.5455H105.225V20.6364H102.971ZM109.735 18.0727C109.735 18.2667 109.783 18.4061 109.88 18.4909C109.977 18.5758 110.129 18.6182 110.335 18.6182C110.492 18.6182 110.68 18.6 110.898 18.5636V20.6364C110.45 20.7091 110.032 20.7455 109.644 20.7455C108.941 20.7455 108.401 20.5636 108.026 20.2C107.662 19.8242 107.48 19.1636 107.48 18.2182V7.90909H109.735V18.0727ZM114.575 14.0909C114.575 14.3455 114.715 14.5394 114.993 14.6727C115.284 14.7939 115.739 14.9212 116.357 15.0545C117.06 15.2 117.648 15.3636 118.121 15.5455C118.593 15.7273 118.999 16.0182 119.339 16.4182C119.69 16.8061 119.866 17.3333 119.866 18C119.866 18.5939 119.684 19.1091 119.321 19.5455C118.969 19.9818 118.496 20.3152 117.902 20.5455C117.308 20.7636 116.66 20.8727 115.957 20.8727C114.999 20.8727 114.175 20.6909 113.484 20.3273C112.805 19.9636 112.302 19.4424 111.975 18.7636L113.83 17.8C114.157 18.6364 114.866 19.0545 115.957 19.0545C116.43 19.0545 116.836 18.9636 117.175 18.7818C117.515 18.6 117.684 18.3394 117.684 18C117.684 17.7091 117.527 17.497 117.212 17.3636C116.908 17.2182 116.412 17.0606 115.721 16.8909C115.005 16.7212 114.424 16.5515 113.975 16.3818C113.527 16.2121 113.139 15.9515 112.812 15.6C112.484 15.2364 112.321 14.7576 112.321 14.1636C112.321 13.5818 112.484 13.0788 112.812 12.6545C113.139 12.2182 113.581 11.8849 114.139 11.6545C114.696 11.4242 115.308 11.3091 115.975 11.3091C116.763 11.3091 117.466 11.4727 118.084 11.8C118.715 12.1273 119.199 12.5939 119.539 13.2L117.702 14.1273C117.387 13.4485 116.812 13.1091 115.975 13.1091C115.551 13.1091 115.212 13.2 114.957 13.3818C114.702 13.5515 114.575 13.7879 114.575 14.0909Z" fill="#E6E8EB"/>
<path d="M68.0922 33.4545H69.7831V40.2727H68.0922V39.6045C67.774 39.8773 67.424 40.0909 67.0422 40.2455C66.6695 40.3909 66.274 40.4636 65.8558 40.4636C65.1649 40.4636 64.5604 40.3091 64.0422 40C63.524 39.6909 63.124 39.2636 62.8422 38.7182C62.5695 38.1727 62.4331 37.5591 62.4331 36.8773C62.4331 36.1955 62.5695 35.5818 62.8422 35.0364C63.124 34.4909 63.524 34.0636 64.0422 33.7545C64.5604 33.4364 65.1649 33.2773 65.8558 33.2773C66.274 33.2773 66.6695 33.3545 67.0422 33.5091C67.424 33.6545 67.774 33.8636 68.0922 34.1364V33.4545ZM66.074 38.8409C66.4468 38.8409 66.7831 38.7591 67.0831 38.5955C67.3922 38.4227 67.6331 38.1864 67.8058 37.8864C67.9877 37.5864 68.0786 37.2455 68.0786 36.8636C68.0786 36.2909 67.8831 35.8227 67.4922 35.4591C67.1104 35.0955 66.6377 34.9136 66.074 34.9136C65.5013 34.9136 65.0286 35.1 64.6558 35.4727C64.2922 35.8364 64.1104 36.3045 64.1104 36.8773C64.1104 37.45 64.2922 37.9227 64.6558 38.2955C65.0286 38.6591 65.5013 38.8409 66.074 38.8409ZM76.588 30.7273H78.2789V40.2727H76.588V39.6182C76.2789 39.8909 75.9334 40.1 75.5516 40.2455C75.1698 40.3909 74.7743 40.4636 74.3653 40.4636C73.6743 40.4636 73.0698 40.3091 72.5516 40C72.0334 39.6909 71.6334 39.2636 71.3516 38.7182C71.0789 38.1727 70.9425 37.5591 70.9425 36.8773C70.9425 36.1955 71.0789 35.5818 71.3516 35.0364C71.6334 34.4909 72.0334 34.0636 72.5516 33.7545C73.0698 33.4364 73.6743 33.2773 74.3653 33.2773C74.7743 33.2773 75.1653 33.3545 75.538 33.5091C75.9198 33.6545 76.2698 33.8591 76.588 34.1227V30.7273ZM74.5834 38.8409C74.9562 38.8409 75.2925 38.7591 75.5925 38.5955C75.9016 38.4227 76.1425 38.1864 76.3153 37.8864C76.4971 37.5864 76.588 37.2455 76.588 36.8636C76.588 36.2909 76.3925 35.8227 76.0016 35.4591C75.6198 35.0955 75.1471 34.9136 74.5834 34.9136C74.0107 34.9136 73.538 35.1 73.1653 35.4727C72.8016 35.8364 72.6198 36.3045 72.6198 36.8773C72.6198 37.45 72.8016 37.9227 73.1653 38.2955C73.538 38.6591 74.0107 38.8409 74.5834 38.8409ZM85.0841 30.7273H86.775V40.2727H85.0841V39.6182C84.775 39.8909 84.4295 40.1 84.0477 40.2455C83.6659 40.3909 83.2704 40.4636 82.8613 40.4636C82.1704 40.4636 81.5659 40.3091 81.0477 40C80.5295 39.6909 80.1295 39.2636 79.8477 38.7182C79.575 38.1727 79.4386 37.5591 79.4386 36.8773C79.4386 36.1955 79.575 35.5818 79.8477 35.0364C80.1295 34.4909 80.5295 34.0636 81.0477 33.7545C81.5659 33.4364 82.1704 33.2773 82.8613 33.2773C83.2704 33.2773 83.6613 33.3545 84.0341 33.5091C84.4159 33.6545 84.7659 33.8591 85.0841 34.1227V30.7273ZM83.0795 38.8409C83.4523 38.8409 83.7886 38.7591 84.0886 38.5955C84.3977 38.4227 84.6386 38.1864 84.8113 37.8864C84.9932 37.5864 85.0841 37.2455 85.0841 36.8636C85.0841 36.2909 84.8886 35.8227 84.4977 35.4591C84.1159 35.0955 83.6432 34.9136 83.0795 34.9136C82.5068 34.9136 82.0341 35.1 81.6613 35.4727C81.2977 35.8364 81.1159 36.3045 81.1159 36.8773C81.1159 37.45 81.2977 37.9227 81.6613 38.2955C82.0341 38.6591 82.5068 38.8409 83.0795 38.8409ZM97.3624 33.4545H99.0534V40.2727H97.3624V39.6045C97.0443 39.8773 96.6943 40.0909 96.3124 40.2455C95.9397 40.3909 95.5443 40.4636 95.1261 40.4636C94.4352 40.4636 93.8306 40.3091 93.3124 40C92.7943 39.6909 92.3943 39.2636 92.1124 38.7182C91.8397 38.1727 91.7034 37.5591 91.7034 36.8773C91.7034 36.1955 91.8397 35.5818 92.1124 35.0364C92.3943 34.4909 92.7943 34.0636 93.3124 33.7545C93.8306 33.4364 94.4352 33.2773 95.1261 33.2773C95.5443 33.2773 95.9397 33.3545 96.3124 33.5091C96.6943 33.6545 97.0443 33.8636 97.3624 34.1364V33.4545ZM95.3443 38.8409C95.717 38.8409 96.0534 38.7591 96.3534 38.5955C96.6624 38.4227 96.9034 38.1864 97.0761 37.8864C97.2579 37.5864 97.3488 37.2455 97.3488 36.8636C97.3488 36.2909 97.1534 35.8227 96.7624 35.4591C96.3806 35.0955 95.9079 34.9136 95.3443 34.9136C94.7715 34.9136 94.2988 35.1 93.9261 35.4727C93.5624 35.8364 93.3806 36.3045 93.3806 36.8773C93.3806 37.45 93.5624 37.9227 93.9261 38.2955C94.2988 38.6591 94.7715 38.8409 95.3443 38.8409ZM104.843 33.3182L104.72 34.9136C104.665 34.8955 104.57 34.8864 104.434 34.8864C103.87 34.8864 103.402 35.05 103.029 35.3773C102.665 35.7045 102.484 36.15 102.484 36.7136V40.2727H100.793V33.4545H102.484V34.6C102.638 34.2364 102.902 33.9318 103.275 33.6864C103.647 33.4409 104.097 33.3182 104.625 33.3182H104.843ZM108.692 37.9409C108.692 38.25 108.764 38.4636 108.91 38.5818C109.055 38.7 109.287 38.7591 109.605 38.7591C109.796 38.7591 110.005 38.7455 110.233 38.7182V40.2727C109.805 40.3182 109.451 40.3409 109.169 40.3409C108.442 40.3409 107.896 40.1773 107.533 39.85C107.178 39.5136 107.001 38.9136 107.001 38.05V34.9682H105.719V33.4545H107.001V31.7773L108.692 31.2045V33.4545H110.205V34.9682H108.692V37.9409ZM118.258 37.5864L119.526 33.4545H121.299L119.09 40.2727H117.413L116.131 36.2227L114.849 40.2727H113.199L111.045 33.4545H112.804L114.031 37.5591L115.231 33.4545H117.031L118.258 37.5864ZM125.118 40.4636C124.472 40.4636 123.872 40.3045 123.318 39.9864C122.772 39.6591 122.336 39.2227 122.009 38.6773C121.69 38.1227 121.531 37.5227 121.531 36.8773C121.531 36.2318 121.69 35.6364 122.009 35.0909C122.336 34.5364 122.772 34.1 123.318 33.7818C123.872 33.4545 124.472 33.2909 125.118 33.2909C125.763 33.2909 126.359 33.4545 126.904 33.7818C127.459 34.1 127.895 34.5364 128.213 35.0909C128.54 35.6364 128.704 36.2318 128.704 36.8773C128.704 37.5227 128.54 38.1227 128.213 38.6773C127.895 39.2227 127.459 39.6591 126.904 39.9864C126.359 40.3045 125.763 40.4636 125.118 40.4636ZM125.104 38.7727C125.449 38.7727 125.768 38.6909 126.059 38.5273C126.349 38.3545 126.581 38.1227 126.754 37.8318C126.927 37.5409 127.013 37.2227 127.013 36.8773C127.013 36.5318 126.927 36.2136 126.754 35.9227C126.581 35.6318 126.349 35.4 126.059 35.2273C125.768 35.0545 125.449 34.9682 125.104 34.9682C124.759 34.9682 124.44 35.0545 124.149 35.2273C123.859 35.4 123.627 35.6318 123.454 35.9227C123.29 36.2136 123.209 36.5318 123.209 36.8773C123.209 37.2227 123.29 37.5409 123.454 37.8318C123.627 38.1227 123.859 38.3545 124.149 38.5273C124.44 38.6909 124.759 38.7727 125.104 38.7727ZM133.833 33.3182L133.711 34.9136C133.656 34.8955 133.561 34.8864 133.424 34.8864C132.861 34.8864 132.392 35.05 132.02 35.3773C131.656 35.7045 131.474 36.15 131.474 36.7136V40.2727H129.783V33.4545H131.474V34.6C131.629 34.2364 131.892 33.9318 132.265 33.6864C132.638 33.4409 133.088 33.3182 133.615 33.3182H133.833ZM141.673 40.2727H139.559L137.65 37.7227L136.654 38.8136V40.2727H134.964V30.7273H136.654V36.3318L139.218 33.4545H141.577L138.795 36.4818L141.673 40.2727ZM63.6195 48.3227C63.3013 48.3227 63.0513 48.2364 62.8695 48.0636C62.6877 47.8909 62.5968 47.6545 62.5968 47.3545C62.5968 47.0455 62.6877 46.8045 62.8695 46.6318C63.0513 46.4591 63.3013 46.3727 63.6195 46.3727C63.9377 46.3727 64.1877 46.4591 64.3695 46.6318C64.5513 46.8045 64.6422 47.0455 64.6422 47.3545C64.6422 47.6455 64.5468 47.8818 64.3558 48.0636C64.174 48.2364 63.9286 48.3227 63.6195 48.3227ZM62.7604 56.2727V49.4545H64.4513V56.2727H62.7604ZM69.6062 49.2773C70.0062 49.2773 70.4107 49.3636 70.8198 49.5364C71.238 49.7 71.5925 50 71.8834 50.4364C72.1834 50.8727 72.3334 51.4591 72.3334 52.1955V56.2727H70.6425V52.1955C70.6425 51.6864 70.4971 51.3227 70.2062 51.1045C69.9243 50.8773 69.5925 50.7636 69.2107 50.7636C68.8289 50.7636 68.5016 50.9 68.2289 51.1727C67.9653 51.4364 67.8334 51.8636 67.8334 52.4545V56.2727H66.1425V49.4545H67.8334V50.0273C68.0789 49.8 68.3516 49.6182 68.6516 49.4818C68.9516 49.3455 69.2698 49.2773 69.6062 49.2773ZM77.7507 48.1591C77.5234 48.1318 77.3189 48.1182 77.1371 48.1182C76.8189 48.1182 76.5871 48.1773 76.4416 48.2955C76.2961 48.4136 76.2234 48.6318 76.2234 48.95V49.4545H77.7371V50.9682H76.2234V56.2727H74.5325V50.9682H73.4007V49.4545H74.5325V48.8409C74.5325 47.9773 74.7098 47.3818 75.0643 47.0545C75.4189 46.7182 75.9552 46.55 76.6734 46.55C76.9552 46.55 77.3143 46.5727 77.7507 46.6182V48.1591ZM81.6784 56.4636C81.0329 56.4636 80.4329 56.3045 79.8784 55.9864C79.3329 55.6591 78.8966 55.2227 78.5693 54.6773C78.2511 54.1227 78.092 53.5227 78.092 52.8773C78.092 52.2318 78.2511 51.6364 78.5693 51.0909C78.8966 50.5364 79.3329 50.1 79.8784 49.7818C80.4329 49.4545 81.0329 49.2909 81.6784 49.2909C82.3238 49.2909 82.9193 49.4545 83.4648 49.7818C84.0193 50.1 84.4557 50.5364 84.7738 51.0909C85.1011 51.6364 85.2648 52.2318 85.2648 52.8773C85.2648 53.5227 85.1011 54.1227 84.7738 54.6773C84.4557 55.2227 84.0193 55.6591 83.4648 55.9864C82.9193 56.3045 82.3238 56.4636 81.6784 56.4636ZM81.6648 54.7727C82.0102 54.7727 82.3284 54.6909 82.6193 54.5273C82.9102 54.3545 83.142 54.1227 83.3148 53.8318C83.4875 53.5409 83.5738 53.2227 83.5738 52.8773C83.5738 52.5318 83.4875 52.2136 83.3148 51.9227C83.142 51.6318 82.9102 51.4 82.6193 51.2273C82.3284 51.0545 82.0102 50.9682 81.6648 50.9682C81.3193 50.9682 81.0011 51.0545 80.7102 51.2273C80.4193 51.4 80.1875 51.6318 80.0148 51.9227C79.8511 52.2136 79.7693 52.5318 79.7693 52.8773C79.7693 53.2227 79.8511 53.5409 80.0148 53.8318C80.1875 54.1227 80.4193 54.3545 80.7102 54.5273C81.0011 54.6909 81.3193 54.7727 81.6648 54.7727ZM90.3941 49.3182L90.2713 50.9136C90.2168 50.8955 90.1213 50.8864 89.985 50.8864C89.4213 50.8864 88.9531 51.05 88.5804 51.3773C88.2168 51.7045 88.035 52.15 88.035 52.7136V56.2727H86.3441V49.4545H88.035V50.6C88.1895 50.2364 88.4531 49.9318 88.8259 49.6864C89.1986 49.4409 89.6486 49.3182 90.1759 49.3182H90.3941ZM99.3925 49.2773C99.7925 49.2773 100.197 49.3636 100.606 49.5364C101.015 49.7 101.365 50 101.656 50.4364C101.956 50.8727 102.106 51.4591 102.106 52.1955V56.2727H100.429V52.1955C100.429 51.6864 100.283 51.3227 99.9925 51.1045C99.7106 50.8773 99.3788 50.7636 98.997 50.7636C98.6697 50.7636 98.3834 50.8636 98.1379 51.0636C97.8925 51.2545 97.7334 51.5636 97.6606 51.9909V52.1955V56.2727H95.9834V52.1955C95.9834 51.6864 95.8379 51.3227 95.547 51.1045C95.2652 50.8773 94.9288 50.7636 94.5379 50.7636C94.2288 50.7636 93.947 50.8591 93.6925 51.05C93.447 51.2409 93.2879 51.5455 93.2152 51.9636V56.2727H91.5243V49.4545H93.2152V49.9864C93.4425 49.7682 93.7015 49.5955 93.9925 49.4682C94.2925 49.3409 94.6106 49.2773 94.947 49.2773C95.3652 49.2773 95.7879 49.3682 96.2152 49.55C96.6425 49.7318 96.9834 50.0364 97.2379 50.4636C97.4743 50.1273 97.7834 49.8455 98.1652 49.6182C98.547 49.3909 98.9561 49.2773 99.3925 49.2773ZM108.695 49.4545H110.386V56.2727H108.695V55.6045C108.377 55.8773 108.027 56.0909 107.645 56.2455C107.272 56.3909 106.877 56.4636 106.459 56.4636C105.768 56.4636 105.163 56.3091 104.645 56C104.127 55.6909 103.727 55.2636 103.445 54.7182C103.172 54.1727 103.036 53.5591 103.036 52.8773C103.036 52.1955 103.172 51.5818 103.445 51.0364C103.727 50.4909 104.127 50.0636 104.645 49.7545C105.163 49.4364 105.768 49.2773 106.459 49.2773C106.877 49.2773 107.272 49.3545 107.645 49.5091C108.027 49.6545 108.377 49.8636 108.695 50.1364V49.4545ZM106.677 54.8409C107.05 54.8409 107.386 54.7591 107.686 54.5955C107.995 54.4227 108.236 54.1864 108.409 53.8864C108.59 53.5864 108.681 53.2455 108.681 52.8636C108.681 52.2909 108.486 51.8227 108.095 51.4591C107.713 51.0955 107.24 50.9136 106.677 50.9136C106.104 50.9136 105.631 51.1 105.259 51.4727C104.895 51.8364 104.713 52.3045 104.713 52.8773C104.713 53.45 104.895 53.9227 105.259 54.2955C105.631 54.6591 106.104 54.8409 106.677 54.8409ZM114.298 53.9409C114.298 54.25 114.371 54.4636 114.516 54.5818C114.662 54.7 114.893 54.7591 115.212 54.7591C115.403 54.7591 115.612 54.7455 115.839 54.7182V56.2727C115.412 56.3182 115.057 56.3409 114.775 56.3409C114.048 56.3409 113.503 56.1773 113.139 55.85C112.784 55.5136 112.607 54.9136 112.607 54.05V50.9682H111.325V49.4545H112.607V47.7773L114.298 47.2045V49.4545H115.812V50.9682H114.298V53.9409ZM118.072 48.3227C117.754 48.3227 117.504 48.2364 117.322 48.0636C117.14 47.8909 117.049 47.6545 117.049 47.3545C117.049 47.0455 117.14 46.8045 117.322 46.6318C117.504 46.4591 117.754 46.3727 118.072 46.3727C118.39 46.3727 118.64 46.4591 118.822 46.6318C119.004 46.8045 119.094 47.0455 119.094 47.3545C119.094 47.6455 118.999 47.8818 118.808 48.0636C118.626 48.2364 118.381 48.3227 118.072 48.3227ZM117.213 56.2727V49.4545H118.904V56.2727H117.213ZM123.533 56.4636C122.888 56.4636 122.288 56.3045 121.733 55.9864C121.188 55.6591 120.751 55.2227 120.424 54.6773C120.106 54.1227 119.947 53.5227 119.947 52.8773C119.947 52.2318 120.106 51.6364 120.424 51.0909C120.751 50.5364 121.188 50.1 121.733 49.7818C122.288 49.4545 122.888 49.2909 123.533 49.2909C124.178 49.2909 124.774 49.4545 125.319 49.7818C125.874 50.1 126.31 50.5364 126.628 51.0909C126.956 51.6364 127.119 52.2318 127.119 52.8773C127.119 53.5227 126.956 54.1227 126.628 54.6773C126.31 55.2227 125.874 55.6591 125.319 55.9864C124.774 56.3045 124.178 56.4636 123.533 56.4636ZM123.519 54.7727C123.865 54.7727 124.183 54.6909 124.474 54.5273C124.765 54.3545 124.997 54.1227 125.169 53.8318C125.342 53.5409 125.428 53.2227 125.428 52.8773C125.428 52.5318 125.342 52.2136 125.169 51.9227C124.997 51.6318 124.765 51.4 124.474 51.2273C124.183 51.0545 123.865 50.9682 123.519 50.9682C123.174 50.9682 122.856 51.0545 122.565 51.2273C122.274 51.4 122.042 51.6318 121.869 51.9227C121.706 52.2136 121.624 52.5318 121.624 52.8773C121.624 53.2227 121.706 53.5409 121.869 53.8318C122.042 54.1227 122.274 54.3545 122.565 54.5273C122.856 54.6909 123.174 54.7727 123.519 54.7727ZM131.662 49.2773C132.062 49.2773 132.467 49.3636 132.876 49.5364C133.294 49.7 133.649 50 133.94 50.4364C134.24 50.8727 134.39 51.4591 134.39 52.1955V56.2727H132.699V52.1955C132.699 51.6864 132.553 51.3227 132.262 51.1045C131.98 50.8773 131.649 50.7636 131.267 50.7636C130.885 50.7636 130.558 50.9 130.285 51.1727C130.021 51.4364 129.89 51.8636 129.89 52.4545V56.2727H128.199V49.4545H129.89V50.0273C130.135 49.8 130.408 49.6182 130.708 49.4818C131.008 49.3455 131.326 49.2773 131.662 49.2773Z" fill="#E6E8EB" fill-opacity="0.8"/>
<rect x="0.341918" y="0.286254" width="49.4275" height="64.4275" rx="24.7137" stroke="white" stroke-width="0.572507"/>
<path d="M33.4557 39.1455V43.0591H16.8784V42.1045C17.0269 40.0045 17.6421 37.9682 18.7239 35.9955C19.8057 34.0227 21.4603 32.5909 23.6875 31.7C24.1542 31.4879 24.5042 31.3394 24.7375 31.2545C25.7981 30.8091 26.6148 30.4379 27.1875 30.1409C27.7815 29.8227 28.2693 29.4515 28.6512 29.0273C29.0542 28.5818 29.2557 28.0621 29.2557 27.4682C29.2557 26.7682 29.0542 26.1742 28.6512 25.6864C28.2693 25.1773 27.7815 24.7955 27.1875 24.5409C26.5936 24.2864 25.9996 24.1591 25.4057 24.1591C24.1118 24.1591 22.9981 24.4242 22.0648 24.9545C21.1527 25.4636 20.6118 26.2485 20.4421 27.3091L16.5284 26.8955C16.7193 25.5379 17.239 24.3712 18.0875 23.3955C18.936 22.4197 19.9966 21.6773 21.2693 21.1682C22.5633 20.6591 23.9421 20.4045 25.4057 20.4045C26.7209 20.4045 27.983 20.6803 29.1921 21.2318C30.4012 21.7833 31.3769 22.5788 32.1193 23.6182C32.8618 24.6576 33.233 25.8773 33.233 27.2773C33.233 28.6773 32.8936 29.8439 32.2148 30.7773C31.5572 31.7106 30.6875 32.4849 29.6057 33.1C28.5239 33.6939 27.0709 34.3409 25.2466 35.0409C23.6345 35.6773 22.4784 37.0455 21.7784 39.1455H33.4557Z" fill="white"/>
</svg>
