<svg width="895" height="322" viewBox="0 0 895 322" fill="none" xmlns="http://www.w3.org/2000/svg">
<rect x="1.1997" y="1.1997" width="892.098" height="319.601" rx="51.5872" fill="black" stroke="white" stroke-width="2.3994" stroke-dasharray="4.8 4.8"/>
<path d="M307.645 199.994H309.728V211.751H307.645V210.945C307.264 211.281 306.839 211.538 306.369 211.718C305.898 211.897 305.411 211.986 304.907 211.986C304.056 211.986 303.312 211.796 302.674 211.415C302.035 211.034 301.543 210.508 301.196 209.836C300.86 209.165 300.692 208.409 300.692 207.569C300.692 206.729 300.86 205.973 301.196 205.302C301.543 204.63 302.035 204.103 302.674 203.723C303.312 203.331 304.056 203.135 304.907 203.135C305.411 203.135 305.893 203.23 306.352 203.42C306.822 203.6 307.253 203.851 307.645 204.176V199.994ZM305.176 209.988C305.635 209.988 306.05 209.887 306.419 209.685C306.8 209.472 307.096 209.181 307.309 208.812C307.533 208.442 307.645 208.022 307.645 207.552C307.645 206.847 307.404 206.27 306.923 205.822C306.453 205.374 305.87 205.15 305.176 205.15C304.471 205.15 303.888 205.38 303.429 205.839C302.981 206.287 302.758 206.864 302.758 207.569C302.758 208.274 302.981 208.857 303.429 209.316C303.888 209.764 304.471 209.988 305.176 209.988ZM316.859 203.185L316.708 205.15C316.641 205.128 316.523 205.117 316.355 205.117C315.661 205.117 315.084 205.318 314.625 205.721C314.177 206.124 313.953 206.673 313.953 207.367V211.751H311.871V203.353H313.953V204.764C314.144 204.316 314.468 203.941 314.927 203.639C315.387 203.336 315.941 203.185 316.59 203.185H316.859ZM321.673 211.986C320.878 211.986 320.139 211.79 319.456 211.398C318.784 210.995 318.247 210.458 317.844 209.786C317.452 209.103 317.256 208.364 317.256 207.569C317.256 206.774 317.452 206.041 317.844 205.369C318.247 204.686 318.784 204.148 319.456 203.756C320.139 203.353 320.878 203.152 321.673 203.152C322.468 203.152 323.202 203.353 323.873 203.756C324.556 204.148 325.094 204.686 325.486 205.369C325.889 206.041 326.09 206.774 326.09 207.569C326.09 208.364 325.889 209.103 325.486 209.786C325.094 210.458 324.556 210.995 323.873 211.398C323.202 211.79 322.468 211.986 321.673 211.986ZM321.656 209.904C322.082 209.904 322.474 209.803 322.832 209.601C323.19 209.388 323.476 209.103 323.689 208.745C323.901 208.386 324.008 207.994 324.008 207.569C324.008 207.143 323.901 206.752 323.689 206.393C323.476 206.035 323.19 205.749 322.832 205.537C322.474 205.324 322.082 205.218 321.656 205.218C321.231 205.218 320.839 205.324 320.481 205.537C320.122 205.749 319.837 206.035 319.624 206.393C319.423 206.752 319.322 207.143 319.322 207.569C319.322 207.994 319.423 208.386 319.624 208.745C319.837 209.103 320.122 209.388 320.481 209.601C320.839 209.803 321.231 209.904 321.656 209.904ZM332.24 203.135C333.091 203.135 333.836 203.325 334.474 203.706C335.124 204.087 335.616 204.613 335.952 205.285C336.299 205.957 336.473 206.712 336.473 207.552C336.473 208.392 336.299 209.148 335.952 209.82C335.616 210.491 335.124 211.023 334.474 211.415C333.836 211.796 333.091 211.986 332.24 211.986C331.736 211.986 331.249 211.897 330.779 211.718C330.32 211.527 329.894 211.264 329.503 210.928V215.11H327.42V203.353H329.503V204.176C329.883 203.84 330.309 203.583 330.779 203.404C331.249 203.224 331.736 203.135 332.24 203.135ZM331.988 209.971C332.683 209.971 333.254 209.747 333.701 209.299C334.161 208.84 334.39 208.258 334.39 207.552C334.39 206.847 334.161 206.27 333.701 205.822C333.254 205.363 332.683 205.134 331.988 205.134C331.529 205.134 331.109 205.24 330.729 205.453C330.348 205.654 330.046 205.94 329.822 206.309C329.609 206.679 329.503 207.099 329.503 207.569C329.503 208.274 329.738 208.851 330.208 209.299C330.689 209.747 331.283 209.971 331.988 209.971ZM347.212 201.758C346.932 201.724 346.68 201.707 346.456 201.707C346.065 201.707 345.779 201.78 345.6 201.926C345.421 202.071 345.331 202.34 345.331 202.732V203.353H347.196V205.218H345.331V211.751H343.248V205.218H341.854V203.353H343.248V202.597C343.248 201.534 343.467 200.8 343.904 200.397C344.34 199.983 345.001 199.776 345.885 199.776C346.233 199.776 346.675 199.804 347.212 199.86V201.758ZM349.463 201.959C349.071 201.959 348.763 201.853 348.539 201.64C348.315 201.427 348.203 201.136 348.203 200.767C348.203 200.386 348.315 200.089 348.539 199.876C348.763 199.664 349.071 199.557 349.463 199.557C349.855 199.557 350.163 199.664 350.387 199.876C350.611 200.089 350.723 200.386 350.723 200.767C350.723 201.125 350.605 201.416 350.37 201.64C350.146 201.853 349.844 201.959 349.463 201.959ZM348.405 211.751V203.353H350.487V211.751H348.405ZM354.647 209.383C354.647 209.562 354.692 209.691 354.781 209.769C354.871 209.848 355.011 209.887 355.201 209.887C355.347 209.887 355.52 209.87 355.722 209.836V211.751C355.308 211.818 354.921 211.852 354.563 211.852C353.914 211.852 353.415 211.684 353.068 211.348C352.732 211.001 352.564 210.391 352.564 209.517V199.994H354.647V209.383ZM360.842 203.135C361.648 203.135 362.37 203.336 363.008 203.739C363.658 204.131 364.162 204.663 364.52 205.335C364.878 206.007 365.057 206.752 365.057 207.569C365.057 207.838 365.035 208.084 364.99 208.308H358.507C358.675 208.901 358.972 209.366 359.397 209.702C359.823 210.027 360.366 210.189 361.026 210.189C361.429 210.189 361.816 210.1 362.185 209.92C362.566 209.741 362.851 209.512 363.042 209.232L364.637 210.172C364.246 210.755 363.736 211.202 363.109 211.516C362.493 211.818 361.782 211.969 360.976 211.969C360.08 211.969 359.285 211.779 358.591 211.398C357.897 211.018 357.359 210.491 356.979 209.82C356.609 209.148 356.424 208.392 356.424 207.552C356.424 206.724 356.609 205.973 356.979 205.302C357.359 204.63 357.886 204.103 358.557 203.723C359.229 203.331 359.991 203.135 360.842 203.135ZM363.109 206.679C363.019 206.141 362.768 205.721 362.353 205.419C361.95 205.106 361.441 204.949 360.825 204.949C360.399 204.949 360.007 205.027 359.649 205.184C359.302 205.341 359.022 205.553 358.809 205.822C358.597 206.091 358.485 206.376 358.473 206.679H363.109ZM368.189 205.705C368.189 205.94 368.318 206.119 368.575 206.242C368.844 206.354 369.264 206.472 369.835 206.595C370.484 206.729 371.027 206.88 371.464 207.048C371.901 207.216 372.276 207.485 372.589 207.854C372.914 208.213 373.077 208.7 373.077 209.316C373.077 209.864 372.909 210.34 372.573 210.743C372.248 211.146 371.811 211.454 371.263 211.667C370.714 211.869 370.115 211.969 369.465 211.969C368.581 211.969 367.819 211.801 367.181 211.466C366.554 211.13 366.089 210.648 365.787 210.021L367.5 209.131C367.803 209.904 368.458 210.29 369.465 210.29C369.902 210.29 370.277 210.206 370.591 210.038C370.904 209.87 371.061 209.629 371.061 209.316C371.061 209.047 370.915 208.851 370.624 208.728C370.344 208.593 369.885 208.448 369.247 208.291C368.586 208.134 368.049 207.978 367.635 207.821C367.22 207.664 366.862 207.423 366.56 207.099C366.257 206.763 366.106 206.32 366.106 205.772C366.106 205.234 366.257 204.77 366.56 204.378C366.862 203.975 367.271 203.667 367.786 203.454C368.301 203.241 368.866 203.135 369.482 203.135C370.21 203.135 370.86 203.286 371.431 203.588C372.013 203.891 372.461 204.322 372.774 204.882L371.078 205.738C370.787 205.111 370.255 204.798 369.482 204.798C369.09 204.798 368.777 204.882 368.542 205.05C368.307 205.206 368.189 205.425 368.189 205.705ZM386.563 211.751H384.497V206.78C384.497 206.152 384.318 205.705 383.959 205.436C383.612 205.156 383.198 205.016 382.717 205.016C382.336 205.016 381.989 205.134 381.675 205.369C381.373 205.604 381.177 205.979 381.087 206.494V211.751H379.005V199.994H381.087V204.059C381.367 203.79 381.686 203.577 382.045 203.42C382.414 203.264 382.806 203.185 383.22 203.185C383.713 203.185 384.211 203.292 384.715 203.504C385.219 203.706 385.65 204.07 386.009 204.596C386.378 205.122 386.563 205.833 386.563 206.729V211.751ZM392.088 203.135C392.894 203.135 393.616 203.336 394.254 203.739C394.904 204.131 395.408 204.663 395.766 205.335C396.124 206.007 396.303 206.752 396.303 207.569C396.303 207.838 396.281 208.084 396.236 208.308H389.753C389.921 208.901 390.218 209.366 390.643 209.702C391.069 210.027 391.612 210.189 392.272 210.189C392.676 210.189 393.062 210.1 393.431 209.92C393.812 209.741 394.098 209.512 394.288 209.232L395.884 210.172C395.492 210.755 394.982 211.202 394.355 211.516C393.739 211.818 393.028 211.969 392.222 211.969C391.326 211.969 390.531 211.779 389.837 211.398C389.143 211.018 388.605 210.491 388.225 209.82C387.855 209.148 387.67 208.392 387.67 207.552C387.67 206.724 387.855 205.973 388.225 205.302C388.605 204.63 389.132 204.103 389.803 203.723C390.475 203.331 391.237 203.135 392.088 203.135ZM394.355 206.679C394.266 206.141 394.014 205.721 393.599 205.419C393.196 205.106 392.687 204.949 392.071 204.949C391.645 204.949 391.254 205.027 390.895 205.184C390.548 205.341 390.268 205.553 390.055 205.822C389.843 206.091 389.731 206.376 389.72 206.679H394.355ZM402.61 203.185L402.458 205.15C402.391 205.128 402.274 205.117 402.106 205.117C401.411 205.117 400.835 205.318 400.376 205.721C399.928 206.124 399.704 206.673 399.704 207.367V211.751H397.621V203.353H399.704V204.764C399.894 204.316 400.219 203.941 400.678 203.639C401.137 203.336 401.691 203.185 402.341 203.185H402.61ZM407.473 203.135C408.279 203.135 409.001 203.336 409.64 203.739C410.289 204.131 410.793 204.663 411.151 205.335C411.51 206.007 411.689 206.752 411.689 207.569C411.689 207.838 411.666 208.084 411.622 208.308H405.138C405.306 208.901 405.603 209.366 406.029 209.702C406.454 210.027 406.997 210.189 407.658 210.189C408.061 210.189 408.447 210.1 408.817 209.92C409.197 209.741 409.483 209.512 409.673 209.232L411.269 210.172C410.877 210.755 410.367 211.202 409.74 211.516C409.125 211.818 408.414 211.969 407.607 211.969C406.712 211.969 405.917 211.779 405.222 211.398C404.528 211.018 403.991 210.491 403.61 209.82C403.24 209.148 403.056 208.392 403.056 207.552C403.056 206.724 403.24 205.973 403.61 205.302C403.991 204.63 404.517 204.103 405.189 203.723C405.861 203.331 406.622 203.135 407.473 203.135ZM409.74 206.679C409.651 206.141 409.399 205.721 408.985 205.419C408.581 205.106 408.072 204.949 407.456 204.949C407.031 204.949 406.639 205.027 406.28 205.184C405.933 205.341 405.653 205.553 405.441 205.822C405.228 206.091 405.116 206.376 405.105 206.679H409.74ZM421.595 211.986C420.8 211.986 420.061 211.79 419.378 211.398C418.706 210.995 418.169 210.458 417.766 209.786C417.374 209.103 417.178 208.364 417.178 207.569C417.178 206.774 417.374 206.041 417.766 205.369C418.169 204.686 418.706 204.148 419.378 203.756C420.061 203.353 420.8 203.152 421.595 203.152C422.39 203.152 423.124 203.353 423.795 203.756C424.479 204.148 425.016 204.686 425.408 205.369C425.811 206.041 426.013 206.774 426.013 207.569C426.013 208.364 425.811 209.103 425.408 209.786C425.016 210.458 424.479 210.995 423.795 211.398C423.124 211.79 422.39 211.986 421.595 211.986ZM421.578 209.904C422.004 209.904 422.396 209.803 422.754 209.601C423.112 209.388 423.398 209.103 423.611 208.745C423.823 208.386 423.93 207.994 423.93 207.569C423.93 207.143 423.823 206.752 423.611 206.393C423.398 206.035 423.112 205.749 422.754 205.537C422.396 205.324 422.004 205.218 421.578 205.218C421.153 205.218 420.761 205.324 420.403 205.537C420.044 205.749 419.759 206.035 419.546 206.393C419.345 206.752 419.244 207.143 419.244 207.569C419.244 207.994 419.345 208.386 419.546 208.745C419.759 209.103 420.044 209.388 420.403 209.601C420.761 209.803 421.153 209.904 421.578 209.904ZM431.289 203.135C432.095 203.135 432.817 203.336 433.456 203.739C434.105 204.131 434.609 204.663 434.967 205.335C435.326 206.007 435.505 206.752 435.505 207.569C435.505 207.838 435.482 208.084 435.437 208.308H428.954C429.122 208.901 429.419 209.366 429.844 209.702C430.27 210.027 430.813 210.189 431.474 210.189C431.877 210.189 432.263 210.1 432.633 209.92C433.013 209.741 433.299 209.512 433.489 209.232L435.085 210.172C434.693 210.755 434.183 211.202 433.556 211.516C432.941 211.818 432.229 211.969 431.423 211.969C430.528 211.969 429.733 211.779 429.038 211.398C428.344 211.018 427.807 210.491 427.426 209.82C427.056 209.148 426.872 208.392 426.872 207.552C426.872 206.724 427.056 205.973 427.426 205.302C427.807 204.63 428.333 204.103 429.005 203.723C429.677 203.331 430.438 203.135 431.289 203.135ZM433.556 206.679C433.467 206.141 433.215 205.721 432.801 205.419C432.397 205.106 431.888 204.949 431.272 204.949C430.847 204.949 430.455 205.027 430.096 205.184C429.749 205.341 429.469 205.553 429.257 205.822C429.044 206.091 428.932 206.376 428.921 206.679H433.556ZM449.005 210.122C448.591 210.693 448.071 211.146 447.443 211.482C446.816 211.818 446.139 211.986 445.411 211.986C444.616 211.986 443.877 211.79 443.194 211.398C442.522 210.995 441.985 210.458 441.582 209.786C441.19 209.103 440.994 208.364 440.994 207.569C440.994 206.774 441.19 206.041 441.582 205.369C441.985 204.686 442.522 204.148 443.194 203.756C443.877 203.353 444.616 203.152 445.411 203.152C446.128 203.152 446.8 203.32 447.427 203.656C448.054 203.98 448.574 204.423 448.989 204.982L447.276 206.141C446.749 205.525 446.128 205.218 445.411 205.218C444.986 205.218 444.594 205.324 444.235 205.537C443.877 205.749 443.592 206.035 443.379 206.393C443.166 206.752 443.06 207.143 443.06 207.569C443.06 207.994 443.166 208.386 443.379 208.745C443.592 209.103 443.877 209.388 444.235 209.601C444.594 209.803 444.986 209.904 445.411 209.904C446.128 209.904 446.749 209.596 447.276 208.98L449.005 210.122ZM452.256 209.383C452.256 209.562 452.301 209.691 452.391 209.769C452.48 209.848 452.62 209.887 452.811 209.887C452.956 209.887 453.13 209.87 453.331 209.836V211.751C452.917 211.818 452.531 211.852 452.172 211.852C451.523 211.852 451.025 211.684 450.678 211.348C450.342 211.001 450.174 210.391 450.174 209.517V199.994H452.256V209.383ZM455.989 201.959C455.597 201.959 455.289 201.853 455.065 201.64C454.841 201.427 454.729 201.136 454.729 200.767C454.729 200.386 454.841 200.089 455.065 199.876C455.289 199.664 455.597 199.557 455.989 199.557C456.381 199.557 456.689 199.664 456.913 199.876C457.137 200.089 457.249 200.386 457.249 200.767C457.249 201.125 457.131 201.416 456.896 201.64C456.672 201.853 456.37 201.959 455.989 201.959ZM454.931 211.751V203.353H457.013V211.751H454.931ZM466.31 210.122C465.896 210.693 465.375 211.146 464.748 211.482C464.121 211.818 463.443 211.986 462.715 211.986C461.92 211.986 461.181 211.79 460.498 211.398C459.827 210.995 459.289 210.458 458.886 209.786C458.494 209.103 458.298 208.364 458.298 207.569C458.298 206.774 458.494 206.041 458.886 205.369C459.289 204.686 459.827 204.148 460.498 203.756C461.181 203.353 461.92 203.152 462.715 203.152C463.432 203.152 464.104 203.32 464.731 203.656C465.358 203.98 465.879 204.423 466.293 204.982L464.58 206.141C464.054 205.525 463.432 205.218 462.715 205.218C462.29 205.218 461.898 205.324 461.54 205.537C461.181 205.749 460.896 206.035 460.683 206.393C460.47 206.752 460.364 207.143 460.364 207.569C460.364 207.994 460.47 208.386 460.683 208.745C460.896 209.103 461.181 209.388 461.54 209.601C461.898 209.803 462.29 209.904 462.715 209.904C463.432 209.904 464.054 209.596 464.58 208.98L466.31 210.122ZM475.807 211.751H473.204L470.852 208.61L469.626 209.954V211.751H467.544V199.994H469.626V206.897L472.784 203.353H475.69L472.263 207.082L475.807 211.751ZM488.929 211.751H486.863V206.78C486.863 206.152 486.684 205.705 486.325 205.436C485.978 205.156 485.564 205.016 485.083 205.016C484.702 205.016 484.355 205.134 484.041 205.369C483.739 205.604 483.543 205.979 483.453 206.494V211.751H481.371V199.994H483.453V204.059C483.733 203.79 484.052 203.577 484.411 203.42C484.78 203.264 485.172 203.185 485.586 203.185C486.079 203.185 486.577 203.292 487.081 203.504C487.585 203.706 488.016 204.07 488.375 204.596C488.744 205.122 488.929 205.833 488.929 206.729V211.751ZM494.454 203.135C495.26 203.135 495.982 203.336 496.62 203.739C497.27 204.131 497.774 204.663 498.132 205.335C498.49 206.007 498.669 206.752 498.669 207.569C498.669 207.838 498.647 208.084 498.602 208.308H492.119C492.287 208.901 492.584 209.366 493.009 209.702C493.435 210.027 493.978 210.189 494.638 210.189C495.042 210.189 495.428 210.1 495.797 209.92C496.178 209.741 496.464 209.512 496.654 209.232L498.25 210.172C497.858 210.755 497.348 211.202 496.721 211.516C496.105 211.818 495.394 211.969 494.588 211.969C493.692 211.969 492.897 211.779 492.203 211.398C491.509 211.018 490.971 210.491 490.591 209.82C490.221 209.148 490.036 208.392 490.036 207.552C490.036 206.724 490.221 205.973 490.591 205.302C490.971 204.63 491.498 204.103 492.169 203.723C492.841 203.331 493.603 203.135 494.454 203.135ZM496.721 206.679C496.632 206.141 496.38 205.721 495.965 205.419C495.562 205.106 495.053 204.949 494.437 204.949C494.011 204.949 493.62 205.027 493.261 205.184C492.914 205.341 492.634 205.553 492.421 205.822C492.209 206.091 492.097 206.376 492.085 206.679H496.721ZM504.975 203.185L504.824 205.15C504.757 205.128 504.64 205.117 504.472 205.117C503.777 205.117 503.201 205.318 502.742 205.721C502.294 206.124 502.07 206.673 502.07 207.367V211.751H499.987V203.353H502.07V204.764C502.26 204.316 502.585 203.941 503.044 203.639C503.503 203.336 504.057 203.185 504.707 203.185H504.975ZM509.839 203.135C510.645 203.135 511.367 203.336 512.006 203.739C512.655 204.131 513.159 204.663 513.517 205.335C513.876 206.007 514.055 206.752 514.055 207.569C514.055 207.838 514.032 208.084 513.988 208.308H507.504C507.672 208.901 507.969 209.366 508.394 209.702C508.82 210.027 509.363 210.189 510.024 210.189C510.427 210.189 510.813 210.1 511.183 209.92C511.563 209.741 511.849 209.512 512.039 209.232L513.635 210.172C513.243 210.755 512.733 211.202 512.106 211.516C511.491 211.818 510.78 211.969 509.973 211.969C509.078 211.969 508.283 211.779 507.588 211.398C506.894 211.018 506.357 210.491 505.976 209.82C505.606 209.148 505.422 208.392 505.422 207.552C505.422 206.724 505.606 205.973 505.976 205.302C506.357 204.63 506.883 204.103 507.555 203.723C508.227 203.331 508.988 203.135 509.839 203.135ZM512.106 206.679C512.017 206.141 511.765 205.721 511.351 205.419C510.947 205.106 510.438 204.949 509.822 204.949C509.397 204.949 509.005 205.027 508.646 205.184C508.299 205.341 508.019 205.553 507.807 205.822C507.594 206.091 507.482 206.376 507.471 206.679H512.106ZM522.92 208.879C522.92 209.26 523.009 209.523 523.189 209.668C523.368 209.814 523.653 209.887 524.045 209.887C524.28 209.887 524.538 209.87 524.818 209.836V211.751C524.292 211.807 523.855 211.835 523.508 211.835C522.612 211.835 521.94 211.634 521.492 211.23C521.056 210.816 520.837 210.077 520.837 209.013V205.218H519.258V203.353H520.837V201.287L522.92 200.582V203.353H524.784V205.218H522.92V208.879ZM530.161 211.986C529.366 211.986 528.627 211.79 527.944 211.398C527.272 210.995 526.735 210.458 526.332 209.786C525.94 209.103 525.744 208.364 525.744 207.569C525.744 206.774 525.94 206.041 526.332 205.369C526.735 204.686 527.272 204.148 527.944 203.756C528.627 203.353 529.366 203.152 530.161 203.152C530.956 203.152 531.69 203.353 532.361 203.756C533.045 204.148 533.582 204.686 533.974 205.369C534.377 206.041 534.579 206.774 534.579 207.569C534.579 208.364 534.377 209.103 533.974 209.786C533.582 210.458 533.045 210.995 532.361 211.398C531.69 211.79 530.956 211.986 530.161 211.986ZM530.144 209.904C530.57 209.904 530.962 209.803 531.32 209.601C531.678 209.388 531.964 209.103 532.177 208.745C532.389 208.386 532.496 207.994 532.496 207.569C532.496 207.143 532.389 206.752 532.177 206.393C531.964 206.035 531.678 205.749 531.32 205.537C530.962 205.324 530.57 205.218 530.144 205.218C529.719 205.218 529.327 205.324 528.969 205.537C528.61 205.749 528.325 206.035 528.112 206.393C527.911 206.752 527.81 207.143 527.81 207.569C527.81 207.994 527.911 208.386 528.112 208.745C528.325 209.103 528.61 209.388 528.969 209.601C529.327 209.803 529.719 209.904 530.144 209.904ZM545.84 203.353H547.923V211.751H545.84V211.046C545.538 211.326 545.202 211.55 544.833 211.718C544.463 211.885 544.071 211.969 543.657 211.969C543.164 211.969 542.66 211.869 542.145 211.667C541.641 211.454 541.205 211.079 540.835 210.542C540.477 210.004 540.298 209.282 540.298 208.375V203.353H542.38V208.375C542.38 209.002 542.554 209.456 542.901 209.736C543.259 210.004 543.674 210.139 544.144 210.139C544.614 210.139 545.012 209.976 545.337 209.652C545.672 209.316 545.84 208.784 545.84 208.056V203.353ZM554.9 203.135C555.751 203.135 556.495 203.325 557.134 203.706C557.783 204.087 558.276 204.613 558.612 205.285C558.959 205.957 559.132 206.712 559.132 207.552C559.132 208.392 558.959 209.148 558.612 209.82C558.276 210.491 557.783 211.023 557.134 211.415C556.495 211.796 555.751 211.986 554.9 211.986C554.396 211.986 553.909 211.897 553.439 211.718C552.979 211.527 552.554 211.264 552.162 210.928V215.11H550.079V203.353H552.162V204.176C552.543 203.84 552.968 203.583 553.439 203.404C553.909 203.224 554.396 203.135 554.9 203.135ZM554.648 209.971C555.342 209.971 555.913 209.747 556.361 209.299C556.82 208.84 557.05 208.258 557.05 207.552C557.05 206.847 556.82 206.27 556.361 205.822C555.913 205.363 555.342 205.134 554.648 205.134C554.189 205.134 553.769 205.24 553.388 205.453C553.007 205.654 552.705 205.94 552.481 206.309C552.268 206.679 552.162 207.099 552.162 207.569C552.162 208.274 552.397 208.851 552.867 209.299C553.349 209.747 553.942 209.971 554.648 209.971ZM562.627 209.383C562.627 209.562 562.671 209.691 562.761 209.769C562.851 209.848 562.991 209.887 563.181 209.887C563.326 209.887 563.5 209.87 563.702 209.836V211.751C563.287 211.818 562.901 211.852 562.543 211.852C561.893 211.852 561.395 211.684 561.048 211.348C560.712 211.001 560.544 210.391 560.544 209.517V199.994H562.627V209.383ZM571.54 203.353H573.623V211.751H571.54V210.928C571.148 211.264 570.717 211.527 570.247 211.718C569.788 211.897 569.301 211.986 568.786 211.986C567.935 211.986 567.19 211.796 566.552 211.415C565.914 211.034 565.421 210.508 565.074 209.836C564.738 209.165 564.57 208.409 564.57 207.569C564.57 206.729 564.738 205.973 565.074 205.302C565.421 204.63 565.914 204.103 566.552 203.723C567.19 203.331 567.935 203.135 568.786 203.135C569.301 203.135 569.788 203.23 570.247 203.42C570.717 203.6 571.148 203.857 571.54 204.193V203.353ZM569.054 209.988C569.513 209.988 569.928 209.887 570.297 209.685C570.678 209.472 570.975 209.181 571.187 208.812C571.411 208.442 571.523 208.022 571.523 207.552C571.523 206.847 571.283 206.27 570.801 205.822C570.331 205.374 569.749 205.15 569.054 205.15C568.349 205.15 567.767 205.38 567.308 205.839C566.86 206.287 566.636 206.864 566.636 207.569C566.636 208.274 566.86 208.857 567.308 209.316C567.767 209.764 568.349 209.988 569.054 209.988ZM579.384 211.986C578.589 211.986 577.85 211.79 577.167 211.398C576.495 210.995 575.958 210.458 575.555 209.786C575.163 209.103 574.967 208.364 574.967 207.569C574.967 206.774 575.163 206.041 575.555 205.369C575.958 204.686 576.495 204.148 577.167 203.756C577.85 203.353 578.589 203.152 579.384 203.152C580.179 203.152 580.913 203.353 581.584 203.756C582.267 204.148 582.805 204.686 583.197 205.369C583.6 206.041 583.801 206.774 583.801 207.569C583.801 208.364 583.6 209.103 583.197 209.786C582.805 210.458 582.267 210.995 581.584 211.398C580.913 211.79 580.179 211.986 579.384 211.986ZM579.367 209.904C579.793 209.904 580.185 209.803 580.543 209.601C580.901 209.388 581.187 209.103 581.4 208.745C581.612 208.386 581.719 207.994 581.719 207.569C581.719 207.143 581.612 206.752 581.4 206.393C581.187 206.035 580.901 205.749 580.543 205.537C580.185 205.324 579.793 205.218 579.367 205.218C578.942 205.218 578.55 205.324 578.192 205.537C577.833 205.749 577.548 206.035 577.335 206.393C577.133 206.752 577.033 207.143 577.033 207.569C577.033 207.994 577.133 208.386 577.335 208.745C577.548 209.103 577.833 209.388 578.192 209.601C578.55 209.803 578.942 209.904 579.367 209.904ZM591.698 199.994H593.781V211.751H591.698V210.945C591.317 211.281 590.892 211.538 590.422 211.718C589.951 211.897 589.464 211.986 588.96 211.986C588.109 211.986 587.365 211.796 586.726 211.415C586.088 211.034 585.596 210.508 585.248 209.836C584.912 209.165 584.745 208.409 584.745 207.569C584.745 206.729 584.912 205.973 585.248 205.302C585.596 204.63 586.088 204.103 586.726 203.723C587.365 203.331 588.109 203.135 588.96 203.135C589.464 203.135 589.946 203.23 590.405 203.42C590.875 203.6 591.306 203.851 591.698 204.176V199.994ZM589.229 209.988C589.688 209.988 590.102 209.887 590.472 209.685C590.853 209.472 591.149 209.181 591.362 208.812C591.586 208.442 591.698 208.022 591.698 207.552C591.698 206.847 591.457 206.27 590.976 205.822C590.506 205.374 589.923 205.15 589.229 205.15C588.524 205.15 587.941 205.38 587.482 205.839C587.034 206.287 586.81 206.864 586.81 207.569C586.81 208.274 587.034 208.857 587.482 209.316C587.941 209.764 588.524 209.988 589.229 209.988Z" fill="#E6E8EB"/>
<path d="M236.936 242.655C236.936 242.891 237.065 243.07 237.323 243.193C237.591 243.305 238.011 243.422 238.582 243.546C239.232 243.68 239.775 243.831 240.212 243.999C240.648 244.167 241.023 244.436 241.337 244.805C241.662 245.164 241.824 245.651 241.824 246.267C241.824 246.815 241.656 247.291 241.32 247.694C240.995 248.097 240.559 248.405 240.01 248.618C239.461 248.819 238.862 248.92 238.213 248.92C237.328 248.92 236.567 248.752 235.929 248.416C235.302 248.08 234.837 247.599 234.535 246.972L236.248 246.082C236.55 246.854 237.205 247.241 238.213 247.241C238.649 247.241 239.025 247.157 239.338 246.989C239.652 246.821 239.808 246.58 239.808 246.267C239.808 245.998 239.663 245.802 239.372 245.679C239.092 245.544 238.633 245.399 237.994 245.242C237.334 245.085 236.796 244.928 236.382 244.772C235.968 244.615 235.609 244.374 235.307 244.049C235.005 243.714 234.854 243.271 234.854 242.723C234.854 242.185 235.005 241.72 235.307 241.329C235.609 240.925 236.018 240.618 236.533 240.405C237.048 240.192 237.614 240.086 238.23 240.086C238.957 240.086 239.607 240.237 240.178 240.539C240.76 240.841 241.208 241.273 241.522 241.832L239.825 242.689C239.534 242.062 239.002 241.748 238.23 241.748C237.838 241.748 237.524 241.832 237.289 242C237.054 242.157 236.936 242.375 236.936 242.655ZM248.499 240.304H250.582V248.702H248.499V247.996C248.197 248.276 247.861 248.5 247.492 248.668C247.122 248.836 246.73 248.92 246.316 248.92C245.823 248.92 245.319 248.819 244.804 248.618C244.3 248.405 243.864 248.03 243.494 247.493C243.136 246.955 242.957 246.233 242.957 245.326V240.304H245.039V245.326C245.039 245.953 245.213 246.406 245.56 246.686C245.918 246.955 246.333 247.09 246.803 247.09C247.273 247.09 247.671 246.927 247.995 246.602C248.331 246.267 248.499 245.735 248.499 245.007V240.304ZM257.559 240.086C258.41 240.086 259.154 240.276 259.793 240.657C260.442 241.037 260.935 241.564 261.271 242.236C261.618 242.907 261.791 243.663 261.791 244.503C261.791 245.343 261.618 246.099 261.271 246.77C260.935 247.442 260.442 247.974 259.793 248.366C259.154 248.747 258.41 248.937 257.559 248.937C257.055 248.937 256.568 248.847 256.097 248.668C255.638 248.478 255.213 248.215 254.821 247.879V252.061H252.738V240.304H254.821V241.127C255.202 240.791 255.627 240.534 256.097 240.354C256.568 240.175 257.055 240.086 257.559 240.086ZM257.307 246.922C258.001 246.922 258.572 246.698 259.02 246.25C259.479 245.791 259.709 245.208 259.709 244.503C259.709 243.798 259.479 243.221 259.02 242.773C258.572 242.314 258.001 242.084 257.307 242.084C256.848 242.084 256.428 242.191 256.047 242.403C255.666 242.605 255.364 242.891 255.14 243.26C254.927 243.63 254.821 244.049 254.821 244.52C254.821 245.225 255.056 245.802 255.526 246.25C256.008 246.698 256.601 246.922 257.307 246.922ZM268.023 240.086C268.874 240.086 269.619 240.276 270.257 240.657C270.907 241.037 271.399 241.564 271.735 242.236C272.082 242.907 272.256 243.663 272.256 244.503C272.256 245.343 272.082 246.099 271.735 246.77C271.399 247.442 270.907 247.974 270.257 248.366C269.619 248.747 268.874 248.937 268.023 248.937C267.519 248.937 267.032 248.847 266.562 248.668C266.103 248.478 265.677 248.215 265.286 247.879V252.061H263.203V240.304H265.286V241.127C265.666 240.791 266.092 240.534 266.562 240.354C267.032 240.175 267.519 240.086 268.023 240.086ZM267.771 246.922C268.466 246.922 269.037 246.698 269.485 246.25C269.944 245.791 270.173 245.208 270.173 244.503C270.173 243.798 269.944 243.221 269.485 242.773C269.037 242.314 268.466 242.084 267.771 242.084C267.312 242.084 266.892 242.191 266.512 242.403C266.131 242.605 265.829 242.891 265.605 243.26C265.392 243.63 265.286 244.049 265.286 244.52C265.286 245.225 265.521 245.802 265.991 246.25C266.472 246.698 267.066 246.922 267.771 246.922ZM277.615 248.937C276.819 248.937 276.08 248.741 275.397 248.349C274.726 247.946 274.188 247.409 273.785 246.737C273.393 246.054 273.197 245.315 273.197 244.52C273.197 243.725 273.393 242.991 273.785 242.319C274.188 241.636 274.726 241.099 275.397 240.707C276.08 240.304 276.819 240.102 277.615 240.102C278.41 240.102 279.143 240.304 279.815 240.707C280.498 241.099 281.035 241.636 281.427 242.319C281.83 242.991 282.032 243.725 282.032 244.52C282.032 245.315 281.83 246.054 281.427 246.737C281.035 247.409 280.498 247.946 279.815 248.349C279.143 248.741 278.41 248.937 277.615 248.937ZM277.598 246.854C278.023 246.854 278.415 246.754 278.773 246.552C279.132 246.339 279.417 246.054 279.63 245.695C279.843 245.337 279.949 244.945 279.949 244.52C279.949 244.094 279.843 243.702 279.63 243.344C279.417 242.986 279.132 242.7 278.773 242.487C278.415 242.275 278.023 242.168 277.598 242.168C277.172 242.168 276.78 242.275 276.422 242.487C276.064 242.7 275.778 242.986 275.565 243.344C275.364 243.702 275.263 244.094 275.263 244.52C275.263 244.945 275.364 245.337 275.565 245.695C275.778 246.054 276.064 246.339 276.422 246.552C276.78 246.754 277.172 246.854 277.598 246.854ZM288.35 240.136L288.198 242.101C288.131 242.079 288.014 242.068 287.846 242.068C287.151 242.068 286.575 242.269 286.116 242.672C285.668 243.075 285.444 243.624 285.444 244.318V248.702H283.361V240.304H285.444V241.715C285.634 241.267 285.959 240.892 286.418 240.59C286.877 240.287 287.431 240.136 288.081 240.136H288.35ZM293.09 245.83C293.09 246.211 293.18 246.474 293.359 246.619C293.538 246.765 293.824 246.838 294.215 246.838C294.451 246.838 294.708 246.821 294.988 246.787V248.702C294.462 248.758 294.025 248.786 293.678 248.786C292.782 248.786 292.11 248.584 291.663 248.181C291.226 247.767 291.007 247.028 291.007 245.964V242.168H289.429V240.304H291.007V238.238L293.09 237.533V240.304H294.954V242.168H293.09V245.83ZM298.198 242.655C298.198 242.891 298.327 243.07 298.585 243.193C298.853 243.305 299.273 243.422 299.844 243.546C300.494 243.68 301.037 243.831 301.474 243.999C301.91 244.167 302.285 244.436 302.599 244.805C302.924 245.164 303.086 245.651 303.086 246.267C303.086 246.815 302.918 247.291 302.582 247.694C302.257 248.097 301.821 248.405 301.272 248.618C300.723 248.819 300.124 248.92 299.475 248.92C298.59 248.92 297.829 248.752 297.191 248.416C296.564 248.08 296.099 247.599 295.797 246.972L297.51 246.082C297.812 246.854 298.467 247.241 299.475 247.241C299.912 247.241 300.287 247.157 300.6 246.989C300.914 246.821 301.071 246.58 301.071 246.267C301.071 245.998 300.925 245.802 300.634 245.679C300.354 245.544 299.895 245.399 299.257 245.242C298.596 245.085 298.058 244.928 297.644 244.772C297.23 244.615 296.872 244.374 296.569 244.049C296.267 243.714 296.116 243.271 296.116 242.723C296.116 242.185 296.267 241.72 296.569 241.329C296.872 240.925 297.28 240.618 297.795 240.405C298.31 240.192 298.876 240.086 299.492 240.086C300.22 240.086 300.869 240.237 301.44 240.539C302.022 240.841 302.47 241.273 302.784 241.832L301.087 242.689C300.796 242.062 300.264 241.748 299.492 241.748C299.1 241.748 298.786 241.832 298.551 242C298.316 242.157 298.198 242.375 298.198 242.655ZM304.583 241.681C304.583 241.301 304.684 241.009 304.885 240.808C305.098 240.595 305.395 240.489 305.775 240.489C306.156 240.489 306.447 240.595 306.649 240.808C306.85 241.009 306.951 241.301 306.951 241.681C306.951 242.073 306.85 242.375 306.649 242.588C306.447 242.79 306.156 242.891 305.775 242.891C305.395 242.891 305.098 242.79 304.885 242.588C304.684 242.375 304.583 242.073 304.583 241.681ZM304.583 247.677C304.583 247.297 304.684 247 304.885 246.787C305.098 246.574 305.395 246.468 305.775 246.468C306.156 246.468 306.447 246.574 306.649 246.787C306.85 246.989 306.951 247.285 306.951 247.677C306.951 248.069 306.85 248.372 306.649 248.584C306.447 248.786 306.156 248.887 305.775 248.887C305.395 248.887 305.098 248.786 304.885 248.584C304.684 248.372 304.583 248.069 304.583 247.677ZM318.569 236.945H320.753V244.99C320.753 245.74 320.579 246.418 320.232 247.022C319.885 247.616 319.398 248.08 318.771 248.416C318.144 248.752 317.422 248.92 316.604 248.92C315.731 248.92 314.97 248.735 314.32 248.366C313.682 247.996 313.178 247.459 312.808 246.754L314.606 245.729C314.863 246.166 315.149 246.479 315.462 246.67C315.776 246.86 316.184 246.955 316.688 246.955C317.293 246.955 317.758 246.793 318.082 246.468C318.407 246.132 318.569 245.639 318.569 244.99V236.945ZM327.324 236.945C328.018 236.945 328.662 237.118 329.255 237.465C329.849 237.801 330.313 238.266 330.649 238.86C330.996 239.453 331.17 240.097 331.17 240.791C331.17 241.485 330.996 242.129 330.649 242.723C330.313 243.305 329.849 243.77 329.255 244.117C328.662 244.464 328.018 244.637 327.324 244.637H325.241V248.702H323.041V236.945H327.324ZM327.324 242.538C327.805 242.538 328.214 242.37 328.55 242.034C328.897 241.687 329.07 241.273 329.07 240.791C329.07 240.31 328.897 239.895 328.55 239.548C328.214 239.201 327.805 239.028 327.324 239.028H325.241V242.538H327.324ZM337.938 242.487H344.27V243.462C344.27 244.447 344.002 245.36 343.464 246.199C342.938 247.028 342.221 247.689 341.314 248.181C340.407 248.674 339.422 248.92 338.358 248.92C337.261 248.92 336.248 248.652 335.318 248.114C334.389 247.565 333.65 246.826 333.101 245.897C332.564 244.968 332.295 243.954 332.295 242.857C332.295 241.76 332.564 240.746 333.101 239.817C333.65 238.888 334.389 238.154 335.318 237.617C336.248 237.068 337.261 236.794 338.358 236.794C339.366 236.794 340.301 237.029 341.163 237.499C342.037 237.969 342.748 238.602 343.296 239.397L341.566 240.741C341.219 240.214 340.76 239.795 340.189 239.481C339.618 239.156 339.008 238.994 338.358 238.994C337.664 238.994 337.015 239.167 336.41 239.515C335.817 239.862 335.346 240.332 334.999 240.925C334.652 241.519 334.478 242.163 334.478 242.857C334.478 243.551 334.652 244.195 334.999 244.788C335.346 245.382 335.817 245.852 336.41 246.199C337.015 246.546 337.664 246.72 338.358 246.72C339.165 246.72 339.87 246.524 340.475 246.132C341.09 245.74 341.533 245.22 341.801 244.57H337.938V242.487ZM346.657 248.853C346.321 248.763 346.097 248.646 345.985 248.5C345.885 248.344 345.834 248.069 345.834 247.677C345.834 247.297 345.935 247 346.137 246.787C346.349 246.574 346.646 246.468 347.027 246.468C347.408 246.468 347.704 246.58 347.917 246.804C348.13 247.017 348.236 247.319 348.236 247.711C348.225 248.148 348.169 248.5 348.068 248.769C347.979 249.038 347.794 249.368 347.514 249.76L346.674 250.902L346.002 250.348L346.657 248.853ZM358.931 236.945C359.625 236.945 360.269 237.118 360.862 237.465C361.456 237.801 361.92 238.266 362.256 238.86C362.603 239.453 362.777 240.097 362.777 240.791C362.777 241.485 362.603 242.129 362.256 242.723C361.92 243.305 361.456 243.77 360.862 244.117C360.269 244.464 359.625 244.637 358.931 244.637H356.848V248.702H354.648V236.945H358.931ZM358.931 242.538C359.412 242.538 359.821 242.37 360.157 242.034C360.504 241.687 360.677 241.273 360.677 240.791C360.677 240.31 360.504 239.895 360.157 239.548C359.821 239.201 359.412 239.028 358.931 239.028H356.848V242.538H358.931ZM371.443 244.335V236.945H373.644V248.702H371.762L366.657 240.741V248.702H364.456V236.945H366.657L371.443 244.335ZM380.797 242.487H387.129V243.462C387.129 244.447 386.861 245.36 386.323 246.199C385.797 247.028 385.08 247.689 384.173 248.181C383.266 248.674 382.281 248.92 381.217 248.92C380.12 248.92 379.107 248.652 378.177 248.114C377.248 247.565 376.509 246.826 375.96 245.897C375.423 244.968 375.154 243.954 375.154 242.857C375.154 241.76 375.423 240.746 375.96 239.817C376.509 238.888 377.248 238.154 378.177 237.617C379.107 237.068 380.12 236.794 381.217 236.794C382.225 236.794 383.16 237.029 384.022 237.499C384.895 237.969 385.606 238.602 386.155 239.397L384.425 240.741C384.078 240.214 383.619 239.795 383.048 239.481C382.477 239.156 381.867 238.994 381.217 238.994C380.523 238.994 379.874 239.167 379.269 239.515C378.675 239.862 378.205 240.332 377.858 240.925C377.511 241.519 377.337 242.163 377.337 242.857C377.337 243.551 377.511 244.195 377.858 244.788C378.205 245.382 378.675 245.852 379.269 246.199C379.874 246.546 380.523 246.72 381.217 246.72C382.023 246.72 382.729 246.524 383.333 246.132C383.949 245.74 384.392 245.22 384.66 244.57H380.797V242.487ZM389.516 248.853C389.18 248.763 388.956 248.646 388.844 248.5C388.744 248.344 388.693 248.069 388.693 247.677C388.693 247.297 388.794 247 388.995 246.787C389.208 246.574 389.505 246.468 389.886 246.468C390.266 246.468 390.563 246.58 390.776 246.804C390.989 247.017 391.095 247.319 391.095 247.711C391.084 248.148 391.028 248.5 390.927 248.769C390.837 249.038 390.653 249.368 390.373 249.76L389.533 250.902L388.861 250.348L389.516 248.853ZM408.222 245.242L410.423 236.945H412.69L409.448 248.702H407.08L404.662 240.673L402.243 248.702H399.875L396.633 236.945H398.901L401.101 245.242L403.52 236.945H405.804L408.222 245.242ZM416.787 240.086C417.593 240.086 418.315 240.287 418.954 240.69C419.603 241.082 420.107 241.614 420.465 242.286C420.824 242.958 421.003 243.702 421.003 244.52C421.003 244.788 420.98 245.035 420.936 245.259H414.452C414.62 245.852 414.917 246.317 415.343 246.653C415.768 246.978 416.311 247.14 416.972 247.14C417.375 247.14 417.761 247.05 418.131 246.871C418.511 246.692 418.797 246.462 418.987 246.183L420.583 247.123C420.191 247.705 419.681 248.153 419.054 248.467C418.439 248.769 417.728 248.92 416.921 248.92C416.026 248.92 415.231 248.73 414.536 248.349C413.842 247.968 413.305 247.442 412.924 246.77C412.554 246.099 412.37 245.343 412.37 244.503C412.37 243.674 412.554 242.924 412.924 242.252C413.305 241.58 413.831 241.054 414.503 240.673C415.175 240.282 415.936 240.086 416.787 240.086ZM419.054 243.63C418.965 243.092 418.713 242.672 418.299 242.37C417.895 242.056 417.386 241.9 416.77 241.9C416.345 241.9 415.953 241.978 415.594 242.135C415.247 242.291 414.967 242.504 414.755 242.773C414.542 243.042 414.43 243.327 414.419 243.63H419.054ZM427.326 240.086C428.177 240.086 428.921 240.282 429.559 240.673C430.198 241.054 430.685 241.58 431.021 242.252C431.368 242.924 431.541 243.68 431.541 244.52C431.541 245.36 431.368 246.115 431.021 246.787C430.685 247.459 430.198 247.985 429.559 248.366C428.921 248.747 428.177 248.937 427.326 248.937C426.777 248.937 426.251 248.831 425.747 248.618C425.243 248.405 424.795 248.108 424.403 247.728V248.702H422.32V236.945H424.403V241.295C424.795 240.914 425.243 240.618 425.747 240.405C426.262 240.192 426.788 240.086 427.326 240.086ZM427.057 246.938C427.762 246.938 428.339 246.714 428.787 246.267C429.246 245.807 429.475 245.225 429.475 244.52C429.475 243.814 429.246 243.238 428.787 242.79C428.339 242.331 427.762 242.101 427.057 242.101C426.363 242.101 425.775 242.325 425.293 242.773C424.823 243.221 424.588 243.798 424.588 244.503C424.588 244.973 424.694 245.393 424.907 245.763C425.131 246.132 425.428 246.423 425.797 246.636C426.178 246.838 426.598 246.938 427.057 246.938ZM437.858 236.945C438.552 236.945 439.196 237.118 439.789 237.465C440.383 237.801 440.848 238.266 441.184 238.86C441.531 239.453 441.704 240.097 441.704 240.791C441.704 241.485 441.531 242.129 441.184 242.723C440.848 243.305 440.383 243.77 439.789 244.117C439.196 244.464 438.552 244.637 437.858 244.637H435.775V248.702H433.575V236.945H437.858ZM437.858 242.538C438.339 242.538 438.748 242.37 439.084 242.034C439.431 241.687 439.605 241.273 439.605 240.791C439.605 240.31 439.431 239.895 439.084 239.548C438.748 239.201 438.339 239.028 437.858 239.028H435.775V242.538H437.858ZM441.987 248.853C441.651 248.763 441.427 248.646 441.315 248.5C441.214 248.344 441.164 248.069 441.164 247.677C441.164 247.297 441.264 247 441.466 246.787C441.679 246.574 441.976 246.468 442.356 246.468C442.737 246.468 443.034 246.58 443.246 246.804C443.459 247.017 443.566 247.319 443.566 247.711C443.554 248.148 443.498 248.5 443.398 248.769C443.308 249.038 443.123 249.368 442.843 249.76L442.004 250.902L441.332 250.348L441.987 248.853ZM455.066 242.487H461.398V243.462C461.398 244.447 461.13 245.36 460.592 246.199C460.066 247.028 459.349 247.689 458.442 248.181C457.535 248.674 456.55 248.92 455.486 248.92C454.389 248.92 453.376 248.652 452.446 248.114C451.517 247.565 450.778 246.826 450.229 245.897C449.692 244.968 449.423 243.954 449.423 242.857C449.423 241.76 449.692 240.746 450.229 239.817C450.778 238.888 451.517 238.154 452.446 237.617C453.376 237.068 454.389 236.794 455.486 236.794C456.494 236.794 457.429 237.029 458.291 237.499C459.165 237.969 459.876 238.602 460.424 239.397L458.694 240.741C458.347 240.214 457.888 239.795 457.317 239.481C456.746 239.156 456.136 238.994 455.486 238.994C454.792 238.994 454.143 239.167 453.538 239.515C452.944 239.862 452.474 240.332 452.127 240.925C451.78 241.519 451.606 242.163 451.606 242.857C451.606 243.551 451.78 244.195 452.127 244.788C452.474 245.382 452.944 245.852 453.538 246.199C454.143 246.546 454.792 246.72 455.486 246.72C456.292 246.72 456.998 246.524 457.603 246.132C458.218 245.74 458.661 245.22 458.929 244.57H455.066V242.487ZM463.083 248.702V236.945H465.266V248.702H463.083ZM474.696 236.945V239.028H469.859V241.849H474.511V243.932H469.859V248.702H467.659V236.945H474.696ZM475.398 248.853C475.062 248.763 474.838 248.646 474.726 248.5C474.625 248.344 474.575 248.069 474.575 247.677C474.575 247.297 474.676 247 474.877 246.787C475.09 246.574 475.387 246.468 475.767 246.468C476.148 246.468 476.445 246.58 476.658 246.804C476.87 247.017 476.977 247.319 476.977 247.711C476.966 248.148 476.91 248.5 476.809 248.769C476.719 249.038 476.534 249.368 476.255 249.76L475.415 250.902L474.743 250.348L475.398 248.853ZM492.643 236.978V236.945H494.826V248.702H492.643V240.942L489.385 246.401H488.847L485.589 240.942V248.702H483.388V236.945H485.589V236.978L485.639 236.945L489.116 242.807L492.593 236.945L492.643 236.978ZM501.515 236.945C502.209 236.945 502.853 237.118 503.446 237.465C504.04 237.801 504.504 238.266 504.84 238.86C505.187 239.453 505.361 240.097 505.361 240.791C505.361 241.485 505.187 242.129 504.84 242.723C504.504 243.305 504.04 243.77 503.446 244.117C502.853 244.464 502.209 244.637 501.515 244.637H499.432V248.702H497.232V236.945H501.515ZM501.515 242.538C501.996 242.538 502.405 242.37 502.741 242.034C503.088 241.687 503.262 241.273 503.262 240.791C503.262 240.31 503.088 239.895 502.741 239.548C502.405 239.201 501.996 239.028 501.515 239.028H499.432V242.538H501.515ZM514.195 244.335H515.455V246.418H514.195V248.702H512.012V246.418H506.251V244.335L509.929 236.945H512.365L508.703 244.335H512.012V241.715H514.195V244.335ZM517.716 248.853C517.38 248.763 517.156 248.646 517.044 248.5C516.943 248.344 516.893 248.069 516.893 247.677C516.893 247.297 516.993 247 517.195 246.787C517.408 246.574 517.704 246.468 518.085 246.468C518.466 246.468 518.762 246.58 518.975 246.804C519.188 247.017 519.294 247.319 519.294 247.711C519.283 248.148 519.227 248.5 519.126 248.769C519.037 249.038 518.852 249.368 518.572 249.76L517.732 250.902L517.061 250.348L517.716 248.853ZM536.422 245.242L538.622 236.945H540.889L537.648 248.702H535.28L532.861 240.673L530.442 248.702H528.074L524.833 236.945H527.1L529.3 245.242L531.719 236.945H534.003L536.422 245.242ZM544.986 240.086C545.793 240.086 546.515 240.287 547.153 240.69C547.802 241.082 548.306 241.614 548.665 242.286C549.023 242.958 549.202 243.702 549.202 244.52C549.202 244.788 549.18 245.035 549.135 245.259H542.652C542.82 245.852 543.116 246.317 543.542 246.653C543.967 246.978 544.51 247.14 545.171 247.14C545.574 247.14 545.96 247.05 546.33 246.871C546.711 246.692 546.996 246.462 547.187 246.183L548.782 247.123C548.39 247.705 547.881 248.153 547.254 248.467C546.638 248.769 545.927 248.92 545.121 248.92C544.225 248.92 543.43 248.73 542.736 248.349C542.041 247.968 541.504 247.442 541.123 246.77C540.754 246.099 540.569 245.343 540.569 244.503C540.569 243.674 540.754 242.924 541.123 242.252C541.504 241.58 542.03 241.054 542.702 240.673C543.374 240.282 544.135 240.086 544.986 240.086ZM547.254 243.63C547.164 243.092 546.912 242.672 546.498 242.37C546.095 242.056 545.585 241.9 544.97 241.9C544.544 241.9 544.152 241.978 543.794 242.135C543.447 242.291 543.167 242.504 542.954 242.773C542.741 243.042 542.629 243.327 542.618 243.63H547.254ZM555.525 240.086C556.376 240.086 557.121 240.282 557.759 240.673C558.397 241.054 558.884 241.58 559.22 242.252C559.567 242.924 559.741 243.68 559.741 244.52C559.741 245.36 559.567 246.115 559.22 246.787C558.884 247.459 558.397 247.985 557.759 248.366C557.121 248.747 556.376 248.937 555.525 248.937C554.976 248.937 554.45 248.831 553.946 248.618C553.442 248.405 552.994 248.108 552.602 247.728V248.702H550.52V236.945H552.602V241.295C552.994 240.914 553.442 240.618 553.946 240.405C554.461 240.192 554.987 240.086 555.525 240.086ZM555.256 246.938C555.962 246.938 556.538 246.714 556.986 246.267C557.445 245.807 557.675 245.225 557.675 244.52C557.675 243.814 557.445 243.238 556.986 242.79C556.538 242.331 555.962 242.101 555.256 242.101C554.562 242.101 553.974 242.325 553.493 242.773C553.022 243.221 552.787 243.798 552.787 244.503C552.787 244.973 552.894 245.393 553.106 245.763C553.33 246.132 553.627 246.423 553.996 246.636C554.377 246.838 554.797 246.938 555.256 246.938ZM571.029 236.978V236.945H573.212V248.702H571.029V240.942L567.771 246.401H567.233L563.975 240.942V248.702H561.774V236.945H563.975V236.978L564.025 236.945L567.502 242.807L570.979 236.945L571.029 236.978ZM576.206 248.853C575.87 248.763 575.646 248.646 575.534 248.5C575.433 248.344 575.383 248.069 575.383 247.677C575.383 247.297 575.483 247 575.685 246.787C575.898 246.574 576.195 246.468 576.575 246.468C576.956 246.468 577.253 246.58 577.465 246.804C577.678 247.017 577.785 247.319 577.785 247.711C577.773 248.148 577.717 248.5 577.617 248.769C577.527 249.038 577.342 249.368 577.062 249.76L576.223 250.902L575.551 250.348L576.206 248.853ZM589.285 242.487H595.617V243.462C595.617 244.447 595.349 245.36 594.811 246.199C594.285 247.028 593.568 247.689 592.661 248.181C591.754 248.674 590.769 248.92 589.705 248.92C588.608 248.92 587.595 248.652 586.665 248.114C585.736 247.565 584.997 246.826 584.448 245.897C583.911 244.968 583.642 243.954 583.642 242.857C583.642 241.76 583.911 240.746 584.448 239.817C584.997 238.888 585.736 238.154 586.665 237.617C587.595 237.068 588.608 236.794 589.705 236.794C590.713 236.794 591.648 237.029 592.51 237.499C593.383 237.969 594.095 238.602 594.643 239.397L592.913 240.741C592.566 240.214 592.107 239.795 591.536 239.481C590.965 239.156 590.355 238.994 589.705 238.994C589.011 238.994 588.362 239.167 587.757 239.515C587.163 239.862 586.693 240.332 586.346 240.925C585.999 241.519 585.825 242.163 585.825 242.857C585.825 243.551 585.999 244.195 586.346 244.788C586.693 245.382 587.163 245.852 587.757 246.199C588.362 246.546 589.011 246.72 589.705 246.72C590.511 246.72 591.217 246.524 591.821 246.132C592.437 245.74 592.88 245.22 593.148 244.57H589.285V242.487ZM599.289 236.945V246.619H604.243V248.702H597.088V236.945H599.289ZM613.19 242.437C613.582 242.773 613.885 243.176 614.097 243.646C614.321 244.117 614.433 244.615 614.433 245.141C614.433 245.779 614.277 246.373 613.963 246.922C613.661 247.459 613.246 247.89 612.72 248.215C612.205 248.528 611.64 248.685 611.024 248.685H607.9V248.702H605.699V236.945H610.755C611.337 236.945 611.875 237.096 612.367 237.398C612.86 237.701 613.252 238.109 613.543 238.624C613.834 239.128 613.98 239.671 613.98 240.254C613.98 240.646 613.907 241.032 613.761 241.413C613.627 241.782 613.437 242.124 613.19 242.437ZM607.9 239.028V241.664L610.755 241.648C611.08 241.648 611.36 241.524 611.595 241.278C611.841 241.021 611.964 240.707 611.964 240.338C611.964 239.957 611.841 239.643 611.595 239.397C611.36 239.151 611.08 239.028 610.755 239.028H607.9ZM611.024 246.602C611.382 246.602 611.69 246.457 611.948 246.166C612.216 245.863 612.351 245.516 612.351 245.124C612.351 244.732 612.216 244.391 611.948 244.1C611.69 243.798 611.382 243.646 611.024 243.646H607.9V246.602H611.024ZM616.719 248.853C616.383 248.763 616.159 248.646 616.047 248.5C615.946 248.344 615.896 248.069 615.896 247.677C615.896 247.297 615.997 247 616.198 246.787C616.411 246.574 616.708 246.468 617.089 246.468C617.469 246.468 617.766 246.58 617.979 246.804C618.192 247.017 618.298 247.319 618.298 247.711C618.287 248.148 618.231 248.5 618.13 248.769C618.04 249.038 617.856 249.368 617.576 249.76L616.736 250.902L616.064 250.348L616.719 248.853ZM629.799 242.487H636.131V243.462C636.131 244.447 635.862 245.36 635.324 246.199C634.798 247.028 634.082 247.689 633.175 248.181C632.268 248.674 631.282 248.92 630.219 248.92C629.121 248.92 628.108 248.652 627.179 248.114C626.249 247.565 625.51 246.826 624.961 245.897C624.424 244.968 624.155 243.954 624.155 242.857C624.155 241.76 624.424 240.746 624.961 239.817C625.51 238.888 626.249 238.154 627.179 237.617C628.108 237.068 629.121 236.794 630.219 236.794C631.226 236.794 632.161 237.029 633.023 237.499C633.897 237.969 634.608 238.602 635.157 239.397L633.427 240.741C633.079 240.214 632.62 239.795 632.049 239.481C631.478 239.156 630.868 238.994 630.219 238.994C629.524 238.994 628.875 239.167 628.27 239.515C627.677 239.862 627.207 240.332 626.859 240.925C626.512 241.519 626.339 242.163 626.339 242.857C626.339 243.551 626.512 244.195 626.859 244.788C627.207 245.382 627.677 245.852 628.27 246.199C628.875 246.546 629.524 246.72 630.219 246.72C631.025 246.72 631.73 246.524 632.335 246.132C632.951 245.74 633.393 245.22 633.662 244.57H629.799V242.487ZM639.802 236.945V246.619H644.757V248.702H637.602V236.945H639.802ZM652.217 236.945V239.028H648.975V248.702H646.792V239.028H643.567V236.945H652.217ZM660.697 236.945V239.028H655.86V241.849H660.512V243.932H655.86V248.702H653.659V236.945H660.697Z" fill="#E6E8EB"/>
<g filter="url(#filter0_dd_217_8397)">
<path d="M401.437 46.5484H485.777L489.166 46.9472L492.954 47.9441L496.145 49.3398L498.338 50.7355L501.129 52.9287L502.525 54.3244L504.519 56.9164L506.313 60.1065L507.908 64.493L508.506 68.4807L508.706 112.744L509.105 113.94L511.098 116.931L512.694 120.121L514.089 123.71L514.887 126.701L515.485 130.09L515.684 132.084V135.673L515.286 139.462L514.289 143.649L512.893 147.437L511.298 150.826L509.304 154.017L508.506 155.213L507.709 159.001L506.513 162.191L505.117 164.783L503.322 167.176L501.528 169.17L499.335 171.164L495.746 173.357L492.356 174.753L488.767 175.55L487.172 175.749H400.041L396.253 175.151L393.262 174.154L390.072 172.559L387.679 170.765L385.287 168.572L383.293 165.98L381.499 162.79L380.302 159.799L379.505 156.609L379.106 153.418V68.2813L379.704 64.8918L380.701 61.7016L382.296 58.3121L384.29 55.5207L386.483 53.1281L388.477 51.3336L391.268 49.5392L394.658 47.9441L398.247 46.9472L401.437 46.5484ZM401.038 118.127L399.842 118.726L399.044 120.121L399.244 121.916L400.241 123.112L400.639 123.311L441.513 123.511L443.308 123.311L444.504 122.514L445.102 121.517V119.922L444.105 118.526L443.108 118.127H401.038ZM400.839 131.087L399.643 131.885L399.044 132.882V134.278L399.643 135.474L400.44 136.072L401.038 136.271H432.541L433.737 135.673L434.535 134.676L434.734 133.48L434.335 132.284L433.339 131.287L432.74 131.087H400.839ZM401.636 144.047L400.241 144.446L399.244 145.642L399.044 146.041V147.636L399.842 148.833L400.639 149.431L401.437 149.63H428.354L429.75 148.833L430.348 147.836V145.842L429.55 144.646L428.753 144.247L427.556 144.047H401.636Z" fill="#FAFAFA"/>
<path d="M401.437 65.6889H450.087L451.682 66.4864L452.679 68.0815V96.5935V96.9922V106.164L452.081 107.56L450.685 108.756L449.688 108.955H402.434L400.64 108.357L399.444 106.961L399.244 106.363V67.8821L400.042 66.6858L401.039 65.8883L401.437 65.6889Z" fill="#D5EAEA"/>
<path d="M479.795 100.182H483.583L488.169 100.78L492.555 101.977L495.546 103.173L499.334 105.167L502.525 107.36L504.718 109.354L506.313 110.75L508.107 112.743L509.702 114.737L511.297 117.329L512.893 120.519L514.288 124.308L515.285 128.694L515.684 132.084V135.673L515.285 139.461L514.288 143.648L512.893 147.436L511.297 150.826L509.304 154.016L508.506 155.212L507.509 156.209L505.715 158.203L503.721 160.197L500.331 162.789L496.942 164.783L494.15 165.979L491.16 166.976L487.77 167.774L484.979 168.172H479.396L475.408 167.574L472.019 166.777L468.23 165.381L464.043 163.188L460.654 160.795L458.062 158.402L456.467 156.807L454.473 154.215L452.08 150.228L450.685 147.237L449.09 142.452L448.292 137.666V130.489L448.89 126.501L450.086 122.513L451.283 119.523L452.878 116.532L454.473 114.139L456.267 111.946L458.062 109.952L459.458 108.556L461.252 107.161V107.759L461.053 108.556L459.657 109.952L458.062 111.348L456.267 113.541L454.473 115.934L452.479 119.523L451.083 122.912L450.086 126.7L449.688 129.292L449.488 133.479L449.887 138.464L450.884 142.452L452.479 146.439L453.277 147.038L453.077 145.642L452.28 142.85V141.056L452.678 139.262L455.27 137.866L456.068 136.869L457.264 136.071L457.862 135.274H458.261L458.66 133.479L459.856 131.087L461.651 129.492L462.249 128.894L465.04 128.495L468.23 127.897L469.826 127.498L471.819 126.501L473.016 125.703H473.414L473.813 124.308L474.81 122.115L476.006 118.326L476.405 116.532L477.601 115.934L478.798 114.937L479.396 115.136L478.2 115.934L477.402 117.329L477.203 129.093L476.405 129.691L464.043 129.89L462.847 130.688L462.249 131.685V136.47L462.847 137.666L464.442 138.464L476.804 138.663L477.203 139.262L477.402 150.826L478 152.222L478.997 153.019L479.595 153.218H484.181L485.377 152.62L485.976 151.623L486.175 150.826L486.374 139.262L486.973 138.663L499.135 138.464L500.929 137.666L501.727 136.071V132.881L501.129 131.087L499.933 130.09L499.135 129.89L486.973 129.691L486.374 128.894L486.175 117.329L485.377 115.934L484.381 115.335L483.583 115.136L479.595 114.937L479.994 114.538H482.985L484.779 114.937L485.377 115.335H485.976L486.773 115.934L487.77 116.532L488.368 117.329V117.728H488.767L490.561 120.32L492.356 121.317L493.552 121.716L496.344 121.516L498.736 120.918L499.933 120.719L501.528 119.921L501.727 119.323H502.525V118.924L503.521 118.526L504.518 118.326V117.927L505.715 117.529L505.914 116.931L506.911 117.13L507.908 117.728H508.705L508.307 116.532L506.911 114.139V113.74H506.512L504.917 111.547L502.525 109.155L500.531 107.559L498.537 106.164L495.347 104.369L491.758 102.974L488.368 101.977L484.779 101.379L480.991 101.179L476.405 101.578L472.218 102.575L469.028 103.572H468.43V103.971L464.642 105.765L464.243 105.964L463.645 106.164V106.563L462.448 107.36L461.651 107.161V106.762L465.04 104.569L469.626 102.375L472.617 101.379L477.601 100.382L479.795 100.182Z" fill="#1F92CB"/>
<path d="M480.99 100.98L484.779 101.179L489.165 101.977L494.548 103.771L497.938 105.566L500.53 107.36L503.321 109.753L505.514 111.946L506.511 113.342V113.741H506.91L508.505 116.532L508.904 117.728L507.907 117.928L506.711 117.13H505.913L505.116 117.928H504.518V118.326L503.521 118.725L502.524 118.925V119.323L501.926 119.722L500.929 120.52L499.932 120.918L498.536 121.118L496.143 121.716L493.551 121.915L491.558 121.118L490.162 120.121L488.766 118.127V117.728H488.367L487.371 116.333L486.174 115.734L485.775 115.336H485.177L484.18 114.937L482.984 114.737H479.993L483.582 114.937L485.177 115.535L486.174 116.731L486.374 117.329L486.573 128.894L486.972 129.492L499.134 129.691L500.53 130.289L501.527 131.486L501.926 132.881V136.072L500.929 137.866L499.134 138.664L486.972 138.863L486.573 139.262L486.374 150.826L485.775 152.222L484.978 153.019L484.18 153.418H479.595L478.398 152.82L477.601 152.022L477.202 150.826L477.003 139.262L476.803 138.863L464.441 138.664L462.846 137.866L462.248 137.068L462.049 136.47V131.685L462.846 130.489L464.043 129.691L476.404 129.492L477.003 129.093L477.202 117.329L478.199 115.734L478.797 115.136L477.601 116.133L477.202 116.532H476.604L476.205 118.326L474.809 122.713L474.012 124.308L473.414 125.704L471.619 126.9L469.426 127.897L465.638 128.495L463.644 128.894L461.849 129.093L461.451 129.891L460.055 131.087L458.859 133.48L458.26 135.274L457.263 136.271L455.868 137.268L455.07 138.265L452.877 139.262L452.478 141.056V142.851L453.475 146.44L453.276 147.237L452.279 146.44L450.684 142.452L449.687 138.464L449.288 133.48L449.487 129.293L450.086 125.903L451.083 122.314L452.678 118.725L454.671 115.336L456.865 112.544L459.257 109.952L460.852 108.557L461.451 106.961L462.447 107.161L463.245 106.563H463.644V106.164L464.043 105.765L464.641 105.566L468.03 103.971H468.429V103.572L473.613 101.977L477.8 101.179L480.99 100.98Z" fill="#31B7D9"/>
<path d="M393.661 63.097L393.86 63.6952L393.661 64.2933V153.618L394.259 155.213L395.057 156.01L397.051 156.608L400.639 156.808H437.127L449.489 156.608L449.688 155.412L448.89 153.219L448.292 151.225L447.894 150.427L447.096 146.639L446.498 143.848L446.299 141.654V138.066L446.697 132.682L447.495 130.29L448.093 127.897H448.292L448.093 132.084H448.292L448.492 137.667L449.289 142.452L451.084 147.835L453.078 151.624L455.071 154.814L457.464 157.605L459.657 159.798L462.249 161.792L465.838 163.986L469.626 165.78L472.617 166.777L476.206 167.574L479.396 167.973H484.979L489.764 167.176L492.954 166.179L496.543 164.783L499.734 162.989L502.924 160.596L505.316 158.403L506.911 156.808L508.108 155.213H508.307L508.108 157.406L507.111 160.795L505.516 164.185L503.522 166.976L501.329 169.369L499.335 171.163L495.746 173.357L492.356 174.752L488.767 175.55L487.172 175.749H400.041L396.253 175.151L393.262 174.154L390.072 172.559L387.679 170.765L385.287 168.571L383.293 165.979L381.499 162.789L380.302 159.798L379.505 156.608L379.106 153.418V68.281L379.704 64.8915L380.103 63.4958L380.302 64.2933L379.704 67.4835L379.505 71.4712V128.694L379.704 152.621L380.701 157.605L381.897 160.596L383.692 163.786L385.885 166.378L387.081 167.774L389.673 169.768L392.465 171.363L395.854 172.758L400.839 173.556H429.75L430.348 173.357H438.124L438.722 173.157L440.118 173.357L443.108 172.958L444.504 172.36L445.302 172.16L446.897 171.562L447.295 171.163L447.694 170.366L448.292 169.768H448.691V167.973L449.289 167.375L449.489 166.578V164.584L448.89 162.989L447.694 162.191L445.102 161.394L442.111 161.194L440.317 160.995L428.553 160.795H404.627L398.247 160.397L396.452 159.798L394.459 158.602V158.203H394.06L393.063 156.409L392.664 155.213L392.465 152.621L392.664 148.434V143.25L392.863 133.679L393.063 65.0909L393.661 63.097Z" fill="#D2D4D4"/>
<path d="M433.738 79.6456L435.133 79.845L436.728 81.0413L452.679 96.9921V106.164L452.081 107.559L450.685 108.756L449.688 108.955H402.434L400.64 108.357L399.444 106.961L399.244 106.363V101.578L410.21 90.6118L411.606 89.8142H413.6L415.394 91.0105L417.787 93.2038L417.986 93.4032H418.983L419.581 93.2038L419.98 92.4062L431.744 80.6426L433.738 79.6456Z" fill="#8DBAB1"/>
<path d="M479.595 114.937H483.583L485.178 115.535L486.175 116.731L486.374 117.329L486.574 128.894L486.972 129.492L499.135 129.691L500.531 130.289L501.527 131.486L501.926 132.881V136.071L500.929 137.866L499.135 138.663L486.972 138.863L486.574 139.262L486.374 150.826L485.776 152.222L484.979 153.019L484.181 153.418H479.595L478.399 152.82L477.601 152.022L477.203 150.826L477.003 139.262L476.804 138.863L464.442 138.663L462.847 137.866L462.249 137.068L462.049 136.47V131.685L462.847 130.489L464.043 129.691L476.405 129.492L477.003 129.093L477.203 117.329L478.199 115.734L478.997 115.136L479.595 114.937Z" fill="#FAFAFA"/>
<path d="M448.093 127.897H448.292L448.093 132.084H448.292L448.492 137.667L449.289 142.452L451.084 147.835L453.078 151.624L455.071 154.814L457.464 157.605L459.657 159.798L462.249 161.792L465.838 163.986L469.627 165.78L472.617 166.777L476.206 167.574L479.396 167.973H484.979L489.764 167.176L492.954 166.179L496.543 164.783L499.734 162.989L502.924 160.596L505.316 158.403L506.911 156.808L508.108 155.213H508.307L508.108 157.406L507.111 160.795L505.516 164.185L503.522 166.976L501.329 169.369L499.335 171.163L495.746 173.357L492.356 174.752L488.767 175.55L487.172 175.749H400.041L396.253 175.151L393.262 174.154L390.072 172.559L388.477 171.363L388.876 171.163L391.069 172.559L394.06 173.955L396.851 174.752L398.845 175.151L402.434 175.35H462.05L478.399 175.151L484.381 174.952L489.166 174.354L492.556 173.357L495.746 171.961L497.939 170.565L499.135 169.568L500.132 168.372L500.531 167.574L498.737 168.173L497.74 168.771L495.148 169.768L491.559 170.964L488.169 171.562L484.78 171.762H478.798L474.212 170.964L472.219 170.366L470.225 169.568L467.633 168.372L467.035 168.173V167.774L466.237 167.375L463.645 165.78V165.381L462.648 164.982L460.654 163.387V162.989L459.857 162.59L458.461 161.394V160.995L457.464 160.596L455.071 159.599L452.679 159.2L450.286 159.001L434.136 158.802H408.814L398.048 158.602L396.253 158.004L394.259 156.21L393.462 154.814L393.262 153.418L393.661 153.618L394.259 155.213L395.057 156.01L397.051 156.608L400.639 156.808H437.127L449.489 156.608L449.688 155.412L448.891 153.219L448.292 151.225L447.894 150.427L447.096 146.639L446.498 143.848L446.299 141.654V138.066L446.697 132.682L447.495 130.29L448.093 127.897Z" fill="#A5B6B4"/>
<path d="M512.095 122.115L512.294 122.514L513.092 122.713L513.291 124.508L513.49 125.504H513.889L514.487 126.9L515.085 128.894L515.285 130.29V136.271L514.886 139.461L514.687 142.253L513.092 147.038L511.297 150.826L509.303 154.016L508.506 155.213L507.509 156.21L505.714 158.203L503.721 160.197L500.331 162.789L496.941 164.783L494.15 165.979L491.159 166.976L487.77 167.774L484.978 168.173H479.396L475.408 167.575L472.018 166.777L468.23 165.381L464.043 163.188L460.654 160.795L460.055 159.998V159.599L458.46 158.004L458.261 157.007L458.062 156.608L459.058 157.007L461.052 158.802L464.841 161.394L468.23 163.188L471.62 164.584L476.604 165.78L478.199 165.979H484.58L489.365 165.182L492.754 164.185L495.147 163.188L498.736 161.194L501.129 159.4L503.322 157.406L504.319 156.608L506.113 154.415L508.107 151.823L509.303 149.829L511.696 144.845L512.892 141.056L513.69 136.869V130.09L512.892 125.504L512.095 122.713V122.115Z" fill="#0E5E98"/>
<path d="M413.002 72.0694H415.195L417.189 72.6675L418.784 73.8638L420.18 75.4589L420.778 76.8546L420.978 79.4466L420.379 81.4404L419.183 83.2349L417.787 84.4312L416.192 85.2287L415.395 85.4281H412.803L410.61 84.6306L408.616 82.8361L407.619 80.8423L407.419 80.0447V77.2534L408.217 75.2595L409.812 73.4651L411.607 72.4681L413.002 72.0694Z" fill="#8FBBB1"/>
<path d="M448.093 127.897H448.292L448.093 132.084H448.292L448.491 137.667L449.289 142.452L451.083 147.835L453.077 151.624L455.071 154.814L455.47 155.611H455.071L455.27 156.409L455.071 157.206L453.875 157.406L455.27 157.605V157.805H397.648L395.256 156.808L394.857 156.21H395.654L397.05 156.608L400.639 156.808H437.126L449.488 156.608L449.688 155.412L448.89 153.219L448.292 151.225L447.893 150.427L447.096 146.639L446.497 143.848L446.298 141.654V138.066L446.697 132.682L447.494 130.29L448.093 127.897Z" fill="#D4D6D5"/>
<path d="M393.263 153.418L393.661 153.617L394.26 155.212L395.257 156.608L397.051 157.406V157.804L398.048 158.004L434.735 158.203L436.928 158.403L450.885 158.602L455.67 159.001L457.265 159.4L458.86 160.197L461.053 162.191L462.05 162.789L462.848 163.587L465.639 165.381L467.234 166.378L468.63 166.976L471.023 168.172L472.219 168.571L473.415 169.169L477.403 169.967L480.792 170.366H484.98L488.967 169.967L492.955 169.169L494.949 168.372L496.743 167.574L498.936 166.378H499.335V165.979L501.528 164.783L502.326 164.384V163.985L502.924 163.786L503.522 163.188L504.32 163.387L504.12 164.583L502.127 167.574L501.13 168.571L500.532 168.771V169.169L499.136 170.366L498.737 170.764L496.544 172.16L493.154 173.755H492.756L492.556 174.154L490.762 174.553L489.964 174.752L487.771 174.951V175.35L484.98 175.55H462.05V175.35L478.4 175.151L484.381 174.951L489.167 174.353L492.556 173.356L495.746 171.961L497.94 170.565L499.136 169.568L500.133 168.372L500.532 167.574L498.737 168.172L497.74 168.771L495.148 169.767L491.559 170.964L488.17 171.562L484.78 171.761H478.799L474.213 170.964L472.219 170.366L470.225 169.568L467.633 168.372L467.035 168.172V167.774L466.237 167.375L463.645 165.78V165.381L462.648 164.982L460.655 163.387V162.988L459.857 162.59L458.461 161.393V160.995L457.464 160.596L455.072 159.599L452.679 159.2L450.287 159.001L434.137 158.801H408.815L398.048 158.602L396.253 158.004L394.26 156.209L393.462 154.814L393.263 153.418Z" fill="#B6B9BB"/>
<path d="M503.522 108.557L504.319 108.955L506.512 110.949L507.908 112.544L509.703 114.738L511.298 117.33L512.893 120.52L514.288 124.308L515.285 128.695L515.684 132.084V135.673L515.285 139.461L514.887 141.455H514.687V139.461L515.086 136.271V130.29L514.687 127.897L513.89 125.903V125.504H513.491L513.092 124.507L512.893 122.713H512.295L513.291 126.302L513.89 130.09V136.869L512.893 141.655L511.696 145.243L508.905 151.026L506.911 153.618L505.316 155.611L504.319 156.808H503.92L503.721 157.406L501.528 159.2L499.933 160.596L496.942 162.39L493.752 163.986L490.163 165.182L487.172 165.78L484.58 166.179H477.801L472.418 164.982L470.025 164.185L465.439 161.992L463.047 160.397L460.654 158.602L458.461 156.808L458.66 157.605L459.059 158.403L460.455 159.798L459.657 159.998L456.467 156.808L454.473 154.216L452.08 150.228L450.685 147.237L450.485 146.041L450.884 146.44L451.283 146.041L451.881 146.639L454.274 150.826L455.669 152.82L456.666 154.016V154.415H457.065L458.461 156.01L460.455 157.805L462.249 159.2L465.04 160.995L469.626 163.188L473.016 164.384L478.2 165.381L481.191 165.581L487.172 164.982L491.559 163.786L494.549 162.59L495.746 161.992L499.933 159.4L502.325 157.406L503.322 156.608H503.721L504.12 155.611L505.914 153.618L507.31 151.823L508.107 150.228H508.506L508.905 149.032L510.101 146.839L511.696 143.05L513.092 137.467L513.291 134.676V130.09L512.893 127.099L512.095 123.71L510.899 120.32L509.304 117.13L508.107 115.136L506.512 112.943L505.316 111.348L504.519 109.952L503.522 108.557Z" fill="#1378B3"/>
<path d="M455.471 60.5052L456.468 60.7045L458.661 62.499L459.857 64.4928L460.256 66.2873L460.455 71.4713V81.0418L460.655 96.5937L460.854 100.781L461.253 103.772L462.05 105.566L462.25 106.164L460.854 107.759L458.86 109.354L458.262 109.155L458.461 64.0941L457.465 62.1002L455.869 60.9039L455.471 60.5052Z" fill="#D4D6D5"/>
<path d="M494.748 48.9405L496.144 49.3392L498.337 50.7349L501.128 52.9281L502.524 54.3238L504.518 56.9158L506.312 60.106L507.907 64.4924L508.506 68.4801L508.705 113.541L507.708 112.544L505.116 109.753L503.521 108.357L502.325 107.36L501.328 106.363L499.533 105.167L500.331 104.967L501.527 105.366V105.765L503.322 106.363L505.515 107.559H506.512L506.91 104.369L507.11 88.8173V69.0783L506.711 65.6888L505.315 60.9035L503.72 57.514L502.125 55.1214L500.73 53.5263L499.733 52.5294V52.1306L498.935 51.7318L496.144 49.9374L494.947 49.3392L494.748 48.9405Z" fill="#D2D5D4"/>
<path d="M478.001 101.379H482.986L486.774 101.777L489.167 102.375L493.354 103.771L495.946 105.167L496.345 105.765L494.75 105.566L492.756 104.768L489.566 103.771L485.378 103.173L481.191 102.974L476.805 103.372L472.618 104.369L469.627 105.566L466.437 107.161L465.041 108.158L463.646 108.955L462.449 109.952H462.05V110.351L459.857 112.145L457.465 114.737L454.673 119.124L453.078 122.314L451.882 126.102L451.084 130.289L450.486 131.286L450.087 130.688L450.287 127.498L450.885 124.108L451.882 121.317L453.676 117.529L456.069 113.94L457.863 111.946L461.652 108.158L463.646 106.762L466.238 105.167L469.627 103.572L473.814 102.176L478.001 101.379Z" fill="#5CD0DF"/>
<path d="M501.927 132.284H502.127L502.326 133.28H502.725L502.924 134.477V136.271L502.326 137.866L501.728 138.863L500.133 139.86L498.737 140.259L494.55 140.458H490.363L488.369 140.658L487.771 143.449V148.035L487.572 151.624L486.974 153.02L485.777 154.415L484.78 154.814L483.584 155.013H480.394L478.4 154.016L477.403 152.82L477.204 151.823L477.004 151.424L476.805 141.256L476.606 140.06L476.406 139.661H467.833L464.842 139.461L463.247 138.464L462.25 137.667L461.851 136.869L462.05 136.072L462.848 137.667L464.443 138.464L476.805 138.664L477.204 139.262L477.403 150.826L478.001 152.222L478.998 153.02L479.596 153.219H484.182L485.378 152.621L485.977 151.624L486.176 150.826L486.375 139.262L486.974 138.664L499.136 138.464L500.93 137.667L501.728 136.072L501.927 132.284Z" fill="#1479B4"/>
<path d="M501.926 132.284H502.126L502.325 133.28V135.673L501.926 137.667L500.93 138.664L499.534 139.461L498.736 139.661L487.77 139.86L487.371 140.658L486.973 141.256L486.773 152.023L485.976 153.219L484.979 154.016L482.985 154.415H481.39L479.595 154.016V153.618L478.399 153.219L478.2 152.82L479.595 153.219H484.181L485.378 152.621L485.976 151.624L486.175 150.826L486.374 139.262L486.973 138.664L499.135 138.464L500.93 137.667L501.727 136.072L501.926 132.284Z" fill="#0E5F98"/>
<path d="M454.872 155.213L456.068 156.01L457.464 157.605L458.062 158.802L454.274 158.602L453.676 158.403L398.048 158.203L396.652 157.805V157.605H453.078L453.875 157.207L455.071 157.007V155.811L454.872 155.213Z" fill="#9AB7B2"/>
<path d="M503.521 108.557L504.318 108.955L506.511 110.949L507.907 112.544L509.701 114.738L511.296 117.33L512.892 120.52L514.287 124.308L515.284 128.695L515.683 132.084V135.673L515.284 139.461L514.885 141.455H514.686V139.461L515.085 136.271V130.29L514.686 127.897L513.888 125.903V125.504H513.49L513.091 124.507L512.892 122.713H512.094L511.695 122.514L510.1 118.526L508.306 115.336L505.315 111.348L504.517 109.952L503.521 108.557Z" fill="#1C82B9"/>
<path d="M501.329 134.875L501.728 135.075L501.927 136.072L500.93 137.866L499.136 138.664L486.973 138.863L486.574 139.262L486.375 150.826L485.777 152.222L484.979 153.019L484.182 153.418L483.584 153.219L479.397 153.019L478.599 152.621L478.998 152.421L479.995 152.621H483.783L485.179 151.823L485.578 151.026L485.777 139.062L486.574 138.066L486.973 137.866L499.136 137.667L500.332 137.069L500.93 136.869L501.329 134.875Z" fill="#D8DCDB"/>
<path d="M393.263 153.418L393.661 153.617L394.26 155.212L395.257 156.608L397.051 157.406V157.804L398.048 158.004L434.735 158.203L436.928 158.403H438.922L439.32 158.801H408.815L398.048 158.602L396.253 158.004L394.26 156.209L393.462 154.814L393.263 153.418Z" fill="#B2B7B8"/>
<path d="M505.316 58.7105L505.914 59.3086L507.509 63.2963L508.107 65.4896L508.506 68.4803L508.705 113.541L508.107 112.943L507.709 112.146L507.908 107.958V67.6828L507.31 64.0939L505.715 59.9068L505.316 58.7105Z" fill="#A7B5B4"/>
<path d="M461.851 136.072L462.25 136.47L462.848 137.667L464.443 138.464L476.805 138.664L477.204 139.262L477.403 151.823L477.004 151.424L476.805 141.256L476.606 140.059L476.406 139.661H467.833L464.842 139.461L463.247 138.464L462.25 137.667L461.851 136.869V136.072Z" fill="#0D5D96"/>
<path d="M486.176 116.731L486.575 117.13L486.973 119.323H487.173L487.372 124.109L487.571 126.302V129.093L498.737 129.293L499.335 129.691H486.973L486.375 128.894L486.176 116.731Z" fill="#126FA9"/>
<path d="M475.21 100.781H476.805L476.406 101.578L472.219 102.575L469.029 103.572H468.431V103.971L464.643 105.765L464.244 105.965L463.646 106.164V106.563L462.449 107.36L461.652 107.161V106.762L465.041 104.569L469.627 102.376L472.618 101.379L475.21 100.781Z" fill="#2291C6"/>
<path d="M459.06 65.091H459.26L459.459 104.768L459.858 107.36L460.057 108.357L459.26 108.956H458.861L459.06 65.091Z" fill="#A7B3B3"/>
<path d="M463.445 137.667L476.205 137.866L477.003 138.265L476.804 138.663H464.442L463.445 137.667Z" fill="#DCDEDE"/>
<path d="M508.307 69.6768H508.507L508.706 113.541L508.108 112.943L507.909 111.348L508.108 109.354L508.307 69.6768Z" fill="#8FBBB1"/>
<path d="M486.574 147.237H486.773V152.023L485.976 153.219L484.979 154.016L482.985 154.415H481.39L479.595 154.016V153.618L478.399 153.219L478.2 152.82L479.595 153.219H484.181L485.378 152.621L485.976 151.624L486.175 150.826L486.374 147.437L486.574 147.237Z" fill="#0E5D97"/>
<path d="M462.648 138.066L464.642 138.863L464.841 139.262L467.832 139.461L476.405 139.661L476.804 139.461L476.605 141.056L475.209 140.458L470.823 140.259L465.041 140.059L463.645 139.461L462.648 138.664V138.066Z" fill="#1479B5"/>
<path d="M454.872 155.213L456.068 156.01L457.464 157.605L458.062 158.802L454.274 158.602L453.078 158.203V158.004L454.473 157.805L453.078 157.605L453.875 157.207L455.071 157.007V155.811L454.872 155.213Z" fill="#76B7B9"/>
<path d="M469.028 103.372H469.626V103.771L465.439 105.765L462.448 107.759L460.056 109.952L456.666 113.342V112.744L459.258 109.952L460.853 108.556L461.451 106.961L462.448 107.161L463.246 106.563H463.644V106.164L464.043 105.765L464.641 105.566L468.031 103.971H468.43V103.572L469.028 103.372Z" fill="#32B8DA"/>
<path d="M486.375 138.863L486.574 139.262L486.375 150.826L485.777 152.222L484.979 153.019L484.182 153.418L483.584 153.219L479.397 153.019L478.599 152.62L478.998 152.421L479.995 152.62H483.783L485.179 151.823L485.976 150.627L486.176 139.062L486.375 138.863Z" fill="#E6E9E8"/>
<path d="M393.263 153.418L393.661 153.617L394.26 155.212L395.257 156.608L397.051 157.406V157.804L398.048 158.004L404.428 158.203L406.821 158.403V158.602H398.048L396.253 158.004L394.26 156.209L393.462 154.814L393.263 153.418Z" fill="#B2B7B9"/>
<path d="M459.06 94.0015H459.26L459.459 104.768L459.858 107.36L460.057 108.357L459.26 108.955H458.861V104.968L459.06 94.0015Z" fill="#93B9B3"/>
<path d="M404.427 158.203H418.384V158.403L413.997 158.602L413.798 158.801H408.813L404.427 158.403V158.203Z" fill="#B0B6B7"/>
<path d="M456.267 113.342V113.94L454.274 116.931L452.479 120.32L451.283 123.311L450.884 124.906H450.485L450.884 122.912L452.479 119.124L454.672 115.336L456.267 113.342Z" fill="#32B8DA"/>
<path d="M492.156 173.955H493.751L493.552 174.353L489.963 175.35L486.574 175.749L484.979 175.55V175.35H487.77V174.952L490.561 174.553L491.159 174.154L492.156 173.955Z" fill="#A2B5B3"/>
<path d="M475.209 100.781H476.804L476.406 101.578L472.817 102.376L471.62 102.176L470.624 102.376L471.222 101.778L475.209 100.781Z" fill="#238EC2"/>
<path d="M513.092 122.115H513.491L514.687 125.704V127.498L514.288 126.9L513.889 125.504H513.491L513.092 124.508V122.115Z" fill="#1E82B9"/>
<path d="M508.108 155.213H508.308L508.108 157.406L507.709 158.203L507.311 158.004V157.605L506.314 158.004L504.12 160.197L503.722 159.998L506.912 156.808L508.108 155.213Z" fill="#A9C1BE"/>
<path d="M454.872 155.213L456.068 156.01L456.866 157.207L455.869 157.805L453.078 157.605L453.875 157.207L455.071 157.007V155.811L454.872 155.213Z" fill="#B1BABB"/>
<path d="M486.973 119.323H487.173L487.372 124.108L487.571 126.302V129.093L486.973 129.292V119.323Z" fill="#1479B5"/>
<path d="M448.291 126.9H448.89L448.491 130.489L448.291 132.084L448.092 136.072H447.893V131.286L448.291 126.9Z" fill="#F4F5F4"/>
<path d="M388.478 51.333L388.877 51.5324L384.291 56.1182V55.5201L386.484 53.1275L388.478 51.333Z" fill="#D4D8D7"/>
<path d="M471.621 101.977L472.418 102.176L472.219 102.575L469.029 103.572L468.431 103.373L470.225 102.176L471.621 101.977Z" fill="#2397CC"/>
<path d="M460.255 109.155L460.654 109.354L456.666 113.342V112.744L459.258 109.952L460.255 109.155Z" fill="#3EBEDB"/>
<path d="M478.797 114.937L479.395 115.136L478.199 115.934L477.401 116.931H477.202L476.803 118.127L476.404 117.728V116.532L477.601 115.934L478.797 114.937Z" fill="#2494C8"/>
<path d="M508.307 109.354H508.507L508.706 113.541L508.108 112.943L507.909 111.348L508.108 109.553L508.307 109.354Z" fill="#95B9B1"/>
<path d="M463.446 105.566L464.244 105.765L464.044 106.164H463.646V106.563L462.449 107.36L461.652 107.161V106.762L463.446 105.566Z" fill="#2193C8"/>
<path d="M492.157 173.955H493.752L493.553 174.353L491.559 174.952H490.762L491.16 174.154L492.157 173.955Z" fill="#9FB6B2"/>
<path d="M461.452 106.961L462.648 107.161L462.249 107.958L460.853 109.155L460.455 108.955L461.053 108.357L461.252 107.559L461.452 106.961Z" fill="#30B4D8"/>
<path d="M459.258 104.768H459.458L459.856 107.36L460.056 108.357L459.258 108.756V104.768Z" fill="#B3B9BA"/>
<path d="M476.206 100.581L478.998 100.781L478.798 101.179L477.801 101.379H476.406L476.007 100.98L476.206 100.581Z" fill="#279DCE"/>
<path d="M385.286 168.172L386.084 168.571L386.881 169.568L388.476 170.964H387.878L385.286 168.571V168.172Z" fill="#A7B7B6"/>
<path d="M475.208 100.781H476.803L476.404 101.578L474.411 101.778L474.61 101.179L475.208 100.781Z" fill="#1E90C7"/>
<path d="M495.746 102.974L496.743 103.173L497.939 103.771L497.541 104.37L495.746 103.373V102.974Z" fill="#E7E8E8"/>
<path d="M500.53 162.39L500.929 162.59L500.132 162.988L499.733 163.786L498.537 163.985L499.334 163.188L500.53 162.39Z" fill="#B1C3C0"/>
<path d="M393.263 153.418L393.661 153.617L394.26 155.212L394.858 156.209H394.26L393.462 154.814L393.263 153.418Z" fill="#BCC1C1"/>
</g>
<defs>
<filter id="filter0_dd_217_8397" x="362.981" y="46.5484" width="168.828" height="169.513" filterUnits="userSpaceOnUse" color-interpolation-filters="sRGB">
<feFlood flood-opacity="0" result="BackgroundImageFix"/>
<feColorMatrix in="SourceAlpha" type="matrix" values="0 0 0 0 0 0 0 0 0 0 0 0 0 0 0 0 0 0 127 0" result="hardAlpha"/>
<feOffset dy="16.1249"/>
<feGaussianBlur stdDeviation="8.06247"/>
<feComposite in2="hardAlpha" operator="out"/>
<feColorMatrix type="matrix" values="0 0 0 0 0 0 0 0 0 0 0 0 0 0 0 0 0 0 0.25 0"/>
<feBlend mode="normal" in2="BackgroundImageFix" result="effect1_dropShadow_217_8397"/>
<feColorMatrix in="SourceAlpha" type="matrix" values="0 0 0 0 0 0 0 0 0 0 0 0 0 0 0 0 0 0 127 0" result="hardAlpha"/>
<feOffset dy="32.2499"/>
<feGaussianBlur stdDeviation="4.03124"/>
<feComposite in2="hardAlpha" operator="out"/>
<feColorMatrix type="matrix" values="0 0 0 0 0 0 0 0 0 0 0 0 0 0 0 0 0 0 0.25 0"/>
<feBlend mode="normal" in2="effect1_dropShadow_217_8397" result="effect2_dropShadow_217_8397"/>
<feBlend mode="normal" in="SourceGraphic" in2="effect2_dropShadow_217_8397" result="shape"/>
</filter>
</defs>
</svg>
