<svg width="944" height="139" viewBox="0 0 944 139" fill="none" xmlns="http://www.w3.org/2000/svg">
<path d="M238.95 21H245.15V46H238.95V43.9C238.05 44.7333 237.05 45.4 235.95 45.9C234.85 46.4 233.683 46.65 232.45 46.65C230.983 46.65 229.483 46.35 227.95 45.75C226.45 45.1167 225.15 44 224.05 42.4C222.983 40.8 222.45 38.65 222.45 35.95V21H228.65V35.95C228.65 37.8167 229.167 39.1667 230.2 40C231.267 40.8 232.5 41.2 233.9 41.2C235.3 41.2 236.483 40.7167 237.45 39.75C238.45 38.75 238.95 37.1667 238.95 35V21ZM265.919 20.35C268.452 20.35 270.669 20.9167 272.569 22.05C274.502 23.1833 275.969 24.75 276.969 26.75C278.002 28.75 278.519 31 278.519 33.5C278.519 36 278.002 38.25 276.969 40.25C275.969 42.25 274.502 43.8333 272.569 45C270.669 46.1333 268.452 46.7 265.919 46.7C264.419 46.7 262.969 46.4333 261.569 45.9C260.202 45.3333 258.936 44.55 257.769 43.55V56H251.569V21H257.769V23.45C258.902 22.45 260.169 21.6833 261.569 21.15C262.969 20.6167 264.419 20.35 265.919 20.35ZM265.169 40.7C267.236 40.7 268.936 40.0333 270.269 38.7C271.636 37.3333 272.319 35.6 272.319 33.5C272.319 31.4 271.636 29.6833 270.269 28.35C268.936 26.9833 267.236 26.3 265.169 26.3C263.802 26.3 262.552 26.6167 261.419 27.25C260.286 27.85 259.386 28.7 258.719 29.8C258.086 30.9 257.769 32.15 257.769 33.55C257.769 35.65 258.469 37.3667 259.869 38.7C261.302 40.0333 263.069 40.7 265.169 40.7ZM288.921 38.95C288.921 39.4833 289.055 39.8667 289.321 40.1C289.588 40.3333 290.005 40.45 290.571 40.45C291.005 40.45 291.521 40.4 292.121 40.3V46C290.888 46.2 289.738 46.3 288.671 46.3C286.738 46.3 285.255 45.8 284.221 44.8C283.221 43.7667 282.721 41.95 282.721 39.35V11H288.921V38.95ZM306.874 46.7C304.507 46.7 302.307 46.1167 300.274 44.95C298.274 43.75 296.674 42.15 295.474 40.15C294.307 38.1167 293.724 35.9167 293.724 33.55C293.724 31.1833 294.307 29 295.474 27C296.674 24.9667 298.274 23.3667 300.274 22.2C302.307 21 304.507 20.4 306.874 20.4C309.24 20.4 311.424 21 313.424 22.2C315.457 23.3667 317.057 24.9667 318.224 27C319.424 29 320.024 31.1833 320.024 33.55C320.024 35.9167 319.424 38.1167 318.224 40.15C317.057 42.15 315.457 43.75 313.424 44.95C311.424 46.1167 309.24 46.7 306.874 46.7ZM306.824 40.5C308.09 40.5 309.257 40.2 310.324 39.6C311.39 38.9667 312.24 38.1167 312.874 37.05C313.507 35.9833 313.824 34.8167 313.824 33.55C313.824 32.2833 313.507 31.1167 312.874 30.05C312.24 28.9833 311.39 28.1333 310.324 27.5C309.257 26.8667 308.09 26.55 306.824 26.55C305.557 26.55 304.39 26.8667 303.324 27.5C302.257 28.1333 301.407 28.9833 300.774 30.05C300.174 31.1167 299.874 32.2833 299.874 33.55C299.874 34.8167 300.174 35.9833 300.774 37.05C301.407 38.1167 302.257 38.9667 303.324 39.6C304.39 40.2 305.557 40.5 306.824 40.5ZM343.581 21H349.781V46H343.581V43.55C342.415 44.55 341.131 45.3333 339.731 45.9C338.365 46.4333 336.915 46.7 335.381 46.7C332.848 46.7 330.631 46.1333 328.731 45C326.831 43.8667 325.365 42.3 324.331 40.3C323.331 38.3 322.831 36.05 322.831 33.55C322.831 31.05 323.331 28.8 324.331 26.8C325.365 24.8 326.831 23.2333 328.731 22.1C330.631 20.9333 332.848 20.35 335.381 20.35C336.915 20.35 338.365 20.6333 339.731 21.2C341.131 21.7333 342.415 22.5 343.581 23.5V21ZM336.181 40.75C337.548 40.75 338.781 40.45 339.881 39.85C341.015 39.2167 341.898 38.35 342.531 37.25C343.198 36.15 343.531 34.9 343.531 33.5C343.531 31.4 342.815 29.6833 341.381 28.35C339.981 27.0167 338.248 26.35 336.181 26.35C334.081 26.35 332.348 27.0333 330.981 28.4C329.648 29.7333 328.981 31.45 328.981 33.55C328.981 35.65 329.648 37.3833 330.981 38.75C332.348 40.0833 334.081 40.75 336.181 40.75ZM374.732 11H380.932V46H374.732V43.6C373.599 44.6 372.332 45.3667 370.932 45.9C369.532 46.4333 368.082 46.7 366.582 46.7C364.049 46.7 361.832 46.1333 359.932 45C358.032 43.8667 356.566 42.3 355.532 40.3C354.532 38.3 354.032 36.05 354.032 33.55C354.032 31.05 354.532 28.8 355.532 26.8C356.566 24.8 358.032 23.2333 359.932 22.1C361.832 20.9333 364.049 20.35 366.582 20.35C368.082 20.35 369.516 20.6333 370.882 21.2C372.282 21.7333 373.566 22.4833 374.732 23.45V11ZM367.382 40.75C368.749 40.75 369.982 40.45 371.082 39.85C372.216 39.2167 373.099 38.35 373.732 37.25C374.399 36.15 374.732 34.9 374.732 33.5C374.732 31.4 374.016 29.6833 372.582 28.35C371.182 27.0167 369.449 26.35 367.382 26.35C365.282 26.35 363.549 27.0333 362.182 28.4C360.849 29.7333 360.182 31.45 360.182 33.55C360.182 35.65 360.849 37.3833 362.182 38.75C363.549 40.0833 365.282 40.75 367.382 40.75ZM416.803 21H423.303L414.553 46.05C413.253 49.4833 411.453 52.05 409.153 53.75C406.886 55.4833 404.203 56.2333 401.103 56V50C401.303 50.0333 401.603 50.05 402.003 50.05C404.67 50.05 406.753 48.4333 408.253 45.2L397.253 21H403.903L411.253 36.9L416.803 21ZM438.563 46.7C436.197 46.7 433.997 46.1167 431.963 44.95C429.963 43.75 428.363 42.15 427.163 40.15C425.997 38.1167 425.413 35.9167 425.413 33.55C425.413 31.1833 425.997 29 427.163 27C428.363 24.9667 429.963 23.3667 431.963 22.2C433.997 21 436.197 20.4 438.563 20.4C440.93 20.4 443.113 21 445.113 22.2C447.147 23.3667 448.747 24.9667 449.913 27C451.113 29 451.713 31.1833 451.713 33.55C451.713 35.9167 451.113 38.1167 449.913 40.15C448.747 42.15 447.147 43.75 445.113 44.95C443.113 46.1167 440.93 46.7 438.563 46.7ZM438.513 40.5C439.78 40.5 440.947 40.2 442.013 39.6C443.08 38.9667 443.93 38.1167 444.563 37.05C445.197 35.9833 445.513 34.8167 445.513 33.55C445.513 32.2833 445.197 31.1167 444.563 30.05C443.93 28.9833 443.08 28.1333 442.013 27.5C440.947 26.8667 439.78 26.55 438.513 26.55C437.247 26.55 436.08 26.8667 435.013 27.5C433.947 28.1333 433.097 28.9833 432.463 30.05C431.863 31.1167 431.563 32.2833 431.563 33.55C431.563 34.8167 431.863 35.9833 432.463 37.05C433.097 38.1167 433.947 38.9667 435.013 39.6C436.08 40.2 437.247 40.5 438.513 40.5ZM471.421 21H477.621V46H471.421V43.9C470.521 44.7333 469.521 45.4 468.421 45.9C467.321 46.4 466.154 46.65 464.921 46.65C463.454 46.65 461.954 46.35 460.421 45.75C458.921 45.1167 457.621 44 456.521 42.4C455.454 40.8 454.921 38.65 454.921 35.95V21H461.121V35.95C461.121 37.8167 461.637 39.1667 462.671 40C463.737 40.8 464.971 41.2 466.371 41.2C467.771 41.2 468.954 40.7167 469.921 39.75C470.921 38.75 471.421 37.1667 471.421 35V21ZM498.89 20.5L498.44 26.35C498.24 26.2833 497.89 26.25 497.39 26.25C495.323 26.25 493.607 26.85 492.24 28.05C490.907 29.25 490.24 30.8833 490.24 32.95V46H484.04V21H490.24V25.2C490.807 23.8667 491.773 22.75 493.14 21.85C494.507 20.95 496.157 20.5 498.09 20.5H498.89ZM535.476 21H541.676V46H535.476V43.55C534.309 44.55 533.026 45.3333 531.626 45.9C530.259 46.4333 528.809 46.7 527.276 46.7C524.742 46.7 522.526 46.1333 520.626 45C518.726 43.8667 517.259 42.3 516.226 40.3C515.226 38.3 514.726 36.05 514.726 33.55C514.726 31.05 515.226 28.8 516.226 26.8C517.259 24.8 518.726 23.2333 520.626 22.1C522.526 20.9333 524.742 20.35 527.276 20.35C528.809 20.35 530.259 20.6333 531.626 21.2C533.026 21.7333 534.309 22.5 535.476 23.5V21ZM528.076 40.75C529.442 40.75 530.676 40.45 531.776 39.85C532.909 39.2167 533.792 38.35 534.426 37.25C535.092 36.15 535.426 34.9 535.426 33.5C535.426 31.4 534.709 29.6833 533.276 28.35C531.876 27.0167 530.142 26.35 528.076 26.35C525.976 26.35 524.242 27.0333 522.876 28.4C521.542 29.7333 520.876 31.45 520.876 33.55C520.876 35.65 521.542 37.3833 522.876 38.75C524.242 40.0833 525.976 40.75 528.076 40.75ZM562.904 20.5L562.454 26.35C562.254 26.2833 561.904 26.25 561.404 26.25C559.337 26.25 557.62 26.85 556.254 28.05C554.92 29.25 554.254 30.8833 554.254 32.95V46H548.054V21H554.254V25.2C554.82 23.8667 555.787 22.75 557.154 21.85C558.52 20.95 560.17 20.5 562.104 20.5H562.904ZM577.016 37.45C577.016 38.5833 577.283 39.3667 577.816 39.8C578.349 40.2333 579.199 40.45 580.366 40.45C581.066 40.45 581.833 40.4 582.666 40.3V46C581.099 46.1667 579.799 46.25 578.766 46.25C576.099 46.25 574.099 45.65 572.766 44.45C571.466 43.2167 570.816 41.0167 570.816 37.85V26.55H566.116V21H570.816V14.85L577.016 12.75V21H582.566V26.55H577.016V37.45ZM612.094 36.15L616.744 21H623.244L615.144 46H608.994L604.294 31.15L599.594 46H593.544L585.644 21H592.094L596.594 36.05L600.994 21H607.594L612.094 36.15ZM637.245 46.7C634.878 46.7 632.678 46.1167 630.645 44.95C628.645 43.75 627.045 42.15 625.845 40.15C624.678 38.1167 624.095 35.9167 624.095 33.55C624.095 31.1833 624.678 29 625.845 27C627.045 24.9667 628.645 23.3667 630.645 22.2C632.678 21 634.878 20.4 637.245 20.4C639.612 20.4 641.795 21 643.795 22.2C645.828 23.3667 647.428 24.9667 648.595 27C649.795 29 650.395 31.1833 650.395 33.55C650.395 35.9167 649.795 38.1167 648.595 40.15C647.428 42.15 645.828 43.75 643.795 44.95C641.795 46.1167 639.612 46.7 637.245 46.7ZM637.195 40.5C638.462 40.5 639.628 40.2 640.695 39.6C641.762 38.9667 642.612 38.1167 643.245 37.05C643.878 35.9833 644.195 34.8167 644.195 33.55C644.195 32.2833 643.878 31.1167 643.245 30.05C642.612 28.9833 641.762 28.1333 640.695 27.5C639.628 26.8667 638.462 26.55 637.195 26.55C635.928 26.55 634.762 26.8667 633.695 27.5C632.628 28.1333 631.778 28.9833 631.145 30.05C630.545 31.1167 630.245 32.2833 630.245 33.55C630.245 34.8167 630.545 35.9833 631.145 37.05C631.778 38.1167 632.628 38.9667 633.695 39.6C634.762 40.2 635.928 40.5 637.195 40.5ZM669.202 20.5L668.752 26.35C668.552 26.2833 668.202 26.25 667.702 26.25C665.636 26.25 663.919 26.85 662.552 28.05C661.219 29.25 660.552 30.8833 660.552 32.95V46H654.352V21H660.552V25.2C661.119 23.8667 662.086 22.75 663.452 21.85C664.819 20.95 666.469 20.5 668.402 20.5H669.202ZM697.946 46H690.196L683.196 36.65L679.546 40.65V46H673.346V11H679.546V31.55L688.946 21H697.596L687.396 32.1L697.946 46ZM707.067 28C707.067 28.7 707.45 29.2333 708.217 29.6C709.017 29.9333 710.267 30.2833 711.967 30.65C713.9 31.05 715.517 31.5 716.817 32C718.117 32.5 719.233 33.3 720.167 34.4C721.133 35.4667 721.617 36.9167 721.617 38.75C721.617 40.3833 721.117 41.8 720.117 43C719.15 44.2 717.85 45.1167 716.217 45.75C714.583 46.35 712.8 46.65 710.867 46.65C708.233 46.65 705.967 46.15 704.067 45.15C702.2 44.15 700.817 42.7167 699.917 40.85L705.017 38.2C705.917 40.5 707.867 41.65 710.867 41.65C712.167 41.65 713.283 41.4 714.217 40.9C715.15 40.4 715.617 39.6833 715.617 38.75C715.617 37.95 715.183 37.3667 714.317 37C713.483 36.6 712.117 36.1667 710.217 35.7C708.25 35.2333 706.65 34.7667 705.417 34.3C704.183 33.8333 703.117 33.1167 702.217 32.15C701.317 31.15 700.867 29.8333 700.867 28.2C700.867 26.6 701.317 25.2167 702.217 24.05C703.117 22.85 704.333 21.9333 705.867 21.3C707.4 20.6667 709.083 20.35 710.917 20.35C713.083 20.35 715.017 20.8 716.717 21.7C718.45 22.6 719.783 23.8833 720.717 25.55L715.667 28.1C714.8 26.2333 713.217 25.3 710.917 25.3C709.75 25.3 708.817 25.55 708.117 26.05C707.417 26.5167 707.067 27.1667 707.067 28Z" fill="#E6E8EB"/>
<path d="M44.1153 74H46.7353V83.28C46.7353 84.2533 46.502 85.12 46.0353 85.88C45.5686 86.6267 44.9286 87.2133 44.1153 87.64C43.302 88.0533 42.382 88.26 41.3553 88.26C40.3286 88.26 39.4086 88.0533 38.5953 87.64C37.782 87.2133 37.142 86.6267 36.6753 85.88C36.2086 85.12 35.9753 84.2533 35.9753 83.28V74H38.5953V83.28C38.5953 84 38.8553 84.58 39.3753 85.02C39.9086 85.4467 40.5686 85.66 41.3553 85.66C42.1953 85.66 42.862 85.4467 43.3553 85.02C43.862 84.5933 44.1153 84.0133 44.1153 83.28V74ZM54.7231 77.74C55.7365 77.74 56.6231 77.9667 57.3831 78.42C58.1565 78.8733 58.7431 79.5 59.1431 80.3C59.5565 81.1 59.7631 82 59.7631 83C59.7631 84 59.5565 84.9 59.1431 85.7C58.7431 86.5 58.1565 87.1333 57.3831 87.6C56.6231 88.0533 55.7365 88.28 54.7231 88.28C54.1231 88.28 53.5431 88.1733 52.9831 87.96C52.4365 87.7333 51.9298 87.42 51.4631 87.02V92H48.9831V78H51.4631V78.98C51.9165 78.58 52.4231 78.2733 52.9831 78.06C53.5431 77.8467 54.1231 77.74 54.7231 77.74ZM54.4231 85.88C55.2498 85.88 55.9298 85.6133 56.4631 85.08C57.0098 84.5333 57.2831 83.84 57.2831 83C57.2831 82.16 57.0098 81.4733 56.4631 80.94C55.9298 80.3933 55.2498 80.12 54.4231 80.12C53.8765 80.12 53.3765 80.2467 52.9231 80.5C52.4698 80.74 52.1098 81.08 51.8431 81.52C51.5898 81.96 51.4631 82.46 51.4631 83.02C51.4631 83.86 51.7431 84.5467 52.3031 85.08C52.8765 85.6133 53.5831 85.88 54.4231 85.88ZM63.9241 85.18C63.9241 85.3933 63.9774 85.5467 64.0841 85.64C64.1907 85.7333 64.3574 85.78 64.5841 85.78C64.7574 85.78 64.9641 85.76 65.2041 85.72V88C64.7107 88.08 64.2507 88.12 63.8241 88.12C63.0507 88.12 62.4574 87.92 62.0441 87.52C61.6441 87.1067 61.4441 86.38 61.4441 85.34V74H63.9241V85.18ZM71.105 88.28C70.1583 88.28 69.2783 88.0467 68.465 87.58C67.665 87.1 67.025 86.46 66.545 85.66C66.0783 84.8467 65.845 83.9667 65.845 83.02C65.845 82.0733 66.0783 81.2 66.545 80.4C67.025 79.5867 67.665 78.9467 68.465 78.48C69.2783 78 70.1583 77.76 71.105 77.76C72.0517 77.76 72.925 78 73.725 78.48C74.5383 78.9467 75.1783 79.5867 75.645 80.4C76.125 81.2 76.365 82.0733 76.365 83.02C76.365 83.9667 76.125 84.8467 75.645 85.66C75.1783 86.46 74.5383 87.1 73.725 87.58C72.925 88.0467 72.0517 88.28 71.105 88.28ZM71.085 85.8C71.5917 85.8 72.0583 85.68 72.485 85.44C72.9117 85.1867 73.2517 84.8467 73.505 84.42C73.7583 83.9933 73.885 83.5267 73.885 83.02C73.885 82.5133 73.7583 82.0467 73.505 81.62C73.2517 81.1933 72.9117 80.8533 72.485 80.6C72.0583 80.3467 71.5917 80.22 71.085 80.22C70.5783 80.22 70.1117 80.3467 69.685 80.6C69.2583 80.8533 68.9183 81.1933 68.665 81.62C68.425 82.0467 68.305 82.5133 68.305 83.02C68.305 83.5267 68.425 83.9933 68.665 84.42C68.9183 84.8467 69.2583 85.1867 69.685 85.44C70.1117 85.68 70.5783 85.8 71.085 85.8ZM85.788 78H88.268V88H85.788V87.02C85.3213 87.42 84.808 87.7333 84.248 87.96C83.7013 88.1733 83.1213 88.28 82.508 88.28C81.4946 88.28 80.608 88.0533 79.848 87.6C79.088 87.1467 78.5013 86.52 78.088 85.72C77.688 84.92 77.488 84.02 77.488 83.02C77.488 82.02 77.688 81.12 78.088 80.32C78.5013 79.52 79.088 78.8933 79.848 78.44C80.608 77.9733 81.4946 77.74 82.508 77.74C83.1213 77.74 83.7013 77.8533 84.248 78.08C84.808 78.2933 85.3213 78.6 85.788 79V78ZM82.828 85.9C83.3746 85.9 83.868 85.78 84.308 85.54C84.7613 85.2867 85.1146 84.94 85.368 84.5C85.6346 84.06 85.768 83.56 85.768 83C85.768 82.16 85.4813 81.4733 84.908 80.94C84.348 80.4067 83.6546 80.14 82.828 80.14C81.988 80.14 81.2946 80.4133 80.748 80.96C80.2146 81.4933 79.948 82.18 79.948 83.02C79.948 83.86 80.2146 84.5533 80.748 85.1C81.2946 85.6333 81.988 85.9 82.828 85.9ZM98.2484 74H100.728V88H98.2484V87.04C97.7951 87.44 97.2884 87.7467 96.7284 87.96C96.1684 88.1733 95.5884 88.28 94.9884 88.28C93.9751 88.28 93.0884 88.0533 92.3284 87.6C91.5684 87.1467 90.9818 86.52 90.5684 85.72C90.1684 84.92 89.9684 84.02 89.9684 83.02C89.9684 82.02 90.1684 81.12 90.5684 80.32C90.9818 79.52 91.5684 78.8933 92.3284 78.44C93.0884 77.9733 93.9751 77.74 94.9884 77.74C95.5884 77.74 96.1618 77.8533 96.7084 78.08C97.2684 78.2933 97.7818 78.5933 98.2484 78.98V74ZM95.3084 85.9C95.8551 85.9 96.3484 85.78 96.7884 85.54C97.2418 85.2867 97.5951 84.94 97.8484 84.5C98.1151 84.06 98.2484 83.56 98.2484 83C98.2484 82.16 97.9618 81.4733 97.3884 80.94C96.8284 80.4067 96.1351 80.14 95.3084 80.14C94.4684 80.14 93.7751 80.4133 93.2284 80.96C92.6951 81.4933 92.4284 82.18 92.4284 83.02C92.4284 83.86 92.6951 84.5533 93.2284 85.1C93.7751 85.6333 94.4684 85.9 95.3084 85.9ZM117.417 88H114.957V82.08C114.957 81.3333 114.743 80.8 114.317 80.48C113.903 80.1467 113.41 79.98 112.837 79.98C112.383 79.98 111.97 80.12 111.597 80.4C111.237 80.68 111.003 81.1267 110.897 81.74V88H108.417V74H110.897V78.84C111.23 78.52 111.61 78.2667 112.037 78.08C112.477 77.8933 112.943 77.8 113.437 77.8C114.023 77.8 114.617 77.9267 115.217 78.18C115.817 78.42 116.33 78.8533 116.757 79.48C117.197 80.1067 117.417 80.9533 117.417 82.02V88ZM121.103 76.34C120.636 76.34 120.27 76.2133 120.003 75.96C119.736 75.7067 119.603 75.36 119.603 74.92C119.603 74.4667 119.736 74.1133 120.003 73.86C120.27 73.6067 120.636 73.48 121.103 73.48C121.57 73.48 121.936 73.6067 122.203 73.86C122.47 74.1133 122.603 74.4667 122.603 74.92C122.603 75.3467 122.463 75.6933 122.183 75.96C121.916 76.2133 121.556 76.34 121.103 76.34ZM119.843 88V78H122.323V88H119.843ZM132.41 78H134.89V87.5C134.89 88.4467 134.65 89.28 134.17 90C133.703 90.72 133.05 91.2733 132.21 91.66C131.37 92.06 130.43 92.26 129.39 92.26C128.23 92.26 127.176 92.0333 126.23 91.58C125.283 91.14 124.616 90.56 124.23 89.84L126.35 88.62C126.55 89.0067 126.923 89.3267 127.47 89.58C128.016 89.8467 128.676 89.98 129.45 89.98C130.303 89.98 131.01 89.7467 131.57 89.28C132.13 88.8267 132.41 88.2333 132.41 87.5V87.04C131.956 87.44 131.45 87.7467 130.89 87.96C130.33 88.1733 129.75 88.28 129.15 88.28C128.136 88.28 127.25 88.0533 126.49 87.6C125.73 87.1467 125.143 86.52 124.73 85.72C124.33 84.92 124.13 84.02 124.13 83.02C124.13 82.02 124.33 81.12 124.73 80.32C125.143 79.52 125.73 78.8933 126.49 78.44C127.25 77.9733 128.136 77.74 129.15 77.74C129.75 77.74 130.323 77.8533 130.87 78.08C131.43 78.2933 131.943 78.5933 132.41 78.98V78ZM129.47 85.9C130.016 85.9 130.51 85.78 130.95 85.54C131.403 85.2867 131.756 84.94 132.01 84.5C132.276 84.06 132.41 83.56 132.41 83C132.41 82.16 132.123 81.4733 131.55 80.94C130.99 80.4067 130.296 80.14 129.47 80.14C128.63 80.14 127.936 80.4133 127.39 80.96C126.856 81.4933 126.59 82.18 126.59 83.02C126.59 83.86 126.856 84.5533 127.39 85.1C127.936 85.6333 128.63 85.9 129.47 85.9ZM146.44 88H143.98V82.08C143.98 81.3333 143.767 80.8 143.34 80.48C142.927 80.1467 142.433 79.98 141.86 79.98C141.407 79.98 140.993 80.12 140.62 80.4C140.26 80.68 140.027 81.1267 139.92 81.74V88H137.44V74H139.92V78.84C140.253 78.52 140.633 78.2667 141.06 78.08C141.5 77.8933 141.967 77.8 142.46 77.8C143.047 77.8 143.64 77.9267 144.24 78.18C144.84 78.42 145.353 78.8533 145.78 79.48C146.22 80.1067 146.44 80.9533 146.44 82.02V88ZM152.966 84.2H148.166V82.1H152.966V84.2ZM162.663 78H165.143V92H162.663V87.04C162.196 87.4267 161.683 87.7333 161.123 87.96C160.576 88.1733 160.003 88.28 159.403 88.28C158.389 88.28 157.503 88.0533 156.743 87.6C155.983 87.1333 155.396 86.5 154.983 85.7C154.583 84.9 154.383 84 154.383 83C154.383 82 154.583 81.1 154.983 80.3C155.396 79.5 155.983 78.8733 156.743 78.42C157.503 77.9667 158.389 77.74 159.403 77.74C160.003 77.74 160.583 77.8467 161.143 78.06C161.703 78.2733 162.209 78.58 162.663 78.98V78ZM159.723 85.88C160.549 85.88 161.243 85.6133 161.803 85.08C162.376 84.5467 162.663 83.86 162.663 83.02C162.663 82.46 162.529 81.96 162.263 81.52C162.009 81.08 161.656 80.74 161.203 80.5C160.763 80.2467 160.269 80.12 159.723 80.12C158.883 80.12 158.189 80.3933 157.643 80.94C157.109 81.4733 156.843 82.16 156.843 83C156.843 83.84 157.109 84.5333 157.643 85.08C158.189 85.6133 158.883 85.88 159.723 85.88ZM173.603 78H176.083V88H173.603V87.16C173.243 87.4933 172.843 87.76 172.403 87.96C171.963 88.16 171.497 88.26 171.003 88.26C170.417 88.26 169.817 88.14 169.203 87.9C168.603 87.6467 168.083 87.2 167.643 86.56C167.217 85.92 167.003 85.06 167.003 83.98V78H169.483V83.98C169.483 84.7267 169.69 85.2667 170.103 85.6C170.53 85.92 171.023 86.08 171.583 86.08C172.143 86.08 172.617 85.8867 173.003 85.5C173.403 85.1 173.603 84.4667 173.603 83.6V78ZM186.1 78H188.58V88H186.1V87.02C185.634 87.42 185.12 87.7333 184.56 87.96C184.014 88.1733 183.434 88.28 182.82 88.28C181.807 88.28 180.92 88.0533 180.16 87.6C179.4 87.1467 178.814 86.52 178.4 85.72C178 84.92 177.8 84.02 177.8 83.02C177.8 82.02 178 81.12 178.4 80.32C178.814 79.52 179.4 78.8933 180.16 78.44C180.92 77.9733 181.807 77.74 182.82 77.74C183.434 77.74 184.014 77.8533 184.56 78.08C185.12 78.2933 185.634 78.6 186.1 79V78ZM183.14 85.9C183.687 85.9 184.18 85.78 184.62 85.54C185.074 85.2867 185.427 84.94 185.68 84.5C185.947 84.06 186.08 83.56 186.08 83C186.08 82.16 185.794 81.4733 185.22 80.94C184.66 80.4067 183.967 80.14 183.14 80.14C182.3 80.14 181.607 80.4133 181.06 80.96C180.527 81.4933 180.26 82.18 180.26 83.02C180.26 83.86 180.527 84.5533 181.06 85.1C181.607 85.6333 182.3 85.9 183.14 85.9ZM193.319 85.18C193.319 85.3933 193.372 85.5467 193.479 85.64C193.585 85.7333 193.752 85.78 193.979 85.78C194.152 85.78 194.359 85.76 194.599 85.72V88C194.105 88.08 193.645 88.12 193.219 88.12C192.445 88.12 191.852 87.92 191.439 87.52C191.039 87.1067 190.839 86.38 190.839 85.34V74H193.319V85.18ZM197.763 76.34C197.296 76.34 196.93 76.2133 196.663 75.96C196.396 75.7067 196.263 75.36 196.263 74.92C196.263 74.4667 196.396 74.1133 196.663 73.86C196.93 73.6067 197.296 73.48 197.763 73.48C198.23 73.48 198.596 73.6067 198.863 73.86C199.13 74.1133 199.263 74.4667 199.263 74.92C199.263 75.3467 199.123 75.6933 198.843 75.96C198.576 76.2133 198.216 76.34 197.763 76.34ZM196.503 88V78H198.983V88H196.503ZM205.041 84.58C205.041 85.0333 205.147 85.3467 205.361 85.52C205.574 85.6933 205.914 85.78 206.381 85.78C206.661 85.78 206.967 85.76 207.301 85.72V88C206.674 88.0667 206.154 88.1 205.741 88.1C204.674 88.1 203.874 87.86 203.341 87.38C202.821 86.8867 202.561 86.0067 202.561 84.74V80.22H200.681V78H202.561V75.54L205.041 74.7V78H207.261V80.22H205.041V84.58ZM216.112 78H218.712L215.212 88.02C214.692 89.3933 213.972 90.42 213.052 91.1C212.145 91.7933 211.072 92.0933 209.832 92V89.6C209.912 89.6133 210.032 89.62 210.192 89.62C211.259 89.62 212.092 88.9733 212.692 87.68L208.292 78H210.952L213.892 84.36L216.112 78ZM226.533 76.34C226.066 76.34 225.699 76.2133 225.433 75.96C225.166 75.7067 225.033 75.36 225.033 74.92C225.033 74.4667 225.166 74.1133 225.433 73.86C225.699 73.6067 226.066 73.48 226.533 73.48C226.999 73.48 227.366 73.6067 227.633 73.86C227.899 74.1133 228.033 74.4667 228.033 74.92C228.033 75.3467 227.893 75.6933 227.613 75.96C227.346 76.2133 226.986 76.34 226.533 76.34ZM225.273 88V78H227.753V88H225.273ZM241.773 77.74C242.36 77.74 242.953 77.8667 243.553 78.12C244.153 78.36 244.666 78.8 245.093 79.44C245.533 80.08 245.753 80.94 245.753 82.02V88H243.293V82.02C243.293 81.2733 243.08 80.74 242.653 80.42C242.24 80.0867 241.753 79.92 241.193 79.92C240.713 79.92 240.293 80.0667 239.933 80.36C239.573 80.64 239.34 81.0933 239.233 81.72V82.02V88H236.773V82.02C236.773 81.2733 236.56 80.74 236.133 80.42C235.72 80.0867 235.226 79.92 234.653 79.92C234.2 79.92 233.786 80.06 233.413 80.34C233.053 80.62 232.82 81.0667 232.713 81.68V88H230.233V78H232.713V78.78C233.046 78.46 233.426 78.2067 233.853 78.02C234.293 77.8333 234.76 77.74 235.253 77.74C235.866 77.74 236.486 77.8733 237.113 78.14C237.74 78.4067 238.24 78.8533 238.613 79.48C238.96 78.9867 239.413 78.5733 239.973 78.24C240.533 77.9067 241.133 77.74 241.773 77.74ZM255.417 78H257.897V88H255.417V87.02C254.95 87.42 254.437 87.7333 253.877 87.96C253.33 88.1733 252.75 88.28 252.137 88.28C251.124 88.28 250.237 88.0533 249.477 87.6C248.717 87.1467 248.13 86.52 247.717 85.72C247.317 84.92 247.117 84.02 247.117 83.02C247.117 82.02 247.317 81.12 247.717 80.32C248.13 79.52 248.717 78.8933 249.477 78.44C250.237 77.9733 251.124 77.74 252.137 77.74C252.75 77.74 253.33 77.8533 253.877 78.08C254.437 78.2933 254.95 78.6 255.417 79V78ZM252.457 85.9C253.004 85.9 253.497 85.78 253.937 85.54C254.39 85.2867 254.744 84.94 254.997 84.5C255.264 84.06 255.397 83.56 255.397 83C255.397 82.16 255.11 81.4733 254.537 80.94C253.977 80.4067 253.284 80.14 252.457 80.14C251.617 80.14 250.924 80.4133 250.377 80.96C249.844 81.4933 249.577 82.18 249.577 83.02C249.577 83.86 249.844 84.5533 250.377 85.1C250.924 85.6333 251.617 85.9 252.457 85.9ZM267.917 78H270.397V87.5C270.397 88.4467 270.157 89.28 269.677 90C269.211 90.72 268.557 91.2733 267.717 91.66C266.877 92.06 265.937 92.26 264.897 92.26C263.737 92.26 262.684 92.0333 261.737 91.58C260.791 91.14 260.124 90.56 259.737 89.84L261.857 88.62C262.057 89.0067 262.431 89.3267 262.977 89.58C263.524 89.8467 264.184 89.98 264.957 89.98C265.811 89.98 266.517 89.7467 267.077 89.28C267.637 88.8267 267.917 88.2333 267.917 87.5V87.04C267.464 87.44 266.957 87.7467 266.397 87.96C265.837 88.1733 265.257 88.28 264.657 88.28C263.644 88.28 262.757 88.0533 261.997 87.6C261.237 87.1467 260.651 86.52 260.237 85.72C259.837 84.92 259.637 84.02 259.637 83.02C259.637 82.02 259.837 81.12 260.237 80.32C260.651 79.52 261.237 78.8933 261.997 78.44C262.757 77.9733 263.644 77.74 264.657 77.74C265.257 77.74 265.831 77.8533 266.377 78.08C266.937 78.2933 267.451 78.5933 267.917 78.98V78ZM264.977 85.9C265.524 85.9 266.017 85.78 266.457 85.54C266.911 85.2867 267.264 84.94 267.517 84.5C267.784 84.06 267.917 83.56 267.917 83C267.917 82.16 267.631 81.4733 267.057 80.94C266.497 80.4067 265.804 80.14 264.977 80.14C264.137 80.14 263.444 80.4133 262.897 80.96C262.364 81.4933 262.097 82.18 262.097 83.02C262.097 83.86 262.364 84.5533 262.897 85.1C263.444 85.6333 264.137 85.9 264.977 85.9ZM277.257 77.74C278.217 77.74 279.077 77.98 279.837 78.46C280.611 78.9267 281.211 79.56 281.637 80.36C282.064 81.16 282.277 82.0467 282.277 83.02C282.277 83.34 282.251 83.6333 282.197 83.9H274.477C274.677 84.6067 275.031 85.16 275.537 85.56C276.044 85.9467 276.691 86.14 277.477 86.14C277.957 86.14 278.417 86.0333 278.857 85.82C279.311 85.6067 279.651 85.3333 279.877 85L281.777 86.12C281.311 86.8133 280.704 87.3467 279.957 87.72C279.224 88.08 278.377 88.26 277.417 88.26C276.351 88.26 275.404 88.0333 274.577 87.58C273.751 87.1267 273.111 86.5 272.657 85.7C272.217 84.9 271.997 84 271.997 83C271.997 82.0133 272.217 81.12 272.657 80.32C273.111 79.52 273.737 78.8933 274.537 78.44C275.337 77.9733 276.244 77.74 277.257 77.74ZM279.957 81.96C279.851 81.32 279.551 80.82 279.057 80.46C278.577 80.0867 277.971 79.9 277.237 79.9C276.731 79.9 276.264 79.9933 275.837 80.18C275.424 80.3667 275.091 80.62 274.837 80.94C274.584 81.26 274.451 81.6 274.437 81.96H279.957ZM286.006 80.8C286.006 81.08 286.16 81.2933 286.466 81.44C286.786 81.5733 287.286 81.7133 287.966 81.86C288.74 82.02 289.386 82.2 289.906 82.4C290.426 82.6 290.873 82.92 291.246 83.36C291.633 83.7867 291.826 84.3667 291.826 85.1C291.826 85.7533 291.626 86.32 291.226 86.8C290.84 87.28 290.32 87.6467 289.666 87.9C289.013 88.14 288.3 88.26 287.526 88.26C286.473 88.26 285.566 88.06 284.806 87.66C284.06 87.26 283.506 86.6867 283.146 85.94L285.186 84.88C285.546 85.8 286.326 86.26 287.526 86.26C288.046 86.26 288.493 86.16 288.866 85.96C289.24 85.76 289.426 85.4733 289.426 85.1C289.426 84.78 289.253 84.5467 288.906 84.4C288.573 84.24 288.026 84.0667 287.266 83.88C286.48 83.6933 285.84 83.5067 285.346 83.32C284.853 83.1333 284.426 82.8467 284.066 82.46C283.706 82.06 283.526 81.5333 283.526 80.88C283.526 80.24 283.706 79.6867 284.066 79.22C284.426 78.74 284.913 78.3733 285.526 78.12C286.14 77.8667 286.813 77.74 287.546 77.74C288.413 77.74 289.186 77.92 289.866 78.28C290.56 78.64 291.093 79.1533 291.466 79.82L289.446 80.84C289.1 80.0933 288.466 79.72 287.546 79.72C287.08 79.72 286.706 79.82 286.426 80.02C286.146 80.2067 286.006 80.4667 286.006 80.8ZM294.589 88.18C294.189 88.0733 293.922 87.9333 293.789 87.76C293.669 87.5733 293.609 87.2467 293.609 86.78C293.609 86.3267 293.729 85.9733 293.969 85.72C294.222 85.4667 294.575 85.34 295.029 85.34C295.482 85.34 295.835 85.4733 296.089 85.74C296.342 85.9933 296.469 86.3533 296.469 86.82C296.455 87.34 296.389 87.76 296.269 88.08C296.162 88.4 295.942 88.7933 295.609 89.26L294.609 90.62L293.809 89.96L294.589 88.18ZM308.044 85L310.664 78H313.284L309.564 88H306.524L302.804 78H305.424L308.044 85ZM315.966 76.34C315.5 76.34 315.133 76.2133 314.866 75.96C314.6 75.7067 314.466 75.36 314.466 74.92C314.466 74.4667 314.6 74.1133 314.866 73.86C315.133 73.6067 315.5 73.48 315.966 73.48C316.433 73.48 316.8 73.6067 317.066 73.86C317.333 74.1133 317.466 74.4667 317.466 74.92C317.466 75.3467 317.326 75.6933 317.046 75.96C316.78 76.2133 316.42 76.34 315.966 76.34ZM314.706 88V78H317.186V88H314.706ZM327.096 74H329.576V88H327.096V87.04C326.643 87.44 326.136 87.7467 325.576 87.96C325.016 88.1733 324.436 88.28 323.836 88.28C322.823 88.28 321.936 88.0533 321.176 87.6C320.416 87.1467 319.829 86.52 319.416 85.72C319.016 84.92 318.816 84.02 318.816 83.02C318.816 82.02 319.016 81.12 319.416 80.32C319.829 79.52 320.416 78.8933 321.176 78.44C321.936 77.9733 322.823 77.74 323.836 77.74C324.436 77.74 325.009 77.8533 325.556 78.08C326.116 78.2933 326.629 78.5933 327.096 78.98V74ZM324.156 85.9C324.703 85.9 325.196 85.78 325.636 85.54C326.089 85.2867 326.443 84.94 326.696 84.5C326.963 84.06 327.096 83.56 327.096 83C327.096 82.16 326.809 81.4733 326.236 80.94C325.676 80.4067 324.983 80.14 324.156 80.14C323.316 80.14 322.623 80.4133 322.076 80.96C321.543 81.4933 321.276 82.18 321.276 83.02C321.276 83.86 321.543 84.5533 322.076 85.1C322.623 85.6333 323.316 85.9 324.156 85.9ZM336.437 77.74C337.397 77.74 338.257 77.98 339.017 78.46C339.79 78.9267 340.39 79.56 340.817 80.36C341.244 81.16 341.457 82.0467 341.457 83.02C341.457 83.34 341.43 83.6333 341.377 83.9H333.657C333.857 84.6067 334.21 85.16 334.717 85.56C335.224 85.9467 335.87 86.14 336.657 86.14C337.137 86.14 337.597 86.0333 338.037 85.82C338.49 85.6067 338.83 85.3333 339.057 85L340.957 86.12C340.49 86.8133 339.884 87.3467 339.137 87.72C338.404 88.08 337.557 88.26 336.597 88.26C335.53 88.26 334.584 88.0333 333.757 87.58C332.93 87.1267 332.29 86.5 331.837 85.7C331.397 84.9 331.177 84 331.177 83C331.177 82.0133 331.397 81.12 331.837 80.32C332.29 79.52 332.917 78.8933 333.717 78.44C334.517 77.9733 335.424 77.74 336.437 77.74ZM339.137 81.96C339.03 81.32 338.73 80.82 338.237 80.46C337.757 80.0867 337.15 79.9 336.417 79.9C335.91 79.9 335.444 79.9933 335.017 80.18C334.604 80.3667 334.27 80.62 334.017 80.94C333.764 81.26 333.63 81.6 333.617 81.96H339.137ZM347.726 88.28C346.779 88.28 345.899 88.0467 345.086 87.58C344.286 87.1 343.646 86.46 343.166 85.66C342.699 84.8467 342.466 83.9667 342.466 83.02C342.466 82.0733 342.699 81.2 343.166 80.4C343.646 79.5867 344.286 78.9467 345.086 78.48C345.899 78 346.779 77.76 347.726 77.76C348.673 77.76 349.546 78 350.346 78.48C351.159 78.9467 351.799 79.5867 352.266 80.4C352.746 81.2 352.986 82.0733 352.986 83.02C352.986 83.9667 352.746 84.8467 352.266 85.66C351.799 86.46 351.159 87.1 350.346 87.58C349.546 88.0467 348.673 88.28 347.726 88.28ZM347.706 85.8C348.213 85.8 348.679 85.68 349.106 85.44C349.533 85.1867 349.873 84.8467 350.126 84.42C350.379 83.9933 350.506 83.5267 350.506 83.02C350.506 82.5133 350.379 82.0467 350.126 81.62C349.873 81.1933 349.533 80.8533 349.106 80.6C348.679 80.3467 348.213 80.22 347.706 80.22C347.199 80.22 346.733 80.3467 346.306 80.6C345.879 80.8533 345.539 81.1933 345.286 81.62C345.046 82.0467 344.926 82.5133 344.926 83.02C344.926 83.5267 345.046 83.9933 345.286 84.42C345.539 84.8467 345.879 85.1867 346.306 85.44C346.733 85.68 347.199 85.8 347.706 85.8ZM356.729 80.8C356.729 81.08 356.882 81.2933 357.189 81.44C357.509 81.5733 358.009 81.7133 358.689 81.86C359.462 82.02 360.109 82.2 360.629 82.4C361.149 82.6 361.596 82.92 361.969 83.36C362.356 83.7867 362.549 84.3667 362.549 85.1C362.549 85.7533 362.349 86.32 361.949 86.8C361.562 87.28 361.042 87.6467 360.389 87.9C359.736 88.14 359.022 88.26 358.249 88.26C357.196 88.26 356.289 88.06 355.529 87.66C354.782 87.26 354.229 86.6867 353.869 85.94L355.909 84.88C356.269 85.8 357.049 86.26 358.249 86.26C358.769 86.26 359.216 86.16 359.589 85.96C359.962 85.76 360.149 85.4733 360.149 85.1C360.149 84.78 359.976 84.5467 359.629 84.4C359.296 84.24 358.749 84.0667 357.989 83.88C357.202 83.6933 356.562 83.5067 356.069 83.32C355.576 83.1333 355.149 82.8467 354.789 82.46C354.429 82.06 354.249 81.5333 354.249 80.88C354.249 80.24 354.429 79.6867 354.789 79.22C355.149 78.74 355.636 78.3733 356.249 78.12C356.862 77.8667 357.536 77.74 358.269 77.74C359.136 77.74 359.909 77.92 360.589 78.28C361.282 78.64 361.816 79.1533 362.189 79.82L360.169 80.84C359.822 80.0933 359.189 79.72 358.269 79.72C357.802 79.72 357.429 79.82 357.149 80.02C356.869 80.2067 356.729 80.4667 356.729 80.8ZM365.311 88.18C364.911 88.0733 364.645 87.9333 364.511 87.76C364.391 87.5733 364.331 87.2467 364.331 86.78C364.331 86.3267 364.451 85.9733 364.691 85.72C364.945 85.4667 365.298 85.34 365.751 85.34C366.205 85.34 366.558 85.4733 366.811 85.74C367.065 85.9933 367.191 86.3533 367.191 86.82C367.178 87.34 367.111 87.76 366.991 88.08C366.885 88.4 366.665 88.7933 366.331 89.26L365.331 90.62L364.531 89.96L365.311 88.18ZM379.386 88.28C378.44 88.28 377.56 88.0467 376.746 87.58C375.946 87.1 375.306 86.46 374.826 85.66C374.36 84.8467 374.126 83.9667 374.126 83.02C374.126 82.0733 374.36 81.2 374.826 80.4C375.306 79.5867 375.946 78.9467 376.746 78.48C377.56 78 378.44 77.76 379.386 77.76C380.333 77.76 381.206 78 382.006 78.48C382.82 78.9467 383.46 79.5867 383.926 80.4C384.406 81.2 384.646 82.0733 384.646 83.02C384.646 83.9667 384.406 84.8467 383.926 85.66C383.46 86.46 382.82 87.1 382.006 87.58C381.206 88.0467 380.333 88.28 379.386 88.28ZM379.366 85.8C379.873 85.8 380.34 85.68 380.766 85.44C381.193 85.1867 381.533 84.8467 381.786 84.42C382.04 83.9933 382.166 83.5267 382.166 83.02C382.166 82.5133 382.04 82.0467 381.786 81.62C381.533 81.1933 381.193 80.8533 380.766 80.6C380.34 80.3467 379.873 80.22 379.366 80.22C378.86 80.22 378.393 80.3467 377.966 80.6C377.54 80.8533 377.2 81.1933 376.946 81.62C376.706 82.0467 376.586 82.5133 376.586 83.02C376.586 83.5267 376.706 83.9933 376.946 84.42C377.2 84.8467 377.54 85.1867 377.966 85.44C378.393 85.68 378.86 85.8 379.366 85.8ZM392.169 77.8L391.989 80.14C391.909 80.1133 391.769 80.1 391.569 80.1C390.743 80.1 390.056 80.34 389.509 80.82C388.976 81.3 388.709 81.9533 388.709 82.78V88H386.229V78H388.709V79.68C388.936 79.1467 389.323 78.7 389.869 78.34C390.416 77.98 391.076 77.8 391.849 77.8H392.169ZM407.084 80.56C407.63 80.9467 408.057 81.4267 408.364 82C408.67 82.56 408.824 83.1733 408.824 83.84C408.824 84.6667 408.59 85.4133 408.124 86.08C407.67 86.7467 407.044 87.2733 406.244 87.66C405.457 88.0333 404.577 88.22 403.604 88.22C402.697 88.22 401.857 88.0467 401.084 87.7C400.324 87.3533 399.71 86.88 399.244 86.28C398.777 85.6667 398.524 84.98 398.484 84.22L401.184 84.02C401.304 84.5267 401.59 84.9467 402.044 85.28C402.497 85.6133 403.017 85.78 403.604 85.78C404.364 85.78 404.99 85.5867 405.484 85.2C405.977 84.8133 406.224 84.32 406.224 83.72C406.224 83.12 405.977 82.6267 405.484 82.24C404.99 81.8533 404.364 81.66 403.604 81.66H402.864L402.884 79.54H403.604C404.27 79.54 404.817 79.38 405.244 79.06C405.684 78.74 405.904 78.3267 405.904 77.82C405.904 77.3133 405.684 76.9 405.244 76.58C404.804 76.2467 404.244 76.08 403.564 76.08C403.084 76.08 402.637 76.1933 402.224 76.42C401.81 76.6467 401.517 76.94 401.344 77.3L398.764 77.14C398.857 76.5 399.124 75.92 399.564 75.4C400.017 74.88 400.59 74.4733 401.284 74.18C401.977 73.8867 402.737 73.74 403.564 73.74C404.497 73.74 405.33 73.92 406.064 74.28C406.81 74.6267 407.39 75.1133 407.804 75.74C408.23 76.3533 408.444 77.0467 408.444 77.82C408.444 78.3667 408.324 78.8733 408.084 79.34C407.857 79.8067 407.524 80.2133 407.084 80.56ZM416.675 74C417.982 74 419.182 74.3133 420.275 74.94C421.382 75.5533 422.255 76.4 422.895 77.48C423.535 78.5467 423.855 79.7333 423.855 81.04C423.855 82.3467 423.535 83.5333 422.895 84.6C422.255 85.6533 421.382 86.4867 420.275 87.1C419.182 87.7 417.982 88 416.675 88H411.115V74H416.675ZM416.675 85.52C417.515 85.52 418.282 85.3267 418.975 84.94C419.669 84.54 420.215 83.9933 420.615 83.3C421.029 82.6067 421.235 81.8467 421.235 81.02C421.235 80.1933 421.029 79.4333 420.615 78.74C420.215 78.0333 419.669 77.48 418.975 77.08C418.282 76.68 417.515 76.48 416.675 76.48H413.735V85.52H416.675ZM442.574 77.74C443.161 77.74 443.754 77.8667 444.354 78.12C444.954 78.36 445.467 78.8 445.894 79.44C446.334 80.08 446.554 80.94 446.554 82.02V88H444.094V82.02C444.094 81.2733 443.881 80.74 443.454 80.42C443.041 80.0867 442.554 79.92 441.994 79.92C441.514 79.92 441.094 80.0667 440.734 80.36C440.374 80.64 440.141 81.0933 440.034 81.72V82.02V88H437.574V82.02C437.574 81.2733 437.361 80.74 436.934 80.42C436.521 80.0867 436.027 79.92 435.454 79.92C435.001 79.92 434.587 80.06 434.214 80.34C433.854 80.62 433.621 81.0667 433.514 81.68V88H431.034V78H433.514V78.78C433.847 78.46 434.227 78.2067 434.654 78.02C435.094 77.8333 435.561 77.74 436.054 77.74C436.667 77.74 437.287 77.8733 437.914 78.14C438.541 78.4067 439.041 78.8533 439.414 79.48C439.761 78.9867 440.214 78.5733 440.774 78.24C441.334 77.9067 441.934 77.74 442.574 77.74ZM453.214 88.28C452.268 88.28 451.388 88.0467 450.574 87.58C449.774 87.1 449.134 86.46 448.654 85.66C448.188 84.8467 447.954 83.9667 447.954 83.02C447.954 82.0733 448.188 81.2 448.654 80.4C449.134 79.5867 449.774 78.9467 450.574 78.48C451.388 78 452.268 77.76 453.214 77.76C454.161 77.76 455.034 78 455.834 78.48C456.648 78.9467 457.288 79.5867 457.754 80.4C458.234 81.2 458.474 82.0733 458.474 83.02C458.474 83.9667 458.234 84.8467 457.754 85.66C457.288 86.46 456.648 87.1 455.834 87.58C455.034 88.0467 454.161 88.28 453.214 88.28ZM453.194 85.8C453.701 85.8 454.168 85.68 454.594 85.44C455.021 85.1867 455.361 84.8467 455.614 84.42C455.868 83.9933 455.994 83.5267 455.994 83.02C455.994 82.5133 455.868 82.0467 455.614 81.62C455.361 81.1933 455.021 80.8533 454.594 80.6C454.168 80.3467 453.701 80.22 453.194 80.22C452.688 80.22 452.221 80.3467 451.794 80.6C451.368 80.8533 451.028 81.1933 450.774 81.62C450.534 82.0467 450.414 82.5133 450.414 83.02C450.414 83.5267 450.534 83.9933 450.774 84.42C451.028 84.8467 451.368 85.1867 451.794 85.44C452.221 85.68 452.688 85.8 453.194 85.8ZM467.877 74H470.357V88H467.877V87.04C467.424 87.44 466.917 87.7467 466.357 87.96C465.797 88.1733 465.217 88.28 464.617 88.28C463.604 88.28 462.717 88.0533 461.957 87.6C461.197 87.1467 460.611 86.52 460.197 85.72C459.797 84.92 459.597 84.02 459.597 83.02C459.597 82.02 459.797 81.12 460.197 80.32C460.611 79.52 461.197 78.8933 461.957 78.44C462.717 77.9733 463.604 77.74 464.617 77.74C465.217 77.74 465.791 77.8533 466.337 78.08C466.897 78.2933 467.411 78.5933 467.877 78.98V74ZM464.937 85.9C465.484 85.9 465.977 85.78 466.417 85.54C466.871 85.2867 467.224 84.94 467.477 84.5C467.744 84.06 467.877 83.56 467.877 83C467.877 82.16 467.591 81.4733 467.017 80.94C466.457 80.4067 465.764 80.14 464.937 80.14C464.097 80.14 463.404 80.4133 462.857 80.96C462.324 81.4933 462.057 82.18 462.057 83.02C462.057 83.86 462.324 84.5533 462.857 85.1C463.404 85.6333 464.097 85.9 464.937 85.9ZM477.218 77.74C478.178 77.74 479.038 77.98 479.798 78.46C480.572 78.9267 481.172 79.56 481.598 80.36C482.025 81.16 482.238 82.0467 482.238 83.02C482.238 83.34 482.212 83.6333 482.158 83.9H474.438C474.638 84.6067 474.992 85.16 475.498 85.56C476.005 85.9467 476.652 86.14 477.438 86.14C477.918 86.14 478.378 86.0333 478.818 85.82C479.272 85.6067 479.612 85.3333 479.838 85L481.738 86.12C481.272 86.8133 480.665 87.3467 479.918 87.72C479.185 88.08 478.338 88.26 477.378 88.26C476.312 88.26 475.365 88.0333 474.538 87.58C473.712 87.1267 473.072 86.5 472.618 85.7C472.178 84.9 471.958 84 471.958 83C471.958 82.0133 472.178 81.12 472.618 80.32C473.072 79.52 473.698 78.8933 474.498 78.44C475.298 77.9733 476.205 77.74 477.218 77.74ZM479.918 81.96C479.812 81.32 479.512 80.82 479.018 80.46C478.538 80.0867 477.932 79.9 477.198 79.9C476.692 79.9 476.225 79.9933 475.798 80.18C475.385 80.3667 475.052 80.62 474.798 80.94C474.545 81.26 474.412 81.6 474.398 81.96H479.918ZM486.287 85.18C486.287 85.3933 486.341 85.5467 486.447 85.64C486.554 85.7333 486.721 85.78 486.947 85.78C487.121 85.78 487.327 85.76 487.567 85.72V88C487.074 88.08 486.614 88.12 486.187 88.12C485.414 88.12 484.821 87.92 484.407 87.52C484.007 87.1067 483.807 86.38 483.807 85.34V74H486.287V85.18ZM491.612 80.8C491.612 81.08 491.765 81.2933 492.072 81.44C492.392 81.5733 492.892 81.7133 493.572 81.86C494.345 82.02 494.992 82.2 495.512 82.4C496.032 82.6 496.479 82.92 496.852 83.36C497.239 83.7867 497.432 84.3667 497.432 85.1C497.432 85.7533 497.232 86.32 496.832 86.8C496.445 87.28 495.925 87.6467 495.272 87.9C494.619 88.14 493.905 88.26 493.132 88.26C492.079 88.26 491.172 88.06 490.412 87.66C489.665 87.26 489.112 86.6867 488.752 85.94L490.792 84.88C491.152 85.8 491.932 86.26 493.132 86.26C493.652 86.26 494.099 86.16 494.472 85.96C494.845 85.76 495.032 85.4733 495.032 85.1C495.032 84.78 494.859 84.5467 494.512 84.4C494.179 84.24 493.632 84.0667 492.872 83.88C492.085 83.6933 491.445 83.5067 490.952 83.32C490.459 83.1333 490.032 82.8467 489.672 82.46C489.312 82.06 489.132 81.5333 489.132 80.88C489.132 80.24 489.312 79.6867 489.672 79.22C490.032 78.74 490.519 78.3733 491.132 78.12C491.745 77.8667 492.419 77.74 493.152 77.74C494.019 77.74 494.792 77.92 495.472 78.28C496.165 78.64 496.699 79.1533 497.072 79.82L495.052 80.84C494.705 80.0933 494.072 79.72 493.152 79.72C492.685 79.72 492.312 79.82 492.032 80.02C491.752 80.2067 491.612 80.4667 491.612 80.8ZM509.191 88.28C508.244 88.28 507.364 88.0467 506.551 87.58C505.751 87.1 505.111 86.46 504.631 85.66C504.164 84.8467 503.931 83.9667 503.931 83.02C503.931 82.0733 504.164 81.2 504.631 80.4C505.111 79.5867 505.751 78.9467 506.551 78.48C507.364 78 508.244 77.76 509.191 77.76C510.138 77.76 511.011 78 511.811 78.48C512.624 78.9467 513.264 79.5867 513.731 80.4C514.211 81.2 514.451 82.0733 514.451 83.02C514.451 83.9667 514.211 84.8467 513.731 85.66C513.264 86.46 512.624 87.1 511.811 87.58C511.011 88.0467 510.138 88.28 509.191 88.28ZM509.171 85.8C509.678 85.8 510.144 85.68 510.571 85.44C510.998 85.1867 511.338 84.8467 511.591 84.42C511.844 83.9933 511.971 83.5267 511.971 83.02C511.971 82.5133 511.844 82.0467 511.591 81.62C511.338 81.1933 510.998 80.8533 510.571 80.6C510.144 80.3467 509.678 80.22 509.171 80.22C508.664 80.22 508.198 80.3467 507.771 80.6C507.344 80.8533 507.004 81.1933 506.751 81.62C506.511 82.0467 506.391 82.5133 506.391 83.02C506.391 83.5267 506.511 83.9933 506.751 84.42C507.004 84.8467 507.344 85.1867 507.771 85.44C508.198 85.68 508.664 85.8 509.171 85.8ZM521.516 76.1C521.183 76.06 520.883 76.04 520.616 76.04C520.15 76.04 519.81 76.1267 519.596 76.3C519.383 76.4733 519.276 76.7933 519.276 77.26V78H521.496V80.22H519.276V88H516.796V80.22H515.136V78H516.796V77.1C516.796 75.8333 517.056 74.96 517.576 74.48C518.096 73.9867 518.883 73.74 519.936 73.74C520.35 73.74 520.876 73.7733 521.516 73.84V76.1ZM534.588 78H537.188L533.688 88.02C533.168 89.3933 532.448 90.42 531.528 91.1C530.622 91.7933 529.548 92.0933 528.308 92V89.6C528.388 89.6133 528.508 89.62 528.668 89.62C529.735 89.62 530.568 88.9733 531.168 87.68L526.768 78H529.428L532.368 84.36L534.588 78ZM543.293 88.28C542.346 88.28 541.466 88.0467 540.653 87.58C539.853 87.1 539.213 86.46 538.733 85.66C538.266 84.8467 538.033 83.9667 538.033 83.02C538.033 82.0733 538.266 81.2 538.733 80.4C539.213 79.5867 539.853 78.9467 540.653 78.48C541.466 78 542.346 77.76 543.293 77.76C544.239 77.76 545.113 78 545.913 78.48C546.726 78.9467 547.366 79.5867 547.833 80.4C548.313 81.2 548.553 82.0733 548.553 83.02C548.553 83.9667 548.313 84.8467 547.833 85.66C547.366 86.46 546.726 87.1 545.913 87.58C545.113 88.0467 544.239 88.28 543.293 88.28ZM543.273 85.8C543.779 85.8 544.246 85.68 544.673 85.44C545.099 85.1867 545.439 84.8467 545.693 84.42C545.946 83.9933 546.073 83.5267 546.073 83.02C546.073 82.5133 545.946 82.0467 545.693 81.62C545.439 81.1933 545.099 80.8533 544.673 80.6C544.246 80.3467 543.779 80.22 543.273 80.22C542.766 80.22 542.299 80.3467 541.873 80.6C541.446 80.8533 541.106 81.1933 540.853 81.62C540.613 82.0467 540.493 82.5133 540.493 83.02C540.493 83.5267 540.613 83.9933 540.853 84.42C541.106 84.8467 541.446 85.1867 541.873 85.44C542.299 85.68 542.766 85.8 543.273 85.8ZM556.435 78H558.915V88H556.435V87.16C556.075 87.4933 555.675 87.76 555.235 87.96C554.795 88.16 554.329 88.26 553.835 88.26C553.249 88.26 552.649 88.14 552.035 87.9C551.435 87.6467 550.915 87.2 550.475 86.56C550.049 85.92 549.835 85.06 549.835 83.98V78H552.315V83.98C552.315 84.7267 552.522 85.2667 552.935 85.6C553.362 85.92 553.855 86.08 554.415 86.08C554.975 86.08 555.449 85.8867 555.835 85.5C556.235 85.1 556.435 84.4667 556.435 83.6V78ZM567.423 77.8L567.243 80.14C567.163 80.1133 567.023 80.1 566.823 80.1C565.996 80.1 565.31 80.34 564.763 80.82C564.23 81.3 563.963 81.9533 563.963 82.78V88H561.483V78H563.963V79.68C564.19 79.1467 564.576 78.7 565.123 78.34C565.67 77.98 566.33 77.8 567.103 77.8H567.423ZM582.058 78H584.538V88H582.058V87.02C581.591 87.42 581.078 87.7333 580.518 87.96C579.971 88.1733 579.391 88.28 578.778 88.28C577.764 88.28 576.878 88.0533 576.118 87.6C575.358 87.1467 574.771 86.52 574.358 85.72C573.958 84.92 573.758 84.02 573.758 83.02C573.758 82.02 573.958 81.12 574.358 80.32C574.771 79.52 575.358 78.8933 576.118 78.44C576.878 77.9733 577.764 77.74 578.778 77.74C579.391 77.74 579.971 77.8533 580.518 78.08C581.078 78.2933 581.591 78.6 582.058 79V78ZM579.098 85.9C579.644 85.9 580.138 85.78 580.578 85.54C581.031 85.2867 581.384 84.94 581.638 84.5C581.904 84.06 582.038 83.56 582.038 83C582.038 82.16 581.751 81.4733 581.178 80.94C580.618 80.4067 579.924 80.14 579.098 80.14C578.258 80.14 577.564 80.4133 577.018 80.96C576.484 81.4933 576.218 82.18 576.218 83.02C576.218 83.86 576.484 84.5533 577.018 85.1C577.564 85.6333 578.258 85.9 579.098 85.9ZM593.029 77.8L592.849 80.14C592.769 80.1133 592.629 80.1 592.429 80.1C591.602 80.1 590.915 80.34 590.369 80.82C589.835 81.3 589.569 81.9533 589.569 82.78V88H587.089V78H589.569V79.68C589.795 79.1467 590.182 78.7 590.729 78.34C591.275 77.98 591.935 77.8 592.709 77.8H593.029ZM598.674 84.58C598.674 85.0333 598.78 85.3467 598.994 85.52C599.207 85.6933 599.547 85.78 600.014 85.78C600.294 85.78 600.6 85.76 600.934 85.72V88C600.307 88.0667 599.787 88.1 599.374 88.1C598.307 88.1 597.507 87.86 596.974 87.38C596.454 86.8867 596.194 86.0067 596.194 84.74V80.22H594.314V78H596.194V75.54L598.674 74.7V78H600.894V80.22H598.674V84.58ZM612.705 84.06L614.565 78H617.165L613.925 88H611.465L609.585 82.06L607.705 88H605.285L602.125 78H604.705L606.505 84.02L608.265 78H610.905L612.705 84.06ZM622.765 88.28C621.818 88.28 620.938 88.0467 620.125 87.58C619.325 87.1 618.685 86.46 618.205 85.66C617.738 84.8467 617.505 83.9667 617.505 83.02C617.505 82.0733 617.738 81.2 618.205 80.4C618.685 79.5867 619.325 78.9467 620.125 78.48C620.938 78 621.818 77.76 622.765 77.76C623.712 77.76 624.585 78 625.385 78.48C626.198 78.9467 626.838 79.5867 627.305 80.4C627.785 81.2 628.025 82.0733 628.025 83.02C628.025 83.9667 627.785 84.8467 627.305 85.66C626.838 86.46 626.198 87.1 625.385 87.58C624.585 88.0467 623.712 88.28 622.765 88.28ZM622.745 85.8C623.252 85.8 623.718 85.68 624.145 85.44C624.572 85.1867 624.912 84.8467 625.165 84.42C625.418 83.9933 625.545 83.5267 625.545 83.02C625.545 82.5133 625.418 82.0467 625.165 81.62C624.912 81.1933 624.572 80.8533 624.145 80.6C623.718 80.3467 623.252 80.22 622.745 80.22C622.238 80.22 621.772 80.3467 621.345 80.6C620.918 80.8533 620.578 81.1933 620.325 81.62C620.085 82.0467 619.965 82.5133 619.965 83.02C619.965 83.5267 620.085 83.9933 620.325 84.42C620.578 84.8467 620.918 85.1867 621.345 85.44C621.772 85.68 622.238 85.8 622.745 85.8ZM635.548 77.8L635.368 80.14C635.288 80.1133 635.148 80.1 634.948 80.1C634.121 80.1 633.435 80.34 632.888 80.82C632.355 81.3 632.088 81.9533 632.088 82.78V88H629.608V78H632.088V79.68C632.315 79.1467 632.701 78.7 633.248 78.34C633.795 77.98 634.455 77.8 635.228 77.8H635.548ZM647.046 88H643.946L641.146 84.26L639.686 85.86V88H637.206V74H639.686V82.22L643.446 78H646.906L642.826 82.44L647.046 88ZM648.474 86.88C648.474 86.4533 648.587 86.1267 648.814 85.9C649.054 85.66 649.387 85.54 649.814 85.54C650.241 85.54 650.567 85.66 650.794 85.9C651.021 86.1267 651.134 86.4533 651.134 86.88C651.134 87.3067 651.021 87.64 650.794 87.88C650.567 88.12 650.241 88.24 649.814 88.24C649.387 88.24 649.054 88.12 648.814 87.88C648.587 87.64 648.474 87.3067 648.474 86.88ZM668.128 74V76.48H664.268V88H661.668V76.48H657.828V74H668.128ZM678.706 88H676.246V82.08C676.246 81.3333 676.032 80.8 675.606 80.48C675.192 80.1467 674.699 79.98 674.126 79.98C673.672 79.98 673.259 80.12 672.886 80.4C672.526 80.68 672.292 81.1267 672.186 81.74V88H669.706V74H672.186V78.84C672.519 78.52 672.899 78.2667 673.326 78.08C673.766 77.8933 674.232 77.8 674.726 77.8C675.312 77.8 675.906 77.9267 676.506 78.18C677.106 78.42 677.619 78.8533 678.046 79.48C678.486 80.1067 678.706 80.9533 678.706 82.02V88ZM685.285 77.74C686.245 77.74 687.105 77.98 687.865 78.46C688.638 78.9267 689.238 79.56 689.665 80.36C690.091 81.16 690.305 82.0467 690.305 83.02C690.305 83.34 690.278 83.6333 690.225 83.9H682.505C682.705 84.6067 683.058 85.16 683.565 85.56C684.071 85.9467 684.718 86.14 685.505 86.14C685.985 86.14 686.445 86.0333 686.885 85.82C687.338 85.6067 687.678 85.3333 687.905 85L689.805 86.12C689.338 86.8133 688.731 87.3467 687.985 87.72C687.251 88.08 686.405 88.26 685.445 88.26C684.378 88.26 683.431 88.0333 682.605 87.58C681.778 87.1267 681.138 86.5 680.685 85.7C680.245 84.9 680.025 84 680.025 83C680.025 82.0133 680.245 81.12 680.685 80.32C681.138 79.52 681.765 78.8933 682.565 78.44C683.365 77.9733 684.271 77.74 685.285 77.74ZM687.985 81.96C687.878 81.32 687.578 80.82 687.085 80.46C686.605 80.0867 685.998 79.9 685.265 79.9C684.758 79.9 684.291 79.9933 683.865 80.18C683.451 80.3667 683.118 80.62 682.865 80.94C682.611 81.26 682.478 81.6 682.465 81.96H687.985ZM702.981 76.1C702.648 76.06 702.348 76.04 702.081 76.04C701.614 76.04 701.274 76.1267 701.061 76.3C700.848 76.4733 700.741 76.7933 700.741 77.26V78H702.961V80.22H700.741V88H698.261V80.22H696.601V78H698.261V77.1C698.261 75.8333 698.521 74.96 699.041 74.48C699.561 73.9867 700.348 73.74 701.401 73.74C701.814 73.74 702.341 73.7733 702.981 73.84V76.1ZM705.661 76.34C705.194 76.34 704.828 76.2133 704.561 75.96C704.294 75.7067 704.161 75.36 704.161 74.92C704.161 74.4667 704.294 74.1133 704.561 73.86C704.828 73.6067 705.194 73.48 705.661 73.48C706.128 73.48 706.494 73.6067 706.761 73.86C707.028 74.1133 707.161 74.4667 707.161 74.92C707.161 75.3467 707.021 75.6933 706.741 75.96C706.474 76.2133 706.114 76.34 705.661 76.34ZM704.401 88V78H706.881V88H704.401ZM715.294 77.8L715.114 80.14C715.034 80.1133 714.894 80.1 714.694 80.1C713.868 80.1 713.181 80.34 712.634 80.82C712.101 81.3 711.834 81.9533 711.834 82.78V88H709.354V78H711.834V79.68C712.061 79.1467 712.448 78.7 712.994 78.34C713.541 77.98 714.201 77.8 714.974 77.8H715.294ZM718.643 80.8C718.643 81.08 718.796 81.2933 719.103 81.44C719.423 81.5733 719.923 81.7133 720.603 81.86C721.376 82.02 722.023 82.2 722.543 82.4C723.063 82.6 723.51 82.92 723.883 83.36C724.27 83.7867 724.463 84.3667 724.463 85.1C724.463 85.7533 724.263 86.32 723.863 86.8C723.476 87.28 722.956 87.6467 722.303 87.9C721.65 88.14 720.936 88.26 720.163 88.26C719.11 88.26 718.203 88.06 717.443 87.66C716.696 87.26 716.143 86.6867 715.783 85.94L717.823 84.88C718.183 85.8 718.963 86.26 720.163 86.26C720.683 86.26 721.13 86.16 721.503 85.96C721.876 85.76 722.063 85.4733 722.063 85.1C722.063 84.78 721.89 84.5467 721.543 84.4C721.21 84.24 720.663 84.0667 719.903 83.88C719.116 83.6933 718.476 83.5067 717.983 83.32C717.49 83.1333 717.063 82.8467 716.703 82.46C716.343 82.06 716.163 81.5333 716.163 80.88C716.163 80.24 716.343 79.6867 716.703 79.22C717.063 78.74 717.55 78.3733 718.163 78.12C718.776 77.8667 719.45 77.74 720.183 77.74C721.05 77.74 721.823 77.92 722.503 78.28C723.196 78.64 723.73 79.1533 724.103 79.82L722.083 80.84C721.736 80.0933 721.103 79.72 720.183 79.72C719.716 79.72 719.343 79.82 719.063 80.02C718.783 80.2067 718.643 80.4667 718.643 80.8ZM729.455 84.58C729.455 85.0333 729.562 85.3467 729.775 85.52C729.988 85.6933 730.328 85.78 730.795 85.78C731.075 85.78 731.382 85.76 731.715 85.72V88C731.088 88.0667 730.568 88.1 730.155 88.1C729.088 88.1 728.288 87.86 727.755 87.38C727.235 86.8867 726.975 86.0067 726.975 84.74V80.22H725.095V78H726.975V75.54L729.455 74.7V78H731.675V80.22H729.455V84.58ZM740.283 76.34C739.816 76.34 739.449 76.2133 739.183 75.96C738.916 75.7067 738.783 75.36 738.783 74.92C738.783 74.4667 738.916 74.1133 739.183 73.86C739.449 73.6067 739.816 73.48 740.283 73.48C740.749 73.48 741.116 73.6067 741.383 73.86C741.649 74.1133 741.783 74.4667 741.783 74.92C741.783 75.3467 741.643 75.6933 741.363 75.96C741.096 76.2133 740.736 76.34 740.283 76.34ZM739.023 88V78H741.503V88H739.023ZM755.523 77.74C756.11 77.74 756.703 77.8667 757.303 78.12C757.903 78.36 758.416 78.8 758.843 79.44C759.283 80.08 759.503 80.94 759.503 82.02V88H757.043V82.02C757.043 81.2733 756.83 80.74 756.403 80.42C755.99 80.0867 755.503 79.92 754.943 79.92C754.463 79.92 754.043 80.0667 753.683 80.36C753.323 80.64 753.09 81.0933 752.983 81.72V82.02V88H750.523V82.02C750.523 81.2733 750.31 80.74 749.883 80.42C749.47 80.0867 748.976 79.92 748.403 79.92C747.95 79.92 747.536 80.06 747.163 80.34C746.803 80.62 746.57 81.0667 746.463 81.68V88H743.983V78H746.463V78.78C746.796 78.46 747.176 78.2067 747.603 78.02C748.043 77.8333 748.51 77.74 749.003 77.74C749.616 77.74 750.236 77.8733 750.863 78.14C751.49 78.4067 751.99 78.8533 752.363 79.48C752.71 78.9867 753.163 78.5733 753.723 78.24C754.283 77.9067 754.883 77.74 755.523 77.74ZM769.167 78H771.647V88H769.167V87.02C768.7 87.42 768.187 87.7333 767.627 87.96C767.08 88.1733 766.5 88.28 765.887 88.28C764.874 88.28 763.987 88.0533 763.227 87.6C762.467 87.1467 761.88 86.52 761.467 85.72C761.067 84.92 760.867 84.02 760.867 83.02C760.867 82.02 761.067 81.12 761.467 80.32C761.88 79.52 762.467 78.8933 763.227 78.44C763.987 77.9733 764.874 77.74 765.887 77.74C766.5 77.74 767.08 77.8533 767.627 78.08C768.187 78.2933 768.7 78.6 769.167 79V78ZM766.207 85.9C766.754 85.9 767.247 85.78 767.687 85.54C768.14 85.2867 768.494 84.94 768.747 84.5C769.014 84.06 769.147 83.56 769.147 83C769.147 82.16 768.86 81.4733 768.287 80.94C767.727 80.4067 767.034 80.14 766.207 80.14C765.367 80.14 764.674 80.4133 764.127 80.96C763.594 81.4933 763.327 82.18 763.327 83.02C763.327 83.86 763.594 84.5533 764.127 85.1C764.674 85.6333 765.367 85.9 766.207 85.9ZM781.667 78H784.147V87.5C784.147 88.4467 783.907 89.28 783.427 90C782.961 90.72 782.307 91.2733 781.467 91.66C780.627 92.06 779.687 92.26 778.647 92.26C777.487 92.26 776.434 92.0333 775.487 91.58C774.541 91.14 773.874 90.56 773.487 89.84L775.607 88.62C775.807 89.0067 776.181 89.3267 776.727 89.58C777.274 89.8467 777.934 89.98 778.707 89.98C779.561 89.98 780.267 89.7467 780.827 89.28C781.387 88.8267 781.667 88.2333 781.667 87.5V87.04C781.214 87.44 780.707 87.7467 780.147 87.96C779.587 88.1733 779.007 88.28 778.407 88.28C777.394 88.28 776.507 88.0533 775.747 87.6C774.987 87.1467 774.401 86.52 773.987 85.72C773.587 84.92 773.387 84.02 773.387 83.02C773.387 82.02 773.587 81.12 773.987 80.32C774.401 79.52 774.987 78.8933 775.747 78.44C776.507 77.9733 777.394 77.74 778.407 77.74C779.007 77.74 779.581 77.8533 780.127 78.08C780.687 78.2933 781.201 78.5933 781.667 78.98V78ZM778.727 85.9C779.274 85.9 779.767 85.78 780.207 85.54C780.661 85.2867 781.014 84.94 781.267 84.5C781.534 84.06 781.667 83.56 781.667 83C781.667 82.16 781.381 81.4733 780.807 80.94C780.247 80.4067 779.554 80.14 778.727 80.14C777.887 80.14 777.194 80.4133 776.647 80.96C776.114 81.4933 775.847 82.18 775.847 83.02C775.847 83.86 776.114 84.5533 776.647 85.1C777.194 85.6333 777.887 85.9 778.727 85.9ZM791.007 77.74C791.967 77.74 792.827 77.98 793.587 78.46C794.361 78.9267 794.961 79.56 795.387 80.36C795.814 81.16 796.027 82.0467 796.027 83.02C796.027 83.34 796.001 83.6333 795.947 83.9H788.227C788.427 84.6067 788.781 85.16 789.287 85.56C789.794 85.9467 790.441 86.14 791.227 86.14C791.707 86.14 792.167 86.0333 792.607 85.82C793.061 85.6067 793.401 85.3333 793.627 85L795.527 86.12C795.061 86.8133 794.454 87.3467 793.707 87.72C792.974 88.08 792.127 88.26 791.167 88.26C790.101 88.26 789.154 88.0333 788.327 87.58C787.501 87.1267 786.861 86.5 786.407 85.7C785.967 84.9 785.747 84 785.747 83C785.747 82.0133 785.967 81.12 786.407 80.32C786.861 79.52 787.487 78.8933 788.287 78.44C789.087 77.9733 789.994 77.74 791.007 77.74ZM793.707 81.96C793.601 81.32 793.301 80.82 792.807 80.46C792.327 80.0867 791.721 79.9 790.987 79.9C790.481 79.9 790.014 79.9933 789.587 80.18C789.174 80.3667 788.841 80.62 788.587 80.94C788.334 81.26 788.201 81.6 788.187 81.96H793.707ZM812.744 84.06L814.604 78H817.204L813.964 88H811.504L809.624 82.06L807.744 88H805.324L802.164 78H804.744L806.544 84.02L808.304 78H810.944L812.744 84.06ZM820.068 76.34C819.601 76.34 819.234 76.2133 818.968 75.96C818.701 75.7067 818.568 75.36 818.568 74.92C818.568 74.4667 818.701 74.1133 818.968 73.86C819.234 73.6067 819.601 73.48 820.068 73.48C820.534 73.48 820.901 73.6067 821.168 73.86C821.434 74.1133 821.568 74.4667 821.568 74.92C821.568 75.3467 821.428 75.6933 821.148 75.96C820.881 76.2133 820.521 76.34 820.068 76.34ZM818.808 88V78H821.288V88H818.808ZM826.248 85.18C826.248 85.3933 826.302 85.5467 826.408 85.64C826.515 85.7333 826.682 85.78 826.908 85.78C827.082 85.78 827.288 85.76 827.528 85.72V88C827.035 88.08 826.575 88.12 826.148 88.12C825.375 88.12 824.782 87.92 824.368 87.52C823.968 87.1067 823.768 86.38 823.768 85.34V74H826.248V85.18ZM831.58 85.18C831.58 85.3933 831.634 85.5467 831.74 85.64C831.847 85.7333 832.014 85.78 832.24 85.78C832.414 85.78 832.62 85.76 832.86 85.72V88C832.367 88.08 831.907 88.12 831.48 88.12C830.707 88.12 830.114 87.92 829.7 87.52C829.3 87.1067 829.1 86.38 829.1 85.34V74H831.58V85.18ZM845.842 77.74C846.855 77.74 847.742 77.9733 848.502 78.44C849.262 78.8933 849.842 79.52 850.242 80.32C850.655 81.12 850.862 82.02 850.862 83.02C850.862 84.02 850.655 84.92 850.242 85.72C849.842 86.52 849.262 87.1467 848.502 87.6C847.742 88.0533 846.855 88.28 845.842 88.28C845.188 88.28 844.562 88.1533 843.962 87.9C843.362 87.6467 842.828 87.2933 842.362 86.84V88H839.882V74H842.362V79.18C842.828 78.7267 843.362 78.3733 843.962 78.12C844.575 77.8667 845.202 77.74 845.842 77.74ZM845.522 85.9C846.362 85.9 847.048 85.6333 847.582 85.1C848.128 84.5533 848.402 83.86 848.402 83.02C848.402 82.18 848.128 81.4933 847.582 80.96C847.048 80.4133 846.362 80.14 845.522 80.14C844.695 80.14 843.995 80.4067 843.422 80.94C842.862 81.4733 842.582 82.16 842.582 83C842.582 83.56 842.708 84.06 842.962 84.5C843.228 84.94 843.582 85.2867 844.022 85.54C844.475 85.78 844.975 85.9 845.522 85.9ZM857.316 77.74C858.276 77.74 859.136 77.98 859.896 78.46C860.669 78.9267 861.269 79.56 861.696 80.36C862.123 81.16 862.336 82.0467 862.336 83.02C862.336 83.34 862.309 83.6333 862.256 83.9H854.536C854.736 84.6067 855.089 85.16 855.596 85.56C856.103 85.9467 856.749 86.14 857.536 86.14C858.016 86.14 858.476 86.0333 858.916 85.82C859.369 85.6067 859.709 85.3333 859.936 85L861.836 86.12C861.369 86.8133 860.763 87.3467 860.016 87.72C859.283 88.08 858.436 88.26 857.476 88.26C856.409 88.26 855.463 88.0333 854.636 87.58C853.809 87.1267 853.169 86.5 852.716 85.7C852.276 84.9 852.056 84 852.056 83C852.056 82.0133 852.276 81.12 852.716 80.32C853.169 79.52 853.796 78.8933 854.596 78.44C855.396 77.9733 856.303 77.74 857.316 77.74ZM860.016 81.96C859.909 81.32 859.609 80.82 859.116 80.46C858.636 80.0867 858.029 79.9 857.296 79.9C856.789 79.9 856.323 79.9933 855.896 80.18C855.483 80.3667 855.149 80.62 854.896 80.94C854.643 81.26 854.509 81.6 854.496 81.96H860.016ZM876.092 78H878.692L875.192 88.02C874.672 89.3933 873.952 90.42 873.032 91.1C872.126 91.7933 871.052 92.0933 869.812 92V89.6C869.892 89.6133 870.012 89.62 870.172 89.62C871.239 89.62 872.072 88.9733 872.672 87.68L868.272 78H870.932L873.872 84.36L876.092 78ZM884.796 88.28C883.85 88.28 882.97 88.0467 882.156 87.58C881.356 87.1 880.716 86.46 880.236 85.66C879.77 84.8467 879.536 83.9667 879.536 83.02C879.536 82.0733 879.77 81.2 880.236 80.4C880.716 79.5867 881.356 78.9467 882.156 78.48C882.97 78 883.85 77.76 884.796 77.76C885.743 77.76 886.616 78 887.416 78.48C888.23 78.9467 888.87 79.5867 889.336 80.4C889.816 81.2 890.056 82.0733 890.056 83.02C890.056 83.9667 889.816 84.8467 889.336 85.66C888.87 86.46 888.23 87.1 887.416 87.58C886.616 88.0467 885.743 88.28 884.796 88.28ZM884.776 85.8C885.283 85.8 885.75 85.68 886.176 85.44C886.603 85.1867 886.943 84.8467 887.196 84.42C887.45 83.9933 887.576 83.5267 887.576 83.02C887.576 82.5133 887.45 82.0467 887.196 81.62C886.943 81.1933 886.603 80.8533 886.176 80.6C885.75 80.3467 885.283 80.22 884.776 80.22C884.27 80.22 883.803 80.3467 883.376 80.6C882.95 80.8533 882.61 81.1933 882.356 81.62C882.116 82.0467 881.996 82.5133 881.996 83.02C881.996 83.5267 882.116 83.9933 882.356 84.42C882.61 84.8467 882.95 85.1867 883.376 85.44C883.803 85.68 884.27 85.8 884.776 85.8ZM897.939 78H900.419V88H897.939V87.16C897.579 87.4933 897.179 87.76 896.739 87.96C896.299 88.16 895.833 88.26 895.339 88.26C894.753 88.26 894.153 88.14 893.539 87.9C892.939 87.6467 892.419 87.2 891.979 86.56C891.553 85.92 891.339 85.06 891.339 83.98V78H893.819V83.98C893.819 84.7267 894.026 85.2667 894.439 85.6C894.866 85.92 895.359 86.08 895.919 86.08C896.479 86.08 896.953 85.8867 897.339 85.5C897.739 85.1 897.939 84.4667 897.939 83.6V78ZM908.927 77.8L908.747 80.14C908.667 80.1133 908.527 80.1 908.327 80.1C907.5 80.1 906.814 80.34 906.267 80.82C905.734 81.3 905.467 81.9533 905.467 82.78V88H902.987V78H905.467V79.68C905.694 79.1467 906.08 78.7 906.627 78.34C907.174 77.98 907.834 77.8 908.607 77.8H908.927ZM370.924 100.74C371.938 100.74 372.824 100.967 373.584 101.42C374.358 101.873 374.944 102.5 375.344 103.3C375.758 104.1 375.964 105 375.964 106C375.964 107 375.758 107.9 375.344 108.7C374.944 109.5 374.358 110.133 373.584 110.6C372.824 111.053 371.938 111.28 370.924 111.28C370.324 111.28 369.744 111.173 369.184 110.96C368.638 110.733 368.131 110.42 367.664 110.02V115H365.184V101H367.664V101.98C368.118 101.58 368.624 101.273 369.184 101.06C369.744 100.847 370.324 100.74 370.924 100.74ZM370.624 108.88C371.451 108.88 372.131 108.613 372.664 108.08C373.211 107.533 373.484 106.84 373.484 106C373.484 105.16 373.211 104.473 372.664 103.94C372.131 103.393 371.451 103.12 370.624 103.12C370.078 103.12 369.578 103.247 369.124 103.5C368.671 103.74 368.311 104.08 368.044 104.52C367.791 104.96 367.664 105.46 367.664 106.02C367.664 106.86 367.944 107.547 368.504 108.08C369.078 108.613 369.784 108.88 370.624 108.88ZM383.585 100.8L383.405 103.14C383.325 103.113 383.185 103.1 382.985 103.1C382.159 103.1 381.472 103.34 380.925 103.82C380.392 104.3 380.125 104.953 380.125 105.78V111H377.645V101H380.125V102.68C380.352 102.147 380.739 101.7 381.285 101.34C381.832 100.98 382.492 100.8 383.265 100.8H383.585ZM386.64 99.34C386.173 99.34 385.807 99.2133 385.54 98.96C385.273 98.7067 385.14 98.36 385.14 97.92C385.14 97.4667 385.273 97.1133 385.54 96.86C385.807 96.6067 386.173 96.48 386.64 96.48C387.107 96.48 387.473 96.6067 387.74 96.86C388.007 97.1133 388.14 97.4667 388.14 97.92C388.14 98.3467 388 98.6933 387.72 98.96C387.453 99.2133 387.093 99.34 386.64 99.34ZM385.38 111V101H387.86V111H385.38ZM401.881 100.74C402.467 100.74 403.061 100.867 403.661 101.12C404.261 101.36 404.774 101.8 405.201 102.44C405.641 103.08 405.861 103.94 405.861 105.02V111H403.401V105.02C403.401 104.273 403.187 103.74 402.761 103.42C402.347 103.087 401.861 102.92 401.301 102.92C400.821 102.92 400.401 103.067 400.041 103.36C399.681 103.64 399.447 104.093 399.341 104.72V105.02V111H396.881V105.02C396.881 104.273 396.667 103.74 396.241 103.42C395.827 103.087 395.334 102.92 394.761 102.92C394.307 102.92 393.894 103.06 393.521 103.34C393.161 103.62 392.927 104.067 392.821 104.68V111H390.341V101H392.821V101.78C393.154 101.46 393.534 101.207 393.961 101.02C394.401 100.833 394.867 100.74 395.361 100.74C395.974 100.74 396.594 100.873 397.221 101.14C397.847 101.407 398.347 101.853 398.721 102.48C399.067 101.987 399.521 101.573 400.081 101.24C400.641 100.907 401.241 100.74 401.881 100.74ZM415.524 101H418.004V111H415.524V110.02C415.058 110.42 414.544 110.733 413.984 110.96C413.438 111.173 412.858 111.28 412.244 111.28C411.231 111.28 410.344 111.053 409.584 110.6C408.824 110.147 408.238 109.52 407.824 108.72C407.424 107.92 407.224 107.02 407.224 106.02C407.224 105.02 407.424 104.12 407.824 103.32C408.238 102.52 408.824 101.893 409.584 101.44C410.344 100.973 411.231 100.74 412.244 100.74C412.858 100.74 413.438 100.853 413.984 101.08C414.544 101.293 415.058 101.6 415.524 102V101ZM412.564 108.9C413.111 108.9 413.604 108.78 414.044 108.54C414.498 108.287 414.851 107.94 415.104 107.5C415.371 107.06 415.504 106.56 415.504 106C415.504 105.16 415.218 104.473 414.644 103.94C414.084 103.407 413.391 103.14 412.564 103.14C411.724 103.14 411.031 103.413 410.484 103.96C409.951 104.493 409.684 105.18 409.684 106.02C409.684 106.86 409.951 107.553 410.484 108.1C411.031 108.633 411.724 108.9 412.564 108.9ZM426.495 100.8L426.315 103.14C426.235 103.113 426.095 103.1 425.895 103.1C425.069 103.1 424.382 103.34 423.835 103.82C423.302 104.3 423.035 104.953 423.035 105.78V111H420.555V101H423.035V102.68C423.262 102.147 423.649 101.7 424.195 101.34C424.742 100.98 425.402 100.8 426.175 100.8H426.495ZM435.204 101H437.804L434.304 111.02C433.784 112.393 433.064 113.42 432.144 114.1C431.237 114.793 430.164 115.093 428.924 115V112.6C429.004 112.613 429.124 112.62 429.284 112.62C430.35 112.62 431.184 111.973 431.784 110.68L427.384 101H430.044L432.984 107.36L435.204 101ZM452.164 97H454.644V111H452.164V110.04C451.711 110.44 451.204 110.747 450.644 110.96C450.084 111.173 449.504 111.28 448.904 111.28C447.891 111.28 447.004 111.053 446.244 110.6C445.484 110.147 444.898 109.52 444.484 108.72C444.084 107.92 443.884 107.02 443.884 106.02C443.884 105.02 444.084 104.12 444.484 103.32C444.898 102.52 445.484 101.893 446.244 101.44C447.004 100.973 447.891 100.74 448.904 100.74C449.504 100.74 450.078 100.853 450.624 101.08C451.184 101.293 451.698 101.593 452.164 101.98V97ZM449.224 108.9C449.771 108.9 450.264 108.78 450.704 108.54C451.158 108.287 451.511 107.94 451.764 107.5C452.031 107.06 452.164 106.56 452.164 106C452.164 105.16 451.878 104.473 451.304 103.94C450.744 103.407 450.051 103.14 449.224 103.14C448.384 103.14 447.691 103.413 447.144 103.96C446.611 104.493 446.344 105.18 446.344 106.02C446.344 106.86 446.611 107.553 447.144 108.1C447.691 108.633 448.384 108.9 449.224 108.9ZM458.476 99.34C458.009 99.34 457.643 99.2133 457.376 98.96C457.109 98.7067 456.976 98.36 456.976 97.92C456.976 97.4667 457.109 97.1133 457.376 96.86C457.643 96.6067 458.009 96.48 458.476 96.48C458.943 96.48 459.309 96.6067 459.576 96.86C459.843 97.1133 459.976 97.4667 459.976 97.92C459.976 98.3467 459.836 98.6933 459.556 98.96C459.289 99.2133 458.929 99.34 458.476 99.34ZM457.216 111V101H459.696V111H457.216ZM464.063 103.8C464.063 104.08 464.216 104.293 464.523 104.44C464.843 104.573 465.343 104.713 466.023 104.86C466.796 105.02 467.443 105.2 467.963 105.4C468.483 105.6 468.93 105.92 469.303 106.36C469.69 106.787 469.883 107.367 469.883 108.1C469.883 108.753 469.683 109.32 469.283 109.8C468.896 110.28 468.376 110.647 467.723 110.9C467.07 111.14 466.356 111.26 465.583 111.26C464.53 111.26 463.623 111.06 462.863 110.66C462.116 110.26 461.563 109.687 461.203 108.94L463.243 107.88C463.603 108.8 464.383 109.26 465.583 109.26C466.103 109.26 466.55 109.16 466.923 108.96C467.296 108.76 467.483 108.473 467.483 108.1C467.483 107.78 467.31 107.547 466.963 107.4C466.63 107.24 466.083 107.067 465.323 106.88C464.536 106.693 463.896 106.507 463.403 106.32C462.91 106.133 462.483 105.847 462.123 105.46C461.763 105.06 461.583 104.533 461.583 103.88C461.583 103.24 461.763 102.687 462.123 102.22C462.483 101.74 462.97 101.373 463.583 101.12C464.196 100.867 464.87 100.74 465.603 100.74C466.47 100.74 467.243 100.92 467.923 101.28C468.616 101.64 469.15 102.153 469.523 102.82L467.503 103.84C467.156 103.093 466.523 102.72 465.603 102.72C465.136 102.72 464.763 102.82 464.483 103.02C464.203 103.207 464.063 103.467 464.063 103.8ZM477.018 100.74C478.031 100.74 478.918 100.967 479.678 101.42C480.451 101.873 481.038 102.5 481.438 103.3C481.851 104.1 482.058 105 482.058 106C482.058 107 481.851 107.9 481.438 108.7C481.038 109.5 480.451 110.133 479.678 110.6C478.918 111.053 478.031 111.28 477.018 111.28C476.418 111.28 475.838 111.173 475.278 110.96C474.731 110.733 474.225 110.42 473.758 110.02V115H471.278V101H473.758V101.98C474.211 101.58 474.718 101.273 475.278 101.06C475.838 100.847 476.418 100.74 477.018 100.74ZM476.718 108.88C477.545 108.88 478.225 108.613 478.758 108.08C479.305 107.533 479.578 106.84 479.578 106C479.578 105.16 479.305 104.473 478.758 103.94C478.225 103.393 477.545 103.12 476.718 103.12C476.171 103.12 475.671 103.247 475.218 103.5C474.765 103.74 474.405 104.08 474.138 104.52C473.885 104.96 473.758 105.46 473.758 106.02C473.758 106.86 474.038 107.547 474.598 108.08C475.171 108.613 475.878 108.88 476.718 108.88ZM486.219 108.18C486.219 108.393 486.272 108.547 486.379 108.64C486.486 108.733 486.652 108.78 486.879 108.78C487.052 108.78 487.259 108.76 487.499 108.72V111C487.006 111.08 486.546 111.12 486.119 111.12C485.346 111.12 484.752 110.92 484.339 110.52C483.939 110.107 483.739 109.38 483.739 108.34V97H486.219V108.18ZM496.833 101H499.313V111H496.833V110.02C496.366 110.42 495.853 110.733 495.293 110.96C494.746 111.173 494.166 111.28 493.553 111.28C492.54 111.28 491.653 111.053 490.893 110.6C490.133 110.147 489.546 109.52 489.133 108.72C488.733 107.92 488.533 107.02 488.533 106.02C488.533 105.02 488.733 104.12 489.133 103.32C489.546 102.52 490.133 101.893 490.893 101.44C491.653 100.973 492.54 100.74 493.553 100.74C494.166 100.74 494.746 100.853 495.293 101.08C495.853 101.293 496.366 101.6 496.833 102V101ZM493.873 108.9C494.42 108.9 494.913 108.78 495.353 108.54C495.806 108.287 496.16 107.94 496.413 107.5C496.68 107.06 496.813 106.56 496.813 106C496.813 105.16 496.526 104.473 495.953 103.94C495.393 103.407 494.7 103.14 493.873 103.14C493.033 103.14 492.34 103.413 491.793 103.96C491.26 104.493 490.993 105.18 490.993 106.02C490.993 106.86 491.26 107.553 491.793 108.1C492.34 108.633 493.033 108.9 493.873 108.9ZM508.133 101H510.733L507.233 111.02C506.713 112.393 505.993 113.42 505.073 114.1C504.167 114.793 503.093 115.093 501.853 115V112.6C501.933 112.613 502.053 112.62 502.213 112.62C503.28 112.62 504.113 111.973 504.713 110.68L500.313 101H502.973L505.913 107.36L508.133 101ZM518.554 99.34C518.087 99.34 517.721 99.2133 517.454 98.96C517.187 98.7067 517.054 98.36 517.054 97.92C517.054 97.4667 517.187 97.1133 517.454 96.86C517.721 96.6067 518.087 96.48 518.554 96.48C519.021 96.48 519.387 96.6067 519.654 96.86C519.921 97.1133 520.054 97.4667 520.054 97.92C520.054 98.3467 519.914 98.6933 519.634 98.96C519.367 99.2133 519.007 99.34 518.554 99.34ZM517.294 111V101H519.774V111H517.294ZM533.795 100.74C534.381 100.74 534.975 100.867 535.575 101.12C536.175 101.36 536.688 101.8 537.115 102.44C537.555 103.08 537.775 103.94 537.775 105.02V111H535.315V105.02C535.315 104.273 535.101 103.74 534.675 103.42C534.261 103.087 533.775 102.92 533.215 102.92C532.735 102.92 532.315 103.067 531.955 103.36C531.595 103.64 531.361 104.093 531.255 104.72V105.02V111H528.795V105.02C528.795 104.273 528.581 103.74 528.155 103.42C527.741 103.087 527.248 102.92 526.675 102.92C526.221 102.92 525.808 103.06 525.435 103.34C525.075 103.62 524.841 104.067 524.735 104.68V111H522.255V101H524.735V101.78C525.068 101.46 525.448 101.207 525.875 101.02C526.315 100.833 526.781 100.74 527.275 100.74C527.888 100.74 528.508 100.873 529.135 101.14C529.761 101.407 530.261 101.853 530.635 102.48C530.981 101.987 531.435 101.573 531.995 101.24C532.555 100.907 533.155 100.74 533.795 100.74ZM547.438 101H549.918V111H547.438V110.02C546.972 110.42 546.458 110.733 545.898 110.96C545.352 111.173 544.772 111.28 544.158 111.28C543.145 111.28 542.258 111.053 541.498 110.6C540.738 110.147 540.152 109.52 539.738 108.72C539.338 107.92 539.138 107.02 539.138 106.02C539.138 105.02 539.338 104.12 539.738 103.32C540.152 102.52 540.738 101.893 541.498 101.44C542.258 100.973 543.145 100.74 544.158 100.74C544.772 100.74 545.352 100.853 545.898 101.08C546.458 101.293 546.972 101.6 547.438 102V101ZM544.478 108.9C545.025 108.9 545.518 108.78 545.958 108.54C546.412 108.287 546.765 107.94 547.018 107.5C547.285 107.06 547.418 106.56 547.418 106C547.418 105.16 547.132 104.473 546.558 103.94C545.998 103.407 545.305 103.14 544.478 103.14C543.638 103.14 542.945 103.413 542.398 103.96C541.865 104.493 541.598 105.18 541.598 106.02C541.598 106.86 541.865 107.553 542.398 108.1C542.945 108.633 543.638 108.9 544.478 108.9ZM559.939 101H562.419V110.5C562.419 111.447 562.179 112.28 561.699 113C561.232 113.72 560.579 114.273 559.739 114.66C558.899 115.06 557.959 115.26 556.919 115.26C555.759 115.26 554.705 115.033 553.759 114.58C552.812 114.14 552.145 113.56 551.759 112.84L553.879 111.62C554.079 112.007 554.452 112.327 554.999 112.58C555.545 112.847 556.205 112.98 556.979 112.98C557.832 112.98 558.539 112.747 559.099 112.28C559.659 111.827 559.939 111.233 559.939 110.5V110.04C559.485 110.44 558.979 110.747 558.419 110.96C557.859 111.173 557.279 111.28 556.679 111.28C555.665 111.28 554.779 111.053 554.019 110.6C553.259 110.147 552.672 109.52 552.259 108.72C551.859 107.92 551.659 107.02 551.659 106.02C551.659 105.02 551.859 104.12 552.259 103.32C552.672 102.52 553.259 101.893 554.019 101.44C554.779 100.973 555.665 100.74 556.679 100.74C557.279 100.74 557.852 100.853 558.399 101.08C558.959 101.293 559.472 101.593 559.939 101.98V101ZM556.999 108.9C557.545 108.9 558.039 108.78 558.479 108.54C558.932 108.287 559.285 107.94 559.539 107.5C559.805 107.06 559.939 106.56 559.939 106C559.939 105.16 559.652 104.473 559.079 103.94C558.519 103.407 557.825 103.14 556.999 103.14C556.159 103.14 555.465 103.413 554.919 103.96C554.385 104.493 554.119 105.18 554.119 106.02C554.119 106.86 554.385 107.553 554.919 108.1C555.465 108.633 556.159 108.9 556.999 108.9ZM569.279 100.74C570.239 100.74 571.099 100.98 571.859 101.46C572.632 101.927 573.232 102.56 573.659 103.36C574.085 104.16 574.299 105.047 574.299 106.02C574.299 106.34 574.272 106.633 574.219 106.9H566.499C566.699 107.607 567.052 108.16 567.559 108.56C568.065 108.947 568.712 109.14 569.499 109.14C569.979 109.14 570.439 109.033 570.879 108.82C571.332 108.607 571.672 108.333 571.899 108L573.799 109.12C573.332 109.813 572.725 110.347 571.979 110.72C571.245 111.08 570.399 111.26 569.439 111.26C568.372 111.26 567.425 111.033 566.599 110.58C565.772 110.127 565.132 109.5 564.679 108.7C564.239 107.9 564.019 107 564.019 106C564.019 105.013 564.239 104.12 564.679 103.32C565.132 102.52 565.759 101.893 566.559 101.44C567.359 100.973 568.265 100.74 569.279 100.74ZM571.979 104.96C571.872 104.32 571.572 103.82 571.079 103.46C570.599 103.087 569.992 102.9 569.259 102.9C568.752 102.9 568.285 102.993 567.859 103.18C567.445 103.367 567.112 103.62 566.859 103.94C566.605 104.26 566.472 104.6 566.459 104.96H571.979ZM576.199 109.88C576.199 109.453 576.312 109.127 576.539 108.9C576.779 108.66 577.112 108.54 577.539 108.54C577.965 108.54 578.292 108.66 578.519 108.9C578.745 109.127 578.859 109.453 578.859 109.88C578.859 110.307 578.745 110.64 578.519 110.88C578.292 111.12 577.965 111.24 577.539 111.24C577.112 111.24 576.779 111.12 576.539 110.88C576.312 110.64 576.199 110.307 576.199 109.88Z" fill="#E6E8EB"/>
</svg>
