<svg width="429" height="207" viewBox="0 0 429 207" fill="none" xmlns="http://www.w3.org/2000/svg">
<path d="M75.8592 153.994H77.9419V165.751H75.8592V164.945C75.4785 165.281 75.053 165.538 74.5827 165.718C74.1124 165.897 73.6253 165.986 73.1215 165.986C72.2705 165.986 71.5258 165.796 70.8876 165.415C70.2494 165.034 69.7567 164.508 69.4096 163.836C69.0737 163.165 68.9057 162.409 68.9057 161.569C68.9057 160.729 69.0737 159.973 69.4096 159.302C69.7567 158.63 70.2494 158.103 70.8876 157.723C71.5258 157.331 72.2705 157.135 73.1215 157.135C73.6253 157.135 74.1068 157.23 74.5659 157.42C75.0362 157.6 75.4673 157.851 75.8592 158.176V153.994ZM73.3902 163.988C73.8493 163.988 74.2636 163.887 74.6331 163.685C75.0138 163.472 75.3105 163.181 75.5233 162.812C75.7472 162.442 75.8592 162.022 75.8592 161.552C75.8592 160.847 75.6184 160.27 75.137 159.822C74.6667 159.374 74.0844 159.15 73.3902 159.15C72.6848 159.15 72.1025 159.38 71.6434 159.839C71.1955 160.287 70.9716 160.864 70.9716 161.569C70.9716 162.274 71.1955 162.857 71.6434 163.316C72.1025 163.764 72.6848 163.988 73.3902 163.988ZM85.073 157.185L84.9218 159.15C84.8546 159.128 84.7371 159.117 84.5691 159.117C83.8749 159.117 83.2982 159.318 82.8392 159.721C82.3913 160.124 82.1673 160.673 82.1673 161.367V165.751H80.0846V157.353H82.1673V158.764C82.3577 158.316 82.6824 157.941 83.1415 157.639C83.6006 157.336 84.1548 157.185 84.8043 157.185H85.073ZM89.8872 165.986C89.0922 165.986 88.3532 165.79 87.6702 165.398C86.9983 164.995 86.4609 164.458 86.0578 163.786C85.6659 163.103 85.4699 162.364 85.4699 161.569C85.4699 160.774 85.6659 160.041 86.0578 159.369C86.4609 158.686 86.9983 158.148 87.6702 157.756C88.3532 157.353 89.0922 157.152 89.8872 157.152C90.6822 157.152 91.4157 157.353 92.0875 157.756C92.7705 158.148 93.308 158.686 93.6999 159.369C94.103 160.041 94.3045 160.774 94.3045 161.569C94.3045 162.364 94.103 163.103 93.6999 163.786C93.308 164.458 92.7705 164.995 92.0875 165.398C91.4157 165.79 90.6822 165.986 89.8872 165.986ZM89.8704 163.904C90.2959 163.904 90.6878 163.803 91.0461 163.601C91.4045 163.388 91.69 163.103 91.9027 162.745C92.1155 162.386 92.2219 161.994 92.2219 161.569C92.2219 161.143 92.1155 160.752 91.9027 160.393C91.69 160.035 91.4045 159.749 91.0461 159.537C90.6878 159.324 90.2959 159.218 89.8704 159.218C89.4449 159.218 89.053 159.324 88.6947 159.537C88.3364 159.749 88.0509 160.035 87.8381 160.393C87.6366 160.752 87.5358 161.143 87.5358 161.569C87.5358 161.994 87.6366 162.386 87.8381 162.745C88.0509 163.103 88.3364 163.388 88.6947 163.601C89.053 163.803 89.4449 163.904 89.8704 163.904ZM100.454 157.135C101.305 157.135 102.05 157.325 102.688 157.706C103.338 158.087 103.83 158.613 104.166 159.285C104.513 159.957 104.687 160.712 104.687 161.552C104.687 162.392 104.513 163.148 104.166 163.82C103.83 164.491 103.338 165.023 102.688 165.415C102.05 165.796 101.305 165.986 100.454 165.986C99.9504 165.986 99.4633 165.897 98.9931 165.718C98.534 165.527 98.1085 165.264 97.7166 164.928V169.11H95.6339V157.353H97.7166V158.176C98.0973 157.84 98.5228 157.583 98.9931 157.404C99.4633 157.224 99.9504 157.135 100.454 157.135ZM100.202 163.971C100.897 163.971 101.468 163.747 101.916 163.299C102.375 162.84 102.604 162.258 102.604 161.552C102.604 160.847 102.375 160.27 101.916 159.822C101.468 159.363 100.897 159.134 100.202 159.134C99.7433 159.134 99.3234 159.24 98.9427 159.453C98.562 159.654 98.2596 159.94 98.0357 160.309C97.823 160.679 97.7166 161.099 97.7166 161.569C97.7166 162.274 97.9517 162.851 98.422 163.299C98.9035 163.747 99.4969 163.971 100.202 163.971ZM115.426 155.758C115.146 155.724 114.894 155.707 114.671 155.707C114.279 155.707 113.993 155.78 113.814 155.926C113.635 156.071 113.545 156.34 113.545 156.732V157.353H115.41V159.218H113.545V165.751H111.463V159.218H110.068V157.353H111.463V156.597C111.463 155.534 111.681 154.8 112.118 154.397C112.554 153.983 113.215 153.776 114.099 153.776C114.447 153.776 114.889 153.804 115.426 153.86V155.758ZM117.677 155.959C117.285 155.959 116.977 155.853 116.753 155.64C116.529 155.427 116.417 155.136 116.417 154.767C116.417 154.386 116.529 154.089 116.753 153.876C116.977 153.664 117.285 153.557 117.677 153.557C118.069 153.557 118.377 153.664 118.601 153.876C118.825 154.089 118.937 154.386 118.937 154.767C118.937 155.125 118.819 155.416 118.584 155.64C118.36 155.853 118.058 155.959 117.677 155.959ZM116.619 165.751V157.353H118.702V165.751H116.619ZM122.861 163.383C122.861 163.562 122.906 163.691 122.995 163.769C123.085 163.848 123.225 163.887 123.415 163.887C123.561 163.887 123.734 163.87 123.936 163.836V165.751C123.522 165.818 123.135 165.852 122.777 165.852C122.128 165.852 121.629 165.684 121.282 165.348C120.946 165.001 120.778 164.391 120.778 163.517V153.994H122.861V163.383ZM129.056 157.135C129.862 157.135 130.584 157.336 131.222 157.739C131.872 158.131 132.376 158.663 132.734 159.335C133.092 160.007 133.271 160.752 133.271 161.569C133.271 161.838 133.249 162.084 133.204 162.308H126.721C126.889 162.901 127.186 163.366 127.611 163.702C128.037 164.027 128.58 164.189 129.24 164.189C129.643 164.189 130.03 164.1 130.399 163.92C130.78 163.741 131.066 163.512 131.256 163.232L132.851 164.172C132.46 164.755 131.95 165.202 131.323 165.516C130.707 165.818 129.996 165.969 129.19 165.969C128.294 165.969 127.499 165.779 126.805 165.398C126.111 165.018 125.573 164.491 125.193 163.82C124.823 163.148 124.638 162.392 124.638 161.552C124.638 160.724 124.823 159.973 125.193 159.302C125.573 158.63 126.1 158.103 126.771 157.723C127.443 157.331 128.205 157.135 129.056 157.135ZM131.323 160.679C131.233 160.141 130.982 159.721 130.567 159.419C130.164 159.106 129.655 158.949 129.039 158.949C128.613 158.949 128.221 159.027 127.863 159.184C127.516 159.341 127.236 159.553 127.023 159.822C126.811 160.091 126.699 160.376 126.687 160.679H131.323ZM136.403 159.705C136.403 159.94 136.532 160.119 136.789 160.242C137.058 160.354 137.478 160.472 138.049 160.595C138.698 160.729 139.241 160.88 139.678 161.048C140.115 161.216 140.49 161.485 140.804 161.854C141.128 162.213 141.291 162.7 141.291 163.316C141.291 163.864 141.123 164.34 140.787 164.743C140.462 165.146 140.025 165.454 139.477 165.667C138.928 165.869 138.329 165.969 137.679 165.969C136.795 165.969 136.033 165.801 135.395 165.466C134.768 165.13 134.304 164.648 134.001 164.021L135.714 163.131C136.017 163.904 136.672 164.29 137.679 164.29C138.116 164.29 138.491 164.206 138.805 164.038C139.118 163.87 139.275 163.629 139.275 163.316C139.275 163.047 139.13 162.851 138.838 162.728C138.558 162.593 138.099 162.448 137.461 162.291C136.801 162.134 136.263 161.978 135.849 161.821C135.434 161.664 135.076 161.423 134.774 161.099C134.471 160.763 134.32 160.32 134.32 159.772C134.32 159.234 134.471 158.77 134.774 158.378C135.076 157.975 135.485 157.667 136 157.454C136.515 157.241 137.08 157.135 137.696 157.135C138.424 157.135 139.074 157.286 139.645 157.588C140.227 157.891 140.675 158.322 140.988 158.882L139.292 159.738C139.001 159.111 138.469 158.798 137.696 158.798C137.304 158.798 136.991 158.882 136.756 159.05C136.521 159.206 136.403 159.425 136.403 159.705ZM154.777 165.751H152.711V160.78C152.711 160.152 152.532 159.705 152.174 159.436C151.826 159.156 151.412 159.016 150.931 159.016C150.55 159.016 150.203 159.134 149.889 159.369C149.587 159.604 149.391 159.979 149.301 160.494V165.751H147.219V153.994H149.301V158.059C149.581 157.79 149.9 157.577 150.259 157.42C150.628 157.264 151.02 157.185 151.434 157.185C151.927 157.185 152.425 157.292 152.929 157.504C153.433 157.706 153.864 158.07 154.223 158.596C154.592 159.122 154.777 159.833 154.777 160.729V165.751ZM160.302 157.135C161.108 157.135 161.83 157.336 162.468 157.739C163.118 158.131 163.622 158.663 163.98 159.335C164.338 160.007 164.518 160.752 164.518 161.569C164.518 161.838 164.495 162.084 164.45 162.308H157.967C158.135 162.901 158.432 163.366 158.857 163.702C159.283 164.027 159.826 164.189 160.487 164.189C160.89 164.189 161.276 164.1 161.645 163.92C162.026 163.741 162.312 163.512 162.502 163.232L164.098 164.172C163.706 164.755 163.196 165.202 162.569 165.516C161.953 165.818 161.242 165.969 160.436 165.969C159.54 165.969 158.745 165.779 158.051 165.398C157.357 165.018 156.819 164.491 156.439 163.82C156.069 163.148 155.884 162.392 155.884 161.552C155.884 160.724 156.069 159.973 156.439 159.302C156.819 158.63 157.346 158.103 158.018 157.723C158.689 157.331 159.451 157.135 160.302 157.135ZM162.569 160.679C162.48 160.141 162.228 159.721 161.813 159.419C161.41 159.106 160.901 158.949 160.285 158.949C159.859 158.949 159.468 159.027 159.109 159.184C158.762 159.341 158.482 159.553 158.269 159.822C158.057 160.091 157.945 160.376 157.934 160.679H162.569ZM170.824 157.185L170.672 159.15C170.605 159.128 170.488 159.117 170.32 159.117C169.625 159.117 169.049 159.318 168.59 159.721C168.142 160.124 167.918 160.673 167.918 161.367V165.751H165.835V157.353H167.918V158.764C168.108 158.316 168.433 157.941 168.892 157.639C169.351 157.336 169.905 157.185 170.555 157.185H170.824ZM175.687 157.135C176.493 157.135 177.215 157.336 177.854 157.739C178.503 158.131 179.007 158.663 179.365 159.335C179.724 160.007 179.903 160.752 179.903 161.569C179.903 161.838 179.88 162.084 179.836 162.308H173.352C173.52 162.901 173.817 163.366 174.243 163.702C174.668 164.027 175.211 164.189 175.872 164.189C176.275 164.189 176.661 164.1 177.031 163.92C177.411 163.741 177.697 163.512 177.887 163.232L179.483 164.172C179.091 164.755 178.581 165.202 177.954 165.516C177.339 165.818 176.628 165.969 175.821 165.969C174.926 165.969 174.131 165.779 173.436 165.398C172.742 165.018 172.205 164.491 171.824 163.82C171.454 163.148 171.27 162.392 171.27 161.552C171.27 160.724 171.454 159.973 171.824 159.302C172.205 158.63 172.731 158.103 173.403 157.723C174.075 157.331 174.836 157.135 175.687 157.135ZM177.954 160.679C177.865 160.141 177.613 159.721 177.199 159.419C176.796 159.106 176.286 158.949 175.67 158.949C175.245 158.949 174.853 159.027 174.494 159.184C174.147 159.341 173.867 159.553 173.655 159.822C173.442 160.091 173.33 160.376 173.319 160.679H177.954ZM189.809 165.986C189.014 165.986 188.275 165.79 187.592 165.398C186.92 164.995 186.383 164.458 185.98 163.786C185.588 163.103 185.392 162.364 185.392 161.569C185.392 160.774 185.588 160.041 185.98 159.369C186.383 158.686 186.92 158.148 187.592 157.756C188.275 157.353 189.014 157.152 189.809 157.152C190.604 157.152 191.338 157.353 192.01 157.756C192.693 158.148 193.23 158.686 193.622 159.369C194.025 160.041 194.227 160.774 194.227 161.569C194.227 162.364 194.025 163.103 193.622 163.786C193.23 164.458 192.693 164.995 192.01 165.398C191.338 165.79 190.604 165.986 189.809 165.986ZM189.792 163.904C190.218 163.904 190.61 163.803 190.968 163.601C191.326 163.388 191.612 163.103 191.825 162.745C192.038 162.386 192.144 161.994 192.144 161.569C192.144 161.143 192.038 160.752 191.825 160.393C191.612 160.035 191.326 159.749 190.968 159.537C190.61 159.324 190.218 159.218 189.792 159.218C189.367 159.218 188.975 159.324 188.617 159.537C188.258 159.749 187.973 160.035 187.76 160.393C187.559 160.752 187.458 161.143 187.458 161.569C187.458 161.994 187.559 162.386 187.76 162.745C187.973 163.103 188.258 163.388 188.617 163.601C188.975 163.803 189.367 163.904 189.792 163.904ZM200.544 157.185L200.393 159.15C200.326 159.128 200.208 159.117 200.04 159.117C199.346 159.117 198.77 159.318 198.31 159.721C197.863 160.124 197.639 160.673 197.639 161.367V165.751H195.556V157.353H197.639V158.764C197.829 158.316 198.154 157.941 198.613 157.639C199.072 157.336 199.626 157.185 200.276 157.185H200.544ZM213.791 164.122C213.377 164.693 212.857 165.146 212.229 165.482C211.602 165.818 210.925 165.986 210.197 165.986C209.402 165.986 208.663 165.79 207.98 165.398C207.308 164.995 206.771 164.458 206.368 163.786C205.976 163.103 205.78 162.364 205.78 161.569C205.78 160.774 205.976 160.041 206.368 159.369C206.771 158.686 207.308 158.148 207.98 157.756C208.663 157.353 209.402 157.152 210.197 157.152C210.914 157.152 211.586 157.32 212.213 157.656C212.84 157.98 213.36 158.423 213.775 158.982L212.062 160.141C211.535 159.525 210.914 159.218 210.197 159.218C209.772 159.218 209.38 159.324 209.021 159.537C208.663 159.749 208.378 160.035 208.165 160.393C207.952 160.752 207.846 161.143 207.846 161.569C207.846 161.994 207.952 162.386 208.165 162.745C208.378 163.103 208.663 163.388 209.021 163.601C209.38 163.803 209.772 163.904 210.197 163.904C210.914 163.904 211.535 163.596 212.062 162.98L213.791 164.122ZM217.042 163.383C217.042 163.562 217.087 163.691 217.177 163.769C217.266 163.848 217.406 163.887 217.597 163.887C217.742 163.887 217.916 163.87 218.117 163.836V165.751C217.703 165.818 217.317 165.852 216.958 165.852C216.309 165.852 215.811 165.684 215.464 165.348C215.128 165.001 214.96 164.391 214.96 163.517V153.994H217.042V163.383ZM220.775 155.959C220.383 155.959 220.075 155.853 219.851 155.64C219.627 155.427 219.515 155.136 219.515 154.767C219.515 154.386 219.627 154.089 219.851 153.876C220.075 153.664 220.383 153.557 220.775 153.557C221.167 153.557 221.475 153.664 221.699 153.876C221.923 154.089 222.035 154.386 222.035 154.767C222.035 155.125 221.917 155.416 221.682 155.64C221.458 155.853 221.156 155.959 220.775 155.959ZM219.717 165.751V157.353H221.799V165.751H219.717ZM231.096 164.122C230.681 164.693 230.161 165.146 229.534 165.482C228.907 165.818 228.229 165.986 227.501 165.986C226.706 165.986 225.967 165.79 225.284 165.398C224.613 164.995 224.075 164.458 223.672 163.786C223.28 163.103 223.084 162.364 223.084 161.569C223.084 160.774 223.28 160.041 223.672 159.369C224.075 158.686 224.613 158.148 225.284 157.756C225.967 157.353 226.706 157.152 227.501 157.152C228.218 157.152 228.89 157.32 229.517 157.656C230.144 157.98 230.665 158.423 231.079 158.982L229.366 160.141C228.84 159.525 228.218 159.218 227.501 159.218C227.076 159.218 226.684 159.324 226.326 159.537C225.967 159.749 225.682 160.035 225.469 160.393C225.256 160.752 225.15 161.143 225.15 161.569C225.15 161.994 225.256 162.386 225.469 162.745C225.682 163.103 225.967 163.388 226.326 163.601C226.684 163.803 227.076 163.904 227.501 163.904C228.218 163.904 228.84 163.596 229.366 162.98L231.096 164.122ZM240.593 165.751H237.99L235.638 162.61L234.412 163.954V165.751H232.33V153.994H234.412V160.897L237.57 157.353H240.476L237.049 161.082L240.593 165.751ZM253.715 165.751H251.649V160.78C251.649 160.152 251.47 159.705 251.111 159.436C250.764 159.156 250.35 159.016 249.869 159.016C249.488 159.016 249.141 159.134 248.827 159.369C248.525 159.604 248.329 159.979 248.239 160.494V165.751H246.157V153.994H248.239V158.059C248.519 157.79 248.838 157.577 249.197 157.42C249.566 157.264 249.958 157.185 250.372 157.185C250.865 157.185 251.363 157.292 251.867 157.504C252.371 157.706 252.802 158.07 253.161 158.596C253.53 159.122 253.715 159.833 253.715 160.729V165.751ZM259.24 157.135C260.046 157.135 260.768 157.336 261.406 157.739C262.056 158.131 262.56 158.663 262.918 159.335C263.276 160.007 263.455 160.752 263.455 161.569C263.455 161.838 263.433 162.084 263.388 162.308H256.905C257.073 162.901 257.37 163.366 257.795 163.702C258.221 164.027 258.764 164.189 259.424 164.189C259.828 164.189 260.214 164.1 260.583 163.92C260.964 163.741 261.25 163.512 261.44 163.232L263.036 164.172C262.644 164.755 262.134 165.202 261.507 165.516C260.891 165.818 260.18 165.969 259.374 165.969C258.478 165.969 257.683 165.779 256.989 165.398C256.295 165.018 255.757 164.491 255.377 163.82C255.007 163.148 254.822 162.392 254.822 161.552C254.822 160.724 255.007 159.973 255.377 159.302C255.757 158.63 256.284 158.103 256.955 157.723C257.627 157.331 258.389 157.135 259.24 157.135ZM261.507 160.679C261.418 160.141 261.166 159.721 260.751 159.419C260.348 159.106 259.839 158.949 259.223 158.949C258.797 158.949 258.405 159.027 258.047 159.184C257.7 159.341 257.42 159.553 257.207 159.822C256.995 160.091 256.883 160.376 256.871 160.679H261.507ZM269.761 157.185L269.61 159.15C269.543 159.128 269.426 159.117 269.258 159.117C268.563 159.117 267.987 159.318 267.528 159.721C267.08 160.124 266.856 160.673 266.856 161.367V165.751H264.773V157.353H266.856V158.764C267.046 158.316 267.371 157.941 267.83 157.639C268.289 157.336 268.843 157.185 269.493 157.185H269.761ZM274.625 157.135C275.431 157.135 276.153 157.336 276.792 157.739C277.441 158.131 277.945 158.663 278.303 159.335C278.662 160.007 278.841 160.752 278.841 161.569C278.841 161.838 278.818 162.084 278.773 162.308H272.29C272.458 162.901 272.755 163.366 273.18 163.702C273.606 164.027 274.149 164.189 274.81 164.189C275.213 164.189 275.599 164.1 275.969 163.92C276.349 163.741 276.635 163.512 276.825 163.232L278.421 164.172C278.029 164.755 277.519 165.202 276.892 165.516C276.277 165.818 275.565 165.969 274.759 165.969C273.864 165.969 273.069 165.779 272.374 165.398C271.68 165.018 271.143 164.491 270.762 163.82C270.392 163.148 270.208 162.392 270.208 161.552C270.208 160.724 270.392 159.973 270.762 159.302C271.143 158.63 271.669 158.103 272.341 157.723C273.013 157.331 273.774 157.135 274.625 157.135ZM276.892 160.679C276.803 160.141 276.551 159.721 276.137 159.419C275.733 159.106 275.224 158.949 274.608 158.949C274.183 158.949 273.791 159.027 273.432 159.184C273.085 159.341 272.805 159.553 272.593 159.822C272.38 160.091 272.268 160.376 272.257 160.679H276.892ZM287.706 162.879C287.706 163.26 287.795 163.523 287.975 163.668C288.154 163.814 288.439 163.887 288.831 163.887C289.066 163.887 289.324 163.87 289.604 163.836V165.751C289.078 165.807 288.641 165.835 288.294 165.835C287.398 165.835 286.726 165.634 286.278 165.23C285.842 164.816 285.623 164.077 285.623 163.013V159.218H284.044V157.353H285.623V155.287L287.706 154.582V157.353H289.57V159.218H287.706V162.879ZM294.947 165.986C294.152 165.986 293.413 165.79 292.73 165.398C292.058 164.995 291.521 164.458 291.118 163.786C290.726 163.103 290.53 162.364 290.53 161.569C290.53 160.774 290.726 160.041 291.118 159.369C291.521 158.686 292.058 158.148 292.73 157.756C293.413 157.353 294.152 157.152 294.947 157.152C295.742 157.152 296.476 157.353 297.147 157.756C297.83 158.148 298.368 158.686 298.76 159.369C299.163 160.041 299.365 160.774 299.365 161.569C299.365 162.364 299.163 163.103 298.76 163.786C298.368 164.458 297.83 164.995 297.147 165.398C296.476 165.79 295.742 165.986 294.947 165.986ZM294.93 163.904C295.356 163.904 295.748 163.803 296.106 163.601C296.464 163.388 296.75 163.103 296.963 162.745C297.175 162.386 297.282 161.994 297.282 161.569C297.282 161.143 297.175 160.752 296.963 160.393C296.75 160.035 296.464 159.749 296.106 159.537C295.748 159.324 295.356 159.218 294.93 159.218C294.505 159.218 294.113 159.324 293.755 159.537C293.396 159.749 293.111 160.035 292.898 160.393C292.697 160.752 292.596 161.143 292.596 161.569C292.596 161.994 292.697 162.386 292.898 162.745C293.111 163.103 293.396 163.388 293.755 163.601C294.113 163.803 294.505 163.904 294.93 163.904ZM310.626 157.353H312.709V165.751H310.626V165.046C310.324 165.326 309.988 165.55 309.619 165.718C309.249 165.885 308.857 165.969 308.443 165.969C307.95 165.969 307.446 165.869 306.931 165.667C306.427 165.454 305.991 165.079 305.621 164.542C305.263 164.004 305.084 163.282 305.084 162.375V157.353H307.166V162.375C307.166 163.002 307.34 163.456 307.687 163.736C308.045 164.004 308.46 164.139 308.93 164.139C309.4 164.139 309.798 163.976 310.123 163.652C310.458 163.316 310.626 162.784 310.626 162.056V157.353ZM319.686 157.135C320.537 157.135 321.281 157.325 321.92 157.706C322.569 158.087 323.062 158.613 323.398 159.285C323.745 159.957 323.918 160.712 323.918 161.552C323.918 162.392 323.745 163.148 323.398 163.82C323.062 164.491 322.569 165.023 321.92 165.415C321.281 165.796 320.537 165.986 319.686 165.986C319.182 165.986 318.695 165.897 318.225 165.718C317.765 165.527 317.34 165.264 316.948 164.928V169.11H314.865V157.353H316.948V158.176C317.329 157.84 317.754 157.583 318.225 157.404C318.695 157.224 319.182 157.135 319.686 157.135ZM319.434 163.971C320.128 163.971 320.699 163.747 321.147 163.299C321.606 162.84 321.836 162.258 321.836 161.552C321.836 160.847 321.606 160.27 321.147 159.822C320.699 159.363 320.128 159.134 319.434 159.134C318.975 159.134 318.555 159.24 318.174 159.453C317.793 159.654 317.491 159.94 317.267 160.309C317.054 160.679 316.948 161.099 316.948 161.569C316.948 162.274 317.183 162.851 317.653 163.299C318.135 163.747 318.728 163.971 319.434 163.971ZM327.413 163.383C327.413 163.562 327.457 163.691 327.547 163.769C327.637 163.848 327.777 163.887 327.967 163.887C328.112 163.887 328.286 163.87 328.488 163.836V165.751C328.073 165.818 327.687 165.852 327.329 165.852C326.679 165.852 326.181 165.684 325.834 165.348C325.498 165.001 325.33 164.391 325.33 163.517V153.994H327.413V163.383ZM336.326 157.353H338.409V165.751H336.326V164.928C335.934 165.264 335.503 165.527 335.033 165.718C334.574 165.897 334.087 165.986 333.572 165.986C332.721 165.986 331.976 165.796 331.338 165.415C330.7 165.034 330.207 164.508 329.86 163.836C329.524 163.165 329.356 162.409 329.356 161.569C329.356 160.729 329.524 159.973 329.86 159.302C330.207 158.63 330.7 158.103 331.338 157.723C331.976 157.331 332.721 157.135 333.572 157.135C334.087 157.135 334.574 157.23 335.033 157.42C335.503 157.6 335.934 157.857 336.326 158.193V157.353ZM333.84 163.988C334.299 163.988 334.714 163.887 335.083 163.685C335.464 163.472 335.761 163.181 335.973 162.812C336.197 162.442 336.309 162.022 336.309 161.552C336.309 160.847 336.069 160.27 335.587 159.822C335.117 159.374 334.535 159.15 333.84 159.15C333.135 159.15 332.553 159.38 332.094 159.839C331.646 160.287 331.422 160.864 331.422 161.569C331.422 162.274 331.646 162.857 332.094 163.316C332.553 163.764 333.135 163.988 333.84 163.988ZM344.17 165.986C343.375 165.986 342.636 165.79 341.953 165.398C341.281 164.995 340.744 164.458 340.341 163.786C339.949 163.103 339.753 162.364 339.753 161.569C339.753 160.774 339.949 160.041 340.341 159.369C340.744 158.686 341.281 158.148 341.953 157.756C342.636 157.353 343.375 157.152 344.17 157.152C344.965 157.152 345.699 157.353 346.37 157.756C347.053 158.148 347.591 158.686 347.983 159.369C348.386 160.041 348.587 160.774 348.587 161.569C348.587 162.364 348.386 163.103 347.983 163.786C347.591 164.458 347.053 164.995 346.37 165.398C345.699 165.79 344.965 165.986 344.17 165.986ZM344.153 163.904C344.579 163.904 344.971 163.803 345.329 163.601C345.687 163.388 345.973 163.103 346.186 162.745C346.398 162.386 346.505 161.994 346.505 161.569C346.505 161.143 346.398 160.752 346.186 160.393C345.973 160.035 345.687 159.749 345.329 159.537C344.971 159.324 344.579 159.218 344.153 159.218C343.728 159.218 343.336 159.324 342.978 159.537C342.619 159.749 342.334 160.035 342.121 160.393C341.92 160.752 341.819 161.143 341.819 161.569C341.819 161.994 341.92 162.386 342.121 162.745C342.334 163.103 342.619 163.388 342.978 163.601C343.336 163.803 343.728 163.904 344.153 163.904ZM356.484 153.994H358.567V165.751H356.484V164.945C356.103 165.281 355.678 165.538 355.207 165.718C354.737 165.897 354.25 165.986 353.746 165.986C352.895 165.986 352.151 165.796 351.512 165.415C350.874 165.034 350.381 164.508 350.034 163.836C349.698 163.165 349.53 162.409 349.53 161.569C349.53 160.729 349.698 159.973 350.034 159.302C350.381 158.63 350.874 158.103 351.512 157.723C352.151 157.331 352.895 157.135 353.746 157.135C354.25 157.135 354.732 157.23 355.191 157.42C355.661 157.6 356.092 157.851 356.484 158.176V153.994ZM354.015 163.988C354.474 163.988 354.888 163.887 355.258 163.685C355.639 163.472 355.935 163.181 356.148 162.812C356.372 162.442 356.484 162.022 356.484 161.552C356.484 160.847 356.243 160.27 355.762 159.822C355.291 159.374 354.709 159.15 354.015 159.15C353.31 159.15 352.727 159.38 352.268 159.839C351.82 160.287 351.596 160.864 351.596 161.569C351.596 162.274 351.82 162.857 352.268 163.316C352.727 163.764 353.31 163.988 354.015 163.988Z" fill="#E6E8EB"/>
<path d="M3.93632 196.655C3.93632 196.891 4.06509 197.07 4.32263 197.193C4.59136 197.305 5.01125 197.422 5.58231 197.546C6.23175 197.68 6.77482 197.831 7.21151 197.999C7.6482 198.167 8.02331 198.436 8.33683 198.805C8.66155 199.164 8.82391 199.651 8.82391 200.267C8.82391 200.815 8.65595 201.291 8.32003 201.694C7.99531 202.097 7.55862 202.405 7.00996 202.618C6.46129 202.819 5.86224 202.92 5.2128 202.92C4.32822 202.92 3.56681 202.752 2.92857 202.416C2.30153 202.08 1.83684 201.599 1.53452 200.972L3.24769 200.082C3.55002 200.854 4.20505 201.241 5.2128 201.241C5.6495 201.241 6.0246 201.157 6.33813 200.989C6.65165 200.821 6.80841 200.58 6.80841 200.267C6.80841 199.998 6.66284 199.802 6.37172 199.679C6.09179 199.544 5.6327 199.399 4.99446 199.242C4.33382 199.085 3.79636 198.928 3.38206 198.772C2.96776 198.615 2.60945 198.374 2.30713 198.049C2.0048 197.714 1.85364 197.271 1.85364 196.723C1.85364 196.185 2.0048 195.72 2.30713 195.329C2.60945 194.925 3.01815 194.618 3.53322 194.405C4.04829 194.192 4.61375 194.086 5.2296 194.086C5.95742 194.086 6.60686 194.237 7.17792 194.539C7.76017 194.841 8.20806 195.273 8.52158 195.832L6.8252 196.689C6.53408 196.062 6.00221 195.748 5.2296 195.748C4.8377 195.748 4.52418 195.832 4.28903 196C4.05389 196.157 3.93632 196.375 3.93632 196.655ZM15.4993 194.304H17.582V202.702H15.4993V201.996C15.197 202.276 14.8611 202.5 14.4916 202.668C14.1221 202.836 13.7302 202.92 13.3159 202.92C12.8232 202.92 12.3193 202.819 11.8042 202.618C11.3004 202.405 10.8637 202.03 10.4942 201.493C10.1359 200.955 9.95671 200.233 9.95671 199.326V194.304H12.0394V199.326C12.0394 199.953 12.2129 200.406 12.5601 200.686C12.9184 200.955 13.3327 201.09 13.803 201.09C14.2732 201.09 14.6707 200.927 14.9955 200.602C15.3314 200.267 15.4993 199.735 15.4993 199.007V194.304ZM24.5587 194.086C25.4097 194.086 26.1543 194.276 26.7926 194.657C27.442 195.037 27.9347 195.564 28.2706 196.236C28.6177 196.907 28.7913 197.663 28.7913 198.503C28.7913 199.343 28.6177 200.099 28.2706 200.77C27.9347 201.442 27.442 201.974 26.7926 202.366C26.1543 202.747 25.4097 202.937 24.5587 202.937C24.0548 202.937 23.5678 202.847 23.0975 202.668C22.6384 202.478 22.2129 202.215 21.821 201.879V206.061H19.7383V194.304H21.821V195.127C22.2017 194.791 22.6272 194.534 23.0975 194.354C23.5678 194.175 24.0548 194.086 24.5587 194.086ZM24.3068 200.922C25.001 200.922 25.5721 200.698 26.0199 200.25C26.479 199.791 26.7086 199.208 26.7086 198.503C26.7086 197.798 26.479 197.221 26.0199 196.773C25.5721 196.314 25.001 196.084 24.3068 196.084C23.8477 196.084 23.4278 196.191 23.0471 196.403C22.6664 196.605 22.3641 196.891 22.1401 197.26C21.9274 197.63 21.821 198.049 21.821 198.52C21.821 199.225 22.0561 199.802 22.5264 200.25C23.0079 200.698 23.6013 200.922 24.3068 200.922ZM35.0233 194.086C35.8743 194.086 36.6189 194.276 37.2571 194.657C37.9066 195.037 38.3993 195.564 38.7352 196.236C39.0823 196.907 39.2558 197.663 39.2558 198.503C39.2558 199.343 39.0823 200.099 38.7352 200.77C38.3993 201.442 37.9066 201.974 37.2571 202.366C36.6189 202.747 35.8743 202.937 35.0233 202.937C34.5194 202.937 34.0323 202.847 33.5621 202.668C33.103 202.478 32.6775 202.215 32.2856 201.879V206.061H30.2029V194.304H32.2856V195.127C32.6663 194.791 33.0918 194.534 33.5621 194.354C34.0323 194.175 34.5194 194.086 35.0233 194.086ZM34.7714 200.922C35.4656 200.922 36.0366 200.698 36.4845 200.25C36.9436 199.791 37.1732 199.208 37.1732 198.503C37.1732 197.798 36.9436 197.221 36.4845 196.773C36.0366 196.314 35.4656 196.084 34.7714 196.084C34.3123 196.084 33.8924 196.191 33.5117 196.403C33.131 196.605 32.8286 196.891 32.6047 197.26C32.3919 197.63 32.2856 198.049 32.2856 198.52C32.2856 199.225 32.5207 199.802 32.991 200.25C33.4725 200.698 34.0659 200.922 34.7714 200.922ZM44.6145 202.937C43.8195 202.937 43.0805 202.741 42.3975 202.349C41.7256 201.946 41.1882 201.409 40.7851 200.737C40.3931 200.054 40.1972 199.315 40.1972 198.52C40.1972 197.725 40.3931 196.991 40.7851 196.319C41.1882 195.636 41.7256 195.099 42.3975 194.707C43.0805 194.304 43.8195 194.102 44.6145 194.102C45.4095 194.102 46.1429 194.304 46.8148 194.707C47.4978 195.099 48.0353 195.636 48.4272 196.319C48.8303 196.991 49.0318 197.725 49.0318 198.52C49.0318 199.315 48.8303 200.054 48.4272 200.737C48.0353 201.409 47.4978 201.946 46.8148 202.349C46.1429 202.741 45.4095 202.937 44.6145 202.937ZM44.5977 200.854C45.0232 200.854 45.4151 200.754 45.7734 200.552C46.1317 200.339 46.4173 200.054 46.63 199.695C46.8427 199.337 46.9491 198.945 46.9491 198.52C46.9491 198.094 46.8427 197.702 46.63 197.344C46.4173 196.986 46.1317 196.7 45.7734 196.487C45.4151 196.275 45.0232 196.168 44.5977 196.168C44.1722 196.168 43.7803 196.275 43.422 196.487C43.0637 196.7 42.7782 196.986 42.5654 197.344C42.3639 197.702 42.2631 198.094 42.2631 198.52C42.2631 198.945 42.3639 199.337 42.5654 199.695C42.7782 200.054 43.0637 200.339 43.422 200.552C43.7803 200.754 44.1722 200.854 44.5977 200.854ZM55.3495 194.136L55.1984 196.101C55.1312 196.079 55.0136 196.068 54.8457 196.068C54.1514 196.068 53.5748 196.269 53.1157 196.672C52.6678 197.075 52.4438 197.624 52.4438 198.318V202.702H50.3612V194.304H52.4438V195.715C52.6342 195.267 52.9589 194.892 53.418 194.59C53.8771 194.287 54.4314 194.136 55.0808 194.136H55.3495ZM60.0901 199.83C60.0901 200.211 60.1797 200.474 60.3589 200.619C60.538 200.765 60.8236 200.838 61.2155 200.838C61.4506 200.838 61.7081 200.821 61.9881 200.787V202.702C61.4618 202.758 61.0251 202.786 60.678 202.786C59.7822 202.786 59.1104 202.584 58.6625 202.181C58.2258 201.767 58.0075 201.028 58.0075 199.964V196.168H56.4287V194.304H58.0075V192.238L60.0901 191.533V194.304H61.9545V196.168H60.0901V199.83ZM65.1984 196.655C65.1984 196.891 65.3272 197.07 65.5847 197.193C65.8535 197.305 66.2734 197.422 66.8444 197.546C67.4939 197.68 68.0369 197.831 68.4736 197.999C68.9103 198.167 69.2854 198.436 69.5989 198.805C69.9237 199.164 70.086 199.651 70.086 200.267C70.086 200.815 69.9181 201.291 69.5822 201.694C69.2574 202.097 68.8207 202.405 68.2721 202.618C67.7234 202.819 67.1244 202.92 66.4749 202.92C65.5903 202.92 64.8289 202.752 64.1907 202.416C63.5636 202.08 63.099 201.599 62.7966 200.972L64.5098 200.082C64.8121 200.854 65.4672 201.241 66.4749 201.241C66.9116 201.241 67.2867 201.157 67.6002 200.989C67.9138 200.821 68.0705 200.58 68.0705 200.267C68.0705 199.998 67.925 199.802 67.6338 199.679C67.3539 199.544 66.8948 199.399 66.2566 199.242C65.5959 199.085 65.0585 198.928 64.6442 198.772C64.2299 198.615 63.8716 198.374 63.5692 198.049C63.2669 197.714 63.1158 197.271 63.1158 196.723C63.1158 196.185 63.2669 195.72 63.5692 195.329C63.8716 194.925 64.2803 194.618 64.7953 194.405C65.3104 194.192 65.8759 194.086 66.4917 194.086C67.2195 194.086 67.869 194.237 68.44 194.539C69.0223 194.841 69.4702 195.273 69.7837 195.832L68.0873 196.689C67.7962 196.062 67.2643 195.748 66.4917 195.748C66.0998 195.748 65.7863 195.832 65.5512 196C65.316 196.157 65.1984 196.375 65.1984 196.655ZM71.5828 195.681C71.5828 195.301 71.6836 195.009 71.8851 194.808C72.0979 194.595 72.3946 194.489 72.7753 194.489C73.156 194.489 73.4472 194.595 73.6487 194.808C73.8503 195.009 73.951 195.301 73.951 195.681C73.951 196.073 73.8503 196.375 73.6487 196.588C73.4472 196.79 73.156 196.891 72.7753 196.891C72.3946 196.891 72.0979 196.79 71.8851 196.588C71.6836 196.375 71.5828 196.073 71.5828 195.681ZM71.5828 201.677C71.5828 201.297 71.6836 201 71.8851 200.787C72.0979 200.574 72.3946 200.468 72.7753 200.468C73.156 200.468 73.4472 200.574 73.6487 200.787C73.8503 200.989 73.951 201.285 73.951 201.677C73.951 202.069 73.8503 202.372 73.6487 202.584C73.4472 202.786 73.156 202.887 72.7753 202.887C72.3946 202.887 72.0979 202.786 71.8851 202.584C71.6836 202.372 71.5828 202.069 71.5828 201.677ZM85.5694 190.945H87.7529V198.99C87.7529 199.74 87.5793 200.418 87.2322 201.022C86.8851 201.616 86.398 202.08 85.771 202.416C85.1439 202.752 84.4217 202.92 83.6043 202.92C82.7309 202.92 81.9695 202.735 81.3201 202.366C80.6818 201.996 80.178 201.459 79.8084 200.754L81.6056 199.729C81.8631 200.166 82.1487 200.479 82.4622 200.67C82.7757 200.86 83.1844 200.955 83.6883 200.955C84.2929 200.955 84.7576 200.793 85.0823 200.468C85.4071 200.132 85.5694 199.639 85.5694 198.99V190.945ZM94.3237 190.945C95.0179 190.945 95.6618 191.118 96.2552 191.465C96.8487 191.801 97.3134 192.266 97.6493 192.86C97.9964 193.453 98.17 194.097 98.17 194.791C98.17 195.485 97.9964 196.129 97.6493 196.723C97.3134 197.305 96.8487 197.77 96.2552 198.117C95.6618 198.464 95.0179 198.637 94.3237 198.637H92.241V202.702H90.0408V190.945H94.3237ZM94.3237 196.538C94.8052 196.538 95.2139 196.37 95.5498 196.034C95.8969 195.687 96.0705 195.273 96.0705 194.791C96.0705 194.31 95.8969 193.895 95.5498 193.548C95.2139 193.201 94.8052 193.028 94.3237 193.028H92.241V196.538H94.3237ZM104.938 196.487H111.27V197.462C111.27 198.447 111.002 199.36 110.464 200.199C109.938 201.028 109.221 201.689 108.314 202.181C107.407 202.674 106.422 202.92 105.358 202.92C104.261 202.92 103.248 202.652 102.318 202.114C101.389 201.565 100.65 200.826 100.101 199.897C99.5638 198.968 99.295 197.954 99.295 196.857C99.295 195.76 99.5638 194.746 100.101 193.817C100.65 192.888 101.389 192.154 102.318 191.617C103.248 191.068 104.261 190.794 105.358 190.794C106.366 190.794 107.301 191.029 108.163 191.499C109.037 191.969 109.748 192.602 110.296 193.397L108.566 194.741C108.219 194.214 107.76 193.795 107.189 193.481C106.618 193.156 106.008 192.994 105.358 192.994C104.664 192.994 104.015 193.167 103.41 193.515C102.817 193.862 102.346 194.332 101.999 194.925C101.652 195.519 101.478 196.163 101.478 196.857C101.478 197.551 101.652 198.195 101.999 198.788C102.346 199.382 102.817 199.852 103.41 200.199C104.015 200.546 104.664 200.72 105.358 200.72C106.165 200.72 106.87 200.524 107.475 200.132C108.09 199.74 108.533 199.22 108.801 198.57H104.938V196.487ZM113.657 202.853C113.321 202.763 113.097 202.646 112.985 202.5C112.885 202.344 112.834 202.069 112.834 201.677C112.834 201.297 112.935 201 113.137 200.787C113.349 200.574 113.646 200.468 114.027 200.468C114.408 200.468 114.704 200.58 114.917 200.804C115.13 201.017 115.236 201.319 115.236 201.711C115.225 202.148 115.169 202.5 115.068 202.769C114.979 203.038 114.794 203.368 114.514 203.76L113.674 204.902L113.002 204.348L113.657 202.853ZM125.931 190.945C126.625 190.945 127.269 191.118 127.862 191.465C128.456 191.801 128.92 192.266 129.256 192.86C129.603 193.453 129.777 194.097 129.777 194.791C129.777 195.485 129.603 196.129 129.256 196.723C128.92 197.305 128.456 197.77 127.862 198.117C127.269 198.464 126.625 198.637 125.931 198.637H123.848V202.702H121.648V190.945H125.931ZM125.931 196.538C126.412 196.538 126.821 196.37 127.157 196.034C127.504 195.687 127.677 195.273 127.677 194.791C127.677 194.31 127.504 193.895 127.157 193.548C126.821 193.201 126.412 193.028 125.931 193.028H123.848V196.538H125.931ZM138.443 198.335V190.945H140.644V202.702H138.762L133.657 194.741V202.702H131.456V190.945H133.657L138.443 198.335ZM147.797 196.487H154.129V197.462C154.129 198.447 153.861 199.36 153.323 200.199C152.797 201.028 152.08 201.689 151.173 202.181C150.266 202.674 149.281 202.92 148.217 202.92C147.12 202.92 146.107 202.652 145.177 202.114C144.248 201.565 143.509 200.826 142.96 199.897C142.423 198.968 142.154 197.954 142.154 196.857C142.154 195.76 142.423 194.746 142.96 193.817C143.509 192.888 144.248 192.154 145.177 191.617C146.107 191.068 147.12 190.794 148.217 190.794C149.225 190.794 150.16 191.029 151.022 191.499C151.895 191.969 152.606 192.602 153.155 193.397L151.425 194.741C151.078 194.214 150.619 193.795 150.048 193.481C149.477 193.156 148.867 192.994 148.217 192.994C147.523 192.994 146.874 193.167 146.269 193.515C145.675 193.862 145.205 194.332 144.858 194.925C144.511 195.519 144.337 196.163 144.337 196.857C144.337 197.551 144.511 198.195 144.858 198.788C145.205 199.382 145.675 199.852 146.269 200.199C146.874 200.546 147.523 200.72 148.217 200.72C149.023 200.72 149.729 200.524 150.333 200.132C150.949 199.74 151.392 199.22 151.66 198.57H147.797V196.487ZM156.516 202.853C156.18 202.763 155.956 202.646 155.844 202.5C155.744 202.344 155.693 202.069 155.693 201.677C155.693 201.297 155.794 201 155.995 200.787C156.208 200.574 156.505 200.468 156.886 200.468C157.266 200.468 157.563 200.58 157.776 200.804C157.989 201.017 158.095 201.319 158.095 201.711C158.084 202.148 158.028 202.5 157.927 202.769C157.837 203.038 157.653 203.368 157.373 203.76L156.533 204.902L155.861 204.348L156.516 202.853ZM175.222 199.242L177.423 190.945H179.69L176.448 202.702H174.08L171.662 194.673L169.243 202.702H166.875L163.633 190.945H165.901L168.101 199.242L170.52 190.945H172.804L175.222 199.242ZM183.787 194.086C184.593 194.086 185.315 194.287 185.954 194.69C186.603 195.082 187.107 195.614 187.465 196.286C187.824 196.958 188.003 197.702 188.003 198.52C188.003 198.788 187.98 199.035 187.936 199.259H181.452C181.62 199.852 181.917 200.317 182.343 200.653C182.768 200.978 183.311 201.14 183.972 201.14C184.375 201.14 184.761 201.05 185.131 200.871C185.511 200.692 185.797 200.462 185.987 200.183L187.583 201.123C187.191 201.705 186.681 202.153 186.054 202.467C185.439 202.769 184.728 202.92 183.921 202.92C183.026 202.92 182.231 202.73 181.536 202.349C180.842 201.968 180.305 201.442 179.924 200.77C179.554 200.099 179.37 199.343 179.37 198.503C179.37 197.674 179.554 196.924 179.924 196.252C180.305 195.58 180.831 195.054 181.503 194.673C182.175 194.282 182.936 194.086 183.787 194.086ZM186.054 197.63C185.965 197.092 185.713 196.672 185.299 196.37C184.895 196.056 184.386 195.9 183.77 195.9C183.345 195.9 182.953 195.978 182.594 196.135C182.247 196.291 181.967 196.504 181.755 196.773C181.542 197.042 181.43 197.327 181.419 197.63H186.054ZM194.326 194.086C195.177 194.086 195.921 194.282 196.559 194.673C197.198 195.054 197.685 195.58 198.021 196.252C198.368 196.924 198.541 197.68 198.541 198.52C198.541 199.36 198.368 200.115 198.021 200.787C197.685 201.459 197.198 201.985 196.559 202.366C195.921 202.747 195.177 202.937 194.326 202.937C193.777 202.937 193.251 202.831 192.747 202.618C192.243 202.405 191.795 202.108 191.403 201.728V202.702H189.32V190.945H191.403V195.295C191.795 194.914 192.243 194.618 192.747 194.405C193.262 194.192 193.788 194.086 194.326 194.086ZM194.057 200.938C194.762 200.938 195.339 200.714 195.787 200.267C196.246 199.807 196.475 199.225 196.475 198.52C196.475 197.814 196.246 197.238 195.787 196.79C195.339 196.331 194.762 196.101 194.057 196.101C193.363 196.101 192.775 196.325 192.293 196.773C191.823 197.221 191.588 197.798 191.588 198.503C191.588 198.973 191.694 199.393 191.907 199.763C192.131 200.132 192.428 200.423 192.797 200.636C193.178 200.838 193.598 200.938 194.057 200.938ZM204.858 190.945C205.552 190.945 206.196 191.118 206.789 191.465C207.383 191.801 207.848 192.266 208.184 192.86C208.531 193.453 208.704 194.097 208.704 194.791C208.704 195.485 208.531 196.129 208.184 196.723C207.848 197.305 207.383 197.77 206.789 198.117C206.196 198.464 205.552 198.637 204.858 198.637H202.775V202.702H200.575V190.945H204.858ZM204.858 196.538C205.339 196.538 205.748 196.37 206.084 196.034C206.431 195.687 206.605 195.273 206.605 194.791C206.605 194.31 206.431 193.895 206.084 193.548C205.748 193.201 205.339 193.028 204.858 193.028H202.775V196.538H204.858ZM208.987 202.853C208.651 202.763 208.427 202.646 208.315 202.5C208.214 202.344 208.164 202.069 208.164 201.677C208.164 201.297 208.264 201 208.466 200.787C208.679 200.574 208.976 200.468 209.356 200.468C209.737 200.468 210.034 200.58 210.246 200.804C210.459 201.017 210.566 201.319 210.566 201.711C210.554 202.148 210.498 202.5 210.398 202.769C210.308 203.038 210.123 203.368 209.843 203.76L209.004 204.902L208.332 204.348L208.987 202.853ZM222.066 196.487H228.398V197.462C228.398 198.447 228.13 199.36 227.592 200.199C227.066 201.028 226.349 201.689 225.442 202.181C224.535 202.674 223.55 202.92 222.486 202.92C221.389 202.92 220.376 202.652 219.446 202.114C218.517 201.565 217.778 200.826 217.229 199.897C216.692 198.968 216.423 197.954 216.423 196.857C216.423 195.76 216.692 194.746 217.229 193.817C217.778 192.888 218.517 192.154 219.446 191.617C220.376 191.068 221.389 190.794 222.486 190.794C223.494 190.794 224.429 191.029 225.291 191.499C226.165 191.969 226.876 192.602 227.424 193.397L225.694 194.741C225.347 194.214 224.888 193.795 224.317 193.481C223.746 193.156 223.136 192.994 222.486 192.994C221.792 192.994 221.143 193.167 220.538 193.515C219.944 193.862 219.474 194.332 219.127 194.925C218.78 195.519 218.606 196.163 218.606 196.857C218.606 197.551 218.78 198.195 219.127 198.788C219.474 199.382 219.944 199.852 220.538 200.199C221.143 200.546 221.792 200.72 222.486 200.72C223.292 200.72 223.998 200.524 224.603 200.132C225.218 199.74 225.661 199.22 225.929 198.57H222.066V196.487ZM230.083 202.702V190.945H232.266V202.702H230.083ZM241.696 190.945V193.028H236.859V195.849H241.511V197.932H236.859V202.702H234.659V190.945H241.696ZM242.398 202.853C242.062 202.763 241.838 202.646 241.726 202.5C241.625 202.344 241.575 202.069 241.575 201.677C241.575 201.297 241.676 201 241.877 200.787C242.09 200.574 242.387 200.468 242.767 200.468C243.148 200.468 243.445 200.58 243.658 200.804C243.87 201.017 243.977 201.319 243.977 201.711C243.966 202.148 243.91 202.5 243.809 202.769C243.719 203.038 243.534 203.368 243.255 203.76L242.415 204.902L241.743 204.348L242.398 202.853ZM259.643 190.978V190.945H261.826V202.702H259.643V194.942L256.385 200.401H255.847L252.589 194.942V202.702H250.388V190.945H252.589V190.978L252.639 190.945L256.116 196.807L259.593 190.945L259.643 190.978ZM268.515 190.945C269.209 190.945 269.853 191.118 270.446 191.465C271.04 191.801 271.504 192.266 271.84 192.86C272.187 193.453 272.361 194.097 272.361 194.791C272.361 195.485 272.187 196.129 271.84 196.723C271.504 197.305 271.04 197.77 270.446 198.117C269.853 198.464 269.209 198.637 268.515 198.637H266.432V202.702H264.232V190.945H268.515ZM268.515 196.538C268.996 196.538 269.405 196.37 269.741 196.034C270.088 195.687 270.262 195.273 270.262 194.791C270.262 194.31 270.088 193.895 269.741 193.548C269.405 193.201 268.996 193.028 268.515 193.028H266.432V196.538H268.515ZM281.195 198.335H282.455V200.418H281.195V202.702H279.012V200.418H273.251V198.335L276.929 190.945H279.365L275.703 198.335H279.012V195.715H281.195V198.335ZM284.716 202.853C284.38 202.763 284.156 202.646 284.044 202.5C283.943 202.344 283.893 202.069 283.893 201.677C283.893 201.297 283.993 201 284.195 200.787C284.408 200.574 284.704 200.468 285.085 200.468C285.466 200.468 285.762 200.58 285.975 200.804C286.188 201.017 286.294 201.319 286.294 201.711C286.283 202.148 286.227 202.5 286.126 202.769C286.037 203.038 285.852 203.368 285.572 203.76L284.732 204.902L284.061 204.348L284.716 202.853ZM303.422 199.242L305.622 190.945H307.889L304.648 202.702H302.28L299.861 194.673L297.442 202.702H295.074L291.833 190.945H294.1L296.3 199.242L298.719 190.945H301.003L303.422 199.242ZM311.986 194.086C312.793 194.086 313.515 194.287 314.153 194.69C314.802 195.082 315.306 195.614 315.665 196.286C316.023 196.958 316.202 197.702 316.202 198.52C316.202 198.788 316.18 199.035 316.135 199.259H309.652C309.82 199.852 310.116 200.317 310.542 200.653C310.967 200.978 311.51 201.14 312.171 201.14C312.574 201.14 312.96 201.05 313.33 200.871C313.711 200.692 313.996 200.462 314.187 200.183L315.782 201.123C315.39 201.705 314.881 202.153 314.254 202.467C313.638 202.769 312.927 202.92 312.121 202.92C311.225 202.92 310.43 202.73 309.736 202.349C309.041 201.968 308.504 201.442 308.123 200.77C307.754 200.099 307.569 199.343 307.569 198.503C307.569 197.674 307.754 196.924 308.123 196.252C308.504 195.58 309.03 195.054 309.702 194.673C310.374 194.282 311.135 194.086 311.986 194.086ZM314.254 197.63C314.164 197.092 313.912 196.672 313.498 196.37C313.095 196.056 312.585 195.9 311.97 195.9C311.544 195.9 311.152 195.978 310.794 196.135C310.447 196.291 310.167 196.504 309.954 196.773C309.741 197.042 309.629 197.327 309.618 197.63H314.254ZM322.525 194.086C323.376 194.086 324.121 194.282 324.759 194.673C325.397 195.054 325.884 195.58 326.22 196.252C326.567 196.924 326.741 197.68 326.741 198.52C326.741 199.36 326.567 200.115 326.22 200.787C325.884 201.459 325.397 201.985 324.759 202.366C324.121 202.747 323.376 202.937 322.525 202.937C321.976 202.937 321.45 202.831 320.946 202.618C320.442 202.405 319.994 202.108 319.602 201.728V202.702H317.52V190.945H319.602V195.295C319.994 194.914 320.442 194.618 320.946 194.405C321.461 194.192 321.987 194.086 322.525 194.086ZM322.256 200.938C322.962 200.938 323.538 200.714 323.986 200.267C324.445 199.807 324.675 199.225 324.675 198.52C324.675 197.814 324.445 197.238 323.986 196.79C323.538 196.331 322.962 196.101 322.256 196.101C321.562 196.101 320.974 196.325 320.493 196.773C320.022 197.221 319.787 197.798 319.787 198.503C319.787 198.973 319.894 199.393 320.106 199.763C320.33 200.132 320.627 200.423 320.996 200.636C321.377 200.838 321.797 200.938 322.256 200.938ZM338.029 190.978V190.945H340.212V202.702H338.029V194.942L334.771 200.401H334.233L330.975 194.942V202.702H328.774V190.945H330.975V190.978L331.025 190.945L334.502 196.807L337.979 190.945L338.029 190.978ZM343.206 202.853C342.87 202.763 342.646 202.646 342.534 202.5C342.433 202.344 342.383 202.069 342.383 201.677C342.383 201.297 342.483 201 342.685 200.787C342.898 200.574 343.195 200.468 343.575 200.468C343.956 200.468 344.253 200.58 344.465 200.804C344.678 201.017 344.785 201.319 344.785 201.711C344.773 202.148 344.717 202.5 344.617 202.769C344.527 203.038 344.342 203.368 344.062 203.76L343.223 204.902L342.551 204.348L343.206 202.853ZM356.285 196.487H362.617V197.462C362.617 198.447 362.349 199.36 361.811 200.199C361.285 201.028 360.568 201.689 359.661 202.181C358.754 202.674 357.769 202.92 356.705 202.92C355.608 202.92 354.595 202.652 353.665 202.114C352.736 201.565 351.997 200.826 351.448 199.897C350.911 198.968 350.642 197.954 350.642 196.857C350.642 195.76 350.911 194.746 351.448 193.817C351.997 192.888 352.736 192.154 353.665 191.617C354.595 191.068 355.608 190.794 356.705 190.794C357.713 190.794 358.648 191.029 359.51 191.499C360.383 191.969 361.095 192.602 361.643 193.397L359.913 194.741C359.566 194.214 359.107 193.795 358.536 193.481C357.965 193.156 357.355 192.994 356.705 192.994C356.011 192.994 355.362 193.167 354.757 193.515C354.163 193.862 353.693 194.332 353.346 194.925C352.999 195.519 352.825 196.163 352.825 196.857C352.825 197.551 352.999 198.195 353.346 198.788C353.693 199.382 354.163 199.852 354.757 200.199C355.362 200.546 356.011 200.72 356.705 200.72C357.511 200.72 358.217 200.524 358.821 200.132C359.437 199.74 359.88 199.22 360.148 198.57H356.285V196.487ZM366.289 190.945V200.619H371.243V202.702H364.088V190.945H366.289ZM380.19 196.437C380.582 196.773 380.885 197.176 381.097 197.646C381.321 198.117 381.433 198.615 381.433 199.141C381.433 199.779 381.277 200.373 380.963 200.922C380.661 201.459 380.246 201.89 379.72 202.215C379.205 202.528 378.64 202.685 378.024 202.685H374.9V202.702H372.699V190.945H377.755C378.337 190.945 378.875 191.096 379.367 191.398C379.86 191.701 380.252 192.109 380.543 192.624C380.834 193.128 380.98 193.671 380.98 194.254C380.98 194.646 380.907 195.032 380.761 195.413C380.627 195.782 380.437 196.124 380.19 196.437ZM374.9 193.028V195.664L377.755 195.648C378.08 195.648 378.36 195.524 378.595 195.278C378.841 195.021 378.964 194.707 378.964 194.338C378.964 193.957 378.841 193.643 378.595 193.397C378.36 193.151 378.08 193.028 377.755 193.028H374.9ZM378.024 200.602C378.382 200.602 378.69 200.457 378.948 200.166C379.216 199.863 379.351 199.516 379.351 199.124C379.351 198.732 379.216 198.391 378.948 198.1C378.69 197.798 378.382 197.646 378.024 197.646H374.9V200.602H378.024ZM383.719 202.853C383.383 202.763 383.159 202.646 383.047 202.5C382.946 202.344 382.896 202.069 382.896 201.677C382.896 201.297 382.997 201 383.198 200.787C383.411 200.574 383.708 200.468 384.089 200.468C384.469 200.468 384.766 200.58 384.979 200.804C385.192 201.017 385.298 201.319 385.298 201.711C385.287 202.148 385.231 202.5 385.13 202.769C385.04 203.038 384.856 203.368 384.576 203.76L383.736 204.902L383.064 204.348L383.719 202.853ZM396.799 196.487H403.131V197.462C403.131 198.447 402.862 199.36 402.324 200.199C401.798 201.028 401.082 201.689 400.175 202.181C399.268 202.674 398.282 202.92 397.219 202.92C396.121 202.92 395.108 202.652 394.179 202.114C393.249 201.565 392.51 200.826 391.961 199.897C391.424 198.968 391.155 197.954 391.155 196.857C391.155 195.76 391.424 194.746 391.961 193.817C392.51 192.888 393.249 192.154 394.179 191.617C395.108 191.068 396.121 190.794 397.219 190.794C398.226 190.794 399.161 191.029 400.023 191.499C400.897 191.969 401.608 192.602 402.157 193.397L400.427 194.741C400.079 194.214 399.62 193.795 399.049 193.481C398.478 193.156 397.868 192.994 397.219 192.994C396.524 192.994 395.875 193.167 395.27 193.515C394.677 193.862 394.207 194.332 393.859 194.925C393.512 195.519 393.339 196.163 393.339 196.857C393.339 197.551 393.512 198.195 393.859 198.788C394.207 199.382 394.677 199.852 395.27 200.199C395.875 200.546 396.524 200.72 397.219 200.72C398.025 200.72 398.73 200.524 399.335 200.132C399.951 199.74 400.393 199.22 400.662 198.57H396.799V196.487ZM406.802 190.945V200.619H411.757V202.702H404.602V190.945H406.802ZM419.217 190.945V193.028H415.975V202.702H413.792V193.028H410.567V190.945H419.217ZM427.697 190.945V193.028H422.86V195.849H427.512V197.932H422.86V202.702H420.659V190.945H427.697Z" fill="#E6E8EB"/>
<g filter="url(#filter0_dd_224_10515)">
<path d="M168.437 0.548401H252.777L256.166 0.94717L259.954 1.94409L263.145 3.33978L265.338 4.73547L268.129 6.9287L269.525 8.32439L271.519 10.9164L273.313 14.1065L274.908 18.493L275.506 22.4807L275.706 66.744L276.105 67.9403L278.098 70.9311L279.694 74.1212L281.089 77.7102L281.887 80.7009L282.485 84.0905L282.684 86.0843V89.6732L282.286 93.4615L281.289 97.6486L279.893 101.437L278.298 104.826L276.304 108.017L275.506 109.213L274.709 113.001L273.513 116.191L272.117 118.783L270.322 121.176L268.528 123.17L266.335 125.164L262.746 127.357L259.356 128.753L255.767 129.55L254.172 129.749H167.041L163.253 129.151L160.262 128.154L157.072 126.559L154.679 124.765L152.287 122.572L150.293 119.98L148.499 116.79L147.302 113.799L146.505 110.609L146.106 107.418V22.2813L146.704 18.8918L147.701 15.7016L149.296 12.3121L151.29 9.5207L153.483 7.12809L155.477 5.33363L158.268 3.53917L161.658 1.94409L165.247 0.94717L168.437 0.548401ZM168.038 72.1274L166.842 72.7256L166.044 74.1212L166.244 75.9157L167.241 77.112L167.639 77.3114L208.513 77.5108L210.308 77.3114L211.504 76.5139L212.102 75.5169V73.9219L211.105 72.5262L210.108 72.1274H168.038ZM167.839 85.0874L166.643 85.8849L166.044 86.8818V88.2775L166.643 89.4738L167.44 90.072L168.038 90.2714H199.541L200.737 89.6732L201.535 88.6763L201.734 87.48L201.335 86.2837L200.339 85.2868L199.74 85.0874H167.839ZM168.636 98.0474L167.241 98.4461L166.244 99.6425L166.044 100.041V101.636L166.842 102.833L167.639 103.431L168.437 103.63H195.354L196.75 102.833L197.348 101.836V99.8418L196.55 98.6455L195.753 98.2468L194.556 98.0474H168.636Z" fill="#FAFAFA"/>
<path d="M168.437 19.6889H217.087L218.682 20.4864L219.679 22.0815V50.5935V50.9922V60.1639L219.081 61.5596L217.685 62.7559L216.688 62.9553H169.434L167.64 62.3572L166.444 60.9615L166.244 60.3633V21.8821L167.042 20.6858L168.039 19.8883L168.437 19.6889Z" fill="#D5EAEA"/>
<path d="M246.795 54.1822H250.583L255.169 54.7804L259.555 55.9767L262.546 57.173L266.334 59.1668L269.525 61.3601L271.718 63.3539L273.313 64.7496L275.107 66.7434L276.702 68.7373L278.297 71.3293L279.893 74.5194L281.288 78.3077L282.285 82.6942L282.684 86.0837V89.6726L282.285 93.461L281.288 97.648L279.893 101.436L278.297 104.826L276.304 108.016L275.506 109.212L274.509 110.209L272.715 112.203L270.721 114.197L267.331 116.789L263.942 118.783L261.15 119.979L258.16 120.976L254.77 121.774L251.979 122.172H246.396L242.408 121.574L239.019 120.777L235.23 119.381L231.043 117.188L227.654 114.795L225.062 112.402L223.467 110.807L221.473 108.215L219.08 104.228L217.685 101.237L216.09 96.4517L215.292 91.6665V84.4887L215.89 80.501L217.086 76.5133L218.283 73.5225L219.878 70.5317L221.473 68.1391L223.267 65.9459L225.062 63.9521L226.458 62.5564L228.252 61.1607V61.7588L228.053 62.5564L226.657 63.9521L225.062 65.3477L223.267 67.541L221.473 69.9336L219.479 73.5225L218.083 76.912L217.086 80.7003L216.688 83.2923L216.488 87.4794L216.887 92.464L217.884 96.4517L219.479 100.439L220.277 101.038L220.077 99.6419L219.28 96.8505V95.056L219.678 93.2616L222.27 91.8659L223.068 90.869L224.264 90.0714L224.862 89.2739H225.261L225.66 87.4794L226.856 85.0868L228.651 83.4917L229.249 82.8936L232.04 82.4948L235.23 81.8967L236.826 81.4979L238.819 80.501L240.016 79.7034H240.414L240.813 78.3077L241.81 76.1145L243.006 72.3262L243.405 70.5317L244.601 69.9336L245.798 68.9367L246.396 69.1361L245.2 69.9336L244.402 71.3293L244.203 83.093L243.405 83.6911L231.043 83.8905L229.847 84.688L229.249 85.685V90.4702L229.847 91.6665L231.442 92.464L243.804 92.6634L244.203 93.2616L244.402 104.826L245 106.222L245.997 107.019L246.595 107.218H251.181L252.377 106.62L252.976 105.623L253.175 104.826L253.374 93.2616L253.973 92.6634L266.135 92.464L267.929 91.6665L268.727 90.0714V86.8813L268.129 85.0868L266.933 84.0899L266.135 83.8905L253.973 83.6911L253.374 82.8936L253.175 71.3293L252.377 69.9336L251.381 69.3354L250.583 69.1361L246.595 68.9367L246.994 68.5379H249.985L251.779 68.9367L252.377 69.3354H252.976L253.773 69.9336L254.77 70.5317L255.368 71.3293V71.728H255.767L257.561 74.32L259.356 75.317L260.552 75.7157L263.344 75.5164L265.736 74.9182L266.933 74.7188L268.528 73.9213L268.727 73.3231H269.525V72.9244L270.521 72.5256L271.518 72.3262V71.9274L272.715 71.5287L272.914 70.9305L273.911 71.1299L274.908 71.728H275.705L275.307 70.5317L273.911 68.1391V67.7404H273.512L271.917 65.5471L269.525 63.1545L267.531 61.5594L265.537 60.1638L262.347 58.3693L258.758 56.9736L255.368 55.9767L251.779 55.3785L247.991 55.1791L243.405 55.5779L239.218 56.5748L236.028 57.5718H235.43V57.9705L231.642 59.765L231.243 59.9644L230.645 60.1638V60.5625L229.448 61.3601L228.651 61.1607V60.7619L232.04 58.5687L236.626 56.3754L239.617 55.3785L244.601 54.3816L246.795 54.1822Z" fill="#1F92CB"/>
<path d="M247.99 54.9799L251.779 55.1793L256.165 55.9768L261.548 57.7713L264.938 59.5658L267.53 61.3602L270.321 63.7528L272.514 65.9461L273.511 67.3418V67.7405H273.91L275.505 70.5319L275.904 71.7282L274.907 71.9276L273.711 71.1301H272.913L272.116 71.9276H271.518V72.3264L270.521 72.7251L269.524 72.9245V73.3233L268.926 73.7221L267.929 74.5196L266.932 74.9184L265.536 75.1177L263.143 75.7159L260.551 75.9153L258.558 75.1177L257.162 74.1208L255.766 72.127V71.7282H255.367L254.371 70.3325L253.174 69.7344L252.775 69.3356H252.177L251.18 68.9368L249.984 68.7374H246.993L250.582 68.9368L252.177 69.535L253.174 70.7313L253.374 71.3294L253.573 82.8937L253.972 83.4919L266.134 83.6913L267.53 84.2894L268.527 85.4857L268.926 86.8814V90.0716L267.929 91.866L266.134 92.6636L253.972 92.863L253.573 93.2617L253.374 104.826L252.775 106.222L251.978 107.019L251.18 107.418H246.595L245.398 106.82L244.601 106.022L244.202 104.826L244.003 93.2617L243.803 92.863L231.441 92.6636L229.846 91.866L229.248 91.0685L229.049 90.4703V85.6851L229.846 84.4888L231.043 83.6913L243.404 83.4919L244.003 83.0931L244.202 71.3294L245.199 69.7344L245.797 69.1362L244.601 70.1331L244.202 70.5319H243.604L243.205 72.3264L241.809 76.7128L241.012 78.3079L240.414 79.7036L238.619 80.8999L236.426 81.8968L232.638 82.495L230.644 82.8937L228.849 83.0931L228.451 83.8907L227.055 85.087L225.859 87.4796L225.26 89.274L224.263 90.271L222.868 91.2679L222.07 92.2648L219.877 93.2617L219.478 95.0562V96.8506L220.475 100.44L220.276 101.237L219.279 100.44L217.684 96.4519L216.687 92.4642L216.288 87.4796L216.487 83.2925L217.086 79.903L218.083 76.3141L219.678 72.7251L221.671 69.3356L223.865 66.5442L226.257 63.9522L227.852 62.5565L228.451 60.9615L229.447 61.1608L230.245 60.5627H230.644V60.1639L231.043 59.7651L231.641 59.5658L235.03 57.9707H235.429V57.5719L240.613 55.9768L244.8 55.1793L247.99 54.9799Z" fill="#31B7D9"/>
<path d="M160.661 17.097L160.86 17.6952L160.661 18.2933V107.618L161.259 109.213L162.057 110.01L164.051 110.608L167.639 110.808H204.127L216.489 110.608L216.688 109.412L215.89 107.219L215.292 105.225L214.894 104.427L214.096 100.639L213.498 97.8477L213.299 95.6545V92.0656L213.697 86.6822L214.495 84.2896L215.093 81.8969H215.292L215.093 86.084H215.292L215.492 91.6668L216.289 96.452L218.084 101.835L220.078 105.624L222.071 108.814L224.464 111.605L226.657 113.798L229.249 115.792L232.838 117.986L236.626 119.78L239.617 120.777L243.206 121.574L246.396 121.973H251.979L256.764 121.176L259.954 120.179L263.543 118.783L266.734 116.989L269.924 114.596L272.316 112.403L273.911 110.808L275.108 109.213H275.307L275.108 111.406L274.111 114.795L272.516 118.185L270.522 120.976L268.329 123.369L266.335 125.163L262.746 127.357L259.356 128.752L255.767 129.55L254.172 129.749H167.041L163.253 129.151L160.262 128.154L157.072 126.559L154.679 124.765L152.287 122.571L150.293 119.979L148.499 116.789L147.302 113.798L146.505 110.608L146.106 107.418V22.281L146.704 18.8915L147.103 17.4958L147.302 18.2933L146.704 21.4835L146.505 25.4712V82.6945L146.704 106.621L147.701 111.605L148.897 114.596L150.692 117.786L152.885 120.378L154.081 121.774L156.673 123.768L159.465 125.363L162.854 126.758L167.839 127.556H196.75L197.348 127.357H205.124L205.722 127.157L207.118 127.357L210.108 126.958L211.504 126.36L212.302 126.16L213.897 125.562L214.295 125.163L214.694 124.366L215.292 123.768H215.691V121.973L216.289 121.375L216.489 120.578V118.584L215.89 116.989L214.694 116.191L212.102 115.394L209.111 115.194L207.317 114.995L195.553 114.795H171.627L165.247 114.397L163.452 113.798L161.459 112.602V112.203H161.06L160.063 110.409L159.664 109.213L159.465 106.621L159.664 102.434V97.2495L159.863 87.6791L160.063 19.0909L160.661 17.097Z" fill="#D2D4D4"/>
<path d="M200.738 33.6456L202.133 33.845L203.728 35.0413L219.679 50.9921V60.1638L219.081 61.5594L217.685 62.7558L216.688 62.9551H169.434L167.64 62.357L166.444 60.9613L166.244 60.3631V55.5779L177.21 44.6118L178.606 43.8142H180.6L182.394 45.0105L184.787 47.2038L184.986 47.4032H185.983L186.581 47.2038L186.98 46.4062L198.744 34.6426L200.738 33.6456Z" fill="#8DBAB1"/>
<path d="M246.595 68.9367H250.583L252.178 69.5349L253.175 70.7312L253.374 71.3293L253.574 82.8936L253.972 83.4918L266.135 83.6912L267.531 84.2893L268.527 85.4856L268.926 86.8813V90.0715L267.929 91.8659L266.135 92.6635L253.972 92.8628L253.574 93.2616L253.374 104.826L252.776 106.222L251.979 107.019L251.181 107.418H246.595L245.399 106.82L244.601 106.022L244.203 104.826L244.003 93.2616L243.804 92.8628L231.442 92.6635L229.847 91.8659L229.249 91.0684L229.049 90.4702V85.685L229.847 84.4887L231.043 83.6912L243.405 83.4918L244.003 83.093L244.203 71.3293L245.199 69.7342L245.997 69.1361L246.595 68.9367Z" fill="#FAFAFA"/>
<path d="M215.093 81.897H215.292L215.093 86.084H215.292L215.492 91.6668L216.289 96.452L218.084 101.835L220.078 105.624L222.071 108.814L224.464 111.605L226.657 113.798L229.249 115.792L232.838 117.986L236.627 119.78L239.617 120.777L243.206 121.574L246.396 121.973H251.979L256.764 121.176L259.954 120.179L263.543 118.783L266.734 116.989L269.924 114.596L272.316 112.403L273.911 110.808L275.108 109.213H275.307L275.108 111.406L274.111 114.795L272.516 118.185L270.522 120.976L268.329 123.369L266.335 125.163L262.746 127.357L259.356 128.752L255.767 129.55L254.172 129.749H167.041L163.253 129.151L160.262 128.154L157.072 126.559L155.477 125.363L155.876 125.163L158.069 126.559L161.06 127.955L163.851 128.752L165.845 129.151L169.434 129.35H229.05L245.399 129.151L251.381 128.952L256.166 128.354L259.556 127.357L262.746 125.961L264.939 124.565L266.135 123.568L267.132 122.372L267.531 121.574L265.737 122.173L264.74 122.771L262.148 123.768L258.559 124.964L255.169 125.562L251.78 125.762H245.798L241.212 124.964L239.219 124.366L237.225 123.568L234.633 122.372L234.035 122.173V121.774L233.237 121.375L230.645 119.78V119.381L229.648 118.982L227.654 117.387V116.989L226.857 116.59L225.461 115.394V114.995L224.464 114.596L222.071 113.599L219.679 113.2L217.286 113.001L201.136 112.802H175.814L165.048 112.602L163.253 112.004L161.259 110.21L160.462 108.814L160.262 107.418L160.661 107.618L161.259 109.213L162.057 110.01L164.051 110.608L167.639 110.808H204.127L216.489 110.608L216.688 109.412L215.891 107.219L215.292 105.225L214.894 104.427L214.096 100.639L213.498 97.8477L213.299 95.6545V92.0656L213.697 86.6822L214.495 84.2896L215.093 81.897Z" fill="#A5B6B4"/>
<path d="M279.095 76.1149L279.294 76.5137L280.092 76.7131L280.291 78.5075L280.49 79.5044H280.889L281.487 80.9001L282.085 82.894L282.285 84.2897V90.2712L281.886 93.4613L281.687 96.2527L280.092 101.038L278.297 104.826L276.303 108.016L275.506 109.213L274.509 110.21L272.714 112.203L270.721 114.197L267.331 116.789L263.941 118.783L261.15 119.979L258.159 120.976L254.77 121.774L251.978 122.173H246.396L242.408 121.575L239.018 120.777L235.23 119.381L231.043 117.188L227.654 114.795L227.055 113.998V113.599L225.46 112.004L225.261 111.007L225.062 110.608L226.058 111.007L228.052 112.802L231.841 115.394L235.23 117.188L238.62 118.584L243.604 119.78L245.199 119.979H251.58L256.365 119.182L259.754 118.185L262.147 117.188L265.736 115.194L268.129 113.4L270.322 111.406L271.319 110.608L273.113 108.415L275.107 105.823L276.303 103.829L278.696 98.8447L279.892 95.0564L280.69 90.8693V84.0903L279.892 79.5044L279.095 76.7131V76.1149Z" fill="#0E5E98"/>
<path d="M180.002 26.0694H182.195L184.189 26.6675L185.784 27.8638L187.18 29.4589L187.778 30.8546L187.978 33.4466L187.379 35.4404L186.183 37.2349L184.787 38.4312L183.192 39.2287L182.395 39.4281H179.803L177.61 38.6306L175.616 36.8361L174.619 34.8423L174.419 34.0447V31.2534L175.217 29.2595L176.812 27.4651L178.607 26.4681L180.002 26.0694Z" fill="#8FBBB1"/>
<path d="M215.093 81.897H215.292L215.093 86.084H215.292L215.491 91.6668L216.289 96.452L218.083 101.835L220.077 105.624L222.071 108.814L222.47 109.611H222.071L222.27 110.409L222.071 111.206L220.875 111.406L222.27 111.605V111.805H164.648L162.256 110.808L161.857 110.21H162.654L164.05 110.608L167.639 110.808H204.126L216.488 110.608L216.688 109.412L215.89 107.219L215.292 105.225L214.893 104.427L214.096 100.639L213.497 97.8477L213.298 95.6545V92.0656L213.697 86.6822L214.494 84.2896L215.093 81.897Z" fill="#D4D6D5"/>
<path d="M160.263 107.418L160.661 107.617L161.26 109.212L162.257 110.608L164.051 111.406V111.804L165.048 112.004L201.735 112.203L203.928 112.403L217.885 112.602L222.67 113.001L224.265 113.4L225.86 114.197L228.053 116.191L229.05 116.789L229.848 117.587L232.639 119.381L234.234 120.378L235.63 120.976L238.023 122.172L239.219 122.571L240.415 123.169L244.403 123.967L247.792 124.366H251.98L255.967 123.967L259.955 123.169L261.949 122.372L263.743 121.574L265.936 120.378H266.335V119.979L268.528 118.783L269.326 118.384V117.985L269.924 117.786L270.522 117.188L271.32 117.387L271.12 118.583L269.127 121.574L268.13 122.571L267.532 122.771V123.169L266.136 124.366L265.737 124.764L263.544 126.16L260.154 127.755H259.756L259.556 128.154L257.762 128.553L256.964 128.752L254.771 128.951V129.35L251.98 129.55H229.05V129.35L245.4 129.151L251.381 128.951L256.167 128.353L259.556 127.356L262.746 125.961L264.94 124.565L266.136 123.568L267.133 122.372L267.532 121.574L265.737 122.172L264.74 122.771L262.148 123.767L258.559 124.964L255.17 125.562L251.78 125.761H245.799L241.213 124.964L239.219 124.366L237.225 123.568L234.633 122.372L234.035 122.172V121.774L233.237 121.375L230.645 119.78V119.381L229.648 118.982L227.655 117.387V116.988L226.857 116.59L225.461 115.393V114.995L224.464 114.596L222.072 113.599L219.679 113.2L217.287 113.001L201.137 112.801H175.815L165.048 112.602L163.253 112.004L161.26 110.209L160.462 108.814L160.263 107.418Z" fill="#B6B9BB"/>
<path d="M270.522 62.5567L271.319 62.9555L273.512 64.9493L274.908 66.5444L276.703 68.7376L278.298 71.3296L279.893 74.5198L281.288 78.3081L282.285 82.6945L282.684 86.0841V89.673L282.285 93.4613L281.887 95.4551H281.687V93.4613L282.086 90.2711V84.2896L281.687 81.897L280.89 79.9031V79.5044H280.491L280.092 78.5075L279.893 76.713H279.295L280.291 80.3019L280.89 84.0902V90.8693L279.893 95.6545L278.696 99.2434L275.905 105.026L273.911 107.618L272.316 109.611L271.319 110.808H270.92L270.721 111.406L268.528 113.2L266.933 114.596L263.942 116.39L260.752 117.986L257.163 119.182L254.172 119.78L251.58 120.179H244.801L239.418 118.982L237.025 118.185L232.439 115.992L230.047 114.397L227.654 112.602L225.461 110.808L225.66 111.605L226.059 112.403L227.455 113.798L226.657 113.998L223.467 110.808L221.473 108.216L219.08 104.228L217.685 101.237L217.485 100.041L217.884 100.44L218.283 100.041L218.881 100.639L221.274 104.826L222.669 106.82L223.666 108.016V108.415H224.065L225.461 110.01L227.455 111.805L229.249 113.2L232.04 114.995L236.626 117.188L240.016 118.384L245.2 119.381L248.191 119.581L254.172 118.982L258.559 117.786L261.549 116.59L262.746 115.992L266.933 113.4L269.325 111.406L270.322 110.608H270.721L271.12 109.611L272.914 107.618L274.31 105.823L275.107 104.228H275.506L275.905 103.032L277.101 100.839L278.696 97.0502L280.092 91.4674L280.291 88.6761V84.0902L279.893 81.0995L279.095 77.7099L277.899 74.3204L276.304 71.1302L275.107 69.1364L273.512 66.9432L272.316 65.3481L271.519 63.9524L270.522 62.5567Z" fill="#1378B3"/>
<path d="M222.471 14.5052L223.468 14.7045L225.661 16.499L226.857 18.4928L227.256 20.2873L227.455 25.4713V35.0418L227.655 50.5937L227.854 54.7808L228.253 57.7716L229.05 59.566L229.25 60.1642L227.854 61.7593L225.86 63.3543L225.262 63.155L225.461 18.0941L224.465 16.1002L222.869 14.9039L222.471 14.5052Z" fill="#D4D6D5"/>
<path d="M261.748 2.94046L263.144 3.33923L265.337 4.73492L268.128 6.92815L269.524 8.32384L271.518 10.9158L273.312 14.106L274.907 18.4924L275.506 22.4801L275.705 67.541L274.708 66.5441L272.116 63.7527L270.521 62.357L269.325 61.3601L268.328 60.3632L266.533 59.1669L267.331 58.9675L268.527 59.3662V59.765L270.322 60.3632L272.515 61.5595H273.512L273.91 58.3693L274.11 42.8173V23.0783L273.711 19.6888L272.315 14.9035L270.72 11.514L269.125 9.12138L267.73 7.5263L266.733 6.52938V6.13061L265.935 5.73184L263.144 3.93738L261.947 3.33923L261.748 2.94046Z" fill="#D2D5D4"/>
<path d="M245.001 55.3785H249.986L253.774 55.7773L256.167 56.3755L260.354 57.7712L262.946 59.1668L263.345 59.765L261.75 59.5656L259.756 58.7681L256.566 57.7712L252.378 57.173L248.191 56.9736L243.805 57.3724L239.618 58.3693L236.627 59.5656L233.437 61.1607L232.041 62.1576L230.646 62.9551L229.449 63.9521H229.05V64.3508L226.857 66.1453L224.465 68.7373L221.673 73.1238L220.078 76.3139L218.882 80.1022L218.084 84.2893L217.486 85.2862L217.087 84.688L217.287 81.4979L217.885 78.1084L218.882 75.317L220.676 71.5287L223.069 67.9398L224.863 65.9459L228.652 62.1576L230.646 60.7619L233.238 59.1668L236.627 57.5718L240.814 56.1761L245.001 55.3785Z" fill="#5CD0DF"/>
<path d="M268.927 86.2835H269.127L269.326 87.2805H269.725L269.924 88.4768V90.2712L269.326 91.8663L268.728 92.8632L267.133 93.8601L265.737 94.2589L261.55 94.4583H257.363L255.369 94.6577L254.771 97.4491V102.035L254.572 105.624L253.974 107.02L252.777 108.415L251.78 108.814L250.584 109.013H247.394L245.4 108.016L244.403 106.82L244.204 105.823L244.004 105.424L243.805 95.2558L243.606 94.0595L243.406 93.6608H234.833L231.842 93.4614L230.247 92.4645L229.25 91.6669L228.851 90.8694L229.05 90.0718L229.848 91.6669L231.443 92.4645L243.805 92.6638L244.204 93.262L244.403 104.826L245.001 106.222L245.998 107.02L246.596 107.219H251.182L252.378 106.621L252.977 105.624L253.176 104.826L253.375 93.262L253.974 92.6638L266.136 92.4645L267.93 91.6669L268.728 90.0718L268.927 86.2835Z" fill="#1479B4"/>
<path d="M268.926 86.2835H269.126L269.325 87.2805V89.6731L268.926 91.6669L267.93 92.6638L266.534 93.4614L265.736 93.6608L254.77 93.8601L254.371 94.6577L253.973 95.2558L253.773 106.023L252.976 107.219L251.979 108.016L249.985 108.415H248.39L246.595 108.016V107.618L245.399 107.219L245.2 106.82L246.595 107.219H251.181L252.378 106.621L252.976 105.624L253.175 104.826L253.374 93.262L253.973 92.6638L266.135 92.4645L267.93 91.6669L268.727 90.0718L268.926 86.2835Z" fill="#0E5F98"/>
<path d="M221.872 109.213L223.068 110.01L224.464 111.605L225.062 112.802L221.274 112.602L220.676 112.403L165.048 112.203L163.652 111.805V111.605H220.078L220.875 111.207L222.071 111.007V109.811L221.872 109.213Z" fill="#9AB7B2"/>
<path d="M270.521 62.5567L271.318 62.9555L273.511 64.9493L274.907 66.5444L276.701 68.7376L278.296 71.3296L279.892 74.5198L281.287 78.3081L282.284 82.6945L282.683 86.0841V89.673L282.284 93.4613L281.885 95.4551H281.686V93.4613L282.085 90.2711V84.2896L281.686 81.897L280.888 79.9031V79.5044H280.49L280.091 78.5075L279.892 76.713H279.094L278.695 76.5136L277.1 72.5259L275.306 69.3358L272.315 65.3481L271.517 63.9524L270.521 62.5567Z" fill="#1C82B9"/>
<path d="M268.329 88.8754L268.728 89.0748L268.927 90.0717L267.93 91.8662L266.136 92.6637L253.973 92.8631L253.574 93.2619L253.375 104.826L252.777 106.222L251.979 107.019L251.182 107.418L250.584 107.219L246.397 107.019L245.599 106.621L245.998 106.421L246.995 106.621H250.783L252.179 105.823L252.578 105.026L252.777 93.0625L253.574 92.0655L253.973 91.8662L266.136 91.6668L267.332 91.0686L267.93 90.8692L268.329 88.8754Z" fill="#D8DCDB"/>
<path d="M160.263 107.418L160.661 107.617L161.26 109.212L162.257 110.608L164.051 111.406V111.804L165.048 112.004L201.735 112.203L203.928 112.403H205.922L206.32 112.801H175.815L165.048 112.602L163.253 112.004L161.26 110.209L160.462 108.814L160.263 107.418Z" fill="#B2B7B8"/>
<path d="M272.316 12.7105L272.914 13.3086L274.509 17.2963L275.107 19.4896L275.506 22.4803L275.705 67.5412L275.107 66.9431L274.709 66.1455L274.908 61.9584V21.6828L274.31 18.0939L272.715 13.9068L272.316 12.7105Z" fill="#A7B5B4"/>
<path d="M228.851 90.0717L229.25 90.4704L229.848 91.6667L231.443 92.4643L243.805 92.6637L244.204 93.2618L244.403 105.823L244.004 105.424L243.805 95.2556L243.606 94.0593L243.406 93.6606H234.833L231.842 93.4612L230.247 92.4643L229.25 91.6667L228.851 90.8692V90.0717Z" fill="#0D5D96"/>
<path d="M253.176 70.7314L253.575 71.1301L253.973 73.3234H254.173L254.372 78.1086L254.571 80.3018V83.0932L265.737 83.2926L266.335 83.6913H253.973L253.375 82.8938L253.176 70.7314Z" fill="#126FA9"/>
<path d="M242.21 54.7806H243.805L243.406 55.5781L239.219 56.5751L236.029 57.572H235.431V57.9708L231.643 59.7652L231.244 59.9646L230.646 60.164V60.5628L229.449 61.3603L228.652 61.1609V60.7621L232.041 58.5689L236.627 56.3757L239.618 55.3788L242.21 54.7806Z" fill="#2291C6"/>
<path d="M226.06 19.091H226.26L226.459 58.7685L226.858 61.3605L227.057 62.3574L226.26 62.9555H225.861L226.06 19.091Z" fill="#A7B3B3"/>
<path d="M230.445 91.6666L243.205 91.8659L244.003 92.2647L243.804 92.6635H231.442L230.445 91.6666Z" fill="#DCDEDE"/>
<path d="M275.307 23.6768H275.507L275.706 67.5414L275.108 66.9432L274.909 65.3482L275.108 63.3543L275.307 23.6768Z" fill="#8FBBB1"/>
<path d="M253.574 101.237H253.773V106.023L252.976 107.219L251.979 108.016L249.985 108.415H248.39L246.595 108.016V107.618L245.399 107.219L245.2 106.82L246.595 107.219H251.181L252.378 106.621L252.976 105.624L253.175 104.826L253.374 101.437L253.574 101.237Z" fill="#0E5D97"/>
<path d="M229.648 92.0656L231.642 92.8632L231.841 93.2619L234.832 93.4613L243.405 93.6607L243.804 93.4613L243.605 95.0564L242.209 94.4582L237.823 94.2588L232.041 94.0595L230.645 93.4613L229.648 92.6638V92.0656Z" fill="#1479B5"/>
<path d="M221.872 109.213L223.068 110.01L224.464 111.605L225.062 112.802L221.274 112.602L220.078 112.203V112.004L221.473 111.805L220.078 111.605L220.875 111.207L222.071 111.007V109.811L221.872 109.213Z" fill="#76B7B9"/>
<path d="M236.028 57.3725H236.626V57.7712L232.439 59.7651L229.448 61.7589L227.056 63.9522L223.666 67.3417V66.7435L226.258 63.9522L227.853 62.5565L228.451 60.9614L229.448 61.1608L230.246 60.5626H230.644V60.1638L231.043 59.7651L231.641 59.5657L235.031 57.9706H235.43V57.5719L236.028 57.3725Z" fill="#32B8DA"/>
<path d="M253.375 92.8628L253.574 93.2616L253.375 104.826L252.777 106.222L251.979 107.019L251.182 107.418L250.584 107.219L246.397 107.019L245.599 106.62L245.998 106.421L246.995 106.62H250.783L252.179 105.823L252.976 104.627L253.176 93.0622L253.375 92.8628Z" fill="#E6E9E8"/>
<path d="M160.263 107.418L160.661 107.617L161.26 109.212L162.257 110.608L164.051 111.406V111.804L165.048 112.004L171.428 112.203L173.821 112.403V112.602H165.048L163.253 112.004L161.26 110.209L160.462 108.814L160.263 107.418Z" fill="#B2B7B9"/>
<path d="M226.06 48.0015H226.26L226.459 58.7683L226.858 61.3603L227.057 62.3572L226.26 62.9554H225.861V58.9677L226.06 48.0015Z" fill="#93B9B3"/>
<path d="M171.427 112.203H185.384V112.403L180.997 112.602L180.798 112.801H175.813L171.427 112.403V112.203Z" fill="#B0B6B7"/>
<path d="M223.267 67.3418V67.94L221.274 70.9307L219.479 74.3203L218.283 77.311L217.884 78.9061H217.485L217.884 76.9123L219.479 73.124L221.672 69.3357L223.267 67.3418Z" fill="#32B8DA"/>
<path d="M259.156 127.955H260.751L260.552 128.353L256.963 129.35L253.574 129.749L251.979 129.55V129.35H254.77V128.952L257.561 128.553L258.159 128.154L259.156 127.955Z" fill="#A2B5B3"/>
<path d="M242.209 54.7806H243.804L243.406 55.5781L239.817 56.3757L238.62 56.1763L237.624 56.3757L238.222 55.7775L242.209 54.7806Z" fill="#238EC2"/>
<path d="M280.092 76.1149H280.491L281.687 79.7038V81.4983L281.288 80.9001L280.889 79.5044H280.491L280.092 78.5075V76.1149Z" fill="#1E82B9"/>
<path d="M275.108 109.213H275.308L275.108 111.406L274.709 112.203L274.311 112.004V111.605L273.314 112.004L271.12 114.197L270.722 113.998L273.912 110.808L275.108 109.213Z" fill="#A9C1BE"/>
<path d="M221.872 109.213L223.068 110.01L223.866 111.207L222.869 111.805L220.078 111.605L220.875 111.207L222.071 111.007V109.811L221.872 109.213Z" fill="#B1BABB"/>
<path d="M253.973 73.3232H254.173L254.372 78.1085L254.571 80.3017V83.0931L253.973 83.2925V73.3232Z" fill="#1479B5"/>
<path d="M215.291 80.9H215.89L215.491 84.4889L215.291 86.084L215.092 90.0717H214.893V85.2865L215.291 80.9Z" fill="#F4F5F4"/>
<path d="M155.478 5.33301L155.877 5.53239L151.291 10.1182V9.52008L153.484 7.12747L155.478 5.33301Z" fill="#D4D8D7"/>
<path d="M238.621 55.9769L239.418 56.1763L239.219 56.5751L236.029 57.572L235.431 57.3726L237.225 56.1763L238.621 55.9769Z" fill="#2397CC"/>
<path d="M227.255 63.1546L227.654 63.354L223.666 67.3417V66.7435L226.258 63.9521L227.255 63.1546Z" fill="#3EBEDB"/>
<path d="M245.797 68.9367L246.395 69.1361L245.199 69.9336L244.401 70.9306H244.202L243.803 72.1269L243.404 71.7281V70.5318L244.601 69.9336L245.797 68.9367Z" fill="#2494C8"/>
<path d="M275.307 63.3539H275.507L275.706 67.541L275.108 66.9428L274.909 65.3478L275.108 63.5533L275.307 63.3539Z" fill="#95B9B1"/>
<path d="M230.446 59.5657L231.244 59.7651L231.044 60.1639H230.646V60.5627L229.449 61.3602L228.652 61.1608V60.762L230.446 59.5657Z" fill="#2193C8"/>
<path d="M259.157 127.955H260.752L260.553 128.353L258.559 128.952H257.762L258.16 128.154L259.157 127.955Z" fill="#9FB6B2"/>
<path d="M228.452 60.9613L229.648 61.1607L229.249 61.9583L227.853 63.1546L227.455 62.9552L228.053 62.357L228.252 61.5595L228.452 60.9613Z" fill="#30B4D8"/>
<path d="M226.258 58.7681H226.458L226.856 61.3601L227.056 62.357L226.258 62.7558V58.7681Z" fill="#B3B9BA"/>
<path d="M243.206 54.5813L245.998 54.7807L245.798 55.1795L244.801 55.3789H243.406L243.007 54.9801L243.206 54.5813Z" fill="#279DCE"/>
<path d="M152.286 122.172L153.084 122.571L153.881 123.568L155.476 124.964H154.878L152.286 122.571V122.172Z" fill="#A7B7B6"/>
<path d="M242.208 54.7806H243.803L243.404 55.5781L241.411 55.7775L241.61 55.1794L242.208 54.7806Z" fill="#1E90C7"/>
<path d="M262.746 56.9739L263.743 57.1733L264.939 57.7714L264.541 58.3696L262.746 57.3726V56.9739Z" fill="#E7E8E8"/>
<path d="M267.53 116.39L267.929 116.59L267.132 116.988L266.733 117.786L265.537 117.985L266.334 117.188L267.53 116.39Z" fill="#B1C3C0"/>
<path d="M160.263 107.418L160.661 107.617L161.26 109.212L161.858 110.209H161.26L160.462 108.814L160.263 107.418Z" fill="#BCC1C1"/>
</g>
<defs>
<filter id="filter0_dd_224_10515" x="129.981" y="0.548401" width="168.828" height="169.513" filterUnits="userSpaceOnUse" color-interpolation-filters="sRGB">
<feFlood flood-opacity="0" result="BackgroundImageFix"/>
<feColorMatrix in="SourceAlpha" type="matrix" values="0 0 0 0 0 0 0 0 0 0 0 0 0 0 0 0 0 0 127 0" result="hardAlpha"/>
<feOffset dy="16.1249"/>
<feGaussianBlur stdDeviation="8.06247"/>
<feComposite in2="hardAlpha" operator="out"/>
<feColorMatrix type="matrix" values="0 0 0 0 0 0 0 0 0 0 0 0 0 0 0 0 0 0 0.25 0"/>
<feBlend mode="normal" in2="BackgroundImageFix" result="effect1_dropShadow_224_10515"/>
<feColorMatrix in="SourceAlpha" type="matrix" values="0 0 0 0 0 0 0 0 0 0 0 0 0 0 0 0 0 0 127 0" result="hardAlpha"/>
<feOffset dy="32.2499"/>
<feGaussianBlur stdDeviation="4.03124"/>
<feComposite in2="hardAlpha" operator="out"/>
<feColorMatrix type="matrix" values="0 0 0 0 0 0 0 0 0 0 0 0 0 0 0 0 0 0 0.25 0"/>
<feBlend mode="normal" in2="effect1_dropShadow_224_10515" result="effect2_dropShadow_224_10515"/>
<feBlend mode="normal" in="SourceGraphic" in2="effect2_dropShadow_224_10515" result="shape"/>
</filter>
</defs>
</svg>
