<svg width="27" height="42" viewBox="0 0 27 42" fill="none" xmlns="http://www.w3.org/2000/svg">
<path d="M19.4814 0L20.5965 0.0655941L21.3181 0.32797L22.0396 0.787129L22.4332 1.1151L22.8923 1.77104L23.2859 2.82054L23.4171 3.47649V4.06683L23.1547 5.11634L22.8267 5.96906L22.302 6.88738L21.9084 7.47772L21.8428 7.67451L23.0891 7.87129L24.073 8.13366L24.729 8.46163L25.3193 8.92079L25.9097 9.57673L26.3688 10.5606L26.5 10.9542V12.0693L25.8441 14.9554L25.5161 16.4641L25.2537 17.5136L24.7946 19.4158L24.2042 21.974L23.7451 24.0074L23.0891 26.828L22.0396 31.2228L21.7772 32.4035L21.5804 32.9938L21.0557 35.2896L20.6621 37.1262L20.3342 38.7005L20.0062 39.4876L19.6782 40.0124L19.0879 40.6683L18.5631 41.0619L17.6448 41.521L17.1201 41.5866H16.4641L15.4802 41.3899L14.1683 41.0619L12.3317 40.6683L10.2327 40.1436L8.72401 39.8156L6.29703 39.2253L4.32921 38.7661L2.49257 38.3725L1.44307 37.8478L0.918317 37.3886L0.459158 36.7983L0.131188 36.0767L0 35.6832V34.5025L0.196782 33.5186L0.852723 30.8948L1.18069 29.3205L1.37748 28.5334L1.70545 27.0248L2.1646 24.9913L2.49257 23.6139L3.01733 21.1213L3.47649 19.2191L3.67327 18.3007L4.06683 16.6609L4.4604 15.0866L4.72277 13.8403L4.98515 12.7908L5.24753 11.479L5.5755 9.9703L5.83787 8.92079L6.16584 7.54332L6.69059 6.55941L7.01856 6.16584L7.67451 5.70668L8.59282 5.24753L9.51114 5.18193L10.4951 5.31312L12.5285 5.70668L14.3651 6.10025V5.70668L14.8899 4.06683L15.4146 2.88614L16.0705 1.96782L16.8577 1.1151L17.448 0.655941L18.3663 0.196782L18.8911 0.0655941L19.4814 0ZM19.4158 1.57426L18.8255 1.70545L18.0384 2.1646L17.3824 2.75495L16.9233 3.41089L16.3985 4.3948L15.8738 5.83787L15.8082 6.29703L16.1361 6.49381L18.3007 6.95297L19.1535 7.14975L20.203 7.21535L20.7933 6.42822L21.2525 5.64109L21.5804 4.85396L21.8428 3.87005V3.2797L21.4493 2.49257L21.1213 2.09901L20.4653 1.70545L19.9406 1.57426H19.4158ZM9.05198 6.75619L8.39604 7.08416L8.06807 7.34653L7.60891 8.00248L7.47772 8.7896L7.14975 9.9047L6.88738 11.2822L6.55941 12.5285L6.23144 13.9715L5.31312 18.0384L4.98515 19.4814L4.52599 21.4493L4.26361 22.5644L3.54208 25.5161L3.21411 27.0903L3.01733 27.9431L2.82054 28.927L2.55817 29.8453L2.1646 31.6163L1.57426 34.0433L1.50866 34.5025V35.0928L1.63985 35.6832L2.03342 36.3391L2.68936 36.7983L3.2797 36.9951L4.65718 37.323L6.23144 37.651L7.47772 37.979L8.65842 38.2413L11.3478 38.8973L12.8564 39.2253L13.6436 39.422L15.021 39.6844L16.2017 40.0124L16.9889 40.078L17.6448 39.8812L18.3007 39.3564L18.6943 38.7661L18.9567 37.7822L19.4158 35.7488L20.1374 32.6658L20.5965 30.698L20.9245 29.4517L21.5804 26.6312L22.4988 22.8923L22.8267 21.3181L23.2859 19.2847L23.7451 17.1856L24.0074 16.2673L24.5322 13.9059L24.9913 11.6757L24.9257 11.0198L24.5322 10.2983L24.2042 9.9047L23.8106 9.70792L22.4332 9.37995L20.7933 9.05198L19.4158 8.72401L18.3007 8.52723L16.1361 8.06807L16.2673 8.98639L16.4641 9.44555L17.3824 9.9047L17.776 10.3639L17.8416 10.4951V11.5446L17.5792 12.0693L17.2512 12.3973L16.7265 12.7252L16.005 12.7908L15.5458 12.6597L14.9554 12.2005L14.5619 11.479L14.4963 10.6262L14.9554 9.70792L14.8243 8.98639L14.4963 7.7401L13.4468 7.47772L11.8069 7.14975L10.9542 7.01856L10.4295 6.82178L9.9047 6.75619H9.05198Z" fill="black"/>
<path d="M11.7416 23.876L12.2663 23.9416L13.7094 24.2039L14.103 24.4663V24.9255L13.8406 25.5814L13.5782 25.7126L12.6599 25.647L12.3975 26.4341L12.1352 27.6148H12.6599L13.1847 27.8116L13.2503 27.9428V28.4676L13.1847 28.9923L13.5782 29.1235L13.8406 29.3859V30.1074L13.775 30.5666L14.5621 30.7634H14.6933L15.2181 28.4676L15.4149 27.8116L15.6772 27.746L16.3332 28.0084L16.3988 28.074V28.6643L16.2676 29.6483L16.9891 29.7794L17.2515 29.1235L17.3827 28.5987L18.0386 28.6643L18.3666 28.8611L18.4322 28.9923L18.2354 29.9106L17.9074 30.4354L17.1203 30.5666L16.9235 31.1569L16.7923 31.8785L16.8579 32.2064L17.3827 32.4688L17.4483 32.5344V33.2559L17.2515 34.2398L16.9891 34.7646L16.8579 34.8958L16.202 34.8302L15.874 34.5022L15.9396 33.7807L16.202 32.9936L16.1364 32.6656L15.6116 32.4032L15.4805 32.928L15.2181 33.3215H14.4965L13.5782 33.1247L13.2503 32.928L13.3159 32.0096L13.3814 31.7473L12.7255 31.6817L12.3975 31.6161L12.3319 32.2064L12.0696 32.6L11.6104 32.5344L11.1512 32.3376L11.0857 32.272V31.8129L11.1512 31.2881L10.2329 30.8289L10.1673 30.4354L10.2329 29.9106L10.1673 29.845L9.70818 29.7794L9.4458 29.5171V28.7955L9.77377 28.2708L10.3641 28.3364L11.6104 28.7299L11.7416 28.8611L11.676 30.0418L12.4631 30.2386H12.5943L12.7911 29.3203L11.8072 28.7299V28.2708L12.004 27.6148L11.0201 27.2213L10.9545 27.1557V26.6965L11.4136 24.7943L11.7416 23.876Z" fill="black"/>
<path d="M8.13356 30.3042L8.72391 30.3698L10.1014 30.829L10.2326 31.0913L10.1014 31.8785L10.0358 32.2064L10.8229 32.4032L11.0197 32.6656L10.8229 33.3215V33.5183L11.6756 33.6495L11.938 33.7807L12.1348 32.8624L12.2004 32.7968L12.7907 32.8624L13.1843 33.0591L13.1187 33.6495L13.0531 33.9775L13.6435 34.1742L14.8898 34.371L15.0865 34.6334V35.027L14.8242 35.6829L15.5457 35.8141L16.5296 36.0765L16.464 36.6012L16.2672 37.2572L16.136 37.3884L15.5457 37.3228L14.2994 36.9948L13.1843 36.7324L12.6596 36.5356L12.5284 36.2733L12.594 35.5517L12.6596 35.3549L11.938 35.2893L11.4133 35.1582V35.6173L11.1509 36.2733L10.5605 36.2077L10.167 36.0109V34.8302L10.3638 34.1742L10.4949 33.8463L10.1014 33.5183L9.70782 33.3215L9.64223 33.2559L9.70782 32.7312L9.77341 32.3376L8.7895 32.272L8.52713 32.928L8.39594 33.0591H7.54322L5.70658 32.7312L5.64099 33.6495L6.95287 33.9119L8.13356 34.1087L8.26475 33.5183L8.33034 33.4527H8.8551L9.24866 33.7151L9.44544 33.9775L9.37985 34.371L9.05188 35.3549L8.72391 35.5517L7.93678 35.4861L6.5593 35.2238L5.44421 34.8958L4.59148 34.6334L4.19792 34.371L4.13232 34.3054V33.6495L4.46029 32.6L4.65708 31.7473L4.85386 31.3537L5.31302 31.2881L6.75609 31.5505L7.54322 31.7473L7.6744 31.1569L8.00237 30.4354L8.13356 30.3042Z" fill="black"/>
<path d="M8.72416 13.1841L9.38011 13.2497L9.77367 13.4465L9.97045 13.9712L10.4952 16.7918L10.6264 17.3821V17.6445H10.7576L10.8232 17.0541L11.1511 15.8078L11.3479 14.8239L11.6759 13.9056L12.0039 13.84L12.7254 14.0368L12.8566 14.2336L12.7254 15.3487L12.2007 17.7101L11.5447 20.2682L11.2167 21.0554L11.1511 21.121H10.4952L10.036 20.9898L9.77367 20.3338L9.38011 18.3004L9.18332 17.5133L9.11773 17.0541L8.78976 18.1036L8.46179 19.6779L8.13382 20.465L8.00263 20.5962L7.2811 20.5306L7.01872 20.2682L6.95312 20.1371L7.01872 19.4155L7.2811 18.1692L7.54347 17.1197L7.74025 16.0702L8.00263 15.0863L8.26501 13.5776L8.52738 13.2497L8.72416 13.1841Z" fill="black"/>
<path d="M14.1687 14.4312L14.8902 14.4967L15.8741 14.7591L16.9892 14.9559L17.3172 15.2839V15.8742L17.0548 16.4646L16.9236 16.5302L16.0709 16.4646L15.0214 16.2678L14.8246 16.8581L14.6934 17.7764L15.6117 17.9732L16.0053 18.2356V18.6948L15.7429 19.4163L15.6117 19.5475L14.8246 19.4163L14.4966 19.2851H14.2999L14.0375 20.1378L13.7095 21.5153L13.3159 21.7121L12.7256 21.6465L12.332 21.4497V20.7938L12.7256 19.2195L13.0536 17.842L13.5127 15.9398L13.7751 14.8247L14.0375 14.4967L14.1687 14.4312Z" fill="black"/>
<path d="M19.8366 16L20.5582 16.0656L21.5421 16.328L22.6572 16.5248L22.9851 16.8527V17.4431L22.7228 18.0334L22.5916 18.099L21.7389 18.0334L20.6894 17.8366L20.4926 18.427L20.3614 19.3453L19.5 19.5L20.0346 19.8829L19.8366 19.8829L19.6349 20.5719L19.5 20.5L20.1646 20.854H19.9678L19.7054 21.7067L19.3775 23.0842L18.9839 23.2809L18.3936 23.2153L18 23.0186V22.3626L18.3936 20.7884L18.7215 19.4109L19.1807 17.5087L19.4431 16.3936L19.7054 16.0656L19.8366 16Z" fill="black"/>
<path d="M21.0002 16.3687L20.3219 16.1141L19.3218 15.9227L18.232 15.6152L17.7941 15.768L17.5375 16.2997L17.5172 16.9454L17.6068 17.0615L18.4032 17.3731L19.434 17.652L19.3546 18.2692L19.0735 19.1533L19.434 19.4241L19.6035 19.9252L18.7722 19.5811L18.6033 20.3491L19.1635 20.3491L19.0735 20.233L18.595 20.5975L18.7722 20.683L18.6378 21.565L18.3344 22.9481L18.6033 23.2964L19.1635 23.494L19.6035 23.4878L19.8886 22.8971L20.2185 21.3083L20.5219 19.9252L20.9352 18.0125L21.1836 16.8942L21.0899 16.4847L21.0002 16.3687Z" fill="black"/>
<path d="M7.01907 23.0234L7.67501 23.089L8.52773 23.2858L9.51164 23.5482L10.2332 23.745L10.43 24.1385L10.102 26.3031L9.83961 27.1559L9.64283 27.4182H9.11808L7.28144 27.0903L6.23194 26.6967L6.03516 26.4999V25.9752L6.23194 25.188L6.6911 23.5482L7.01907 23.0234ZM7.8062 24.5321L7.60941 25.1224V25.5816L8.19976 25.844L8.59332 25.9752L8.8557 25.5816L9.05248 25.0569V24.7945L8.46214 24.6633L7.8062 24.5321Z" fill="black"/>
<path d="M15.2836 24.729H15.8083L17.3826 25.1226L18.4977 25.3849L18.8912 25.5817L18.9568 25.7129V26.3689L18.7601 27.4184L18.4977 27.7463L17.9073 27.6807L16.8578 27.156L16.7266 27.0248L16.7922 26.3689L15.8739 26.1721L15.7427 26.6312L15.546 26.8936L14.8244 26.9592L14.4309 27.6151L14.2997 27.7463H13.8405L13.5125 27.5495L13.3813 27.4184L13.4469 26.8936L13.7093 25.9097L13.9717 25.6473L14.4964 25.8441H14.6932L14.89 25.1226L15.1524 24.7946L15.2836 24.729Z" fill="black"/>
<path d="M7.34641 28.0083H7.80557L8.26473 28.2051L8.33032 28.5331L8.06794 29.3858L7.80557 29.5826H7.08403L7.01844 30.1073L6.69047 30.5009H6.03453L5.31299 30.2385L5.11621 30.1073V29.3858L5.2474 28.861L5.44418 28.5986H6.03453L7.14963 28.7954L7.21522 28.2051L7.34641 28.0083Z" fill="black"/>
</svg>
