<svg width="1316" height="444" viewBox="0 0 1316 444" fill="none" xmlns="http://www.w3.org/2000/svg">
<path d="M269 22H275.75L281 23.1351L284.25 24.2702L287.5 25.8593L290.75 28.3565L292.5 29.9456L294.75 33.1239L296.25 36.5291L296.75 38.7993V44.0207L296 46.745L294 51.0583L291 54.9176L287.25 58.5499L283.75 61.2741L280.75 63.0902L280.5 63.9983L282.25 66.7225L284.25 69.4468L287 73.079L289 76.2573L290.5 79.8896L290.75 80.7976V83.9759L289 92.1485L287 101.229L285.25 109.402L282 124.385L280.25 132.558L278.5 140.503L277.5 144.59L276.5 149.811L275.75 152.535L275 156.849L273.5 161.389L272 163.886L269.75 166.156L267.5 167.746L265.25 168.654L261.25 169.562H258L252.25 168.654L249.75 168.2L244.25 167.064L239.25 166.383L233.25 165.248L228.5 164.567L224 163.659H223L222 165.475L219.5 168.654L216.5 171.832L211.75 176.145L209 178.188L206.5 180.004L204 181.594L200 184.091L197.5 185.453L192.25 188.177L187.5 190.22L184.25 191.582L180.75 192.717L172.5 195.215L169.5 195.669L166.75 196.35L166.5 196.577L165.75 201.344V202.706L168 204.976L170 207.247L171.75 209.29L173 210.879L174.25 211.106L176.75 210.652L177 210.425L181.75 210.198L185.75 209.744L186.25 208.155L189 205.43L190.5 204.522L200.25 203.841H200.75L201.5 201.571L202.25 199.755L204 197.258L206 195.442L208.75 193.853L211.75 192.945L214.5 192.49H217.5L220 192.945L222.5 194.08L224 195.215L225.75 197.485L226.75 199.982L227.5 201.798L228.5 202.025L230.5 201.571H234.25L236.75 202.706L238.25 204.295L239 205.658L241.75 205.43L250.25 204.522H256.5L258.75 205.203L261 206.566L262.5 208.155L263.5 210.198V214.057L259.5 225.408L256.5 233.581L253.75 241.299L252 246.521L251.75 249.018L254.75 250.834L257.5 253.104L259.5 255.828L261.25 259.915L261.5 261.05L261.75 264.909L261.5 273.536L259.5 280.573L257.5 285.114L255.75 287.838L254.75 289.427L252 292.605L250 294.422L247 296.465L244.5 298.054L241 299.643L234.75 301.232L233.25 301.459L229.25 301.686L227.5 305.318L225.25 308.27L223.25 310.086L219.75 311.902L215.5 312.583L207.25 313.718L198.75 314.399L188.25 315.761H187.75L187.5 318.258L187 320.983L185 327.112L182 334.604L180.25 338.236V339.825L180.75 342.322L181.5 345.501V363.889L181.25 368.202L180 374.105V376.148L183.75 377.056L188.75 378.872L192.25 380.688L195.5 383.186L197.5 385.229L200 389.088L201.25 392.039L202.5 397.715V399.985L202 402.709L200.75 406.568L200 407.703L203 408.385L205.5 409.52L206.75 410.655L207 411.109V412.698L206.25 414.06L204.75 414.968L201.75 415.876L199 416.784L190.75 418.373L180.75 419.281L177.25 419.735L173.25 420.189L154 421.098L142.75 421.779L140.5 422.006L124 422.233H100.75L81.5 422.006L69.25 421.325L62 420.871L49 420.189L42.5 419.281L32.25 418.373L23.5 416.557L19 414.741L17.5 413.152L17.25 411.563L17.75 410.428L20.25 408.839L28 406.795L31.75 406.568L37.25 405.887L38.25 405.66L45 405.206L44 398.169L44.25 392.947L44.5 392.039L45.5 382.504L47.75 373.651L49 369.791L50.75 363.889L52.5 357.533L53 355.035L53.5 346.409L53 341.187L52 337.101L50.75 333.923L48 328.474L46.5 326.431L40.5 327.339H37.5L33.5 326.885L30 326.658L25.25 325.75L21 324.388L16.25 322.118L13.25 320.302L9.75 317.577L8 315.988L5.25 312.583L2.5 307.816L1.25 304.41L0.5 301.913L0 298.281V293.286L0.75 288.973L2.25 285.341L4 282.844L6.25 281.027L8.5 280.119H10.75L12.75 280.8L14 281.936L15 283.298L16.25 287.838L18 292.151L20.5 296.011L22.75 298.508L25.25 300.324L27.75 301.686L32 303.048L33.25 303.275H39L39.25 302.367L39.5 286.022L40 284.66L40.25 280.8L38.5 278.303L36 274.671L33.75 270.358L31.75 265.136L31 259.915V253.785L31.75 247.429L34 240.845L36.25 235.624L38.75 231.311L40.75 228.132L42.5 225.635L44.5 222.911L47.5 219.279L49.75 216.781L53.25 212.922L56.5 208.836L59.25 205.43L61.25 202.252L62.25 200.209L60 201.117L56 202.933L52.25 204.295L47.5 205.658L43.75 206.112L39.5 206.339H36L31 205.885L28 205.203L23.5 203.614L19.25 201.571L16 199.528L13.25 197.485L11.25 195.896L9.5 194.08L7.25 191.582L4.75 187.723L2.75 183.183L1.25 178.188L0.5 174.102V169.335L1.5 163.886L2.5 159.346L4.75 153.443L8 147.314L11.5 142.32L15 137.779L17.75 134.147L21 129.607L23 127.109L25.75 122.796L28 118.937L28.25 118.029L26.5 117.348L23.75 116.439L21 114.85L18.5 112.807L16.75 110.764L15.25 107.813L14.25 104.635V101.002L15.75 96.0079L18.25 91.2405L20.75 87.3812L23.75 83.5219L27 79.8896L29.25 77.6194L30.5 76.2573H31L31.25 75.5762L33.25 73.9871L36.5 71.2629L39.25 69.2197L42.25 66.9496L46.25 64.2253L50 61.9552L51.75 60.8201H52.25L50.5 59.0039L47.5 56.2797L45.5 53.3285L45 51.2853L45.25 49.0151L46.25 47.426L48.25 46.0639L51.25 45.3828L54.5 45.6099L57 46.745L58.25 47.88L60 49.6962L62.75 54.0095L64.25 53.5555L69.25 50.8313L73.75 48.3341L81 44.7018L88.25 41.5235L93 39.7074L97.25 38.5723L100 37.6642L104.75 36.5291L106.25 36.0751L112.75 35.167L117.75 34.486H120.5L126 35.3941L129.75 36.5291L134 38.5723L136.25 40.1614L139 42.6586L140.75 45.1558L142 47.653L142.5 49.0151L143 54.0095L142.5 58.7769L141 62.8632L139.5 65.5874L137.75 67.8576L137 68.7657L137.25 69.4468L141.5 71.2629L145.5 73.079L149.75 75.3492L152.25 77.1654L155.5 79.8896L158 82.3868L160.75 85.792L163.25 89.6513L166 95.0998L168.25 98.278L170.75 100.548L172.25 101.456L176 103.045L183 104.408L188 104.862L189 105.089L189.5 102.591L190.75 97.824L192.5 91.0135L194.5 82.6138L196.75 73.7601L198.25 68.7657L200.5 64.9064L203.25 62.1822L205.5 60.366L209 57.8688L211.75 55.8257L222.25 48.3341L227.5 44.7018L232.75 41.5235L236.75 39.7074L239.5 39.0263H242L242.5 37.6642L244 35.3941L247 31.7618L250 29.0376L253.75 26.5404L257.75 24.4972L261.25 23.3621L267.25 22.227L269 22ZM268 28.3565L265 29.0376L260.25 30.6267L256.25 32.6698L253.5 34.713L251.5 36.7562L249.75 39.0263L250.5 39.7074L255 41.0695L260 42.2046L264 43.7937L266.75 45.6099L269.75 49.4692L273.75 54.6906L277 58.7769L279.75 57.1878L282.25 55.3716L284.75 53.1015L287.25 49.6962L289 46.0639L289.5 44.2478V39.2534L288.5 36.5291L286.5 33.8049L284.25 31.7618L281.5 30.1726L278 28.8105L275.75 28.3565H268ZM239.75 44.0207L237.25 44.9288L234.5 46.745L231.25 49.2422L228.75 51.0583L225 54.0095L222.25 56.0527L220 57.8688L217.5 59.685L214.25 62.1822L211 64.4524L208.5 66.4955L206.5 68.0846L205.25 70.1278L203.5 75.8033L202 82.6138L200.25 89.4243L199 93.9647L197.75 99.4131L196.75 103.953V105.089L199 105.77L207 107.586L211.75 109.402L215 111.218L218.5 113.488L221.25 115.758L223.75 118.71L226.25 122.796L228 126.428L228.5 127.563H229.25L230.75 120.753L231.5 116.666L232.25 113.942L231 113.034L226.5 110.764L224 108.948L222 106.905L220.75 104.635L220 102.137V98.7321L221.25 94.6457L222.5 92.6026L224 91.0135L226.5 89.4243L230 88.0622L232.5 87.6082L236.25 87.3812L236.75 86.0191L237.25 83.5219L238.5 81.7057L239 81.2517H241L243.25 81.7057L244.5 82.3868L244.75 82.8408V84.4299L244 87.6082V88.7433L246 89.6513L250.75 91.4675L253.75 93.2836L255 94.4187L255.75 95.5538V98.051L254.75 99.6401L253.25 100.321L251 100.094L248 98.505L246 97.37L243 96.0079L242.25 96.2349L241 103.045L240 107.586L240.25 108.494L246.5 111.672L249 113.488L251 115.758L252.25 118.483L253 121.207V123.704L252 127.109L250.75 129.379L249 131.65L247 133.239L244 134.601L239 135.963L235 136.644L234.75 136.871L234.25 140.503L234 141.411L233.25 141.638H230.75L230.25 141.865L228 153.443L226.5 157.757L228.25 158.211L233.25 158.892L235.5 159.573L243.25 160.708L249.5 161.843L253.25 162.297L257 163.205L260.25 163.432L262.5 163.205L265 161.843L266.75 159.8L267.75 157.076L268.75 152.535L270 147.314L271.25 141.638L273 133.466L275 124.839L276.5 117.802L277.75 112.58L279 106.678L281.75 93.9647L283.25 87.1542L283.75 82.6138L283.25 79.4355L282 76.4843L279.5 72.398L276.25 67.8576L273.75 64.4524L269.75 58.7769L267.25 55.3716L263.75 50.1502L262.5 48.7881L257.5 46.2909L253.5 45.6099L248.75 44.7018H247.25L246.5 46.745L246 51.9664V56.0527L246.5 58.7769L249 60.366L250.5 63.0902L250.75 63.7713V67.1766L249.25 69.9008L247.5 71.0359L245.5 71.7169L242.5 71.9439L239.75 71.4899L237.25 70.5818H236.75L236.25 69.6738L235.25 68.3117L234.75 66.4955V63.0902L235.5 61.0471L236.75 59.685L238.75 58.5499L239 51.5123L240.25 44.7018L240 44.0207H239.75ZM131.25 74.4411L128.75 75.3492L125.25 76.7113L122.75 77.8464L119.75 78.9815L113.25 81.4787L108.75 83.2948L102.25 85.792L99.75 86.9271L95.75 88.5163L93.5 89.4243L89.75 91.0135L79.75 95.3268L70 99.8671L64 102.591L61.5 103.499V104.408L63.75 106.678L67 110.764L70.25 116.212L72.25 120.072L74.5 125.747L76.25 131.423L77.5 136.19L78.5 142.092L79.5 150.946V162.297L78.75 167.973L77.25 175.01L75 181.594L72.75 186.361L69.75 191.355L68.25 194.08L68.5 195.896L69.75 197.031L73.75 199.074L79.5 201.571L81.5 202.479L88.25 204.749L92.75 206.112L100 207.701L109 208.836L113 209.29H124.25L136.25 207.928L146.25 205.658L151 204.068L155.25 202.252L157 200.89L158.25 199.982L158.75 199.074V197.712L158.5 197.258L155 197.031L153.75 196.123L153.25 195.442V194.08L154.5 192.263L155.5 191.809L160.5 191.128L162.25 190.674L165.5 190.22L172.5 188.404L177.5 186.815L184.5 184.318L188.5 182.502L192.75 180.459L197.75 177.734L202 175.01L206.25 171.832L211.75 166.837L215.5 162.297L217.25 159.573L219 156.168L220.75 151.854L222.5 145.044L222.75 140.503V137.098L222.5 134.147L220.5 127.109L217.75 122.342L215.75 120.072L213.5 118.029L210.25 115.985L206.25 114.169L204.25 113.488L201.75 113.034L198.25 112.126L194.25 111.672L189.25 111.445L178.75 110.31L174 109.402L169.25 107.586L165.75 105.316L163.5 103.499L161.75 101.683L159.5 98.505L156.75 93.2836L155.75 91.0135L153.75 88.2892L151.75 86.0191L147.5 82.1598L143 79.2085L138.75 76.9383L133.5 74.8952L131.25 74.4411ZM233.5 94.8728L230.5 95.7808L228.5 97.37L228 100.321L228.25 102.364L230 104.18L232 105.543L233 105.77L234.25 101.002L235 95.7808V94.8728H233.5ZM239 116.212L238.5 118.483L237.75 124.612L237 128.017V128.925L239.25 128.698L242 127.79L244 126.201L244.75 123.931L245 121.434L244 118.937H243.5L243 118.029L240.75 116.666L239 116.212ZM214.75 200.89L212.5 202.252L211 203.841L210.75 205.658L211.75 207.247L213 207.701H215L216.75 206.793L218.25 205.203L218.75 204.068L218.5 202.252L216.75 200.89H214.75ZM68.5 204.295L66.25 207.474L63.75 210.652L60.75 213.83L57.75 217.462L55.5 219.733L53.75 221.776L51.25 224.727L47.25 230.175L45.75 232.673L43.25 236.986L41 241.753L39.5 245.84L38.5 250.834L38 254.92V258.553L39 264.228L40.75 268.996L43.5 273.763L46.5 277.395L48.75 279.665L51.5 282.163L56.25 285.341L60 287.384L66.75 290.335L71 291.697L75.75 293.059L84.75 294.422H94.75L96.25 293.967H99L102 295.103L104 296.465L108.25 297.827L112.25 298.281H114.75L118.25 298.054L123.5 296.692L126.5 295.784L127.5 295.33L129 295.557L131.25 297.146L132.75 298.054H134.25L136.25 296.919L137.75 295.33L138.25 293.967L138 292.151L136.75 289.881L134.75 288.065L132.25 286.703L129.75 285.568L127.5 285.114L126 284.206L125.25 283.298L125 281.482L126 279.665V279.211H131L132.75 279.892L136 281.482L138.5 283.298L140 284.433L141.75 286.249L143 286.93L144.25 286.703L146.5 284.887L148.25 281.027V278.076L146.75 275.806L144.5 273.99L139 271.266L133 269.223L131.75 268.541L131.25 267.179V265.59L132 264.455L134.25 263.32L136.5 263.774L140.5 265.136L145.75 267.406L151 270.585L152.25 270.131L154 268.314L154.75 266.271V263.32L153.75 261.05L152 259.007L150.75 257.872L149 256.51L145.5 254.693L142.75 253.558L137.5 251.969L136 251.742H124.25L120.5 252.423L116.25 253.785L112.25 255.601L107.5 258.326L102.75 260.369L98.5 261.05H94L89.75 260.369L84.5 258.099L82 256.283L79.5 254.012L77.75 250.834L76.75 248.11V243.115L77.5 239.71L79.5 234.489L80.5 232.9L81 232.673H84.25L85.5 233.354L86 234.489L85.75 236.986L84.75 239.71L84.25 241.299L84 242.888V247.656L85 249.926L86.5 251.742L89 253.331L91.5 254.239L95.5 254.92H98.75L102 254.012L107.25 251.288L112.5 249.018L116.5 247.883L119.5 246.975V246.521L117.25 244.932L114.75 242.888L113 241.299L112 239.71V237.213L113.25 235.17L114.5 234.262L116.25 233.581L118.5 233.808L121 235.17L124.5 237.667L127 239.483L129.75 241.299L133 243.57L135.75 245.386L139.5 245.84L145.25 247.656L146.75 247.883L148 244.932L150.25 239.483L154 229.04L156.5 222.003L157.75 219.052L159.25 216.554L160.5 215.192L163.5 213.376L165 212.695V211.787L163.5 209.744L161.75 207.928L160.75 207.02L159.25 207.474L156.5 208.836L152.25 210.652L146.75 212.468L140.75 214.057L132.25 215.646L128.75 216.1L122.25 216.554H113.5L106.25 216.1L101.5 215.419L94.25 214.057L86.25 211.56L78.75 208.836L68.75 204.295H68.5ZM249 211.56L239 212.695L238 212.922L236.25 217.689L235.75 219.733L233.75 222.911L231.5 224.273L229 224.954L218 225.635H216L207 226.543L191.75 227.451L188.75 227.905H185L182.75 226.543L182.25 225.862L182 223.592L182.75 219.96L183.5 217.916V217.235L179 217.462L174.5 217.916L170.25 218.143L167.5 218.598L165.5 220.187L164 222.457L162.5 225.862L160.75 230.857L159 236.078L157 241.299L154.75 246.975L153.5 250.153L152.75 250.834L153 251.742L156.25 254.466L158.5 256.737L160 259.007L161.25 262.412L161.5 263.547V267.179L160 270.812L158.25 273.309L157 274.444L155 275.579L154.5 275.806L154.75 277.168L155.25 278.303V280.573L153.5 285.795L151.75 288.519L150 290.335L147 291.924L144.75 292.605L144.5 296.465L143.75 298.735L142.25 300.778L139.75 302.367L137 303.275L135.75 303.502L131.5 303.729L131 305.091L129.75 309.859L129 312.583V313.945L129.25 314.399L131.5 314.626L140.5 313.945L147 313.037L158.5 312.129L165.75 311.221L174 310.54L181.5 309.632L182.25 309.405L193.5 308.497L198.25 307.816L200.25 307.589L205.5 307.362L210.5 306.908L217.5 305.772L218.75 305.318L220.75 302.821L221.75 300.324L221.5 299.416L220.5 298.508L218.25 297.146L215.5 294.649L213.5 291.697L212.5 288.519V285.114L213.75 281.254L215.25 279.438L217 278.076L217.25 277.622V276.033L216.75 273.536V270.812L217.5 267.406L219.25 265.136L220.5 264.001L222.5 262.639L225 261.504V258.099L226 255.147L227.75 252.196L230.25 249.926L235 247.656L239 246.975L242.25 246.748L244 246.975L250.5 229.267L252.5 223.592L254.5 217.689L255.75 213.83L256 211.56H249ZM237.25 253.104L234.5 253.785L232.75 255.147L232 256.51L231.75 258.78L232.75 260.823L235 262.412L240 264.228L243.25 265.363L243.75 266.044V268.768L242.75 269.677L242 269.904H238.75L235 268.996L232.5 267.86L229 266.498H227L224.75 267.86L223.25 269.677L223 270.131V272.174L224.75 275.352L226.75 277.168L229.25 278.757L233.75 280.119L236.25 281.027L237.25 282.163L237.5 282.617V283.979L236 285.568L235.25 285.795H232.25L229 285.114L224.75 283.071L222.75 281.936H221.5L219.5 283.752L219 284.66V287.157L220 289.427L221.75 291.47L223.75 293.059L227.25 294.649L229.75 295.103H236L238.25 294.649L242.25 292.832L244.75 291.243L247.25 289.2L249.25 286.93L251.75 283.298L253.75 278.984L254.25 277.622L255 274.217L255.75 271.493V264.682L254 259.915L252 257.418L249.5 255.374L246 253.785L242 253.104H237.25ZM46.75 287.384L46.5 289.427V301.686L47.25 308.27L49 315.534L51.25 321.437L54.25 327.112L56.25 330.517L58 334.377L59.5 340.279L60 343.003V352.765L58 362.981L55.75 370.7L54.25 375.467L52.75 380.915L51.75 386.137L51.25 388.18L50.75 392.72V399.077L51.5 402.255L53.5 405.887L55.25 407.703L59.25 409.974L63.25 410.882L68 411.563L90.75 411.79L91.75 411.336L93 408.385L93.5 406.795V402.482L91.75 397.942L90.5 395.899V394.536L91.5 393.174L92.25 392.72L93.75 392.947L96 394.536L97.25 395.899L99 398.623L99.75 401.801V408.839L99.25 411.563L99.5 411.79H111L112 410.655L113.25 407.931L113.75 404.525L113.5 401.574L112.25 398.85L109.5 394.536V392.72L110.5 391.358L112.25 391.131L114.5 392.493L116.5 394.536L118.75 398.169L120.25 403.163L120 407.476L119 411.109L119.25 412.017L122.25 411.79L125.75 410.655L128 409.293L129.75 407.249L130.75 405.66L131.25 402.936L131 398.396L130 395.445L128.25 392.266L125.25 389.315L122.25 387.045L118.75 385.229L115.75 383.867L111.75 382.504L110.25 381.369L110 380.915V376.602L111.75 368.883L112.25 364.797L113.25 359.576L113.75 352.538L114 344.138L115 343.23L117 343.003H123.5L127.75 342.549L134 340.96L138 339.371H140.75L141.5 339.598L142 340.733L142.25 341.187V343.003L141.25 344.138L138.25 345.501L130.75 347.771L130.5 348.679L131 352.992L131.25 358.441L131.5 359.122V362.527L131 370.018L130.25 376.602L129 381.823L128.75 384.321L132 387.045L133.75 389.315L136.25 394.082L137.5 400.212V404.752L136.5 408.839L136.25 410.201L137 410.428L145 410.655H155.5L163.25 410.428L164.25 409.52L165.25 405.887V401.347L164.25 398.623L162.5 396.58L161 394.309V393.174L162.25 392.266L163.25 392.039L166.5 392.72L169 394.763L171.25 398.85L171.75 402.936V407.022L171 410.655L178.75 410.428L180 409.974L181.75 407.703L182.25 405.206V401.574L181.75 398.623L178.25 393.628L178.75 392.266L179.25 391.358L179.75 391.131H182.25L185 392.947L186 394.082L186.75 394.763L188.5 398.169L189 399.985V406.341L188.5 408.839L190 408.612L192 407.249L193.75 405.433L195.25 402.709L195.75 401.12V396.58L194.75 392.947L192.75 389.769L190.75 387.499L188.75 385.91L185.25 383.867L182 382.732L179 381.823L176 381.596L173.75 380.915L172.75 380.007L172.5 379.553V377.283L173.75 372.289L174.25 367.975L175 356.624V352.765L174.25 343.457L174 341.868V336.874L174.75 334.377L175.75 332.561L178.25 326.204L179.5 322.799L180.25 319.393L180.5 316.215L178 316.442L173.25 317.123L166.5 317.577L154.5 318.939L150.25 319.166L139.75 320.529L137.25 320.756H127.75L125.25 319.848L122.75 317.804L121.75 315.988L121.5 313.491L122 310.313L123.25 307.135L124.25 303.048L117.75 303.729L114 304.183H110.5L107.75 303.729L102.5 302.821L97.5 300.551L96.75 300.097L92 300.324H86.25L82 300.097L76.25 299.416L67.5 297.146L62.25 295.33L59.25 293.967L53.75 291.243L48.5 288.065L47.5 287.384H46.75ZM122.25 349.133L120.25 349.36L120 350.268L119.25 361.392L118.5 368.656L116.75 377.51L117 378.645L121.25 380.234L122.5 380.007L123.25 377.283L124.75 369.337L125.25 364.343V355.489L124.75 351.63L124 349.36L123.75 349.133H122.25Z" fill="white"/>
<path d="M287.75 241.753H401L404.5 242.207L408.5 244.024L411.5 246.521L412.75 247.429V247.883H413.25V248.337H413.75L415.5 250.153L418.25 252.65L418.75 252.877V253.331L419.75 253.785L423 256.737L425 258.326L427.5 260.596L429.25 262.866L430.75 266.044L431 266.952L432 267.179H435L437.5 267.633L441 269.223L442.5 270.358L444.25 272.855L445.25 275.352L445.75 278.757L445.5 282.617L444.75 285.341L443 288.292L440.75 290.562L438 292.151L435 292.832L430.75 293.059L431 320.983L433.25 322.799L435 325.069L436.75 328.928L437.25 330.744V333.696L436.25 336.874L435 339.598L433 342.095L431 343.911V373.197L434 375.921L435.5 377.964L437 381.596L437.25 382.505V387.045L435.5 391.131L433.5 393.401L431 395.445L430.75 416.784L430.5 419.281L428.5 422.914L426.5 424.73L423.5 426.092L420.75 426.773L418.75 427H288L284.75 426.092L282.25 424.73L280.25 422.687L279.25 420.644L278.75 417.692V413.833H226.75L223.5 413.379L221 412.471L217.75 410.201L216.25 408.385L215.25 406.795L214.25 402.709L214 401.574L213.5 370.246L213.25 360.938V341.187L215.25 336.193L217.25 333.696L218.5 332.334L220.5 330.971L223.5 329.609L226 328.701H278.75V249.245L279.5 246.521L281 244.478L283.5 242.889L286 241.98L287.75 241.753ZM288 248.337L286.75 249.018L285.5 250.607L285.25 385.002V416.784L286 418.6L287.75 420.417L289 420.644H420L421.75 419.962L423.25 418.373L423.75 416.784V397.715L423 397.261H392L389.75 397.034L385.75 394.991L383.25 392.72L381.5 389.996L380.25 386.137V382.505L381.5 378.872L383.25 376.375L385.5 374.332L388.75 372.516L391.5 371.608L423.5 371.381L423.75 370.246V347.09L392.5 346.863L389 345.955L386.5 344.593L384 342.549L382 340.506L380.75 338.236L379.5 335.058V330.063L381.5 325.523L383.75 323.026L385.75 321.437L389.25 319.848L391 319.394H392.75L394 318.94L414.75 319.167H423.5L423.75 318.258V293.514L423.5 292.832H399L392.75 292.605L389.5 292.151L385.5 290.108L384 288.746H383.5L383 287.838L381.5 285.795L380.25 281.936V279.211L381.5 275.125L383.25 272.628L385.75 270.358L389.75 268.542L393 267.86L397.75 267.406H414L423.5 267.179L423 266.271L419 262.412L411 255.147L409 253.558L405.5 250.38L403 248.791L401.75 248.337H288ZM405.75 273.082L405.5 273.536L406.25 276.033V282.39L405.5 284.66L404 286.476V287.157L404.5 287.384H429.5L433.5 286.93L436.25 285.568L437.75 283.979L438.75 281.028V278.53L438 276.26L436.25 274.444L434.5 273.309L418.5 273.082H405.75ZM393.25 273.763L390.5 274.671L388.5 276.26L387.25 278.303L387 279.211V281.255L388.25 283.525L390.25 285.341L391.75 286.022H395.75L397.75 285.114L399.5 283.752L400.75 281.482V278.757L399.25 276.033L397.5 274.671L395 273.763H393.25ZM409.75 325.069L409.25 325.75L410 326.658L411.5 326.431L411.75 325.296L411.5 325.069H409.75ZM421.25 325.523L419.25 326.204L417.25 327.566L416 329.382L415.75 330.29V333.696L416.75 335.966L418.75 338.009L421 339.144H424L426.25 338.236L428.25 336.647L429.5 334.831L429.75 334.15V330.971L428.75 328.701L426.75 326.658L424.25 325.75L423.25 325.523H421.25ZM387.75 328.474L387.25 328.701L387.5 329.382L388 328.474H387.75ZM228.75 335.058L225.75 335.512L223 337.328L221.25 339.144L220.5 340.733L220.25 343.23L220 351.63L220.25 368.656L220.5 401.574L221 403.844L223 406.341L226 407.931L227.25 408.158H278L278.75 407.931L279 381.823V354.808L278.75 335.058H228.75ZM405.5 377.737L406.25 380.234L407 383.186V385.456L405.5 390.223L405.25 391.358H424.75L427.25 390.45L428.5 389.315L429.75 387.953L430.5 385.456L430.25 382.732L429.25 380.234L427.25 378.418L425.75 377.737H405.5ZM392.5 377.964L390.25 379.099L389 380.234L387.5 382.278L387 383.64V386.137L388 387.953L389.75 389.769L391.5 390.677L392.75 390.904H395.5L397.75 389.996L399.75 388.407L401 386.137L401.25 383.64L400.5 381.369L398.75 379.553L396.75 378.191L396 377.964H392.5Z" fill="white"/>
<path d="M331.25 158.892H335L342.75 159.346L348 160.027L352 160.481L359.5 162.297L363.5 164.113L366.25 165.929L368.25 168.199L369 169.561V173.875L368.75 182.728L372.5 182.047L375.5 181.593L380.25 181.366H394.25L399.5 181.593L408.75 183.183L413 184.318L417 185.907L419.75 187.496L422.25 189.766L423.5 191.809V224.954L422 227.678L420.25 229.494L417.75 231.083L414.75 232.445L408.75 234.262L399.25 235.851L394.5 236.078H381.5L373.75 235.851L367.75 234.716L363 233.808L358.25 232.218L354.75 230.402L352.75 228.813L351 226.543L350 224.273V212.695L340.5 213.83L334 214.057H328.75L322.75 213.83L313.5 212.695L306 210.879L301.5 209.063L298.75 207.246L297 205.43L295.5 202.706L295.25 200.89V185.226L295.5 170.47L296.75 167.291L298.5 165.248L301.75 163.432L304.5 162.297L311.25 160.481L316 159.8L322.75 159.119L331.25 158.892ZM326.25 164.794L320.5 165.021L315.25 165.702L309.5 166.837L306.75 167.745L303.5 169.334L302.5 170.242L302.75 171.378L304.25 172.513L307.75 174.329L313 175.918L319.25 176.826L326 177.507H340.5L343.25 177.28L347.5 176.599L352 175.918L356 174.556L359 172.967L361.75 170.697L361.5 169.788L359.5 168.653L354.75 167.064L353 166.61L349 165.929L345.25 165.248L342.75 165.021L337 164.794H326.25ZM302.5 178.869V186.815L304.75 188.177L309 189.766L317 191.582L323.5 192.263L331.25 192.717H336L345.75 192.036L349.5 191.582L351.5 190.447L353.25 188.404L355.5 187.042L359.5 185.226L361.75 184.318V179.323L360.25 179.55L356 180.912L350.25 182.274L343 182.956L337.75 183.183H330.25L323.75 182.956L316.25 182.274L307.5 180.458L303 178.869H302.5ZM383 187.042L377.5 187.496L371 188.177L366.5 189.085L362 190.447L358.25 192.263L357 193.398L357.75 194.533L360.25 195.896L362.75 197.031L368.75 198.62L374 199.301L378 199.755L382.75 199.982H393L396.25 199.755L397 199.528L403.25 198.847L407.25 197.939L411.5 196.804L414.75 195.214L416.25 194.079L416.75 193.171L415.5 192.036L411.25 189.993L405.75 188.404L403.5 187.95L397.5 187.496L392 187.042H383ZM302.5 193.625V202.025L303.5 202.933L306 204.295L310.75 205.884L319.75 207.473L324.5 207.927H339L344.5 207.473L349.5 206.565L350 206.338V197.258L347.5 197.712L344.5 198.166L341.5 198.393H326L320.75 197.939L311.5 196.577L304 194.306L302.5 193.625ZM357 201.117V208.836L357.75 209.744L362 211.56L367.25 213.149L376.75 214.738L381.5 214.965H393.75L398.75 214.511L406.75 213.149L412.75 211.333L416.25 209.517L416.75 209.063L417 201.117L415.75 201.344L409.5 203.387L401 204.976L397.5 205.43L384.75 205.657L374.75 205.43L371 204.749L368.75 204.295L364 203.387L358 201.344L357 201.117ZM357.25 216.1V224.954L358.5 225.635L362.5 227.224L368 228.813L370.5 229.267L377.75 229.948L381.75 230.175H391.75L396.25 229.948L404.5 229.04L408.5 228.132L412.75 226.77L416 225.181L416.75 223.138V216.327L415.5 216.554L412.5 217.689L405.5 219.505L397 220.413L394.5 220.64H381L374.5 220.186L368.5 219.505L360.75 217.462L357.5 216.1H357.25Z" fill="white"/>
<path d="M371.25 34.2588L375 34.7128L378.75 35.6209L382.25 37.21L385.25 39.7072L387 41.9774L388.5 44.9286L388.75 46.2907V50.15L388.25 53.3283L386 57.1876L385.25 57.6416L385.75 58.7767L387.75 61.0469L390.25 64.2252L393.5 68.3115L395.5 70.8087L396.75 72.3978L397.75 72.1708L403.5 68.5385L412 63.0901L416.75 60.1388L421.5 56.9606L425 54.9174L427.5 53.7823L428.5 53.5553H430.25L432.5 54.2364L434.75 56.0525L435.5 57.4146L435.75 59.2308L435.25 62.636L433.75 66.9494L432.5 71.2627L430 79.4354L427.75 86.927L425.75 93.9645L424.75 97.5968L423.5 102.818L420.5 115.531L419 122.796L417.75 129.606L416.25 138.006L415.5 140.049L414 141.638L411 143.227L403 145.044L395.75 145.952L384 147.087L377.25 147.314H362.25L355 147.087L346.25 146.179L339.25 145.271L334.25 143.908L332.25 143L330 141.184L328.5 138.46L326.75 130.968L325.25 122.796L323.5 114.169L322.25 108.494L319.5 96.9157L316.5 85.3378L314 76.7111L312.75 72.8518L311.75 69.4466L308.75 61.2739L308.5 59.9118V57.8687L309.75 55.5985L311.5 54.2364L313.5 53.5553H315.75L318 54.2364L321.5 56.0525L326.5 59.0037L330.25 61.2739L333.75 63.3171L339.75 66.9494L343.75 69.4466L347.5 71.7167L348.75 72.1708L352.5 67.1764L354.5 64.6792L357.25 61.0469L359 59.0037L359.5 58.0957L357.25 54.9174L356 52.4202L355.5 49.923V47.4258L356 44.4746L358 40.8423L360.75 38.1181L363.25 36.529L366.25 35.3939L371.25 34.2588ZM369.5 40.6153L367.25 41.2963L365.25 42.6585L363.5 44.9286L363 46.0637V50.8311L364.25 53.1013L366.75 56.2795L367 58.5497L366.25 60.1388L363.75 63.3171L362 65.5873L358 71.0357L356 73.3059L353.5 76.7111L351.75 78.5273L349.5 79.6624L348 79.4354L344 77.3922L340 74.895L327.25 67.1764L321.75 63.9981L318 61.955L317.25 61.728L317 62.182L319 68.7655L321.5 76.9382L323.75 85.1108L326 93.7375L328.75 105.542L330.25 112.58L332.75 125.293L333.75 130.968L334.5 135.282L335.25 137.098L336.25 138.233L338.5 138.914L345.75 140.276L350 140.73L355.75 140.957L362.5 141.411H378L383.5 141.184L384.25 140.957L390.5 140.73L397 140.049L406 138.687L408.5 137.779L409.75 136.644L411.25 127.336L413.25 116.439L415.25 106.905L416.25 102.818L417.25 98.5049L421.25 83.9757L422.5 79.6624L424.25 73.5329L427 63.9981L427.5 62.863V61.955L426.25 62.182L422.25 64.4522L417.5 67.4034L415 68.9925L406 74.441L401.5 77.3922L398.25 79.2083L397 79.6624L395.25 79.4354L393.75 78.7543L392 77.1652L389.75 74.441L386.5 70.3546L383.25 66.0413L380.75 63.0901L379 60.5929L377.5 58.0957L378.25 56.0525L380 53.7823L381 52.4202L381.5 50.15V46.9718L380.75 44.7016L379 42.6585L377 41.2963L375.75 40.8423L374.25 40.6153H369.5Z" fill="white"/>
<path d="M319.5 262.639H350.5L354 263.093L358.75 265.136L362 267.407L364.75 269.904L367 273.082L368.75 277.849L369 281.028L368.5 284.433L366.75 289.2L364.75 292.151L363 293.968L360.25 296.011L356.75 297.827L352.25 299.189L349.75 299.643H318.75L314.75 298.508L310.75 296.692L308.25 294.876L307 293.741L304.75 291.47L302.75 287.838L301.5 283.752L301.25 282.39V278.757L302.25 274.898L303.5 272.174L305.5 269.677L308.25 267.18L311.75 264.909L316.5 263.093L319.5 262.639Z" fill="white"/>
<path d="M330.75 360.03L332.25 360.257L335.25 361.846L339 364.116L344.25 367.067L349.25 370.019L354 372.743L357.75 375.013L360 376.602L360.75 377.51L360.5 378.872L359 380.461L356.5 380.688H351.75L352 381.142V395.899L356.5 396.126L357.75 396.807L359.25 398.396V400.212L357.5 402.028L357 402.255H306L304 400.893L303 399.531L303.5 398.169L305.5 396.126H309.75V381.142L310 380.688H304.75L302.75 380.007L301.5 379.099L301 377.737L301.75 376.602L304 374.786L309 372.062L313.75 369.338L317.5 367.294L323.75 363.662L328 361.165L330.75 360.03ZM318.5 380.688V396.126H326.5L326.75 380.688H318.5ZM335.75 380.688L335.5 386.591V395.672L335.75 396.126H343.25L343.5 395.899V380.688H335.75Z" fill="white"/>
<path d="M313.5 312.81H318.5L323.75 314.399L327.75 316.442L329.75 317.577L331.75 317.804L333.75 316.896L337.5 314.853L341.5 313.264L343.25 312.81H349.25L353.75 314.172L356.5 315.761L360.75 319.621L362.75 322.572L364.5 326.885L365 329.382V335.058L363.25 339.825L361.75 342.322L360 344.366L356.5 347.544L353.25 349.36L348.75 350.722L346.25 351.176H342.5L338.5 350.041L334.5 348.225L331.5 346.636L330.5 346.409L325.75 348.679L323.75 349.587L319.5 350.949L318.25 351.176H314L310.75 350.268L307.75 349.133L305 347.317L303.25 345.955L301 343.457L299.25 340.96L297.75 337.782L297.25 336.42L297 333.469V330.744L297.25 327.339L299 322.799L300.5 320.529L302.5 318.258L304.5 316.442L308 314.399L312.5 313.037L313.5 312.81ZM314 318.486L310.25 319.394L307.5 320.983L305.25 323.253L303 327.566L302.5 329.609V334.604L303.5 337.555L305 340.052L307.75 342.776L310.5 344.366L313.75 345.501L315.75 345.955H317.75L321.5 344.82L325.5 343.003L329.25 341.414L331 341.187L333.75 342.095L338.75 344.593L343.25 345.955H346.25L350 344.82L352.5 343.684L355 341.868L357 339.825L359 336.193L359.5 334.604L359.75 331.199L359.25 328.02L358 325.296L356.25 322.799L355.25 321.664L351.75 319.621L348.5 318.713L347.25 318.486H343.5L341 319.167L337.5 320.983L335.25 322.345L332.5 323.026H329.75L327.25 322.345L322.5 319.848L321 319.167L318.5 318.486H314Z" fill="white"/>
<path d="M197.5 122.796H201.75L205.5 123.25L209.25 125.066L212 127.563L214 130.742L214.5 131.877L214.75 133.466V137.098L214.25 139.141L212 142.773L208.5 146.179L206 147.768L203 149.13L199.25 150.265L197.25 150.719H193L189.75 149.811L186.25 148.222L183.75 146.179L182.25 144.363L180.5 141.184L180 139.595V135.055L181.5 131.65L183 129.379L186 126.655L189.5 124.839L194.75 123.023L197.5 122.796Z" fill="white"/>
<path d="M318.75 268.314H327L330.75 269.677L332.75 271.039L335.5 273.763L337.5 278.303L337.75 279.438V282.617L337.25 284.433L335.5 288.065L334 289.881L333 291.016L330.75 292.605L328 293.74L324.5 294.649H321.25L317.75 293.967L313.5 292.378L310.75 290.335L309.25 288.292L307.75 285.114L307 282.39V279.211L308 276.26L309.25 273.99L311 271.947L313.5 270.358L317.5 268.768L318.75 268.314Z" fill="#3F6981"/>
<path d="M384.5 87.3813H386.75L388 88.0624L389 89.4245V91.9217L388.25 93.2838L385.25 97.1431L380.25 103.954L377 108.267L374.25 111.899L372.25 114.396L370.75 116.667L369 118.937L366.75 122.115L365 124.385L363 127.109L361.75 128.245L359.75 129.38L357.5 129.153L355.5 127.791L355.25 127.337L355.5 125.293L357.25 122.796L361.5 117.121L364.75 112.807L369 107.132L371.75 103.5L374.25 100.094L378 95.1L381.5 90.3326L383 88.5164L384.5 87.3813Z" fill="white"/>
<path d="M395.25 325.069L409.5 325.296L410 326.431L410.75 326.885H410.25V335.512L411 337.782L412 339.598L411.75 340.506L410.5 340.733H403L391.75 340.506L389.25 338.69L387.25 336.42L386.75 335.285L386.5 332.787L387 328.928H387.75L388 327.793L389 326.658L391.5 325.296L395.25 325.069Z" fill="#3F6981"/>
<path d="M387.25 108.721L389.75 108.948L393 110.083L395 111.445L396.25 112.807L398 115.985L398.25 117.12V120.98L397 123.931L395.5 125.974L393.5 127.563L389 128.925H384.75L381.75 128.017L379.25 126.655L377.5 124.839L376.25 122.115L376 121.434V118.709L377.25 114.85L379.25 112.353L380.5 111.218L382.5 110.083L386.25 108.948L387.25 108.721ZM386.25 115.531L385 116.212L384 117.347L383.5 118.482V120.299L385 122.342L386.75 123.023L388.75 122.796L390.25 121.888L391 120.526V117.574L390 116.212L389 115.531H386.25Z" fill="white"/>
<path d="M354.25 87.3813H360L362.25 87.8354L364.75 89.1975L366.75 91.2407L368 94.6459L368.25 95.781V97.8242L367.25 101.456L365.5 103.954L362.5 105.997L359.5 106.678H354.75L352.25 105.997L349.5 104.408L347.75 102.592L346.25 99.8673L346 98.9593V96.9161L347 93.9649L348.75 90.7866L351 88.7435L353.25 87.6084L354.25 87.3813ZM357.25 93.2838L355.5 93.9649L354.25 94.8729L353.5 96.9161L354 98.5052L355 99.8673L356.5 100.775H358.5L360.5 99.4133L361.25 98.2782V95.554L360.25 94.1919L358 93.2838H357.25Z" fill="white"/>
<path d="M116.75 165.476L118.25 165.703L120.25 167.292L123 169.562L127 171.832L131 173.194L132.75 173.648L135 173.875H140L143 173.421L145.5 172.74H148L149.5 173.875L150.25 175.01L150.5 176.372L149.75 177.735L148 179.097L143.25 180.459L139.75 180.913H135.5L132.25 180.459L125.5 178.643L120.75 176.372L117.5 174.102L115.25 171.832L114.25 169.789L114.5 167.746L116 165.93L116.75 165.476Z" fill="white"/>
<path d="M235.5 348.906H265.75L267 349.587L268 350.722L268.25 352.538L267 354.581L266.75 354.808L264 355.035H236L234.75 354.354L233.5 352.992L233.25 352.538V351.176L234.25 349.814L235.5 348.906Z" fill="white"/>
<path d="M241.75 365.478H265.5L267 365.932L268 367.067L268.25 367.521V369.11L267.25 370.699L266.25 371.153L253.75 371.38H235.75L234.5 370.699L233.25 369.337L233 368.202L233.75 366.84L235.25 365.705L241.75 365.478Z" fill="white"/>
<path d="M235.75 381.823H258.25L259.75 382.277L261 383.412L261.5 384.093V385.91L259.75 387.726L259.25 388.18L244.5 388.407H237.5L235.25 387.726L233.5 385.91V384.093L235.25 382.05L235.75 381.823Z" fill="white"/>
<path d="M116.25 108.721H118.25L120.25 109.629L121.75 111.218L123 113.488L124 117.12L124.25 118.937V121.888L123 124.839L121.25 126.201L119.75 126.428H117.75L116 125.747L114 123.25L112.5 118.937L112.25 117.801V113.034L113.25 110.991L115 109.175L116.25 108.721Z" fill="white"/>
<path d="M144.5 101.683L147 101.91L148.5 102.818L150 104.861L151.25 108.267L152 111.445V115.304L150.5 118.028L149 119.163L148 119.391H145.25L143.5 118.709L142 116.439L141 114.623L140.5 112.58V105.315L141.5 103.499L143 102.364L144.5 101.683Z" fill="white"/>
<path d="M315.25 324.615H320.5L323.25 325.523L324.5 326.885V329.609L323.25 330.517L321.75 330.971L318.5 329.609H316.75L315.25 330.517L314.75 331.425V333.014L315.5 334.377L316.75 335.285L318 335.512L320.5 334.377L321.25 333.922L322.75 334.149L324.25 335.285L324.75 336.874L324 338.463L322 340.052L320.5 340.506H315.25L313.5 339.825L311.25 338.236L310 335.966L309.75 335.285V330.517L310.75 327.793L311.75 326.431L313.5 325.069L315.25 324.615Z" fill="white"/>
<path d="M343.25 324.388L346.5 324.615L348.75 325.296L350.5 327.112L350.75 329.155L349.5 330.517L348.75 330.971L347 330.744L344.75 329.609L342.5 329.836L341.25 331.198L341 331.879V333.468L341.75 334.831L343 335.512L345 335.058L347 333.922H348.75L350 335.058L350.75 336.42L350.25 338.009L348.5 339.598L346.25 340.506H341L338.5 339.371L336.75 337.555L336 335.512L335.75 334.149V332.106L336.5 328.701L337.75 326.658L339 325.523L341.25 324.615L343.25 324.388Z" fill="white"/>
<path d="M1198.5 48.75H1192L1187.25 49.5L1183 51L1179.25 53L1176.25 55.75L1174.75 57.5L1173.25 60L1172 64L1171.25 68.25V70.5L1172.5 76.75L1174.5 81L1177 83.75L1177.25 84.25L1175.75 84.75L1169.75 87.5L1164.25 90.5L1161 93L1158 96L1154.25 101L1149.5 108L1147.25 110.5L1145.25 112.25L1143.25 113.25L1142.25 113.5H1135.25L1127.5 112.5L1122.5 111.75H1113.25L1109 112.5L1103.75 114L1099.25 116L1095.5 118.5L1092.75 121L1090.75 122.75L1088 126L1085.5 129.75L1083 135.25L1081.5 142.25L1081 146.75L1081.5 154.5L1082 156.25L1082.5 161.25L1085 168.75L1087 173L1090 177.75L1092.75 182L1095 185.5H1095.5L1096 186.75L1098.75 190.75L1101 193.5L1103.25 196L1106 199L1109.25 201.75L1113.25 204.75L1119.25 208.75L1122.5 210.75L1131.5 215.75L1137.5 218.5L1141.5 220.25L1145 221.5L1148.75 223L1148.25 237L1146.75 239.75L1144.5 243.25L1141.25 249.25L1139.75 252L1138 255L1137 256H1133.75L1131 253.75L1128.5 252L1125.5 250.25L1120.5 248.5L1118.5 248.25H1113L1109.75 249L1104.75 251L1103.5 250.5L1100.25 247.25L1099.75 246.25V244.75L1103.5 237L1104.25 233.25L1104.75 231.25V221L1103.25 211.5L1101.5 205.5L1100 201.5L1097.75 196.25L1094.75 190.5L1092.75 187.25L1090.75 184.25L1088.5 181.25L1085.25 177.25L1083.5 175.25L1079.75 171.5L1075.5 168.25L1073 166.5L1068.25 164L1064.5 162.5L1060.25 161.25L1057.75 160.75L1052.75 160.5L1048.75 161L1042.5 162.75L1038.25 165L1035 167.5L1031.25 170.25L1028 172.75L1025.75 174.75L1023.25 178L1021.75 180.5L1019.5 185.25L1018.25 189L1017.75 193.25V202.25L1018.75 208L1020.75 214.75L1023.25 220.75L1025.25 224.75L1027.75 229.5L1031.25 234.75L1035.25 239.75L1037.5 242.25L1039.25 244.25L1042.5 247.5L1045.5 249.75L1050.25 253.25L1054.5 255.5L1058.5 257.25L1065.75 258.75L1067.5 259H1072L1077.25 257.75L1083 255.5L1084.5 254.5L1085.5 254.75L1088 258L1090 260.5L1090.25 261.25L1089.25 261.75L1086.5 264L1083.5 267.25L1081.5 271.25L1080.75 273.25L1080.5 277V281L1080.75 284.5L1082.75 291L1085 296.25L1087.25 300L1091.25 305L1095.5 309L1097.5 310.5L1101.75 313L1104.5 314.25L1107.25 315L1110.75 316L1115.25 316.25L1115.75 317.5L1117.5 319.5L1120 321.5L1121.75 322.25L1124 322.75L1127 324.25L1128.5 327L1130.5 329.75L1131.5 330.75H1132L1132.5 331.75L1133.25 332.75L1133.5 336.75L1135.75 345.75L1138 351.75L1139.25 354.25L1140 356.25L1139.75 357.25L1137.5 366V378.25L1139.75 388.25L1141 392.25L1141.25 393.5L1135 394.75L1131.75 395.75L1128.5 397L1124.75 399.25L1122.25 401.25L1120.5 403.25L1118.5 405.75L1116.5 409.25L1115.25 413L1114.5 416.5V420L1115 423.25L1115.75 426.25V427.5L1112.75 428L1109.25 428.5L1104 430.25L1102.75 431.25L1102.25 432.75L1103 434.25L1104 435.5L1106 436.75L1112.5 438.5L1116.25 439.25L1126 440.75L1141.5 442.25L1149.75 442.75L1170 443.5L1192 443.75H1211.25L1225.75 443.5L1243.25 443L1249.5 442.5L1259.5 441.5L1267 441L1273.75 439.75L1280 438.75L1289 436.75L1292 435L1293 433.25V430.5L1292 429L1290 427.75L1287.25 426.5L1286.5 426.25L1279 425.75L1269 424.75L1268.75 416.75L1267.5 407L1265.25 398L1263.75 392.75L1262 386.75L1260.5 379.25L1260 374V370.75L1260.75 366.25L1262.5 361.25L1265.75 354.75L1266.25 353.25L1271 353.75L1274.75 354H1282L1288.75 353.25L1292 352.25L1296 350.75L1300.75 348L1303.25 346L1305.75 343.75L1308.5 341L1311 337.25L1313 333.25L1314.5 329L1315.75 322.75V318.5L1315 313.5L1313.75 309.75L1312 307L1309.75 305L1308 304.25H1305.75L1303.25 305.25L1301.25 307L1298.75 310L1293.5 318.25L1290.75 321.75L1288.25 324.25L1284.75 326.75L1282.25 328.25L1278 330L1275.5 330.5H1274.25L1275.5 323.5L1277.25 311.5L1277.75 301.25V294L1277.25 286L1276 278.5L1274.75 272L1272.75 264.5L1270.75 258.75L1268 252.25L1265 246.25L1262.75 242.75L1257.75 235.25L1261.5 235.75H1272L1277 235L1283 233.5L1286.25 232.25L1289.75 230.5L1293.25 228L1296.5 225L1299.25 221.5L1301.5 218L1303.25 214L1304.5 210.5L1305.25 205V197.75L1304.5 191.5L1302.75 185.25L1301.25 181.25L1298 173.75L1296 169.5L1293.5 164.75L1289.75 157.5L1287.25 153L1283 144.75L1280.5 140.5L1279.75 138.75L1283.75 137.25L1286.75 135.75L1289.25 133.5L1290.75 131.25L1292.25 126.75V122L1291 117.25L1289.75 114.25L1287 109L1284 104.75L1282.25 102.5L1280 99.75L1277.25 96.75L1274 93.5L1272 91.75L1268.25 88.5L1264 85.25L1254 77.75L1253.5 76.75L1256 74.5L1257.5 72L1258 70.25V67.25L1257 65L1255.75 63.5L1254 62.5L1253 62.25H1249.75L1246.75 63.25L1245 64.75L1243 68.75V69.5L1241.25 68.75L1238.75 66.75L1234.25 63.75L1230 61L1225.75 58.5L1220.5 55.5L1214 52.5L1209 50.75L1204.25 49.5L1198.5 48.75ZM1186.5 91.25L1190 91.75L1200.5 95.5L1208.5 98.5L1211.75 99.75L1215.5 101.5L1219.5 103.5L1224.75 106.25L1231.5 110.25L1236.5 113.75L1240 116.25L1242.75 118.5L1244.75 120L1243.5 121.5L1241.5 123.25L1239.5 125.25L1237.75 127.25L1235 131L1232.75 134.75L1229.75 141L1228 145.75L1225.75 154.25L1224 163.5L1223.75 165.25L1223.5 170V178.25L1223.75 183.25L1226 196.5L1228 205L1230.5 212.25L1231.25 214.25L1231 215.25L1229.75 216.25L1227.25 217.5L1223.25 219.25L1218 221L1210 222.75L1206 223.25L1195 224.5H1184.75L1181.75 224L1177.25 223.75L1174.75 223.25L1170.25 222.75L1162.5 220.75L1158.5 219.25L1149 215.25L1141.75 212.25L1138.25 210.75L1129.25 206L1123.75 202.75L1117.75 198.75L1114.5 196.5L1110.25 193L1107 190L1104 186.75L1101.5 183.5L1099 179.75L1096.25 175.25L1094 171.25L1093.25 168.75L1092 166L1090.25 160.5L1089.75 157.75L1089.25 154L1089 146.5L1090 139.5L1091.25 135.75L1093 132.25L1095.5 129L1097 127.25L1099 125.5L1102.25 123.25L1107 121L1113.25 119.25H1119L1132 120.75L1137.25 121.25H1141.75L1145.75 120.5L1149.75 118.5L1152 116.75L1153.75 115L1156.5 111.25L1160 106.25L1163.25 101.5L1165.5 99L1168.25 97L1171.75 95L1175 93.5L1180.25 91.75L1184.5 91.25H1186.5ZM1042 177.5L1047.75 179.5L1052.25 182L1055 184L1057.5 186L1061.25 189.25L1063.25 191.25L1065.5 194L1068.25 197.25L1072 203.25L1075 208.5L1076.75 212.5L1078.5 217L1079.5 220.75L1080.5 224.75L1080.75 226.25L1081.25 232.75L1081.5 235.25L1080.5 241L1079.25 244.25L1077.75 246.25L1074.5 247.75L1072.5 248H1068.75L1063 246.25L1058.75 244.25L1055 241.75L1051.5 238.75L1049.5 237L1047.25 235L1045.25 232.5L1043 230L1041.25 227.5L1038.75 223.5L1037.25 221L1035.25 216.75L1033.75 213.25L1032 206.5L1031.25 201.5V192L1032 188L1033.5 183.75L1036 180L1037.5 178.25L1038.75 177.5H1042ZM1248.5 236.5L1251.25 240L1254.75 244.75L1256.5 247.25L1259 251.5L1261.75 256.75L1264 262.5L1266.25 269.5L1267.75 275.5L1268.75 281L1269.5 286L1270 291.75L1270.25 297.25V303.75L1269.75 310L1268 322.25L1266 331.25L1264.5 336L1263.25 340.25L1261.5 345.25L1258.75 351.5L1255.25 358.75L1253 364.75L1252.5 369.25V375.25L1252.75 380L1253.5 383.75L1255.25 391L1258.25 401.25L1260 409L1260.5 413.25V422.5L1259.75 425.25L1258.25 427.75L1256.25 429.5L1253.25 431L1250 432L1241.25 433.25L1235 433.75H1215.75L1213.25 433.25L1212.5 432.25L1211.75 428.5V425.5L1212.75 421.75L1214 419.25L1216 415.75V414.5L1215 413.25L1214 412.75H1212.25L1210.25 413.5L1208 415.5L1206 419L1204.75 423.75L1204.25 426.75V430.75L1204.5 433.25H1202.25L1195.75 432.75L1194 432L1193.25 431L1192.5 426.5L1193 423.25L1193.5 420.25L1194.5 417.75V416L1193.75 414.75L1193.25 414.5H1190.75L1188.75 415.25L1187 417.75L1186 420.75L1185.25 425L1185 431.25L1184.75 431.75H1183L1180 430.25L1178.25 428.75L1177 425.75L1176.25 422L1177.25 418L1178.5 414.75L1180.5 412L1182.75 409.75L1185.5 408L1189.5 406L1193.75 405L1198.75 403.75L1199.75 403.25L1201 401.25L1200.25 399.25L1198.75 396.75L1197.25 393.75L1195.75 389L1195 385L1194 378.75V371.5L1194.25 371.25L1194.75 367.25L1195 366.25V361.75L1194.25 360.5L1193.5 360L1191.25 359.75L1189.5 360.5L1188.25 362.75L1186.75 367.75L1186.5 369.25V378.25L1187.75 387L1189 392.75L1190.25 397.25V398.25L1186.25 399.75L1182.25 401.5L1178.5 403.75L1175.5 406.5L1173.5 409L1171 413.25L1169.75 417.25L1169 420L1168.75 421.75V424.25L1169.25 426.5V428.75L1165.75 429.25L1161.75 429.5H1153L1151.75 428.25L1151 427L1150.5 424.5V421.75L1151.25 417.75L1152 415.5L1152.25 413.75V411.5L1151.75 410.5L1151.25 410.25H1149.5L1147.5 411.5L1145.75 413.5L1144.25 417L1143.5 420L1143.25 428.75L1142 429L1138.25 428.5L1136 428L1135.25 427.25L1134.75 425.5V420.75L1135.75 417.25L1136.75 414.5L1137 412.5L1136.5 410.75L1135.5 410.25H1133.25L1131.75 411.25L1130.25 413L1128.75 416.5L1128 419L1127.75 421L1127.5 426.25L1126.75 426.5L1125.5 426L1123.5 424.25L1122.25 421.25L1122 419.75V416.75L1123.25 412.5L1125 409.5L1127.25 407L1130.75 404.5L1134.5 402.5L1139.75 401L1144.25 400.25L1148 399.75L1149.75 398.75L1151 396.75L1151.25 395.5L1150 392L1148.5 389L1146.75 384.25L1145.25 376.75L1145 373.75V368.5L1145.5 364.5L1146.75 360.75L1148.25 357.75V355L1147.5 353.5L1146 351L1144.25 347L1142.75 342.75L1141.5 337.5V336L1142 335.75H1147.5L1152.25 335.25L1157.25 333.75L1159.75 332.75L1163 331.25L1165.5 329.75L1167.25 330L1171.25 331.25L1175.25 332L1181.5 332.75L1185.25 333H1192.5L1199 332.5L1207.75 331.25L1217.75 328.75L1224.25 326.5L1229 324.5L1235.25 321.5L1240 318.5L1244.75 315.25L1248 312.75L1251.5 309.75L1253.75 307.5L1256.5 304L1258 301.75L1259.5 297.75L1259.25 296.5L1258 295.25L1257.5 295H1255L1253 296.25L1249.75 300.5L1245.25 305L1238.75 310L1235.5 312.25L1231 314.75L1227 316.75L1221.25 319.25L1217.25 320.75L1214 321.75L1210 322.75L1202.25 324.25L1194 325.25L1190.75 325.5H1185L1180.5 325.25L1173.75 324.25L1169.5 323.25L1165.75 322.25H1163.75L1159 324.75L1155 326.5L1150.25 328L1147.25 328.5H1144.5L1141.5 328L1136.75 326L1134.75 324.25L1133.5 322.25L1132.75 319.5V317L1133.5 314.75L1135.75 312.25L1138.75 310.5L1142.75 309.5L1144.5 308.25L1145 307.25L1144.75 306L1143.75 305L1142 304.25H1138.5L1134.25 305.5L1130.75 307.75L1128 311.25L1125.5 315.75L1124.25 315.5L1123 314.25L1121.5 312.5L1120.25 309.25L1120 306.5L1120.75 303L1121.75 300.5L1124 297.5L1127.5 294.75L1132.75 292.25L1134.75 290.5L1135 290V288L1134 287L1132.75 286.5H1130.5L1125.5 287.75L1121 290.25L1118.25 292.75L1116 295.75L1115 297.25L1114 297L1112.25 294L1111.5 291.75L1111.25 290.25V286.25L1112.25 283.5L1114 280.75L1115.5 279L1119 276.75L1120.75 275.5L1126.25 273.25L1131.75 272.25H1137.25L1144 273.25L1150 275.5L1154.25 278L1160.25 282.5L1164 284.25L1171.25 286L1175.5 286.5H1189.75L1195.5 285.5L1201.25 284.25L1204.5 283L1207 282.25L1213.25 279.5L1217.5 277.25L1221.5 274.75L1224.25 272.5L1225.75 270.25L1226.25 269V267.25L1225.5 266L1224 265H1222.25L1219.5 266.5L1215.75 269.25L1209.5 272.75L1203.25 275.5L1198 277.25L1190 279L1185.25 279.5H1178.25L1176.5 279.25H1174.5L1166.5 277.25L1164.25 276.25L1161.75 274.75L1158.5 272.25L1156 270.75L1151.25 268.25L1146 266.25L1143.5 265.25L1143.75 263.5L1145.25 259.5L1147.75 253.75L1150.25 249L1151.75 246.25L1153.5 243.75L1155.25 244L1158 245.5L1163 247.5L1167.5 249L1176.5 250.75L1181.75 251.25H1199.75L1205 250.75L1215.5 249L1223.25 247L1232.25 244L1236.25 242.5L1240.5 240.5L1246.25 237.25L1247.5 236.5H1248.5ZM1119.25 256L1123 257.5L1125.25 259L1127.5 261.25L1129.5 264.25L1129.25 265L1126.75 265.75L1123 266.75L1118.25 268.75L1116.5 269.75L1115.5 269.25L1113 267L1110.75 263.5L1109.25 260.5V258.5L1110.5 257.5L1113.75 256.25L1115.75 256H1119.25ZM1099.75 265.75L1103.5 267.75L1105.75 270L1106.75 272L1107 273V274.75L1106 277L1102.5 279.5L1096.5 283L1095.25 284.25L1095.5 285.25L1097 286.5H1100.75L1103.5 285.25L1104.25 285.5V292.5L1104.75 295.75L1106.75 300L1108.25 302L1110.25 303.75L1111.5 305.25L1112 306.5L1111.25 307.5L1109.25 307.25L1106.25 306.75L1102 304.5L1099.5 302.5L1096.25 299.75L1093.5 296.25L1091.5 292.75L1090 289.75L1088.25 284.25L1087.75 280.75V277.5L1088.25 274.5L1089.75 271.75L1091 270H1091.5V269.5L1094.75 267.25L1098.75 265.75H1099.75Z" fill="white"/>
<path d="M1004.5 216.5H1000.5L997.25 217L994.25 218.25L991.75 220L989.25 222.25L986.75 225.5L985.25 228.5L984.5 231.25L983.75 236.5V239.75L984.5 244.25V245.5L984 245.75L975.5 246.5L973.5 247.5L971 250L968.75 252.75L965.75 256.25L963.5 258.75L961.25 261.5L958.25 264.75L955.5 268.25L953 271L950.75 273.75L947.75 277.25L946.25 279.25L945.25 279.5L937.25 279.75H931.25L913 280.25H905.5L904.5 276L903.5 270.25L902 263.25L900.25 259.25L898.5 256.5L896.5 254.5L893 252.5L890 251.75H865.75L861.5 252.25L859.5 253.25L858.25 254.75L858 255.5V258L858.75 259.25L860.5 260.75L862.25 261.25L890.5 261.5L891.75 262.75L893 264.5L894.5 268.25L896.25 275.5L896.75 278V279.5L896 280L894 280.25L882.5 280.5L880.5 281.25L878.75 282.75L877.5 285.25V288.25L879.25 295L880 298.5L881.25 303.25L882.25 307.25L886.5 323.5L889.75 337.5L894 354.5L895.75 360.5L897.5 363.5L898.5 364.75L900.75 366.5L902.25 367L904.5 367.25L912.25 367.5L911.75 369L909 372.25L906.5 375L904.25 377.75L901.25 381.75L899 385.75L898 389.75V392.5L899 395.75L900.5 398.25L903 400.5L906.5 402.25L909.5 403.25L908.5 404.75L906.75 406.75L905 410.25L903.75 414.75L903.5 416.25V419.5L904 422.75L905.5 426.75L906 428L901.75 429L894.25 430.25L893.25 431V432.75L895.5 434.5L897.25 435.25L901.25 435.75L911.25 436L922.5 436.5H930.5L935.75 436.25L937.25 436L946.75 435.75L947.75 435.5L954.5 435.25L957.75 434.5L960.25 433.5L962.5 431.5L963 430.5L962.75 429L961.75 428L958.25 427L952 426.5L938.25 426.75L935 427L934.5 427.25L936.75 422L937.5 419.25L937.25 415.5L936.25 411.25L935 408.5L933.25 405.75L931.75 404L931.5 403.25L948 404L961.25 404.25L962.25 408.25L963.25 415.25L963.75 420.75L964 421.75L964.25 425L965.25 427L967.5 429.25L968.75 429.5H972.5L979.5 429L987 428.25L993.25 428L997.75 431.25L1001.25 433L1002.25 433.25L1008.5 433.5L1011.75 433L1016 430.75L1018.75 428.5L1020.75 426L1022.25 425.75L1036 424.75L1048.25 423.75L1060.5 423L1071.5 422L1080.25 421.5L1082.5 420.75L1084.75 419L1086 417L1086.5 415.75V410L1085.5 403.25L1084.25 396L1083.25 389.5L1080.5 373.5L1079 364.5L1076.5 349.75L1075.25 342.25L1072.5 326L1071.75 321L1068.75 303.25L1068 297L1067.25 292.5L1066.25 283.5L1065.5 280.5L1064.25 277.5L1062.5 275.25L1060.25 272.75L1057.75 270.25L1055.75 268.5L1053.5 266.25H1053L1052.75 265.5L1050.75 263.75L1048.25 261.25L1046.25 259.5L1044.5 257.75L1042.5 256L1038.5 252L1036.5 250.25L1034.5 248.25L1032 246.25L1029.25 245L1026.25 244.5H1021.5V234.25L1020.5 231L1019 227.5L1016.75 224L1014.5 221.5L1012.25 219.5L1008.25 217.25L1006.5 216.75L1004.5 216.5ZM1004.75 224.25L1006.75 225L1009.5 227L1011.75 229.75L1013.5 233.75L1014.25 237.25V242L1013.5 244.25L1012 245.25L1007 245.5H995.5L993.5 245.25L992.25 243.75L991.5 241L991.25 238.75V236.5L991.75 232.75L993 229.5L995.25 226.5L998.5 224.5L999.5 224.25H1004.75ZM1024.25 252L1026.75 252.5L1029.25 253.75L1032.5 256.75L1036.75 261L1038.75 262.75L1040.5 264.5L1041 264.75V265.25L1042 265.75L1048 271.75L1050 273.5L1053.75 277L1056.5 279.75L1058.25 283.25L1059.25 287.75L1062.25 307.25L1064 318.75L1065.25 326L1066.25 332.25L1068 343L1069.5 351.75L1070.75 358.75L1072 366.75L1073 372.75L1074 379L1075 385L1076.75 395L1077.75 401.75L1078.75 407.25L1079 410.25V413L1078.5 413.75L1076.5 414.25L1061.25 415.5L1052.75 416.25L1042.25 417L1031.25 418L1022.25 418.5L1014.75 419L1003.25 420L991.5 420.75L984.5 421.5L975.5 422.25H973.25L972 421.25L971.25 419L970.25 410.75L969.25 405.5L968.25 397.75L967 390.75L966.25 385.25L965 377.5L964 370.5L963 364.25L962.25 359L961 351L959 337.75L958.25 332.5L956.5 320.75L955 311.25L953.25 299.5L952.25 293.25L951.25 287.25V284.75L953.5 282L956 279L958 276.5L961.25 272.75L964.25 269.25L966.75 266.5L969 263.75L973 259.5L974.75 257.5L978.25 254L980.5 253.25L982.75 253L994.25 252.5L997.5 252.25L1010 252L1011 252.5V254.75L1010 257.75L1008.5 259.75L1008.25 260L1004 260.25L1001.5 261L999 262.5L996.5 264.75L994.75 267.5L993.5 270.75L993 274.75L993.25 277.5L994.75 281.25L996.25 283.5L997.5 285L1000 286.75L1003.5 288.25L1004.75 288.5H1010.75L1014.5 286.75L1016.5 285.25L1018.75 282.75L1020.25 279.25L1021.25 275.5V273.25L1020.25 269.5L1018.75 266.25L1016.5 263.25L1017 262L1018.5 258L1019.25 256.5L1019.75 254.25L1020.75 252.75L1023 252H1024.25ZM1004.75 267.75V272.75L1005.5 274L1006.5 274.75H1008L1010.5 273.25L1012.25 271.25L1013.25 271.5L1013.75 272.75V276L1012.5 278.5L1011 280.25L1009.5 281.25L1008.75 281.5H1005.75L1003.25 280.25L1001.5 278.25L1000.5 276.25L1000.25 275.5V272.5L1001.75 269.75L1003.5 268L1004.75 267.75ZM944 288L944.75 290L945.75 295.5L946.75 303.75L947.5 308.75L947.25 309H934L933.5 306.25L932.75 300.25L932.25 297.5L931.75 292.25V288.25L932.25 288H944ZM922.75 288.25L924.25 288.75L924.75 292.5L925.75 299.5L926.5 308.75L926.25 309L918.5 309.5H911L910.25 306.75L908.75 299L907.5 292.25L907.25 291.25V289L907.5 288.75L910.25 288.5L922.75 288.25ZM898.75 288.5L899.25 289.75L900.75 296.5L902 303.75L902.75 307V308.75L900.75 309.25L895.25 309.75H892L891 309.25L890 307.25L887.5 298.25L886 292.25L885.25 289.75V288.75L886.25 288.5H898.75ZM947.25 316.5L948.75 317L949.5 319.5L950.25 326.5L951.75 336V338.25H937.25L936.25 332L935.5 325.5L935 319.5L934.75 316.75L937.5 316.5H947.25ZM926.25 316.5L927.5 317L928.25 321.25L928.75 328.25L929.75 335L930 338.25L927 338.5H916.75L916.25 337.75L915 331L914 325.75L912.75 319.25V317.5L914.5 316.75L921.25 316.5H926.25ZM904 316.5L904.75 317.75L906.25 324.75L907 329L908.25 335.75V338.25L904 338.5H900L898.25 338.25L897.25 336.25L895.75 330.25L894.5 325.5L893 320.25L892.5 318.25V316.75L893.25 316.5H904ZM952.75 345.25L953.25 346.75L954 353L954.5 356.5V359.5L952.25 359.75H940L939.5 359.5L938.75 356.25L938 348.75V345.5L947.5 345.25H952.75ZM930 345.25L930.5 346L931.75 354V359L931.5 359.5L930.75 359.75H920.5L920 358L918 348V345.25H930ZM909.5 345.25L910.5 347.5L911.25 352.5L912.5 358.5V359.75H904.75L903.25 358.75L902.25 356.25L900.25 348.5L899.75 345.5L901.5 345.25H909.5ZM955.5 367L956.25 368.75L957.5 374.75L958.25 380.75L959.25 386L960.25 394.75L960 396H939.25L915 395.75L911 395.5L908 394.75L906.5 393.75L905.5 391.75V389.5L907 386.75L910 382.75L911.75 380.5L915.25 376.25L918 373L920.75 369.5L922.75 367.75L924.75 367.25L944.5 367H955.5ZM922 409.5L924.25 410.25L925.5 411.25L927 413.5L927.75 415.25L928 417.5L927.5 419.5L926 421.75L923.75 423.5L923 424L921.75 424.25H917.75L915.25 423L913.5 421L912.75 419V415.25L914.5 411.75L916.5 410L919 409.5H922Z" fill="white"/>
<path d="M996 29.75H982.75L976 31.25L971.5 32.5L966.5 34.75L963 36.5L958.5 39.5L955.25 42.25L952.75 44.5L951 46.25L949.25 48.25L946.75 51.5L944.25 55.5L941.5 60.75L939.5 65.75L938.25 70L937 76.75L936.5 82.5V85.5L937.25 90.75L938.5 97L940.5 103L942.5 107.25L945 111.75L947.5 115.25L950 118.5L950.75 119.5H951.25L951.75 120.5L954 122.75L956.75 125L959.75 127.25L964 129.75L968 131.75L974.75 134.25L982.5 136L986.75 136.5H995.5L1001.5 135.75L1006.75 134.5L1010.25 133.5L1015 131.5L1019.75 129L1022.75 127L1026.25 124.25L1028.75 122L1030.75 120.25L1032.5 118.25L1035 115.25L1037.5 111.5L1041 104.75L1043 99.75L1044.75 93.5L1045.25 89.5L1045.5 86.5V83.25L1045 76L1044 71.75L1042.25 65.75L1040 60.75L1037.75 56.5L1034.5 51.25L1033 49.5L1031 47L1027.75 43.75L1024.75 41.25L1022.25 39.5L1019.5 37.75L1014 34.75L1006.25 31.75L999.5 30.25L996 29.75Z" fill="#3F6981"/>
<path d="M981.25 0H971L965.5 0.75L958.75 2.5L953.5 4.75L949.5 7L946 9.5L943 12.25L940.75 14.5L940.25 14.75V15.25H938.5L934 13.75L929.5 12.5L928.25 12.25H916.25L910 13.5L907 14.5L901.25 17L898 18.75L894 21.5L890.5 24.5L888.75 26.25L887 27.75L884.25 31.25L882.25 34L879.75 38.5L877.75 43.5L876 50.5L875.75 51.75V59L875.25 60L873 61.75L870 64.75L867.5 68.25L865.5 71.75L863.75 75.5L862.25 80.5L860.75 89V93.75L862 102.5L864.5 110L866.5 114.25L869.75 119.5L872.75 122.75L874.75 124.75L877.25 126.75L880.5 128.75L883.75 130.5L885 131L886.5 135L887.75 139L889.75 143L892 146L895 149.25L897.25 151.25L901 153.75L904.25 155.75L908.5 157.75L915.5 159.75L922.25 160.5H927.25L933.25 160L935.25 159.75L936 164.5L936.5 166.75L938.5 170.5L940.5 173L942.5 174.75L946.75 177L951.75 178.25L953.25 178.5H957.5L961.75 177.75L965 176.5L968.25 174.75L970.5 173L972.25 171.25L974.5 167.75L976 164.25L976.5 162.5L979 162.75L982.75 163.25H989.25L993.25 162.75L997.25 162L999.75 161.75L1006.25 159.5L1010.25 157.5L1013.25 155.5L1016.5 152.5L1016.75 151.75L1019.75 152.5L1024.25 154L1029.5 154.5H1034.75L1039.25 154.25L1046 152.25L1048.5 151.25L1052.5 149.25L1055.25 147.5L1058.5 144.75L1061.75 141.5L1064.75 137.25L1066.75 133.25L1068.25 129.75L1069 125.25V121.75L1068.75 119.5L1071 118.75L1075.5 116.25L1078.25 114.25L1081.75 111.25L1084.5 108L1086.75 104.75L1088.75 100.75L1090 97.75L1091.75 90.25V77L1090.25 70.5L1089 67L1088 64.75L1086.5 62.25L1084.5 59.25L1083 57.25H1082.5L1082 56.25L1079.5 53.75L1076.75 51.75L1075.5 50.75L1074.75 49L1074 44L1071.5 37.75L1069.25 33.5L1066.25 29.25L1063.75 26.25L1062.75 25.25H1062.25L1062 24.5L1059.25 22.25L1055 19L1049.75 16L1045.5 14L1040.75 12.5L1033.5 11L1030 10.5H1026.25L1025 10.75L1021.25 11L1014.25 12.5L1012.5 13.25H1011.75L1010 11.25L1008.25 9.5L1004 6.5L1000 4.25L994.5 2.25L986.75 0.5L981.25 0ZM980.5 7.75L984.75 8.25L991.5 9.75L996.75 11.75L1000.25 13.75L1003.25 16L1005.25 17.75L1007.75 20.75L1010.25 22L1013.75 21.5L1016.25 20.75L1018.75 19.75L1020.75 19.25L1024 19H1031.5L1036.75 19.5L1040.25 20.75L1042.75 21.5L1046.75 23.25L1051.25 26L1055.5 29.5L1056.5 30.25V30.75H1057L1058.5 32.5V33H1059L1061 35.5L1063.75 40L1065 42.5L1066.5 47.25L1067 49.75L1067.25 53.25L1068 55.5L1069.25 56.5L1071.75 57.75L1075.5 60.75V61.25L1076.5 61.75L1078.5 64.25L1080.75 67.75L1082.25 71L1084.25 80L1084.5 82.25V86.25L1083.75 91.5L1082.25 96.75L1079.75 101.25L1077.5 104.25L1074.25 107.5L1071.75 109.25L1068 111.25L1063.5 112.75L1062.25 115.5L1061.75 118L1062 121.25L1061.25 126.75L1059.75 130.75L1058.5 133.25L1056 136.5L1053 139.5L1050 141.75L1047.5 143.25L1043.75 145L1037.75 146.75H1028L1025.25 146.25L1022.25 145L1018.75 144H1015.25L1012.75 145.25L1009.75 148.5L1006.25 151L1002.5 152.75L998 154.25L996 154.75L992.25 155.25L989 155.5H983L980.75 155L977.5 154.5L976 153.5L974.25 151.25L972.5 149.25L970.5 147.25L966.75 145L962.5 143.25L959.5 142.75H952.25L948.5 143.5L944.25 145.5L941.25 147.75L938.75 150L938.25 150.5L932 152L927 152.75H920.25L916 152L910.75 150.25L905 147.25L900.75 143.75L898.75 141.75L896.75 139.25L894.75 136L893.25 132L892.25 126.75L890.5 124.25L887.5 122.75L883 121L880.25 119L877.75 116.75L875.75 114.5L873.25 110.75L871 105.75L869.5 101.25L868.75 96L868.5 94.5V89L869.25 82.75L870.5 78.5L871.75 75.25L874.25 71L877.5 67L880 64.5L881.25 63.5L882.75 61.25L883 55.25L883.75 50.75L884.5 48.25L885 45.75L887.5 40L889.5 37L891.75 34.25L894 31.75L896.25 29.5L899.5 27L902.75 25L905.5 23.5L909.25 21.75L915.5 20L920.5 19.25H922.75L927.25 19.75L931.25 21L933.5 21.5L939 24L941 24.25L943.5 23H944L944.5 22L947 19.25L948.75 17.25L951.25 15.25L955 12.75L959 10.75L962 9.5L968.25 8.25L974.25 7.75H980.5ZM956 149.75L960.25 150L964.25 152L966.75 154.25L968.5 156.5L969.25 158.25V160.75L968.5 164L966.75 166.25L965 168L961.25 170L957 170.75H953.25L949.5 170L946.25 168.25L944.25 166L943.25 163.25V157.75L944 155.75L945.75 153.5L948.75 151.25L950.75 150.25L953.75 149.75H956Z" fill="white"/>
<path d="M1010.75 298.5L1008 298.75L1006.75 299.5L1005.75 301.5L1005.5 302.25V305.25L1006.25 311.25L1000.75 312.75L998.25 313.5L994.5 315.5L993.25 316.5L991.75 318.75L991 320.25V322.25L992.5 325.25L994.5 327L996 327.75H999.25L1004.75 324.75L1007 324H1008L1009.5 331.25L1010.25 336.5L1010.75 340.75L1011.25 343.5L1010 344L1007.25 345.5L1003.5 347.75L999.5 350.75L997.5 352.5L995 356.25L993.75 359.5L993.5 360.75V367L995 372.25L997 375.75L999.25 378.5L1001.75 381L1004.25 382.75L1007.75 384.5L1012.75 386.25L1018 387.25L1018.75 388L1019.25 389.75L1020.25 396.75L1021.75 399L1023 400L1024.25 400.25H1026.75L1028.75 399.5L1029.75 398L1030.5 396.25L1030 392.25L1029.5 389.5V387L1033.5 385.5L1038.25 383.5L1040.75 382L1043.25 380L1045.5 377.5L1047 375L1047.5 373.5V370.5L1046.75 368.25L1045.5 367L1043.5 365.5L1042.75 365.25H1039.25L1038 366.5L1035.5 369.25L1034 371L1030.75 373L1027.75 373.5L1027 372.75L1026.25 370.75L1025.5 365.5L1025 361.5L1023.5 352.5L1023.75 351.75L1027.75 349.5L1031.75 346.75L1035.25 343.25L1037 340.75L1038.75 336.75L1039.25 334.5V330.75L1038.75 328.25L1037 323.25L1034.75 319.5L1032.75 317.25L1030.25 315.25L1026.5 313L1021 311L1017 310.5L1016.5 310.25L1015.75 303.25L1014.75 301L1013.75 299.5L1012.25 298.75L1010.75 298.5ZM1019.25 323.25L1022.5 324.25L1024.75 326L1026 327.5L1027.5 330.75V333L1025.75 335.75L1022.5 338.25L1021.5 338.5L1020.75 336.5L1019.75 331.25L1019.25 326L1018.75 323.5L1019.25 323.25ZM1013.5 356.25L1014 357.75L1015.25 365.5L1016.25 371.5V374L1015.75 374.25L1013 373.75L1010.5 372.75L1008.25 371L1006.75 369.25L1006 367.25L1005.75 365.75V363L1006.75 360.75L1008.75 358.75L1011.5 357L1013 356.25H1013.5Z" fill="white"/>
<path d="M996 29.75H982.75L976 31.25L971.5 32.5L966.5 34.75L963 36.5L958.5 39.5L955.25 42.25L952.75 44.5L951 46.25L949.25 48.25L946.75 51.5L944.25 55.5L941.5 60.75L939.5 65.75L938.25 70L937 76.75L936.5 82.5V85.5L937.25 90.75L938.5 97L940.5 103L942.5 107.25L945 111.75L947.5 115.25L950 118.5L950.75 119.5H951.25L951.75 120.5L954 122.75L956.75 125L959.75 127.25L964 129.75L968 131.75L974.75 134.25L982.5 136L986.75 136.5H995.5L1001.5 135.75L1006.75 134.5L1010.25 133.5L1015 131.5L1019.75 129L1022.75 127L1026.25 124.25L1028.75 122L1030.75 120.25L1032.5 118.25L1035 115.25L1037.5 111.5L1041 104.75L1043 99.75L1044.75 93.5L1045.25 89.5L1045.5 86.5V83.25L1045 76L1044 71.75L1042.25 65.75L1040 60.75L1037.75 56.5L1034.5 51.25L1033 49.5L1031 47L1027.75 43.75L1024.75 41.25L1022.25 39.5L1019.5 37.75L1014 34.75L1006.25 31.75L999.5 30.25L996 29.75ZM993.75 37.25L999.5 38.25L1005.75 39.75L1011 42L1015 44.25L1018.5 46.5L1021.25 48.75V49.25L1022.25 49.75L1024.25 51.5L1026 53.5L1029 57L1030.75 59.75L1033.25 64.25L1035 68.25L1036.25 73.75L1037.25 78L1037.5 79.5V88L1036.5 92.5L1035 98L1032.75 103L1030.75 107L1028.5 110.5L1026.5 113.25L1024.25 115.75L1021.75 118.25L1017.5 121.25L1014.25 123.25L1009.5 125.5L1006.25 126.75L1004.75 127.25L1000.5 128L996.75 128.75L989.75 129L985.25 128.75L979 127.5L975.75 126.5L970.75 124.5L965.25 121.5L962.75 119.75L960.75 118L958.25 115.75L956.5 114V113.5H956L953.5 110.25L951 106.25L947.5 99.25L946.5 96L945.75 94.5L944.25 85.75V78.75L945.75 71L948 65L950 60.75L951.5 58.25L953.5 55.5L956.25 52.25L959 49.25L962.5 46.25L966.25 43.75L973.25 40.25L977.25 39L983.25 37.5L985.25 37.25H993.75Z" fill="white"/>
<path d="M990.75 46.75H988.75L987.25 47.5L986.25 49L985.75 50.75L985.5 55.5L985.25 56.25L981.75 57.25L978 58.75L975.25 60.5L974.25 61.75L973.5 62.75L973.25 64.75L974 66L975.75 67.5L978 67.25L983.75 65.25H985.5L986 66L986.25 68.75V77.75L985.5 79L983.5 80L980.5 80.75L977 82.5L974.75 83.75L971.5 86.5L969.5 90L969 92.25V96L969.25 98.5L971.25 102.5L973 104.5L974.25 105.75L976.25 107.5L979 109L983.5 110.5L987 111.25L987.5 112L987.75 115.25L988.5 117.5L990.5 119.25L991.25 119.5H993.5L995.5 118.5L996.25 117.75L996.75 115.75V110.25L998.5 109.5L1001 108.75L1004 107.5L1006 106.5L1009.75 104L1011.5 102L1012 100L1011.75 97.5L1010.75 96.25L1009.75 95.75H1007.75L1002.5 98.75L1000.25 99.75L997.75 100.75H996.5L996.25 95.25V86L996.75 85.25L1000.5 84L1003 83L1006.5 81.25L1007.75 80.25L1009.75 77.5L1011.25 73V69.5L1010.75 67.5L1009.5 64.25L1007.75 61.75L1006.75 60.5L1004.25 58.75L1000.75 57L995.5 56L994.75 55.5L994.5 54.5L994.25 49.25L993 47.5L990.75 46.75Z" fill="white"/>
<path d="M1112 130.75L1108.75 131L1105.75 131.75L1103.25 133L1100.75 135.25L1098.75 137.75L1096.75 142.25L1096.5 143.25V149.25L1097.75 154L1099 156.5L1100.75 158.75L1101.5 159.75H1102L1102.5 160.75L1105 162.75L1108.25 164.75L1111.5 166L1116 167H1118.75L1122.25 166L1124.5 165.25L1128 163L1129.25 162L1131.25 159.25L1132.75 156L1133.25 153.5V149L1132.5 144.75L1130.5 140.75L1128 137.25L1126 135.25L1123.25 133.5L1120.5 132.5L1117 131.5L1112 130.75Z" fill="white"/>
<path d="M1236.25 222.5H1234L1230.25 224.25L1225.25 226.25L1221 227.75L1212 230L1205.25 230.75L1199.75 231.5L1193.25 232H1185.75L1180.5 231.75L1173.5 230.75L1167.25 230L1163.5 228.75L1157.5 227.25H1156.5L1156.25 228V235L1157 236.25L1160.5 238.5L1164 240.25L1168 241.5L1170.75 242.25L1176 243L1179 243.75L1182.5 244.25L1187.5 244.5H1195.5L1203.25 244L1207.75 243L1214 242L1220.5 240.25L1223.5 239L1227 238L1232.25 236L1234.75 234.75L1240.5 232L1243 230.25L1243.25 229.75L1241.5 227.75L1236.25 222.5Z" fill="#3F6981"/>
<path d="M1054.5 168.75H1051.5L1046.75 169.75L1047 170.5L1050 171.75L1052.25 172.75L1056 175L1059 177L1061.5 178.75L1064.5 181.5L1066.5 183.25L1070.25 187L1070.5 187.5H1071L1071.5 188.5L1074 191.75L1076.5 195.5L1077.5 196.75L1079 199.5L1080 201L1082 205L1083 207.5L1084.25 210.5L1085.75 214.25L1087 218.25L1087.5 219.5L1088.5 226.5L1089.25 230V236.25L1088.5 241.25V243.5L1089.75 243.25L1091.75 241.75L1093.25 240L1095.25 236.5L1096.25 233.25L1097.25 227.5V222.5L1096.75 218.25L1095.75 213L1094.5 209.25L1093.5 206L1092.5 203.5L1091.5 201.25L1089.25 196.5L1087 192.75L1085.25 190L1083 187L1079.5 182.75L1078 181H1077.5L1077.25 180.25L1075.25 178.5L1072.75 176.25L1070.25 174.5L1066.75 172.5L1065.75 171.75L1063.5 170.75L1059.5 169.5L1057 169L1054.5 168.75Z" fill="#3F6981"/>
<path d="M899.25 53H897L895.5 53.75L894.5 55.25L894.25 57.25L895.25 59.75L899.75 64.25L902.25 66.25L905.75 69.5L906 70.5L903.25 73.5L901 75.5V76L900 76.5L897.75 78.75L896.75 80.5L896.5 81V82.75L898 85L899.75 85.75H901.5L903 84.75L906.5 81.75L911.75 76.5L912.75 76.25L914.75 77.75L917.75 80.5L920.75 83.5L921.5 83.75H924.5L926 82.5L927 80.5V79L925.25 76.75L922.5 74L920 72L918.5 70L922 66.25L926.25 62L927.75 59L926.25 56.75L924.5 55.75H922.75L920.25 57L913 64.25L912 64.75L909.5 62.5L902.25 55.25L899.25 53Z" fill="white"/>
<path d="M987.75 176.25H981.25L978.25 177.25L975.5 178.75L973.25 180.75L971.75 183L970.5 187L970.25 188.25V191.5L971.5 195.5L973.75 198.75L975.75 200.75L978.25 202.25L980.5 203L982.25 203.25H986.25L989.75 202.5L992.75 200.75L995.5 198L997.25 195.25L998.25 192.5L998.5 189.25L998 185.5L996.75 182.5L995 180.25L993 178.5L988.75 176.5L987.75 176.25ZM984.5 183.25L987 184L988.5 185L989.75 186L990.75 187.75V191.25L989.75 193.25L988.5 194.5L987 195.5L986 195.75H982.5L980 194.75L978.5 193L977.75 190.75V188L978.5 186.5L979.75 185.25L981 184.25L983.5 183.25H984.5Z" fill="white"/>
<path d="M896.5 92.75L894.5 93L892.5 94.75L891.5 96L891.25 97.75L892.5 100L897.25 104.75L899 106.75L902.75 110.75L905.75 113.75L907.5 115.75L908.5 117L909.75 118L911.5 120L913 121H915.25L917.25 119.5L920.5 115L923.25 111.25L926.25 107.25L927.75 104.75V102.25L926.75 100.5L925.5 99.5H922L920.75 100.25L918.25 104L916 107.25L914 109.5L912.75 109L910.5 106.75L908.75 104.75L906 102L904.25 100L902.25 98L900.5 96L898.25 93.75L896.5 92.75Z" fill="white"/>
<path d="M1042.5 198L1041 198.5L1040 199.75L1039.75 200.25V204L1041.75 211.25L1043.75 216.25L1045.25 218.75L1046.25 220.5L1048.5 223.5L1050.75 226L1052.5 228L1055.5 231L1059 233.5L1061.5 235L1064 236L1067.5 236.5H1069.25L1071.5 235.75L1072.25 235L1072.5 232.5L1071.75 231.25L1068.75 229.75L1065.25 227.5L1062.5 225.75L1059.75 223.5L1057.5 221.25H1057L1056.5 220.25L1054.25 217.75L1052 214.75L1049.25 210.5L1047 205.75L1044.75 199.5L1043.25 198.25L1042.5 198Z" fill="#3F6981"/>
<path d="M1194.75 188.5L1192.75 188.75L1190.5 190.25L1188.75 192.25L1185.75 194.5L1182 196.5L1179 197.5L1176.25 198L1170.25 198.25L1167.75 198.5L1165.25 200L1164.75 200.75V202.75L1165.75 204.5L1167 205.5L1169.5 206.5L1171.25 206.75H1176L1179.75 206L1184.75 204.25L1189.5 202L1193.75 199L1195.75 197L1197.5 194.25L1197.75 193.25V191.5L1196.75 189.5L1194.75 188.5Z" fill="white"/>
<path d="M1190 122L1187.75 122.25L1186.25 123.25L1184.75 125L1183 128.5L1182.25 131.25L1182 134V136.5L1182.5 140.25L1184.25 143.25L1185.75 144.5L1186.5 144.75H1189L1190.75 143.75L1192.25 142L1193.5 139.5L1194.75 135.5L1195 134V131L1194.5 127.5L1193.25 124.25L1192 123L1191 122.25L1190 122Z" fill="white"/>
<path d="M1167.5 115.5H1165.75L1164 116.25L1162.25 118.25L1161 120.25L1159.25 125.75L1159 127V131L1160 133.5L1161 135L1162.25 136L1162.75 136.25H1165.75L1167.5 135L1169 132.5L1170 130L1170.5 126.5V121L1169.75 117.75L1168.75 116.25L1167.5 115.5Z" fill="white"/>
<path d="M986.25 88.25H984.25L980.5 90.25L978.75 92L978 93.75V96.5L979 99L980.25 100.25L982 101.5L983.75 102H986.25L987 101.5L987.25 100L987 92.5L986.75 89L986.25 88.25Z" fill="#3F6981"/>
<path d="M997 64.25H995.25L994.5 65.5V68.25L994.75 73L995.25 76L995.75 76.5L997.75 76.25L1001.25 74.5L1002.5 72.75V68.25L1001.75 67L999.25 65L997 64.25Z" fill="#3F6981"/>
<path d="M502 207.891L796.696 205.835" stroke="#3F6981" stroke-width="4.72054" stroke-linecap="round"/>
<path d="M582.233 254.118L717.102 253.177" stroke="#3F6981" stroke-width="4.72054" stroke-linecap="round"/>
<path d="M690.131 159.941L825 159" stroke="#3F6981" stroke-width="4.72054" stroke-linecap="round"/>
<path d="M604.487 206.88L690.151 160.1" stroke="#3F6981" stroke-width="4.72054" stroke-linecap="round"/>
<path d="M511.425 208.229L581.559 254.085" stroke="#3F6981" stroke-width="4.72054" stroke-linecap="round"/>
</svg>
