<svg width="115" height="29" viewBox="0 0 115 29" fill="none" xmlns="http://www.w3.org/2000/svg">
<path d="M7.60435 0.303566H10.2246V2.98075C12.541 3.24657 14.4682 4.10099 16.0062 5.54402L13.8131 8.33513C12.7499 7.30982 11.4967 6.68325 10.0537 6.4554V10.6705C11.3638 10.9933 12.4651 11.3636 13.3575 11.7813C14.2688 12.18 15.0093 12.7591 15.579 13.5186C16.1676 14.2781 16.4619 15.2559 16.4619 16.4521C16.4619 18.161 15.9017 19.5375 14.7815 20.5818C13.6802 21.6261 12.1613 22.2432 10.2246 22.4331V25.0248H7.60435V22.4616C4.81324 22.2527 2.57276 21.2654 0.882902 19.4996L3.04744 16.5945C4.35755 17.9996 5.98095 18.8255 7.91764 19.0724V14.3446C6.60753 14.0408 5.50627 13.699 4.61388 13.3193C3.72148 12.9205 2.98098 12.3509 2.39238 11.6104C1.80378 10.8509 1.50948 9.8541 1.50948 8.61994C1.50948 7.65159 1.75631 6.75919 2.24998 5.94275C2.74364 5.1263 3.44617 4.45226 4.35755 3.92062C5.28792 3.38898 6.37019 3.06619 7.60435 2.95227V0.303566ZM5.52526 8.24969C5.52526 8.74335 5.71513 9.13259 6.09487 9.4174C6.4936 9.7022 7.10119 9.95853 7.91764 10.1864V6.25604C7.17714 6.29401 6.58854 6.50287 6.15184 6.88261C5.73412 7.24337 5.52526 7.69906 5.52526 8.24969ZM10.0537 19.0724C10.7942 18.9774 11.3733 18.7496 11.791 18.3888C12.2277 18.0091 12.4461 17.5154 12.4461 16.9078C12.4461 16.3382 12.2562 15.911 11.8765 15.6262C11.4967 15.3414 10.8891 15.0661 10.0537 14.8003V19.0724ZM34.7783 7.56615C36.2213 7.56615 37.484 7.88893 38.5662 8.53449C39.6675 9.18006 40.5029 10.0725 41.0725 11.2117C41.6611 12.3509 41.9554 13.6325 41.9554 15.0566C41.9554 16.4806 41.6611 17.7622 41.0725 18.9015C40.5029 20.0407 39.6675 20.9426 38.5662 21.6071C37.484 22.2527 36.2213 22.5755 34.7783 22.5755C33.9239 22.5755 33.0979 22.4236 32.3005 22.1198C31.522 21.797 30.8005 21.3508 30.1359 20.7812V27.8729H26.6043V7.9364H30.1359V9.33195C30.7815 8.76234 31.503 8.32563 32.3005 8.02184C33.0979 7.71805 33.9239 7.56615 34.7783 7.56615ZM34.3511 19.1578C35.5283 19.1578 36.4966 18.7781 37.2561 18.0186C38.0346 17.2401 38.4238 16.2528 38.4238 15.0566C38.4238 13.8604 38.0346 12.8825 37.2561 12.1231C36.4966 11.3446 35.5283 10.9554 34.3511 10.9554C33.5726 10.9554 32.8606 11.1357 32.215 11.4965C31.5695 11.8383 31.0568 12.3224 30.6771 12.949C30.3163 13.5756 30.1359 14.2876 30.1359 15.0851C30.1359 16.2812 30.5347 17.2591 31.3321 18.0186C32.1486 18.7781 33.1549 19.1578 34.3511 19.1578ZM52.8079 7.65159L52.5516 10.9838C52.4377 10.9459 52.2383 10.9269 51.9535 10.9269C50.7763 10.9269 49.7985 11.2686 49.02 11.9522C48.2605 12.6357 47.8808 13.5661 47.8808 14.7433V22.1768H44.3492V7.9364H47.8808V10.3288C48.2035 9.56929 48.7542 8.93322 49.5326 8.42057C50.3111 7.90792 51.251 7.65159 52.3522 7.65159H52.8079ZM57.1581 5.5725C56.4936 5.5725 55.9714 5.39212 55.5917 5.03136C55.2119 4.67061 55.0221 4.17694 55.0221 3.55037C55.0221 2.9048 55.2119 2.40164 55.5917 2.04089C55.9714 1.68013 56.4936 1.49976 57.1581 1.49976C57.8227 1.49976 58.3448 1.68013 58.7246 2.04089C59.1043 2.40164 59.2942 2.9048 59.2942 3.55037C59.2942 4.15796 59.0948 4.65162 58.6961 5.03136C58.3163 5.39212 57.8037 5.5725 57.1581 5.5725ZM55.3638 22.1768V7.9364H58.8955V22.1768H55.3638ZM74.6593 19.4141C73.9568 20.3825 73.0739 21.1515 72.0106 21.7211C70.9473 22.2907 69.7986 22.5755 68.5644 22.5755C67.2164 22.5755 65.9632 22.2432 64.805 21.5787C63.6658 20.8951 62.7544 19.9837 62.0708 18.8445C61.4063 17.6863 61.074 16.4331 61.074 15.0851C61.074 13.737 61.4063 12.4933 62.0708 11.3541C62.7544 10.1959 63.6658 9.28449 64.805 8.61994C65.9632 7.9364 67.2164 7.59463 68.5644 7.59463C69.7796 7.59463 70.9188 7.87944 71.9821 8.44905C73.0454 8.99968 73.9283 9.74967 74.6308 10.699L71.7258 12.6642C70.8334 11.6199 69.7796 11.0978 68.5644 11.0978C67.8429 11.0978 67.1784 11.2781 66.5708 11.6389C65.9632 11.9996 65.479 12.4838 65.1183 13.0914C64.7575 13.699 64.5771 14.3635 64.5771 15.0851C64.5771 15.8066 64.7575 16.4711 65.1183 17.0787C65.479 17.6863 65.9632 18.1705 66.5708 18.5312C67.1784 18.873 67.8429 19.0439 68.5644 19.0439C69.7796 19.0439 70.8334 18.5217 71.7258 17.4774L74.6593 19.4141ZM78.5743 5.5725C77.9097 5.5725 77.3876 5.39212 77.0079 5.03136C76.6281 4.67061 76.4382 4.17694 76.4382 3.55037C76.4382 2.9048 76.6281 2.40164 77.0079 2.04089C77.3876 1.68013 77.9097 1.49976 78.5743 1.49976C79.2388 1.49976 79.761 1.68013 80.1407 2.04089C80.5205 2.40164 80.7104 2.9048 80.7104 3.55037C80.7104 4.15796 80.511 4.65162 80.1123 5.03136C79.7325 5.39212 79.2199 5.5725 78.5743 5.5725ZM76.78 22.1768V7.9364H80.3116V22.1768H76.78ZM91.078 7.56615C91.9134 7.56615 92.7584 7.74653 93.6128 8.10728C94.4862 8.44905 95.2267 9.07563 95.8343 9.98701C96.4609 10.8984 96.7741 12.1231 96.7741 13.661V22.1768H93.2425V13.661C93.2425 12.5977 92.9387 11.8383 92.3312 11.3826C91.7426 10.9079 91.0495 10.6705 90.2521 10.6705C89.4546 10.6705 88.7711 10.9554 88.2014 11.525C87.6508 12.0756 87.3755 12.968 87.3755 14.2022V22.1768H83.8439V7.9364H87.3755V9.13259C87.8882 8.65791 88.4578 8.27817 89.0844 7.99336C89.7109 7.70855 90.3755 7.56615 91.078 7.56615ZM110.779 7.9364H114.311V21.4647C114.311 22.8128 113.969 23.9995 113.285 25.0248C112.621 26.0501 111.69 26.8381 110.494 27.3887C109.298 27.9583 107.96 28.2432 106.479 28.2432C104.827 28.2432 103.327 27.9204 101.979 27.2748C100.63 26.6482 99.6811 25.8223 99.1305 24.797L102.149 23.0597C102.434 23.6103 102.966 24.066 103.744 24.4267C104.523 24.8065 105.463 24.9963 106.564 24.9963C107.779 24.9963 108.785 24.6641 109.583 23.9995C110.38 23.354 110.779 22.509 110.779 21.4647V20.8097C110.134 21.3793 109.412 21.816 108.615 22.1198C107.817 22.4236 106.991 22.5755 106.137 22.5755C104.694 22.5755 103.431 22.2527 102.349 21.6071C101.267 20.9616 100.431 20.0692 99.8425 18.93C99.2729 17.7907 98.9881 16.5091 98.9881 15.0851C98.9881 13.661 99.2729 12.3794 99.8425 11.2402C100.431 10.1009 101.267 9.20854 102.349 8.56297C103.431 7.89842 104.694 7.56615 106.137 7.56615C106.991 7.56615 107.808 7.72754 108.586 8.05032C109.384 8.35412 110.115 8.78133 110.779 9.33195V7.9364ZM106.592 19.1863C107.371 19.1863 108.073 19.0154 108.7 18.6736C109.346 18.3129 109.849 17.8192 110.209 17.1926C110.589 16.5661 110.779 15.854 110.779 15.0566C110.779 13.8604 110.371 12.8825 109.554 12.1231C108.757 11.3636 107.77 10.9838 106.592 10.9838C105.396 10.9838 104.409 11.3731 103.63 12.1515C102.871 12.911 102.491 13.8889 102.491 15.0851C102.491 16.2812 102.871 17.2686 103.63 18.0471C104.409 18.8065 105.396 19.1863 106.592 19.1863Z" fill="#E6E8EB"/>
</svg>
