<svg width="467" height="70" viewBox="0 0 467 70" fill="none" xmlns="http://www.w3.org/2000/svg">
<rect width="467" height="70" rx="35" fill="white"/>
<path d="M187.518 27.6L187.158 32.28C186.998 32.2267 186.718 32.2 186.318 32.2C184.665 32.2 183.291 32.68 182.198 33.64C181.131 34.6 180.598 35.9067 180.598 37.56V48H175.638V28H180.598V31.36C181.051 30.2933 181.825 29.4 182.918 28.68C184.011 27.96 185.331 27.6 186.878 27.6H187.518ZM199.101 27.48C201.021 27.48 202.741 27.96 204.261 28.92C205.807 29.8533 207.007 31.12 207.861 32.72C208.714 34.32 209.141 36.0933 209.141 38.04C209.141 38.68 209.087 39.2667 208.981 39.8H193.541C193.941 41.2133 194.647 42.32 195.661 43.12C196.674 43.8933 197.967 44.28 199.541 44.28C200.501 44.28 201.421 44.0667 202.301 43.64C203.207 43.2133 203.887 42.6667 204.341 42L208.141 44.24C207.207 45.6267 205.994 46.6933 204.501 47.44C203.034 48.16 201.341 48.52 199.421 48.52C197.287 48.52 195.394 48.0667 193.741 47.16C192.087 46.2533 190.807 45 189.901 43.4C189.021 41.8 188.581 40 188.581 38C188.581 36.0267 189.021 34.24 189.901 32.64C190.807 31.04 192.061 29.7867 193.661 28.88C195.261 27.9467 197.074 27.48 199.101 27.48ZM204.501 35.92C204.287 34.64 203.687 33.64 202.701 32.92C201.741 32.1733 200.527 31.8 199.061 31.8C198.047 31.8 197.114 31.9867 196.261 32.36C195.434 32.7333 194.767 33.24 194.261 33.88C193.754 34.52 193.487 35.2 193.461 35.92H204.501ZM219.775 42L225.015 28H230.255L222.815 48H216.735L209.295 28H214.535L219.775 42ZM235.62 24.68C234.687 24.68 233.953 24.4267 233.42 23.92C232.887 23.4133 232.62 22.72 232.62 21.84C232.62 20.9333 232.887 20.2267 233.42 19.72C233.953 19.2133 234.687 18.96 235.62 18.96C236.553 18.96 237.287 19.2133 237.82 19.72C238.353 20.2267 238.62 20.9333 238.62 21.84C238.62 22.6933 238.34 23.3867 237.78 23.92C237.247 24.4267 236.527 24.68 235.62 24.68ZM233.1 48V28H238.06V48H233.1ZM251.64 27.48C253.56 27.48 255.28 27.96 256.8 28.92C258.346 29.8533 259.546 31.12 260.4 32.72C261.253 34.32 261.68 36.0933 261.68 38.04C261.68 38.68 261.626 39.2667 261.52 39.8H246.08C246.48 41.2133 247.186 42.32 248.2 43.12C249.213 43.8933 250.506 44.28 252.08 44.28C253.04 44.28 253.96 44.0667 254.84 43.64C255.746 43.2133 256.426 42.6667 256.88 42L260.68 44.24C259.746 45.6267 258.533 46.6933 257.04 47.44C255.573 48.16 253.88 48.52 251.96 48.52C249.826 48.52 247.933 48.0667 246.28 47.16C244.626 46.2533 243.346 45 242.44 43.4C241.56 41.8 241.12 40 241.12 38C241.12 36.0267 241.56 34.24 242.44 32.64C243.346 31.04 244.6 29.7867 246.2 28.88C247.8 27.9467 249.613 27.48 251.64 27.48ZM257.04 35.92C256.826 34.64 256.226 33.64 255.24 32.92C254.28 32.1733 253.066 31.8 251.6 31.8C250.586 31.8 249.653 31.9867 248.8 32.36C247.973 32.7333 247.306 33.24 246.8 33.88C246.293 34.52 246.026 35.2 246 35.92H257.04ZM283.394 40.12L287.114 28H292.314L285.834 48H280.914L277.154 36.12L273.394 48H268.554L262.234 28H267.394L270.994 40.04L274.514 28H279.794L283.394 40.12Z" fill="black"/>
</svg>
