<svg width="622" height="93" viewBox="0 0 622 93" fill="none" xmlns="http://www.w3.org/2000/svg">
<path d="M161.628 28C161.628 28.7 162.012 29.2333 162.778 29.6C163.578 29.9333 164.828 30.2833 166.528 30.65C168.462 31.05 170.078 31.5 171.378 32C172.678 32.5 173.795 33.3 174.728 34.4C175.695 35.4667 176.178 36.9167 176.178 38.75C176.178 40.3833 175.678 41.8 174.678 43C173.712 44.2 172.412 45.1167 170.778 45.75C169.145 46.35 167.362 46.65 165.428 46.65C162.795 46.65 160.528 46.15 158.628 45.15C156.762 44.15 155.378 42.7167 154.478 40.85L159.578 38.2C160.478 40.5 162.428 41.65 165.428 41.65C166.728 41.65 167.845 41.4 168.778 40.9C169.712 40.4 170.178 39.6833 170.178 38.75C170.178 37.95 169.745 37.3667 168.878 37C168.045 36.6 166.678 36.1667 164.778 35.7C162.812 35.2333 161.212 34.7667 159.978 34.3C158.745 33.8333 157.678 33.1167 156.778 32.15C155.878 31.15 155.428 29.8333 155.428 28.2C155.428 26.6 155.878 25.2167 156.778 24.05C157.678 22.85 158.895 21.9333 160.428 21.3C161.962 20.6667 163.645 20.35 165.478 20.35C167.645 20.35 169.578 20.8 171.278 21.7C173.012 22.6 174.345 23.8833 175.278 25.55L170.228 28.1C169.362 26.2333 167.778 25.3 165.478 25.3C164.312 25.3 163.378 25.55 162.678 26.05C161.978 26.5167 161.628 27.1667 161.628 28ZM191.758 20.35C194.158 20.35 196.308 20.95 198.208 22.15C200.141 23.3167 201.641 24.9 202.708 26.9C203.774 28.9 204.308 31.1167 204.308 33.55C204.308 34.35 204.241 35.0833 204.108 35.75H184.808C185.308 37.5167 186.191 38.9 187.458 39.9C188.724 40.8667 190.341 41.35 192.308 41.35C193.508 41.35 194.658 41.0833 195.758 40.55C196.891 40.0167 197.741 39.3333 198.308 38.5L203.058 41.3C201.891 43.0333 200.374 44.3667 198.508 45.3C196.674 46.2 194.558 46.65 192.158 46.65C189.491 46.65 187.124 46.0833 185.058 44.95C182.991 43.8167 181.391 42.25 180.258 40.25C179.158 38.25 178.608 36 178.608 33.5C178.608 31.0333 179.158 28.8 180.258 26.8C181.391 24.8 182.958 23.2333 184.958 22.1C186.958 20.9333 189.224 20.35 191.758 20.35ZM198.508 30.9C198.241 29.3 197.491 28.05 196.258 27.15C195.058 26.2167 193.541 25.75 191.708 25.75C190.441 25.75 189.274 25.9833 188.208 26.45C187.174 26.9167 186.341 27.55 185.708 28.35C185.074 29.15 184.741 30 184.708 30.9H198.508ZM216.636 37.45C216.636 38.5833 216.903 39.3667 217.436 39.8C217.969 40.2333 218.819 40.45 219.986 40.45C220.686 40.45 221.453 40.4 222.286 40.3V46C220.719 46.1667 219.419 46.25 218.386 46.25C215.719 46.25 213.719 45.65 212.386 44.45C211.086 43.2167 210.436 41.0167 210.436 37.85V26.55H205.736V21H210.436V14.85L216.636 12.75V21H222.186V26.55H216.636V37.45ZM257.156 21H263.656L254.906 46.05C253.606 49.4833 251.806 52.05 249.506 53.75C247.239 55.4833 244.556 56.2333 241.456 56V50C241.656 50.0333 241.956 50.05 242.356 50.05C245.022 50.05 247.106 48.4333 248.606 45.2L237.606 21H244.256L251.606 36.9L257.156 21ZM278.916 46.7C276.549 46.7 274.349 46.1167 272.316 44.95C270.316 43.75 268.716 42.15 267.516 40.15C266.349 38.1167 265.766 35.9167 265.766 33.55C265.766 31.1833 266.349 29 267.516 27C268.716 24.9667 270.316 23.3667 272.316 22.2C274.349 21 276.549 20.4 278.916 20.4C281.282 20.4 283.466 21 285.466 22.2C287.499 23.3667 289.099 24.9667 290.266 27C291.466 29 292.066 31.1833 292.066 33.55C292.066 35.9167 291.466 38.1167 290.266 40.15C289.099 42.15 287.499 43.75 285.466 44.95C283.466 46.1167 281.282 46.7 278.916 46.7ZM278.866 40.5C280.132 40.5 281.299 40.2 282.366 39.6C283.432 38.9667 284.282 38.1167 284.916 37.05C285.549 35.9833 285.866 34.8167 285.866 33.55C285.866 32.2833 285.549 31.1167 284.916 30.05C284.282 28.9833 283.432 28.1333 282.366 27.5C281.299 26.8667 280.132 26.55 278.866 26.55C277.599 26.55 276.432 26.8667 275.366 27.5C274.299 28.1333 273.449 28.9833 272.816 30.05C272.216 31.1167 271.916 32.2833 271.916 33.55C271.916 34.8167 272.216 35.9833 272.816 37.05C273.449 38.1167 274.299 38.9667 275.366 39.6C276.432 40.2 277.599 40.5 278.866 40.5ZM311.773 21H317.973V46H311.773V43.9C310.873 44.7333 309.873 45.4 308.773 45.9C307.673 46.4 306.507 46.65 305.273 46.65C303.807 46.65 302.307 46.35 300.773 45.75C299.273 45.1167 297.973 44 296.873 42.4C295.807 40.8 295.273 38.65 295.273 35.95V21H301.473V35.95C301.473 37.8167 301.99 39.1667 303.023 40C304.09 40.8 305.323 41.2 306.723 41.2C308.123 41.2 309.307 40.7167 310.273 39.75C311.273 38.75 311.773 37.1667 311.773 35V21ZM339.242 20.5L338.792 26.35C338.592 26.2833 338.242 26.25 337.742 26.25C335.676 26.25 333.959 26.85 332.592 28.05C331.259 29.25 330.592 30.8833 330.592 32.95V46H324.392V21H330.592V25.2C331.159 23.8667 332.126 22.75 333.492 21.85C334.859 20.95 336.509 20.5 338.442 20.5H339.242ZM370.578 20.35C373.112 20.35 375.328 20.9167 377.228 22.05C379.162 23.1833 380.628 24.75 381.628 26.75C382.662 28.75 383.178 31 383.178 33.5C383.178 36 382.662 38.25 381.628 40.25C380.628 42.25 379.162 43.8333 377.228 45C375.328 46.1333 373.112 46.7 370.578 46.7C369.078 46.7 367.628 46.4333 366.228 45.9C364.862 45.3333 363.595 44.55 362.428 43.55V56H356.228V21H362.428V23.45C363.562 22.45 364.828 21.6833 366.228 21.15C367.628 20.6167 369.078 20.35 370.578 20.35ZM369.828 40.7C371.895 40.7 373.595 40.0333 374.928 38.7C376.295 37.3333 376.978 35.6 376.978 33.5C376.978 31.4 376.295 29.6833 374.928 28.35C373.595 26.9833 371.895 26.3 369.828 26.3C368.462 26.3 367.212 26.6167 366.078 27.25C364.945 27.85 364.045 28.7 363.378 29.8C362.745 30.9 362.428 32.15 362.428 33.55C362.428 35.65 363.128 37.3667 364.528 38.7C365.962 40.0333 367.728 40.7 369.828 40.7ZM402.231 20.5L401.781 26.35C401.581 26.2833 401.231 26.25 400.731 26.25C398.664 26.25 396.947 26.85 395.581 28.05C394.247 29.25 393.581 30.8833 393.581 32.95V46H387.381V21H393.581V25.2C394.147 23.8667 395.114 22.75 396.481 21.85C397.847 20.95 399.497 20.5 401.431 20.5H402.231ZM409.868 16.85C408.701 16.85 407.784 16.5333 407.118 15.9C406.451 15.2667 406.118 14.4 406.118 13.3C406.118 12.1667 406.451 11.2833 407.118 10.65C407.784 10.0167 408.701 9.7 409.868 9.7C411.034 9.7 411.951 10.0167 412.618 10.65C413.284 11.2833 413.618 12.1667 413.618 13.3C413.618 14.3667 413.268 15.2333 412.568 15.9C411.901 16.5333 411.001 16.85 409.868 16.85ZM406.718 46V21H412.918V46H406.718ZM440.592 41.15C439.359 42.85 437.809 44.2 435.942 45.2C434.076 46.2 432.059 46.7 429.892 46.7C427.526 46.7 425.326 46.1167 423.292 44.95C421.292 43.75 419.692 42.15 418.492 40.15C417.326 38.1167 416.742 35.9167 416.742 33.55C416.742 31.1833 417.326 29 418.492 27C419.692 24.9667 421.292 23.3667 423.292 22.2C425.326 21 427.526 20.4 429.892 20.4C432.026 20.4 434.026 20.9 435.892 21.9C437.759 22.8667 439.309 24.1833 440.542 25.85L435.442 29.3C433.876 27.4667 432.026 26.55 429.892 26.55C428.626 26.55 427.459 26.8667 426.392 27.5C425.326 28.1333 424.476 28.9833 423.842 30.05C423.209 31.1167 422.892 32.2833 422.892 33.55C422.892 34.8167 423.209 35.9833 423.842 37.05C424.476 38.1167 425.326 38.9667 426.392 39.6C427.459 40.2 428.626 40.5 429.892 40.5C432.026 40.5 433.876 39.5833 435.442 37.75L440.592 41.15ZM455.722 20.35C458.122 20.35 460.272 20.95 462.172 22.15C464.106 23.3167 465.606 24.9 466.672 26.9C467.739 28.9 468.272 31.1167 468.272 33.55C468.272 34.35 468.206 35.0833 468.072 35.75H448.772C449.272 37.5167 450.156 38.9 451.422 39.9C452.689 40.8667 454.306 41.35 456.272 41.35C457.472 41.35 458.622 41.0833 459.722 40.55C460.856 40.0167 461.706 39.3333 462.272 38.5L467.022 41.3C465.856 43.0333 464.339 44.3667 462.472 45.3C460.639 46.2 458.522 46.65 456.122 46.65C453.456 46.65 451.089 46.0833 449.022 44.95C446.956 43.8167 445.356 42.25 444.222 40.25C443.122 38.25 442.572 36 442.572 33.5C442.572 31.0333 443.122 28.8 444.222 26.8C445.356 24.8 446.922 23.2333 448.922 22.1C450.922 20.9333 453.189 20.35 455.722 20.35ZM462.472 30.9C462.206 29.3 461.456 28.05 460.222 27.15C459.022 26.2167 457.506 25.75 455.672 25.75C454.406 25.75 453.239 25.9833 452.172 26.45C451.139 26.9167 450.306 27.55 449.672 28.35C449.039 29.15 448.706 30 448.672 30.9H462.472Z" fill="#E6E8EB"/>
<path d="M0.900625 81.04C0.900625 79.7333 1.22063 78.5267 1.86063 77.42C2.51396 76.3133 3.39396 75.44 4.50063 74.8C5.60729 74.1467 6.81396 73.82 8.12063 73.82C9.45396 73.82 10.6873 74.1667 11.8206 74.86C12.954 75.54 13.8273 76.4467 14.4406 77.58L12.1406 78.8C11.7406 78.0933 11.1806 77.5267 10.4606 77.1C9.74063 76.66 8.96063 76.44 8.12063 76.44C7.29396 76.44 6.52063 76.6467 5.80063 77.06C5.09396 77.4733 4.53396 78.0333 4.12063 78.74C3.70729 79.4467 3.50063 80.2133 3.50063 81.04C3.50063 81.8667 3.70729 82.6333 4.12063 83.34C4.53396 84.0467 5.09396 84.6067 5.80063 85.02C6.52063 85.4333 7.29396 85.64 8.12063 85.64C8.98729 85.64 9.77396 85.42 10.4806 84.98C11.2006 84.54 11.7606 83.9533 12.1606 83.22L14.4606 84.48C13.8473 85.6267 12.974 86.5467 11.8406 87.24C10.7073 87.92 9.46729 88.26 8.12063 88.26C6.81396 88.26 5.60729 87.94 4.50063 87.3C3.39396 86.6467 2.51396 85.7667 1.86063 84.66C1.22063 83.5533 0.900625 82.3467 0.900625 81.04ZM20.5347 88.28C19.588 88.28 18.708 88.0467 17.8947 87.58C17.0947 87.1 16.4547 86.46 15.9747 85.66C15.508 84.8467 15.2747 83.9667 15.2747 83.02C15.2747 82.0733 15.508 81.2 15.9747 80.4C16.4547 79.5867 17.0947 78.9467 17.8947 78.48C18.708 78 19.588 77.76 20.5347 77.76C21.4814 77.76 22.3547 78 23.1547 78.48C23.968 78.9467 24.608 79.5867 25.0747 80.4C25.5547 81.2 25.7947 82.0733 25.7947 83.02C25.7947 83.9667 25.5547 84.8467 25.0747 85.66C24.608 86.46 23.968 87.1 23.1547 87.58C22.3547 88.0467 21.4814 88.28 20.5347 88.28ZM20.5147 85.8C21.0214 85.8 21.488 85.68 21.9147 85.44C22.3414 85.1867 22.6814 84.8467 22.9347 84.42C23.188 83.9933 23.3147 83.5267 23.3147 83.02C23.3147 82.5133 23.188 82.0467 22.9347 81.62C22.6814 81.1933 22.3414 80.8533 21.9147 80.6C21.488 80.3467 21.0214 80.22 20.5147 80.22C20.008 80.22 19.5414 80.3467 19.1147 80.6C18.688 80.8533 18.348 81.1933 18.0947 81.62C17.8547 82.0467 17.7347 82.5133 17.7347 83.02C17.7347 83.5267 17.8547 83.9933 18.0947 84.42C18.348 84.8467 18.688 85.1867 19.1147 85.44C19.5414 85.68 20.008 85.8 20.5147 85.8ZM32.4577 77.74C33.0443 77.74 33.6377 77.8667 34.2377 78.12C34.851 78.36 35.371 78.8 35.7977 79.44C36.2377 80.08 36.4577 80.94 36.4577 82.02V88H33.9777V82.02C33.9777 81.2733 33.7643 80.74 33.3377 80.42C32.9243 80.0867 32.4377 79.92 31.8777 79.92C31.3177 79.92 30.8377 80.12 30.4377 80.52C30.051 80.9067 29.8577 81.5333 29.8577 82.4V88H27.3777V78H29.8577V78.84C30.2177 78.5067 30.6177 78.24 31.0577 78.04C31.4977 77.84 31.9643 77.74 32.4577 77.74ZM44.403 76.1C44.0696 76.06 43.7696 76.04 43.503 76.04C43.0363 76.04 42.6963 76.1267 42.483 76.3C42.2696 76.4733 42.163 76.7933 42.163 77.26V78H44.383V80.22H42.163V88H39.683V80.22H38.023V78H39.683V77.1C39.683 75.8333 39.943 74.96 40.463 74.48C40.983 73.9867 41.7696 73.74 42.823 73.74C43.2363 73.74 43.763 73.7733 44.403 73.84V76.1ZM47.083 76.34C46.6163 76.34 46.2496 76.2133 45.983 75.96C45.7163 75.7067 45.583 75.36 45.583 74.92C45.583 74.4667 45.7163 74.1133 45.983 73.86C46.2496 73.6067 46.6163 73.48 47.083 73.48C47.5496 73.48 47.9163 73.6067 48.183 73.86C48.4496 74.1133 48.583 74.4667 48.583 74.92C48.583 75.3467 48.443 75.6933 48.163 75.96C47.8963 76.2133 47.5363 76.34 47.083 76.34ZM45.823 88V78H48.303V88H45.823ZM58.6361 78H61.1161V87.5C61.1161 88.4467 60.8761 89.28 60.3961 90C59.9294 90.72 59.2761 91.2733 58.4361 91.66C57.5961 92.06 56.6561 92.26 55.6161 92.26C54.4561 92.26 53.4028 92.0333 52.4561 91.58C51.5094 91.14 50.8428 90.56 50.4561 89.84L52.5761 88.62C52.7761 89.0067 53.1494 89.3267 53.6961 89.58C54.2428 89.8467 54.9028 89.98 55.6761 89.98C56.5294 89.98 57.2361 89.7467 57.7961 89.28C58.3561 88.8267 58.6361 88.2333 58.6361 87.5V87.04C58.1828 87.44 57.6761 87.7467 57.1161 87.96C56.5561 88.1733 55.9761 88.28 55.3761 88.28C54.3628 88.28 53.4761 88.0533 52.7161 87.6C51.9561 87.1467 51.3694 86.52 50.9561 85.72C50.5561 84.92 50.3561 84.02 50.3561 83.02C50.3561 82.02 50.5561 81.12 50.9561 80.32C51.3694 79.52 51.9561 78.8933 52.7161 78.44C53.4761 77.9733 54.3628 77.74 55.3761 77.74C55.9761 77.74 56.5494 77.8533 57.0961 78.08C57.6561 78.2933 58.1694 78.5933 58.6361 78.98V78ZM55.6961 85.9C56.2428 85.9 56.7361 85.78 57.1761 85.54C57.6294 85.2867 57.9828 84.94 58.2361 84.5C58.5028 84.06 58.6361 83.56 58.6361 83C58.6361 82.16 58.3494 81.4733 57.7761 80.94C57.2161 80.4067 56.5228 80.14 55.6961 80.14C54.8561 80.14 54.1628 80.4133 53.6161 80.96C53.0828 81.4933 52.8161 82.18 52.8161 83.02C52.8161 83.86 53.0828 84.5533 53.6161 85.1C54.1628 85.6333 54.8561 85.9 55.6961 85.9ZM69.5761 78H72.0561V88H69.5761V87.16C69.2161 87.4933 68.8161 87.76 68.3761 87.96C67.9361 88.16 67.4694 88.26 66.9761 88.26C66.3894 88.26 65.7894 88.14 65.1761 87.9C64.5761 87.6467 64.0561 87.2 63.6161 86.56C63.1894 85.92 62.9761 85.06 62.9761 83.98V78H65.4561V83.98C65.4561 84.7267 65.6628 85.2667 66.0761 85.6C66.5028 85.92 66.9961 86.08 67.5561 86.08C68.1161 86.08 68.5894 85.8867 68.9761 85.5C69.3761 85.1 69.5761 84.4667 69.5761 83.6V78ZM80.5638 77.8L80.3838 80.14C80.3038 80.1133 80.1638 80.1 79.9638 80.1C79.1371 80.1 78.4504 80.34 77.9038 80.82C77.3704 81.3 77.1038 81.9533 77.1038 82.78V88H74.6238V78H77.1038V79.68C77.3304 79.1467 77.7171 78.7 78.2638 78.34C78.8104 77.98 79.4704 77.8 80.2438 77.8H80.5638ZM86.355 77.74C87.315 77.74 88.175 77.98 88.935 78.46C89.7083 78.9267 90.3083 79.56 90.735 80.36C91.1617 81.16 91.375 82.0467 91.375 83.02C91.375 83.34 91.3483 83.6333 91.295 83.9H83.575C83.775 84.6067 84.1283 85.16 84.635 85.56C85.1417 85.9467 85.7883 86.14 86.575 86.14C87.055 86.14 87.515 86.0333 87.955 85.82C88.4083 85.6067 88.7483 85.3333 88.975 85L90.875 86.12C90.4083 86.8133 89.8017 87.3467 89.055 87.72C88.3217 88.08 87.475 88.26 86.515 88.26C85.4483 88.26 84.5017 88.0333 83.675 87.58C82.8483 87.1267 82.2083 86.5 81.755 85.7C81.315 84.9 81.095 84 81.095 83C81.095 82.0133 81.315 81.12 81.755 80.32C82.2083 79.52 82.835 78.8933 83.635 78.44C84.435 77.9733 85.3417 77.74 86.355 77.74ZM89.055 81.96C88.9483 81.32 88.6483 80.82 88.155 80.46C87.675 80.0867 87.0683 79.9 86.335 79.9C85.8283 79.9 85.3617 79.9933 84.935 80.18C84.5217 80.3667 84.1883 80.62 83.935 80.94C83.6817 81.26 83.5483 81.6 83.535 81.96H89.055ZM104.211 77.74C105.225 77.74 106.111 77.9667 106.871 78.42C107.645 78.8733 108.231 79.5 108.631 80.3C109.045 81.1 109.251 82 109.251 83C109.251 84 109.045 84.9 108.631 85.7C108.231 86.5 107.645 87.1333 106.871 87.6C106.111 88.0533 105.225 88.28 104.211 88.28C103.611 88.28 103.031 88.1733 102.471 87.96C101.925 87.7333 101.418 87.42 100.951 87.02V92H98.4714V78H100.951V78.98C101.405 78.58 101.911 78.2733 102.471 78.06C103.031 77.8467 103.611 77.74 104.211 77.74ZM103.911 85.88C104.738 85.88 105.418 85.6133 105.951 85.08C106.498 84.5333 106.771 83.84 106.771 83C106.771 82.16 106.498 81.4733 105.951 80.94C105.418 80.3933 104.738 80.12 103.911 80.12C103.365 80.12 102.865 80.2467 102.411 80.5C101.958 80.74 101.598 81.08 101.331 81.52C101.078 81.96 100.951 82.46 100.951 83.02C100.951 83.86 101.231 84.5467 101.791 85.08C102.365 85.6133 103.071 85.88 103.911 85.88ZM116.872 77.8L116.692 80.14C116.612 80.1133 116.472 80.1 116.272 80.1C115.446 80.1 114.759 80.34 114.212 80.82C113.679 81.3 113.412 81.9533 113.412 82.78V88H110.932V78H113.412V79.68C113.639 79.1467 114.026 78.7 114.572 78.34C115.119 77.98 115.779 77.8 116.552 77.8H116.872ZM119.927 76.34C119.461 76.34 119.094 76.2133 118.827 75.96C118.561 75.7067 118.427 75.36 118.427 74.92C118.427 74.4667 118.561 74.1133 118.827 73.86C119.094 73.6067 119.461 73.48 119.927 73.48C120.394 73.48 120.761 73.6067 121.027 73.86C121.294 74.1133 121.427 74.4667 121.427 74.92C121.427 75.3467 121.287 75.6933 121.007 75.96C120.741 76.2133 120.381 76.34 119.927 76.34ZM118.667 88V78H121.147V88H118.667ZM132.217 86.06C131.724 86.74 131.104 87.28 130.357 87.68C129.61 88.08 128.804 88.28 127.937 88.28C126.99 88.28 126.11 88.0467 125.297 87.58C124.497 87.1 123.857 86.46 123.377 85.66C122.91 84.8467 122.677 83.9667 122.677 83.02C122.677 82.0733 122.91 81.2 123.377 80.4C123.857 79.5867 124.497 78.9467 125.297 78.48C126.11 78 126.99 77.76 127.937 77.76C128.79 77.76 129.59 77.96 130.337 78.36C131.084 78.7467 131.704 79.2733 132.197 79.94L130.157 81.32C129.53 80.5867 128.79 80.22 127.937 80.22C127.43 80.22 126.964 80.3467 126.537 80.6C126.11 80.8533 125.77 81.1933 125.517 81.62C125.264 82.0467 125.137 82.5133 125.137 83.02C125.137 83.5267 125.264 83.9933 125.517 84.42C125.77 84.8467 126.11 85.1867 126.537 85.44C126.964 85.68 127.43 85.8 127.937 85.8C128.79 85.8 129.53 85.4333 130.157 84.7L132.217 86.06ZM134.966 76.34C134.5 76.34 134.133 76.2133 133.866 75.96C133.6 75.7067 133.466 75.36 133.466 74.92C133.466 74.4667 133.6 74.1133 133.866 73.86C134.133 73.6067 134.5 73.48 134.966 73.48C135.433 73.48 135.8 73.6067 136.066 73.86C136.333 74.1133 136.466 74.4667 136.466 74.92C136.466 75.3467 136.326 75.6933 136.046 75.96C135.78 76.2133 135.42 76.34 134.966 76.34ZM133.706 88V78H136.186V88H133.706ZM143.747 77.74C144.333 77.74 144.927 77.8667 145.527 78.12C146.14 78.36 146.66 78.8 147.087 79.44C147.527 80.08 147.747 80.94 147.747 82.02V88H145.267V82.02C145.267 81.2733 145.053 80.74 144.627 80.42C144.213 80.0867 143.727 79.92 143.167 79.92C142.607 79.92 142.127 80.12 141.727 80.52C141.34 80.9067 141.147 81.5333 141.147 82.4V88H138.667V78H141.147V78.84C141.507 78.5067 141.907 78.24 142.347 78.04C142.787 77.84 143.253 77.74 143.747 77.74ZM157.581 78H160.061V87.5C160.061 88.4467 159.821 89.28 159.341 90C158.875 90.72 158.221 91.2733 157.381 91.66C156.541 92.06 155.601 92.26 154.561 92.26C153.401 92.26 152.348 92.0333 151.401 91.58C150.455 91.14 149.788 90.56 149.401 89.84L151.521 88.62C151.721 89.0067 152.095 89.3267 152.641 89.58C153.188 89.8467 153.848 89.98 154.621 89.98C155.475 89.98 156.181 89.7467 156.741 89.28C157.301 88.8267 157.581 88.2333 157.581 87.5V87.04C157.128 87.44 156.621 87.7467 156.061 87.96C155.501 88.1733 154.921 88.28 154.321 88.28C153.308 88.28 152.421 88.0533 151.661 87.6C150.901 87.1467 150.315 86.52 149.901 85.72C149.501 84.92 149.301 84.02 149.301 83.02C149.301 82.02 149.501 81.12 149.901 80.32C150.315 79.52 150.901 78.8933 151.661 78.44C152.421 77.9733 153.308 77.74 154.321 77.74C154.921 77.74 155.495 77.8533 156.041 78.08C156.601 78.2933 157.115 78.5933 157.581 78.98V78ZM154.641 85.9C155.188 85.9 155.681 85.78 156.121 85.54C156.575 85.2867 156.928 84.94 157.181 84.5C157.448 84.06 157.581 83.56 157.581 83C157.581 82.16 157.295 81.4733 156.721 80.94C156.161 80.4067 155.468 80.14 154.641 80.14C153.801 80.14 153.108 80.4133 152.561 80.96C152.028 81.4933 151.761 82.18 151.761 83.02C151.761 83.86 152.028 84.5533 152.561 85.1C153.108 85.6333 153.801 85.9 154.641 85.9ZM163.452 88.18C163.052 88.0733 162.785 87.9333 162.652 87.76C162.532 87.5733 162.472 87.2467 162.472 86.78C162.472 86.3267 162.592 85.9733 162.832 85.72C163.085 85.4667 163.439 85.34 163.892 85.34C164.345 85.34 164.699 85.4733 164.952 85.74C165.205 85.9933 165.332 86.3533 165.332 86.82C165.319 87.34 165.252 87.76 165.132 88.08C165.025 88.4 164.805 88.7933 164.472 89.26L163.472 90.62L162.672 89.96L163.452 88.18ZM178.767 77.8L178.587 80.14C178.507 80.1133 178.367 80.1 178.167 80.1C177.34 80.1 176.654 80.34 176.107 80.82C175.574 81.3 175.307 81.9533 175.307 82.78V88H172.827V78H175.307V79.68C175.534 79.1467 175.92 78.7 176.467 78.34C177.014 77.98 177.674 77.8 178.447 77.8H178.767ZM184.5 88.28C183.553 88.28 182.673 88.0467 181.86 87.58C181.06 87.1 180.42 86.46 179.94 85.66C179.473 84.8467 179.24 83.9667 179.24 83.02C179.24 82.0733 179.473 81.2 179.94 80.4C180.42 79.5867 181.06 78.9467 181.86 78.48C182.673 78 183.553 77.76 184.5 77.76C185.446 77.76 186.32 78 187.12 78.48C187.933 78.9467 188.573 79.5867 189.04 80.4C189.52 81.2 189.76 82.0733 189.76 83.02C189.76 83.9667 189.52 84.8467 189.04 85.66C188.573 86.46 187.933 87.1 187.12 87.58C186.32 88.0467 185.446 88.28 184.5 88.28ZM184.48 85.8C184.986 85.8 185.453 85.68 185.88 85.44C186.306 85.1867 186.646 84.8467 186.9 84.42C187.153 83.9933 187.28 83.5267 187.28 83.02C187.28 82.5133 187.153 82.0467 186.9 81.62C186.646 81.1933 186.306 80.8533 185.88 80.6C185.453 80.3467 184.986 80.22 184.48 80.22C183.973 80.22 183.506 80.3467 183.08 80.6C182.653 80.8533 182.313 81.1933 182.06 81.62C181.82 82.0467 181.7 82.5133 181.7 83.02C181.7 83.5267 181.82 83.9933 182.06 84.42C182.313 84.8467 182.653 85.1867 183.08 85.44C183.506 85.68 183.973 85.8 184.48 85.8ZM198.393 78H200.993L197.493 88.02C196.973 89.3933 196.253 90.42 195.333 91.1C194.426 91.7933 193.353 92.0933 192.113 92V89.6C192.193 89.6133 192.313 89.62 192.473 89.62C193.54 89.62 194.373 88.9733 194.973 87.68L190.573 78H193.233L196.173 84.36L198.393 78ZM210.237 78H212.717V88H210.237V87.02C209.771 87.42 209.257 87.7333 208.697 87.96C208.151 88.1733 207.571 88.28 206.957 88.28C205.944 88.28 205.057 88.0533 204.297 87.6C203.537 87.1467 202.951 86.52 202.537 85.72C202.137 84.92 201.937 84.02 201.937 83.02C201.937 82.02 202.137 81.12 202.537 80.32C202.951 79.52 203.537 78.8933 204.297 78.44C205.057 77.9733 205.944 77.74 206.957 77.74C207.571 77.74 208.151 77.8533 208.697 78.08C209.257 78.2933 209.771 78.6 210.237 79V78ZM207.277 85.9C207.824 85.9 208.317 85.78 208.757 85.54C209.211 85.2867 209.564 84.94 209.817 84.5C210.084 84.06 210.217 83.56 210.217 83C210.217 82.16 209.931 81.4733 209.357 80.94C208.797 80.4067 208.104 80.14 207.277 80.14C206.437 80.14 205.744 80.4133 205.197 80.96C204.664 81.4933 204.397 82.18 204.397 83.02C204.397 83.86 204.664 84.5533 205.197 85.1C205.744 85.6333 206.437 85.9 207.277 85.9ZM217.455 85.18C217.455 85.3933 217.509 85.5467 217.615 85.64C217.722 85.7333 217.889 85.78 218.115 85.78C218.289 85.78 218.495 85.76 218.735 85.72V88C218.242 88.08 217.782 88.12 217.355 88.12C216.582 88.12 215.989 87.92 215.575 87.52C215.175 87.1067 214.975 86.38 214.975 85.34V74H217.455V85.18ZM224.08 84.58C224.08 85.0333 224.187 85.3467 224.4 85.52C224.613 85.6933 224.953 85.78 225.42 85.78C225.7 85.78 226.007 85.76 226.34 85.72V88C225.713 88.0667 225.193 88.1 224.78 88.1C223.713 88.1 222.913 87.86 222.38 87.38C221.86 86.8867 221.6 86.0067 221.6 84.74V80.22H219.72V78H221.6V75.54L224.08 74.7V78H226.3V80.22H224.08V84.58ZM229.615 76.34C229.148 76.34 228.781 76.2133 228.515 75.96C228.248 75.7067 228.115 75.36 228.115 74.92C228.115 74.4667 228.248 74.1133 228.515 73.86C228.781 73.6067 229.148 73.48 229.615 73.48C230.081 73.48 230.448 73.6067 230.715 73.86C230.981 74.1133 231.115 74.4667 231.115 74.92C231.115 75.3467 230.975 75.6933 230.695 75.96C230.428 76.2133 230.068 76.34 229.615 76.34ZM228.355 88V78H230.835V88H228.355ZM237.625 77.74C238.585 77.74 239.445 77.98 240.205 78.46C240.978 78.9267 241.578 79.56 242.005 80.36C242.431 81.16 242.645 82.0467 242.645 83.02C242.645 83.34 242.618 83.6333 242.565 83.9H234.845C235.045 84.6067 235.398 85.16 235.905 85.56C236.411 85.9467 237.058 86.14 237.845 86.14C238.325 86.14 238.785 86.0333 239.225 85.82C239.678 85.6067 240.018 85.3333 240.245 85L242.145 86.12C241.678 86.8133 241.071 87.3467 240.325 87.72C239.591 88.08 238.745 88.26 237.785 88.26C236.718 88.26 235.771 88.0333 234.945 87.58C234.118 87.1267 233.478 86.5 233.025 85.7C232.585 84.9 232.365 84 232.365 83C232.365 82.0133 232.585 81.12 233.025 80.32C233.478 79.52 234.105 78.8933 234.905 78.44C235.705 77.9733 236.611 77.74 237.625 77.74ZM240.325 81.96C240.218 81.32 239.918 80.82 239.425 80.46C238.945 80.0867 238.338 79.9 237.605 79.9C237.098 79.9 236.631 79.9933 236.205 80.18C235.791 80.3667 235.458 80.62 235.205 80.94C234.951 81.26 234.818 81.6 234.805 81.96H240.325ZM246.374 80.8C246.374 81.08 246.527 81.2933 246.834 81.44C247.154 81.5733 247.654 81.7133 248.334 81.86C249.107 82.02 249.754 82.2 250.274 82.4C250.794 82.6 251.24 82.92 251.614 83.36C252 83.7867 252.194 84.3667 252.194 85.1C252.194 85.7533 251.994 86.32 251.594 86.8C251.207 87.28 250.687 87.6467 250.034 87.9C249.38 88.14 248.667 88.26 247.894 88.26C246.84 88.26 245.934 88.06 245.174 87.66C244.427 87.26 243.874 86.6867 243.514 85.94L245.554 84.88C245.914 85.8 246.694 86.26 247.894 86.26C248.414 86.26 248.86 86.16 249.234 85.96C249.607 85.76 249.794 85.4733 249.794 85.1C249.794 84.78 249.62 84.5467 249.274 84.4C248.94 84.24 248.394 84.0667 247.634 83.88C246.847 83.6933 246.207 83.5067 245.714 83.32C245.22 83.1333 244.794 82.8467 244.434 82.46C244.074 82.06 243.894 81.5333 243.894 80.88C243.894 80.24 244.074 79.6867 244.434 79.22C244.794 78.74 245.28 78.3733 245.894 78.12C246.507 77.8667 247.18 77.74 247.914 77.74C248.78 77.74 249.554 77.92 250.234 78.28C250.927 78.64 251.46 79.1533 251.834 79.82L249.814 80.84C249.467 80.0933 248.834 79.72 247.914 79.72C247.447 79.72 247.074 79.82 246.794 80.02C246.514 80.2067 246.374 80.4667 246.374 80.8ZM254.956 88.18C254.556 88.0733 254.289 87.9333 254.156 87.76C254.036 87.5733 253.976 87.2467 253.976 86.78C253.976 86.3267 254.096 85.9733 254.336 85.72C254.589 85.4667 254.943 85.34 255.396 85.34C255.849 85.34 256.203 85.4733 256.456 85.74C256.709 85.9933 256.836 86.3533 256.836 86.82C256.823 87.34 256.756 87.76 256.636 88.08C256.529 88.4 256.309 88.7933 255.976 89.26L254.976 90.62L254.176 89.96L254.956 88.18ZM272.171 78H274.651V88H272.171V87.02C271.704 87.42 271.191 87.7333 270.631 87.96C270.084 88.1733 269.504 88.28 268.891 88.28C267.877 88.28 266.991 88.0533 266.231 87.6C265.471 87.1467 264.884 86.52 264.471 85.72C264.071 84.92 263.871 84.02 263.871 83.02C263.871 82.02 264.071 81.12 264.471 80.32C264.884 79.52 265.471 78.8933 266.231 78.44C266.991 77.9733 267.877 77.74 268.891 77.74C269.504 77.74 270.084 77.8533 270.631 78.08C271.191 78.2933 271.704 78.6 272.171 79V78ZM269.211 85.9C269.757 85.9 270.251 85.78 270.691 85.54C271.144 85.2867 271.497 84.94 271.751 84.5C272.017 84.06 272.151 83.56 272.151 83C272.151 82.16 271.864 81.4733 271.291 80.94C270.731 80.4067 270.037 80.14 269.211 80.14C268.371 80.14 267.677 80.4133 267.131 80.96C266.597 81.4933 266.331 82.18 266.331 83.02C266.331 83.86 266.597 84.5533 267.131 85.1C267.677 85.6333 268.371 85.9 269.211 85.9ZM282.282 77.74C282.869 77.74 283.462 77.8667 284.062 78.12C284.675 78.36 285.195 78.8 285.622 79.44C286.062 80.08 286.282 80.94 286.282 82.02V88H283.802V82.02C283.802 81.2733 283.589 80.74 283.162 80.42C282.749 80.0867 282.262 79.92 281.702 79.92C281.142 79.92 280.662 80.12 280.262 80.52C279.875 80.9067 279.682 81.5333 279.682 82.4V88H277.202V78H279.682V78.84C280.042 78.5067 280.442 78.24 280.882 78.04C281.322 77.84 281.789 77.74 282.282 77.74ZM296.077 74H298.557V88H296.077V87.04C295.623 87.44 295.117 87.7467 294.557 87.96C293.997 88.1733 293.417 88.28 292.817 88.28C291.803 88.28 290.917 88.0533 290.157 87.6C289.397 87.1467 288.81 86.52 288.397 85.72C287.997 84.92 287.797 84.02 287.797 83.02C287.797 82.02 287.997 81.12 288.397 80.32C288.81 79.52 289.397 78.8933 290.157 78.44C290.917 77.9733 291.803 77.74 292.817 77.74C293.417 77.74 293.99 77.8533 294.537 78.08C295.097 78.2933 295.61 78.5933 296.077 78.98V74ZM293.137 85.9C293.683 85.9 294.177 85.78 294.617 85.54C295.07 85.2867 295.423 84.94 295.677 84.5C295.943 84.06 296.077 83.56 296.077 83C296.077 82.16 295.79 81.4733 295.217 80.94C294.657 80.4067 293.963 80.14 293.137 80.14C292.297 80.14 291.603 80.4133 291.057 80.96C290.523 81.4933 290.257 82.18 290.257 83.02C290.257 83.86 290.523 84.5533 291.057 85.1C291.603 85.6333 292.297 85.9 293.137 85.9ZM308.725 85.18C308.725 85.3933 308.778 85.5467 308.885 85.64C308.992 85.7333 309.158 85.78 309.385 85.78C309.558 85.78 309.765 85.76 310.005 85.72V88C309.512 88.08 309.052 88.12 308.625 88.12C307.852 88.12 307.258 87.92 306.845 87.52C306.445 87.1067 306.245 86.38 306.245 85.34V74H308.725V85.18ZM313.169 76.34C312.703 76.34 312.336 76.2133 312.069 75.96C311.803 75.7067 311.669 75.36 311.669 74.92C311.669 74.4667 311.803 74.1133 312.069 73.86C312.336 73.6067 312.703 73.48 313.169 73.48C313.636 73.48 314.003 73.6067 314.269 73.86C314.536 74.1133 314.669 74.4667 314.669 74.92C314.669 75.3467 314.529 75.6933 314.249 75.96C313.983 76.2133 313.623 76.34 313.169 76.34ZM311.909 88V78H314.389V88H311.909ZM325.459 86.06C324.966 86.74 324.346 87.28 323.599 87.68C322.853 88.08 322.046 88.28 321.179 88.28C320.233 88.28 319.353 88.0467 318.539 87.58C317.739 87.1 317.099 86.46 316.619 85.66C316.153 84.8467 315.919 83.9667 315.919 83.02C315.919 82.0733 316.153 81.2 316.619 80.4C317.099 79.5867 317.739 78.9467 318.539 78.48C319.353 78 320.233 77.76 321.179 77.76C322.033 77.76 322.833 77.96 323.579 78.36C324.326 78.7467 324.946 79.2733 325.439 79.94L323.399 81.32C322.773 80.5867 322.033 80.22 321.179 80.22C320.673 80.22 320.206 80.3467 319.779 80.6C319.353 80.8533 319.013 81.1933 318.759 81.62C318.506 82.0467 318.379 82.5133 318.379 83.02C318.379 83.5267 318.506 83.9933 318.759 84.42C319.013 84.8467 319.353 85.1867 319.779 85.44C320.206 85.68 320.673 85.8 321.179 85.8C322.033 85.8 322.773 85.4333 323.399 84.7L325.459 86.06ZM331.511 77.74C332.471 77.74 333.331 77.98 334.091 78.46C334.865 78.9267 335.465 79.56 335.891 80.36C336.318 81.16 336.531 82.0467 336.531 83.02C336.531 83.34 336.505 83.6333 336.451 83.9H328.731C328.931 84.6067 329.285 85.16 329.791 85.56C330.298 85.9467 330.945 86.14 331.731 86.14C332.211 86.14 332.671 86.0333 333.111 85.82C333.565 85.6067 333.905 85.3333 334.131 85L336.031 86.12C335.565 86.8133 334.958 87.3467 334.211 87.72C333.478 88.08 332.631 88.26 331.671 88.26C330.605 88.26 329.658 88.0333 328.831 87.58C328.005 87.1267 327.365 86.5 326.911 85.7C326.471 84.9 326.251 84 326.251 83C326.251 82.0133 326.471 81.12 326.911 80.32C327.365 79.52 327.991 78.8933 328.791 78.44C329.591 77.9733 330.498 77.74 331.511 77.74ZM334.211 81.96C334.105 81.32 333.805 80.82 333.311 80.46C332.831 80.0867 332.225 79.9 331.491 79.9C330.985 79.9 330.518 79.9933 330.091 80.18C329.678 80.3667 329.345 80.62 329.091 80.94C328.838 81.26 328.705 81.6 328.691 81.96H334.211ZM343.18 77.74C343.767 77.74 344.36 77.8667 344.96 78.12C345.574 78.36 346.094 78.8 346.52 79.44C346.96 80.08 347.18 80.94 347.18 82.02V88H344.7V82.02C344.7 81.2733 344.487 80.74 344.06 80.42C343.647 80.0867 343.16 79.92 342.6 79.92C342.04 79.92 341.56 80.12 341.16 80.52C340.774 80.9067 340.58 81.5333 340.58 82.4V88H338.1V78H340.58V78.84C340.94 78.5067 341.34 78.24 341.78 78.04C342.22 77.84 342.687 77.74 343.18 77.74ZM351.315 80.8C351.315 81.08 351.468 81.2933 351.775 81.44C352.095 81.5733 352.595 81.7133 353.275 81.86C354.048 82.02 354.695 82.2 355.215 82.4C355.735 82.6 356.182 82.92 356.555 83.36C356.942 83.7867 357.135 84.3667 357.135 85.1C357.135 85.7533 356.935 86.32 356.535 86.8C356.148 87.28 355.628 87.6467 354.975 87.9C354.322 88.14 353.608 88.26 352.835 88.26C351.782 88.26 350.875 88.06 350.115 87.66C349.368 87.26 348.815 86.6867 348.455 85.94L350.495 84.88C350.855 85.8 351.635 86.26 352.835 86.26C353.355 86.26 353.802 86.16 354.175 85.96C354.548 85.76 354.735 85.4733 354.735 85.1C354.735 84.78 354.562 84.5467 354.215 84.4C353.882 84.24 353.335 84.0667 352.575 83.88C351.788 83.6933 351.148 83.5067 350.655 83.32C350.162 83.1333 349.735 82.8467 349.375 82.46C349.015 82.06 348.835 81.5333 348.835 80.88C348.835 80.24 349.015 79.6867 349.375 79.22C349.735 78.74 350.222 78.3733 350.835 78.12C351.448 77.8667 352.122 77.74 352.855 77.74C353.722 77.74 354.495 77.92 355.175 78.28C355.868 78.64 356.402 79.1533 356.775 79.82L354.755 80.84C354.408 80.0933 353.775 79.72 352.855 79.72C352.388 79.72 352.015 79.82 351.735 80.02C351.455 80.2067 351.315 80.4667 351.315 80.8ZM359.947 76.34C359.48 76.34 359.113 76.2133 358.847 75.96C358.58 75.7067 358.447 75.36 358.447 74.92C358.447 74.4667 358.58 74.1133 358.847 73.86C359.113 73.6067 359.48 73.48 359.947 73.48C360.413 73.48 360.78 73.6067 361.047 73.86C361.313 74.1133 361.447 74.4667 361.447 74.92C361.447 75.3467 361.307 75.6933 361.027 75.96C360.76 76.2133 360.4 76.34 359.947 76.34ZM358.687 88V78H361.167V88H358.687ZM368.727 77.74C369.314 77.74 369.907 77.8667 370.507 78.12C371.121 78.36 371.641 78.8 372.067 79.44C372.507 80.08 372.727 80.94 372.727 82.02V88H370.247V82.02C370.247 81.2733 370.034 80.74 369.607 80.42C369.194 80.0867 368.707 79.92 368.147 79.92C367.587 79.92 367.107 80.12 366.707 80.52C366.321 80.9067 366.127 81.5333 366.127 82.4V88H363.647V78H366.127V78.84C366.487 78.5067 366.887 78.24 367.327 78.04C367.767 77.84 368.234 77.74 368.727 77.74ZM382.562 78H385.042V87.5C385.042 88.4467 384.802 89.28 384.322 90C383.855 90.72 383.202 91.2733 382.362 91.66C381.522 92.06 380.582 92.26 379.542 92.26C378.382 92.26 377.329 92.0333 376.382 91.58C375.435 91.14 374.769 90.56 374.382 89.84L376.502 88.62C376.702 89.0067 377.075 89.3267 377.622 89.58C378.169 89.8467 378.829 89.98 379.602 89.98C380.455 89.98 381.162 89.7467 381.722 89.28C382.282 88.8267 382.562 88.2333 382.562 87.5V87.04C382.109 87.44 381.602 87.7467 381.042 87.96C380.482 88.1733 379.902 88.28 379.302 88.28C378.289 88.28 377.402 88.0533 376.642 87.6C375.882 87.1467 375.295 86.52 374.882 85.72C374.482 84.92 374.282 84.02 374.282 83.02C374.282 82.02 374.482 81.12 374.882 80.32C375.295 79.52 375.882 78.8933 376.642 78.44C377.402 77.9733 378.289 77.74 379.302 77.74C379.902 77.74 380.475 77.8533 381.022 78.08C381.582 78.2933 382.095 78.5933 382.562 78.98V78ZM379.622 85.9C380.169 85.9 380.662 85.78 381.102 85.54C381.555 85.2867 381.909 84.94 382.162 84.5C382.429 84.06 382.562 83.56 382.562 83C382.562 82.16 382.275 81.4733 381.702 80.94C381.142 80.4067 380.449 80.14 379.622 80.14C378.782 80.14 378.089 80.4133 377.542 80.96C377.009 81.4933 376.742 82.18 376.742 83.02C376.742 83.86 377.009 84.5533 377.542 85.1C378.089 85.6333 378.782 85.9 379.622 85.9ZM397.429 88.28C396.483 88.28 395.603 88.0467 394.789 87.58C393.989 87.1 393.349 86.46 392.869 85.66C392.403 84.8467 392.169 83.9667 392.169 83.02C392.169 82.0733 392.403 81.2 392.869 80.4C393.349 79.5867 393.989 78.9467 394.789 78.48C395.603 78 396.483 77.76 397.429 77.76C398.376 77.76 399.249 78 400.049 78.48C400.863 78.9467 401.503 79.5867 401.969 80.4C402.449 81.2 402.689 82.0733 402.689 83.02C402.689 83.9667 402.449 84.8467 401.969 85.66C401.503 86.46 400.863 87.1 400.049 87.58C399.249 88.0467 398.376 88.28 397.429 88.28ZM397.409 85.8C397.916 85.8 398.383 85.68 398.809 85.44C399.236 85.1867 399.576 84.8467 399.829 84.42C400.083 83.9933 400.209 83.5267 400.209 83.02C400.209 82.5133 400.083 82.0467 399.829 81.62C399.576 81.1933 399.236 80.8533 398.809 80.6C398.383 80.3467 397.916 80.22 397.409 80.22C396.903 80.22 396.436 80.3467 396.009 80.6C395.583 80.8533 395.243 81.1933 394.989 81.62C394.749 82.0467 394.629 82.5133 394.629 83.02C394.629 83.5267 394.749 83.9933 394.989 84.42C395.243 84.8467 395.583 85.1867 396.009 85.44C396.436 85.68 396.903 85.8 397.409 85.8ZM410.012 77.74C411.026 77.74 411.912 77.9667 412.672 78.42C413.446 78.8733 414.032 79.5 414.432 80.3C414.846 81.1 415.052 82 415.052 83C415.052 84 414.846 84.9 414.432 85.7C414.032 86.5 413.446 87.1333 412.672 87.6C411.912 88.0533 411.026 88.28 410.012 88.28C409.412 88.28 408.832 88.1733 408.272 87.96C407.726 87.7333 407.219 87.42 406.752 87.02V92H404.272V78H406.752V78.98C407.206 78.58 407.712 78.2733 408.272 78.06C408.832 77.8467 409.412 77.74 410.012 77.74ZM409.712 85.88C410.539 85.88 411.219 85.6133 411.752 85.08C412.299 84.5333 412.572 83.84 412.572 83C412.572 82.16 412.299 81.4733 411.752 80.94C411.219 80.3933 410.539 80.12 409.712 80.12C409.166 80.12 408.666 80.2467 408.212 80.5C407.759 80.74 407.399 81.08 407.132 81.52C406.879 81.96 406.752 82.46 406.752 83.02C406.752 83.86 407.032 84.5467 407.592 85.08C408.166 85.6133 408.872 85.88 409.712 85.88ZM420.017 84.58C420.017 85.0333 420.124 85.3467 420.337 85.52C420.551 85.6933 420.891 85.78 421.357 85.78C421.637 85.78 421.944 85.76 422.277 85.72V88C421.651 88.0667 421.131 88.1 420.717 88.1C419.651 88.1 418.851 87.86 418.317 87.38C417.797 86.8867 417.537 86.0067 417.537 84.74V80.22H415.657V78H417.537V75.54L420.017 74.7V78H422.237V80.22H420.017V84.58ZM425.552 76.34C425.086 76.34 424.719 76.2133 424.452 75.96C424.186 75.7067 424.052 75.36 424.052 74.92C424.052 74.4667 424.186 74.1133 424.452 73.86C424.719 73.6067 425.086 73.48 425.552 73.48C426.019 73.48 426.386 73.6067 426.652 73.86C426.919 74.1133 427.052 74.4667 427.052 74.92C427.052 75.3467 426.912 75.6933 426.632 75.96C426.366 76.2133 426.006 76.34 425.552 76.34ZM424.292 88V78H426.772V88H424.292ZM433.562 88.28C432.615 88.28 431.735 88.0467 430.922 87.58C430.122 87.1 429.482 86.46 429.002 85.66C428.535 84.8467 428.302 83.9667 428.302 83.02C428.302 82.0733 428.535 81.2 429.002 80.4C429.482 79.5867 430.122 78.9467 430.922 78.48C431.735 78 432.615 77.76 433.562 77.76C434.509 77.76 435.382 78 436.182 78.48C436.995 78.9467 437.635 79.5867 438.102 80.4C438.582 81.2 438.822 82.0733 438.822 83.02C438.822 83.9667 438.582 84.8467 438.102 85.66C437.635 86.46 436.995 87.1 436.182 87.58C435.382 88.0467 434.509 88.28 433.562 88.28ZM433.542 85.8C434.049 85.8 434.515 85.68 434.942 85.44C435.369 85.1867 435.709 84.8467 435.962 84.42C436.215 83.9933 436.342 83.5267 436.342 83.02C436.342 82.5133 436.215 82.0467 435.962 81.62C435.709 81.1933 435.369 80.8533 434.942 80.6C434.515 80.3467 434.049 80.22 433.542 80.22C433.035 80.22 432.569 80.3467 432.142 80.6C431.715 80.8533 431.375 81.1933 431.122 81.62C430.882 82.0467 430.762 82.5133 430.762 83.02C430.762 83.5267 430.882 83.9933 431.122 84.42C431.375 84.8467 431.715 85.1867 432.142 85.44C432.569 85.68 433.035 85.8 433.542 85.8ZM445.485 77.74C446.072 77.74 446.665 77.8667 447.265 78.12C447.878 78.36 448.398 78.8 448.825 79.44C449.265 80.08 449.485 80.94 449.485 82.02V88H447.005V82.02C447.005 81.2733 446.792 80.74 446.365 80.42C445.952 80.0867 445.465 79.92 444.905 79.92C444.345 79.92 443.865 80.12 443.465 80.52C443.078 80.9067 442.885 81.5333 442.885 82.4V88H440.405V78H442.885V78.84C443.245 78.5067 443.645 78.24 444.085 78.04C444.525 77.84 444.992 77.74 445.485 77.74ZM453.62 80.8C453.62 81.08 453.773 81.2933 454.08 81.44C454.4 81.5733 454.9 81.7133 455.58 81.86C456.353 82.02 457 82.2 457.52 82.4C458.04 82.6 458.486 82.92 458.86 83.36C459.246 83.7867 459.44 84.3667 459.44 85.1C459.44 85.7533 459.24 86.32 458.84 86.8C458.453 87.28 457.933 87.6467 457.28 87.9C456.626 88.14 455.913 88.26 455.14 88.26C454.086 88.26 453.18 88.06 452.42 87.66C451.673 87.26 451.12 86.6867 450.76 85.94L452.8 84.88C453.16 85.8 453.94 86.26 455.14 86.26C455.66 86.26 456.106 86.16 456.48 85.96C456.853 85.76 457.04 85.4733 457.04 85.1C457.04 84.78 456.866 84.5467 456.52 84.4C456.186 84.24 455.64 84.0667 454.88 83.88C454.093 83.6933 453.453 83.5067 452.96 83.32C452.466 83.1333 452.04 82.8467 451.68 82.46C451.32 82.06 451.14 81.5333 451.14 80.88C451.14 80.24 451.32 79.6867 451.68 79.22C452.04 78.74 452.526 78.3733 453.14 78.12C453.753 77.8667 454.426 77.74 455.16 77.74C456.026 77.74 456.8 77.92 457.48 78.28C458.173 78.64 458.706 79.1533 459.08 79.82L457.06 80.84C456.713 80.0933 456.08 79.72 455.16 79.72C454.693 79.72 454.32 79.82 454.04 80.02C453.76 80.2067 453.62 80.4667 453.62 80.8ZM472.079 76.1C471.745 76.06 471.445 76.04 471.179 76.04C470.712 76.04 470.372 76.1267 470.159 76.3C469.945 76.4733 469.839 76.7933 469.839 77.26V78H472.059V80.22H469.839V88H467.359V80.22H465.699V78H467.359V77.1C467.359 75.8333 467.619 74.96 468.139 74.48C468.659 73.9867 469.445 73.74 470.499 73.74C470.912 73.74 471.439 73.7733 472.079 73.84V76.1ZM477.839 88.28C476.893 88.28 476.013 88.0467 475.199 87.58C474.399 87.1 473.759 86.46 473.279 85.66C472.813 84.8467 472.579 83.9667 472.579 83.02C472.579 82.0733 472.813 81.2 473.279 80.4C473.759 79.5867 474.399 78.9467 475.199 78.48C476.013 78 476.893 77.76 477.839 77.76C478.786 77.76 479.659 78 480.459 78.48C481.273 78.9467 481.913 79.5867 482.379 80.4C482.859 81.2 483.099 82.0733 483.099 83.02C483.099 83.9667 482.859 84.8467 482.379 85.66C481.913 86.46 481.273 87.1 480.459 87.58C479.659 88.0467 478.786 88.28 477.839 88.28ZM477.819 85.8C478.326 85.8 478.793 85.68 479.219 85.44C479.646 85.1867 479.986 84.8467 480.239 84.42C480.493 83.9933 480.619 83.5267 480.619 83.02C480.619 82.5133 480.493 82.0467 480.239 81.62C479.986 81.1933 479.646 80.8533 479.219 80.6C478.793 80.3467 478.326 80.22 477.819 80.22C477.313 80.22 476.846 80.3467 476.419 80.6C475.993 80.8533 475.653 81.1933 475.399 81.62C475.159 82.0467 475.039 82.5133 475.039 83.02C475.039 83.5267 475.159 83.9933 475.399 84.42C475.653 84.8467 475.993 85.1867 476.419 85.44C476.846 85.68 477.313 85.8 477.819 85.8ZM490.622 77.8L490.442 80.14C490.362 80.1133 490.222 80.1 490.022 80.1C489.196 80.1 488.509 80.34 487.962 80.82C487.429 81.3 487.162 81.9533 487.162 82.78V88H484.682V78H487.162V79.68C487.389 79.1467 487.776 78.7 488.322 78.34C488.869 77.98 489.529 77.8 490.302 77.8H490.622ZM504.077 78H506.677L503.177 88.02C502.657 89.3933 501.937 90.42 501.017 91.1C500.11 91.7933 499.037 92.0933 497.797 92V89.6C497.877 89.6133 497.997 89.62 498.157 89.62C499.223 89.62 500.057 88.9733 500.657 87.68L496.257 78H498.917L501.857 84.36L504.077 78ZM512.781 88.28C511.834 88.28 510.954 88.0467 510.141 87.58C509.341 87.1 508.701 86.46 508.221 85.66C507.754 84.8467 507.521 83.9667 507.521 83.02C507.521 82.0733 507.754 81.2 508.221 80.4C508.701 79.5867 509.341 78.9467 510.141 78.48C510.954 78 511.834 77.76 512.781 77.76C513.727 77.76 514.601 78 515.401 78.48C516.214 78.9467 516.854 79.5867 517.321 80.4C517.801 81.2 518.041 82.0733 518.041 83.02C518.041 83.9667 517.801 84.8467 517.321 85.66C516.854 86.46 516.214 87.1 515.401 87.58C514.601 88.0467 513.727 88.28 512.781 88.28ZM512.761 85.8C513.267 85.8 513.734 85.68 514.161 85.44C514.587 85.1867 514.927 84.8467 515.181 84.42C515.434 83.9933 515.561 83.5267 515.561 83.02C515.561 82.5133 515.434 82.0467 515.181 81.62C514.927 81.1933 514.587 80.8533 514.161 80.6C513.734 80.3467 513.267 80.22 512.761 80.22C512.254 80.22 511.787 80.3467 511.361 80.6C510.934 80.8533 510.594 81.1933 510.341 81.62C510.101 82.0467 509.981 82.5133 509.981 83.02C509.981 83.5267 510.101 83.9933 510.341 84.42C510.594 84.8467 510.934 85.1867 511.361 85.44C511.787 85.68 512.254 85.8 512.761 85.8ZM525.924 78H528.404V88H525.924V87.16C525.564 87.4933 525.164 87.76 524.724 87.96C524.284 88.16 523.817 88.26 523.324 88.26C522.737 88.26 522.137 88.14 521.524 87.9C520.924 87.6467 520.404 87.2 519.964 86.56C519.537 85.92 519.324 85.06 519.324 83.98V78H521.804V83.98C521.804 84.7267 522.01 85.2667 522.424 85.6C522.85 85.92 523.344 86.08 523.904 86.08C524.464 86.08 524.937 85.8867 525.324 85.5C525.724 85.1 525.924 84.4667 525.924 83.6V78ZM536.911 77.8L536.731 80.14C536.651 80.1133 536.511 80.1 536.311 80.1C535.485 80.1 534.798 80.34 534.251 80.82C533.718 81.3 533.451 81.9533 533.451 82.78V88H530.971V78H533.451V79.68C533.678 79.1467 534.065 78.7 534.611 78.34C535.158 77.98 535.818 77.8 536.591 77.8H536.911ZM551.546 78H554.026V88H551.546V87.02C551.079 87.42 550.566 87.7333 550.006 87.96C549.459 88.1733 548.879 88.28 548.266 88.28C547.252 88.28 546.366 88.0533 545.606 87.6C544.846 87.1467 544.259 86.52 543.846 85.72C543.446 84.92 543.246 84.02 543.246 83.02C543.246 82.02 543.446 81.12 543.846 80.32C544.259 79.52 544.846 78.8933 545.606 78.44C546.366 77.9733 547.252 77.74 548.266 77.74C548.879 77.74 549.459 77.8533 550.006 78.08C550.566 78.2933 551.079 78.6 551.546 79V78ZM548.586 85.9C549.132 85.9 549.626 85.78 550.066 85.54C550.519 85.2867 550.872 84.94 551.126 84.5C551.392 84.06 551.526 83.56 551.526 83C551.526 82.16 551.239 81.4733 550.666 80.94C550.106 80.4067 549.412 80.14 548.586 80.14C547.746 80.14 547.052 80.4133 546.506 80.96C545.972 81.4933 545.706 82.18 545.706 83.02C545.706 83.86 545.972 84.5533 546.506 85.1C547.052 85.6333 547.746 85.9 548.586 85.9ZM562.517 77.8L562.337 80.14C562.257 80.1133 562.117 80.1 561.917 80.1C561.09 80.1 560.404 80.34 559.857 80.82C559.324 81.3 559.057 81.9533 559.057 82.78V88H556.577V78H559.057V79.68C559.284 79.1467 559.67 78.7 560.217 78.34C560.764 77.98 561.424 77.8 562.197 77.8H562.517ZM568.162 84.58C568.162 85.0333 568.269 85.3467 568.482 85.52C568.695 85.6933 569.035 85.78 569.502 85.78C569.782 85.78 570.089 85.76 570.422 85.72V88C569.795 88.0667 569.275 88.1 568.862 88.1C567.795 88.1 566.995 87.86 566.462 87.38C565.942 86.8867 565.682 86.0067 565.682 84.74V80.22H563.802V78H565.682V75.54L568.162 74.7V78H570.382V80.22H568.162V84.58ZM582.193 84.06L584.053 78H586.653L583.413 88H580.953L579.073 82.06L577.193 88H574.773L571.613 78H574.193L575.993 84.02L577.753 78H580.393L582.193 84.06ZM592.253 88.28C591.307 88.28 590.427 88.0467 589.613 87.58C588.813 87.1 588.173 86.46 587.693 85.66C587.227 84.8467 586.993 83.9667 586.993 83.02C586.993 82.0733 587.227 81.2 587.693 80.4C588.173 79.5867 588.813 78.9467 589.613 78.48C590.427 78 591.307 77.76 592.253 77.76C593.2 77.76 594.073 78 594.873 78.48C595.687 78.9467 596.327 79.5867 596.793 80.4C597.273 81.2 597.513 82.0733 597.513 83.02C597.513 83.9667 597.273 84.8467 596.793 85.66C596.327 86.46 595.687 87.1 594.873 87.58C594.073 88.0467 593.2 88.28 592.253 88.28ZM592.233 85.8C592.74 85.8 593.207 85.68 593.633 85.44C594.06 85.1867 594.4 84.8467 594.653 84.42C594.907 83.9933 595.033 83.5267 595.033 83.02C595.033 82.5133 594.907 82.0467 594.653 81.62C594.4 81.1933 594.06 80.8533 593.633 80.6C593.207 80.3467 592.74 80.22 592.233 80.22C591.727 80.22 591.26 80.3467 590.833 80.6C590.407 80.8533 590.067 81.1933 589.813 81.62C589.573 82.0467 589.453 82.5133 589.453 83.02C589.453 83.5267 589.573 83.9933 589.813 84.42C590.067 84.8467 590.407 85.1867 590.833 85.44C591.26 85.68 591.727 85.8 592.233 85.8ZM605.036 77.8L604.856 80.14C604.776 80.1133 604.636 80.1 604.436 80.1C603.61 80.1 602.923 80.34 602.376 80.82C601.843 81.3 601.576 81.9533 601.576 82.78V88H599.096V78H601.576V79.68C601.803 79.1467 602.19 78.7 602.736 78.34C603.283 77.98 603.943 77.8 604.716 77.8H605.036ZM616.534 88H613.434L610.634 84.26L609.174 85.86V88H606.694V74H609.174V82.22L612.934 78H616.394L612.314 82.44L616.534 88ZM617.962 86.88C617.962 86.4533 618.076 86.1267 618.302 85.9C618.542 85.66 618.876 85.54 619.302 85.54C619.729 85.54 620.056 85.66 620.282 85.9C620.509 86.1267 620.622 86.4533 620.622 86.88C620.622 87.3067 620.509 87.64 620.282 87.88C620.056 88.12 619.729 88.24 619.302 88.24C618.876 88.24 618.542 88.12 618.302 87.88C618.076 87.64 617.962 87.3067 617.962 86.88Z" fill="#E6E8EB"/>
</svg>
