<svg width="190" height="65" viewBox="0 0 190 65" fill="none" xmlns="http://www.w3.org/2000/svg">
<path d="M68.6047 11.3636L68.441 13.4909C68.3683 13.4667 68.241 13.4545 68.0592 13.4545C67.3077 13.4545 66.6834 13.6727 66.1865 14.1091C65.7016 14.5455 65.4592 15.1394 65.4592 15.8909V20.6364H63.2047V11.5455H65.4592V13.0727C65.6653 12.5879 66.0168 12.1818 66.5137 11.8545C67.0107 11.5273 67.6107 11.3636 68.3137 11.3636H68.6047ZM73.8694 11.3091C74.7422 11.3091 75.524 11.5273 76.2149 11.9636C76.9179 12.3879 77.4634 12.9636 77.8512 13.6909C78.2391 14.4182 78.4331 15.2242 78.4331 16.1091C78.4331 16.4 78.4088 16.6667 78.3603 16.9091H71.3422C71.524 17.5515 71.8452 18.0545 72.3058 18.4182C72.7664 18.7697 73.3543 18.9455 74.0694 18.9455C74.5058 18.9455 74.924 18.8485 75.324 18.6545C75.7361 18.4606 76.0452 18.2121 76.2512 17.9091L77.9785 18.9273C77.5543 19.5576 77.0028 20.0424 76.324 20.3818C75.6573 20.7091 74.8876 20.8727 74.0149 20.8727C73.0452 20.8727 72.1846 20.6667 71.4331 20.2545C70.6815 19.8424 70.0997 19.2727 69.6876 18.5455C69.2876 17.8182 69.0876 17 69.0876 16.0909C69.0876 15.1939 69.2876 14.3818 69.6876 13.6545C70.0997 12.9273 70.6694 12.3576 71.3967 11.9455C72.124 11.5212 72.9482 11.3091 73.8694 11.3091ZM76.324 15.1455C76.227 14.5636 75.9543 14.1091 75.5058 13.7818C75.0694 13.4424 74.5179 13.2727 73.8512 13.2727C73.3906 13.2727 72.9664 13.3576 72.5785 13.5273C72.2028 13.697 71.8997 13.9273 71.6694 14.2182C71.4391 14.5091 71.3179 14.8182 71.3058 15.1455H76.324ZM83.2667 17.9091L85.6485 11.5455H88.0304L84.6485 20.6364H81.8849L78.5031 11.5455H80.8849L83.2667 17.9091ZM90.4691 10.0364C90.0449 10.0364 89.7116 9.92122 89.4691 9.69091C89.2267 9.46061 89.1055 9.14546 89.1055 8.74546C89.1055 8.33334 89.2267 8.01213 89.4691 7.78182C89.7116 7.55152 90.0449 7.43637 90.4691 7.43637C90.8934 7.43637 91.2267 7.55152 91.4691 7.78182C91.7116 8.01213 91.8328 8.33334 91.8328 8.74546C91.8328 9.13334 91.7055 9.44849 91.451 9.69091C91.2085 9.92122 90.8813 10.0364 90.4691 10.0364ZM89.3237 20.6364V11.5455H91.5782V20.6364H89.3237ZM97.7508 11.3091C98.6235 11.3091 99.4054 11.5273 100.096 11.9636C100.799 12.3879 101.345 12.9636 101.733 13.6909C102.121 14.4182 102.314 15.2242 102.314 16.1091C102.314 16.4 102.29 16.6667 102.242 16.9091H95.2235C95.4054 17.5515 95.7266 18.0545 96.1872 18.4182C96.6478 18.7697 97.2357 18.9455 97.9508 18.9455C98.3872 18.9455 98.8054 18.8485 99.2054 18.6545C99.6175 18.4606 99.9266 18.2121 100.133 17.9091L101.86 18.9273C101.436 19.5576 100.884 20.0424 100.205 20.3818C99.5387 20.7091 98.769 20.8727 97.8963 20.8727C96.9266 20.8727 96.066 20.6667 95.3145 20.2545C94.5629 19.8424 93.9811 19.2727 93.569 18.5455C93.169 17.8182 92.969 17 92.969 16.0909C92.969 15.1939 93.169 14.3818 93.569 13.6545C93.9811 12.9273 94.5508 12.3576 95.2781 11.9455C96.0054 11.5212 96.8296 11.3091 97.7508 11.3091ZM100.205 15.1455C100.108 14.5636 99.8357 14.1091 99.3872 13.7818C98.9508 13.4424 98.3993 13.2727 97.7326 13.2727C97.272 13.2727 96.8478 13.3576 96.4599 13.5273C96.0842 13.697 95.7811 13.9273 95.5508 14.2182C95.3205 14.5091 95.1993 14.8182 95.1872 15.1455H100.205ZM112.184 17.0545L113.875 11.5455H116.239L113.294 20.6364H111.057L109.348 15.2364L107.639 20.6364H105.439L102.566 11.5455H104.912L106.548 17.0182L108.148 11.5455H110.548L112.184 17.0545Z" fill="#E6E8EB"/>
<path d="M66.9764 33.5258L66.8537 35.1212C66.7992 35.1031 66.7037 35.094 66.5673 35.094C66.0037 35.094 65.5355 35.2576 65.1628 35.5849C64.7992 35.9122 64.6173 36.3576 64.6173 36.9212V40.4803H62.9264V33.6622H64.6173V34.8076C64.7719 34.444 65.0355 34.1394 65.4083 33.894C65.781 33.6485 66.231 33.5258 66.7583 33.5258H66.9764ZM70.925 33.4849C71.5796 33.4849 72.1659 33.6485 72.6841 33.9758C73.2114 34.294 73.6205 34.7258 73.9114 35.2712C74.2023 35.8167 74.3477 36.4212 74.3477 37.0849C74.3477 37.3031 74.3296 37.5031 74.2932 37.6849H69.0296C69.1659 38.1667 69.4068 38.544 69.7523 38.8167C70.0977 39.0803 70.5387 39.2122 71.075 39.2122C71.4023 39.2122 71.7159 39.1394 72.0159 38.994C72.325 38.8485 72.5568 38.6622 72.7114 38.4349L74.0068 39.1985C73.6887 39.6712 73.275 40.0349 72.7659 40.2894C72.2659 40.5349 71.6887 40.6576 71.0341 40.6576C70.3068 40.6576 69.6614 40.5031 69.0977 40.194C68.5341 39.8849 68.0977 39.4576 67.7887 38.9122C67.4887 38.3667 67.3387 37.7531 67.3387 37.0712C67.3387 36.3985 67.4887 35.7894 67.7887 35.244C68.0977 34.6985 68.525 34.2712 69.0705 33.9622C69.6159 33.644 70.2341 33.4849 70.925 33.4849ZM72.7659 36.3622C72.6932 35.9258 72.4887 35.5849 72.1523 35.3394C71.825 35.0849 71.4114 34.9576 70.9114 34.9576C70.5659 34.9576 70.2477 35.0212 69.9568 35.1485C69.675 35.2758 69.4477 35.4485 69.275 35.6667C69.1023 35.8849 69.0114 36.1167 69.0023 36.3622H72.7659ZM77.973 38.4349L79.7594 33.6622H81.5457L79.0094 40.4803H76.9366L74.4003 33.6622H76.1866L77.973 38.4349ZM83.3748 32.5303C83.0566 32.5303 82.8066 32.444 82.6248 32.2712C82.443 32.0985 82.3521 31.8622 82.3521 31.5622C82.3521 31.2531 82.443 31.0122 82.6248 30.8394C82.8066 30.6667 83.0566 30.5803 83.3748 30.5803C83.693 30.5803 83.943 30.6667 84.1248 30.8394C84.3066 31.0122 84.3975 31.2531 84.3975 31.5622C84.3975 31.8531 84.3021 32.0894 84.1112 32.2712C83.9294 32.444 83.6839 32.5303 83.3748 32.5303ZM82.5157 40.4803V33.6622H84.2066V40.4803H82.5157ZM88.8361 33.4849C89.4906 33.4849 90.077 33.6485 90.5952 33.9758C91.1224 34.294 91.5315 34.7258 91.8224 35.2712C92.1133 35.8167 92.2588 36.4212 92.2588 37.0849C92.2588 37.3031 92.2406 37.5031 92.2042 37.6849H86.9406C87.077 38.1667 87.3179 38.544 87.6633 38.8167C88.0088 39.0803 88.4497 39.2122 88.9861 39.2122C89.3133 39.2122 89.627 39.1394 89.927 38.994C90.2361 38.8485 90.4679 38.6622 90.6224 38.4349L91.9179 39.1985C91.5997 39.6712 91.1861 40.0349 90.677 40.2894C90.177 40.5349 89.5997 40.6576 88.9452 40.6576C88.2179 40.6576 87.5724 40.5031 87.0088 40.194C86.4452 39.8849 86.0088 39.4576 85.6997 38.9122C85.3997 38.3667 85.2497 37.7531 85.2497 37.0712C85.2497 36.3985 85.3997 35.7894 85.6997 35.244C86.0088 34.6985 86.4361 34.2712 86.9815 33.9622C87.527 33.644 88.1452 33.4849 88.8361 33.4849ZM90.677 36.3622C90.6042 35.9258 90.3997 35.5849 90.0633 35.3394C89.7361 35.0849 89.3224 34.9576 88.8224 34.9576C88.477 34.9576 88.1588 35.0212 87.8679 35.1485C87.5861 35.2758 87.3588 35.4485 87.1861 35.6667C87.0133 35.8849 86.9224 36.1167 86.9133 36.3622H90.677ZM99.6613 37.794L100.929 33.6622H102.702L100.493 40.4803H98.8159L97.534 36.4303L96.2522 40.4803H94.6022L92.4477 33.6622H94.2068L95.434 37.7667L96.634 33.6622H98.434L99.6613 37.794ZM112.63 33.6622H114.321V40.4803H112.63V39.8122C112.312 40.0849 111.962 40.2985 111.58 40.4531C111.207 40.5985 110.812 40.6712 110.394 40.6712C109.703 40.6712 109.098 40.5167 108.58 40.2076C108.062 39.8985 107.662 39.4712 107.38 38.9258C107.107 38.3803 106.971 37.7667 106.971 37.0849C106.971 36.4031 107.107 35.7894 107.38 35.244C107.662 34.6985 108.062 34.2712 108.58 33.9622C109.098 33.644 109.703 33.4849 110.394 33.4849C110.812 33.4849 111.207 33.5622 111.58 33.7167C111.962 33.8622 112.312 34.0712 112.63 34.344V33.6622ZM110.612 39.0485C110.985 39.0485 111.321 38.9667 111.621 38.8031C111.93 38.6303 112.171 38.394 112.344 38.094C112.525 37.794 112.616 37.4531 112.616 37.0712C112.616 36.4985 112.421 36.0303 112.03 35.6667C111.648 35.3031 111.175 35.1212 110.612 35.1212C110.039 35.1212 109.566 35.3076 109.194 35.6803C108.83 36.044 108.648 36.5122 108.648 37.0849C108.648 37.6576 108.83 38.1303 109.194 38.5031C109.566 38.8667 110.039 39.0485 110.612 39.0485ZM119.524 33.4849C119.924 33.4849 120.329 33.5712 120.738 33.744C121.156 33.9076 121.51 34.2076 121.801 34.644C122.101 35.0803 122.251 35.6667 122.251 36.4031V40.4803H120.56V36.4031C120.56 35.894 120.415 35.5303 120.124 35.3122C119.842 35.0849 119.51 34.9712 119.129 34.9712C118.747 34.9712 118.419 35.1076 118.147 35.3803C117.883 35.644 117.751 36.0712 117.751 36.6622V40.4803H116.06V33.6622H117.751V34.2349C117.997 34.0076 118.269 33.8258 118.569 33.6894C118.869 33.5531 119.188 33.4849 119.524 33.4849ZM128.929 30.9349H130.62V40.4803H128.929V39.8258C128.62 40.0985 128.275 40.3076 127.893 40.4531C127.511 40.5985 127.116 40.6712 126.707 40.6712C126.016 40.6712 125.411 40.5167 124.893 40.2076C124.375 39.8985 123.975 39.4712 123.693 38.9258C123.42 38.3803 123.284 37.7667 123.284 37.0849C123.284 36.4031 123.42 35.7894 123.693 35.244C123.975 34.6985 124.375 34.2712 124.893 33.9622C125.411 33.644 126.016 33.4849 126.707 33.4849C127.116 33.4849 127.507 33.5622 127.879 33.7167C128.261 33.8622 128.611 34.0667 128.929 34.3303V30.9349ZM126.925 39.0485C127.298 39.0485 127.634 38.9667 127.934 38.8031C128.243 38.6303 128.484 38.394 128.657 38.094C128.839 37.794 128.929 37.4531 128.929 37.0712C128.929 36.4985 128.734 36.0303 128.343 35.6667C127.961 35.3031 127.489 35.1212 126.925 35.1212C126.352 35.1212 125.879 35.3076 125.507 35.6803C125.143 36.044 124.961 36.5122 124.961 37.0849C124.961 37.6576 125.143 38.1303 125.507 38.5031C125.879 38.8667 126.352 39.0485 126.925 39.0485ZM139.776 33.4849C140.467 33.4849 141.071 33.6394 141.59 33.9485C142.117 34.2576 142.517 34.6849 142.79 35.2303C143.071 35.7758 143.212 36.3894 143.212 37.0712C143.212 37.7531 143.071 38.3667 142.79 38.9122C142.517 39.4576 142.117 39.8894 141.59 40.2076C141.071 40.5167 140.467 40.6712 139.776 40.6712C139.367 40.6712 138.971 40.5985 138.59 40.4531C138.217 40.2985 137.871 40.0849 137.553 39.8122V43.2076H135.862V33.6622H137.553V34.3303C137.862 34.0576 138.208 33.8485 138.59 33.7031C138.971 33.5576 139.367 33.4849 139.776 33.4849ZM139.571 39.0349C140.135 39.0349 140.599 38.8531 140.962 38.4894C141.335 38.1167 141.521 37.644 141.521 37.0712C141.521 36.4985 141.335 36.0303 140.962 35.6667C140.599 35.294 140.135 35.1076 139.571 35.1076C139.199 35.1076 138.858 35.194 138.549 35.3667C138.24 35.5303 137.994 35.7622 137.812 36.0622C137.64 36.3622 137.553 36.7031 137.553 37.0849C137.553 37.6576 137.744 38.1258 138.126 38.4894C138.517 38.8531 138.999 39.0349 139.571 39.0349ZM148.787 33.6622H150.478V40.4803H148.787V39.9076C148.542 40.1349 148.269 40.3167 147.969 40.4531C147.669 40.5894 147.351 40.6576 147.014 40.6576C146.614 40.6576 146.205 40.5758 145.787 40.4122C145.378 40.2394 145.023 39.9349 144.723 39.4985C144.433 39.0622 144.287 38.4758 144.287 37.7394V33.6622H145.978V37.7394C145.978 38.2485 146.119 38.6167 146.401 38.844C146.692 39.0622 147.028 39.1712 147.41 39.1712C147.792 39.1712 148.114 39.0394 148.378 38.7758C148.651 38.5031 148.787 38.0712 148.787 37.4803V33.6622ZM156.292 33.4849C156.983 33.4849 157.588 33.644 158.106 33.9622C158.624 34.2712 159.02 34.6985 159.292 35.244C159.574 35.7894 159.715 36.4031 159.715 37.0849C159.715 37.7667 159.574 38.3803 159.292 38.9258C159.02 39.4712 158.624 39.8985 158.106 40.2076C157.588 40.5167 156.983 40.6712 156.292 40.6712C155.847 40.6712 155.42 40.5849 155.01 40.4122C154.601 40.2394 154.238 39.9985 153.92 39.6894V40.4803H152.229V30.9349H153.92V34.4667C154.238 34.1576 154.601 33.9167 155.01 33.744C155.429 33.5712 155.856 33.4849 156.292 33.4849ZM156.074 39.0485C156.647 39.0485 157.115 38.8667 157.479 38.5031C157.851 38.1303 158.038 37.6576 158.038 37.0849C158.038 36.5122 157.851 36.044 157.479 35.6803C157.115 35.3076 156.647 35.1212 156.074 35.1212C155.51 35.1212 155.033 35.3031 154.642 35.6667C154.26 36.0303 154.07 36.4985 154.07 37.0712C154.07 37.4531 154.156 37.794 154.329 38.094C154.51 38.394 154.751 38.6303 155.051 38.8031C155.36 38.9667 155.701 39.0485 156.074 39.0485ZM162.602 38.5576C162.602 38.7031 162.638 38.8076 162.711 38.8712C162.784 38.9349 162.898 38.9667 163.052 38.9667C163.17 38.9667 163.311 38.9531 163.475 38.9258V40.4803C163.138 40.5349 162.825 40.5622 162.534 40.5622C162.007 40.5622 161.602 40.4258 161.32 40.1531C161.048 39.8712 160.911 39.3758 160.911 38.6667V30.9349H162.602V38.5576ZM165.632 32.5303C165.314 32.5303 165.064 32.444 164.882 32.2712C164.701 32.0985 164.61 31.8622 164.61 31.5622C164.61 31.2531 164.701 31.0122 164.882 30.8394C165.064 30.6667 165.314 30.5803 165.632 30.5803C165.951 30.5803 166.201 30.6667 166.382 30.8394C166.564 31.0122 166.655 31.2531 166.655 31.5622C166.655 31.8531 166.56 32.0894 166.369 32.2712C166.187 32.444 165.942 32.5303 165.632 32.5303ZM164.773 40.4803V33.6622H166.464V40.4803H164.773ZM169.442 35.5712C169.442 35.7622 169.546 35.9076 169.755 36.0076C169.974 36.0985 170.315 36.194 170.778 36.294C171.305 36.4031 171.746 36.5258 172.101 36.6622C172.455 36.7985 172.76 37.0167 173.015 37.3167C173.278 37.6076 173.41 38.0031 173.41 38.5031C173.41 38.9485 173.274 39.3349 173.001 39.6622C172.737 39.9894 172.383 40.2394 171.937 40.4122C171.492 40.5758 171.005 40.6576 170.478 40.6576C169.76 40.6576 169.142 40.5212 168.624 40.2485C168.115 39.9758 167.737 39.5849 167.492 39.0758L168.883 38.3531C169.128 38.9803 169.66 39.294 170.478 39.294C170.833 39.294 171.137 39.2258 171.392 39.0894C171.646 38.9531 171.774 38.7576 171.774 38.5031C171.774 38.2849 171.655 38.1258 171.419 38.0258C171.192 37.9167 170.819 37.7985 170.301 37.6712C169.765 37.544 169.328 37.4167 168.992 37.2894C168.655 37.1622 168.365 36.9667 168.119 36.7031C167.874 36.4303 167.751 36.0712 167.751 35.6258C167.751 35.1894 167.874 34.8122 168.119 34.494C168.365 34.1667 168.696 33.9167 169.115 33.744C169.533 33.5712 169.992 33.4849 170.492 33.4849C171.083 33.4849 171.61 33.6076 172.074 33.8531C172.546 34.0985 172.91 34.4485 173.165 34.9031L171.787 35.5985C171.551 35.0894 171.119 34.8349 170.492 34.8349C170.174 34.8349 169.919 34.9031 169.728 35.0394C169.537 35.1667 169.442 35.344 169.442 35.5712ZM180.497 40.4803H178.82V36.444C178.82 35.9349 178.675 35.5712 178.384 35.3531C178.102 35.1258 177.766 35.0122 177.375 35.0122C177.066 35.0122 176.784 35.1076 176.529 35.2985C176.284 35.4894 176.125 35.794 176.052 36.2122V40.4803H174.361V30.9349H176.052V34.2349C176.279 34.0167 176.538 33.844 176.829 33.7167C177.129 33.5894 177.447 33.5258 177.784 33.5258C178.184 33.5258 178.588 33.6122 178.997 33.7849C179.407 33.9485 179.757 34.244 180.047 34.6712C180.347 35.0985 180.497 35.6758 180.497 36.4031V40.4803Z" fill="#E6E8EB" fill-opacity="0.8"/>
<rect x="0.50891" y="0.286254" width="49.4275" height="64.4275" rx="24.7137" stroke="white" stroke-width="0.572507"/>
<path d="M25.3818 29.25C27.8636 29.25 29.8257 29.8439 31.2682 31.0318C32.7106 32.1985 33.4318 33.8106 33.4318 35.8682C33.4318 38.2227 32.7106 40.0788 31.2682 41.4364C29.8257 42.7727 27.8636 43.4409 25.3818 43.4409C22.9 43.4409 20.906 42.8894 19.4 41.7864C17.9151 40.6833 17.1091 39.1667 16.9818 37.2364L20.9272 36.7591C21.1182 37.6288 21.606 38.3182 22.3909 38.8273C23.1969 39.3152 24.1939 39.5591 25.3818 39.5591C26.6757 39.5591 27.6939 39.2303 28.4363 38.5727C29.1788 37.9152 29.55 37.0136 29.55 35.8682C29.55 34.9136 29.1788 34.1606 28.4363 33.6091C27.6939 33.0576 26.6757 32.7818 25.3818 32.7818H20.9909V32.7182L17.9682 32.7818L19.4636 20.8182H32.6363V24.7636H22.9318L22.3591 29.25H25.3818Z" fill="white"/>
</svg>
