<svg width="166" height="65" viewBox="0 0 166 65" fill="none" xmlns="http://www.w3.org/2000/svg">
<path d="M68.3115 11.309C69.2327 11.309 70.0388 11.515 70.7297 11.9271C71.4327 12.3393 71.9661 12.909 72.3297 13.6362C72.7054 14.3635 72.8933 15.1817 72.8933 16.0908C72.8933 16.9999 72.7054 17.818 72.3297 18.5453C71.9661 19.2726 71.4327 19.8484 70.7297 20.2726C70.0388 20.6847 69.2327 20.8908 68.3115 20.8908C67.7661 20.8908 67.2388 20.7938 66.7297 20.5999C66.2327 20.3938 65.7721 20.109 65.3479 19.7453V24.2726H63.0933V11.5453H65.3479V12.4362C65.76 12.0726 66.2206 11.7938 66.7297 11.5999C67.2388 11.4059 67.7661 11.309 68.3115 11.309ZM68.0388 18.709C68.7903 18.709 69.4085 18.4665 69.8933 17.9817C70.3903 17.4847 70.6388 16.8544 70.6388 16.0908C70.6388 15.3271 70.3903 14.7029 69.8933 14.218C69.4085 13.7211 68.7903 13.4726 68.0388 13.4726C67.5418 13.4726 67.0873 13.5877 66.6751 13.818C66.263 14.0362 65.9357 14.3453 65.6933 14.7453C65.463 15.1453 65.3479 15.5999 65.3479 16.109C65.3479 16.8726 65.6024 17.4968 66.1115 17.9817C66.6327 18.4665 67.2751 18.709 68.0388 18.709ZM79.8214 11.3635L79.6578 13.4908C79.5851 13.4665 79.4578 13.4544 79.276 13.4544C78.5245 13.4544 77.9002 13.6726 77.4033 14.109C76.9184 14.5453 76.676 15.1393 76.676 15.8908V20.6362H74.4214V11.5453H76.676V13.0726C76.8821 12.5877 77.2336 12.1817 77.7305 11.8544C78.2275 11.5271 78.8275 11.3635 79.5305 11.3635H79.8214ZM82.5986 10.0362C82.1743 10.0362 81.841 9.92108 81.5986 9.69077C81.3562 9.46047 81.2349 9.14532 81.2349 8.74532C81.2349 8.3332 81.3562 8.01199 81.5986 7.78168C81.841 7.55138 82.1743 7.43623 82.5986 7.43623C83.0228 7.43623 83.3562 7.55138 83.5986 7.78168C83.841 8.01199 83.9622 8.3332 83.9622 8.74532C83.9622 9.1332 83.8349 9.44835 83.5804 9.69077C83.338 9.92108 83.0107 10.0362 82.5986 10.0362ZM81.4531 20.6362V11.5453H83.7077V20.6362H81.4531ZM93.7712 18.8726C93.3227 19.4908 92.759 19.9817 92.0803 20.3453C91.4015 20.709 90.6681 20.8908 89.8803 20.8908C89.0196 20.8908 88.2196 20.6787 87.4803 20.2544C86.753 19.818 86.1712 19.2362 85.7348 18.509C85.3106 17.7696 85.0984 16.9696 85.0984 16.109C85.0984 15.2484 85.3106 14.4544 85.7348 13.7271C86.1712 12.9877 86.753 12.4059 87.4803 11.9817C88.2196 11.5453 89.0196 11.3271 89.8803 11.3271C90.656 11.3271 91.3833 11.509 92.0621 11.8726C92.7409 12.2241 93.3045 12.7029 93.753 13.309L91.8984 14.5635C91.3287 13.8968 90.656 13.5635 89.8803 13.5635C89.4196 13.5635 88.9954 13.6787 88.6075 13.909C88.2196 14.1393 87.9106 14.4484 87.6803 14.8362C87.45 15.2241 87.3348 15.6484 87.3348 16.109C87.3348 16.5696 87.45 16.9938 87.6803 17.3817C87.9106 17.7696 88.2196 18.0787 88.6075 18.309C88.9954 18.5271 89.4196 18.6362 89.8803 18.6362C90.656 18.6362 91.3287 18.3029 91.8984 17.6362L93.7712 18.8726ZM96.2705 10.0362C95.8462 10.0362 95.5129 9.92108 95.2705 9.69077C95.028 9.46047 94.9068 9.14532 94.9068 8.74532C94.9068 8.3332 95.028 8.01199 95.2705 7.78168C95.5129 7.55138 95.8462 7.43623 96.2705 7.43623C96.6947 7.43623 97.028 7.55138 97.2705 7.78168C97.5129 8.01199 97.6341 8.3332 97.6341 8.74532C97.6341 9.1332 97.5068 9.44835 97.2523 9.69077C97.0098 9.92108 96.6826 10.0362 96.2705 10.0362ZM95.125 20.6362V11.5453H97.3795V20.6362H95.125ZM104.253 11.309C104.786 11.309 105.325 11.4241 105.871 11.6544C106.428 11.8726 106.901 12.2726 107.289 12.8544C107.689 13.4362 107.889 14.218 107.889 15.1999V20.6362H105.635V15.1999C105.635 14.5211 105.441 14.0362 105.053 13.7453C104.677 13.4423 104.235 13.2908 103.725 13.2908C103.216 13.2908 102.78 13.4726 102.416 13.8362C102.065 14.1877 101.889 14.7574 101.889 15.5453V20.6362H99.6345V11.5453H101.889V12.309C102.216 12.0059 102.58 11.7635 102.98 11.5817C103.38 11.3999 103.804 11.309 104.253 11.309ZM116.83 11.5453H119.084V20.1817C119.084 21.0423 118.866 21.7999 118.43 22.4544C118.005 23.109 117.412 23.612 116.648 23.9635C115.884 24.3271 115.03 24.509 114.084 24.509C113.03 24.509 112.072 24.3029 111.212 23.8908C110.351 23.4908 109.745 22.9635 109.393 22.309L111.321 21.1999C111.502 21.5514 111.842 21.8423 112.339 22.0726C112.836 22.315 113.436 22.4362 114.139 22.4362C114.915 22.4362 115.557 22.2241 116.066 21.7999C116.575 21.3877 116.83 20.8484 116.83 20.1817V19.7635C116.418 20.1271 115.957 20.4059 115.448 20.5999C114.939 20.7938 114.412 20.8908 113.866 20.8908C112.945 20.8908 112.139 20.6847 111.448 20.2726C110.757 19.8605 110.224 19.2908 109.848 18.5635C109.484 17.8362 109.302 17.018 109.302 16.109C109.302 15.1999 109.484 14.3817 109.848 13.6544C110.224 12.9271 110.757 12.3574 111.448 11.9453C112.139 11.5211 112.945 11.309 113.866 11.309C114.412 11.309 114.933 11.412 115.43 11.618C115.939 11.812 116.405 12.0847 116.83 12.4362V11.5453ZM114.157 18.7271C114.654 18.7271 115.102 18.618 115.502 18.3999C115.915 18.1696 116.236 17.8544 116.466 17.4544C116.708 17.0544 116.83 16.5999 116.83 16.0908C116.83 15.3271 116.569 14.7029 116.048 14.218C115.539 13.7332 114.908 13.4908 114.157 13.4908C113.393 13.4908 112.763 13.7393 112.266 14.2362C111.781 14.7211 111.539 15.3453 111.539 16.109C111.539 16.8726 111.781 17.5029 112.266 17.9999C112.763 18.4847 113.393 18.7271 114.157 18.7271Z" fill="#E6E8EB"/>
<path d="M64.2751 35.3639C64.2751 35.5548 64.3797 35.7002 64.5888 35.8002C64.807 35.8911 65.1479 35.9866 65.6115 36.0866C66.1388 36.1957 66.5797 36.3184 66.9342 36.4548C67.2888 36.5911 67.5933 36.8093 67.8479 37.1093C68.1115 37.4002 68.2433 37.7957 68.2433 38.2957C68.2433 38.7411 68.107 39.1275 67.8342 39.4548C67.5706 39.782 67.2161 40.032 66.7706 40.2048C66.3251 40.3684 65.8388 40.4502 65.3115 40.4502C64.5933 40.4502 63.9751 40.3139 63.457 40.0411C62.9479 39.7684 62.5706 39.3775 62.3251 38.8684L63.7161 38.1457C63.9615 38.7729 64.4933 39.0866 65.3115 39.0866C65.6661 39.0866 65.9706 39.0184 66.2251 38.882C66.4797 38.7457 66.607 38.5502 66.607 38.2957C66.607 38.0775 66.4888 37.9184 66.2524 37.8184C66.0251 37.7093 65.6524 37.5911 65.1342 37.4639C64.5979 37.3366 64.1615 37.2093 63.8251 37.082C63.4888 36.9548 63.1979 36.7593 62.9524 36.4957C62.707 36.2229 62.5842 35.8639 62.5842 35.4184C62.5842 34.982 62.707 34.6048 62.9524 34.2866C63.1979 33.9593 63.5297 33.7093 63.9479 33.5366C64.3661 33.3639 64.8251 33.2775 65.3251 33.2775C65.9161 33.2775 66.4433 33.4002 66.907 33.6457C67.3797 33.8911 67.7433 34.2411 67.9979 34.6957L66.6206 35.3911C66.3842 34.882 65.9524 34.6275 65.3251 34.6275C65.007 34.6275 64.7524 34.6957 64.5615 34.832C64.3706 34.9593 64.2751 35.1366 64.2751 35.3639ZM72.4922 33.2775C73.1468 33.2775 73.7331 33.4411 74.2513 33.7684C74.7786 34.0866 75.1877 34.5184 75.4786 35.0639C75.7695 35.6093 75.915 36.2139 75.915 36.8775C75.915 37.0957 75.8968 37.2957 75.8604 37.4775H70.5968C70.7331 37.9593 70.974 38.3366 71.3195 38.6093C71.665 38.8729 72.1059 39.0048 72.6422 39.0048C72.9695 39.0048 73.2831 38.932 73.5831 38.7866C73.8922 38.6411 74.124 38.4548 74.2786 38.2275L75.574 38.9911C75.2559 39.4639 74.8422 39.8275 74.3331 40.082C73.8331 40.3275 73.2559 40.4502 72.6013 40.4502C71.874 40.4502 71.2286 40.2957 70.665 39.9866C70.1013 39.6775 69.665 39.2502 69.3559 38.7048C69.0559 38.1593 68.9059 37.5457 68.9059 36.8639C68.9059 36.1911 69.0559 35.582 69.3559 35.0366C69.665 34.4911 70.0922 34.0639 70.6377 33.7548C71.1831 33.4366 71.8013 33.2775 72.4922 33.2775ZM74.3331 36.1548C74.2604 35.7184 74.0559 35.3775 73.7195 35.132C73.3922 34.8775 72.9786 34.7502 72.4786 34.7502C72.1331 34.7502 71.815 34.8139 71.524 34.9411C71.2422 35.0684 71.015 35.2411 70.8422 35.4593C70.6695 35.6775 70.5786 35.9093 70.5695 36.1548H74.3331ZM79.2773 37.9411C79.2773 38.2502 79.35 38.4639 79.4955 38.582C79.6409 38.7002 79.8727 38.7593 80.1909 38.7593C80.3818 38.7593 80.5909 38.7457 80.8182 38.7184V40.2729C80.3909 40.3184 80.0364 40.3411 79.7545 40.3411C79.0273 40.3411 78.4818 40.1775 78.1182 39.8502C77.7636 39.5139 77.5864 38.9139 77.5864 38.0502V34.9684H76.3045V33.4548H77.5864V31.7775L79.2773 31.2048V33.4548H80.7909V34.9684H79.2773V37.9411ZM89.7008 33.2775C90.3917 33.2775 90.9962 33.432 91.5144 33.7411C92.0417 34.0502 92.4417 34.4775 92.7144 35.0229C92.9962 35.5684 93.1371 36.182 93.1371 36.8639C93.1371 37.5457 92.9962 38.1593 92.7144 38.7048C92.4417 39.2502 92.0417 39.682 91.5144 40.0002C90.9962 40.3093 90.3917 40.4639 89.7008 40.4639C89.2917 40.4639 88.8962 40.3911 88.5144 40.2457C88.1417 40.0911 87.7962 39.8775 87.4781 39.6048V43.0002H85.7871V33.4548H87.4781V34.1229C87.7871 33.8502 88.1326 33.6411 88.5144 33.4957C88.8962 33.3502 89.2917 33.2775 89.7008 33.2775ZM89.4962 38.8275C90.0599 38.8275 90.5235 38.6457 90.8871 38.282C91.2599 37.9093 91.4462 37.4366 91.4462 36.8639C91.4462 36.2911 91.2599 35.8229 90.8871 35.4593C90.5235 35.0866 90.0599 34.9002 89.4962 34.9002C89.1235 34.9002 88.7826 34.9866 88.4735 35.1593C88.1644 35.3229 87.919 35.5548 87.7371 35.8548C87.5644 36.1548 87.4781 36.4957 87.4781 36.8775C87.4781 37.4502 87.669 37.9184 88.0508 38.282C88.4417 38.6457 88.9235 38.8275 89.4962 38.8275ZM98.3332 33.3184L98.2105 34.9139C98.156 34.8957 98.0605 34.8866 97.9241 34.8866C97.3605 34.8866 96.8923 35.0502 96.5196 35.3775C96.156 35.7048 95.9741 36.1502 95.9741 36.7139V40.2729H94.2832V33.4548H95.9741V34.6002C96.1287 34.2366 96.3923 33.932 96.7651 33.6866C97.1378 33.4411 97.5878 33.3184 98.1151 33.3184H98.3332ZM100.416 32.3229C100.098 32.3229 99.8479 32.2366 99.6661 32.0639C99.4843 31.8911 99.3934 31.6548 99.3934 31.3548C99.3934 31.0457 99.4843 30.8048 99.6661 30.632C99.8479 30.4593 100.098 30.3729 100.416 30.3729C100.734 30.3729 100.984 30.4593 101.166 30.632C101.348 30.8048 101.439 31.0457 101.439 31.3548C101.439 31.6457 101.343 31.882 101.152 32.0639C100.971 32.2366 100.725 32.3229 100.416 32.3229ZM99.557 40.2729V33.4548H101.248V40.2729H99.557ZM108.796 38.9502C108.459 39.4139 108.036 39.782 107.527 40.0548C107.018 40.3275 106.468 40.4639 105.877 40.4639C105.232 40.4639 104.632 40.3048 104.077 39.9866C103.532 39.6593 103.096 39.2229 102.768 38.6775C102.45 38.1229 102.291 37.5229 102.291 36.8775C102.291 36.232 102.45 35.6366 102.768 35.0911C103.096 34.5366 103.532 34.1002 104.077 33.782C104.632 33.4548 105.232 33.2911 105.877 33.2911C106.459 33.2911 107.005 33.4275 107.514 33.7002C108.023 33.9639 108.446 34.3229 108.782 34.7775L107.391 35.7184C106.964 35.2184 106.459 34.9684 105.877 34.9684C105.532 34.9684 105.214 35.0548 104.923 35.2275C104.632 35.4002 104.4 35.632 104.227 35.9229C104.055 36.2139 103.968 36.532 103.968 36.8775C103.968 37.2229 104.055 37.5411 104.227 37.832C104.4 38.1229 104.632 38.3548 104.923 38.5275C105.214 38.6911 105.532 38.7729 105.877 38.7729C106.459 38.7729 106.964 38.5229 107.391 38.0229L108.796 38.9502ZM112.922 33.2775C113.576 33.2775 114.163 33.4411 114.681 33.7684C115.208 34.0866 115.617 34.5184 115.908 35.0639C116.199 35.6093 116.345 36.2139 116.345 36.8775C116.345 37.0957 116.326 37.2957 116.29 37.4775H111.026C111.163 37.9593 111.404 38.3366 111.749 38.6093C112.095 38.8729 112.536 39.0048 113.072 39.0048C113.399 39.0048 113.713 38.932 114.013 38.7866C114.322 38.6411 114.554 38.4548 114.708 38.2275L116.004 38.9911C115.686 39.4639 115.272 39.8275 114.763 40.082C114.263 40.3275 113.686 40.4502 113.031 40.4502C112.304 40.4502 111.658 40.2957 111.095 39.9866C110.531 39.6775 110.095 39.2502 109.786 38.7048C109.486 38.1593 109.336 37.5457 109.336 36.8639C109.336 36.1911 109.486 35.582 109.786 35.0366C110.095 34.4911 110.522 34.0639 111.067 33.7548C111.613 33.4366 112.231 33.2775 112.922 33.2775ZM114.763 36.1548C114.69 35.7184 114.486 35.3775 114.149 35.132C113.822 34.8775 113.408 34.7502 112.908 34.7502C112.563 34.7502 112.245 34.8139 111.954 34.9411C111.672 35.0684 111.445 35.2411 111.272 35.4593C111.099 35.6775 111.008 35.9093 110.999 36.1548H114.763ZM118.887 35.3639C118.887 35.5548 118.992 35.7002 119.201 35.8002C119.419 35.8911 119.76 35.9866 120.224 36.0866C120.751 36.1957 121.192 36.3184 121.546 36.4548C121.901 36.5911 122.205 36.8093 122.46 37.1093C122.724 37.4002 122.855 37.7957 122.855 38.2957C122.855 38.7411 122.719 39.1275 122.446 39.4548C122.183 39.782 121.828 40.032 121.383 40.2048C120.937 40.3684 120.451 40.4502 119.924 40.4502C119.205 40.4502 118.587 40.3139 118.069 40.0411C117.56 39.7684 117.183 39.3775 116.937 38.8684L118.328 38.1457C118.574 38.7729 119.105 39.0866 119.924 39.0866C120.278 39.0866 120.583 39.0184 120.837 38.882C121.092 38.7457 121.219 38.5502 121.219 38.2957C121.219 38.0775 121.101 37.9184 120.864 37.8184C120.637 37.7093 120.264 37.5911 119.746 37.4639C119.21 37.3366 118.774 37.2093 118.437 37.082C118.101 36.9548 117.81 36.7593 117.564 36.4957C117.319 36.2229 117.196 35.8639 117.196 35.4184C117.196 34.982 117.319 34.6048 117.564 34.2866C117.81 33.9593 118.142 33.7093 118.56 33.5366C118.978 33.3639 119.437 33.2775 119.937 33.2775C120.528 33.2775 121.055 33.4002 121.519 33.6457C121.992 33.8911 122.355 34.2411 122.61 34.6957L121.233 35.3911C120.996 34.882 120.564 34.6275 119.937 34.6275C119.619 34.6275 119.364 34.6957 119.174 34.832C118.983 34.9593 118.887 35.1366 118.887 35.3639ZM133.014 33.4548H134.705V40.2729H133.014V39.6048C132.696 39.8775 132.346 40.0911 131.964 40.2457C131.591 40.3911 131.196 40.4639 130.777 40.4639C130.087 40.4639 129.482 40.3093 128.964 40.0002C128.446 39.6911 128.046 39.2639 127.764 38.7184C127.491 38.1729 127.355 37.5593 127.355 36.8775C127.355 36.1957 127.491 35.582 127.764 35.0366C128.046 34.4911 128.446 34.0639 128.964 33.7548C129.482 33.4366 130.087 33.2775 130.777 33.2775C131.196 33.2775 131.591 33.3548 131.964 33.5093C132.346 33.6548 132.696 33.8639 133.014 34.1366V33.4548ZM130.996 38.8411C131.368 38.8411 131.705 38.7593 132.005 38.5957C132.314 38.4229 132.555 38.1866 132.727 37.8866C132.909 37.5866 133 37.2457 133 36.8639C133 36.2911 132.805 35.8229 132.414 35.4593C132.032 35.0957 131.559 34.9139 130.996 34.9139C130.423 34.9139 129.95 35.1002 129.577 35.4729C129.214 35.8366 129.032 36.3048 129.032 36.8775C129.032 37.4502 129.214 37.9229 129.577 38.2957C129.95 38.6593 130.423 38.8411 130.996 38.8411ZM139.908 33.2775C140.308 33.2775 140.712 33.3639 141.121 33.5366C141.54 33.7002 141.894 34.0002 142.185 34.4366C142.485 34.8729 142.635 35.4593 142.635 36.1957V40.2729H140.944V36.1957C140.944 35.6866 140.799 35.3229 140.508 35.1048C140.226 34.8775 139.894 34.7639 139.512 34.7639C139.13 34.7639 138.803 34.9002 138.53 35.1729C138.267 35.4366 138.135 35.8639 138.135 36.4548V40.2729H136.444V33.4548H138.135V34.0275C138.38 33.8002 138.653 33.6184 138.953 33.482C139.253 33.3457 139.571 33.2775 139.908 33.2775ZM149.313 30.7275H151.004V40.2729H149.313V39.6184C149.004 39.8911 148.659 40.1002 148.277 40.2457C147.895 40.3911 147.5 40.4639 147.09 40.4639C146.4 40.4639 145.795 40.3093 145.277 40.0002C144.759 39.6911 144.359 39.2639 144.077 38.7184C143.804 38.1729 143.668 37.5593 143.668 36.8775C143.668 36.1957 143.804 35.582 144.077 35.0366C144.359 34.4911 144.759 34.0639 145.277 33.7548C145.795 33.4366 146.4 33.2775 147.09 33.2775C147.5 33.2775 147.89 33.3548 148.263 33.5093C148.645 33.6548 148.995 33.8593 149.313 34.1229V30.7275ZM147.309 38.8411C147.681 38.8411 148.018 38.7593 148.318 38.5957C148.627 38.4229 148.868 38.1866 149.04 37.8866C149.222 37.5866 149.313 37.2457 149.313 36.8639C149.313 36.2911 149.118 35.8229 148.727 35.4593C148.345 35.0957 147.872 34.9139 147.309 34.9139C146.736 34.9139 146.263 35.1002 145.89 35.4729C145.527 35.8366 145.345 36.3048 145.345 36.8775C145.345 37.4502 145.527 37.9229 145.89 38.2957C146.263 38.6593 146.736 38.8411 147.309 38.8411ZM66.8524 49.3184L66.7297 50.9139C66.6751 50.8957 66.5797 50.8866 66.4433 50.8866C65.8797 50.8866 65.4115 51.0502 65.0388 51.3775C64.6751 51.7048 64.4933 52.1502 64.4933 52.7139V56.2729H62.8024V49.4548H64.4933V50.6002C64.6479 50.2366 64.9115 49.932 65.2842 49.6866C65.657 49.4411 66.107 49.3184 66.6342 49.3184H66.8524ZM70.761 56.4639C70.1156 56.4639 69.5156 56.3048 68.961 55.9866C68.4156 55.6593 67.9792 55.2229 67.652 54.6775C67.3338 54.1229 67.1747 53.5229 67.1747 52.8775C67.1747 52.232 67.3338 51.6366 67.652 51.0911C67.9792 50.5366 68.4156 50.1002 68.961 49.782C69.5156 49.4548 70.1156 49.2911 70.761 49.2911C71.4065 49.2911 72.002 49.4548 72.5474 49.782C73.102 50.1002 73.5383 50.5366 73.8565 51.0911C74.1838 51.6366 74.3474 52.232 74.3474 52.8775C74.3474 53.5229 74.1838 54.1229 73.8565 54.6775C73.5383 55.2229 73.102 55.6593 72.5474 55.9866C72.002 56.3048 71.4065 56.4639 70.761 56.4639ZM70.7474 54.7729C71.0929 54.7729 71.411 54.6911 71.702 54.5275C71.9929 54.3548 72.2247 54.1229 72.3974 53.832C72.5701 53.5411 72.6565 53.2229 72.6565 52.8775C72.6565 52.532 72.5701 52.2139 72.3974 51.9229C72.2247 51.632 71.9929 51.4002 71.702 51.2275C71.411 51.0548 71.0929 50.9684 70.7474 50.9684C70.402 50.9684 70.0838 51.0548 69.7929 51.2275C69.502 51.4002 69.2701 51.632 69.0974 51.9229C68.9338 52.2139 68.852 52.532 68.852 52.8775C68.852 53.2229 68.9338 53.5411 69.0974 53.832C69.2701 54.1229 69.502 54.3548 69.7929 54.5275C70.0838 54.6911 70.402 54.7729 70.7474 54.7729ZM80.2339 49.4548H82.0067L79.6203 56.2866C79.2658 57.2229 78.7749 57.9229 78.1476 58.3866C77.5294 58.8593 76.7976 59.0639 75.9521 59.0002V57.3639C76.0067 57.3729 76.0885 57.3775 76.1976 57.3775C76.9249 57.3775 77.493 56.9366 77.9021 56.0548L74.9021 49.4548H76.7158L78.7203 53.7911L80.2339 49.4548ZM88.3094 49.4548H90.0004V56.2729H88.3094V55.6048C87.9913 55.8775 87.6413 56.0911 87.2594 56.2457C86.8867 56.3911 86.4913 56.4639 86.0731 56.4639C85.3822 56.4639 84.7776 56.3093 84.2594 56.0002C83.7413 55.6911 83.3413 55.2639 83.0594 54.7184C82.7867 54.1729 82.6504 53.5593 82.6504 52.8775C82.6504 52.1957 82.7867 51.582 83.0594 51.0366C83.3413 50.4911 83.7413 50.0639 84.2594 49.7548C84.7776 49.4366 85.3822 49.2775 86.0731 49.2775C86.4913 49.2775 86.8867 49.3548 87.2594 49.5093C87.6413 49.6548 87.9913 49.8639 88.3094 50.1366V49.4548ZM86.2913 54.8411C86.664 54.8411 87.0004 54.7593 87.3004 54.5957C87.6094 54.4229 87.8504 54.1866 88.0231 53.8866C88.2049 53.5866 88.2958 53.2457 88.2958 52.8639C88.2958 52.2911 88.1004 51.8229 87.7094 51.4593C87.3276 51.0957 86.8549 50.9139 86.2913 50.9139C85.7185 50.9139 85.2458 51.1002 84.8731 51.4729C84.5094 51.8366 84.3276 52.3048 84.3276 52.8775C84.3276 53.4502 84.5094 53.9229 84.8731 54.2957C85.2458 54.6593 85.7185 54.8411 86.2913 54.8411ZM93.2309 54.3502C93.2309 54.4957 93.2673 54.6002 93.34 54.6639C93.4127 54.7275 93.5264 54.7593 93.6809 54.7593C93.7991 54.7593 93.94 54.7457 94.1036 54.7184V56.2729C93.7673 56.3275 93.4536 56.3548 93.1627 56.3548C92.6354 56.3548 92.2309 56.2184 91.9491 55.9457C91.6764 55.6639 91.54 55.1684 91.54 54.4593V46.7275H93.2309V54.3502ZM97.7476 53.9411C97.7476 54.2502 97.8204 54.4639 97.9658 54.582C98.1113 54.7002 98.3431 54.7593 98.6613 54.7593C98.8522 54.7593 99.0613 54.7457 99.2885 54.7184V56.2729C98.8613 56.3184 98.5067 56.3411 98.2249 56.3411C97.4976 56.3411 96.9522 56.1775 96.5885 55.8502C96.234 55.5139 96.0567 54.9139 96.0567 54.0502V50.9684H94.7749V49.4548H96.0567V47.7775L97.7476 47.2048V49.4548H99.2613V50.9684H97.7476V53.9411ZM101.521 48.3229C101.203 48.3229 100.953 48.2366 100.771 48.0639C100.59 47.8911 100.499 47.6548 100.499 47.3548C100.499 47.0457 100.59 46.8048 100.771 46.632C100.953 46.4593 101.203 46.3729 101.521 46.3729C101.84 46.3729 102.09 46.4593 102.271 46.632C102.453 46.8048 102.544 47.0457 102.544 47.3548C102.544 47.6457 102.449 47.882 102.258 48.0639C102.076 48.2366 101.83 48.3229 101.521 48.3229ZM100.662 56.2729V49.4548H102.353V56.2729H100.662ZM106.983 49.2775C107.637 49.2775 108.224 49.4411 108.742 49.7684C109.269 50.0866 109.678 50.5184 109.969 51.0639C110.26 51.6093 110.405 52.2139 110.405 52.8775C110.405 53.0957 110.387 53.2957 110.351 53.4775H105.087C105.224 53.9593 105.464 54.3366 105.81 54.6093C106.155 54.8729 106.596 55.0048 107.133 55.0048C107.46 55.0048 107.774 54.932 108.074 54.7866C108.383 54.6411 108.614 54.4548 108.769 54.2275L110.064 54.9911C109.746 55.4639 109.333 55.8275 108.824 56.082C108.324 56.3275 107.746 56.4502 107.092 56.4502C106.364 56.4502 105.719 56.2957 105.155 55.9866C104.592 55.6775 104.155 55.2502 103.846 54.7048C103.546 54.1593 103.396 53.5457 103.396 52.8639C103.396 52.1911 103.546 51.582 103.846 51.0366C104.155 50.4911 104.583 50.0639 105.128 49.7548C105.674 49.4366 106.292 49.2775 106.983 49.2775ZM108.824 52.1548C108.751 51.7184 108.546 51.3775 108.21 51.132C107.883 50.8775 107.469 50.7502 106.969 50.7502C106.624 50.7502 106.305 50.8139 106.014 50.9411C105.733 51.0684 105.505 51.2411 105.333 51.4593C105.16 51.6775 105.069 51.9093 105.06 52.1548H108.824ZM112.948 51.3639C112.948 51.5548 113.052 51.7002 113.262 51.8002C113.48 51.8911 113.821 51.9866 114.284 52.0866C114.812 52.1957 115.252 52.3184 115.607 52.4548C115.962 52.5911 116.266 52.8093 116.521 53.1093C116.784 53.4002 116.916 53.7957 116.916 54.2957C116.916 54.7411 116.78 55.1275 116.507 55.4548C116.243 55.782 115.889 56.032 115.443 56.2048C114.998 56.3684 114.512 56.4502 113.984 56.4502C113.266 56.4502 112.648 56.3139 112.13 56.0411C111.621 55.7684 111.243 55.3775 110.998 54.8684L112.389 54.1457C112.634 54.7729 113.166 55.0866 113.984 55.0866C114.339 55.0866 114.643 55.0184 114.898 54.882C115.152 54.7457 115.28 54.5502 115.28 54.2957C115.28 54.0775 115.162 53.9184 114.925 53.8184C114.698 53.7093 114.325 53.5911 113.807 53.4639C113.271 53.3366 112.834 53.2093 112.498 53.082C112.162 52.9548 111.871 52.7593 111.625 52.4957C111.38 52.2229 111.257 51.8639 111.257 51.4184C111.257 50.982 111.38 50.6048 111.625 50.2866C111.871 49.9593 112.202 49.7093 112.621 49.5366C113.039 49.3639 113.498 49.2775 113.998 49.2775C114.589 49.2775 115.116 49.4002 115.58 49.6457C116.052 49.8911 116.416 50.2411 116.671 50.6957L115.293 51.3911C115.057 50.882 114.625 50.6275 113.998 50.6275C113.68 50.6275 113.425 50.6957 113.234 50.832C113.043 50.9593 112.948 51.1366 112.948 51.3639Z" fill="#E6E8EB" fill-opacity="0.8"/>
<rect x="0.397582" y="0.286254" width="49.4275" height="64.4275" rx="24.7137" fill="white" stroke="white" stroke-width="0.572507"/>
<path d="M30.5205 31.2545C31.3902 31.8696 32.0689 32.6332 32.5568 33.5454C33.0447 34.4363 33.2886 35.412 33.2886 36.4726C33.2886 37.7878 32.9174 38.9757 32.175 40.0363C31.4538 41.0969 30.4568 41.9348 29.1841 42.5499C27.9326 43.1439 26.5326 43.4408 24.9841 43.4408C23.5417 43.4408 22.2053 43.1651 20.975 42.6135C19.7659 42.062 18.7902 41.309 18.0477 40.3545C17.3053 39.3787 16.9023 38.2863 16.8386 37.0772L21.1341 36.759C21.325 37.5651 21.7811 38.2332 22.5023 38.7635C23.2235 39.2939 24.0508 39.559 24.9841 39.559C26.1932 39.559 27.1902 39.2514 27.975 38.6363C28.7599 38.0211 29.1523 37.2363 29.1523 36.2817C29.1523 35.3272 28.7599 34.5423 27.975 33.9272C27.1902 33.312 26.1932 33.0045 24.9841 33.0045H23.8068L23.8386 29.6317H24.9841C26.0447 29.6317 26.9144 29.3772 27.5932 28.8681C28.2932 28.359 28.6432 27.7014 28.6432 26.8954C28.6432 26.0893 28.2932 25.4317 27.5932 24.9226C26.8932 24.3923 26.0023 24.1272 24.9205 24.1272C24.1568 24.1272 23.4462 24.3075 22.7886 24.6681C22.1311 25.0287 21.6644 25.4954 21.3886 26.0681L17.2841 25.8135C17.4326 24.7954 17.8568 23.8726 18.5568 23.0454C19.278 22.2181 20.1902 21.5711 21.2932 21.1045C22.3962 20.6378 23.6053 20.4045 24.9205 20.4045C26.4053 20.4045 27.7311 20.6908 28.8977 21.2635C30.0856 21.8151 31.0083 22.5893 31.6659 23.5863C32.3447 24.562 32.6841 25.6651 32.6841 26.8954C32.6841 27.7651 32.4932 28.5711 32.1114 29.3135C31.7508 30.056 31.2205 30.7029 30.5205 31.2545Z" fill="black"/>
</svg>
