<svg width="240" height="97" viewBox="0 0 240 97" fill="none" xmlns="http://www.w3.org/2000/svg">
<path d="M8.04 85.5L11.97 75H15.9L10.32 90H5.76L0.18 75H4.11L8.04 85.5ZM24.1458 74.61C25.5858 74.61 26.8758 74.97 28.0158 75.69C29.1758 76.39 30.0758 77.34 30.7158 78.54C31.3558 79.74 31.6758 81.07 31.6758 82.53C31.6758 83.01 31.6358 83.45 31.5558 83.85H19.9758C20.2758 84.91 20.8058 85.74 21.5658 86.34C22.3258 86.92 23.2958 87.21 24.4758 87.21C25.1958 87.21 25.8858 87.05 26.5458 86.73C27.2258 86.41 27.7358 86 28.0758 85.5L30.9258 87.18C30.2258 88.22 29.3158 89.02 28.1958 89.58C27.0958 90.12 25.8258 90.39 24.3858 90.39C22.7858 90.39 21.3658 90.05 20.1258 89.37C18.8858 88.69 17.9258 87.75 17.2458 86.55C16.5858 85.35 16.2558 84 16.2558 82.5C16.2558 81.02 16.5858 79.68 17.2458 78.48C17.9258 77.28 18.8658 76.34 20.0658 75.66C21.2658 74.96 22.6258 74.61 24.1458 74.61ZM28.1958 80.94C28.0358 79.98 27.5858 79.23 26.8458 78.69C26.1258 78.13 25.2158 77.85 24.1158 77.85C23.3558 77.85 22.6558 77.99 22.0158 78.27C21.3958 78.55 20.8958 78.93 20.5158 79.41C20.1358 79.89 19.9358 80.4 19.9158 80.94H28.1958ZM42.9394 74.7L42.6694 78.21C42.5494 78.17 42.3394 78.15 42.0394 78.15C40.7994 78.15 39.7694 78.51 38.9494 79.23C38.1494 79.95 37.7494 80.93 37.7494 82.17V90H34.0294V75H37.7494V77.52C38.0894 76.72 38.6694 76.05 39.4894 75.51C40.3094 74.97 41.2994 74.7 42.4594 74.7H42.9394ZM47.5216 72.51C46.8216 72.51 46.2716 72.32 45.8716 71.94C45.4716 71.56 45.2716 71.04 45.2716 70.38C45.2716 69.7 45.4716 69.17 45.8716 68.79C46.2716 68.41 46.8216 68.22 47.5216 68.22C48.2216 68.22 48.7716 68.41 49.1716 68.79C49.5716 69.17 49.7716 69.7 49.7716 70.38C49.7716 71.02 49.5616 71.54 49.1416 71.94C48.7416 72.32 48.2016 72.51 47.5216 72.51ZM45.6316 90V75H49.3516V90H45.6316ZM61.4423 72.15C60.9423 72.09 60.4923 72.06 60.0923 72.06C59.3923 72.06 58.8823 72.19 58.5623 72.45C58.2423 72.71 58.0823 73.19 58.0823 73.89V75H61.4123V78.33H58.0823V90H54.3623V78.33H51.8723V75H54.3623V73.65C54.3623 71.75 54.7523 70.44 55.5323 69.72C56.3123 68.98 57.4923 68.61 59.0723 68.61C59.6923 68.61 60.4823 68.66 61.4423 68.76V72.15ZM65.4623 72.51C64.7623 72.51 64.2123 72.32 63.8123 71.94C63.4123 71.56 63.2123 71.04 63.2123 70.38C63.2123 69.7 63.4123 69.17 63.8123 68.79C64.2123 68.41 64.7623 68.22 65.4623 68.22C66.1623 68.22 66.7123 68.41 67.1123 68.79C67.5123 69.17 67.7123 69.7 67.7123 70.38C67.7123 71.02 67.5023 71.54 67.0823 71.94C66.6823 72.32 66.1423 72.51 65.4623 72.51ZM63.5723 90V75H67.2923V90H63.5723ZM78.052 74.61C79.492 74.61 80.782 74.97 81.922 75.69C83.082 76.39 83.982 77.34 84.622 78.54C85.262 79.74 85.582 81.07 85.582 82.53C85.582 83.01 85.542 83.45 85.462 83.85H73.882C74.182 84.91 74.712 85.74 75.472 86.34C76.232 86.92 77.202 87.21 78.382 87.21C79.102 87.21 79.792 87.05 80.452 86.73C81.132 86.41 81.642 86 81.982 85.5L84.832 87.18C84.132 88.22 83.222 89.02 82.102 89.58C81.002 90.12 79.732 90.39 78.292 90.39C76.692 90.39 75.272 90.05 74.032 89.37C72.792 88.69 71.832 87.75 71.152 86.55C70.492 85.35 70.162 84 70.162 82.5C70.162 81.02 70.492 79.68 71.152 78.48C71.832 77.28 72.772 76.34 73.972 75.66C75.172 74.96 76.532 74.61 78.052 74.61ZM82.102 80.94C81.942 79.98 81.492 79.23 80.752 78.69C80.032 78.13 79.122 77.85 78.022 77.85C77.262 77.85 76.562 77.99 75.922 78.27C75.302 78.55 74.802 78.93 74.422 79.41C74.042 79.89 73.842 80.4 73.822 80.94H82.102ZM99.6656 69H103.386V90H99.6656V88.56C98.9856 89.16 98.2256 89.62 97.3856 89.94C96.5456 90.26 95.6756 90.42 94.7756 90.42C93.2556 90.42 91.9256 90.08 90.7856 89.4C89.6456 88.72 88.7656 87.78 88.1456 86.58C87.5456 85.38 87.2456 84.03 87.2456 82.53C87.2456 81.03 87.5456 79.68 88.1456 78.48C88.7656 77.28 89.6456 76.34 90.7856 75.66C91.9256 74.96 93.2556 74.61 94.7756 74.61C95.6756 74.61 96.5356 74.78 97.3556 75.12C98.1956 75.44 98.9656 75.89 99.6656 76.47V69ZM95.2556 86.85C96.0756 86.85 96.8156 86.67 97.4756 86.31C98.1556 85.93 98.6856 85.41 99.0656 84.75C99.4656 84.09 99.6656 83.34 99.6656 82.5C99.6656 81.24 99.2356 80.21 98.3756 79.41C97.5356 78.61 96.4956 78.21 95.2556 78.21C93.9956 78.21 92.9556 78.62 92.1356 79.44C91.3356 80.24 90.9356 81.27 90.9356 82.53C90.9356 83.79 91.3356 84.83 92.1356 85.65C92.9556 86.45 93.9956 86.85 95.2556 86.85ZM126.678 75H130.398V90H126.678V88.53C125.978 89.13 125.208 89.6 124.368 89.94C123.548 90.26 122.678 90.42 121.758 90.42C120.238 90.42 118.908 90.08 117.768 89.4C116.628 88.72 115.748 87.78 115.128 86.58C114.528 85.38 114.228 84.03 114.228 82.53C114.228 81.03 114.528 79.68 115.128 78.48C115.748 77.28 116.628 76.34 117.768 75.66C118.908 74.96 120.238 74.61 121.758 74.61C122.678 74.61 123.548 74.78 124.368 75.12C125.208 75.44 125.978 75.9 126.678 76.5V75ZM122.238 86.85C123.058 86.85 123.798 86.67 124.458 86.31C125.138 85.93 125.668 85.41 126.048 84.75C126.448 84.09 126.648 83.34 126.648 82.5C126.648 81.24 126.218 80.21 125.358 79.41C124.518 78.61 123.478 78.21 122.238 78.21C120.978 78.21 119.938 78.62 119.118 79.44C118.318 80.24 117.918 81.27 117.918 82.53C117.918 83.79 118.318 84.83 119.118 85.65C119.938 86.45 120.978 86.85 122.238 86.85ZM143.135 74.7L142.865 78.21C142.745 78.17 142.535 78.15 142.235 78.15C140.995 78.15 139.965 78.51 139.145 79.23C138.345 79.95 137.945 80.93 137.945 82.17V90H134.225V75H137.945V77.52C138.285 76.72 138.865 76.05 139.685 75.51C140.505 74.97 141.495 74.7 142.655 74.7H143.135ZM151.602 84.87C151.602 85.55 151.762 86.02 152.082 86.28C152.402 86.54 152.912 86.67 153.612 86.67C154.032 86.67 154.492 86.64 154.992 86.58V90C154.052 90.1 153.272 90.15 152.652 90.15C151.052 90.15 149.852 89.79 149.052 89.07C148.272 88.33 147.882 87.01 147.882 85.11V78.33H145.062V75H147.882V71.31L151.602 70.05V75H154.932V78.33H151.602V84.87ZM172.649 84.09L175.439 75H179.339L174.479 90H170.789L167.969 81.09L165.149 90H161.519L156.779 75H160.649L163.349 84.03L165.989 75H169.949L172.649 84.09ZM187.74 90.42C186.32 90.42 185 90.07 183.78 89.37C182.58 88.65 181.62 87.69 180.9 86.49C180.2 85.27 179.85 83.95 179.85 82.53C179.85 81.11 180.2 79.8 180.9 78.6C181.62 77.38 182.58 76.42 183.78 75.72C185 75 186.32 74.64 187.74 74.64C189.16 74.64 190.47 75 191.67 75.72C192.89 76.42 193.85 77.38 194.55 78.6C195.27 79.8 195.63 81.11 195.63 82.53C195.63 83.95 195.27 85.27 194.55 86.49C193.85 87.69 192.89 88.65 191.67 89.37C190.47 90.07 189.16 90.42 187.74 90.42ZM187.71 86.7C188.47 86.7 189.17 86.52 189.81 86.16C190.45 85.78 190.96 85.27 191.34 84.63C191.72 83.99 191.91 83.29 191.91 82.53C191.91 81.77 191.72 81.07 191.34 80.43C190.96 79.79 190.45 79.28 189.81 78.9C189.17 78.52 188.47 78.33 187.71 78.33C186.95 78.33 186.25 78.52 185.61 78.9C184.97 79.28 184.46 79.79 184.08 80.43C183.72 81.07 183.54 81.77 183.54 82.53C183.54 83.29 183.72 83.99 184.08 84.63C184.46 85.27 184.97 85.78 185.61 86.16C186.25 86.52 186.95 86.7 187.71 86.7ZM206.914 74.7L206.644 78.21C206.524 78.17 206.314 78.15 206.014 78.15C204.774 78.15 203.744 78.51 202.924 79.23C202.124 79.95 201.724 80.93 201.724 82.17V90H198.004V75H201.724V77.52C202.064 76.72 202.644 76.05 203.464 75.51C204.284 74.97 205.274 74.7 206.434 74.7H206.914ZM224.16 90H219.51L215.31 84.39L213.12 86.79V90H209.4V69H213.12V81.33L218.76 75H223.95L217.83 81.66L224.16 90ZM229.633 79.2C229.633 79.62 229.863 79.94 230.323 80.16C230.803 80.36 231.553 80.57 232.573 80.79C233.733 81.03 234.703 81.3 235.483 81.6C236.263 81.9 236.933 82.38 237.493 83.04C238.073 83.68 238.363 84.55 238.363 85.65C238.363 86.63 238.063 87.48 237.463 88.2C236.883 88.92 236.103 89.47 235.123 89.85C234.143 90.21 233.073 90.39 231.913 90.39C230.333 90.39 228.973 90.09 227.833 89.49C226.713 88.89 225.883 88.03 225.343 86.91L228.403 85.32C228.943 86.7 230.113 87.39 231.913 87.39C232.693 87.39 233.363 87.24 233.923 86.94C234.483 86.64 234.763 86.21 234.763 85.65C234.763 85.17 234.503 84.82 233.983 84.6C233.483 84.36 232.663 84.1 231.523 83.82C230.343 83.54 229.383 83.26 228.643 82.98C227.903 82.7 227.263 82.27 226.723 81.69C226.183 81.09 225.913 80.3 225.913 79.32C225.913 78.36 226.183 77.53 226.723 76.83C227.263 76.11 227.993 75.56 228.913 75.18C229.833 74.8 230.843 74.61 231.943 74.61C233.243 74.61 234.403 74.88 235.423 75.42C236.463 75.96 237.263 76.73 237.823 77.73L234.793 79.26C234.273 78.14 233.323 77.58 231.943 77.58C231.243 77.58 230.683 77.73 230.263 78.03C229.843 78.31 229.633 78.7 229.633 79.2Z" fill="#E6E8EB" fill-opacity="0.8"/>
<path d="M18.8 21.12C19.8933 21.8933 20.7467 22.8533 21.36 24C21.9733 25.12 22.28 26.3467 22.28 27.68C22.28 29.3333 21.8133 30.8267 20.88 32.16C19.9733 33.4933 18.72 34.5467 17.12 35.32C15.5467 36.0667 13.7867 36.44 11.84 36.44C10.0267 36.44 8.34667 36.0933 6.8 35.4C5.28 34.7067 4.05333 33.76 3.12 32.56C2.18667 31.3333 1.68 29.96 1.6 28.44L7 28.04C7.24 29.0533 7.81333 29.8933 8.72 30.56C9.62667 31.2267 10.6667 31.56 11.84 31.56C13.36 31.56 14.6133 31.1733 15.6 30.4C16.5867 29.6267 17.08 28.64 17.08 27.44C17.08 26.24 16.5867 25.2533 15.6 24.48C14.6133 23.7067 13.36 23.32 11.84 23.32H10.36L10.4 19.08H11.84C13.1733 19.08 14.2667 18.76 15.12 18.12C16 17.48 16.44 16.6533 16.44 15.64C16.44 14.6267 16 13.8 15.12 13.16C14.24 12.4933 13.12 12.16 11.76 12.16C10.8 12.16 9.90667 12.3867 9.08 12.84C8.25333 13.2933 7.66667 13.88 7.32 14.6L2.16 14.28C2.34667 13 2.88 11.84 3.76 10.8C4.66667 9.76 5.81333 8.94667 7.2 8.36C8.58667 7.77333 10.1067 7.48 11.76 7.48C13.6267 7.48 15.2933 7.84 16.76 8.56C18.2533 9.25333 19.4133 10.2267 20.24 11.48C21.0933 12.7067 21.52 14.0933 21.52 15.64C21.52 16.7333 21.28 17.7467 20.8 18.68C20.3467 19.6133 19.68 20.4267 18.8 21.12ZM36.0634 36.52C33.7434 36.52 31.7168 35.92 29.9834 34.72C28.2768 33.4933 26.9568 31.7867 26.0234 29.6C25.1168 27.4133 24.6634 24.88 24.6634 22C24.6634 19.12 25.1168 16.5867 26.0234 14.4C26.9568 12.2133 28.2768 10.52 29.9834 9.32C31.7168 8.09333 33.7434 7.48 36.0634 7.48C38.3834 7.48 40.3968 8.09333 42.1034 9.32C43.8101 10.52 45.1168 12.2133 46.0234 14.4C46.9568 16.5867 47.4234 19.12 47.4234 22C47.4234 24.88 46.9568 27.4133 46.0234 29.6C45.1168 31.7867 43.8101 33.4933 42.1034 34.72C40.3968 35.92 38.3834 36.52 36.0634 36.52ZM36.0634 31.28C37.9568 31.28 39.4501 30.52 40.5434 29C41.6634 27.4533 42.2234 25.12 42.2234 22C42.2234 18.88 41.6634 16.56 40.5434 15.04C39.4501 13.4933 37.9568 12.72 36.0634 12.72C34.1701 12.72 32.6634 13.4933 31.5434 15.04C30.4501 16.56 29.9034 18.88 29.9034 22C29.9034 25.12 30.4501 27.4533 31.5434 29C32.6634 30.52 34.1701 31.28 36.0634 31.28ZM70.2869 36H64.0869L58.4869 28.52L55.5669 31.72V36H50.6069V8H55.5669V24.44L63.0869 16H70.0069L61.8469 24.88L70.2869 36ZM89.7031 24.04H82.4631V32.2H79.1031V24.04H71.8631V20.96H79.1031V13.12H82.4631V20.96H89.7031V24.04Z" fill="#E6E8EB"/>
</svg>
