<svg width="204" height="97" viewBox="0 0 204 97" fill="none" xmlns="http://www.w3.org/2000/svg">
<path d="M8.04 85.5L11.97 75H15.9L10.32 90H5.76L0.18 75H4.11L8.04 85.5ZM24.1458 74.61C25.5858 74.61 26.8758 74.97 28.0158 75.69C29.1758 76.39 30.0758 77.34 30.7158 78.54C31.3558 79.74 31.6758 81.07 31.6758 82.53C31.6758 83.01 31.6358 83.45 31.5558 83.85H19.9758C20.2758 84.91 20.8058 85.74 21.5658 86.34C22.3258 86.92 23.2958 87.21 24.4758 87.21C25.1958 87.21 25.8858 87.05 26.5458 86.73C27.2258 86.41 27.7358 86 28.0758 85.5L30.9258 87.18C30.2258 88.22 29.3158 89.02 28.1958 89.58C27.0958 90.12 25.8258 90.39 24.3858 90.39C22.7858 90.39 21.3658 90.05 20.1258 89.37C18.8858 88.69 17.9258 87.75 17.2458 86.55C16.5858 85.35 16.2558 84 16.2558 82.5C16.2558 81.02 16.5858 79.68 17.2458 78.48C17.9258 77.28 18.8658 76.34 20.0658 75.66C21.2658 74.96 22.6258 74.61 24.1458 74.61ZM28.1958 80.94C28.0358 79.98 27.5858 79.23 26.8458 78.69C26.1258 78.13 25.2158 77.85 24.1158 77.85C23.3558 77.85 22.6558 77.99 22.0158 78.27C21.3958 78.55 20.8958 78.93 20.5158 79.41C20.1358 79.89 19.9358 80.4 19.9158 80.94H28.1958ZM42.9394 74.7L42.6694 78.21C42.5494 78.17 42.3394 78.15 42.0394 78.15C40.7994 78.15 39.7694 78.51 38.9494 79.23C38.1494 79.95 37.7494 80.93 37.7494 82.17V90H34.0294V75H37.7494V77.52C38.0894 76.72 38.6694 76.05 39.4894 75.51C40.3094 74.97 41.2994 74.7 42.4594 74.7H42.9394ZM47.5216 72.51C46.8216 72.51 46.2716 72.32 45.8716 71.94C45.4716 71.56 45.2716 71.04 45.2716 70.38C45.2716 69.7 45.4716 69.17 45.8716 68.79C46.2716 68.41 46.8216 68.22 47.5216 68.22C48.2216 68.22 48.7716 68.41 49.1716 68.79C49.5716 69.17 49.7716 69.7 49.7716 70.38C49.7716 71.02 49.5616 71.54 49.1416 71.94C48.7416 72.32 48.2016 72.51 47.5216 72.51ZM45.6316 90V75H49.3516V90H45.6316ZM61.4423 72.15C60.9423 72.09 60.4923 72.06 60.0923 72.06C59.3923 72.06 58.8823 72.19 58.5623 72.45C58.2423 72.71 58.0823 73.19 58.0823 73.89V75H61.4123V78.33H58.0823V90H54.3623V78.33H51.8723V75H54.3623V73.65C54.3623 71.75 54.7523 70.44 55.5323 69.72C56.3123 68.98 57.4923 68.61 59.0723 68.61C59.6923 68.61 60.4823 68.66 61.4423 68.76V72.15ZM65.4623 72.51C64.7623 72.51 64.2123 72.32 63.8123 71.94C63.4123 71.56 63.2123 71.04 63.2123 70.38C63.2123 69.7 63.4123 69.17 63.8123 68.79C64.2123 68.41 64.7623 68.22 65.4623 68.22C66.1623 68.22 66.7123 68.41 67.1123 68.79C67.5123 69.17 67.7123 69.7 67.7123 70.38C67.7123 71.02 67.5023 71.54 67.0823 71.94C66.6823 72.32 66.1423 72.51 65.4623 72.51ZM63.5723 90V75H67.2923V90H63.5723ZM78.052 74.61C79.492 74.61 80.782 74.97 81.922 75.69C83.082 76.39 83.982 77.34 84.622 78.54C85.262 79.74 85.582 81.07 85.582 82.53C85.582 83.01 85.542 83.45 85.462 83.85H73.882C74.182 84.91 74.712 85.74 75.472 86.34C76.232 86.92 77.202 87.21 78.382 87.21C79.102 87.21 79.792 87.05 80.452 86.73C81.132 86.41 81.642 86 81.982 85.5L84.832 87.18C84.132 88.22 83.222 89.02 82.102 89.58C81.002 90.12 79.732 90.39 78.292 90.39C76.692 90.39 75.272 90.05 74.032 89.37C72.792 88.69 71.832 87.75 71.152 86.55C70.492 85.35 70.162 84 70.162 82.5C70.162 81.02 70.492 79.68 71.152 78.48C71.832 77.28 72.772 76.34 73.972 75.66C75.172 74.96 76.532 74.61 78.052 74.61ZM82.102 80.94C81.942 79.98 81.492 79.23 80.752 78.69C80.032 78.13 79.122 77.85 78.022 77.85C77.262 77.85 76.562 77.99 75.922 78.27C75.302 78.55 74.802 78.93 74.422 79.41C74.042 79.89 73.842 80.4 73.822 80.94H82.102ZM99.6656 69H103.386V90H99.6656V88.56C98.9856 89.16 98.2256 89.62 97.3856 89.94C96.5456 90.26 95.6756 90.42 94.7756 90.42C93.2556 90.42 91.9256 90.08 90.7856 89.4C89.6456 88.72 88.7656 87.78 88.1456 86.58C87.5456 85.38 87.2456 84.03 87.2456 82.53C87.2456 81.03 87.5456 79.68 88.1456 78.48C88.7656 77.28 89.6456 76.34 90.7856 75.66C91.9256 74.96 93.2556 74.61 94.7756 74.61C95.6756 74.61 96.5356 74.78 97.3556 75.12C98.1956 75.44 98.9656 75.89 99.6656 76.47V69ZM95.2556 86.85C96.0756 86.85 96.8156 86.67 97.4756 86.31C98.1556 85.93 98.6856 85.41 99.0656 84.75C99.4656 84.09 99.6656 83.34 99.6656 82.5C99.6656 81.24 99.2356 80.21 98.3756 79.41C97.5356 78.61 96.4956 78.21 95.2556 78.21C93.9956 78.21 92.9556 78.62 92.1356 79.44C91.3356 80.24 90.9356 81.27 90.9356 82.53C90.9356 83.79 91.3356 84.83 92.1356 85.65C92.9556 86.45 93.9956 86.85 95.2556 86.85ZM126.678 75H130.398V90H126.678V88.53C125.978 89.13 125.208 89.6 124.368 89.94C123.548 90.26 122.678 90.42 121.758 90.42C120.238 90.42 118.908 90.08 117.768 89.4C116.628 88.72 115.748 87.78 115.128 86.58C114.528 85.38 114.228 84.03 114.228 82.53C114.228 81.03 114.528 79.68 115.128 78.48C115.748 77.28 116.628 76.34 117.768 75.66C118.908 74.96 120.238 74.61 121.758 74.61C122.678 74.61 123.548 74.78 124.368 75.12C125.208 75.44 125.978 75.9 126.678 76.5V75ZM122.238 86.85C123.058 86.85 123.798 86.67 124.458 86.31C125.138 85.93 125.668 85.41 126.048 84.75C126.448 84.09 126.648 83.34 126.648 82.5C126.648 81.24 126.218 80.21 125.358 79.41C124.518 78.61 123.478 78.21 122.238 78.21C120.978 78.21 119.938 78.62 119.118 79.44C118.318 80.24 117.918 81.27 117.918 82.53C117.918 83.79 118.318 84.83 119.118 85.65C119.938 86.45 120.978 86.85 122.238 86.85ZM143.135 74.7L142.865 78.21C142.745 78.17 142.535 78.15 142.235 78.15C140.995 78.15 139.965 78.51 139.145 79.23C138.345 79.95 137.945 80.93 137.945 82.17V90H134.225V75H137.945V77.52C138.285 76.72 138.865 76.05 139.685 75.51C140.505 74.97 141.495 74.7 142.655 74.7H143.135ZM151.602 84.87C151.602 85.55 151.762 86.02 152.082 86.28C152.402 86.54 152.912 86.67 153.612 86.67C154.032 86.67 154.492 86.64 154.992 86.58V90C154.052 90.1 153.272 90.15 152.652 90.15C151.052 90.15 149.852 89.79 149.052 89.07C148.272 88.33 147.882 87.01 147.882 85.11V78.33H145.062V75H147.882V71.31L151.602 70.05V75H154.932V78.33H151.602V84.87ZM159.904 72.51C159.204 72.51 158.654 72.32 158.254 71.94C157.854 71.56 157.654 71.04 157.654 70.38C157.654 69.7 157.854 69.17 158.254 68.79C158.654 68.41 159.204 68.22 159.904 68.22C160.604 68.22 161.154 68.41 161.554 68.79C161.954 69.17 162.154 69.7 162.154 70.38C162.154 71.02 161.944 71.54 161.524 71.94C161.124 72.32 160.584 72.51 159.904 72.51ZM158.014 90V75H161.734V90H158.014ZM168.285 79.2C168.285 79.62 168.515 79.94 168.975 80.16C169.455 80.36 170.205 80.57 171.225 80.79C172.385 81.03 173.355 81.3 174.135 81.6C174.915 81.9 175.585 82.38 176.145 83.04C176.725 83.68 177.015 84.55 177.015 85.65C177.015 86.63 176.715 87.48 176.115 88.2C175.535 88.92 174.755 89.47 173.775 89.85C172.795 90.21 171.725 90.39 170.565 90.39C168.985 90.39 167.625 90.09 166.485 89.49C165.365 88.89 164.535 88.03 163.995 86.91L167.055 85.32C167.595 86.7 168.765 87.39 170.565 87.39C171.345 87.39 172.015 87.24 172.575 86.94C173.135 86.64 173.415 86.21 173.415 85.65C173.415 85.17 173.155 84.82 172.635 84.6C172.135 84.36 171.315 84.1 170.175 83.82C168.995 83.54 168.035 83.26 167.295 82.98C166.555 82.7 165.915 82.27 165.375 81.69C164.835 81.09 164.565 80.3 164.565 79.32C164.565 78.36 164.835 77.53 165.375 76.83C165.915 76.11 166.645 75.56 167.565 75.18C168.485 74.8 169.495 74.61 170.595 74.61C171.895 74.61 173.055 74.88 174.075 75.42C175.115 75.96 175.915 76.73 176.475 77.73L173.445 79.26C172.925 78.14 171.975 77.58 170.595 77.58C169.895 77.58 169.335 77.73 168.915 78.03C168.495 78.31 168.285 78.7 168.285 79.2ZM184.503 84.87C184.503 85.55 184.663 86.02 184.983 86.28C185.303 86.54 185.813 86.67 186.513 86.67C186.933 86.67 187.393 86.64 187.893 86.58V90C186.953 90.1 186.173 90.15 185.553 90.15C183.953 90.15 182.753 89.79 181.953 89.07C181.173 88.33 180.783 87.01 180.783 85.11V78.33H177.963V75H180.783V71.31L184.503 70.05V75H187.833V78.33H184.503V84.87ZM193.627 79.2C193.627 79.62 193.857 79.94 194.317 80.16C194.797 80.36 195.547 80.57 196.567 80.79C197.727 81.03 198.697 81.3 199.477 81.6C200.257 81.9 200.927 82.38 201.487 83.04C202.067 83.68 202.357 84.55 202.357 85.65C202.357 86.63 202.057 87.48 201.457 88.2C200.877 88.92 200.097 89.47 199.117 89.85C198.137 90.21 197.067 90.39 195.907 90.39C194.327 90.39 192.967 90.09 191.827 89.49C190.707 88.89 189.877 88.03 189.337 86.91L192.397 85.32C192.937 86.7 194.107 87.39 195.907 87.39C196.687 87.39 197.357 87.24 197.917 86.94C198.477 86.64 198.757 86.21 198.757 85.65C198.757 85.17 198.497 84.82 197.977 84.6C197.477 84.36 196.657 84.1 195.517 83.82C194.337 83.54 193.377 83.26 192.637 82.98C191.897 82.7 191.257 82.27 190.717 81.69C190.177 81.09 189.907 80.3 189.907 79.32C189.907 78.36 190.177 77.53 190.717 76.83C191.257 76.11 191.987 75.56 192.907 75.18C193.827 74.8 194.837 74.61 195.937 74.61C197.237 74.61 198.397 74.88 199.417 75.42C200.457 75.96 201.257 76.73 201.817 77.73L198.787 79.26C198.267 78.14 197.317 77.58 195.937 77.58C195.237 77.58 194.677 77.73 194.257 78.03C193.837 78.31 193.627 78.7 193.627 79.2Z" fill="#E6E8EB" fill-opacity="0.8"/>
<path d="M18.92 21.4C21.2667 22.7333 22.44 24.88 22.44 27.84C22.44 30.5333 21.5067 32.6533 19.64 34.2C17.8 35.7467 15.2667 36.52 12.04 36.52C8.78667 36.52 6.22667 35.7467 4.36 34.2C2.52 32.6533 1.6 30.5333 1.6 27.84C1.6 24.88 2.78667 22.7333 5.16 21.4C3.21333 20.2 2.24 18.3067 2.24 15.72C2.24 13.16 3.10667 11.1467 4.84 9.68C6.6 8.21333 9 7.48 12.04 7.48C15.0533 7.48 17.4267 8.21333 19.16 9.68C20.92 11.1467 21.8 13.16 21.8 15.72C21.8 18.3067 20.84 20.2 18.92 21.4ZM12.04 12.16C10.5733 12.16 9.41333 12.48 8.56 13.12C7.73333 13.76 7.32 14.6267 7.32 15.72C7.32 16.8133 7.73333 17.68 8.56 18.32C9.41333 18.9333 10.5733 19.24 12.04 19.24C13.5067 19.24 14.6533 18.9333 15.48 18.32C16.3067 17.68 16.72 16.8133 16.72 15.72C16.72 14.6267 16.3067 13.76 15.48 13.12C14.6533 12.48 13.5067 12.16 12.04 12.16ZM12.04 31.72C13.6933 31.72 15.0133 31.3467 16 30.6C17.0133 29.8533 17.52 28.8267 17.52 27.52C17.52 26.24 17.0267 25.2533 16.04 24.56C15.0533 23.8667 13.72 23.52 12.04 23.52C10.36 23.52 9.01333 23.8667 8 24.56C7.01333 25.2533 6.52 26.24 6.52 27.52C6.52 28.8267 7.02667 29.8533 8.04 30.6C9.05333 31.3467 10.3867 31.72 12.04 31.72ZM46.2634 36H40.0634L34.4634 28.52L31.5434 31.72V36H26.5834V8H31.5434V24.44L39.0634 16H45.9834L37.8234 24.88L46.2634 36ZM65.6797 24.04H58.4397V32.2H55.0797V24.04H47.8397V20.96H55.0797V13.12H58.4397V20.96H65.6797V24.04Z" fill="#E6E8EB"/>
</svg>
