<svg width="455" height="71" viewBox="0 0 455 71" fill="none" xmlns="http://www.w3.org/2000/svg">
<rect x="0.5" y="0.5" width="454" height="70" rx="19.5" stroke="white"/>
<g filter="url(#filter0_dd_187_21518)">
<path d="M76.9304 19.9751H97.852L98.6928 20.074L99.6325 20.3213L100.424 20.6675L100.968 21.0138L101.66 21.5578L102.007 21.904L102.501 22.547L102.946 23.3384L103.342 24.4265L103.49 25.4157L103.54 36.3958L103.639 36.6925L104.133 37.4344L104.529 38.2258L104.875 39.1161L105.073 39.858L105.221 40.6988L105.271 41.1934V42.0837L105.172 43.0234L104.925 44.062L104.579 45.0018L104.183 45.8426L103.688 46.634L103.49 46.9307L103.293 47.8705L102.996 48.6618L102.65 49.3048L102.204 49.8983L101.759 50.3929L101.215 50.8875L100.325 51.4316L99.4841 51.7778L98.5939 51.9756L98.1982 52.0251H76.5842L75.6445 51.8767L74.9026 51.6294L74.1112 51.2337L73.5177 50.7886L72.9242 50.2445L72.4296 49.6015L71.9845 48.8102L71.6877 48.0683L71.4899 47.2769L71.3909 46.4856V25.3662L71.5393 24.5254L71.7866 23.734L72.1823 22.8932L72.6769 22.2008L73.221 21.6073L73.7156 21.1621L74.408 20.717L75.2488 20.3213L76.1391 20.074L76.9304 19.9751ZM76.8315 37.7312L76.5348 37.8796L76.3369 38.2258L76.3864 38.6709L76.6337 38.9677L76.7326 39.0171L86.8719 39.0666L87.317 39.0171L87.6138 38.8193L87.7622 38.572V38.1763L87.5149 37.8301L87.2676 37.7312H76.8315ZM76.7821 40.9461L76.4853 41.1439L76.3369 41.3912V41.7374L76.4853 42.0342L76.6832 42.1826L76.8315 42.232H84.6462L84.9429 42.0837L85.1408 41.8364L85.1902 41.5396L85.0913 41.2428L84.844 40.9955L84.6956 40.9461H76.7821ZM76.9799 44.161L76.6337 44.2599L76.3864 44.5566L76.3369 44.6556V45.0512L76.5348 45.348L76.7326 45.4964L76.9304 45.5458H83.6075L83.9537 45.348L84.1021 45.1007V44.6061L83.9043 44.3093L83.7064 44.2104L83.4097 44.161H76.9799Z" fill="#FAFAFA"/>
<path d="M76.9305 24.7231H88.9987L89.3943 24.921L89.6416 25.3167V32.3894V32.4883V34.7635L89.4933 35.1097L89.147 35.4065L88.8997 35.4559H77.1778L76.7326 35.3076L76.4359 34.9613L76.3864 34.813V25.2672L76.5842 24.9704L76.8315 24.7726L76.9305 24.7231Z" fill="#D5EAEA"/>
<path d="M96.3682 33.2798H97.3079L98.4455 33.4282L99.5336 33.7249L100.275 34.0217L101.215 34.5163L102.007 35.0603L102.551 35.5549L102.946 35.9012L103.391 36.3958L103.787 36.8904L104.183 37.5333L104.579 38.3247L104.925 39.2644L105.172 40.3525L105.271 41.1934V42.0836L105.172 43.0234L104.925 44.062L104.579 45.0018L104.183 45.8426L103.688 46.6339L103.49 46.9307L103.243 47.178L102.798 47.6726L102.303 48.1672L101.463 48.8102L100.622 49.3048L99.9293 49.6015L99.1874 49.8488L98.3466 50.0467L97.6541 50.1456H96.2692L95.2801 49.9972L94.4392 49.7994L93.4995 49.4532L92.4608 48.9091L91.62 48.3156L90.977 47.7221L90.5814 47.3264L90.0868 46.6834L89.4932 45.6942L89.147 44.9523L88.7514 43.7653L88.5535 42.5782V40.7977L88.7019 39.8085L88.9987 38.8193L89.2954 38.0774L89.6911 37.3355L90.0868 36.742L90.5319 36.1979L90.977 35.7033L91.3233 35.3571L91.7684 35.0109V35.1593L91.7189 35.3571L91.3727 35.7033L90.977 36.0495L90.5319 36.5936L90.0868 37.1871L89.5922 38.0774L89.246 38.9182L88.9987 39.8579L88.8997 40.5009L88.8503 41.5396L88.9492 42.7761L89.1965 43.7653L89.5922 44.7545L89.79 44.9029L89.7405 44.5566L89.5427 43.8642V43.4191L89.6416 42.9739L90.2846 42.6277L90.4824 42.3804L90.7792 42.1826L90.9276 41.9847H91.0265L91.1254 41.5396L91.4222 40.9461L91.8673 40.5504L92.0157 40.402L92.7081 40.3031L93.4995 40.1547L93.8952 40.0558L94.3898 39.8085L94.6865 39.6106H94.7855L94.8844 39.2644L95.1317 38.7204L95.4284 37.7806L95.5274 37.3355L95.8241 37.1871L96.1209 36.9398L96.2692 36.9893L95.9725 37.1871L95.7747 37.5333L95.7252 40.4515L95.5274 40.5998L92.4608 40.6493L92.1641 40.8471L92.0157 41.0944V42.2815L92.1641 42.5782L92.5598 42.7761L95.6263 42.8255L95.7252 42.9739L95.7747 45.8426L95.923 46.1888L96.1703 46.3866L96.3187 46.4361H97.4563L97.753 46.2877L97.9014 46.0404L97.9509 45.8426L98.0003 42.9739L98.1487 42.8255L101.166 42.7761L101.611 42.5782L101.809 42.1826V41.3912L101.66 40.9461L101.364 40.6988L101.166 40.6493L98.1487 40.5998L98.0003 40.402L97.9509 37.5333L97.753 37.1871L97.5057 37.0387L97.3079 36.9893L96.3187 36.9398L96.4176 36.8409H97.1595L97.6047 36.9398L97.753 37.0387H97.9014L98.0993 37.1871L98.3466 37.3355L98.4949 37.5333V37.6323H98.5939L99.039 38.2752L99.4841 38.5225L99.7809 38.6214L100.473 38.572L101.067 38.4236L101.364 38.3742L101.759 38.1763L101.809 38.0279H102.007V37.929L102.254 37.8301L102.501 37.7806V37.6817L102.798 37.5828L102.847 37.4344L103.095 37.4839L103.342 37.6323H103.54L103.441 37.3355L103.095 36.742V36.6431H102.996L102.6 36.099L102.007 35.5055L101.512 35.1098L101.017 34.7636L100.226 34.3184L99.3358 33.9722L98.4949 33.7249L97.6047 33.5765L96.6649 33.5271L95.5274 33.626L94.4887 33.8733L93.6973 34.1206H93.549V34.2195L92.6092 34.6647L92.5103 34.7141L92.3619 34.7636V34.8625L92.0652 35.0603L91.8673 35.0109V34.912L92.7081 34.3679L93.8457 33.8238L94.5876 33.5765L95.8241 33.3292L96.3682 33.2798Z" fill="#1F92CB"/>
<path d="M96.6649 33.4775L97.6047 33.527L98.6928 33.7248L100.028 34.17L100.869 34.6151L101.512 35.0603L102.204 35.6538L102.748 36.1978L102.996 36.544V36.643H103.095L103.49 37.3354L103.589 37.6322L103.342 37.6816L103.045 37.4838H102.847L102.65 37.6816H102.501V37.7805L102.254 37.8795L102.007 37.9289V38.0278L101.858 38.1268L101.611 38.3246L101.364 38.4235L101.017 38.473L100.424 38.6214L99.7809 38.6708L99.2863 38.473L98.9401 38.2257L98.5939 37.7311V37.6322H98.4949L98.2476 37.2859L97.9509 37.1376L97.852 37.0386H97.7036L97.4563 36.9397L97.1595 36.8903H96.4176L97.3079 36.9397L97.7036 37.0881L97.9509 37.3849L98.0003 37.5332L98.0498 40.4019L98.1487 40.5503L101.166 40.5998L101.512 40.7481L101.759 41.0449L101.858 41.3911V42.1825L101.611 42.6276L101.166 42.8255L98.1487 42.8749L98.0498 42.9738L98.0003 45.8425L97.852 46.1887L97.6541 46.3866L97.4563 46.4855H96.3187L96.022 46.3371L95.8241 46.1393L95.7252 45.8425L95.6757 42.9738L95.6263 42.8749L92.5598 42.8255L92.1641 42.6276L92.0157 42.4298L91.9662 42.2814V41.0944L92.1641 40.7976L92.4608 40.5998L95.5274 40.5503L95.6757 40.4514L95.7252 37.5332L95.9725 37.1376L96.1209 36.9892L95.8241 37.2365L95.7252 37.3354H95.5768L95.4779 37.7805L95.1317 38.8687L94.9338 39.2643L94.7855 39.6106L94.3403 39.9073L93.7963 40.1546L92.8565 40.303L92.3619 40.4019L91.9168 40.4514L91.8179 40.6492L91.4716 40.946L91.1749 41.5395L91.0265 41.9846L90.7792 42.2319L90.433 42.4792L90.2351 42.7265L89.6911 42.9738L89.5922 43.419V43.8641L89.8395 44.7544L89.79 44.9522L89.5427 44.7544L89.147 43.7652L88.8997 42.776L88.8008 41.5395L88.8503 40.5008L88.9987 39.66L89.246 38.7697L89.6416 37.8795L90.1362 37.0386L90.6803 36.3462L91.2738 35.7032L91.6695 35.357L91.8179 34.9613L92.0652 35.0108L92.263 34.8624H92.3619V34.7635L92.4608 34.6646L92.6092 34.6151L93.45 34.2194H93.549V34.1205L94.8349 33.7248L95.8736 33.527L96.6649 33.4775Z" fill="#31B7D9"/>
<path d="M75.0015 24.0801L75.051 24.2285L75.0015 24.3768V46.5349L75.1499 46.9305L75.3477 47.1284L75.8423 47.2767L76.7326 47.3262H85.7838L88.8503 47.2767L88.8997 46.98L88.7019 46.4359L88.5535 45.9413L88.4546 45.7435L88.2568 44.8038L88.1084 44.1113L88.0589 43.5673V42.677L88.1578 41.3416L88.3557 40.748L88.5041 40.1545H88.5535L88.5041 41.1932H88.5535L88.603 42.5781L88.8008 43.7651L89.246 45.1005L89.7406 46.0403L90.2351 46.8316L90.8287 47.524L91.3727 48.0681L92.0157 48.5627L92.906 49.1068L93.8457 49.5519L94.5876 49.7992L95.4779 49.997L96.2693 50.096H97.6541L98.8412 49.8981L99.6325 49.6508L100.523 49.3046L101.314 48.8595L102.106 48.2659L102.699 47.7219L103.095 47.3262L103.391 46.9305H103.441L103.391 47.4746L103.144 48.3154L102.748 49.1562L102.254 49.8487L101.71 50.4422L101.215 50.8873L100.325 51.4314L99.4841 51.7776L98.5939 51.9754L98.1982 52.0249H76.5842L75.6445 51.8765L74.9026 51.6292L74.1112 51.2335L73.5177 50.7884L72.9242 50.2443L72.4296 49.6014L71.9845 48.81L71.6877 48.0681L71.4899 47.2767L71.3909 46.4854V25.366L71.5393 24.5252L71.6382 24.179L71.6877 24.3768L71.5393 25.1682L71.4899 26.1574V40.3524L71.5393 46.2876L71.7866 47.524L72.0834 48.2659L72.5285 49.0573L73.0726 49.7003L73.3693 50.0465L74.0123 50.5411L74.7048 50.9368L75.5456 51.283L76.7821 51.4808H83.9537L84.1021 51.4314H86.0311L86.1794 51.3819L86.5257 51.4314L87.2676 51.3325L87.6138 51.1841L87.8116 51.1346L88.2073 50.9862L88.3062 50.8873L88.4051 50.6895L88.5535 50.5411H88.6524V50.096L88.8008 49.9476L88.8503 49.7497V49.2551L88.7019 48.8595L88.4051 48.6616L87.7622 48.4638L87.0203 48.4143L86.5751 48.3649L83.657 48.3154H77.7218L76.1391 48.2165L75.694 48.0681L75.1994 47.7713V47.6724H75.1004L74.8531 47.2273L74.7542 46.9305L74.7048 46.2876L74.7542 45.2489V43.9629L74.8037 41.5889L74.8531 24.5747L75.0015 24.0801Z" fill="#D2D4D4"/>
<path d="M84.943 28.1853L85.2892 28.2348L85.6849 28.5315L89.6416 32.4883V34.7635L89.4933 35.1097L89.147 35.4064L88.8997 35.4559H77.1778L76.7326 35.3075L76.4359 34.9613L76.3864 34.8129V33.6259L79.1067 30.9056L79.4529 30.7078H79.9475L80.3926 31.0045L80.9862 31.5486L81.0356 31.598H81.2829L81.4313 31.5486L81.5302 31.3507L84.4484 28.4326L84.943 28.1853Z" fill="#8DBAB1"/>
<path d="M96.3187 36.9397H97.3079L97.7036 37.0881L97.9509 37.3848L98.0003 37.5332L98.0498 40.4019L98.1487 40.5503L101.166 40.5997L101.512 40.7481L101.759 41.0449L101.858 41.3911V42.1824L101.611 42.6276L101.166 42.8254L98.1487 42.8749L98.0498 42.9738L98.0003 45.8425L97.852 46.1887L97.6541 46.3865L97.4563 46.4854H96.3187L96.022 46.3371L95.8241 46.1392L95.7252 45.8425L95.6757 42.9738L95.6263 42.8749L92.5598 42.8254L92.1641 42.6276L92.0157 42.4297L91.9662 42.2814V41.0943L92.1641 40.7976L92.4608 40.5997L95.5274 40.5503L95.6757 40.4513L95.7252 37.5332L95.9725 37.1375L96.1703 36.9892L96.3187 36.9397Z" fill="#FAFAFA"/>
<path d="M88.5041 40.1545H88.5535L88.5041 41.1932H88.5535L88.603 42.5781L88.8008 43.7651L89.246 45.1005L89.7406 46.0403L90.2352 46.8316L90.8287 47.5241L91.3727 48.0681L92.0157 48.5627L92.906 49.1068L93.8457 49.5519L94.5876 49.7992L95.4779 49.9971L96.2693 50.096H97.6541L98.8412 49.8981L99.6325 49.6508L100.523 49.3046L101.314 48.8595L102.106 48.266L102.699 47.7219L103.095 47.3262L103.391 46.9305H103.441L103.391 47.4746L103.144 48.3154L102.748 49.1562L102.254 49.8487L101.71 50.4422L101.215 50.8873L100.325 51.4314L99.4841 51.7776L98.5939 51.9754L98.1982 52.0249H76.5842L75.6445 51.8765L74.9026 51.6292L74.1112 51.2335L73.7156 50.9368L73.8145 50.8873L74.3585 51.2335L75.1004 51.5798L75.7929 51.7776L76.2875 51.8765L77.1778 51.926H91.9662L96.022 51.8765L97.5057 51.8271L98.6928 51.6787L99.5336 51.4314L100.325 51.0852L100.869 50.739L101.166 50.4917L101.413 50.1949L101.512 49.9971L101.067 50.1454L100.82 50.2938L100.177 50.5411L99.2863 50.8379L98.4455 50.9862L97.6047 51.0357H96.1209L94.9833 50.8379L94.4887 50.6895L93.9941 50.4917L93.3511 50.1949L93.2027 50.1454V50.0465L93.0049 49.9476L92.3619 49.5519V49.453L92.1146 49.3541L91.62 48.9584V48.8595L91.4222 48.7606L91.076 48.4638V48.3649L90.8287 48.266L90.2352 48.0187L89.6416 47.9197L89.0481 47.8703L85.0419 47.8208H78.7605L76.0896 47.7714L75.6445 47.623L75.1499 47.1778L74.9521 46.8316L74.9026 46.4854L75.0015 46.5349L75.1499 46.9305L75.3477 47.1284L75.8423 47.2768L76.7326 47.3262H85.7838L88.8503 47.2768L88.8997 46.98L88.7019 46.4359L88.5535 45.9413L88.4546 45.7435L88.2568 44.8038L88.1084 44.1113L88.0589 43.5673V42.677L88.1578 41.3416L88.3557 40.7481L88.5041 40.1545Z" fill="#A5B6B4"/>
<path d="M104.381 38.7202L104.43 38.8191L104.628 38.8686L104.677 39.3137L104.727 39.561H104.826L104.974 39.9073L105.123 40.4018L105.172 40.7481V42.2319L105.073 43.0232L105.024 43.7157L104.628 44.9027L104.183 45.8424L103.688 46.6338L103.49 46.9306L103.243 47.1778L102.798 47.6724L102.303 48.167L101.463 48.81L100.622 49.3046L99.9293 49.6014L99.1874 49.8487L98.3466 50.0465L97.6541 50.1454H96.2693L95.2801 49.9971L94.4392 49.7992L93.4995 49.453L92.4608 48.9089L91.62 48.3154L91.4716 48.1176V48.0187L91.076 47.623L91.0265 47.3757L90.9771 47.2768L91.2244 47.3757L91.7189 47.8208L92.6587 48.4638L93.4995 48.9089L94.3403 49.2552L95.5768 49.5519L95.9725 49.6014H97.5552L98.7422 49.4035L99.5831 49.1562L100.177 48.9089L101.067 48.4143L101.66 47.9692L102.204 47.4746L102.452 47.2768L102.897 46.7327L103.391 46.0897L103.688 45.5951L104.282 44.3586L104.579 43.4189L104.776 42.3802V40.6986L104.579 39.561L104.381 38.8686V38.7202Z" fill="#0E5E98"/>
<path d="M79.7991 26.3059H80.3432L80.8378 26.4543L81.2335 26.751L81.5797 27.1467L81.7281 27.4929L81.7775 28.1359L81.6291 28.6305L81.3324 29.0757L80.9862 29.3724L80.5905 29.5703L80.3926 29.6197H79.7497L79.2056 29.4219L78.711 28.9767L78.4637 28.4821L78.4142 28.2843V27.5919L78.6121 27.0973L79.0078 26.6521L79.4529 26.4048L79.7991 26.3059Z" fill="#8FBBB1"/>
<path d="M88.5041 40.1545H88.5535L88.5041 41.1932H88.5535L88.603 42.5781L88.8008 43.7651L89.246 45.1005L89.7406 46.0403L90.2352 46.8316L90.3341 47.0295H90.2352L90.2846 47.2273L90.2352 47.4251L89.9384 47.4746L90.2846 47.5241V47.5735H75.9907L75.3972 47.3262L75.2983 47.1778H75.4961L75.8423 47.2768L76.7326 47.3262H85.7838L88.8503 47.2768L88.8997 46.98L88.7019 46.4359L88.5535 45.9413L88.4546 45.7435L88.2568 44.8038L88.1084 44.1113L88.0589 43.5673V42.677L88.1578 41.3416L88.3557 40.7481L88.5041 40.1545Z" fill="#D4D6D5"/>
<path d="M74.9026 46.4856L75.0015 46.5351L75.1499 46.9307L75.3972 47.277L75.8423 47.4748V47.5737L76.0896 47.6232L85.1903 47.6726L85.7343 47.7221L89.1965 47.7716L90.3835 47.8705L90.7792 47.9694L91.1749 48.1672L91.719 48.6618L91.9663 48.8102L92.1641 49.008L92.8565 49.4532L93.2522 49.7005L93.5984 49.8489L94.1919 50.1456L94.4887 50.2445L94.7855 50.3929L95.7747 50.5908L96.6155 50.6897H97.6541L98.6433 50.5908L99.6325 50.3929L100.127 50.1951L100.572 49.9972L101.116 49.7005H101.215V49.6016L101.759 49.3048L101.957 49.2059V49.107L102.106 49.0575L102.254 48.9091L102.452 48.9586L102.402 49.2553L101.908 49.9972L101.66 50.2445L101.512 50.294V50.3929L101.166 50.6897L101.067 50.7886L100.523 51.1348L99.682 51.5305H99.5831L99.5336 51.6294L99.0885 51.7283L98.8906 51.7778L98.3466 51.8273V51.9262L97.6541 51.9756H91.9663V51.9262L96.022 51.8767L97.5058 51.8273L98.6928 51.6789L99.5336 51.4316L100.325 51.0854L100.869 50.7391L101.166 50.4918L101.413 50.1951L101.512 49.9972L101.067 50.1456L100.82 50.294L100.177 50.5413L99.2863 50.8381L98.4455 50.9864L97.6047 51.0359H96.1209L94.9833 50.8381L94.4887 50.6897L93.9941 50.4918L93.3511 50.1951L93.2027 50.1456V50.0467L93.0049 49.9478L92.3619 49.5521V49.4532L92.1146 49.3543L91.62 48.9586V48.8597L91.4222 48.7607L91.076 48.464V48.3651L90.8287 48.2662L90.2352 48.0189L89.6416 47.9199L89.0481 47.8705L85.0419 47.821H78.7605L76.0896 47.7716L75.6445 47.6232L75.1499 47.178L74.9521 46.8318L74.9026 46.4856Z" fill="#B6B9BB"/>
<path d="M102.254 35.3569L102.452 35.4559L102.996 35.9505L103.342 36.3461L103.787 36.8902L104.183 37.5332L104.579 38.3245L104.925 39.2643L105.172 40.3524L105.271 41.1932V42.0835L105.172 43.0232L105.073 43.5178H105.024V43.0232L105.123 42.2319V40.7481L105.024 40.1545L104.826 39.6599V39.561H104.727L104.628 39.3137L104.579 38.8686H104.43L104.677 39.7589L104.826 40.6986V42.3802L104.579 43.5673L104.282 44.4575L103.589 45.8919L103.095 46.5349L102.699 47.0295L102.452 47.3262H102.353L102.303 47.4746L101.759 47.9197L101.364 48.266L100.622 48.7111L99.8304 49.1068L98.9401 49.4035L98.1982 49.5519L97.5552 49.6508H95.8736L94.5382 49.3541L93.9446 49.1562L92.8071 48.6122L92.2136 48.2165L91.62 47.7714L91.076 47.3262L91.1254 47.5241L91.2244 47.7219L91.5706 48.0681L91.3727 48.1176L90.5814 47.3262L90.0868 46.6832L89.4933 45.694L89.147 44.9521L89.0976 44.6554L89.1965 44.7543L89.2954 44.6554L89.4438 44.8038L90.0373 45.8424L90.3835 46.337L90.6308 46.6338V46.7327H90.7298L91.076 47.1284L91.5706 47.5735L92.0157 47.9197L92.7081 48.3649L93.8457 48.9089L94.6865 49.2057L95.9725 49.453L96.7144 49.5025L98.1982 49.3541L99.2863 49.0573L100.028 48.7606L100.325 48.6122L101.364 47.9692L101.957 47.4746L102.204 47.2768H102.303L102.402 47.0295L102.847 46.5349L103.194 46.0897L103.391 45.694H103.49L103.589 45.3973L103.886 44.8532L104.282 43.9135L104.628 42.5286L104.677 41.8362V40.6986L104.579 39.9567L104.381 39.1159L104.084 38.2751L103.688 37.4837L103.391 36.9891L102.996 36.4451L102.699 36.0494L102.501 35.7032L102.254 35.3569Z" fill="#1378B3"/>
<path d="M90.3341 23.4373L90.5814 23.4867L91.1254 23.9319L91.4222 24.4265L91.5211 24.8716L91.5706 26.1575V28.5316L91.62 32.3895L91.6695 33.4281L91.7684 34.17L91.9663 34.6152L92.0157 34.7636L91.6695 35.1592L91.1749 35.5549L91.0265 35.5055L91.076 24.3275L90.8287 23.8329L90.433 23.5362L90.3341 23.4373Z" fill="#D4D6D5"/>
<path d="M100.078 20.5686L100.424 20.6675L100.968 21.0137L101.66 21.5578L102.007 21.904L102.501 22.547L102.946 23.3384L103.342 24.4265L103.49 25.4157L103.54 36.5936L103.293 36.3463L102.65 35.6539L102.254 35.3076L101.957 35.0603L101.71 34.813L101.265 34.5163L101.463 34.4668L101.759 34.5657V34.6647L102.204 34.813L102.748 35.1098H102.996L103.095 34.3184L103.144 30.4606V25.564L103.045 24.7232L102.699 23.5362L102.303 22.6954L101.908 22.1019L101.561 21.7062L101.314 21.4589V21.36L101.116 21.261L100.424 20.8159L100.127 20.6675L100.078 20.5686Z" fill="#D2D5D4"/>
<path d="M95.923 33.5764H97.1595L98.0993 33.6753L98.6928 33.8237L99.7314 34.1699L100.374 34.5162L100.473 34.6645L100.078 34.6151L99.5831 34.4172L98.7917 34.1699L97.7531 34.0216L96.7144 33.9721L95.6263 34.071L94.5876 34.3183L93.8457 34.6151L93.0544 35.0108L92.7081 35.2581L92.3619 35.4559L92.0652 35.7032H91.9662V35.8021L91.4222 36.2472L90.8287 36.8902L90.1362 37.9783L89.7406 38.7697L89.4438 39.7094L89.246 40.7481L89.0976 40.9954L88.9987 40.847L89.0481 40.0557L89.1965 39.2148L89.4438 38.5224L89.8889 37.5827L90.4825 36.6924L90.9276 36.1978L91.8673 35.2581L92.3619 34.9118L93.0049 34.5162L93.8457 34.1205L94.8844 33.7743L95.923 33.5764Z" fill="#5CD0DF"/>
<path d="M101.858 41.2427H101.908L101.957 41.49H102.056L102.106 41.7867V42.2319L101.957 42.6276L101.809 42.8749L101.413 43.1222L101.067 43.2211L100.028 43.2705H98.9896L98.495 43.32L98.3466 44.0124V45.15L98.2971 46.0403L98.1487 46.3865L97.852 46.7327L97.6047 46.8316L97.3079 46.8811H96.5166L96.022 46.6338L95.7747 46.337L95.7252 46.0897L95.6757 45.9908L95.6263 43.4684L95.5768 43.1716L95.5274 43.0727H93.4006L92.6587 43.0232L92.263 42.7759L92.0157 42.5781L91.9168 42.3803L91.9663 42.1824L92.1641 42.5781L92.5598 42.7759L95.6263 42.8254L95.7252 42.9738L95.7747 45.8424L95.923 46.1887L96.1703 46.3865L96.3187 46.436H97.4563L97.7531 46.2876L97.9014 46.0403L97.9509 45.8424L98.0004 42.9738L98.1487 42.8254L101.166 42.7759L101.611 42.5781L101.809 42.1824L101.858 41.2427Z" fill="#1479B4"/>
<path d="M101.858 41.2427H101.908L101.957 41.49V42.0835L101.858 42.5781L101.611 42.8254L101.265 43.0232L101.067 43.0727L98.3466 43.1222L98.2477 43.32L98.1487 43.4684L98.0993 46.1392L97.9014 46.436L97.6541 46.6338L97.1595 46.7327H96.7639L96.3187 46.6338V46.5349L96.022 46.436L95.9725 46.337L96.3187 46.436H97.4563L97.7531 46.2876L97.9014 46.0403L97.9509 45.8424L98.0004 42.9738L98.1487 42.8254L101.166 42.7759L101.611 42.5781L101.809 42.1824L101.858 41.2427Z" fill="#0E5F98"/>
<path d="M90.1857 46.9307L90.4824 47.1285L90.8287 47.5242L90.977 47.8209L90.0373 47.7715L89.8889 47.722L76.0896 47.6726L75.7434 47.5736V47.5242H89.7405L89.9384 47.4253L90.2351 47.3758V47.079L90.1857 46.9307Z" fill="#9AB7B2"/>
<path d="M102.254 35.3569L102.452 35.4559L102.996 35.9505L103.342 36.3461L103.787 36.8902L104.183 37.5332L104.579 38.3245L104.925 39.2643L105.172 40.3524L105.271 41.1932V42.0835L105.172 43.0232L105.073 43.5178H105.024V43.0232L105.123 42.2319V40.7481L105.024 40.1545L104.826 39.6599V39.561H104.727L104.628 39.3137L104.579 38.8686H104.381L104.282 38.8191L103.886 37.8299L103.441 37.0386L102.699 36.0494L102.501 35.7032L102.254 35.3569Z" fill="#1C82B9"/>
<path d="M101.71 41.8857L101.809 41.9352L101.858 42.1825L101.611 42.6276L101.166 42.8255L98.1487 42.8749L98.0498 42.9739L98.0003 45.8425L97.852 46.1887L97.6541 46.3866L97.4563 46.4855L97.3079 46.436L96.2693 46.3866L96.0714 46.2877L96.1703 46.2382L96.4176 46.2877H97.3574L97.7036 46.0898L97.8025 45.892L97.852 42.9244L98.0498 42.6771L98.1487 42.6276L101.166 42.5782L101.463 42.4298L101.611 42.3803L101.71 41.8857Z" fill="#D8DCDB"/>
<path d="M74.9026 46.4856L75.0015 46.5351L75.1499 46.9307L75.3972 47.277L75.8423 47.4748V47.5737L76.0896 47.6232L85.1903 47.6726L85.7343 47.7221H86.2289L86.3278 47.821H78.7605L76.0896 47.7716L75.6445 47.6232L75.1499 47.178L74.9521 46.8318L74.9026 46.4856Z" fill="#B2B7B8"/>
<path d="M102.699 22.9919L102.847 23.1403L103.243 24.1295L103.391 24.6736L103.49 25.4155L103.54 36.5934L103.391 36.445L103.293 36.2472L103.342 35.2085V25.2176L103.194 24.3274L102.798 23.2887L102.699 22.9919Z" fill="#A7B5B4"/>
<path d="M91.9168 42.1824L92.0157 42.2813L92.1641 42.5781L92.5598 42.7759L95.6263 42.8254L95.7252 42.9737L95.7747 46.0897L95.6757 45.9908L95.6263 43.4683L95.5768 43.1716L95.5274 43.0727H93.4006L92.6587 43.0232L92.263 42.7759L92.0157 42.5781L91.9168 42.3802V42.1824Z" fill="#0D5D96"/>
<path d="M97.9509 37.3848L98.0498 37.4837L98.1487 38.0277H98.1982L98.2477 39.2148L98.2971 39.7588V40.4513L101.067 40.5007L101.215 40.5997H98.1487L98.0004 40.4018L97.9509 37.3848Z" fill="#126FA9"/>
<path d="M95.2306 33.428H95.6263L95.5274 33.6258L94.4887 33.8731L93.6973 34.1204H93.549V34.2193L92.6092 34.6645L92.5103 34.7139L92.3619 34.7634V34.8623L92.0652 35.0602L91.8673 35.0107V34.9118L92.7081 34.3677L93.8457 33.8237L94.5876 33.5764L95.2306 33.428Z" fill="#2291C6"/>
<path d="M91.2244 24.5747H91.2738L91.3233 34.4172L91.4222 35.0602L91.4717 35.3075L91.2738 35.4559H91.1749L91.2244 24.5747Z" fill="#A7B3B3"/>
<path d="M92.3125 42.5781L95.4779 42.6276L95.6757 42.7265L95.6263 42.8254H92.5598L92.3125 42.5781Z" fill="#DCDEDE"/>
<path d="M103.441 25.7124H103.49L103.54 36.5936L103.391 36.4452L103.342 36.0495L103.391 35.5549L103.441 25.7124Z" fill="#8FBBB1"/>
<path d="M98.0498 44.9521H98.0993V46.1392L97.9014 46.4359L97.6541 46.6338L97.1595 46.7327H96.7639L96.3187 46.6338V46.5349L96.022 46.4359L95.9725 46.337L96.3187 46.4359H97.4563L97.7531 46.2876L97.9014 46.0403L97.9509 45.8424L98.0004 45.0016L98.0498 44.9521Z" fill="#0E5D97"/>
<path d="M92.1146 42.677L92.6092 42.8748L92.6587 42.9738L93.4006 43.0232L95.5274 43.0727L95.6263 43.0232L95.5768 43.4189L95.2306 43.2705L94.1425 43.2211L92.7081 43.1716L92.3619 43.0232L92.1146 42.8254V42.677Z" fill="#1479B5"/>
<path d="M90.1857 46.9307L90.4825 47.1285L90.8287 47.5242L90.9771 47.8209L90.0373 47.7715L89.7406 47.6726V47.6231L90.0868 47.5736L89.7406 47.5242L89.9384 47.4253L90.2352 47.3758V47.079L90.1857 46.9307Z" fill="#76B7B9"/>
<path d="M93.6973 34.071H93.8457V34.17L92.8071 34.6646L92.0652 35.1592L91.4716 35.7032L90.6308 36.544V36.3957L91.2738 35.7032L91.6695 35.357L91.8179 34.9613L92.0652 35.0108L92.263 34.8624H92.3619V34.7635L92.4608 34.6646L92.6092 34.6151L93.45 34.2194H93.549V34.1205L93.6973 34.071Z" fill="#32B8DA"/>
<path d="M98.0003 42.875L98.0498 42.9739L98.0003 45.8426L97.852 46.1888L97.6541 46.3866L97.4563 46.4856L97.3079 46.4361L96.2693 46.3866L96.0714 46.2877L96.1703 46.2383L96.4176 46.2877H97.3574L97.7036 46.0899L97.9014 45.7931L97.9509 42.9245L98.0003 42.875Z" fill="#E6E9E8"/>
<path d="M74.9026 46.4856L75.0015 46.5351L75.1499 46.9307L75.3972 47.277L75.8423 47.4748V47.5737L76.0896 47.6232L77.6724 47.6726L78.2659 47.7221V47.7716H76.0896L75.6445 47.6232L75.1499 47.178L74.9521 46.8318L74.9026 46.4856Z" fill="#B2B7B9"/>
<path d="M91.2244 31.7463H91.2738L91.3233 34.4172L91.4222 35.0601L91.4717 35.3074L91.2738 35.4558H91.1749V34.4666L91.2244 31.7463Z" fill="#93B9B3"/>
<path d="M77.6723 47.6726H81.1345V47.7221L80.0464 47.7715L79.997 47.821H78.7605L77.6723 47.7221V47.6726Z" fill="#B0B6B7"/>
<path d="M90.5319 36.5439V36.6923L90.0373 37.4342L89.5922 38.275L89.2954 39.0169L89.1965 39.4126H89.0976L89.1965 38.918L89.5922 37.9783L90.1362 37.0385L90.5319 36.5439Z" fill="#32B8DA"/>
<path d="M99.4347 51.5798H99.8304L99.7809 51.6788L98.8906 51.9261L98.0498 52.025L97.6541 51.9755V51.9261H98.3466V51.8271L99.039 51.7282L99.1874 51.6293L99.4347 51.5798Z" fill="#A2B5B3"/>
<path d="M95.2306 33.428H95.6263L95.5274 33.6258L94.6371 33.8237L94.3403 33.7742L94.093 33.8237L94.2414 33.6753L95.2306 33.428Z" fill="#238EC2"/>
<path d="M104.628 38.7202H104.727L105.024 39.6105V40.0556L104.925 39.9073L104.826 39.561H104.727L104.628 39.3137V38.7202Z" fill="#1E82B9"/>
<path d="M103.391 46.9307H103.441L103.391 47.4747L103.293 47.6726L103.194 47.6231V47.5242L102.946 47.6231L102.402 48.1672L102.303 48.1177L103.095 47.3263L103.391 46.9307Z" fill="#A9C1BE"/>
<path d="M90.1857 46.9307L90.4825 47.1285L90.6803 47.4253L90.433 47.5736L89.7406 47.5242L89.9384 47.4253L90.2352 47.3758V47.079L90.1857 46.9307Z" fill="#B1BABB"/>
<path d="M98.1487 38.0278H98.1982L98.2476 39.2149L98.2971 39.7589V40.4514L98.1487 40.5008V38.0278Z" fill="#1479B5"/>
<path d="M88.5535 39.9072H88.7019L88.603 40.7975L88.5535 41.1932L88.504 42.1824H88.4546V40.9953L88.5535 39.9072Z" fill="#F4F5F4"/>
<path d="M73.7156 21.1621L73.8145 21.2116L72.6769 22.3491V22.2008L73.221 21.6072L73.7156 21.1621Z" fill="#D4D8D7"/>
<path d="M94.3403 33.7249L94.5382 33.7743L94.4887 33.8732L93.6973 34.1205L93.549 34.0711L93.9941 33.7743L94.3403 33.7249Z" fill="#2397CC"/>
<path d="M91.5211 35.5054L91.62 35.5548L90.6308 36.544V36.3956L91.2738 35.7032L91.5211 35.5054Z" fill="#3EBEDB"/>
<path d="M96.1209 36.9397L96.2693 36.9892L95.9725 37.187L95.7747 37.4343H95.7252L95.6263 37.7311L95.5274 37.6321V37.3354L95.8241 37.187L96.1209 36.9397Z" fill="#2494C8"/>
<path d="M103.441 35.5549H103.49L103.54 36.5936L103.391 36.4452L103.342 36.0495L103.391 35.6044L103.441 35.5549Z" fill="#95B9B1"/>
<path d="M92.3125 34.6152L92.5103 34.6647L92.4608 34.7636H92.3619V34.8625L92.0652 35.0604L91.8673 35.0109V34.912L92.3125 34.6152Z" fill="#2193C8"/>
<path d="M99.4347 51.5798H99.8304L99.7809 51.6788L99.2863 51.8271H99.0885L99.1874 51.6293L99.4347 51.5798Z" fill="#9FB6B2"/>
<path d="M91.8179 34.9614L92.1146 35.0109L92.0157 35.2087L91.6695 35.5055L91.5706 35.456L91.719 35.3076L91.7684 35.1098L91.8179 34.9614Z" fill="#30B4D8"/>
<path d="M91.2738 34.4172H91.3233L91.4222 35.0602L91.4716 35.3075L91.2738 35.4064V34.4172Z" fill="#B3B9BA"/>
<path d="M95.4779 33.3787L96.1703 33.4281L96.1209 33.527L95.8736 33.5765H95.5274L95.4284 33.4776L95.4779 33.3787Z" fill="#279DCE"/>
<path d="M72.9242 50.1455L73.122 50.2444L73.3199 50.4917L73.7156 50.8379H73.5672L72.9242 50.2444V50.1455Z" fill="#A7B7B6"/>
<path d="M95.2306 33.428H95.6263L95.5274 33.6258L95.0328 33.6753L95.0822 33.5269L95.2306 33.428Z" fill="#1E90C7"/>
<path d="M100.325 33.9722L100.572 34.0216L100.869 34.17L100.77 34.3184L100.325 34.0711V33.9722Z" fill="#E7E8E8"/>
<path d="M101.512 48.7112L101.611 48.7606L101.413 48.8596L101.314 49.0574L101.017 49.1069L101.215 48.909L101.512 48.7112Z" fill="#B1C3C0"/>
<path d="M74.9026 46.4856L75.0015 46.5351L75.1499 46.9307L75.2983 47.178H75.1499L74.9521 46.8318L74.9026 46.4856Z" fill="#BCC1C1"/>
</g>
<path d="M138.791 45.12C137.804 46.48 136.564 47.56 135.071 48.36C133.578 49.16 131.964 49.56 130.231 49.56C128.338 49.56 126.578 49.0933 124.951 48.16C123.351 47.2 122.071 45.92 121.111 44.32C120.178 42.6933 119.711 40.9333 119.711 39.04C119.711 37.1467 120.178 35.4 121.111 33.8C122.071 32.1733 123.351 30.8933 124.951 29.96C126.578 29 128.338 28.52 130.231 28.52C131.938 28.52 133.538 28.92 135.031 29.72C136.524 30.4933 137.764 31.5467 138.751 32.88L134.671 35.64C133.418 34.1733 131.938 33.44 130.231 33.44C129.218 33.44 128.284 33.6933 127.431 34.2C126.578 34.7067 125.898 35.3867 125.391 36.24C124.884 37.0933 124.631 38.0267 124.631 39.04C124.631 40.0533 124.884 40.9867 125.391 41.84C125.898 42.6933 126.578 43.3733 127.431 43.88C128.284 44.36 129.218 44.6 130.231 44.6C131.938 44.6 133.418 43.8667 134.671 42.4L138.791 45.12ZM154 28.6L153.64 33.28C153.48 33.2267 153.2 33.2 152.8 33.2C151.147 33.2 149.773 33.68 148.68 34.64C147.613 35.6 147.08 36.9067 147.08 38.56V49H142.12V29H147.08V32.36C147.533 31.2933 148.307 30.4 149.4 29.68C150.493 28.96 151.813 28.6 153.36 28.6H154ZM165.583 28.48C167.503 28.48 169.223 28.96 170.743 29.92C172.289 30.8533 173.489 32.12 174.343 33.72C175.196 35.32 175.623 37.0933 175.623 39.04C175.623 39.68 175.569 40.2667 175.463 40.8H160.023C160.423 42.2133 161.129 43.32 162.143 44.12C163.156 44.8933 164.449 45.28 166.023 45.28C166.983 45.28 167.903 45.0667 168.783 44.64C169.689 44.2133 170.369 43.6667 170.823 43L174.623 45.24C173.689 46.6267 172.476 47.6933 170.983 48.44C169.516 49.16 167.823 49.52 165.903 49.52C163.769 49.52 161.876 49.0667 160.223 48.16C158.569 47.2533 157.289 46 156.383 44.4C155.503 42.8 155.063 41 155.063 39C155.063 37.0267 155.503 35.24 156.383 33.64C157.289 32.04 158.543 30.7867 160.143 29.88C161.743 28.9467 163.556 28.48 165.583 28.48ZM170.983 36.92C170.769 35.64 170.169 34.64 169.183 33.92C168.223 33.1733 167.009 32.8 165.543 32.8C164.529 32.8 163.596 32.9867 162.743 33.36C161.916 33.7333 161.249 34.24 160.743 34.88C160.236 35.52 159.969 36.2 159.943 36.92H170.983ZM194.441 29H199.401V49H194.441V47.04C193.507 47.84 192.481 48.4667 191.361 48.92C190.267 49.3467 189.107 49.56 187.881 49.56C185.854 49.56 184.081 49.1067 182.561 48.2C181.041 47.2933 179.867 46.04 179.041 44.44C178.241 42.84 177.841 41.04 177.841 39.04C177.841 37.04 178.241 35.24 179.041 33.64C179.867 32.04 181.041 30.7867 182.561 29.88C184.081 28.9467 185.854 28.48 187.881 28.48C189.107 28.48 190.267 28.7067 191.361 29.16C192.481 29.5867 193.507 30.2 194.441 31V29ZM188.521 44.8C189.614 44.8 190.601 44.56 191.481 44.08C192.387 43.5733 193.094 42.88 193.601 42C194.134 41.12 194.401 40.12 194.401 39C194.401 37.32 193.827 35.9467 192.681 34.88C191.561 33.8133 190.174 33.28 188.521 33.28C186.841 33.28 185.454 33.8267 184.361 34.92C183.294 35.9867 182.761 37.36 182.761 39.04C182.761 40.72 183.294 42.1067 184.361 43.2C185.454 44.2667 186.841 44.8 188.521 44.8ZM210.876 42.16C210.876 43.0667 211.089 43.6933 211.516 44.04C211.943 44.3867 212.623 44.56 213.556 44.56C214.116 44.56 214.729 44.52 215.396 44.44V49C214.143 49.1333 213.103 49.2 212.276 49.2C210.143 49.2 208.543 48.72 207.476 47.76C206.436 46.7733 205.916 45.0133 205.916 42.48V33.44H202.156V29H205.916V24.08L210.876 22.4V29H215.316V33.44H210.876V42.16ZM227.965 28.48C229.885 28.48 231.605 28.96 233.125 29.92C234.672 30.8533 235.872 32.12 236.725 33.72C237.579 35.32 238.005 37.0933 238.005 39.04C238.005 39.68 237.952 40.2667 237.845 40.8H222.405C222.805 42.2133 223.512 43.32 224.525 44.12C225.539 44.8933 226.832 45.28 228.405 45.28C229.365 45.28 230.285 45.0667 231.165 44.64C232.072 44.2133 232.752 43.6667 233.205 43L237.005 45.24C236.072 46.6267 234.859 47.6933 233.365 48.44C231.899 49.16 230.205 49.52 228.285 49.52C226.152 49.52 224.259 49.0667 222.605 48.16C220.952 47.2533 219.672 46 218.765 44.4C217.885 42.8 217.445 41 217.445 39C217.445 37.0267 217.885 35.24 218.765 33.64C219.672 32.04 220.925 30.7867 222.525 29.88C224.125 28.9467 225.939 28.48 227.965 28.48ZM233.365 36.92C233.152 35.64 232.552 34.64 231.565 33.92C230.605 33.1733 229.392 32.8 227.925 32.8C226.912 32.8 225.979 32.9867 225.125 33.36C224.299 33.7333 223.632 34.24 223.125 34.88C222.619 35.52 222.352 36.2 222.325 36.92H233.365ZM267.878 29H272.838V49H267.878V47.04C266.945 47.84 265.918 48.4667 264.798 48.92C263.705 49.3467 262.545 49.56 261.318 49.56C259.291 49.56 257.518 49.1067 255.998 48.2C254.478 47.2933 253.305 46.04 252.478 44.44C251.678 42.84 251.278 41.04 251.278 39.04C251.278 37.04 251.678 35.24 252.478 33.64C253.305 32.04 254.478 30.7867 255.998 29.88C257.518 28.9467 259.291 28.48 261.318 28.48C262.545 28.48 263.705 28.7067 264.798 29.16C265.918 29.5867 266.945 30.2 267.878 31V29ZM261.958 44.8C263.051 44.8 264.038 44.56 264.918 44.08C265.825 43.5733 266.531 42.88 267.038 42C267.571 41.12 267.838 40.12 267.838 39C267.838 37.32 267.265 35.9467 266.118 34.88C264.998 33.8133 263.611 33.28 261.958 33.28C260.278 33.28 258.891 33.8267 257.798 34.92C256.731 35.9867 256.198 37.36 256.198 39.04C256.198 40.72 256.731 42.1067 257.798 43.2C258.891 44.2667 260.278 44.8 261.958 44.8ZM293.174 43.36C293.174 43.7867 293.28 44.0933 293.494 44.28C293.707 44.4667 294.04 44.56 294.494 44.56C294.84 44.56 295.254 44.52 295.734 44.44V49C294.747 49.16 293.827 49.24 292.974 49.24C291.427 49.24 290.24 48.84 289.414 48.04C288.614 47.2133 288.214 45.76 288.214 43.68V21H293.174V43.36ZM302.063 25.68C301.129 25.68 300.396 25.4267 299.863 24.92C299.329 24.4133 299.063 23.72 299.063 22.84C299.063 21.9333 299.329 21.2267 299.863 20.72C300.396 20.2133 301.129 19.96 302.063 19.96C302.996 19.96 303.729 20.2133 304.263 20.72C304.796 21.2267 305.063 21.9333 305.063 22.84C305.063 23.6933 304.783 24.3867 304.223 24.92C303.689 25.4267 302.969 25.68 302.063 25.68ZM299.543 49V29H304.503V49H299.543ZM313.237 34.6C313.237 35.16 313.544 35.5867 314.157 35.88C314.797 36.1467 315.797 36.4267 317.157 36.72C318.704 37.04 319.997 37.4 321.037 37.8C322.077 38.2 322.97 38.84 323.717 39.72C324.49 40.5733 324.877 41.7333 324.877 43.2C324.877 44.5067 324.477 45.64 323.677 46.6C322.904 47.56 321.864 48.2933 320.557 48.8C319.25 49.28 317.824 49.52 316.277 49.52C314.17 49.52 312.357 49.12 310.837 48.32C309.344 47.52 308.237 46.3733 307.517 44.88L311.597 42.76C312.317 44.6 313.877 45.52 316.277 45.52C317.317 45.52 318.21 45.32 318.957 44.92C319.704 44.52 320.077 43.9467 320.077 43.2C320.077 42.56 319.73 42.0933 319.037 41.8C318.37 41.48 317.277 41.1333 315.757 40.76C314.184 40.3867 312.904 40.0133 311.917 39.64C310.93 39.2667 310.077 38.6933 309.357 37.92C308.637 37.12 308.277 36.0667 308.277 34.76C308.277 33.48 308.637 32.3733 309.357 31.44C310.077 30.48 311.05 29.7467 312.277 29.24C313.504 28.7333 314.85 28.48 316.317 28.48C318.05 28.48 319.597 28.84 320.957 29.56C322.344 30.28 323.41 31.3067 324.157 32.64L320.117 34.68C319.424 33.1867 318.157 32.44 316.317 32.44C315.384 32.44 314.637 32.64 314.077 33.04C313.517 33.4133 313.237 33.9333 313.237 34.6ZM334.86 42.16C334.86 43.0667 335.074 43.6933 335.5 44.04C335.927 44.3867 336.607 44.56 337.54 44.56C338.1 44.56 338.714 44.52 339.38 44.44V49C338.127 49.1333 337.087 49.2 336.26 49.2C334.127 49.2 332.527 48.72 331.46 47.76C330.42 46.7733 329.9 45.0133 329.9 42.48V33.44H326.14V29H329.9V24.08L334.86 22.4V29H339.3V33.44H334.86V42.16ZM345.93 25.68C344.997 25.68 344.263 25.4267 343.73 24.92C343.197 24.4133 342.93 23.72 342.93 22.84C342.93 21.9333 343.197 21.2267 343.73 20.72C344.263 20.2133 344.997 19.96 345.93 19.96C346.863 19.96 347.597 20.2133 348.13 20.72C348.663 21.2267 348.93 21.9333 348.93 22.84C348.93 23.6933 348.65 24.3867 348.09 24.92C347.557 25.4267 346.837 25.68 345.93 25.68ZM343.41 49V29H348.37V49H343.41ZM363.491 28.48C364.664 28.48 365.851 28.7333 367.051 29.24C368.278 29.72 369.318 30.6 370.171 31.88C371.051 33.16 371.491 34.88 371.491 37.04V49H366.531V37.04C366.531 35.5467 366.104 34.48 365.251 33.84C364.424 33.1733 363.451 32.84 362.331 32.84C361.211 32.84 360.251 33.24 359.451 34.04C358.678 34.8133 358.291 36.0667 358.291 37.8V49H353.331V29H358.291V30.68C359.011 30.0133 359.811 29.48 360.691 29.08C361.571 28.68 362.504 28.48 363.491 28.48ZM391.16 29H396.12V48C396.12 49.8933 395.64 51.56 394.68 53C393.747 54.44 392.44 55.5467 390.76 56.32C389.08 57.12 387.2 57.52 385.12 57.52C382.8 57.52 380.694 57.0667 378.8 56.16C376.907 55.28 375.574 54.12 374.8 52.68L379.04 50.24C379.44 51.0133 380.187 51.6533 381.28 52.16C382.374 52.6933 383.694 52.96 385.24 52.96C386.947 52.96 388.36 52.4933 389.48 51.56C390.6 50.6533 391.16 49.4667 391.16 48V47.08C390.254 47.88 389.24 48.4933 388.12 48.92C387 49.3467 385.84 49.56 384.64 49.56C382.614 49.56 380.84 49.1067 379.32 48.2C377.8 47.2933 376.627 46.04 375.8 44.44C375 42.84 374.6 41.04 374.6 39.04C374.6 37.04 375 35.24 375.8 33.64C376.627 32.04 377.8 30.7867 379.32 29.88C380.84 28.9467 382.614 28.48 384.64 28.48C385.84 28.48 386.987 28.7067 388.08 29.16C389.2 29.5867 390.227 30.1867 391.16 30.96V29ZM385.28 44.8C386.374 44.8 387.36 44.56 388.24 44.08C389.147 43.5733 389.854 42.88 390.36 42C390.894 41.12 391.16 40.12 391.16 39C391.16 37.32 390.587 35.9467 389.44 34.88C388.32 33.8133 386.934 33.28 385.28 33.28C383.6 33.28 382.214 33.8267 381.12 34.92C380.054 35.9867 379.52 37.36 379.52 39.04C379.52 40.72 380.054 42.1067 381.12 43.2C382.214 44.2667 383.6 44.8 385.28 44.8Z" fill="white"/>
<defs>
<filter id="filter0_dd_187_21518" x="67.3909" y="19.9751" width="41.88" height="42.05" filterUnits="userSpaceOnUse" color-interpolation-filters="sRGB">
<feFlood flood-opacity="0" result="BackgroundImageFix"/>
<feColorMatrix in="SourceAlpha" type="matrix" values="0 0 0 0 0 0 0 0 0 0 0 0 0 0 0 0 0 0 127 0" result="hardAlpha"/>
<feOffset dy="4"/>
<feGaussianBlur stdDeviation="2"/>
<feComposite in2="hardAlpha" operator="out"/>
<feColorMatrix type="matrix" values="0 0 0 0 0 0 0 0 0 0 0 0 0 0 0 0 0 0 0.25 0"/>
<feBlend mode="normal" in2="BackgroundImageFix" result="effect1_dropShadow_187_21518"/>
<feColorMatrix in="SourceAlpha" type="matrix" values="0 0 0 0 0 0 0 0 0 0 0 0 0 0 0 0 0 0 127 0" result="hardAlpha"/>
<feOffset dy="8"/>
<feGaussianBlur stdDeviation="1"/>
<feComposite in2="hardAlpha" operator="out"/>
<feColorMatrix type="matrix" values="0 0 0 0 0 0 0 0 0 0 0 0 0 0 0 0 0 0 0.25 0"/>
<feBlend mode="normal" in2="effect1_dropShadow_187_21518" result="effect2_dropShadow_187_21518"/>
<feBlend mode="normal" in="SourceGraphic" in2="effect2_dropShadow_187_21518" result="shape"/>
</filter>
</defs>
</svg>
