<svg width="688" height="651" viewBox="0 0 688 651" fill="none" xmlns="http://www.w3.org/2000/svg">
<path d="M12.4428 553V570.28H21.2928V574H8.51281V553H12.4428ZM25.9845 556.51C25.2845 556.51 24.7345 556.32 24.3345 555.94C23.9345 555.56 23.7345 555.04 23.7345 554.38C23.7345 553.7 23.9345 553.17 24.3345 552.79C24.7345 552.41 25.2845 552.22 25.9845 552.22C26.6845 552.22 27.2345 552.41 27.6345 552.79C28.0345 553.17 28.2345 553.7 28.2345 554.38C28.2345 555.02 28.0245 555.54 27.6045 555.94C27.2045 556.32 26.6645 556.51 25.9845 556.51ZM24.0945 574V559H27.8145V574H24.0945ZM34.3651 563.2C34.3651 563.62 34.5951 563.94 35.0551 564.16C35.5351 564.36 36.2851 564.57 37.3051 564.79C38.4651 565.03 39.4351 565.3 40.2151 565.6C40.9951 565.9 41.6651 566.38 42.2251 567.04C42.8051 567.68 43.0951 568.55 43.0951 569.65C43.0951 570.63 42.7951 571.48 42.1951 572.2C41.6151 572.92 40.8351 573.47 39.8551 573.85C38.8751 574.21 37.8051 574.39 36.6451 574.39C35.0651 574.39 33.7051 574.09 32.5651 573.49C31.4451 572.89 30.6151 572.03 30.0751 570.91L33.1351 569.32C33.6751 570.7 34.8451 571.39 36.6451 571.39C37.4251 571.39 38.0951 571.24 38.6551 570.94C39.2151 570.64 39.4951 570.21 39.4951 569.65C39.4951 569.17 39.2351 568.82 38.7151 568.6C38.2151 568.36 37.3951 568.1 36.2551 567.82C35.0751 567.54 34.1151 567.26 33.3751 566.98C32.6351 566.7 31.9951 566.27 31.4551 565.69C30.9151 565.09 30.6451 564.3 30.6451 563.32C30.6451 562.36 30.9151 561.53 31.4551 560.83C31.9951 560.11 32.7251 559.56 33.6451 559.18C34.5651 558.8 35.5751 558.61 36.6751 558.61C37.9751 558.61 39.1351 558.88 40.1551 559.42C41.1951 559.96 41.9951 560.73 42.5551 561.73L39.5251 563.26C39.0051 562.14 38.0551 561.58 36.6751 561.58C35.9751 561.58 35.4151 561.73 34.9951 562.03C34.5751 562.31 34.3651 562.7 34.3651 563.2ZM50.5827 568.87C50.5827 569.55 50.7427 570.02 51.0627 570.28C51.3827 570.54 51.8927 570.67 52.5927 570.67C53.0127 570.67 53.4727 570.64 53.9727 570.58V574C53.0327 574.1 52.2527 574.15 51.6327 574.15C50.0327 574.15 48.8327 573.79 48.0327 573.07C47.2527 572.33 46.8627 571.01 46.8627 569.11V562.33H44.0427V559H46.8627V555.31L50.5827 554.05V559H53.9127V562.33H50.5827V568.87ZM71.9544 574.42C70.5344 574.42 69.2144 574.07 67.9944 573.37C66.7944 572.65 65.8344 571.69 65.1144 570.49C64.4144 569.27 64.0644 567.95 64.0644 566.53C64.0644 565.11 64.4144 563.8 65.1144 562.6C65.8344 561.38 66.7944 560.42 67.9944 559.72C69.2144 559 70.5344 558.64 71.9544 558.64C73.3744 558.64 74.6844 559 75.8844 559.72C77.1044 560.42 78.0644 561.38 78.7644 562.6C79.4844 563.8 79.8444 565.11 79.8444 566.53C79.8444 567.95 79.4844 569.27 78.7644 570.49C78.0644 571.69 77.1044 572.65 75.8844 573.37C74.6844 574.07 73.3744 574.42 71.9544 574.42ZM71.9244 570.7C72.6844 570.7 73.3844 570.52 74.0244 570.16C74.6644 569.78 75.1744 569.27 75.5544 568.63C75.9344 567.99 76.1244 567.29 76.1244 566.53C76.1244 565.77 75.9344 565.07 75.5544 564.43C75.1744 563.79 74.6644 563.28 74.0244 562.9C73.3844 562.52 72.6844 562.33 71.9244 562.33C71.1644 562.33 70.4644 562.52 69.8244 562.9C69.1844 563.28 68.6744 563.79 68.2944 564.43C67.9344 565.07 67.7544 565.77 67.7544 566.53C67.7544 567.29 67.9344 567.99 68.2944 568.63C68.6744 569.27 69.1844 569.78 69.8244 570.16C70.4644 570.52 71.1644 570.7 71.9244 570.7ZM89.8388 558.61C90.7188 558.61 91.6088 558.8 92.5088 559.18C93.4288 559.54 94.2088 560.2 94.8488 561.16C95.5088 562.12 95.8388 563.41 95.8388 565.03V574H92.1188V565.03C92.1188 563.91 91.7988 563.11 91.1588 562.63C90.5388 562.13 89.8088 561.88 88.9688 561.88C88.1288 561.88 87.4088 562.18 86.8088 562.78C86.2288 563.36 85.9388 564.3 85.9388 565.6V574H82.2188V559H85.9388V560.26C86.4788 559.76 87.0788 559.36 87.7388 559.06C88.3988 558.76 89.0988 558.61 89.8388 558.61ZM114.142 574.42C112.722 574.42 111.402 574.07 110.182 573.37C108.982 572.65 108.022 571.69 107.302 570.49C106.602 569.27 106.252 567.95 106.252 566.53C106.252 565.11 106.602 563.8 107.302 562.6C108.022 561.38 108.982 560.42 110.182 559.72C111.402 559 112.722 558.64 114.142 558.64C115.562 558.64 116.872 559 118.072 559.72C119.292 560.42 120.252 561.38 120.952 562.6C121.672 563.8 122.032 565.11 122.032 566.53C122.032 567.95 121.672 569.27 120.952 570.49C120.252 571.69 119.292 572.65 118.072 573.37C116.872 574.07 115.562 574.42 114.142 574.42ZM114.112 570.7C114.872 570.7 115.572 570.52 116.212 570.16C116.852 569.78 117.362 569.27 117.742 568.63C118.122 567.99 118.312 567.29 118.312 566.53C118.312 565.77 118.122 565.07 117.742 564.43C117.362 563.79 116.852 563.28 116.212 562.9C115.572 562.52 114.872 562.33 114.112 562.33C113.352 562.33 112.652 562.52 112.012 562.9C111.372 563.28 110.862 563.79 110.482 564.43C110.122 565.07 109.942 565.77 109.942 566.53C109.942 567.29 110.122 567.99 110.482 568.63C110.862 569.27 111.372 569.78 112.012 570.16C112.652 570.52 113.352 570.7 114.112 570.7ZM133.856 559H137.576V574H133.856V572.74C133.316 573.24 132.716 573.64 132.056 573.94C131.396 574.24 130.696 574.39 129.956 574.39C129.076 574.39 128.176 574.21 127.256 573.85C126.356 573.47 125.576 572.8 124.916 571.84C124.276 570.88 123.956 569.59 123.956 567.97V559H127.676V567.97C127.676 569.09 127.986 569.9 128.606 570.4C129.246 570.88 129.986 571.12 130.826 571.12C131.666 571.12 132.376 570.83 132.956 570.25C133.556 569.65 133.856 568.7 133.856 567.4V559ZM150.338 558.7L150.068 562.21C149.948 562.17 149.738 562.15 149.438 562.15C148.198 562.15 147.168 562.51 146.348 563.23C145.548 563.95 145.148 564.93 145.148 566.17V574H141.428V559H145.148V561.52C145.488 560.72 146.068 560.05 146.888 559.51C147.708 558.97 148.698 558.7 149.858 558.7H150.338ZM177.839 558.61C178.719 558.61 179.609 558.8 180.509 559.18C181.409 559.54 182.179 560.2 182.819 561.16C183.479 562.12 183.809 563.41 183.809 565.03V574H180.119V565.03C180.119 563.91 179.799 563.11 179.159 562.63C178.539 562.13 177.809 561.88 176.969 561.88C176.249 561.88 175.619 562.1 175.079 562.54C174.539 562.96 174.189 563.64 174.029 564.58V565.03V574H170.339V565.03C170.339 563.91 170.019 563.11 169.379 562.63C168.759 562.13 168.019 561.88 167.159 561.88C166.479 561.88 165.859 562.09 165.299 562.51C164.759 562.93 164.409 563.6 164.249 564.52V574H160.529V559H164.249V560.17C164.749 559.69 165.319 559.31 165.959 559.03C166.619 558.75 167.319 558.61 168.059 558.61C168.979 558.61 169.909 558.81 170.849 559.21C171.789 559.61 172.539 560.28 173.099 561.22C173.619 560.48 174.299 559.86 175.139 559.36C175.979 558.86 176.879 558.61 177.839 558.61ZM198.305 559H202.025V574H198.305V572.53C197.605 573.13 196.835 573.6 195.995 573.94C195.175 574.26 194.305 574.42 193.385 574.42C191.865 574.42 190.535 574.08 189.395 573.4C188.255 572.72 187.375 571.78 186.755 570.58C186.155 569.38 185.855 568.03 185.855 566.53C185.855 565.03 186.155 563.68 186.755 562.48C187.375 561.28 188.255 560.34 189.395 559.66C190.535 558.96 191.865 558.61 193.385 558.61C194.305 558.61 195.175 558.78 195.995 559.12C196.835 559.44 197.605 559.9 198.305 560.5V559ZM193.865 570.85C194.685 570.85 195.425 570.67 196.085 570.31C196.765 569.93 197.295 569.41 197.675 568.75C198.075 568.09 198.275 567.34 198.275 566.5C198.275 565.24 197.845 564.21 196.985 563.41C196.145 562.61 195.105 562.21 193.865 562.21C192.605 562.21 191.565 562.62 190.745 563.44C189.945 564.24 189.545 565.27 189.545 566.53C189.545 567.79 189.945 568.83 190.745 569.65C191.565 570.45 192.605 570.85 193.865 570.85ZM214.762 558.7L214.492 562.21C214.372 562.17 214.162 562.15 213.862 562.15C212.622 562.15 211.592 562.51 210.772 563.23C209.972 563.95 209.572 564.93 209.572 566.17V574H205.852V559H209.572V561.52C209.912 560.72 210.492 560.05 211.312 559.51C212.132 558.97 213.122 558.7 214.282 558.7H214.762ZM232.008 574H227.358L223.158 568.39L220.968 570.79V574H217.248V553H220.968V565.33L226.608 559H231.798L225.678 565.66L232.008 574ZM239.825 558.61C241.265 558.61 242.555 558.97 243.695 559.69C244.855 560.39 245.755 561.34 246.395 562.54C247.035 563.74 247.355 565.07 247.355 566.53C247.355 567.01 247.315 567.45 247.235 567.85H235.655C235.955 568.91 236.485 569.74 237.245 570.34C238.005 570.92 238.975 571.21 240.155 571.21C240.875 571.21 241.565 571.05 242.225 570.73C242.905 570.41 243.415 570 243.755 569.5L246.605 571.18C245.905 572.22 244.995 573.02 243.875 573.58C242.775 574.12 241.505 574.39 240.065 574.39C238.465 574.39 237.045 574.05 235.805 573.37C234.565 572.69 233.605 571.75 232.925 570.55C232.265 569.35 231.935 568 231.935 566.5C231.935 565.02 232.265 563.68 232.925 562.48C233.605 561.28 234.545 560.34 235.745 559.66C236.945 558.96 238.305 558.61 239.825 558.61ZM243.875 564.94C243.715 563.98 243.265 563.23 242.525 562.69C241.805 562.13 240.895 561.85 239.795 561.85C239.035 561.85 238.335 561.99 237.695 562.27C237.075 562.55 236.575 562.93 236.195 563.41C235.815 563.89 235.615 564.4 235.595 564.94H243.875ZM254.753 568.87C254.753 569.55 254.913 570.02 255.233 570.28C255.553 570.54 256.063 570.67 256.763 570.67C257.183 570.67 257.643 570.64 258.143 570.58V574C257.203 574.1 256.423 574.15 255.803 574.15C254.203 574.15 253.003 573.79 252.203 573.07C251.423 572.33 251.033 571.01 251.033 569.11V562.33H248.213V559H251.033V555.31L254.753 554.05V559H258.083V562.33H254.753V568.87ZM269.51 558.61C271.03 558.61 272.36 558.95 273.5 559.63C274.66 560.31 275.54 561.25 276.14 562.45C276.76 563.65 277.07 565 277.07 566.5C277.07 568 276.76 569.35 276.14 570.55C275.54 571.75 274.66 572.7 273.5 573.4C272.36 574.08 271.03 574.42 269.51 574.42C268.61 574.42 267.74 574.26 266.9 573.94C266.08 573.6 265.32 573.13 264.62 572.53V580H260.9V559H264.62V560.47C265.3 559.87 266.06 559.41 266.9 559.09C267.74 558.77 268.61 558.61 269.51 558.61ZM269.06 570.82C270.3 570.82 271.32 570.42 272.12 569.62C272.94 568.8 273.35 567.76 273.35 566.5C273.35 565.24 272.94 564.21 272.12 563.41C271.32 562.59 270.3 562.18 269.06 562.18C268.24 562.18 267.49 562.37 266.81 562.75C266.13 563.11 265.59 563.62 265.19 564.28C264.81 564.94 264.62 565.69 264.62 566.53C264.62 567.79 265.04 568.82 265.88 569.62C266.74 570.42 267.8 570.82 269.06 570.82ZM283.312 569.77C283.312 570.09 283.392 570.32 283.552 570.46C283.712 570.6 283.962 570.67 284.302 570.67C284.562 570.67 284.872 570.64 285.232 570.58V574C284.492 574.12 283.802 574.18 283.162 574.18C282.002 574.18 281.112 573.88 280.492 573.28C279.892 572.66 279.592 571.57 279.592 570.01V553H283.312V569.77ZM299.233 559H302.953V574H299.233V572.53C298.533 573.13 297.763 573.6 296.923 573.94C296.103 574.26 295.233 574.42 294.313 574.42C292.793 574.42 291.463 574.08 290.323 573.4C289.183 572.72 288.303 571.78 287.683 570.58C287.083 569.38 286.783 568.03 286.783 566.53C286.783 565.03 287.083 563.68 287.683 562.48C288.303 561.28 289.183 560.34 290.323 559.66C291.463 558.96 292.793 558.61 294.313 558.61C295.233 558.61 296.103 558.78 296.923 559.12C297.763 559.44 298.533 559.9 299.233 560.5V559ZM294.793 570.85C295.613 570.85 296.353 570.67 297.013 570.31C297.693 569.93 298.223 569.41 298.603 568.75C299.003 568.09 299.203 567.34 299.203 566.5C299.203 565.24 298.773 564.21 297.913 563.41C297.073 562.61 296.033 562.21 294.793 562.21C293.533 562.21 292.493 562.62 291.673 563.44C290.873 564.24 290.473 565.27 290.473 566.53C290.473 567.79 290.873 568.83 291.673 569.65C292.493 570.45 293.533 570.85 294.793 570.85ZM319.517 571.09C318.777 572.11 317.847 572.92 316.727 573.52C315.607 574.12 314.397 574.42 313.097 574.42C311.677 574.42 310.357 574.07 309.137 573.37C307.937 572.65 306.977 571.69 306.257 570.49C305.557 569.27 305.207 567.95 305.207 566.53C305.207 565.11 305.557 563.8 306.257 562.6C306.977 561.38 307.937 560.42 309.137 559.72C310.357 559 311.677 558.64 313.097 558.64C314.377 558.64 315.577 558.94 316.697 559.54C317.817 560.12 318.747 560.91 319.487 561.91L316.427 563.98C315.487 562.88 314.377 562.33 313.097 562.33C312.337 562.33 311.637 562.52 310.997 562.9C310.357 563.28 309.847 563.79 309.467 564.43C309.087 565.07 308.897 565.77 308.897 566.53C308.897 567.29 309.087 567.99 309.467 568.63C309.847 569.27 310.357 569.78 310.997 570.16C311.637 570.52 312.337 570.7 313.097 570.7C314.377 570.7 315.487 570.15 316.427 569.05L319.517 571.09ZM328.595 558.61C330.035 558.61 331.325 558.97 332.465 559.69C333.625 560.39 334.525 561.34 335.165 562.54C335.805 563.74 336.125 565.07 336.125 566.53C336.125 567.01 336.085 567.45 336.005 567.85H324.425C324.725 568.91 325.255 569.74 326.015 570.34C326.775 570.92 327.745 571.21 328.925 571.21C329.645 571.21 330.335 571.05 330.995 570.73C331.675 570.41 332.185 570 332.525 569.5L335.375 571.18C334.675 572.22 333.765 573.02 332.645 573.58C331.545 574.12 330.275 574.39 328.835 574.39C327.235 574.39 325.815 574.05 324.575 573.37C323.335 572.69 322.375 571.75 321.695 570.55C321.035 569.35 320.705 568 320.705 566.5C320.705 565.02 321.035 563.68 321.695 562.48C322.375 561.28 323.315 560.34 324.515 559.66C325.715 558.96 327.075 558.61 328.595 558.61ZM332.645 564.94C332.485 563.98 332.035 563.23 331.295 562.69C330.575 562.13 329.665 561.85 328.565 561.85C327.805 561.85 327.105 561.99 326.465 562.27C325.845 562.55 325.345 562.93 324.965 563.41C324.585 563.89 324.385 564.4 324.365 564.94H332.645ZM358.53 559H362.25V574H358.53V572.53C357.83 573.13 357.06 573.6 356.22 573.94C355.4 574.26 354.53 574.42 353.61 574.42C352.09 574.42 350.76 574.08 349.62 573.4C348.48 572.72 347.6 571.78 346.98 570.58C346.38 569.38 346.08 568.03 346.08 566.53C346.08 565.03 346.38 563.68 346.98 562.48C347.6 561.28 348.48 560.34 349.62 559.66C350.76 558.96 352.09 558.61 353.61 558.61C354.53 558.61 355.4 558.78 356.22 559.12C357.06 559.44 357.83 559.9 358.53 560.5V559ZM354.09 570.85C354.91 570.85 355.65 570.67 356.31 570.31C356.99 569.93 357.52 569.41 357.9 568.75C358.3 568.09 358.5 567.34 358.5 566.5C358.5 565.24 358.07 564.21 357.21 563.41C356.37 562.61 355.33 562.21 354.09 562.21C352.83 562.21 351.79 562.62 350.97 563.44C350.17 564.24 349.77 565.27 349.77 566.53C349.77 567.79 350.17 568.83 350.97 569.65C351.79 570.45 352.83 570.85 354.09 570.85ZM373.696 558.61C374.576 558.61 375.466 558.8 376.366 559.18C377.286 559.54 378.066 560.2 378.706 561.16C379.366 562.12 379.696 563.41 379.696 565.03V574H375.976V565.03C375.976 563.91 375.656 563.11 375.016 562.63C374.396 562.13 373.666 561.88 372.826 561.88C371.986 561.88 371.266 562.18 370.666 562.78C370.086 563.36 369.796 564.3 369.796 565.6V574H366.076V559H369.796V560.26C370.336 559.76 370.936 559.36 371.596 559.06C372.256 558.76 372.956 558.61 373.696 558.61ZM394.388 553H398.108V574H394.388V572.56C393.708 573.16 392.948 573.62 392.108 573.94C391.268 574.26 390.398 574.42 389.498 574.42C387.978 574.42 386.648 574.08 385.508 573.4C384.368 572.72 383.488 571.78 382.868 570.58C382.268 569.38 381.968 568.03 381.968 566.53C381.968 565.03 382.268 563.68 382.868 562.48C383.488 561.28 384.368 560.34 385.508 559.66C386.648 558.96 387.978 558.61 389.498 558.61C390.398 558.61 391.258 558.78 392.078 559.12C392.918 559.44 393.688 559.89 394.388 560.47V553ZM389.978 570.85C390.798 570.85 391.538 570.67 392.198 570.31C392.878 569.93 393.408 569.41 393.788 568.75C394.188 568.09 394.388 567.34 394.388 566.5C394.388 565.24 393.958 564.21 393.098 563.41C392.258 562.61 391.218 562.21 389.978 562.21C388.718 562.21 387.678 562.62 386.858 563.44C386.058 564.24 385.658 565.27 385.658 566.53C385.658 567.79 386.058 568.83 386.858 569.65C387.678 570.45 388.718 570.85 389.978 570.85ZM418.251 558.61C419.771 558.61 421.101 558.95 422.241 559.63C423.401 560.31 424.281 561.25 424.881 562.45C425.501 563.65 425.811 565 425.811 566.5C425.811 568 425.501 569.35 424.881 570.55C424.281 571.75 423.401 572.7 422.241 573.4C421.101 574.08 419.771 574.42 418.251 574.42C417.351 574.42 416.481 574.26 415.641 573.94C414.821 573.6 414.061 573.13 413.361 572.53V580H409.641V559H413.361V560.47C414.041 559.87 414.801 559.41 415.641 559.09C416.481 558.77 417.351 558.61 418.251 558.61ZM417.801 570.82C419.041 570.82 420.061 570.42 420.861 569.62C421.681 568.8 422.091 567.76 422.091 566.5C422.091 565.24 421.681 564.21 420.861 563.41C420.061 562.59 419.041 562.18 417.801 562.18C416.981 562.18 416.231 562.37 415.551 562.75C414.871 563.11 414.331 563.62 413.931 564.28C413.551 564.94 413.361 565.69 413.361 566.53C413.361 567.79 413.781 568.82 414.621 569.62C415.481 570.42 416.541 570.82 417.801 570.82ZM437.242 558.7L436.972 562.21C436.852 562.17 436.642 562.15 436.342 562.15C435.102 562.15 434.072 562.51 433.252 563.23C432.452 563.95 432.052 564.93 432.052 566.17V574H428.332V559H432.052V561.52C432.392 560.72 432.972 560.05 433.792 559.51C434.612 558.97 435.602 558.7 436.762 558.7H437.242ZM445.841 574.42C444.421 574.42 443.101 574.07 441.881 573.37C440.681 572.65 439.721 571.69 439.001 570.49C438.301 569.27 437.951 567.95 437.951 566.53C437.951 565.11 438.301 563.8 439.001 562.6C439.721 561.38 440.681 560.42 441.881 559.72C443.101 559 444.421 558.64 445.841 558.64C447.261 558.64 448.571 559 449.771 559.72C450.991 560.42 451.951 561.38 452.651 562.6C453.371 563.8 453.731 565.11 453.731 566.53C453.731 567.95 453.371 569.27 452.651 570.49C451.951 571.69 450.991 572.65 449.771 573.37C448.571 574.07 447.261 574.42 445.841 574.42ZM445.811 570.7C446.571 570.7 447.271 570.52 447.911 570.16C448.551 569.78 449.061 569.27 449.441 568.63C449.821 567.99 450.011 567.29 450.011 566.53C450.011 565.77 449.821 565.07 449.441 564.43C449.061 563.79 448.551 563.28 447.911 562.9C447.271 562.52 446.571 562.33 445.811 562.33C445.051 562.33 444.351 562.52 443.711 562.9C443.071 563.28 442.561 563.79 442.181 564.43C441.821 565.07 441.641 565.77 441.641 566.53C441.641 567.29 441.821 567.99 442.181 568.63C442.561 569.27 443.071 569.78 443.711 570.16C444.351 570.52 445.051 570.7 445.811 570.7ZM461.903 569.5L465.833 559H469.763L464.183 574H459.623L454.043 559H457.973L461.903 569.5ZM473.787 556.51C473.087 556.51 472.537 556.32 472.137 555.94C471.737 555.56 471.537 555.04 471.537 554.38C471.537 553.7 471.737 553.17 472.137 552.79C472.537 552.41 473.087 552.22 473.787 552.22C474.487 552.22 475.037 552.41 475.437 552.79C475.837 553.17 476.037 553.7 476.037 554.38C476.037 555.02 475.827 555.54 475.407 555.94C475.007 556.32 474.467 556.51 473.787 556.51ZM471.897 574V559H475.617V574H471.897ZM490.482 553H494.202V574H490.482V572.56C489.802 573.16 489.042 573.62 488.202 573.94C487.362 574.26 486.492 574.42 485.592 574.42C484.072 574.42 482.742 574.08 481.602 573.4C480.462 572.72 479.582 571.78 478.962 570.58C478.362 569.38 478.062 568.03 478.062 566.53C478.062 565.03 478.362 563.68 478.962 562.48C479.582 561.28 480.462 560.34 481.602 559.66C482.742 558.96 484.072 558.61 485.592 558.61C486.492 558.61 487.352 558.78 488.172 559.12C489.012 559.44 489.782 559.89 490.482 560.47V553ZM486.072 570.85C486.892 570.85 487.632 570.67 488.292 570.31C488.972 569.93 489.502 569.41 489.882 568.75C490.282 568.09 490.482 567.34 490.482 566.5C490.482 565.24 490.052 564.21 489.192 563.41C488.352 562.61 487.312 562.21 486.072 562.21C484.812 562.21 483.772 562.62 482.952 563.44C482.152 564.24 481.752 565.27 481.752 566.53C481.752 567.79 482.152 568.83 482.952 569.65C483.772 570.45 484.812 570.85 486.072 570.85ZM504.493 558.61C505.933 558.61 507.223 558.97 508.363 559.69C509.523 560.39 510.423 561.34 511.063 562.54C511.703 563.74 512.023 565.07 512.023 566.53C512.023 567.01 511.983 567.45 511.903 567.85H500.323C500.623 568.91 501.153 569.74 501.913 570.34C502.673 570.92 503.643 571.21 504.823 571.21C505.543 571.21 506.233 571.05 506.893 570.73C507.573 570.41 508.083 570 508.423 569.5L511.273 571.18C510.573 572.22 509.663 573.02 508.543 573.58C507.443 574.12 506.173 574.39 504.733 574.39C503.133 574.39 501.713 574.05 500.473 573.37C499.233 572.69 498.273 571.75 497.593 570.55C496.933 569.35 496.603 568 496.603 566.5C496.603 565.02 496.933 563.68 497.593 562.48C498.273 561.28 499.213 560.34 500.413 559.66C501.613 558.96 502.973 558.61 504.493 558.61ZM508.543 564.94C508.383 563.98 507.933 563.23 507.193 562.69C506.473 562.13 505.563 561.85 504.463 561.85C503.703 561.85 503.003 561.99 502.363 562.27C501.743 562.55 501.243 562.93 500.863 563.41C500.483 563.89 500.283 564.4 500.263 564.94H508.543ZM531.608 558.61C533.128 558.61 534.458 558.96 535.598 559.66C536.738 560.34 537.608 561.28 538.208 562.48C538.828 563.68 539.138 565.03 539.138 566.53C539.138 568.03 538.828 569.38 538.208 570.58C537.608 571.78 536.738 572.72 535.598 573.4C534.458 574.08 533.128 574.42 531.608 574.42C530.628 574.42 529.688 574.23 528.788 573.85C527.888 573.47 527.088 572.94 526.388 572.26V574H522.668V553H526.388V560.77C527.088 560.09 527.888 559.56 528.788 559.18C529.708 558.8 530.648 558.61 531.608 558.61ZM531.128 570.85C532.388 570.85 533.418 570.45 534.218 569.65C535.038 568.83 535.448 567.79 535.448 566.53C535.448 565.27 535.038 564.24 534.218 563.44C533.418 562.62 532.388 562.21 531.128 562.21C529.888 562.21 528.838 562.61 527.978 563.41C527.138 564.21 526.718 565.24 526.718 566.5C526.718 567.34 526.908 568.09 527.288 568.75C527.688 569.41 528.218 569.93 528.878 570.31C529.558 570.67 530.308 570.85 531.128 570.85ZM551.22 559H554.94V574H551.22V572.74C550.68 573.24 550.08 573.64 549.42 573.94C548.76 574.24 548.06 574.39 547.32 574.39C546.44 574.39 545.54 574.21 544.62 573.85C543.72 573.47 542.94 572.8 542.28 571.84C541.64 570.88 541.32 569.59 541.32 567.97V559H545.04V567.97C545.04 569.09 545.35 569.9 545.97 570.4C546.61 570.88 547.35 571.12 548.19 571.12C549.03 571.12 549.74 570.83 550.32 570.25C550.92 569.65 551.22 568.7 551.22 567.4V559ZM568.781 559H572.681L567.431 574.03C566.651 576.09 565.571 577.63 564.191 578.65C562.831 579.69 561.221 580.14 559.361 580V576.4C559.481 576.42 559.661 576.43 559.901 576.43C561.501 576.43 562.751 575.46 563.651 573.52L557.051 559H561.041L565.451 568.54L568.781 559ZM580.929 558.61C582.369 558.61 583.659 558.97 584.799 559.69C585.959 560.39 586.859 561.34 587.499 562.54C588.139 563.74 588.459 565.07 588.459 566.53C588.459 567.01 588.419 567.45 588.339 567.85H576.759C577.059 568.91 577.589 569.74 578.349 570.34C579.109 570.92 580.079 571.21 581.259 571.21C581.979 571.21 582.669 571.05 583.329 570.73C584.009 570.41 584.519 570 584.859 569.5L587.709 571.18C587.009 572.22 586.099 573.02 584.979 573.58C583.879 574.12 582.609 574.39 581.169 574.39C579.569 574.39 578.149 574.05 576.909 573.37C575.669 572.69 574.709 571.75 574.029 570.55C573.369 569.35 573.039 568 573.039 566.5C573.039 565.02 573.369 563.68 574.029 562.48C574.709 561.28 575.649 560.34 576.849 559.66C578.049 558.96 579.409 558.61 580.929 558.61ZM584.979 564.94C584.819 563.98 584.369 563.23 583.629 562.69C582.909 562.13 581.999 561.85 580.899 561.85C580.139 561.85 579.439 561.99 578.799 562.27C578.179 562.55 577.679 562.93 577.299 563.41C576.919 563.89 576.719 564.4 576.699 564.94H584.979ZM599.723 558.7L599.453 562.21C599.333 562.17 599.123 562.15 598.823 562.15C597.583 562.15 596.553 562.51 595.733 563.23C594.933 563.95 594.533 564.93 594.533 566.17V574H590.813V559H594.533V561.52C594.873 560.72 595.453 560.05 596.273 559.51C597.093 558.97 598.083 558.7 599.243 558.7H599.723ZM604.746 563.2C604.746 563.62 604.976 563.94 605.436 564.16C605.916 564.36 606.666 564.57 607.686 564.79C608.846 565.03 609.816 565.3 610.596 565.6C611.376 565.9 612.046 566.38 612.606 567.04C613.186 567.68 613.476 568.55 613.476 569.65C613.476 570.63 613.176 571.48 612.576 572.2C611.996 572.92 611.216 573.47 610.236 573.85C609.256 574.21 608.186 574.39 607.026 574.39C605.446 574.39 604.086 574.09 602.946 573.49C601.826 572.89 600.996 572.03 600.456 570.91L603.516 569.32C604.056 570.7 605.226 571.39 607.026 571.39C607.806 571.39 608.476 571.24 609.036 570.94C609.596 570.64 609.876 570.21 609.876 569.65C609.876 569.17 609.616 568.82 609.096 568.6C608.596 568.36 607.776 568.1 606.636 567.82C605.456 567.54 604.496 567.26 603.756 566.98C603.016 566.7 602.376 566.27 601.836 565.69C601.296 565.09 601.026 564.3 601.026 563.32C601.026 562.36 601.296 561.53 601.836 560.83C602.376 560.11 603.106 559.56 604.026 559.18C604.946 558.8 605.956 558.61 607.056 558.61C608.356 558.61 609.516 558.88 610.536 559.42C611.576 559.96 612.376 560.73 612.936 561.73L609.906 563.26C609.386 562.14 608.436 561.58 607.056 561.58C606.356 561.58 605.796 561.73 605.376 562.03C604.956 562.31 604.746 562.7 604.746 563.2ZM638.495 568.09L641.285 559H645.185L640.325 574H636.635L633.815 565.09L630.995 574H627.365L622.625 559H626.495L629.195 568.03L631.835 559H635.795L638.495 568.09ZM649.481 556.51C648.781 556.51 648.231 556.32 647.831 555.94C647.431 555.56 647.231 555.04 647.231 554.38C647.231 553.7 647.431 553.17 647.831 552.79C648.231 552.41 648.781 552.22 649.481 552.22C650.181 552.22 650.731 552.41 651.131 552.79C651.531 553.17 651.731 553.7 651.731 554.38C651.731 555.02 651.521 555.54 651.101 555.94C650.701 556.32 650.161 556.51 649.481 556.51ZM647.591 574V559H651.311V574H647.591ZM660.397 568.87C660.397 569.55 660.557 570.02 660.877 570.28C661.197 570.54 661.707 570.67 662.407 570.67C662.827 570.67 663.287 570.64 663.787 570.58V574C662.847 574.1 662.067 574.15 661.447 574.15C659.847 574.15 658.647 573.79 657.847 573.07C657.067 572.33 656.677 571.01 656.677 569.11V562.33H653.857V559H656.677V555.31L660.397 554.05V559H663.727V562.33H660.397V568.87ZM679.928 574H676.238V565.12C676.238 564 675.918 563.2 675.278 562.72C674.658 562.22 673.918 561.97 673.058 561.97C672.378 561.97 671.758 562.18 671.198 562.6C670.658 563.02 670.308 563.69 670.148 564.61V574H666.428V553H670.148V560.26C670.648 559.78 671.218 559.4 671.858 559.12C672.518 558.84 673.218 558.7 673.958 558.7C674.838 558.7 675.728 558.89 676.628 559.27C677.528 559.63 678.298 560.28 678.938 561.22C679.598 562.16 679.928 563.43 679.928 565.03V574ZM28.7287 598.56C28.7287 599.8 28.5287 600.99 28.1287 602.13C27.7287 603.25 27.1587 604.29 26.4187 605.25L28.5787 607.41L25.8187 610.2L23.4787 607.86C21.7187 608.88 19.8587 609.39 17.8987 609.39C15.9387 609.39 14.1287 608.91 12.4687 607.95C10.8087 606.97 9.48871 605.65 8.50871 603.99C7.54871 602.33 7.06871 600.52 7.06871 598.56C7.06871 596.6 7.54871 594.79 8.50871 593.13C9.48871 591.47 10.8087 590.16 12.4687 589.2C14.1287 588.22 15.9387 587.73 17.8987 587.73C19.8587 587.73 21.6687 588.22 23.3287 589.2C24.9887 590.16 26.2987 591.47 27.2587 593.13C28.2387 594.79 28.7287 596.6 28.7287 598.56ZM17.8987 605.46C18.8587 605.46 19.7387 605.28 20.5387 604.92L18.1087 602.49L20.8987 599.7L23.6287 602.43C24.4087 601.23 24.7987 599.94 24.7987 598.56C24.7987 597.32 24.4887 596.17 23.8687 595.11C23.2487 594.05 22.4087 593.21 21.3487 592.59C20.2887 591.97 19.1387 591.66 17.8987 591.66C16.6587 591.66 15.4987 591.97 14.4187 592.59C13.3587 593.21 12.5187 594.05 11.8987 595.11C11.2787 596.17 10.9687 597.32 10.9687 598.56C10.9687 599.8 11.2787 600.95 11.8987 602.01C12.5187 603.07 13.3587 603.91 14.4187 604.53C15.4987 605.15 16.6587 605.46 17.8987 605.46ZM44.4616 609L40.3516 601.74H36.4516V609H32.5216V588H41.0416C42.2816 588 43.4316 588.31 44.4916 588.93C45.5516 589.53 46.3816 590.36 46.9816 591.42C47.6016 592.48 47.9116 593.63 47.9116 594.87C47.9116 596.15 47.5916 597.32 46.9516 598.38C46.3116 599.44 45.4516 600.27 44.3716 600.87L48.9316 609H44.4616ZM36.4516 591.72V597.99H41.0416C41.9016 597.99 42.6416 597.69 43.2616 597.09C43.8816 596.47 44.1916 595.73 44.1916 594.87C44.1916 593.99 43.8816 593.25 43.2616 592.65C42.6616 592.03 41.9216 591.72 41.0416 591.72H36.4516ZM56.6032 588.39H59.3032L52.1932 609.6H49.4932L56.6032 588.39ZM73.9176 601.2V588H77.8476V609H74.4876L65.3676 594.78V609H61.4376V588H65.3676L73.9176 601.2ZM94.6912 588V591.72H86.0512V596.76H94.3612V600.48H86.0512V609H82.1212V588H94.6912ZM97.0101 598.56C97.0101 596.6 97.4901 594.79 98.4501 593.13C99.4301 591.47 100.75 590.16 102.41 589.2C104.07 588.22 105.88 587.73 107.84 587.73C109.84 587.73 111.69 588.25 113.39 589.29C115.09 590.31 116.4 591.67 117.32 593.37L113.87 595.2C113.27 594.14 112.43 593.29 111.35 592.65C110.27 591.99 109.1 591.66 107.84 591.66C106.6 591.66 105.44 591.97 104.36 592.59C103.3 593.21 102.46 594.05 101.84 595.11C101.22 596.17 100.91 597.32 100.91 598.56C100.91 599.8 101.22 600.95 101.84 602.01C102.46 603.07 103.3 603.91 104.36 604.53C105.44 605.15 106.6 605.46 107.84 605.46C109.14 605.46 110.32 605.13 111.38 604.47C112.46 603.81 113.3 602.93 113.9 601.83L117.35 603.72C116.43 605.44 115.12 606.82 113.42 607.86C111.72 608.88 109.86 609.39 107.84 609.39C105.88 609.39 104.07 608.91 102.41 607.95C100.75 606.97 99.4301 605.65 98.4501 603.99C97.4901 602.33 97.0101 600.52 97.0101 598.56ZM134.027 604.5L137.957 594H141.887L136.307 609H131.747L126.167 594H130.097L134.027 604.5ZM150.133 593.61C151.573 593.61 152.863 593.97 154.003 594.69C155.163 595.39 156.063 596.34 156.703 597.54C157.343 598.74 157.663 600.07 157.663 601.53C157.663 602.01 157.623 602.45 157.543 602.85H145.963C146.263 603.91 146.793 604.74 147.553 605.34C148.313 605.92 149.283 606.21 150.463 606.21C151.183 606.21 151.873 606.05 152.533 605.73C153.213 605.41 153.723 605 154.063 604.5L156.913 606.18C156.213 607.22 155.303 608.02 154.183 608.58C153.083 609.12 151.813 609.39 150.373 609.39C148.773 609.39 147.353 609.05 146.113 608.37C144.873 607.69 143.913 606.75 143.233 605.55C142.573 604.35 142.243 603 142.243 601.5C142.243 600.02 142.573 598.68 143.233 597.48C143.913 596.28 144.853 595.34 146.053 594.66C147.253 593.96 148.613 593.61 150.133 593.61ZM154.183 599.94C154.023 598.98 153.573 598.23 152.833 597.69C152.113 597.13 151.203 596.85 150.103 596.85C149.343 596.85 148.643 596.99 148.003 597.27C147.383 597.55 146.883 597.93 146.503 598.41C146.123 598.89 145.923 599.4 145.903 599.94H154.183ZM168.927 593.7L168.657 597.21C168.537 597.17 168.327 597.15 168.027 597.15C166.787 597.15 165.757 597.51 164.937 598.23C164.137 598.95 163.737 599.93 163.737 601.17V609H160.017V594H163.737V596.52C164.077 595.72 164.657 595.05 165.477 594.51C166.297 593.97 167.287 593.7 168.447 593.7H168.927ZM173.509 591.51C172.809 591.51 172.259 591.32 171.859 590.94C171.459 590.56 171.259 590.04 171.259 589.38C171.259 588.7 171.459 588.17 171.859 587.79C172.259 587.41 172.809 587.22 173.509 587.22C174.209 587.22 174.759 587.41 175.159 587.79C175.559 588.17 175.759 588.7 175.759 589.38C175.759 590.02 175.549 590.54 175.129 590.94C174.729 591.32 174.189 591.51 173.509 591.51ZM171.619 609V594H175.339V609H171.619ZM187.43 591.15C186.93 591.09 186.48 591.06 186.08 591.06C185.38 591.06 184.87 591.19 184.55 591.45C184.23 591.71 184.07 592.19 184.07 592.89V594H187.4V597.33H184.07V609H180.35V597.33H177.86V594H180.35V592.65C180.35 590.75 180.74 589.44 181.52 588.72C182.3 587.98 183.48 587.61 185.06 587.61C185.68 587.61 186.47 587.66 187.43 587.76V591.15ZM191.45 591.51C190.75 591.51 190.2 591.32 189.8 590.94C189.4 590.56 189.2 590.04 189.2 589.38C189.2 588.7 189.4 588.17 189.8 587.79C190.2 587.41 190.75 587.22 191.45 587.22C192.15 587.22 192.7 587.41 193.1 587.79C193.5 588.17 193.7 588.7 193.7 589.38C193.7 590.02 193.49 590.54 193.07 590.94C192.67 591.32 192.13 591.51 191.45 591.51ZM189.56 609V594H193.28V609H189.56ZM210.459 606.09C209.719 607.11 208.789 607.92 207.669 608.52C206.549 609.12 205.339 609.42 204.039 609.42C202.619 609.42 201.299 609.07 200.079 608.37C198.879 607.65 197.919 606.69 197.199 605.49C196.499 604.27 196.149 602.95 196.149 601.53C196.149 600.11 196.499 598.8 197.199 597.6C197.919 596.38 198.879 595.42 200.079 594.72C201.299 594 202.619 593.64 204.039 593.64C205.319 593.64 206.519 593.94 207.639 594.54C208.759 595.12 209.689 595.91 210.429 596.91L207.369 598.98C206.429 597.88 205.319 597.33 204.039 597.33C203.279 597.33 202.579 597.52 201.939 597.9C201.299 598.28 200.789 598.79 200.409 599.43C200.029 600.07 199.839 600.77 199.839 601.53C199.839 602.29 200.029 602.99 200.409 603.63C200.789 604.27 201.299 604.78 201.939 605.16C202.579 605.52 203.279 605.7 204.039 605.7C205.319 605.7 206.429 605.15 207.369 604.05L210.459 606.09ZM223.925 594H227.645V609H223.925V607.53C223.225 608.13 222.455 608.6 221.615 608.94C220.795 609.26 219.925 609.42 219.005 609.42C217.485 609.42 216.155 609.08 215.015 608.4C213.875 607.72 212.995 606.78 212.375 605.58C211.775 604.38 211.475 603.03 211.475 601.53C211.475 600.03 211.775 598.68 212.375 597.48C212.995 596.28 213.875 595.34 215.015 594.66C216.155 593.96 217.485 593.61 219.005 593.61C219.925 593.61 220.795 593.78 221.615 594.12C222.455 594.44 223.225 594.9 223.925 595.5V594ZM219.485 605.85C220.305 605.85 221.045 605.67 221.705 605.31C222.385 604.93 222.915 604.41 223.295 603.75C223.695 603.09 223.895 602.34 223.895 601.5C223.895 600.24 223.465 599.21 222.605 598.41C221.765 597.61 220.725 597.21 219.485 597.21C218.225 597.21 217.185 597.62 216.365 598.44C215.565 599.24 215.165 600.27 215.165 601.53C215.165 602.79 215.565 603.83 216.365 604.65C217.185 605.45 218.225 605.85 219.485 605.85ZM236.252 603.87C236.252 604.55 236.412 605.02 236.732 605.28C237.052 605.54 237.562 605.67 238.262 605.67C238.682 605.67 239.142 605.64 239.642 605.58V609C238.702 609.1 237.922 609.15 237.302 609.15C235.702 609.15 234.502 608.79 233.702 608.07C232.922 607.33 232.532 606.01 232.532 604.11V597.33H229.712V594H232.532V590.31L236.252 589.05V594H239.582V597.33H236.252V603.87ZM244.554 591.51C243.854 591.51 243.304 591.32 242.904 590.94C242.504 590.56 242.304 590.04 242.304 589.38C242.304 588.7 242.504 588.17 242.904 587.79C243.304 587.41 243.854 587.22 244.554 587.22C245.254 587.22 245.804 587.41 246.204 587.79C246.604 588.17 246.804 588.7 246.804 589.38C246.804 590.02 246.594 590.54 246.174 590.94C245.774 591.32 245.234 591.51 244.554 591.51ZM242.664 609V594H246.384V609H242.664ZM256.569 609.42C255.149 609.42 253.829 609.07 252.609 608.37C251.409 607.65 250.449 606.69 249.729 605.49C249.029 604.27 248.679 602.95 248.679 601.53C248.679 600.11 249.029 598.8 249.729 597.6C250.449 596.38 251.409 595.42 252.609 594.72C253.829 594 255.149 593.64 256.569 593.64C257.989 593.64 259.299 594 260.499 594.72C261.719 595.42 262.679 596.38 263.379 597.6C264.099 598.8 264.459 600.11 264.459 601.53C264.459 602.95 264.099 604.27 263.379 605.49C262.679 606.69 261.719 607.65 260.499 608.37C259.299 609.07 257.989 609.42 256.569 609.42ZM256.539 605.7C257.299 605.7 257.999 605.52 258.639 605.16C259.279 604.78 259.789 604.27 260.169 603.63C260.549 602.99 260.739 602.29 260.739 601.53C260.739 600.77 260.549 600.07 260.169 599.43C259.789 598.79 259.279 598.28 258.639 597.9C257.999 597.52 257.299 597.33 256.539 597.33C255.779 597.33 255.079 597.52 254.439 597.9C253.799 598.28 253.289 598.79 252.909 599.43C252.549 600.07 252.369 600.77 252.369 601.53C252.369 602.29 252.549 602.99 252.909 603.63C253.289 604.27 253.799 604.78 254.439 605.16C255.079 605.52 255.779 605.7 256.539 605.7ZM274.453 593.61C275.333 593.61 276.223 593.8 277.123 594.18C278.043 594.54 278.823 595.2 279.463 596.16C280.123 597.12 280.453 598.41 280.453 600.03V609H276.733V600.03C276.733 598.91 276.413 598.11 275.773 597.63C275.153 597.13 274.423 596.88 273.583 596.88C272.743 596.88 272.023 597.18 271.423 597.78C270.843 598.36 270.553 599.3 270.553 600.6V609H266.833V594H270.553V595.26C271.093 594.76 271.693 594.36 272.353 594.06C273.013 593.76 273.713 593.61 274.453 593.61ZM283.911 607.32C283.911 606.68 284.081 606.19 284.421 605.85C284.781 605.49 285.281 605.31 285.921 605.31C286.561 605.31 287.051 605.49 287.391 605.85C287.731 606.19 287.901 606.68 287.901 607.32C287.901 607.96 287.731 608.46 287.391 608.82C287.051 609.18 286.561 609.36 285.921 609.36C285.281 609.36 284.781 609.18 284.421 608.82C284.081 608.46 283.911 607.96 283.911 607.32ZM307.242 588C308.482 588 309.632 588.31 310.692 588.93C311.752 589.53 312.582 590.36 313.182 591.42C313.802 592.48 314.112 593.63 314.112 594.87C314.112 596.11 313.802 597.26 313.182 598.32C312.582 599.36 311.752 600.19 310.692 600.81C309.632 601.43 308.482 601.74 307.242 601.74H303.522V609H299.592V588H307.242ZM307.242 597.99C308.102 597.99 308.832 597.69 309.432 597.09C310.052 596.47 310.362 595.73 310.362 594.87C310.362 594.01 310.052 593.27 309.432 592.65C308.832 592.03 308.102 591.72 307.242 591.72H303.522V597.99H307.242ZM325.694 593.7L325.424 597.21C325.304 597.17 325.094 597.15 324.794 597.15C323.554 597.15 322.524 597.51 321.704 598.23C320.904 598.95 320.504 599.93 320.504 601.17V609H316.784V594H320.504V596.52C320.844 595.72 321.424 595.05 322.244 594.51C323.064 593.97 324.054 593.7 325.214 593.7H325.694ZM334.293 609.42C332.873 609.42 331.553 609.07 330.333 608.37C329.133 607.65 328.173 606.69 327.453 605.49C326.753 604.27 326.403 602.95 326.403 601.53C326.403 600.11 326.753 598.8 327.453 597.6C328.173 596.38 329.133 595.42 330.333 594.72C331.553 594 332.873 593.64 334.293 593.64C335.713 593.64 337.023 594 338.223 594.72C339.443 595.42 340.403 596.38 341.103 597.6C341.823 598.8 342.183 600.11 342.183 601.53C342.183 602.95 341.823 604.27 341.103 605.49C340.403 606.69 339.443 607.65 338.223 608.37C337.023 609.07 335.713 609.42 334.293 609.42ZM334.263 605.7C335.023 605.7 335.723 605.52 336.363 605.16C337.003 604.78 337.513 604.27 337.893 603.63C338.273 602.99 338.463 602.29 338.463 601.53C338.463 600.77 338.273 600.07 337.893 599.43C337.513 598.79 337.003 598.28 336.363 597.9C335.723 597.52 335.023 597.33 334.263 597.33C333.503 597.33 332.803 597.52 332.163 597.9C331.523 598.28 331.013 598.79 330.633 599.43C330.273 600.07 330.093 600.77 330.093 601.53C330.093 602.29 330.273 602.99 330.633 603.63C331.013 604.27 331.523 604.78 332.163 605.16C332.803 605.52 333.503 605.7 334.263 605.7ZM350.355 604.5L354.285 594H358.215L352.635 609H348.075L342.495 594H346.425L350.355 604.5ZM366.461 593.61C367.901 593.61 369.191 593.97 370.331 594.69C371.491 595.39 372.391 596.34 373.031 597.54C373.671 598.74 373.991 600.07 373.991 601.53C373.991 602.01 373.951 602.45 373.871 602.85H362.291C362.591 603.91 363.121 604.74 363.881 605.34C364.641 605.92 365.611 606.21 366.791 606.21C367.511 606.21 368.201 606.05 368.861 605.73C369.541 605.41 370.051 605 370.391 604.5L373.241 606.18C372.541 607.22 371.631 608.02 370.511 608.58C369.411 609.12 368.141 609.39 366.701 609.39C365.101 609.39 363.681 609.05 362.441 608.37C361.201 607.69 360.241 606.75 359.561 605.55C358.901 604.35 358.571 603 358.571 601.5C358.571 600.02 358.901 598.68 359.561 597.48C360.241 596.28 361.181 595.34 362.381 594.66C363.581 593.96 364.941 593.61 366.461 593.61ZM370.511 599.94C370.351 598.98 369.901 598.23 369.161 597.69C368.441 597.13 367.531 596.85 366.431 596.85C365.671 596.85 364.971 596.99 364.331 597.27C363.711 597.55 363.211 597.93 362.831 598.41C362.451 598.89 362.251 599.4 362.231 599.94H370.511ZM396.396 594H400.116V609H396.396V607.53C395.696 608.13 394.926 608.6 394.086 608.94C393.266 609.26 392.396 609.42 391.476 609.42C389.956 609.42 388.626 609.08 387.486 608.4C386.346 607.72 385.466 606.78 384.846 605.58C384.246 604.38 383.946 603.03 383.946 601.53C383.946 600.03 384.246 598.68 384.846 597.48C385.466 596.28 386.346 595.34 387.486 594.66C388.626 593.96 389.956 593.61 391.476 593.61C392.396 593.61 393.266 593.78 394.086 594.12C394.926 594.44 395.696 594.9 396.396 595.5V594ZM391.956 605.85C392.776 605.85 393.516 605.67 394.176 605.31C394.856 604.93 395.386 604.41 395.766 603.75C396.166 603.09 396.366 602.34 396.366 601.5C396.366 600.24 395.936 599.21 395.076 598.41C394.236 597.61 393.196 597.21 391.956 597.21C390.696 597.21 389.656 597.62 388.836 598.44C388.036 599.24 387.636 600.27 387.636 601.53C387.636 602.79 388.036 603.83 388.836 604.65C389.656 605.45 390.696 605.85 391.956 605.85ZM412.807 594H416.527V609H412.807V607.74C412.267 608.24 411.667 608.64 411.007 608.94C410.347 609.24 409.647 609.39 408.907 609.39C408.027 609.39 407.127 609.21 406.207 608.85C405.307 608.47 404.527 607.8 403.867 606.84C403.227 605.88 402.907 604.59 402.907 602.97V594H406.627V602.97C406.627 604.09 406.937 604.9 407.557 605.4C408.197 605.88 408.937 606.12 409.777 606.12C410.617 606.12 411.327 605.83 411.907 605.25C412.507 604.65 412.807 603.7 412.807 602.4V594ZM424.836 603.87C424.836 604.55 424.996 605.02 425.316 605.28C425.636 605.54 426.146 605.67 426.846 605.67C427.266 605.67 427.726 605.64 428.226 605.58V609C427.286 609.1 426.506 609.15 425.886 609.15C424.286 609.15 423.086 608.79 422.286 608.07C421.506 607.33 421.116 606.01 421.116 604.11V597.33H418.296V594H421.116V590.31L424.836 589.05V594H428.166V597.33H424.836V603.87ZM444.366 609H440.676V600.12C440.676 599 440.356 598.2 439.716 597.72C439.096 597.22 438.356 596.97 437.496 596.97C436.816 596.97 436.196 597.18 435.636 597.6C435.096 598.02 434.746 598.69 434.586 599.61V609H430.866V588H434.586V595.26C435.086 594.78 435.656 594.4 436.296 594.12C436.956 593.84 437.656 593.7 438.396 593.7C439.276 593.7 440.166 593.89 441.066 594.27C441.966 594.63 442.736 595.28 443.376 596.22C444.036 597.16 444.366 598.43 444.366 600.03V609ZM454.235 593.61C455.675 593.61 456.965 593.97 458.105 594.69C459.265 595.39 460.165 596.34 460.805 597.54C461.445 598.74 461.765 600.07 461.765 601.53C461.765 602.01 461.725 602.45 461.645 602.85H450.065C450.365 603.91 450.895 604.74 451.655 605.34C452.415 605.92 453.385 606.21 454.565 606.21C455.285 606.21 455.975 606.05 456.635 605.73C457.315 605.41 457.825 605 458.165 604.5L461.015 606.18C460.315 607.22 459.405 608.02 458.285 608.58C457.185 609.12 455.915 609.39 454.475 609.39C452.875 609.39 451.455 609.05 450.215 608.37C448.975 607.69 448.015 606.75 447.335 605.55C446.675 604.35 446.345 603 446.345 601.5C446.345 600.02 446.675 598.68 447.335 597.48C448.015 596.28 448.955 595.34 450.155 594.66C451.355 593.96 452.715 593.61 454.235 593.61ZM458.285 599.94C458.125 598.98 457.675 598.23 456.935 597.69C456.215 597.13 455.305 596.85 454.205 596.85C453.445 596.85 452.745 596.99 452.105 597.27C451.485 597.55 450.985 597.93 450.605 598.41C450.225 598.89 450.025 599.4 450.005 599.94H458.285ZM471.738 593.61C472.618 593.61 473.508 593.8 474.408 594.18C475.328 594.54 476.108 595.2 476.748 596.16C477.408 597.12 477.738 598.41 477.738 600.03V609H474.018V600.03C474.018 598.91 473.698 598.11 473.058 597.63C472.438 597.13 471.708 596.88 470.868 596.88C470.028 596.88 469.308 597.18 468.708 597.78C468.128 598.36 467.838 599.3 467.838 600.6V609H464.118V594H467.838V595.26C468.378 594.76 468.978 594.36 469.638 594.06C470.298 593.76 470.998 593.61 471.738 593.61ZM485.627 603.87C485.627 604.55 485.787 605.02 486.107 605.28C486.427 605.54 486.937 605.67 487.637 605.67C488.057 605.67 488.517 605.64 489.017 605.58V609C488.077 609.1 487.297 609.15 486.677 609.15C485.077 609.15 483.877 608.79 483.077 608.07C482.297 607.33 481.907 606.01 481.907 604.11V597.33H479.087V594H481.907V590.31L485.627 589.05V594H488.957V597.33H485.627V603.87ZM493.929 591.51C493.229 591.51 492.679 591.32 492.279 590.94C491.879 590.56 491.679 590.04 491.679 589.38C491.679 588.7 491.879 588.17 492.279 587.79C492.679 587.41 493.229 587.22 493.929 587.22C494.629 587.22 495.179 587.41 495.579 587.79C495.979 588.17 496.179 588.7 496.179 589.38C496.179 590.02 495.969 590.54 495.549 590.94C495.149 591.32 494.609 591.51 493.929 591.51ZM492.039 609V594H495.759V609H492.039ZM512.364 606.09C511.624 607.11 510.694 607.92 509.574 608.52C508.454 609.12 507.244 609.42 505.944 609.42C504.524 609.42 503.204 609.07 501.984 608.37C500.784 607.65 499.824 606.69 499.104 605.49C498.404 604.27 498.054 602.95 498.054 601.53C498.054 600.11 498.404 598.8 499.104 597.6C499.824 596.38 500.784 595.42 501.984 594.72C503.204 594 504.524 593.64 505.944 593.64C507.224 593.64 508.424 593.94 509.544 594.54C510.664 595.12 511.594 595.91 512.334 596.91L509.274 598.98C508.334 597.88 507.224 597.33 505.944 597.33C505.184 597.33 504.484 597.52 503.844 597.9C503.204 598.28 502.694 598.79 502.314 599.43C501.934 600.07 501.744 600.77 501.744 601.53C501.744 602.29 501.934 602.99 502.314 603.63C502.694 604.27 503.204 604.78 503.844 605.16C504.484 605.52 505.184 605.7 505.944 605.7C507.224 605.7 508.334 605.15 509.274 604.05L512.364 606.09ZM516.487 591.51C515.787 591.51 515.237 591.32 514.837 590.94C514.437 590.56 514.237 590.04 514.237 589.38C514.237 588.7 514.437 588.17 514.837 587.79C515.237 587.41 515.787 587.22 516.487 587.22C517.187 587.22 517.737 587.41 518.137 587.79C518.537 588.17 518.737 588.7 518.737 589.38C518.737 590.02 518.527 590.54 518.107 590.94C517.707 591.32 517.167 591.51 516.487 591.51ZM514.597 609V594H518.317V609H514.597ZM527.404 603.87C527.404 604.55 527.564 605.02 527.884 605.28C528.204 605.54 528.714 605.67 529.414 605.67C529.834 605.67 530.294 605.64 530.794 605.58V609C529.854 609.1 529.074 609.15 528.454 609.15C526.854 609.15 525.654 608.79 524.854 608.07C524.074 607.33 523.684 606.01 523.684 604.11V597.33H520.864V594H523.684V590.31L527.404 589.05V594H530.734V597.33H527.404V603.87ZM544.011 594H547.911L542.661 609.03C541.881 611.09 540.801 612.63 539.421 613.65C538.061 614.69 536.451 615.14 534.591 615V611.4C534.711 611.42 534.891 611.43 535.131 611.43C536.731 611.43 537.981 610.46 538.881 608.52L532.281 594H536.271L540.681 603.54L544.011 594ZM559.642 591.51C558.942 591.51 558.392 591.32 557.992 590.94C557.592 590.56 557.392 590.04 557.392 589.38C557.392 588.7 557.592 588.17 557.992 587.79C558.392 587.41 558.942 587.22 559.642 587.22C560.342 587.22 560.892 587.41 561.292 587.79C561.692 588.17 561.892 588.7 561.892 589.38C561.892 590.02 561.682 590.54 561.262 590.94C560.862 591.32 560.322 591.51 559.642 591.51ZM557.752 609V594H561.472V609H557.752ZM572.812 593.61C573.692 593.61 574.582 593.8 575.482 594.18C576.402 594.54 577.182 595.2 577.822 596.16C578.482 597.12 578.812 598.41 578.812 600.03V609H575.092V600.03C575.092 598.91 574.772 598.11 574.132 597.63C573.512 597.13 572.782 596.88 571.942 596.88C571.102 596.88 570.382 597.18 569.782 597.78C569.202 598.36 568.912 599.3 568.912 600.6V609H565.192V594H568.912V595.26C569.452 594.76 570.052 594.36 570.712 594.06C571.372 593.76 572.072 593.61 572.812 593.61ZM585.014 598.2C585.014 598.62 585.244 598.94 585.704 599.16C586.184 599.36 586.934 599.57 587.954 599.79C589.114 600.03 590.084 600.3 590.864 600.6C591.644 600.9 592.314 601.38 592.874 602.04C593.454 602.68 593.744 603.55 593.744 604.65C593.744 605.63 593.444 606.48 592.844 607.2C592.264 607.92 591.484 608.47 590.504 608.85C589.524 609.21 588.454 609.39 587.294 609.39C585.714 609.39 584.354 609.09 583.214 608.49C582.094 607.89 581.264 607.03 580.724 605.91L583.784 604.32C584.324 605.7 585.494 606.39 587.294 606.39C588.074 606.39 588.744 606.24 589.304 605.94C589.864 605.64 590.144 605.21 590.144 604.65C590.144 604.17 589.884 603.82 589.364 603.6C588.864 603.36 588.044 603.1 586.904 602.82C585.724 602.54 584.764 602.26 584.024 601.98C583.284 601.7 582.644 601.27 582.104 600.69C581.564 600.09 581.294 599.3 581.294 598.32C581.294 597.36 581.564 596.53 582.104 595.83C582.644 595.11 583.374 594.56 584.294 594.18C585.214 593.8 586.224 593.61 587.324 593.61C588.624 593.61 589.784 593.88 590.804 594.42C591.844 594.96 592.644 595.73 593.204 596.73L590.174 598.26C589.654 597.14 588.704 596.58 587.324 596.58C586.624 596.58 586.064 596.73 585.644 597.03C585.224 597.31 585.014 597.7 585.014 598.2ZM601.232 603.87C601.232 604.55 601.392 605.02 601.712 605.28C602.032 605.54 602.542 605.67 603.242 605.67C603.662 605.67 604.122 605.64 604.622 605.58V609C603.682 609.1 602.902 609.15 602.282 609.15C600.682 609.15 599.482 608.79 598.682 608.07C597.902 607.33 597.512 606.01 597.512 604.11V597.33H594.692V594H597.512V590.31L601.232 589.05V594H604.562V597.33H601.232V603.87ZM618.876 594H622.596V609H618.876V607.53C618.176 608.13 617.406 608.6 616.566 608.94C615.746 609.26 614.876 609.42 613.956 609.42C612.436 609.42 611.106 609.08 609.966 608.4C608.826 607.72 607.946 606.78 607.326 605.58C606.726 604.38 606.426 603.03 606.426 601.53C606.426 600.03 606.726 598.68 607.326 597.48C607.946 596.28 608.826 595.34 609.966 594.66C611.106 593.96 612.436 593.61 613.956 593.61C614.876 593.61 615.746 593.78 616.566 594.12C617.406 594.44 618.176 594.9 618.876 595.5V594ZM614.436 605.85C615.256 605.85 615.996 605.67 616.656 605.31C617.336 604.93 617.866 604.41 618.246 603.75C618.646 603.09 618.846 602.34 618.846 601.5C618.846 600.24 618.416 599.21 617.556 598.41C616.716 597.61 615.676 597.21 614.436 597.21C613.176 597.21 612.136 597.62 611.316 598.44C610.516 599.24 610.116 600.27 610.116 601.53C610.116 602.79 610.516 603.83 611.316 604.65C612.136 605.45 613.176 605.85 614.436 605.85ZM634.043 593.61C634.923 593.61 635.813 593.8 636.713 594.18C637.633 594.54 638.413 595.2 639.053 596.16C639.713 597.12 640.043 598.41 640.043 600.03V609H636.323V600.03C636.323 598.91 636.003 598.11 635.363 597.63C634.743 597.13 634.013 596.88 633.173 596.88C632.333 596.88 631.613 597.18 631.013 597.78C630.433 598.36 630.143 599.3 630.143 600.6V609H626.423V594H630.143V595.26C630.683 594.76 631.283 594.36 631.943 594.06C632.603 593.76 633.303 593.61 634.043 593.61ZM647.931 603.87C647.931 604.55 648.091 605.02 648.411 605.28C648.731 605.54 649.241 605.67 649.941 605.67C650.361 605.67 650.821 605.64 651.321 605.58V609C650.381 609.1 649.601 609.15 648.981 609.15C647.381 609.15 646.181 608.79 645.381 608.07C644.601 607.33 644.211 606.01 644.211 604.11V597.33H641.391V594H644.211V590.31L647.931 589.05V594H651.261V597.33H647.931V603.87ZM658.268 604.77C658.268 605.09 658.348 605.32 658.508 605.46C658.668 605.6 658.918 605.67 659.258 605.67C659.518 605.67 659.828 605.64 660.188 605.58V609C659.448 609.12 658.758 609.18 658.118 609.18C656.958 609.18 656.068 608.88 655.448 608.28C654.848 607.66 654.548 606.57 654.548 605.01V588H658.268V604.77ZM672.419 594H676.319L671.069 609.03C670.289 611.09 669.209 612.63 667.829 613.65C666.469 614.69 664.859 615.14 662.999 615V611.4C663.119 611.42 663.299 611.43 663.539 611.43C665.139 611.43 666.389 610.46 667.289 608.52L660.689 594H664.679L669.089 603.54L672.419 594ZM676.226 607.32C676.226 606.68 676.396 606.19 676.736 605.85C677.096 605.49 677.596 605.31 678.236 605.31C678.876 605.31 679.366 605.49 679.706 605.85C680.046 606.19 680.216 606.68 680.216 607.32C680.216 607.96 680.046 608.46 679.706 608.82C679.366 609.18 678.876 609.36 678.236 609.36C677.596 609.36 677.096 609.18 676.736 608.82C676.396 608.46 676.226 607.96 676.226 607.32Z" fill="white"/>
<path d="M32.2 91V21H45.2V91H32.2ZM59.5438 91V21H72.5438V91H59.5438ZM86.8875 91V21H99.8875V91H86.8875Z" fill="#E6E8EB"/>
<path d="M224.75 102.5H233.25L237.25 103.5L240.5 104.75L244 106.75L247.25 109.75L249.5 112.75L251 116.25L252 120V122.75L251 126.75L249.75 130L248 133V133.25L251.75 134L257 136L261 138.25L264.25 140.75L267.5 143.75L270.25 147.75L272.75 151.5L274.5 153L278 155.25L280.25 156.5L284 157.5L286.25 158.25L290.25 158.75L294.25 159L318.25 159.25L324.25 160.5L327.25 161.5L331.5 163.75L334 165.5L337 168.25L338.75 170.25L341.25 174L342.5 176.75L343.75 179.25L345 185L345.5 188.25V193.5L344.75 198.25L344 203.75L342.5 209L341.25 212.25L338.25 218.5L335.25 223.25L333.25 225.75L331 228.5L327.5 232.5L326.25 233.75L323 236.75L320.5 239L317.25 241.5L312.75 244.75L306.75 248.25L299.5 251.75L292.75 254.25L280 258.25L271.25 260.25L269 260.5L270 262.75L272 268.75L274 275.5L275.5 281.25L276.25 286L279.25 285.75H282.25L285 286L286.25 286.5H287L289.75 280.75L294.25 271.75L296.75 267L298 265L300.25 262.75L303.5 261.5L304.5 261.25H306.75L315 262.5L320 263.5L320.5 263.75L325.5 264.5L329 265.5L334.5 266.25L337 267.5L339.5 269.5L341.5 272.25L342 273.5L342.25 276.5L341.5 279.5L337.5 287.75L334.25 294L327.75 307L325.25 311.75L316.5 329.25L314.25 332.75L312.75 334.5L310 336.5L306.75 338L304 338.5H298L296.5 341.25L294.5 344L292.75 346L290.5 347.75L287 350.25L283 352L280 353L278.5 356L277.25 360.5L276 363.5L274.75 366.75L273 370.75L273.75 372.25L275.25 380L275.75 385.75V391.75L275.25 398L273.5 408L273.25 410L277.5 411L282 413L285.5 415.5L288 417.75L289.25 418.75L291.5 421.75L293.25 425.25L295 430.5L295.5 433.5V437.5L294.75 440.5L292.75 443.5L292 444.5H295.25L301 445.25L303.25 445.75L306.75 446.25L308.75 447.25L310 448.75L309.5 449.75L306.5 451.25L302.25 452.25L299.75 452.75L298.5 451.75L299 453L298.5 453.5L289.5 455L283.75 455.5L279.25 455.75L263.75 456.25L261 456.5L245 457L239.75 457.25H189.75L177.5 456.5L172 456L159.25 455.25L154.75 454.5L154.25 453L152.25 452.75L151 452.5L150.75 452.75L146.25 452.25L143.25 451.5L142.5 450.5L142.75 449.25L144 448L149.25 446.25L155.5 445.25L158.5 444.75L161.75 444.25L166 444L164.75 442L163.5 436.5V429L164 426.5L164.75 421L167.5 408L168.5 401.5L169.5 393.75V387L169 383.75L167.75 380.25L167.5 379.5L166.5 379L164.75 377L163.5 377.5L160.25 379.25L157.5 379.75L154.5 380H150.75L145.75 379.5L142.75 378.75L137.75 376.5L134.25 374.25L131.75 372.25L129.5 370L127.25 366.75L125.5 363.25L124 357V352.25L125.25 347.5L126.5 344.5L128.25 342.25L130 340.5L131.25 340L133.5 340.25L135.5 342L138 345.25L140.75 348.25L143.25 350.25L146.75 352.25L149.75 353.5L152.25 354L154.75 354.25L154.5 349.75L153.75 342.25L153.5 338.5V334.25L154 326.5L155 317L157.25 306.75L159.25 300L161.25 294.75L163 290.5L165 286.5L168.75 280L171 277.5L172.75 276L173.25 275.75H175.5L175.75 276.25L176 279.75L175 281.5L173 284.25L171 287.75L169 291.5L166.25 298L164.5 303.25L162.75 309.5L161 318L159.75 328.75V343.25L161 352.25L162.75 359.25L163.75 362L166.25 368.5L167 370.5L169.25 373.25L172 376.25L174 379L175.25 383.75L175.75 386.25V394.75L174 407L171.5 418.75L170.75 422L169.5 429.25V436.5L170.75 440.5L172.75 443.25L175.75 445.5L179 447L181.25 447.5L186.5 448L196.25 448.5L214 448.75V442.25L213.25 437.75L212.25 434.75V433.25L213.75 432L215.25 431.75L216.5 432.25L218.5 435.25L219.5 438.5L220 445V448.25L227 448L230.5 447.75L231.25 447.5L231.75 445.25V441.5L230.5 438L229 435.75L228.5 434.25L228.75 432L229.5 431.25L231 431L233 432L235 434.25L236.5 437.25L237.5 441.75L237.75 445.25L237.5 446.75L241.5 445L243.75 442.75L244.5 441L244.75 439.5V437L244.25 433.75L243 430.75L241.5 428L238.75 425L235.5 422.5L231.75 420.5L227.75 419L224.5 418.25L223 416.75V414L224 410.5L224.75 407.75L226.25 400.75L226.75 395L227 385.5L227.25 380.75L228.25 379.75L229.5 379.25L231.25 379.5L232.5 381L232.75 381.75V396.5L232.25 401.25L231 407.75L230.25 411.5L229.75 412.5V413.25L235 415.25L239 417.5L241.75 419.5L244.25 421.75L246 423.75L248.25 427.5L250 431.25L250.75 435.5V441.25L250 443.75L249.75 444.25L272.25 444L272.5 443.75V438L271 433.5L268.5 429.5L269 428L270 426.5L271 426.25L273.25 427.5L275.5 429.75L277.5 433.25L278.75 438V443L278.5 444.25L283 443.75L286 442L288 440.25L289 438.5L289.5 435.75L289.25 431.75L288 428.25L286 424.75L284.25 422.5L280.75 419.75L277.75 418L273 416L270.25 415L267.25 414.25L266.25 413L266 412.5V410.5L267.5 406.5L268.5 401.5L269.25 398.25L269.75 391.25V385.75L269.25 379.75L267.75 372L267.25 370.25V368.25L269.75 363.5L271.25 360.5L272.5 354.25L264.75 353.75L258 352L255.25 351L251.25 349.75L249.75 349.25L247.75 349.75L244.25 350H229.75L226.25 349.75L216 348L210 346.5L207 345.5L201.5 343.25L194.75 340L190 337.25L185.25 334L182.25 331.75L178.25 328L176.25 326L173.75 322.75L172.25 319.75V318.25L173.5 317L174 316.75H176L178 319L180 321.5L181.75 323.25L183.5 325.25L187.25 328.25L191.25 331L194.5 333L199.75 336L204.75 338.25L211.5 340.5L217.25 342L228.25 343.75L232.75 344H241.25L246.25 343.75L249.75 343L253.75 344L259.25 346L265 347.75L266.75 348L271 348.25H274.25L278.25 347.75L283.5 345.75L287.5 343.25L287.75 342.75L281 343.75H277.75L276.5 343L276 342L276.25 340.25L277.5 338.75L278 338.5L283.75 338L286.25 337L290 335.75L293.5 333.75L296.5 331.25L298.75 328.25L299.25 326.25V323.75L299.5 322.5L295.75 323.5L291 324.75L284.5 325.75L282.75 326.25H281L279.75 325.5L279.25 323.25L279.75 321.25L281.75 320.75L285.75 320.25L286.25 320L289.75 319.5L293.5 318.5L295.5 317.25L299 315.5L301 314L303.25 312L304.5 309.5V307.25L303.25 304.75L302 303.75L300 303.25H294L289.5 304L286.5 305L277 306.5H274.75L272.75 305.5L272.25 304.75V303.5L273.75 301.5L275 301L279.75 300.25L281 299.25L282.5 295.75L283.75 293.25L284.25 291.5L273.75 291.75L269.75 292.5L264.75 294.25L260.75 296.5L257.5 299L256 300.25L254.25 302.25L252.5 304L250.75 306.25L249.5 307.25L246.5 307.5L239.5 307H237.5L230.75 305.5L227.25 304.75L220.5 302.5L215.75 300.25L211.75 297.75L208.75 295.5L206.75 293.5L205.25 291L205.5 289.5L206.75 288L207.75 287.75L210 289.25L213.5 292L218.5 295L223.75 297.5L228.5 299L237 300.75L243.75 301.5H247.25L250.75 297.75L253.75 294.75L256.25 292.75L257.75 291.5L261 289.5L264.5 288L269.25 287.25H270.5L269.25 280.75L267.25 273.5L265 266.75L263 261.75L260.25 262H256.25L254.75 260.25L254.5 258.75L255.75 256.5L257.5 256L262.25 255.25L267.75 254.25L272.25 253.25L279.75 251.5L286.75 249.5L292.75 247.5L297.5 245.5L302 243.5L308.75 240L314.25 236.25L317.5 233.75L320.25 231.25L322.25 229.5L327 224.75L329.75 221.25L331.75 218.75L334.25 214.5L336 210.75L338 205.5L339.25 200L339.75 194.5V190.75L339 184.5L337.75 180.5L336.25 177.75L333.25 173.5L330.75 171L327 168.5L323.5 167L318.5 165.75L313.75 165.25L311.25 165.5L308.75 165.25H296.5L288.5 164.75L284.25 164L278.5 162.25L274.5 160.25L271.5 158.25L269 156L267 153.5L265.25 150.75L262.75 147.5L260.75 145.5L257.25 143L253.25 141L250 139.75L247.5 139.25L243.5 139H241.25L239.25 139.75L235.75 141.75L233.25 143.25L229.25 145.25L225.5 147L222.75 148L220 149.25L215 151.25L208.5 154L199 158L193 160.75L187.75 163.25L184.75 164.75L184 165.25L187 168L189.75 171.25L192 174.5L193.25 177.25L194.75 182.25L195 188L196.25 189.5L198.25 191.25L200.25 193.5L202 196.25L203.75 199.75L205 203.75L205.25 205.25V210.5L204.25 214L202.75 216.75L201.5 218.25L201.75 219.25L203.75 223.25L205.25 227.75L205.5 229V236.25L204.75 239.25L202.75 243.25L200.25 246.75L196.75 250.25L194.5 252H194L193.5 255.25L192.25 258.5L190.75 261.5L189 263.75L188.25 264.75H187.75L187.5 265.5L183.5 268.25L179.5 270L178.5 270.25H175L173.25 269.75L172.75 270.75L171 272.25L168 273.75L162.5 275.25L160.5 275.5H158L155.5 275L151.5 273.5L149 271.5L147 269.25L145 265.75L144.5 263.5L144.75 261.5H142.5L137.5 260L133.75 257.5L132 256L129.5 252.5L128 247.75L127.5 244.5L127.75 240.5L129.5 234.75L132 230.5L134.25 227.75L137 225.5L137.25 224.5L135.25 220.5L135 219.5V214.75L136 212.25L138 208.5L140.5 205.25L143.25 202.25L146.5 199.5L148 198.5L148.25 198.25L148.5 193.25L149.25 189L150.75 186L149.25 185.75L144.5 183.25L142 181L140 178.5L139.25 176.5V171.5L141.25 165.75L142.75 163.25L144.25 160.5L147.5 155.25L149.75 152.5L152.75 149L157.25 144L162.5 138.75L166 136L169 133.5H169.5V133L168.5 132.5L166 130.75L164.25 128.5L163.5 126.5L163.75 124.5L165 122L167.25 120.25L169.25 119.5L170.75 119.25H173.5L175.5 120L177.5 122.75L178.25 124.25L179.25 123.75L181.75 121.75L186.5 118.5L189.5 116.5L193.5 114L198.25 111.25L205 108L208 106.75L212 105.5L215.5 104.25L222.75 102.75L224.75 102.5Z" fill="white"/>
<path d="M513.25 41H548.25L555.75 41.25L558.25 42L561 44L562.75 46.25L564.25 49.25L564.75 52.75V312.25L564.5 316.75L563.75 319.25L562.25 321.75L560 323.5L558 324.5L556 325L547.5 325.25H538L536.25 324.5L535.5 323.5V321.5L537.25 319.5L537.75 319.25L554.25 319L556.25 318.25L557.75 316.5L558.5 314.25V148.75L558.25 112.75L557.75 111.75L556.5 111.5H548L546 110.25L545.5 109.5L545.75 107.25L547 106L548 105.25L549.75 104.75L551.75 104.5H555.5L558 105L558.25 91.75L558 90L558.25 88.5V59.5L558.5 57.75L558 52.25L557 49.5L555.25 48L551.5 47.75H452L243.5 48L241 48.75L239.25 50.75L238.75 55.25L238.5 63.5L238.25 96.75L236.5 98.75L235.5 99.25L233.25 98.5L232.25 96.75L232 96L231.75 78V75.25L232 73.5L231.75 72L232 64.75L232.25 61.5L232.5 50.75L233.25 47.75L234.75 45.5L237.25 43.25L240.25 41.75L241.25 41.5L248.25 41.25L513.25 41Z" fill="white"/>
<path d="M332.5 342.25L382 342.5L384.5 343.25L386.75 344.75L388 346L389.5 348L390.25 349.75L390.5 351L390.75 356V380.5L390.5 388V390.75L390.25 393.5L390.5 394.25V406L390.25 409.25L390 434.5L389.5 437.5L388.75 439.75L387 442L385 443.75L382.5 444.75L379.75 445.25H353.75L352.5 445L336.25 445.25L334.5 445H331.25L327.25 443.75L324.5 441.25L322.75 437.75L321.75 433.25V427.5L322 422.5L322.25 352.25L322.75 349.25L323.75 347.25L325.5 345L328 343.5L330.75 342.5L332.5 342.25ZM331.5 348.25L330 349.25L328.5 351.25L327.75 354.5V406.5L328.5 409.75L329.75 411L332.25 412L335.75 412.5H339.5L341.5 411.5L342.5 410.25L343.75 406.5L344.75 401.5L345.75 400.25V399.75L348.75 398.25H353L358.75 398.5L361 398.75L361.5 398.5L367 398.25L367.75 398L368 392.75L368.25 373.75L368 364.25L367.75 364L352.5 363.75H343.25L343 385.5V400.75L342 401H339.75L338.5 400.5L338.25 400V359.5L346.25 359L348 358.75L354.25 359L368.25 359.25L372.5 359.5L373 359.75V384.25L372.75 402.25L370.25 403L349.75 403.25L348.75 405.25L347 411.75L345.25 416.5L343.25 420.5L342.25 423L342 424V427.75L343 429.75L345.75 431.75L348.25 432.5L350 432.75L354.75 433L359 432L362.5 430L364.25 428.25L365.75 426L367.25 422.25V420L365.25 414L364 412L364.25 411L366.5 411.25L368.75 412.75L370.75 415.5L371.5 417.5L372 420L373.25 421.25L374.75 422.25L375 424.25L375.25 438.5L376.25 439.25L377.25 439.5H380.25L382.75 438.25L383.5 436.5L383.75 434.75V421.75L384 421.5L384.25 419.25L384.5 413.25L384.75 404.25V352L383.5 350L382.5 348.75L381.75 348.25H331.5Z" fill="white"/>
<path d="M528 104L532.25 104.25L535 105.25L537.75 107L539.25 108.25L541 110.75L542.5 114.75L543 117.25V119.5L542 123.5L540.75 126.75L538.75 130.25L537.25 132.5L537 133.25L541.75 134L545.5 135L548 136.25L550.25 138L552.5 140.5L554.25 144.25L554.75 145.75V150L552.25 161L551 166.75L550 170.75L548.25 178L546 187.75L544.25 195.5L541.75 206.25L537.75 223L536.75 227.5L536 229.75L534 238.5L532.5 245.5L531.25 251.5L530 254.5L528.75 256.5L526.5 259L524.5 260.5L521 262.25L519 262.5H516.5L512.75 261.75L507.75 260.5L500.75 259L492.75 257L487 255.75L477.75 253.5L470.25 251.75L463.25 250.25L459.25 248.25L457.25 246.5L455.5 244.25L454.25 241.5L453.75 240V235.5L454.5 231.75L457 221.75L458.25 215.75L459 212.75L460.25 207L462 199.25L463.25 194L465.25 184.5L467 177.25L467.75 173.75L469.25 167.5L470.75 161.5L471.75 156.75L472.75 152.75L473.75 147.75L475 142L476 138L477.25 132.75L479.25 129L480.5 127.5L483 125.75L486.5 124L490 123.75L493.75 124.25L501.5 125.75L508.5 127.25V125.75L510.5 119.5L512.5 115L515 111.5L518 108.25L520.25 106.5L523.75 104.75L525.75 104.25L528 104ZM527.75 110L525.5 110.5L522.5 112.25L520 114.5L518.25 117L516.25 120.75L514.25 126.25L514 128L515.25 128.75L523.5 130.5L526.75 131.25L530.75 131.5L533 128.5L534.75 125.5L536 122.5L537 118.75V116.5L535.5 113.5L534.25 112L531.75 110.5L529.75 110H527.75ZM488.25 129.75L485.75 131L484.5 132L482.75 134.5L482.25 137.5L481 141.75L480 147L478.75 151.75L477.5 157.25L474 172.75L472.75 178.25L471 185.75L470 190L467.25 201.25L466 207.25L465.25 210.5L464.5 214.25L463.5 217.75L462 224.5L459.75 233.75L459.5 235.5V237.75L460 240L461.5 242.5L464 244.25L466.25 245L471.5 246.25L477.5 247.5L482.25 248.75L486.75 249.75L497 252.25L502.75 253.5L505.75 254.25L511 255.25L515.5 256.5L518.5 256.75L521 256L523.5 254L525 251.75L526 248L527.75 240.25L530.5 228.5L532.25 221L533.5 216.25L536 205.5L539.5 191.25L540.75 185.25L542.5 177.5L544.25 169.5L545.25 166L547.25 157L549 148.5L548.75 146L547.25 143.25L546 141.75L544.5 141L539.25 139.75L533 138.5L527.75 137.25L523.5 136.5L515.25 134.75L515.75 138.25L516.5 140L520 141.75L521.5 143.5L521.75 144V148L520.75 150L519.5 151.25L517.5 152.5L514.75 152.75L513 152.25L510.75 150.5L509.25 147.75L509 144.5L510.75 141L510.25 138.25L509 133.5L505 132.5L498.75 131.25L495.5 130.75L493.5 130L491.5 129.75H488.25Z" fill="white"/>
<path d="M465 261.75H470.25L476.75 262.25L480.75 263L487.5 265L493 267.25L497 269.25L500.25 271.25L503.25 273.25L506.25 275.5L511.25 280L513.25 282L515.5 284.75L518.25 288.5L520.25 291.75L522.75 296.25L524.25 299.75L526 304.5L527.5 309.5L529 320L529.25 325.25L528.5 332.5L527.75 337L527.25 339.75L524.75 347.25L522.75 352L519.75 357.25L518.25 359.25L515.25 363.5L512.25 366.75L511.75 367.5H511.25V368L509.25 369.75L506.75 372L503.5 374.5L499.75 377L497 378.5L493 380.5L487.25 383L481.75 384.5L478.75 385.25L469.75 386.25H462.75L460.25 385.75L456.75 385.5L452.5 384.75L450.5 384L446.25 383L443.5 381.75L440.25 380.5L434 377.25L430.25 374.75L427 372.25L423.5 369L421.5 367.25L418.75 364.25L416.25 361L413.75 357.25L411.5 353.5L408.5 347.25L406.75 342.25L405.25 335.75L404.5 330.75V317.75L405.25 312.75L407.25 305.25L409.25 299.75L411.25 295.75L413 292.5L415.5 288.75L418 285.25L421.25 281.5L425.5 277.25L428.25 275L431 273L436.25 269.75L442.5 266.5L450.75 263.75L456.5 262.5L460.25 262L465 261.75ZM461.5 268.5L455.5 269.75L451 270.75L446.25 272.5L439.75 275.75L436.75 277.5L432.5 280.5L429.75 283L427.75 284.75L424 288.75L421.5 292L418.5 296.75L416.5 300.75L414.75 304.75L412.75 310.75L411.5 317.25L411.25 321L411 322.5V327L411.25 328L411.75 333L413 339L415 345L417 349.25L419.75 354L422.75 358.25L425.5 361.25L427.5 363.5H428L428.25 364.25L430.25 366L434 369L437.75 371.25L442.75 374L447 375.75L452.25 377.5L460.25 379.25H473.25L477.5 378.5L483 377.25L489.25 374.75L493.25 372.75L496.75 370.75L499.5 368.75L502.75 366.25L505.75 363.5L508.5 360.75V360.25H509L511.5 357L514.25 352.75L516 350L518 345.5L519.75 340.5L521.5 333.5L522 327.5V318.5L521.25 313.25L520 308.75L519.5 306.75L517.5 301.5L515.5 297.5L513.5 294L511 290.5L509 288L505.5 284.25L503.75 282.5L500.25 279.75L496 276.75L490.5 273.75L488.75 273L485.75 271.75L481.25 270.25L477.25 269.5L475 269L471.75 268.5H461.5Z" fill="white"/>
<path d="M490.75 290.75H494.25L497.25 291.75L499.5 293.5L501 296L502 298.5L502.25 301.25L501.75 303.25L499.5 306.5L497.25 309.5L493.75 314L490.5 318L488.25 320.75L485.75 324L482.5 328L479.75 331.5L477.25 334.75L474 338.75L471 342.5L468.25 346L466.5 348.25L464.25 350L462 350.75L460.25 351L457 350.25L455.5 349L453.75 347L452 345.25L450.25 343.25L447.25 339.75L444.25 336.5L439.75 331.5L436.75 328L434.75 325.5L433.75 323.5L433.25 321.25V318.75L434 315.75L435.5 313.5L437.25 312L439.75 311H443.75L446.25 312L448.75 314.25L451.5 317.25L453.75 320L456.5 323L458.75 325.75L460 327.25L461.25 326L463.5 323.25L466 320L468.25 317.25L470 315L472 312.5L475.5 308L478.25 304.75L480.5 301.75L483.75 297.75L486 295L489 291.75L490.75 290.75Z" fill="#466671"/>
<path d="M426.25 126L427.75 126.25H454.5L458 127.5L460.25 129.25L461.75 131.75L462.25 133.25V185.25L461 187.5L460.5 188H458.5L457.25 187.25L456.5 186.25V136L455.5 134L453.75 132.75L437.75 132.5H427.25L386.25 132.75L383.75 133.75L382.5 135.75L382.25 139.25V199.5L382.75 202L383.75 203.5L385.75 204.25H451.75L454 205L454.25 206L453.75 209.25L453 210L451.75 210.25H427.75L418 210.5H406.75L384.25 210.25L381 209.25L378.5 207.25L377.25 205.25L376.5 202.75L376.25 200.25L376 146.25V137.25L376.5 134L377.75 131L379.25 129.25L382 127.5L384 126.75L389 126.5L425.75 126.25L426.25 126Z" fill="white"/>
<path d="M254.75 105H503.25L504.25 105.25H506L506.75 105L511.75 106L512.25 108.5L512 110.5L510 111.5L509 111.75H320.25L261.75 111.5L260.5 111.25L259.75 111.5H257.5L254 110.5L252.5 108.75L252.75 106.5L253.75 105.25L254.75 105Z" fill="white"/>
<path d="M290.5 126H322L344 126.25L357.75 126.5L361 127L363.75 128L366.25 130.25L367.5 132.5L367.75 133.5V203.75L366.75 205.5L365.25 207.5L363.5 209L361 209.75H351L349.75 208.75L349.25 207.75V206.25L350.25 204.25L350.75 204L359 203.75L360.75 203L361.5 201.75L361.75 200.75L362 177.25L361.75 136.25L361 134.25L360 133.25L358.5 132.75L330.25 132.5H289.75L288.25 133.75L287.75 135.25L287.5 138.25L287.25 150.75L285.25 152H283.75L281.75 150.5L281.5 147.5V133.5L282.5 130.75L284.5 128.25L288 126.5L290.5 126Z" fill="white"/>
<path d="M317.75 176.25H322.25L324.75 176.75L327.25 178L329 179.5L330.5 181.5L332 184.5L332.75 188V193.25L332.25 195.75L331.25 198L329.25 200.75L327 203.25L324 205.75L321.75 207.25L316 209.25H310.25L307.5 208.25L305.25 206.75L302.5 203.5L300.75 200L300 197.75L299.75 195.75V193.25L300.75 190L302 187L304.25 184L307.25 181L311.75 178.25L314.5 177L317.75 176.25Z" fill="white"/>
<path d="M276.75 59.5H281.25L282.5 60.25L283.25 61.25L283.5 62.5V89.5L282.75 91L281.75 91.75H278.75L277.5 91L276.75 89.75L276.5 84.25V80.5L276.75 73.25H276.25L276 75L273.25 81.75L271.5 85.75L270.75 86.25L267.5 86.5L266 85.75L264.25 81.75L263 78.5L261.25 74L260.5 73.75L261 75.5L261.25 82.75L261.75 86.25V88.5L260.5 91L258.75 91.75L255.5 91.25L254.5 90.5L254.25 89.75V67.25L254.5 62.5L255.25 61.25L256.75 60.25H261.25L262.5 61.5L264 64.5L267 72.5L268 75L268.25 76.75L269 76.25L270.5 72.25L271.75 69.25L272.75 66.75L274.5 62.25L276 60L276.75 59.5Z" fill="white"/>
<path d="M382.75 221H446.5L448.75 221.5L450 222.5L450.5 224L449.5 226.5L449.25 226.75L434.75 227L384.5 227.25L383 227.5L382.25 229.25L382 229.5V252.5L381.75 255L381 256.25L379 256.75L377.5 256.25L376.75 255.25L376.25 254V229.75L377 226L377.75 224.5L378.75 223.25L381.25 221.5L382.75 221Z" fill="white"/>
<path d="M498.5 195L500.5 195.25L506 196.25L507.5 197.25V199L506.5 201.5L505.5 202L502 201.75L501 204.75L500 209.25H502L504 210L504.25 210.5V212.5L504 214.5L505.5 215L506.5 216V218.75L506.25 220.5L509.25 221.25H509.75L511.75 212.5L512.5 210L513.5 209.75L516 210.75L516.25 211V213.25L515.75 217L518.5 217.5L519.5 215L520 213L522.5 213.25L523.75 214L524 214.5L523.25 218L522 220L519 220.5L518.25 222.75L517.75 225.5L518 226.75L520 227.75L520.25 228V230.75L519.5 234.5L518.5 236.5L518 237L515.5 236.75L514.25 235.5L514.5 232.75L515.5 229.75L515.25 228.5L513.25 227.5L512.75 229.5L511.75 231H509L505.5 230.25L504.25 229.5L504.5 226L504.75 225L502.25 224.75L501 224.5L500.75 226.75L499.75 228.25L498 228L496.25 227.25L496 227V225.25L496.25 223.25L492.75 221.5L492.5 220L492.75 218L492.5 217.75L490.75 217.5L489.75 216.5V213.75L491 211.75L493.25 212L498 213.5L498.5 214L498.25 218.5L501.25 219.25H501.75L502.5 215.75L498.75 213.5V211.75L499.5 209.25L495.75 207.75L495.5 207.5V205.75L497.25 198.5L498.5 195Z" fill="white"/>
<path d="M341.5 238.5L347.75 239L352 240.5L354.25 241.5L359 244L362 246.25L365 249L367.75 252.5L370 256.25L371.5 259.5L373.25 264.75L373.75 267.5V277.25L373 282L371.5 285.25L369.75 287.25L369.25 287.5H367L365.75 286.75L364.25 284.5L364.5 282.25L365.25 279.25L365.5 276.75V270L365 266.5L363 261.25L361.25 258.25L359 255.5L356.25 252.75L353 250.5L350 248.75L345 247L341 246L339.5 245L338.75 244L338.25 241.5L339 240L340.25 238.75L341.5 238.5Z" fill="#466571"/>
<path d="M318.25 59.5H323.5L327.25 60L330.75 61.25L332.25 62.25L334.25 64.5L335.75 67.75V72.25L334.75 75.75L333.25 78.25L332.25 78.75V80.25L335 86.25L336.75 89.25V90.75L335.25 91.75L333.25 92.25L331 92L329 90.25L327 86.25L325.5 82L325.25 81.25L322.75 81L322.5 90.25L321.5 91.5L321 91.75H318.75L316.5 91.25L315.25 89.75L315.5 80.75V76.5L315.25 71.25V62.25L316 61L317.25 59.75L318.25 59.5ZM322.5 66.5L322.25 66.75V74.5L322.5 74.75H326L327.25 74L328.25 73L328.75 71.5V69L327.75 67.25L326.75 66.75L325.25 66.5H322.5Z" fill="white"/>
<path d="M342.25 59.75H344.75L346.5 60.5L347.5 62V72.25L350.25 67.75L354.5 61.5L356.25 60L356.75 59.75H361.25L362.75 60.5L362.5 62.25L359.25 67L356 71.25L354.5 73.25L354 73.75L354.25 74.75L356.5 78.75L360 85L361.5 87.5L362.5 90L362 91.5L360.25 92.25H356.5L354.5 90L351.75 84.5L349.75 80.25L349.25 79.25L348 81.25L347.5 82.75V89.75L346 92L345.5 92.25H342.75L341 91.25L340.25 89.5V62.5L340.75 60.75L342.25 59.75Z" fill="white"/>
<path d="M484.75 219.5L487 219.75L492.25 221.5L492.75 222.5L492.25 225.5L492 226.75L495 227.5L495.75 228.5L495 231V231.75L498.25 232.25L499.25 232.75L500 229.25L500.25 229L502.5 229.25L504 230L503.75 232.25L503.5 233.5L505.75 234.25L510.5 235L511.25 236V237.5L510.25 240L513 240.5L516.75 241.5L516.5 243.5L515.75 246L515.25 246.5L513 246.25L508.25 245L504 244L502 243.25L501.5 242.25L501.75 239.5L502 238.75L499.25 238.5L497.25 238V239.75L496.25 242.25L494 242L492.5 241.25V236.75L493.25 234.25L493.75 233L492.25 231.75L490.75 231L490.5 230.75L490.75 228.75L491 227.25L487.25 227L486.25 229.5L485.75 230H482.5L475.5 228.75L475.25 232.25L480.25 233.25L484.75 234L485.25 231.75L485.5 231.5H487.5L489 232.5L489.75 233.5L489.5 235L488.25 238.75L487 239.5L484 239.25L478.75 238.25L474.5 237L471.25 236L469.75 235L469.5 234.75V232.25L470.75 228.25L471.5 225L472.25 223.5L474 223.25L479.5 224.25L482.5 225L483 222.75L484.25 220L484.75 219.5Z" fill="white"/>
<path d="M296.75 59.5H302L303.25 60.25L304.5 62.25L305.5 66L307 71L309 78L310 81.75L311 85.25L311.75 88.25L312 89V91L311.25 91.75L308.5 92.25L306.25 92L305 90.5L304.25 87.25L304 86.25L295.25 86.5L294 90.25L292.5 92.25H289.75L288 91.5L287.5 90.75V88.5L289.5 80.75L290.25 78L291.5 73.25L293.25 67.25L294.5 63L296 60L296.75 59.5ZM299.25 68.5L298.25 73.5L297.25 77.25L297 79.75H302.25L302 77.5L300.75 71.25L299.75 68.5H299.25Z" fill="white"/>
<path d="M467 59.5H472L473.25 60.25L474.5 63L475.75 67.5L477 71.5L478 75.5L480 82.5L480.75 84.75L481.75 88.75V90.75L479.75 91.75L478 92.25H476.25L475.25 91.25L474 86.75V86.25L465.25 86.5L463.75 90.5L462.75 92L462.5 92.25H458.25L457 91V89L458 85.25L460.5 76.75L462.25 70.25L464.25 63.5L465.5 60.5L466 59.75L467 59.5ZM469.25 68.75L467.5 74.75L466.75 79.5L467 79.75H472L472.25 79L470.5 71.25L469.5 68.75H469.25Z" fill="white"/>
<path d="M517.75 59.5H523.75L524.75 60L525.75 59.5H531.25L532.25 60.75L533 63V65L532 66.5L530.75 66.75H521L521.25 67.75L521 72.5L529.75 72.75L530.75 73.5L531 74.5V76.75L530.5 78.5L529.75 78.75H521V84.75H531.25L532.5 86L533.25 87V89.25L532.25 90.75L531.5 91.5L529.75 92H516L514.5 91L514 90.5L513.75 87.25L514 61.5L515.25 60.25L516.25 59.75L517.75 59.5Z" fill="white"/>
<path d="M496.25 59.25H499.25L502 59.75L505.25 61.75L507.5 64.25L509.5 68.75L509.25 70.25L506.75 71.75H504.75L503 70.25L501.5 68V67.5L499.25 66.75L497 66.5L495 67L493.5 68L492 70.5L491.25 72.75L491 74V77.75L492.25 81.5L493.75 83.75L496.25 85L498.25 85.25L501.25 84L503 82.25L504.5 80.5L505 80.25H507L508.5 81L509.25 82.25V84L507.5 87.25L505.25 89.75L503.5 91.25L502 92L498.25 92.5L494.5 92.25L490.25 90.25L487.5 87.5L485.75 84.5L484.5 81L484 78.5V72.75L485.25 67.5L487.5 63.75L489.25 62L493.5 59.75L496.25 59.25Z" fill="white"/>
<path d="M368.25 60L380.5 60.25L383 60.75L383.75 61.5L384 62.25V64.5L383.25 66.75L383 67H373.5L373.25 70.75V72.75H378L381.25 73L382 74L382.25 74.75V77.25L381.25 78.75L379.25 79H373.5L373.25 80.25V84.75H382L383.25 85.5L384 86.75V89.75L383 91.5L382.25 92H368L366.25 90.75L365.75 89.75L365.5 86.25L365.75 69.5L366 61.75L367.5 60.25L368.25 60Z" fill="white"/>
<path d="M413 60.25H424.75L427.75 61.5L430 63.5L431.75 66.5L432.25 68.5V72.75L431.75 75.25L430.25 77.75L428 80L425.5 81.25L423 81.75H418.5V89.5L418 91L417.25 91.75L416.5 92H413L412 91L411.5 90V62.25L413 60.25ZM418.25 66.75V70.5L418.5 74.75L419.5 75H422L423.75 74.25L424.75 73L425.25 71.25L425 69L424.25 67.5L423 66.75H418.25Z" fill="white"/>
<path d="M487 154.25L489.5 154.5L491 155.25L491.75 157.25L493.75 168L494.25 170.25V171.25H494.75L495 169L496.25 164.25L497 160.5L498.25 157L499.5 156.75L502.25 157.5L502.75 158.25L502.25 162.5L500.25 171.5L497.75 181.25L496.5 184.25L496.25 184.5H493.75L492 184L491 181.5L489.5 173.75L488.75 170.75L488.5 169L487.25 173L486 179L484.75 182L484.25 182.5L481.5 182.25L480.5 181.25L480.25 180.75L480.5 178L481.5 173.25L482.5 169.25L483.25 165.25L484.25 161.5L485.25 155.75L486.25 154.5L487 154.25Z" fill="white"/>
<path d="M528.25 374.75L532.5 375.5L534.75 376.75L537.25 378.75L539.25 381L541 383.75L542 387.5V390.75L541 393.25L538.75 396.25L532.5 402.5L531 403L528.25 400.75L525.75 398.25L524 396.25L520.75 393L519 391L517.75 390V389.5L516.75 389L514.75 386.5L514 385.5L514.5 384.5L516.75 382.25L519.5 380L521.5 378L524.75 375.75L528.25 374.75ZM527 380.75L524.75 381.75L522.75 383.5L522 384.5L522.5 385.5L523.75 386.75L525.5 388.75L529 392.5L530.75 394.75L532 395.5L534 394L535.5 392.25L536 391L535.75 388L534.75 385.75L532.75 383.25L530.5 381.5L528 380.75H527Z" fill="white"/>
<path d="M446 396.25L453.5 397.5L457.25 398.75L459 400.25L460.5 403.25L460.75 404V407.5L459.5 410.5L458.25 412.25L456 413.25H455.5L457.25 418.25L458.25 422.25L456.75 423H454.5L452.5 422.5L451.75 421.5L450 416L449.25 414.25L448 413.75L447.25 416L445.75 420.75L445 421.25L442 420.75L440.5 419.75L440.25 418.25L441.25 414.25L442.5 407.25L443.5 403L444.25 399.5L445.5 396.5L446 396.25ZM450 402.25L449.5 403.25L448.5 407.75V409L449 409.25H452.5L454 408.5L455 406.5L454.75 404.75L453.25 403L451.5 402.25H450Z" fill="white"/>
<path d="M388 60.25H407L408 61L408.25 61.75V65.75L407.75 66.75L407.25 67L401.25 67.25L401 80.25V90L400 91.25L399.5 91.5H396L394.5 90.75L394 89.75V67H389.75L387.5 66.5L387 65.5L386.75 62.5L387.75 60.5L388 60.25Z" fill="white"/>
<path d="M439 59.75L441.25 60.25L442.5 61.25L442.75 61.75V84.75H452.75L454 85.5L454.5 86.25L454.75 88.25L454.25 90.75L453.75 91.75L453.25 92H436.75L436 90.75L435.75 62.5L436.25 61L437.75 60L439 59.75Z" fill="white"/>
<path d="M335.75 252.75L339.25 253L344.5 254.75L348.5 256.75L351.5 259L354 261.5L355.75 264L357.75 268.25L358.25 272.25V275.5L357.75 279.25L356.25 281.5L355.5 282.25L354 283H352.25L350.25 281.5L349.75 280.25L350.25 275.25V272.5L349.25 269.25L347.5 266.5L345.75 264.75L343.5 263.25L341.5 262.25L338.25 260.75L335.5 260L334 258.75L333 257L333.25 255.25L334.75 253.25L335.75 252.75Z" fill="#466672"/>
<path d="M526.75 162.75H530.75L533.25 163.75L535.5 165.75L537 169L537.25 169.75V173.75L536.25 174.75L535.25 175H533L532 174L531.25 170.75L530 169.5L529.25 169L527.5 169.25L526 170.5L524.5 172.75L523.5 177L523 179.25V183L524.25 185L524.75 185.25H526.75L529 183.75L530.5 182L531.25 181.75L533.25 182.5L534 183.5V185.25L533 187L530.25 190L527.25 191.5L524.75 191.75L522.25 191.25L519.75 189.5L518.25 187.5L517.5 185.25L517 182.25V180.25L518 174.25L519.25 170.75L520.5 168.25L522.25 166L524.25 164.25L526.75 162.75Z" fill="white"/>
<path d="M511.25 386.75L513 387L513.75 387.75L514.25 389.25V390.75L511.75 392.75L507.75 394.75L507.5 396L508.75 399L510 398.5L513.5 396.75L515.25 396H516.5L517.75 398L518 399.25L516.25 400.75L511.5 403.25H511L513 407.75L514.25 407.25L520.25 404L521.25 403.5L522.5 403.75L523.5 404.75L524 407L523.5 408L519.25 410.5L515.5 412.75L513.25 414.25L511.75 415H510.5L508.75 413L506.25 408.25L504 404L500 396L499.25 394.25L499.5 393.25L501.25 391.75L504.75 390L509.25 387.5L511.25 386.75Z" fill="white"/>
<path d="M428.75 389.5L430.5 389.75L437.75 393L441.25 394.5L442.25 395.5L442.5 396.5L441.5 399.25L441.25 399.75L439.5 399.5L435.75 398.25L432.75 397L431.75 396.75L431.25 398.25L430.25 400V400.5L435.75 403.25L437 404.75L436.5 406.5L435.25 408L431 406.5L428.75 405.25H428.25L426.5 409V409.75L430.75 411.5L433 412.5L434 413L434.25 413.5V415.5L433.25 418L432.25 418.25L422 413.75L419.5 412.25L419.25 412L419.5 410L425.5 396.5L427.5 391.75L428.75 389.5Z" fill="white"/>
<path d="M409 375.75L410.5 376.25L413.5 378.5L413.25 380.25L411.75 385.75L409.25 393.75L408.5 395.75L410.5 394.75L412.25 393.25L415.5 390.75L420 387.25L422.75 385.25L424 385.75L426.75 387.75L427.25 388.5L426.5 389.75L424.5 391.5L420.25 394.5L416.25 397.25L412 400.5L408.5 403.25L407.5 404L406.25 403.75L403.5 402.25L402.5 401.25V398L405.5 385.5L406.5 381.5L407.5 378.25L408.75 376L409 375.75Z" fill="white"/>
<path d="M507.75 159L510.5 159.25L514.25 160.25L518.5 161L519.75 162.25V164.5L518.75 166.75L518.25 167L515 166.75L511 166L510.25 168.25L509.75 171.75L513.25 172.5L514.75 173.5V175.25L513.75 178L513.25 178.5L510.25 178L509 177.5H508.25L507.25 180.75L506 186L504.5 186.75L502.25 186.5L500.75 185.75V183.25L502.25 177.25L503.5 172L505.25 164.75L506.25 160.5L507.25 159.25L507.75 159Z" fill="white"/>
<path d="M486.5 397H488.25L488.75 397.75L489 399V401.25L488 402L484.5 402.75L480.5 403.5L481.25 408.75L486.5 408.25H488.5L489 409.75V412L488.5 412.5L482.75 413.5H481.75L482.75 420.5L482.5 422L480.5 423.25H478.5L477.25 422.5L476.75 421.5L475.5 414.25L474.75 408.25L474 401.25V399.75L475.25 399L479.75 398.25L486.5 397Z" fill="white"/>
<path d="M480.5 191.75L483 192L486.25 192.75L490 193.75L492.75 194.5L493.5 196L492.25 204.25L491.25 207.5L490.5 208.5H488.5L481.5 207.25L477.5 205.75L476.75 205V203L477.5 200L479.25 193.75L480.5 191.75ZM483.5 197.5L482.75 199.75V201.5L485 202.5L486.5 203L487.5 201.5L488.25 199.5V198.5L486 198L483.5 197.5Z" fill="white"/>
<path d="M244.25 233.25L246.25 233.5L250.75 236L253.25 237L259 238.25H264.25L267.75 237.25H269.75L271.25 238.5L271.5 239V241.25L270.25 242.5L266.5 243.75L264.5 244.25H257.5L250.25 242.75L247 241.5L244.75 240L243.25 238L242.75 236.75V234.75L243.75 233.5L244.25 233.25Z" fill="white"/>
<path d="M239.25 167H240.75L243.25 168.5L244.75 170.5L246 173.25L246.5 175.25V180L245.5 182L243.5 183.75L242.75 184H239.75L237.75 182.25L236.75 181L235 177.25L234.75 176.25V171.5L235.5 169.5L237.5 167.75L239.25 167Z" fill="white"/>
<path d="M494.25 394.75H496L496.75 396.75L498.25 401.5L500 407.5L501.5 413L502.5 416.5L502.25 418L500.25 419.25L499 419.5H497L494.75 412.75L490.75 398.5V395.75L492.5 395L494.25 394.75Z" fill="white"/>
<path d="M512 198.25H514L520 199.75L524.25 200.75L525.75 201.5L526 202V204.5L525.25 208.5L524.25 209.75L522 209.5L518 207.5L517.5 207L517.75 204.5L514.25 203.75L513.75 205.5L513 206.5L510.25 206.75L508.75 209.25L508.25 209.75H506.5L505.25 209L504.75 208.5L505 206.5L506 202.75L507 201.75L509 202.5H509.75L510.5 199.75L511.5 198.5L512 198.25Z" fill="white"/>
<path d="M469 398.75L470 399V423L468.5 424H466L464.75 423.25L464.25 422V414.5L464.5 404V400.25L465.25 399L469 398.75Z" fill="white"/>
<path d="M361.5 371.75H363.5L364.75 372.5L365.5 373.75L365.25 375.25L360.75 382L357.25 386.5L355.5 388.25L354 389L351.5 387.5L348.5 384.5L346.75 382.5L345.75 381V379.25L346.5 378L347 377.75H348.75L351 379.25L353.75 382L354.75 381.5L357.25 378L360 373.5L361 372L361.5 371.75Z" fill="white"/>
<path d="M259.25 162.75H262L263.5 163.75L265 165.5L266 168L266.25 169.5V174L265.5 176.25L264.25 177.75L263 178.25H261L259 176.5L258 174.75L256.5 170V166.25L257.25 164.75L258.5 163.25L259.25 162.75Z" fill="white"/>
<path d="M481.75 210.75H483.5L485.25 211.5L485.5 212.75L484.5 216L483.5 216.75H480.75L480.5 218.75L479.25 220.25H476.75L474 219.25L473.25 218.75V216L473.75 214L474.5 213H476.75L481 213.75L481.25 211.5L481.75 210.75Z" fill="white"/>
</svg>
