<svg width="688" height="686" viewBox="0 0 688 686" fill="none" xmlns="http://www.w3.org/2000/svg">
<path d="M46.2 91V21H59.2V91H46.2Z" fill="#E6E8EB"/>
<path d="M292 46H300.25L304 46.75L310.5 48.25L315 50.25L318.5 52.75L320.5 54.75L322.25 57.25L323.75 60.5V64.25L324.25 65.5V67.75L322.5 73.75L320.5 77L318.25 79.5L316.5 81.5L314.25 84.25L315.5 84.5L319.5 86.5L326 90L328.5 91.75L331.25 94L334.25 96.75L336.75 99.5L340.25 104.25L343.5 108.75L344.5 110L347.5 112.25L351.5 114.25L356 115.75L362.5 117.25L365 117.75L371 118.25L382.75 118.5L386 118.75L388.5 119L397.75 119.75L404 120.5L408.5 121.75L413.25 123L417.25 125L420 126.75L423 128.75L425 130.5V131L426 131.5L427.75 133.5L430 136.5L432 140.25L434 145.25L435.5 149.75L436 152.5L436.25 155.25V165L436 167.5L434.75 173.75L433.75 177.75L432.25 182.25L431.25 184.5L429.75 188L427.5 192L425.25 195.5L421.75 200L419.5 202.75L418.25 204.25L417 205.5L414.25 208.5L412.25 210.25L409 213.25L406.25 215.25L403.5 217L400.5 219.25L395.25 222.25L389.25 225L386 226.25L383 227.75L374.75 230.5L368.75 232.25L356.25 235.5L354 235.75L355.25 238.5L357 243.5L359 247.5L361.75 252.5L364.25 256.5L367.25 260.5L369.25 263L372.25 266.5L374.25 268.75L376 271L378.75 274L381 276.5L382.5 278.5L385.5 281.5L387.25 283L388.25 284.25H388.75L392 278.75L394.5 274.5L397.25 271L400 268.75L404 266.75L408.25 266L409.75 265.75H412L419 266.75L423.25 267L426 267.75L436.5 269.25L439.75 270L447.75 271L452.5 272L460.5 273.25L474.5 275.5L481.5 276.5L485.25 277L488 277.75L498 279L504.75 280.25L508.75 280.75L514 282L520.75 283L531 285L535 286.5L537.75 288.5L539.75 290.75L541.75 293.75L543.25 297.25L543.75 299.5L544 303.5V307.25L543 311.25L538.5 322.25L535.75 328.75L534.5 331.75L532.5 336.25L530.5 341L528.25 346L525.25 353.25L522 360.5L519.25 367L517.5 370.75L515.25 376L512 383.25L509.5 389L507.25 394L504.75 399.5L502.75 404.25L501 408.5L499 412.5L496.75 417.5L493.75 424.75L492 428.5L489 435.25L485.5 443.25L483.5 447.75L481.5 451.75L480 455.75L483.25 455.25L485.75 455.5H489.75L491.25 455.25L492 455.5L495.75 455.75L497.75 456.5L498.75 457.25H499.75V456.75L503 456.5L506.25 457.25L509.5 459L511.5 461L513.5 460.75L516.75 461.75L518 463V464.75L517.25 465.5L515 466.25L511.25 466.75L512 468L513.25 468.75L513 470.5L512.25 472L510 473L502.5 475L496.75 476L494.25 476.75L487 477.75L485.25 478.25H483.25L482.5 478.75L475.5 480L472 481L467.5 481.5L461.5 481.75L459.25 483.25L455.5 484.75L453.25 485.25L450.5 485.5L443.5 485.25L439.75 484.75L431 483L426.75 481.75L422.75 481L419 480L415 479.25L413 479L409.75 478L404 476.75L390.5 473.75L386 473L381.75 471.75L374.25 470L369 469L366.5 468.25L360.25 467L357.75 466.25L343.75 462.75L339 461.5L334 460L328 458.5L321.75 456.75L317.75 455.25L313.75 453.25L311.75 451.75L311 451V450.5L310 450L309.25 449L307.75 445L307.5 444V437.5L309.25 431.5L312 425.75L315 420.5L318 414.75L320 411.25L322.75 406.25L324.25 403.25L326.5 399.25L327.75 396.75L330.75 391.25L333 387.25L335.5 383L338.5 377.5L342.25 370.75L343.75 367.75L346.25 363L348.25 359.25L349.75 356.5L352.25 352L355 346.5L357 342.75L358.75 340L359.25 339.5L361.25 339.25L367 342.25L368 343.5L368.5 344.25L368.25 346L366.75 349.5L364.25 354.25L363 356.75L360.5 361.5L356.75 368.5L354.75 372.5L350.75 379.75L348.25 384.25L346.25 388.25L344.75 390.75L343.5 393.25L341 398L338.75 402L336.75 406L334.5 410.25L332.5 414.25L331.25 417.25V420.25L332.25 422L333.5 423.25L336 424.75L343.75 426.75L346.75 427.25L357.25 429.75L364.25 431.25L367.5 432.25L370 432.5L370.75 432.75L373.5 433L375.75 434L379.75 434.75L383.5 435.25L385.5 436L391.5 437L395.75 438L402 439.25L405.25 439.75L411 441L413 441.75L420 442.75L423.75 443.75L431.75 445.25L436.75 446.25L442.75 447.25L444.75 447.75L448.25 448L449.5 448.25L453.75 448.5L456.75 447.75L459.75 445.75L461.75 443.25L463.25 440.5L464.5 437.75L466.75 432.5L469.5 426.5L471.75 421.25L475 414L478 407.25L479.75 402.75L481.75 398.5L483 396L484.25 393L487.5 385.25L489 382.25L491 377.5L492.5 373.75L496.25 366L498.5 360.75L499.75 358L502 352.5L503.25 349.75L505.5 344.5L509 336.25L511 331.5L512.25 328.75L514.75 322.5L518.25 314.25L520.25 309.5L521.75 305.5L521 303.25L519.75 301.75L516.25 300.25L512.25 299.5L509 299L505.5 298.25L491.25 296L473 293L464 291.5L455.5 290L445.5 288.5L435 287L433.25 286.5L426 285.75L421.5 284.75L418.25 284.25L413 284L410.5 283.25L410.25 284L408.25 283.25L406.75 283.5L406.5 283.75L404.25 284L402.25 285.25L400.75 287L398.5 290.25L396.75 293.75L393.75 299L391.75 303L387.25 311.25L384.75 315.5L382.5 318L381 319L379.75 319.25L378 318.75L377.25 318L374.25 317L373.25 315.75L373 314L374.5 310.5L377.25 305.5L378.5 303L381.5 297.5L383.5 293.5L385 291L385.5 289.5L384.25 289L379.5 284.25L378.25 282.75L376.25 281.25L373.75 278.5L371.5 275.75L368.25 272L366.5 270L363.25 266L360 261.75L357.75 258.5L353.25 250.5L352 247.75L350.5 244L349.5 238L349.25 236.75L348.25 237L344.75 237.25H341.5L339.5 237L338.5 235.25L338.25 234.25V232.25L339.5 231.5L346.25 230.75L348.75 230L355 228.75L358.75 227.75L363 226.75L373.75 223.75L378.5 222.25L382.75 220.75L385.75 219.5L388 218.5L394.25 215.25L395.5 214.5L398.5 212.25L401.5 210.25L404.75 207.75L407.25 205.25L409.25 203.5L411.75 201.25L414 198.5L416.5 195.75L419.25 192.25L420.75 190L422.75 186.5L424.25 183.5L425.5 180.5L427.25 175.75L429 169.25L429.25 167.25V165.25L429.75 162.5V154.75L428.25 148.75L426.75 144.75L424 139.75L421.75 136.5L419.75 134.5L416.5 132.25L412.5 130.25L408 128.5L401.5 127.25L396.5 126.5L392 126.25L391.25 126L380.25 125.5L376.25 125.25L375 125.5L359.5 123.5L353.75 122L349.25 120.25L346.5 119.25L343 117.25L339.75 114.5L338 112.5L334 106.75L332 104L329.25 100.75L326.25 97.75L322 94.75L316 91.25L312.5 89.25L309.5 88.25L308.5 88.5L299 91.5L283.25 96.75L280.75 97.75L277 99L271 101.25L269.25 102.25L266.75 103L260.25 105.75L255.75 107.75L249.5 110.25L246 112L240.25 114.75L234.75 117.5L230.5 119.75L224.5 123.5L222 125L222.25 125.25L224.75 125.5L226.75 126.5L228.5 129L229 130.75L229.5 132L232.25 132.25L236.75 134.5L239.25 136.5L241 138.75L242.5 141.75L243.75 147V152.5L242.25 157.75L241 160.5L241.5 161.75L243.25 163.75L244.25 165L247 170.25L248 174L248.25 176V181.75L247 186.25L245.5 189.25L243.5 192L241.5 193.5L241.25 195L243 198.5L244.5 203L244.75 204.25V212.75L244 216.5L242.25 222L240.25 225.75L238.25 228.5L236 230.75L234.25 233L231.5 235L230 235.75L228.75 242.5L226.75 247.75L223.5 253.5L222 255.5L220 258L218.5 260L216 262.75L213.75 265.5L211.5 268L209.5 270.5L205 276L202.75 279L199.75 283.5L197.25 287L194.75 290.75L193 293.5L191 296.75L187 304.75L185.25 309.25L183.5 316.75L182.5 322.75V328.75L183.25 332.25L185 337.5L187 341.75L189 344.25L192.75 348L195.5 350.25L198 352L199.25 352.5L201.25 353L202.5 354L208.25 355.5L211 356L215.75 356.25H224L228.75 355.75L232.75 354.75L237 354L242 352.25L246 350L248.25 348.25L250.25 346L252 343L252.5 341.25L252.75 339V336.75L250.25 337L243.75 338.5L237.75 339.25L232.5 339.5L231.5 338.75L231.25 338V336L232.25 335L234.25 334L238 333.25L242.25 332.5L245 331.5L249.75 330.5L252.5 329L253.5 327.75L254.25 325.5V323.25L253.75 321L252 317.5L250.25 316L246.25 315.5H243.25L238.25 316.5L236.5 317.25L234.25 318L231.5 319.25L230.5 319.5H226.75L225.75 318.5L225.5 318V316.25L226.75 315L230.5 313L234.75 311.25L237.25 310.25L238.25 309.75L244.5 309L245.25 308.75L245.75 309L249.5 309.5L248.25 305.25L246.5 302.25L245.25 301.5L243 300.75L239 300.25L237.75 300.5L234.25 300L230.25 300.5L221.75 302.25L215.75 304.5L213.5 305.5L211.5 306.5L208.25 308.5L205 310.75L203.25 311.75H201.5L200.25 311L200 310.25L200.5 308.5L201.25 306.75L202.5 305.5L205.5 303L208.25 301.25L211 299.75L213.25 298.75L216.75 297L223.25 295L226.75 294.25L234 293.75H235.5L234.75 287.5L233.75 278.75L233.5 278.25L232.5 267.5L232 264.25L231.75 259.75L232.5 258.5L234 257.5L240.5 256.25L246.5 255.25L257.25 253.75L263.75 252.75L272.5 251.5L284.75 249.25L299 247L307.5 245.75L318 244.75H321.75L322.75 245.75L324 251.75L326.5 266.25L327.5 274L328.5 279.75L329.75 287.75L330.5 292.25V294.75L329.75 296L328.25 297.25H326L325.25 296.5L323.5 289.75L321.5 276.75L319.75 264.75L317.75 251.25L306.75 252.75L298 254L287 255.75L271.5 258.5L263 259.75L250.5 261.5L241.25 263L238.5 263.25L239 267.25L239.5 273.5L240 277.5L240.75 284.25L241.5 293.25L243.75 294L246.75 294.75L249.75 296.25L252 298.25L254.25 301.75L256 305.75L256.5 308.25L262.5 306.5L265.75 306H267.5L271.75 307.25L277 310L281.25 313.5L284.75 316.25L287.5 318.5L288.75 319.25L289.75 318L293.25 315.75L298.5 314L301.5 313.5L305 313.25H308L311.25 313.75L316.75 316.25L320.5 319.75L321.75 321.75L321.5 323L319.75 325L318.75 324.5L314.75 321.75L310.5 319.75L308.5 319.25H303.75L299.5 320L295.5 322L293 323.5L294.25 324.75L297 327L300.75 329.5L302.5 331.25L302.75 333L301.5 334.5L300 335L298.25 334.75L295.25 333L291 329.75L288.25 327.5L285 324.5L283 322.75L280 320L277.25 317.75L274 315L269.5 312.25L266.25 311.5H261.5L258.25 312.25L258 312.75L258.5 315.5L260 319L260.5 323L260.25 328.5L259.5 330.75L258.25 333L258.5 335.25L259 338L258.75 341.75L258.25 344.75L255.5 349.25L253.25 352.25L251 354.25L250.5 354.5V359.75L250.75 365L251 365.75H253.25L256.5 365.25L260.75 364.5L270.5 363L276.75 362L280.25 361.5L283.5 360.75L288.75 360L293.25 359.25L295.75 358.75L303 357.75L308 356.75L315.75 356L319.75 355L323.5 354.5L331 353.75L332.5 353.25L332 349L331 344.25L330.5 338L329 329L328.5 323.75L327.75 320L328 318.25L329.25 317L330 316.75H332L333.25 317.5L333.75 318.5L334.75 325L335.75 331.25L336.25 332L336.5 336L337 340L338.25 344.5L339.25 351.25L339.5 352.5V356L338.25 358L337 358.75L332.25 360L327.5 360.5L321 361.5L319 362L312.75 362.75L307.5 363.75L299.75 365L296.25 365.75L290.25 366.5L283.5 367.75L276.5 368.75L269.75 370L264 371L257.75 372L253.5 372.75L250.25 373.5H247.25L246.5 373V372.5L245.5 372L245 371.25L244.75 368L244 363.25L243.5 360.75L243.75 358.5L238.75 360L233.25 361.25L230.25 362L222.25 362.75L221 363L219.75 362.75H216.75L206.75 362L201.25 360.5L200.25 360L199.25 367.25L199 367.75L198.5 376.75L199 378.25V380.25L199.75 383.5L200.75 388L202.75 393.75L205 399.75L205.75 403.75L206 408.5V411.5L205.25 416.25L204 421L200.75 434.5L200.5 435.25L200.25 438V440.75L201 444.25L202 447.25L204 450L205.75 451.75L209.5 454.25L213 456L218.25 457.25L219 457.5L226.25 458L234.5 458.25L246.5 458L247.5 454L247.75 452.5V450L247 447.5L245.5 445.25L244 444V443.5L243.25 443.25L242.5 442.25V440.5L243.75 439L244.25 438.75H246.25L248.75 439.75L251.25 442L252.75 443.75L254.25 447L254.5 452.75L254.25 456.75L253.75 458.25L266.5 458L269 457.5L269.75 455.5L270.25 453.5V449L269.75 446.75L268.25 444.25L266 441.75L263.5 440L262.5 439L262.75 437.75L264.5 436.25H266.25L268.75 437L271.5 438.75L273.25 440.25L275 443L276 444.5L277 447.5L277.25 450.25V453.5L276.5 457.25L280.25 456.75L283.25 455.75L286 454L287 453.5L287.5 452.5L289.25 450L290.25 446.25V442.25L290 442L289.75 439.75L288.5 437.5L286.75 435L284.5 433L282 431.25L277.25 429L272.25 427.25L268.25 426.25L267 425.25L266.5 424.25V422L267.5 418L268.75 411.75L269.5 410L270 405.25L270.75 403L272.25 401.75L283.5 401.5L288.5 401.25L294.25 400L299 398.75L302.25 397.5L303.25 397.25H305.25L306.5 398.5L306.75 399V400.75L306 402.25L304.25 403.75L301 405L296.75 406.25L292.25 407.5H291.25L291.75 409.5L291.5 418.25L291.25 424.5L290.5 427.75L290 428.75L291 429.25L293.25 432L295.25 435L297.25 441L297.5 443.25V447.75L303.5 448.5L306 450L307 451.25L307.75 453.5L309.5 454.25L311.75 456L313.75 457.5L315.5 458.75L319.75 460.5L321 460.75L322.75 461.25H324.75L326 461L326.25 461.25L326.5 465L325.75 465.75L317.75 466.25L317 467L316 467.25L314.25 467L306.75 467.75L298.5 468L295.75 468.5L293.75 469L289.25 469.25L288 469L287.75 469.25L268.25 469.75H266.5L264.75 470H236.75L234.25 470.5L231.25 470.25L231 470.5H229.5L229 470H221.75L221 469.75H219.5L218.5 469.25L215 469L213.25 468.75L211.25 468.25L211 469H208.75L207.25 468.5L206 468.25V467.75H205.5L204.75 468.5L202.25 468L202 467L202.25 466.5L201.75 466.75V468L199.75 467.75L199.5 467.25H200.5L200.75 466.5L198.75 466.25L198.25 466.5V466H197.75L198 467L196.75 467.25L196 466.5L195.75 466L194.25 465.75L175.5 465L173 464.75L171 462.5L170 462.25L169 462.75L165.75 461.75L164.25 460.5L164.5 459.75L168 458L171.75 457H172.5V456.5L169.5 456.75L165.25 458.25L165 459L163.25 460H161.5L160.25 459.25L159.75 458.25L160 456.5L161 455.25L163 454.25L168 452.25L171.5 451.25L179.75 450L184.25 449.75L186.5 449.25L190.5 449H193.5L195.75 449.75L194.5 447.5L193.75 442.75V437.25L194.5 431.25L197.75 419L199.25 411V405.25L198 401L195.25 394L194 394.5L193.25 395.25L190.75 396L188.5 397L184.5 397.5H180.75L176.5 397L171.25 395L168 392.5L166.25 390.75L164.75 389L163.5 386.25L163.25 384.5L164 382.25H162.25L158.75 381.25L156 380L153 378.5L150 376L147.5 372L146.25 369.75L145.5 368.25L144.75 364.75L144 360.25V355.25L144.5 351.25L145.5 346.75L146.5 344.25L148.25 341.5L149.25 340.25L151.5 338.75L152.25 338.5H154.5L155.75 339L156.5 339.75L158.25 343.75L159.5 346L162 349.25L165.25 353.5L168 356.75L171.25 360L175.75 363L180 365.25L182.25 366.25L186.25 367.75L188.5 368.25L192.75 368L193.25 366.5L194 362.25L195 358.5V357.5L191.25 355.25L188.75 353.5L185 350L182.5 347L180 342.5L178.5 339.5L177 334.5L176 329.75V322.25L176.5 317L177 314.5L178 311L179.25 306.75L181 302L183.25 297.25L186.5 291.5L189.5 286.75L191 284.25L197.5 275.25L200 272L201.75 270L203.5 267.75L205.75 265L208.25 262L210 260L212.25 257.5L214 255.5L216.25 252.75L217.5 251.25L220 247.75L221.75 245L222.75 242.75L223.5 239.5V237.75L215.25 237.5L214.25 239L212.25 240.75L209.75 243L207.5 244.25L203.5 246.25L201 247.25L196.5 248.25H191.25L188.5 248L184.5 247L182.5 246.25L181.25 245.5L178.75 244.25L175.75 242.25L173.25 240L171 237.25L169 234.5L167 229.5L163.5 229L162.25 228.25L162 227.75L159.75 226.75L157.25 224.5L155 222.25L153 219.5L151.75 215.75L151.25 213.5V208.25L153.25 199.75L155.25 195.75L157.5 192L159.75 189.25L162.75 186.5L163 185.75V177.25L164.25 174.75L165.5 171.75L167.5 168.75L169.75 166L173.75 162L177 159.5L181 157L184.25 155.25L184.75 150.25L185.25 148.25L186.75 144.5L189.5 139.5L191.5 136.75L193 135.25H193.5V134.5H190L186.5 134L183.25 132.75L180 131L178.25 129L176.5 126.5L175.25 123.5L174.75 121.75V119.75L176 115.5L177.25 113L178.5 111.5L179.5 109L181.5 105.5L183.5 102.5L186 99.25L187.75 97L189.25 95.25L191.25 93.5L193.5 90.75L197 87.25L199.75 85L203.25 82.25L206.75 79.75L210.5 77L215 74.25L222 70L226 68L226.5 67.5L223.25 67L221 65.5L220 64.25L218 60.5L217.75 59.25L219.75 53.75L221.5 51.5L223.5 50L227.75 48.75L229 49L233.5 49.5L235.75 50.25L236.75 51.75L237.75 55.75L238 59.75L237.75 61.25L241.75 59.25H243.5L245 58L249 56.5L251 55.5L253.25 54.75L255 53.75L258 53L260.25 52L262.5 51.5L264.5 50.75L267.75 49.75L275.5 48L282.25 47L285.25 46.5L287.25 46.25L292 46ZM313.75 63.75L314.25 64.25V63.75H313.75ZM303.75 66.25L304.25 66.75V66.25H303.75ZM315.75 67.5L315.5 68.75L316.5 68.25L316.25 67.5H315.75ZM277.75 73.5L276.75 74L278.5 73.75L277.75 73.5ZM292.75 75.75L289 77.5L289.75 77.75L291.75 77L294.25 76.5V75.75H292.75ZM305.75 82.75L305 83.5L306.5 83.25V82.75H305.75ZM216.75 112.75L215.75 113.5L216 114L217.25 113.5V112.75H216.75ZM200.75 120.25V121.5H201.25V120.25H200.75ZM193 148.5L192.5 149V149.75H193.5L193.25 148.5H193ZM168.75 181L168.5 181.5H169L168.75 181ZM237.25 189L237.5 190L238.5 190.25L238.25 189.25L237.25 189ZM175 191V192.25L175.5 191.75V191H175ZM238.75 212.5L239.25 213V212.5H238.75ZM182.25 231.25L182.5 231.75L183 231.5L182.25 231.25ZM531 313.5L530.75 314.5L531.25 314.25L531 313.5ZM152 367L151.75 368L152.5 368.5V367.25L152 367ZM153.5 370.5V371.25L154.25 371.5L154 370.5H153.5ZM167 374.5L167.5 375.75L169 377L170 376.75L167.25 374.5H167ZM170.25 376.75V377.25L171.25 377L170.25 376.75ZM187.25 378.5V379H187.75V378.5H187.25ZM176.25 390.5L176 391L176.75 391.25L180.5 391.5V390.75L176.25 390.5ZM276 408.75L275.75 409L275 414.25L274.25 416.5L273.75 419.25V421L277 422L281.75 423.75L284.75 425.25L285.5 420L286 411.5V408.75H276ZM320.75 438.75L321.75 439.75L323.5 440.25L324.5 440L322 438.75H320.75ZM366 439.5L366.25 440.25L367.25 439.75L366 439.5ZM376.25 444.5L374 445.5L373.25 446.5L372 449.5L372.5 451L373.75 452.5L375.75 453.5L380 454.5L385.75 455.75L391.25 456.5H394.25L395.75 455.75L397.25 454L397.5 453.5L397.25 451L396.25 449.5L395.25 448.25L392.5 447.25L386.25 446L384 445.75L381.25 445L378.5 444.5H376.25ZM187 454.5L186.75 455H188.75V454.75L187 454.5ZM199 456.75L199.75 457.25H200.75V456.75H199ZM177.5 459.75L175.75 460H174.25L174.5 460.5L177.25 460.75L181.75 460.25L180.75 459.75H177.5ZM203.5 461.25L204.25 461.75H204.75V461.25H203.5ZM289.75 462.75V463.75L291 463.5L290.25 462.75H289.75ZM285 463.5V464L285.75 463.75L285 463.5ZM202.5 466.75L203 467V467.5L203.75 467.25L203.5 466.75H202.5ZM482.5 467.75V468.75L483.25 468L482.5 467.75ZM508.5 467.5L501.5 469.5L501 470H503.25L506.25 469.25L509 468.25V467.5H508.5Z" fill="white"/>
<path d="M435.5 304H437.5L439.25 304.5L442.5 304.25L445.75 304.75L448.5 305.25L452.5 305.75L458.25 307L463 308.5L469 311.25L473 313.75L476.25 316.25L479 318.75L480.75 320.75L483 323.5L484.75 326.25L486.75 331.25L488 335.5L488.75 342V347.75L488.25 352.25L485.75 362L484.25 367.25L481.25 374.75L480 377.75L478.25 381.75L476.5 385.5L474 389.75L471.5 392.75L469.75 394.75L465.25 397.25L462.5 397.75H459.25L456.25 397L453.75 395.75L451.5 393.25L450.5 391.25L450 389.25V386.25L450.5 383.75L452.75 378.75L454 376.25L455.5 373L457.5 368.75L458.75 365.75L459.5 363.75L460.5 361L461.25 358.75L462.75 353.75L463.25 350.5V345.25L462.5 342.5L460.75 339L458.75 336.5L457 335L452 332L450.25 331.25L446.25 330.25L442 329.5L436.5 329L431.5 329.25L427 330.5L422.25 332.5L417.25 335.5L415.75 337H415.25L414.75 338L413 339.5L408.5 346.25L405.75 352L403.75 355.5L402.25 358.25L401 360.25L399 362.75L395.5 366.5L393.75 368.25L391.5 370L388 372.25L384 374.25L380.25 375.5L379 375.75H373.75L372 374.75L371.5 374L371.25 372.75V371L372.25 369L373.25 368.25L376.75 367L382 365.75L386.25 363.5L388.5 362H389L389.5 361L391.25 359.5L393.5 356.5L396 352.25L398.5 347.5L401.75 341.25L404.5 337.75L407.5 334.25L409.25 332.25L411.75 329.75L416.25 326.5L420.75 324.5L422.75 323.5L425.75 322.75L427.75 322L433.5 321H441.25L448 321.75L455.25 324L459.5 326L462 327.75L464 329.5L466.25 331.5L469 335L471 338.75L472.25 343L472.75 347L472.5 349.5L472 352.75L470.75 358L469.5 361L468.5 364.25L467 368L465.5 371.25L464.5 373.75L463.5 376.5L461.75 380.5L460 384.75L460.25 387L461.25 388.25L463.25 388.5L465.5 387.5L467 385.75L469 382L470 379.5L471.25 376.75L472 374.5L473.25 372L474.25 368.75L476 364.5L477 362.25L479.25 353.25L479.75 349.5V343L479 337.25L478 334L476.75 331L474.75 327.75L473 325.75L471 324L469.25 322.25L465.75 320L461 317.75L453.5 315.5L448.25 314.25L445.25 313.75L442.75 313.5L441 313.75L439.75 313.5L435.5 313.25L430.5 313.75L422 315.75L419.25 317L416.75 318L415.25 319L412.75 320L409.25 322.25L406.5 324.5L402.5 328.5L400 331.25L397.5 334.5L395.75 337.5L393 342L389 350L386.25 355.25L385.5 356.25L384.5 358.25L382.25 360.75L380.25 362L379 361.75L377 360L376.5 359L376.75 356.75L377.75 354L380.75 347.5L383 342.75L386.25 337L390 331L392 328L394.5 325.25L396.5 322.75L400.5 319L402.5 317.25L407.25 313.75L413.25 310.25L416.25 309L418.25 307.75L423.25 306L428.75 305.25L431.25 305L433.75 304.5L435.5 304Z" fill="#3F6981"/>
<path d="M405 137.5L411.5 137.75L414.25 138.25L418.25 140.25L421.25 142.5L423.5 146L424.5 148.75L425.25 150.75L425.5 154.25L425 156.75L424 161.5L422 165.5L419.75 169L417.75 171.75L415.25 174.5L413.25 176.25L410 178.25L405.25 180.5L403 181L401.25 181.75L399.75 181.5L397.25 182L395.75 182.25L395.25 182L392 181.5L388.5 180.5L384.5 178.5L382.5 177L381.5 176L381 174.75L380 173.75L378.75 170.75L377.75 168.25L377.5 166.5V161.75L378 158.25L379 156.25L379.75 153.75L381.25 151.5L382 150L385.25 146L386.75 144.25L390 141.75L393 140L397.5 138.5L398.75 138L403.5 137.75L405 137.5ZM398 150.25L397.5 151L398.5 150.5L398 150.25ZM397 151L396 151.75V152.5L396.75 152.25L397.5 151H397ZM412.75 151.75L412.5 152.75L413.25 152.5V151.75H412.75ZM386.5 167.75L387.25 170L388.25 170.5L387 167.75H386.5Z" fill="white"/>
<path d="M436.75 336.25L442 336.75L444.5 337.5L447.5 338.75L451 340.75L453.25 343L455.25 347L455.75 351L455.25 354.5L453.25 361L451.75 364.25L450.5 367L446.75 375.5L445 379.25L443.5 383.25L442.5 386.25L442.25 388.25V391.25L442.75 393.75L444.5 398.25L447 401L450.5 403L454.75 404.75L457 406.75L457.25 407.25V409.25L456 411.25L454.75 412.25L452.25 412.75L449 412.25L445 410.5L440.75 407.5L439 406L437 403.5L435.25 400L434 397L433.5 393.75V389.75L434.25 384.25L435 381.25L441 367.75L443 363L445.25 357L445.75 355V350L444.75 348L443.25 346.75L440.25 345.25L438 344.75H435.25L431.75 345.75L429 347L427 348.5L424.5 351L422 354.5L418.75 360L417.75 362L415.75 365.25L413 369.75L411 372.25L409.5 374.25L407.5 376.75L404 380.25L401.25 382.5L397.75 384.75L393 387.25L386.75 389.25L381.25 390.25H379.25L378.25 390L377.5 390.5H372.5L369.25 389.5L368 388L367.75 386L368.5 384L369.75 383L370.25 382.25L371.25 382L375.5 381.75H378.25L379.25 382L383.25 381.25L388.75 379.5L394.5 376.5L398.75 373.5L401 371.75L403.25 369L405.25 366.75L407 364L409.25 360.25L412.75 354L415.25 349.5L417.5 346.5L419.75 343.75L422 341.5L425.75 339L429.5 337.25L432.25 336.75L436.75 336.25Z" fill="#3E6981"/>
<path d="M433.25 352.75L435.5 353.25L436.75 354.25L437.5 355.5V357.25L434.75 363.25L432.5 367.5L431 370.25L428.25 374.75L424.25 380L421.5 383.75L418.25 387.5L412.75 393L410.5 394.75L408.5 396.25L405.75 398.25L402.25 400.25L398.75 401.75L394 403.5L388.25 405L384.25 405.5H377L373.75 405L372 403.75L371 402V400.25L372 398.25L373 397.5L374.5 397.25L384.25 397L388.75 396L391 395.75L395 394L397.5 393L401.5 390.75L405.75 387.75L409.25 384.75L411.25 383L414.25 379.75L417 376.25L419.5 373L422.5 368.25L424.5 365L426.75 361L429.75 356.25L431.75 353.75L433.25 352.75Z" fill="#3E6981"/>
<path d="M420.5 394.5H423.5L425.5 395.75L426.5 397.75L427.75 403.25L429 406.75L431.25 409.5L432.5 411L436.75 414L439 415.75L439.75 416.75V418.5L438.75 421L437.5 422.25H435.75L432.5 421.25L429.25 419.5L426 417L422.25 413.25L420 409.25L419.25 407.5L418 408L416.75 409L413.25 411L410.75 411.75L410.25 412.75L407.25 414.5L402.5 416.5L395.75 418.5L391.5 419.25L388.75 419.5L387 419.75L386.5 419.5L383 419.25L381.75 418.5L380.5 417.25L379.75 415.25L380 413.75L382 411.75L382.5 411.5L391.25 410.75L393.5 410L400 408.25L404 406.25L407.75 404.25L410.75 402.25L414.25 399.75L417.5 397L419.5 395.25L420.5 394.5Z" fill="#3F6A82"/>
<path d="M295.75 194.5L297.5 194.75L299.25 196.25L301 199.75L302.25 203.5L303.25 205L306 207L307.75 207.75L310.25 208.25H315L317.25 207.75L319.75 206.25L321 205L322.5 203.75L323.75 202.5L325 202L327.5 202.25L328.5 202.75L329.75 204.75V206.5L328.75 208.75L326.75 211.25L323.75 213.5L319.5 215.25L317 215.75L314.25 216H310L306 215.5L300.5 213.25L297 210.75L295 208.5L293.5 206.25L292.5 202.25L292.75 199.75L293.5 196.5L295 194.75L295.75 194.5Z" fill="white"/>
<path d="M320.5 339.75H322L323.5 341.25L323.25 343.25L322.5 344.75L322 345.25L317.25 346.25L311.25 347L308.75 347.25L297.75 349L296 349.25L291 350.25L288.5 350.5L283.75 351L280.75 351.75L275.25 352.5L270.25 353L268.5 353.25L266.25 353.5H262.5L260.5 352.5L260 351.5L260.25 349.5L261.75 348.75L266.25 348L269.25 347.25L279 346L284.75 345L291.5 344L297.25 343L304.75 342L309 341.25L319 340L320.5 339.75Z" fill="white"/>
<path d="M496.75 179.75H500.25L500.75 180H502.25L503.75 179.75L504.25 180H506L507.75 179.75L509.75 180.75L510 181.5L510.25 185.25V194.25L510 196.75L509 198L506 199H496.25L493.75 198.25L492.5 197.25L492 196.25L491.75 192.25V187.5L492 183.75L492.75 181.25L493.75 180.5L496.75 179.75Z" fill="#3E6981"/>
<path d="M496.25 133.5H508.5L510.75 134L511.75 134.75L512 135.5V144.5L511.75 147.25L511.25 150.5L510.75 151.5L509.75 152.25L503 152.5L495.75 152.25L495 151.5L494 148.25L493.75 142L494 140.5L493.75 139.75V136.25L494.75 134.25L496.25 133.5Z" fill="white"/>
<path d="M471.25 154.5L475.25 154.75H477.75L482.25 155.25L482.75 155.75L483 157.75V170.5L481.5 171.5L480.5 172.5H471L468.5 172L467.5 171.5L467 170.25V167.5L466 166.25L465.75 165.5V157.5L467.25 155.5L467.75 155L470.75 154.75L471.25 154.5Z" fill="white"/>
<path d="M444.25 219H454.75L455.75 220L456.25 223.5L456 226L456.25 228.5L456 234.75L455.75 235.5L453.75 236.25H452L451.25 236L448 236.25H441.25L440 235.25L439.25 234L439 232.5L439.25 230.25V221.25L440.25 219.5L440.75 219.25L444.25 219Z" fill="#3F6A82"/>
<path d="M473.75 197.25H479.25L480.75 197.75L482.5 199L482.75 199.75V209.75L482.5 212.5L481.5 213.5L480.25 214.25H468L466.25 213.75L465.75 213.25L465.5 205.5L465.25 203.5L465.75 199.5L466.5 198.25L468 197.75L473.75 197.25Z" fill="#3F6A82"/>
<path d="M420.5 239H430.75L433.75 239.5L434.25 240L434.5 241.25V251.75L434.25 254L433.25 255.5L430.75 256H421.75L419.25 255.5L418.25 253.75V240.75L418.75 239.5L420.5 239Z" fill="#3F6A82"/>
<path d="M521 107.5L529.5 107.75L531 108.5L531.75 109.5L532 113.75V117.5L531.75 119.5V122.25L530.5 123.75L529.75 124L518.75 124.25L516.75 123.5L515.5 122.25L515.25 120.5V109.25L515.75 108.25L516.75 107.75L521 107.5Z" fill="white"/>
<path d="M292.5 281.25H295L298.5 282.25L300.5 283.5L302 284.75L303.5 287.25L304.25 290V292L303.25 296.25L301.25 298.75L299 300.75L296.75 301.75L295.5 302H291.25L288.5 301.25L287 300.25L285.25 298.5L284 296.25L283.5 295L283.25 292.25L283.75 288.5L284.5 286.5L286.25 284.25L288 282.75L291 281.5L292.5 281.25ZM292.5 286L290.5 287L288.75 289L288 290.75V292.5L289 295L290.75 296.5L292.25 297H294.5L296.5 296.25L298 295.25L299.25 293.5L299.5 292.75V289.75L298.5 288.25L296.5 286.5L295 286H292.5Z" fill="white"/>
<path d="M293.75 129.5L296 129.75L297.5 130.75L298.75 132L300.25 134.5L301 137.5V141.75L300 144.75L298.5 146.75L297.5 147.5H292.75L291.5 146.75L290 144.25L288.75 139.5L288.5 136L289 133.5L290.25 131.25L291.75 130L293.75 129.5Z" fill="white"/>
<path d="M356.25 319.5L367.25 319.75L368.75 321.75L369.25 327V329.25L368.25 331.25L367.25 332.5L366.5 332.75H360.5L358 332.5L356.25 331L356 329.25V319.75L356.25 319.5Z" fill="#3F6A82"/>
<path d="M328.5 123.75H331.25L332.5 124.5L334 126.25L335.25 129.5L335.75 131.75V135.5L334.75 138.25L333.25 140L332 140.5H329.5L328 139.5L327 138L325.75 133.75L325.25 131.5V127.75L326.75 124.75L327.75 124L328.5 123.75Z" fill="white"/>
<path d="M342.75 300.25H351.25L352.25 301.75V311L351 312.25L348.5 312.5H344L342 312L340.75 310V302.5L341.75 301L342.75 300.25Z" fill="#3F6A82"/>
<path d="M356.5 282.5L357.75 282.75L359.5 284.25L360.5 286.25V288.75L359.75 291L358.5 294.25L358.25 294.5L355 294.25L352.75 293.5L351.25 290V288.25L351.75 287.25L352.75 286.25L353.5 284.5L355.25 283L356.5 282.5Z" fill="white"/>
<path d="M274.75 274.5L277.25 275.75L279.25 277.25L281.75 279.75L282.25 281V282.5L281 284L279 283.75L277.5 282.75L275.75 281L274.25 279.75L273.25 278.25L273.5 276.25L274.25 274.75L274.75 274.5Z" fill="white"/>
<path d="M310 274.5L312.25 274.75L313 275.75V277.75L311.5 280L308.5 282.25L306.75 282.75H305.25L304.25 281.75L304 280.75L304.75 279L308 276L310 274.5Z" fill="white"/>
<path d="M292.5 267H295L296.25 268.5L296.5 269.5V275.75L295.5 276.5H293.5L292.25 275L291.75 272.75V268.25L292.5 267Z" fill="white"/>
<path d="M310 295.5L313.5 296.25L315.5 297.75L316.75 299V300.25L315 301.75H312.25L309.75 300.5L308.25 298.75L309 296.5L310 295.5Z" fill="white"/>
<path d="M365.75 298H368.75L369.5 298.75L370.25 300.5V302.25L369.75 303.75L368.5 305H366.5L365 303.75L364.25 302.5V299.5L365 298.25L365.75 298Z" fill="white"/>
<path d="M202.25 466.5L202.5 467H203V467.5L203.75 467H205L205.25 468.25L204 468.5L202.25 468L202 467L202.25 466.5Z" fill="#1C2C35"/>
<path d="M200.75 466.5L201.75 466.75V468L199.75 467.75L199.5 467.25H200.5L200.75 466.5Z" fill="#1C2B34"/>
<path d="M198.5 466.75L199 467.25H198.5V466.75Z" fill="#3F6A82"/>
<path d="M27.4562 553H31.3862V566.92C31.3862 568.38 31.0362 569.68 30.3362 570.82C29.6362 571.94 28.6762 572.82 27.4562 573.46C26.2362 574.08 24.8562 574.39 23.3162 574.39C21.7762 574.39 20.3962 574.08 19.1762 573.46C17.9562 572.82 16.9962 571.94 16.2962 570.82C15.5962 569.68 15.2462 568.38 15.2462 566.92V553H19.1762V566.92C19.1762 568 19.5662 568.87 20.3462 569.53C21.1462 570.17 22.1362 570.49 23.3162 570.49C24.5762 570.49 25.5762 570.17 26.3162 569.53C27.0762 568.89 27.4562 568.02 27.4562 566.92V553ZM43.3679 558.61C44.8879 558.61 46.2179 558.95 47.3579 559.63C48.5179 560.31 49.3979 561.25 49.9979 562.45C50.6179 563.65 50.9279 565 50.9279 566.5C50.9279 568 50.6179 569.35 49.9979 570.55C49.3979 571.75 48.5179 572.7 47.3579 573.4C46.2179 574.08 44.8879 574.42 43.3679 574.42C42.4679 574.42 41.5979 574.26 40.7579 573.94C39.9379 573.6 39.1779 573.13 38.4779 572.53V580H34.7579V559H38.4779V560.47C39.1579 559.87 39.9179 559.41 40.7579 559.09C41.5979 558.77 42.4679 558.61 43.3679 558.61ZM42.9179 570.82C44.1579 570.82 45.1779 570.42 45.9779 569.62C46.7979 568.8 47.2079 567.76 47.2079 566.5C47.2079 565.24 46.7979 564.21 45.9779 563.41C45.1779 562.59 44.1579 562.18 42.9179 562.18C42.0979 562.18 41.3479 562.37 40.6679 562.75C39.9879 563.11 39.4479 563.62 39.0479 564.28C38.6679 564.94 38.4779 565.69 38.4779 566.53C38.4779 567.79 38.8979 568.82 39.7379 569.62C40.5979 570.42 41.6579 570.82 42.9179 570.82ZM57.1693 569.77C57.1693 570.09 57.2493 570.32 57.4093 570.46C57.5693 570.6 57.8193 570.67 58.1593 570.67C58.4193 570.67 58.7293 570.64 59.0893 570.58V574C58.3493 574.12 57.6593 574.18 57.0193 574.18C55.8593 574.18 54.9693 573.88 54.3493 573.28C53.7493 572.66 53.4493 571.57 53.4493 570.01V553H57.1693V569.77ZM67.9407 574.42C66.5207 574.42 65.2007 574.07 63.9807 573.37C62.7807 572.65 61.8207 571.69 61.1007 570.49C60.4007 569.27 60.0507 567.95 60.0507 566.53C60.0507 565.11 60.4007 563.8 61.1007 562.6C61.8207 561.38 62.7807 560.42 63.9807 559.72C65.2007 559 66.5207 558.64 67.9407 558.64C69.3607 558.64 70.6707 559 71.8707 559.72C73.0907 560.42 74.0507 561.38 74.7507 562.6C75.4707 563.8 75.8307 565.11 75.8307 566.53C75.8307 567.95 75.4707 569.27 74.7507 570.49C74.0507 571.69 73.0907 572.65 71.8707 573.37C70.6707 574.07 69.3607 574.42 67.9407 574.42ZM67.9107 570.7C68.6707 570.7 69.3707 570.52 70.0107 570.16C70.6507 569.78 71.1607 569.27 71.5407 568.63C71.9207 567.99 72.1107 567.29 72.1107 566.53C72.1107 565.77 71.9207 565.07 71.5407 564.43C71.1607 563.79 70.6507 563.28 70.0107 562.9C69.3707 562.52 68.6707 562.33 67.9107 562.33C67.1507 562.33 66.4507 562.52 65.8107 562.9C65.1707 563.28 64.6607 563.79 64.2807 564.43C63.9207 565.07 63.7407 565.77 63.7407 566.53C63.7407 567.29 63.9207 567.99 64.2807 568.63C64.6607 569.27 65.1707 569.78 65.8107 570.16C66.4507 570.52 67.1507 570.7 67.9107 570.7ZM89.9652 559H93.6852V574H89.9652V572.53C89.2652 573.13 88.4952 573.6 87.6552 573.94C86.8352 574.26 85.9652 574.42 85.0452 574.42C83.5252 574.42 82.1952 574.08 81.0552 573.4C79.9152 572.72 79.0352 571.78 78.4152 570.58C77.8152 569.38 77.5152 568.03 77.5152 566.53C77.5152 565.03 77.8152 563.68 78.4152 562.48C79.0352 561.28 79.9152 560.34 81.0552 559.66C82.1952 558.96 83.5252 558.61 85.0452 558.61C85.9652 558.61 86.8352 558.78 87.6552 559.12C88.4952 559.44 89.2652 559.9 89.9652 560.5V559ZM85.5252 570.85C86.3452 570.85 87.0852 570.67 87.7452 570.31C88.4252 569.93 88.9552 569.41 89.3352 568.75C89.7352 568.09 89.9352 567.34 89.9352 566.5C89.9352 565.24 89.5052 564.21 88.6452 563.41C87.8052 562.61 86.7652 562.21 85.5252 562.21C84.2652 562.21 83.2252 562.62 82.4052 563.44C81.6052 564.24 81.2052 565.27 81.2052 566.53C81.2052 567.79 81.6052 568.83 82.4052 569.65C83.2252 570.45 84.2652 570.85 85.5252 570.85ZM108.656 553H112.376V574H108.656V572.56C107.976 573.16 107.216 573.62 106.376 573.94C105.536 574.26 104.666 574.42 103.766 574.42C102.246 574.42 100.916 574.08 99.7759 573.4C98.6359 572.72 97.7559 571.78 97.1359 570.58C96.5359 569.38 96.2359 568.03 96.2359 566.53C96.2359 565.03 96.5359 563.68 97.1359 562.48C97.7559 561.28 98.6359 560.34 99.7759 559.66C100.916 558.96 102.246 558.61 103.766 558.61C104.666 558.61 105.526 558.78 106.346 559.12C107.186 559.44 107.956 559.89 108.656 560.47V553ZM104.246 570.85C105.066 570.85 105.806 570.67 106.466 570.31C107.146 569.93 107.676 569.41 108.056 568.75C108.456 568.09 108.656 567.34 108.656 566.5C108.656 565.24 108.226 564.21 107.366 563.41C106.526 562.61 105.486 562.21 104.246 562.21C102.986 562.21 101.946 562.62 101.126 563.44C100.326 564.24 99.9259 565.27 99.9259 566.53C99.9259 567.79 100.326 568.83 101.126 569.65C101.946 570.45 102.986 570.85 104.246 570.85ZM133.898 559H137.798L132.548 574.03C131.768 576.09 130.688 577.63 129.308 578.65C127.948 579.69 126.338 580.14 124.478 580V576.4C124.598 576.42 124.778 576.43 125.018 576.43C126.618 576.43 127.868 575.46 128.768 573.52L122.168 559H126.158L130.568 568.54L133.898 559ZM146.954 574.42C145.534 574.42 144.214 574.07 142.994 573.37C141.794 572.65 140.834 571.69 140.114 570.49C139.414 569.27 139.064 567.95 139.064 566.53C139.064 565.11 139.414 563.8 140.114 562.6C140.834 561.38 141.794 560.42 142.994 559.72C144.214 559 145.534 558.64 146.954 558.64C148.374 558.64 149.684 559 150.884 559.72C152.104 560.42 153.064 561.38 153.764 562.6C154.484 563.8 154.844 565.11 154.844 566.53C154.844 567.95 154.484 569.27 153.764 570.49C153.064 571.69 152.104 572.65 150.884 573.37C149.684 574.07 148.374 574.42 146.954 574.42ZM146.924 570.7C147.684 570.7 148.384 570.52 149.024 570.16C149.664 569.78 150.174 569.27 150.554 568.63C150.934 567.99 151.124 567.29 151.124 566.53C151.124 565.77 150.934 565.07 150.554 564.43C150.174 563.79 149.664 563.28 149.024 562.9C148.384 562.52 147.684 562.33 146.924 562.33C146.164 562.33 145.464 562.52 144.824 562.9C144.184 563.28 143.674 563.79 143.294 564.43C142.934 565.07 142.754 565.77 142.754 566.53C142.754 567.29 142.934 567.99 143.294 568.63C143.674 569.27 144.184 569.78 144.824 570.16C145.464 570.52 146.164 570.7 146.924 570.7ZM166.669 559H170.389V574H166.669V572.74C166.129 573.24 165.529 573.64 164.869 573.94C164.209 574.24 163.509 574.39 162.769 574.39C161.889 574.39 160.989 574.21 160.069 573.85C159.169 573.47 158.389 572.8 157.729 571.84C157.089 570.88 156.769 569.59 156.769 567.97V559H160.489V567.97C160.489 569.09 160.799 569.9 161.419 570.4C162.059 570.88 162.799 571.12 163.639 571.12C164.479 571.12 165.189 570.83 165.769 570.25C166.369 569.65 166.669 568.7 166.669 567.4V559ZM183.15 558.7L182.88 562.21C182.76 562.17 182.55 562.15 182.25 562.15C181.01 562.15 179.98 562.51 179.16 563.23C178.36 563.95 177.96 564.93 177.96 566.17V574H174.24V559H177.96V561.52C178.3 560.72 178.88 560.05 179.7 559.51C180.52 558.97 181.51 558.7 182.67 558.7H183.15ZM205.102 559H208.822V574H205.102V572.53C204.402 573.13 203.632 573.6 202.792 573.94C201.972 574.26 201.102 574.42 200.182 574.42C198.662 574.42 197.332 574.08 196.192 573.4C195.052 572.72 194.172 571.78 193.552 570.58C192.952 569.38 192.652 568.03 192.652 566.53C192.652 565.03 192.952 563.68 193.552 562.48C194.172 561.28 195.052 560.34 196.192 559.66C197.332 558.96 198.662 558.61 200.182 558.61C201.102 558.61 201.972 558.78 202.792 559.12C203.632 559.44 204.402 559.9 205.102 560.5V559ZM200.662 570.85C201.482 570.85 202.222 570.67 202.882 570.31C203.562 569.93 204.092 569.41 204.472 568.75C204.872 568.09 205.072 567.34 205.072 566.5C205.072 565.24 204.642 564.21 203.782 563.41C202.942 562.61 201.902 562.21 200.662 562.21C199.402 562.21 198.362 562.62 197.542 563.44C196.742 564.24 196.342 565.27 196.342 566.53C196.342 567.79 196.742 568.83 197.542 569.65C198.362 570.45 199.402 570.85 200.662 570.85ZM221.559 558.7L221.289 562.21C221.169 562.17 220.959 562.15 220.659 562.15C219.419 562.15 218.389 562.51 217.569 563.23C216.769 563.95 216.369 564.93 216.369 566.17V574H212.649V559H216.369V561.52C216.709 560.72 217.289 560.05 218.109 559.51C218.929 558.97 219.919 558.7 221.079 558.7H221.559ZM230.026 568.87C230.026 569.55 230.186 570.02 230.506 570.28C230.826 570.54 231.336 570.67 232.036 570.67C232.456 570.67 232.916 570.64 233.416 570.58V574C232.476 574.1 231.696 574.15 231.076 574.15C229.476 574.15 228.276 573.79 227.476 573.07C226.696 572.33 226.306 571.01 226.306 569.11V562.33H223.486V559H226.306V555.31L230.026 554.05V559H233.356V562.33H230.026V568.87ZM251.073 568.09L253.863 559H257.763L252.903 574H249.213L246.393 565.09L243.573 574H239.943L235.203 559H239.073L241.773 568.03L244.413 559H248.373L251.073 568.09ZM266.163 574.42C264.743 574.42 263.423 574.07 262.203 573.37C261.003 572.65 260.043 571.69 259.323 570.49C258.623 569.27 258.273 567.95 258.273 566.53C258.273 565.11 258.623 563.8 259.323 562.6C260.043 561.38 261.003 560.42 262.203 559.72C263.423 559 264.743 558.64 266.163 558.64C267.583 558.64 268.893 559 270.093 559.72C271.313 560.42 272.273 561.38 272.973 562.6C273.693 563.8 274.053 565.11 274.053 566.53C274.053 567.95 273.693 569.27 272.973 570.49C272.273 571.69 271.313 572.65 270.093 573.37C268.893 574.07 267.583 574.42 266.163 574.42ZM266.133 570.7C266.893 570.7 267.593 570.52 268.233 570.16C268.873 569.78 269.383 569.27 269.763 568.63C270.143 567.99 270.333 567.29 270.333 566.53C270.333 565.77 270.143 565.07 269.763 564.43C269.383 563.79 268.873 563.28 268.233 562.9C267.593 562.52 266.893 562.33 266.133 562.33C265.373 562.33 264.673 562.52 264.033 562.9C263.393 563.28 262.883 563.79 262.503 564.43C262.143 565.07 261.963 565.77 261.963 566.53C261.963 567.29 262.143 567.99 262.503 568.63C262.883 569.27 263.393 569.78 264.033 570.16C264.673 570.52 265.373 570.7 266.133 570.7ZM285.338 558.7L285.068 562.21C284.948 562.17 284.738 562.15 284.438 562.15C283.198 562.15 282.168 562.51 281.348 563.23C280.548 563.95 280.148 564.93 280.148 566.17V574H276.428V559H280.148V561.52C280.488 560.72 281.068 560.05 281.888 559.51C282.708 558.97 283.698 558.7 284.858 558.7H285.338ZM302.584 574H297.934L293.734 568.39L291.544 570.79V574H287.824V553H291.544V565.33L297.184 559H302.374L296.254 565.66L302.584 574ZM324.282 559H328.002V574H324.282V572.53C323.582 573.13 322.812 573.6 321.972 573.94C321.152 574.26 320.282 574.42 319.362 574.42C317.842 574.42 316.512 574.08 315.372 573.4C314.232 572.72 313.352 571.78 312.732 570.58C312.132 569.38 311.832 568.03 311.832 566.53C311.832 565.03 312.132 563.68 312.732 562.48C313.352 561.28 314.232 560.34 315.372 559.66C316.512 558.96 317.842 558.61 319.362 558.61C320.282 558.61 321.152 558.78 321.972 559.12C322.812 559.44 323.582 559.9 324.282 560.5V559ZM319.842 570.85C320.662 570.85 321.402 570.67 322.062 570.31C322.742 569.93 323.272 569.41 323.652 568.75C324.052 568.09 324.252 567.34 324.252 566.5C324.252 565.24 323.822 564.21 322.962 563.41C322.122 562.61 321.082 562.21 319.842 562.21C318.582 562.21 317.542 562.62 316.722 563.44C315.922 564.24 315.522 565.27 315.522 566.53C315.522 567.79 315.922 568.83 316.722 569.65C317.542 570.45 318.582 570.85 319.842 570.85ZM339.448 558.61C340.328 558.61 341.218 558.8 342.118 559.18C343.038 559.54 343.818 560.2 344.458 561.16C345.118 562.12 345.448 563.41 345.448 565.03V574H341.728V565.03C341.728 563.91 341.408 563.11 340.768 562.63C340.148 562.13 339.418 561.88 338.578 561.88C337.738 561.88 337.018 562.18 336.418 562.78C335.838 563.36 335.548 564.3 335.548 565.6V574H331.828V559H335.548V560.26C336.088 559.76 336.688 559.36 337.348 559.06C338.008 558.76 338.708 558.61 339.448 558.61ZM360.14 553H363.86V574H360.14V572.56C359.46 573.16 358.7 573.62 357.86 573.94C357.02 574.26 356.15 574.42 355.25 574.42C353.73 574.42 352.4 574.08 351.26 573.4C350.12 572.72 349.24 571.78 348.62 570.58C348.02 569.38 347.72 568.03 347.72 566.53C347.72 565.03 348.02 563.68 348.62 562.48C349.24 561.28 350.12 560.34 351.26 559.66C352.4 558.96 353.73 558.61 355.25 558.61C356.15 558.61 357.01 558.78 357.83 559.12C358.67 559.44 359.44 559.89 360.14 560.47V553ZM355.73 570.85C356.55 570.85 357.29 570.67 357.95 570.31C358.63 569.93 359.16 569.41 359.54 568.75C359.94 568.09 360.14 567.34 360.14 566.5C360.14 565.24 359.71 564.21 358.85 563.41C358.01 562.61 356.97 562.21 355.73 562.21C354.47 562.21 353.43 562.62 352.61 563.44C351.81 564.24 351.41 565.27 351.41 566.53C351.41 567.79 351.81 568.83 352.61 569.65C353.43 570.45 354.47 570.85 355.73 570.85ZM384.003 558.61C385.523 558.61 386.853 558.95 387.993 559.63C389.153 560.31 390.033 561.25 390.633 562.45C391.253 563.65 391.563 565 391.563 566.5C391.563 568 391.253 569.35 390.633 570.55C390.033 571.75 389.153 572.7 387.993 573.4C386.853 574.08 385.523 574.42 384.003 574.42C383.103 574.42 382.233 574.26 381.393 573.94C380.573 573.6 379.813 573.13 379.113 572.53V580H375.393V559H379.113V560.47C379.793 559.87 380.553 559.41 381.393 559.09C382.233 558.77 383.103 558.61 384.003 558.61ZM383.553 570.82C384.793 570.82 385.813 570.42 386.613 569.62C387.433 568.8 387.843 567.76 387.843 566.5C387.843 565.24 387.433 564.21 386.613 563.41C385.813 562.59 384.793 562.18 383.553 562.18C382.733 562.18 381.983 562.37 381.303 562.75C380.623 563.11 380.083 563.62 379.683 564.28C379.303 564.94 379.113 565.69 379.113 566.53C379.113 567.79 379.533 568.82 380.373 569.62C381.233 570.42 382.293 570.82 383.553 570.82ZM402.994 558.7L402.724 562.21C402.604 562.17 402.394 562.15 402.094 562.15C400.854 562.15 399.824 562.51 399.004 563.23C398.204 563.95 397.804 564.93 397.804 566.17V574H394.084V559H397.804V561.52C398.144 560.72 398.724 560.05 399.544 559.51C400.364 558.97 401.354 558.7 402.514 558.7H402.994ZM411.593 574.42C410.173 574.42 408.853 574.07 407.633 573.37C406.433 572.65 405.473 571.69 404.753 570.49C404.053 569.27 403.703 567.95 403.703 566.53C403.703 565.11 404.053 563.8 404.753 562.6C405.473 561.38 406.433 560.42 407.633 559.72C408.853 559 410.173 558.64 411.593 558.64C413.013 558.64 414.323 559 415.523 559.72C416.743 560.42 417.703 561.38 418.403 562.6C419.123 563.8 419.483 565.11 419.483 566.53C419.483 567.95 419.123 569.27 418.403 570.49C417.703 571.69 416.743 572.65 415.523 573.37C414.323 574.07 413.013 574.42 411.593 574.42ZM411.563 570.7C412.323 570.7 413.023 570.52 413.663 570.16C414.303 569.78 414.813 569.27 415.193 568.63C415.573 567.99 415.763 567.29 415.763 566.53C415.763 565.77 415.573 565.07 415.193 564.43C414.813 563.79 414.303 563.28 413.663 562.9C413.023 562.52 412.323 562.33 411.563 562.33C410.803 562.33 410.103 562.52 409.463 562.9C408.823 563.28 408.313 563.79 407.933 564.43C407.573 565.07 407.393 565.77 407.393 566.53C407.393 567.29 407.573 567.99 407.933 568.63C408.313 569.27 408.823 569.78 409.463 570.16C410.103 570.52 410.803 570.7 411.563 570.7ZM427.655 569.5L431.585 559H435.515L429.935 574H425.375L419.795 559H423.725L427.655 569.5ZM439.539 556.51C438.839 556.51 438.289 556.32 437.889 555.94C437.489 555.56 437.289 555.04 437.289 554.38C437.289 553.7 437.489 553.17 437.889 552.79C438.289 552.41 438.839 552.22 439.539 552.22C440.239 552.22 440.789 552.41 441.189 552.79C441.589 553.17 441.789 553.7 441.789 554.38C441.789 555.02 441.579 555.54 441.159 555.94C440.759 556.32 440.219 556.51 439.539 556.51ZM437.649 574V559H441.369V574H437.649ZM456.234 553H459.954V574H456.234V572.56C455.554 573.16 454.794 573.62 453.954 573.94C453.114 574.26 452.244 574.42 451.344 574.42C449.824 574.42 448.494 574.08 447.354 573.4C446.214 572.72 445.334 571.78 444.714 570.58C444.114 569.38 443.814 568.03 443.814 566.53C443.814 565.03 444.114 563.68 444.714 562.48C445.334 561.28 446.214 560.34 447.354 559.66C448.494 558.96 449.824 558.61 451.344 558.61C452.244 558.61 453.104 558.78 453.924 559.12C454.764 559.44 455.534 559.89 456.234 560.47V553ZM451.824 570.85C452.644 570.85 453.384 570.67 454.044 570.31C454.724 569.93 455.254 569.41 455.634 568.75C456.034 568.09 456.234 567.34 456.234 566.5C456.234 565.24 455.804 564.21 454.944 563.41C454.104 562.61 453.064 562.21 451.824 562.21C450.564 562.21 449.524 562.62 448.704 563.44C447.904 564.24 447.504 565.27 447.504 566.53C447.504 567.79 447.904 568.83 448.704 569.65C449.524 570.45 450.564 570.85 451.824 570.85ZM470.245 558.61C471.685 558.61 472.975 558.97 474.115 559.69C475.275 560.39 476.175 561.34 476.815 562.54C477.455 563.74 477.775 565.07 477.775 566.53C477.775 567.01 477.735 567.45 477.655 567.85H466.075C466.375 568.91 466.905 569.74 467.665 570.34C468.425 570.92 469.395 571.21 470.575 571.21C471.295 571.21 471.985 571.05 472.645 570.73C473.325 570.41 473.835 570 474.175 569.5L477.025 571.18C476.325 572.22 475.415 573.02 474.295 573.58C473.195 574.12 471.925 574.39 470.485 574.39C468.885 574.39 467.465 574.05 466.225 573.37C464.985 572.69 464.025 571.75 463.345 570.55C462.685 569.35 462.355 568 462.355 566.5C462.355 565.02 462.685 563.68 463.345 562.48C464.025 561.28 464.965 560.34 466.165 559.66C467.365 558.96 468.725 558.61 470.245 558.61ZM474.295 564.94C474.135 563.98 473.685 563.23 472.945 562.69C472.225 562.13 471.315 561.85 470.215 561.85C469.455 561.85 468.755 561.99 468.115 562.27C467.495 562.55 466.995 562.93 466.615 563.41C466.235 563.89 466.035 564.4 466.015 564.94H474.295ZM500.15 553H503.87V574H500.15V572.56C499.47 573.16 498.71 573.62 497.87 573.94C497.03 574.26 496.16 574.42 495.26 574.42C493.74 574.42 492.41 574.08 491.27 573.4C490.13 572.72 489.25 571.78 488.63 570.58C488.03 569.38 487.73 568.03 487.73 566.53C487.73 565.03 488.03 563.68 488.63 562.48C489.25 561.28 490.13 560.34 491.27 559.66C492.41 558.96 493.74 558.61 495.26 558.61C496.16 558.61 497.02 558.78 497.84 559.12C498.68 559.44 499.45 559.89 500.15 560.47V553ZM495.74 570.85C496.56 570.85 497.3 570.67 497.96 570.31C498.64 569.93 499.17 569.41 499.55 568.75C499.95 568.09 500.15 567.34 500.15 566.5C500.15 565.24 499.72 564.21 498.86 563.41C498.02 562.61 496.98 562.21 495.74 562.21C494.48 562.21 493.44 562.62 492.62 563.44C491.82 564.24 491.42 565.27 491.42 566.53C491.42 567.79 491.82 568.83 492.62 569.65C493.44 570.45 494.48 570.85 495.74 570.85ZM514.161 558.61C515.601 558.61 516.891 558.97 518.031 559.69C519.191 560.39 520.091 561.34 520.731 562.54C521.371 563.74 521.691 565.07 521.691 566.53C521.691 567.01 521.651 567.45 521.571 567.85H509.991C510.291 568.91 510.821 569.74 511.581 570.34C512.341 570.92 513.311 571.21 514.491 571.21C515.211 571.21 515.901 571.05 516.561 570.73C517.241 570.41 517.751 570 518.091 569.5L520.941 571.18C520.241 572.22 519.331 573.02 518.211 573.58C517.111 574.12 515.841 574.39 514.401 574.39C512.801 574.39 511.381 574.05 510.141 573.37C508.901 572.69 507.941 571.75 507.261 570.55C506.601 569.35 506.271 568 506.271 566.5C506.271 565.02 506.601 563.68 507.261 562.48C507.941 561.28 508.881 560.34 510.081 559.66C511.281 558.96 512.641 558.61 514.161 558.61ZM518.211 564.94C518.051 563.98 517.601 563.23 516.861 562.69C516.141 562.13 515.231 561.85 514.131 561.85C513.371 561.85 512.671 561.99 512.031 562.27C511.411 562.55 510.911 562.93 510.531 563.41C510.151 563.89 509.951 564.4 509.931 564.94H518.211ZM529.089 568.87C529.089 569.55 529.249 570.02 529.569 570.28C529.889 570.54 530.399 570.67 531.099 570.67C531.519 570.67 531.979 570.64 532.479 570.58V574C531.539 574.1 530.759 574.15 530.139 574.15C528.539 574.15 527.339 573.79 526.539 573.07C525.759 572.33 525.369 571.01 525.369 569.11V562.33H522.549V559H525.369V555.31L529.089 554.05V559H532.419V562.33H529.089V568.87ZM546.733 559H550.453V574H546.733V572.53C546.033 573.13 545.263 573.6 544.423 573.94C543.603 574.26 542.733 574.42 541.813 574.42C540.293 574.42 538.963 574.08 537.823 573.4C536.683 572.72 535.803 571.78 535.183 570.58C534.583 569.38 534.283 568.03 534.283 566.53C534.283 565.03 534.583 563.68 535.183 562.48C535.803 561.28 536.683 560.34 537.823 559.66C538.963 558.96 540.293 558.61 541.813 558.61C542.733 558.61 543.603 558.78 544.423 559.12C545.263 559.44 546.033 559.9 546.733 560.5V559ZM542.293 570.85C543.113 570.85 543.853 570.67 544.513 570.31C545.193 569.93 545.723 569.41 546.103 568.75C546.503 568.09 546.703 567.34 546.703 566.5C546.703 565.24 546.273 564.21 545.413 563.41C544.573 562.61 543.533 562.21 542.293 562.21C541.033 562.21 539.993 562.62 539.173 563.44C538.373 564.24 537.973 565.27 537.973 566.53C537.973 567.79 538.373 568.83 539.173 569.65C539.993 570.45 541.033 570.85 542.293 570.85ZM556.199 556.51C555.499 556.51 554.949 556.32 554.549 555.94C554.149 555.56 553.949 555.04 553.949 554.38C553.949 553.7 554.149 553.17 554.549 552.79C554.949 552.41 555.499 552.22 556.199 552.22C556.899 552.22 557.449 552.41 557.849 552.79C558.249 553.17 558.449 553.7 558.449 554.38C558.449 555.02 558.239 555.54 557.819 555.94C557.419 556.32 556.879 556.51 556.199 556.51ZM554.309 574V559H558.029V574H554.309ZM565.47 569.77C565.47 570.09 565.55 570.32 565.71 570.46C565.87 570.6 566.12 570.67 566.46 570.67C566.72 570.67 567.03 570.64 567.39 570.58V574C566.65 574.12 565.96 574.18 565.32 574.18C564.16 574.18 563.27 573.88 562.65 573.28C562.05 572.66 561.75 571.57 561.75 570.01V553H565.47V569.77ZM573.457 563.2C573.457 563.62 573.687 563.94 574.147 564.16C574.627 564.36 575.377 564.57 576.397 564.79C577.557 565.03 578.527 565.3 579.307 565.6C580.087 565.9 580.757 566.38 581.317 567.04C581.897 567.68 582.187 568.55 582.187 569.65C582.187 570.63 581.887 571.48 581.287 572.2C580.707 572.92 579.927 573.47 578.947 573.85C577.967 574.21 576.897 574.39 575.737 574.39C574.157 574.39 572.797 574.09 571.657 573.49C570.537 572.89 569.707 572.03 569.167 570.91L572.227 569.32C572.767 570.7 573.937 571.39 575.737 571.39C576.517 571.39 577.187 571.24 577.747 570.94C578.307 570.64 578.587 570.21 578.587 569.65C578.587 569.17 578.327 568.82 577.807 568.6C577.307 568.36 576.487 568.1 575.347 567.82C574.167 567.54 573.207 567.26 572.467 566.98C571.727 566.7 571.087 566.27 570.547 565.69C570.007 565.09 569.737 564.3 569.737 563.32C569.737 562.36 570.007 561.53 570.547 560.83C571.087 560.11 571.817 559.56 572.737 559.18C573.657 558.8 574.667 558.61 575.767 558.61C577.067 558.61 578.227 558.88 579.247 559.42C580.287 559.96 581.087 560.73 581.647 561.73L578.617 563.26C578.097 562.14 577.147 561.58 575.767 561.58C575.067 561.58 574.507 561.73 574.087 562.03C573.667 562.31 573.457 562.7 573.457 563.2ZM604.535 559H608.255V574H604.535V572.53C603.835 573.13 603.065 573.6 602.225 573.94C601.405 574.26 600.535 574.42 599.615 574.42C598.095 574.42 596.765 574.08 595.625 573.4C594.485 572.72 593.605 571.78 592.985 570.58C592.385 569.38 592.085 568.03 592.085 566.53C592.085 565.03 592.385 563.68 592.985 562.48C593.605 561.28 594.485 560.34 595.625 559.66C596.765 558.96 598.095 558.61 599.615 558.61C600.535 558.61 601.405 558.78 602.225 559.12C603.065 559.44 603.835 559.9 604.535 560.5V559ZM600.095 570.85C600.915 570.85 601.655 570.67 602.315 570.31C602.995 569.93 603.525 569.41 603.905 568.75C604.305 568.09 604.505 567.34 604.505 566.5C604.505 565.24 604.075 564.21 603.215 563.41C602.375 562.61 601.335 562.21 600.095 562.21C598.835 562.21 597.795 562.62 596.975 563.44C596.175 564.24 595.775 565.27 595.775 566.53C595.775 567.79 596.175 568.83 596.975 569.65C597.795 570.45 598.835 570.85 600.095 570.85ZM621.022 558.61C622.542 558.61 623.872 558.96 625.012 559.66C626.152 560.34 627.022 561.28 627.622 562.48C628.242 563.68 628.552 565.03 628.552 566.53C628.552 568.03 628.242 569.38 627.622 570.58C627.022 571.78 626.152 572.72 625.012 573.4C623.872 574.08 622.542 574.42 621.022 574.42C620.042 574.42 619.102 574.23 618.202 573.85C617.302 573.47 616.502 572.94 615.802 572.26V574H612.082V553H615.802V560.77C616.502 560.09 617.302 559.56 618.202 559.18C619.122 558.8 620.062 558.61 621.022 558.61ZM620.542 570.85C621.802 570.85 622.832 570.45 623.632 569.65C624.452 568.83 624.862 567.79 624.862 566.53C624.862 565.27 624.452 564.24 623.632 563.44C622.832 562.62 621.802 562.21 620.542 562.21C619.302 562.21 618.252 562.61 617.392 563.41C616.552 564.21 616.132 565.24 616.132 566.5C616.132 567.34 616.322 568.09 616.702 568.75C617.102 569.41 617.632 569.93 618.292 570.31C618.972 570.67 619.722 570.85 620.542 570.85ZM638.234 574.42C636.814 574.42 635.494 574.07 634.274 573.37C633.074 572.65 632.114 571.69 631.394 570.49C630.694 569.27 630.344 567.95 630.344 566.53C630.344 565.11 630.694 563.8 631.394 562.6C632.114 561.38 633.074 560.42 634.274 559.72C635.494 559 636.814 558.64 638.234 558.64C639.654 558.64 640.964 559 642.164 559.72C643.384 560.42 644.344 561.38 645.044 562.6C645.764 563.8 646.124 565.11 646.124 566.53C646.124 567.95 645.764 569.27 645.044 570.49C644.344 571.69 643.384 572.65 642.164 573.37C640.964 574.07 639.654 574.42 638.234 574.42ZM638.204 570.7C638.964 570.7 639.664 570.52 640.304 570.16C640.944 569.78 641.454 569.27 641.834 568.63C642.214 567.99 642.404 567.29 642.404 566.53C642.404 565.77 642.214 565.07 641.834 564.43C641.454 563.79 640.944 563.28 640.304 562.9C639.664 562.52 638.964 562.33 638.204 562.33C637.444 562.33 636.744 562.52 636.104 562.9C635.464 563.28 634.954 563.79 634.574 564.43C634.214 565.07 634.034 565.77 634.034 566.53C634.034 567.29 634.214 567.99 634.574 568.63C634.954 569.27 635.464 569.78 636.104 570.16C636.744 570.52 637.444 570.7 638.204 570.7ZM657.948 559H661.668V574H657.948V572.74C657.408 573.24 656.808 573.64 656.148 573.94C655.488 574.24 654.788 574.39 654.048 574.39C653.168 574.39 652.268 574.21 651.348 573.85C650.448 573.47 649.668 572.8 649.008 571.84C648.368 570.88 648.048 569.59 648.048 567.97V559H651.768V567.97C651.768 569.09 652.078 569.9 652.698 570.4C653.338 570.88 654.078 571.12 654.918 571.12C655.758 571.12 656.468 570.83 657.048 570.25C657.648 569.65 657.948 568.7 657.948 567.4V559ZM669.977 568.87C669.977 569.55 670.137 570.02 670.457 570.28C670.777 570.54 671.287 570.67 671.987 570.67C672.407 570.67 672.867 570.64 673.367 570.58V574C672.427 574.1 671.647 574.15 671.027 574.15C669.427 574.15 668.227 573.79 667.427 573.07C666.647 572.33 666.257 571.01 666.257 569.11V562.33H663.437V559H666.257V555.31L669.977 554.05V559H673.307V562.33H669.977V568.87ZM11.8375 603.87C11.8375 604.55 11.9975 605.02 12.3175 605.28C12.6375 605.54 13.1475 605.67 13.8475 605.67C14.2675 605.67 14.7275 605.64 15.2275 605.58V609C14.2875 609.1 13.5075 609.15 12.8875 609.15C11.2875 609.15 10.0875 608.79 9.28754 608.07C8.50754 607.33 8.11754 606.01 8.11754 604.11V597.33H5.29754V594H8.11754V590.31L11.8375 589.05V594H15.1675V597.33H11.8375V603.87ZM31.3682 609H27.6782V600.12C27.6782 599 27.3582 598.2 26.7182 597.72C26.0982 597.22 25.3582 596.97 24.4982 596.97C23.8182 596.97 23.1982 597.18 22.6382 597.6C22.0982 598.02 21.7482 598.69 21.5882 599.61V609H17.8682V588H21.5882V595.26C22.0882 594.78 22.6582 594.4 23.2982 594.12C23.9582 593.84 24.6582 593.7 25.3982 593.7C26.2782 593.7 27.1682 593.89 28.0682 594.27C28.9682 594.63 29.7382 595.28 30.3782 596.22C31.0382 597.16 31.3682 598.43 31.3682 600.03V609ZM41.2366 593.61C42.6766 593.61 43.9666 593.97 45.1066 594.69C46.2666 595.39 47.1666 596.34 47.8066 597.54C48.4466 598.74 48.7666 600.07 48.7666 601.53C48.7666 602.01 48.7266 602.45 48.6466 602.85H37.0666C37.3666 603.91 37.8966 604.74 38.6566 605.34C39.4166 605.92 40.3866 606.21 41.5666 606.21C42.2866 606.21 42.9766 606.05 43.6366 605.73C44.3166 605.41 44.8266 605 45.1666 604.5L48.0166 606.18C47.3166 607.22 46.4066 608.02 45.2866 608.58C44.1866 609.12 42.9166 609.39 41.4766 609.39C39.8766 609.39 38.4566 609.05 37.2166 608.37C35.9766 607.69 35.0166 606.75 34.3366 605.55C33.6766 604.35 33.3466 603 33.3466 601.5C33.3466 600.02 33.6766 598.68 34.3366 597.48C35.0166 596.28 35.9566 595.34 37.1566 594.66C38.3566 593.96 39.7166 593.61 41.2366 593.61ZM45.2866 599.94C45.1266 598.98 44.6766 598.23 43.9366 597.69C43.2166 597.13 42.3066 596.85 41.2066 596.85C40.4466 596.85 39.7466 596.99 39.1066 597.27C38.4866 597.55 37.9866 597.93 37.6066 598.41C37.2266 598.89 37.0266 599.4 37.0066 599.94H45.2866ZM68.0212 593.61C69.5412 593.61 70.8712 593.95 72.0112 594.63C73.1712 595.31 74.0512 596.25 74.6512 597.45C75.2712 598.65 75.5812 600 75.5812 601.5C75.5812 603 75.2712 604.35 74.6512 605.55C74.0512 606.75 73.1712 607.7 72.0112 608.4C70.8712 609.08 69.5412 609.42 68.0212 609.42C67.1212 609.42 66.2512 609.26 65.4112 608.94C64.5912 608.6 63.8312 608.13 63.1312 607.53V615H59.4112V594H63.1312V595.47C63.8112 594.87 64.5712 594.41 65.4112 594.09C66.2512 593.77 67.1212 593.61 68.0212 593.61ZM67.5712 605.82C68.8112 605.82 69.8312 605.42 70.6312 604.62C71.4512 603.8 71.8612 602.76 71.8612 601.5C71.8612 600.24 71.4512 599.21 70.6312 598.41C69.8312 597.59 68.8112 597.18 67.5712 597.18C66.7512 597.18 66.0012 597.37 65.3212 597.75C64.6412 598.11 64.1012 598.62 63.7012 599.28C63.3212 599.94 63.1312 600.69 63.1312 601.53C63.1312 602.79 63.5512 603.82 64.3912 604.62C65.2512 605.42 66.3112 605.82 67.5712 605.82ZM80.0519 591.51C79.3519 591.51 78.8019 591.32 78.4019 590.94C78.0019 590.56 77.8019 590.04 77.8019 589.38C77.8019 588.7 78.0019 588.17 78.4019 587.79C78.8019 587.41 79.3519 587.22 80.0519 587.22C80.7519 587.22 81.3019 587.41 81.7019 587.79C82.1019 588.17 82.3019 588.7 82.3019 589.38C82.3019 590.02 82.0919 590.54 81.6719 590.94C81.2719 591.32 80.7319 591.51 80.0519 591.51ZM78.1619 609V594H81.8819V609H78.1619ZM92.0667 593.61C93.5067 593.61 94.7967 593.97 95.9367 594.69C97.0967 595.39 97.9967 596.34 98.6367 597.54C99.2767 598.74 99.5967 600.07 99.5967 601.53C99.5967 602.01 99.5567 602.45 99.4767 602.85H87.8967C88.1967 603.91 88.7267 604.74 89.4867 605.34C90.2467 605.92 91.2167 606.21 92.3967 606.21C93.1167 606.21 93.8067 606.05 94.4667 605.73C95.1467 605.41 95.6567 605 95.9967 604.5L98.8467 606.18C98.1467 607.22 97.2367 608.02 96.1167 608.58C95.0167 609.12 93.7467 609.39 92.3067 609.39C90.7067 609.39 89.2867 609.05 88.0467 608.37C86.8067 607.69 85.8467 606.75 85.1667 605.55C84.5067 604.35 84.1767 603 84.1767 601.5C84.1767 600.02 84.5067 598.68 85.1667 597.48C85.8467 596.28 86.7867 595.34 87.9867 594.66C89.1867 593.96 90.5467 593.61 92.0667 593.61ZM96.1167 599.94C95.9567 598.98 95.5067 598.23 94.7667 597.69C94.0467 597.13 93.1367 596.85 92.0367 596.85C91.2767 596.85 90.5767 596.99 89.9367 597.27C89.3167 597.55 88.8167 597.93 88.4367 598.41C88.0567 598.89 87.8567 599.4 87.8367 599.94H96.1167ZM115.42 606.09C114.68 607.11 113.75 607.92 112.63 608.52C111.51 609.12 110.3 609.42 109 609.42C107.58 609.42 106.26 609.07 105.04 608.37C103.84 607.65 102.88 606.69 102.16 605.49C101.46 604.27 101.11 602.95 101.11 601.53C101.11 600.11 101.46 598.8 102.16 597.6C102.88 596.38 103.84 595.42 105.04 594.72C106.26 594 107.58 593.64 109 593.64C110.28 593.64 111.48 593.94 112.6 594.54C113.72 595.12 114.65 595.91 115.39 596.91L112.33 598.98C111.39 597.88 110.28 597.33 109 597.33C108.24 597.33 107.54 597.52 106.9 597.9C106.26 598.28 105.75 598.79 105.37 599.43C104.99 600.07 104.8 600.77 104.8 601.53C104.8 602.29 104.99 602.99 105.37 603.63C105.75 604.27 106.26 604.78 106.9 605.16C107.54 605.52 108.24 605.7 109 605.7C110.28 605.7 111.39 605.15 112.33 604.05L115.42 606.09ZM124.498 593.61C125.938 593.61 127.228 593.97 128.368 594.69C129.528 595.39 130.428 596.34 131.068 597.54C131.708 598.74 132.028 600.07 132.028 601.53C132.028 602.01 131.988 602.45 131.908 602.85H120.328C120.628 603.91 121.158 604.74 121.918 605.34C122.678 605.92 123.648 606.21 124.828 606.21C125.548 606.21 126.238 606.05 126.898 605.73C127.578 605.41 128.088 605 128.428 604.5L131.278 606.18C130.578 607.22 129.668 608.02 128.548 608.58C127.448 609.12 126.178 609.39 124.738 609.39C123.138 609.39 121.718 609.05 120.478 608.37C119.238 607.69 118.278 606.75 117.598 605.55C116.938 604.35 116.608 603 116.608 601.5C116.608 600.02 116.938 598.68 117.598 597.48C118.278 596.28 119.218 595.34 120.418 594.66C121.618 593.96 122.978 593.61 124.498 593.61ZM128.548 599.94C128.388 598.98 127.938 598.23 127.198 597.69C126.478 597.13 125.568 596.85 124.468 596.85C123.708 596.85 123.008 596.99 122.368 597.27C121.748 597.55 121.248 597.93 120.868 598.41C120.488 598.89 120.288 599.4 120.268 599.94H128.548ZM134.878 607.32C134.878 606.68 135.048 606.19 135.388 605.85C135.748 605.49 136.248 605.31 136.888 605.31C137.528 605.31 138.018 605.49 138.358 605.85C138.698 606.19 138.868 606.68 138.868 607.32C138.868 607.96 138.698 608.46 138.358 608.82C138.018 609.18 137.528 609.36 136.888 609.36C136.248 609.36 135.748 609.18 135.388 608.82C135.048 608.46 134.878 607.96 134.878 607.32ZM160.399 609.39C158.439 609.39 156.629 608.91 154.969 607.95C153.309 606.97 151.989 605.65 151.009 603.99C150.049 602.33 149.569 600.52 149.569 598.56C149.569 596.6 150.049 594.79 151.009 593.13C151.989 591.47 153.309 590.16 154.969 589.2C156.629 588.22 158.439 587.73 160.399 587.73C162.359 587.73 164.169 588.22 165.829 589.2C167.489 590.16 168.799 591.47 169.759 593.13C170.739 594.79 171.229 596.6 171.229 598.56C171.229 600.52 170.739 602.33 169.759 603.99C168.799 605.65 167.489 606.97 165.829 607.95C164.169 608.91 162.359 609.39 160.399 609.39ZM160.399 605.46C161.639 605.46 162.789 605.15 163.849 604.53C164.909 603.91 165.749 603.07 166.369 602.01C166.989 600.95 167.299 599.8 167.299 598.56C167.299 597.32 166.989 596.17 166.369 595.11C165.749 594.05 164.909 593.21 163.849 592.59C162.789 591.97 161.639 591.66 160.399 591.66C159.159 591.66 157.999 591.97 156.919 592.59C155.859 593.21 155.019 594.05 154.399 595.11C153.779 596.17 153.469 597.32 153.469 598.56C153.469 599.8 153.779 600.95 154.399 602.01C155.019 603.07 155.859 603.91 156.919 604.53C157.999 605.15 159.159 605.46 160.399 605.46ZM183.412 594H187.132V609H183.412V607.74C182.872 608.24 182.272 608.64 181.612 608.94C180.952 609.24 180.252 609.39 179.512 609.39C178.632 609.39 177.732 609.21 176.812 608.85C175.912 608.47 175.132 607.8 174.472 606.84C173.832 605.88 173.512 604.59 173.512 602.97V594H177.232V602.97C177.232 604.09 177.542 604.9 178.162 605.4C178.802 605.88 179.542 606.12 180.382 606.12C181.222 606.12 181.932 605.83 182.512 605.25C183.112 604.65 183.412 603.7 183.412 602.4V594ZM199.893 593.7L199.623 597.21C199.503 597.17 199.293 597.15 198.993 597.15C197.753 597.15 196.723 597.51 195.903 598.23C195.103 598.95 194.703 599.93 194.703 601.17V609H190.983V594H194.703V596.52C195.043 595.72 195.623 595.05 196.443 594.51C197.263 593.97 198.253 593.7 199.413 593.7H199.893ZM213.325 598.2C213.325 598.62 213.555 598.94 214.015 599.16C214.495 599.36 215.245 599.57 216.265 599.79C217.425 600.03 218.395 600.3 219.175 600.6C219.955 600.9 220.625 601.38 221.185 602.04C221.765 602.68 222.055 603.55 222.055 604.65C222.055 605.63 221.755 606.48 221.155 607.2C220.575 607.92 219.795 608.47 218.815 608.85C217.835 609.21 216.765 609.39 215.605 609.39C214.025 609.39 212.665 609.09 211.525 608.49C210.405 607.89 209.575 607.03 209.035 605.91L212.095 604.32C212.635 605.7 213.805 606.39 215.605 606.39C216.385 606.39 217.055 606.24 217.615 605.94C218.175 605.64 218.455 605.21 218.455 604.65C218.455 604.17 218.195 603.82 217.675 603.6C217.175 603.36 216.355 603.1 215.215 602.82C214.035 602.54 213.075 602.26 212.335 601.98C211.595 601.7 210.955 601.27 210.415 600.69C209.875 600.09 209.605 599.3 209.605 598.32C209.605 597.36 209.875 596.53 210.415 595.83C210.955 595.11 211.685 594.56 212.605 594.18C213.525 593.8 214.535 593.61 215.635 593.61C216.935 593.61 218.095 593.88 219.115 594.42C220.155 594.96 220.955 595.73 221.515 596.73L218.485 598.26C217.965 597.14 217.015 596.58 215.635 596.58C214.935 596.58 214.375 596.73 213.955 597.03C213.535 597.31 213.325 597.7 213.325 598.2ZM234.929 594H238.829L233.579 609.03C232.799 611.09 231.719 612.63 230.339 613.65C228.979 614.69 227.369 615.14 225.509 615V611.4C225.629 611.42 225.809 611.43 226.049 611.43C227.649 611.43 228.899 610.46 229.799 608.52L223.199 594H227.189L231.599 603.54L234.929 594ZM243.266 598.2C243.266 598.62 243.496 598.94 243.956 599.16C244.436 599.36 245.186 599.57 246.206 599.79C247.366 600.03 248.336 600.3 249.116 600.6C249.896 600.9 250.566 601.38 251.126 602.04C251.706 602.68 251.996 603.55 251.996 604.65C251.996 605.63 251.696 606.48 251.096 607.2C250.516 607.92 249.736 608.47 248.756 608.85C247.776 609.21 246.706 609.39 245.546 609.39C243.966 609.39 242.606 609.09 241.466 608.49C240.346 607.89 239.516 607.03 238.976 605.91L242.036 604.32C242.576 605.7 243.746 606.39 245.546 606.39C246.326 606.39 246.996 606.24 247.556 605.94C248.116 605.64 248.396 605.21 248.396 604.65C248.396 604.17 248.136 603.82 247.616 603.6C247.116 603.36 246.296 603.1 245.156 602.82C243.976 602.54 243.016 602.26 242.276 601.98C241.536 601.7 240.896 601.27 240.356 600.69C239.816 600.09 239.546 599.3 239.546 598.32C239.546 597.36 239.816 596.53 240.356 595.83C240.896 595.11 241.626 594.56 242.546 594.18C243.466 593.8 244.476 593.61 245.576 593.61C246.876 593.61 248.036 593.88 249.056 594.42C250.096 594.96 250.896 595.73 251.456 596.73L248.426 598.26C247.906 597.14 246.956 596.58 245.576 596.58C244.876 596.58 244.316 596.73 243.896 597.03C243.476 597.31 243.266 597.7 243.266 598.2ZM259.484 603.87C259.484 604.55 259.644 605.02 259.964 605.28C260.284 605.54 260.794 605.67 261.494 605.67C261.914 605.67 262.374 605.64 262.874 605.58V609C261.934 609.1 261.154 609.15 260.534 609.15C258.934 609.15 257.734 608.79 256.934 608.07C256.154 607.33 255.764 606.01 255.764 604.11V597.33H252.944V594H255.764V590.31L259.484 589.05V594H262.814V597.33H259.484V603.87ZM272.301 593.61C273.741 593.61 275.031 593.97 276.171 594.69C277.331 595.39 278.231 596.34 278.871 597.54C279.511 598.74 279.831 600.07 279.831 601.53C279.831 602.01 279.791 602.45 279.711 602.85H268.131C268.431 603.91 268.961 604.74 269.721 605.34C270.481 605.92 271.451 606.21 272.631 606.21C273.351 606.21 274.041 606.05 274.701 605.73C275.381 605.41 275.891 605 276.231 604.5L279.081 606.18C278.381 607.22 277.471 608.02 276.351 608.58C275.251 609.12 273.981 609.39 272.541 609.39C270.941 609.39 269.521 609.05 268.281 608.37C267.041 607.69 266.081 606.75 265.401 605.55C264.741 604.35 264.411 603 264.411 601.5C264.411 600.02 264.741 598.68 265.401 597.48C266.081 596.28 267.021 595.34 268.221 594.66C269.421 593.96 270.781 593.61 272.301 593.61ZM276.351 599.94C276.191 598.98 275.741 598.23 275.001 597.69C274.281 597.13 273.371 596.85 272.271 596.85C271.511 596.85 270.811 596.99 270.171 597.27C269.551 597.55 269.051 597.93 268.671 598.41C268.291 598.89 268.091 599.4 268.071 599.94H276.351ZM299.495 593.61C300.375 593.61 301.265 593.8 302.165 594.18C303.065 594.54 303.835 595.2 304.475 596.16C305.135 597.12 305.465 598.41 305.465 600.03V609H301.775V600.03C301.775 598.91 301.455 598.11 300.815 597.63C300.195 597.13 299.465 596.88 298.625 596.88C297.905 596.88 297.275 597.1 296.735 597.54C296.195 597.96 295.845 598.64 295.685 599.58V600.03V609H291.995V600.03C291.995 598.91 291.675 598.11 291.035 597.63C290.415 597.13 289.675 596.88 288.815 596.88C288.135 596.88 287.515 597.09 286.955 597.51C286.415 597.93 286.065 598.6 285.905 599.52V609H282.185V594H285.905V595.17C286.405 594.69 286.975 594.31 287.615 594.03C288.275 593.75 288.975 593.61 289.715 593.61C290.635 593.61 291.565 593.81 292.505 594.21C293.445 594.61 294.195 595.28 294.755 596.22C295.275 595.48 295.955 594.86 296.795 594.36C297.635 593.86 298.535 593.61 299.495 593.61ZM328.456 594H332.176V609H328.456V607.53C327.756 608.13 326.986 608.6 326.146 608.94C325.326 609.26 324.456 609.42 323.536 609.42C322.016 609.42 320.686 609.08 319.546 608.4C318.406 607.72 317.526 606.78 316.906 605.58C316.306 604.38 316.006 603.03 316.006 601.53C316.006 600.03 316.306 598.68 316.906 597.48C317.526 596.28 318.406 595.34 319.546 594.66C320.686 593.96 322.016 593.61 323.536 593.61C324.456 593.61 325.326 593.78 326.146 594.12C326.986 594.44 327.756 594.9 328.456 595.5V594ZM324.016 605.85C324.836 605.85 325.576 605.67 326.236 605.31C326.916 604.93 327.446 604.41 327.826 603.75C328.226 603.09 328.426 602.34 328.426 601.5C328.426 600.24 327.996 599.21 327.136 598.41C326.296 597.61 325.256 597.21 324.016 597.21C322.756 597.21 321.716 597.62 320.896 598.44C320.096 599.24 319.696 600.27 319.696 601.53C319.696 602.79 320.096 603.83 320.896 604.65C321.716 605.45 322.756 605.85 324.016 605.85ZM344.867 594H348.587V609H344.867V607.74C344.327 608.24 343.727 608.64 343.067 608.94C342.407 609.24 341.707 609.39 340.967 609.39C340.087 609.39 339.187 609.21 338.267 608.85C337.367 608.47 336.587 607.8 335.927 606.84C335.287 605.88 334.967 604.59 334.967 602.97V594H338.687V602.97C338.687 604.09 338.997 604.9 339.617 605.4C340.257 605.88 340.997 606.12 341.837 606.12C342.677 606.12 343.387 605.83 343.967 605.25C344.567 604.65 344.867 603.7 344.867 602.4V594ZM356.896 603.87C356.896 604.55 357.056 605.02 357.376 605.28C357.696 605.54 358.206 605.67 358.906 605.67C359.326 605.67 359.786 605.64 360.286 605.58V609C359.346 609.1 358.566 609.15 357.946 609.15C356.346 609.15 355.146 608.79 354.346 608.07C353.566 607.33 353.176 606.01 353.176 604.11V597.33H350.356V594H353.176V590.31L356.896 589.05V594H360.226V597.33H356.896V603.87ZM369.83 609.42C368.41 609.42 367.09 609.07 365.87 608.37C364.67 607.65 363.71 606.69 362.99 605.49C362.29 604.27 361.94 602.95 361.94 601.53C361.94 600.11 362.29 598.8 362.99 597.6C363.71 596.38 364.67 595.42 365.87 594.72C367.09 594 368.41 593.64 369.83 593.64C371.25 593.64 372.56 594 373.76 594.72C374.98 595.42 375.94 596.38 376.64 597.6C377.36 598.8 377.72 600.11 377.72 601.53C377.72 602.95 377.36 604.27 376.64 605.49C375.94 606.69 374.98 607.65 373.76 608.37C372.56 609.07 371.25 609.42 369.83 609.42ZM369.8 605.7C370.56 605.7 371.26 605.52 371.9 605.16C372.54 604.78 373.05 604.27 373.43 603.63C373.81 602.99 374 602.29 374 601.53C374 600.77 373.81 600.07 373.43 599.43C373.05 598.79 372.54 598.28 371.9 597.9C371.26 597.52 370.56 597.33 369.8 597.33C369.04 597.33 368.34 597.52 367.7 597.9C367.06 598.28 366.55 598.79 366.17 599.43C365.81 600.07 365.63 600.77 365.63 601.53C365.63 602.29 365.81 602.99 366.17 603.63C366.55 604.27 367.06 604.78 367.7 605.16C368.34 605.52 369.04 605.7 369.8 605.7ZM397.2 593.61C398.08 593.61 398.97 593.8 399.87 594.18C400.77 594.54 401.54 595.2 402.18 596.16C402.84 597.12 403.17 598.41 403.17 600.03V609H399.48V600.03C399.48 598.91 399.16 598.11 398.52 597.63C397.9 597.13 397.17 596.88 396.33 596.88C395.61 596.88 394.98 597.1 394.44 597.54C393.9 597.96 393.55 598.64 393.39 599.58V600.03V609H389.7V600.03C389.7 598.91 389.38 598.11 388.74 597.63C388.12 597.13 387.38 596.88 386.52 596.88C385.84 596.88 385.22 597.09 384.66 597.51C384.12 597.93 383.77 598.6 383.61 599.52V609H379.89V594H383.61V595.17C384.11 594.69 384.68 594.31 385.32 594.03C385.98 593.75 386.68 593.61 387.42 593.61C388.34 593.61 389.27 593.81 390.21 594.21C391.15 594.61 391.9 595.28 392.46 596.22C392.98 595.48 393.66 594.86 394.5 594.36C395.34 593.86 396.24 593.61 397.2 593.61ZM417.665 594H421.385V609H417.665V607.53C416.965 608.13 416.195 608.6 415.355 608.94C414.535 609.26 413.665 609.42 412.745 609.42C411.225 609.42 409.895 609.08 408.755 608.4C407.615 607.72 406.735 606.78 406.115 605.58C405.515 604.38 405.215 603.03 405.215 601.53C405.215 600.03 405.515 598.68 406.115 597.48C406.735 596.28 407.615 595.34 408.755 594.66C409.895 593.96 411.225 593.61 412.745 593.61C413.665 593.61 414.535 593.78 415.355 594.12C416.195 594.44 416.965 594.9 417.665 595.5V594ZM413.225 605.85C414.045 605.85 414.785 605.67 415.445 605.31C416.125 604.93 416.655 604.41 417.035 603.75C417.435 603.09 417.635 602.34 417.635 601.5C417.635 600.24 417.205 599.21 416.345 598.41C415.505 597.61 414.465 597.21 413.225 597.21C411.965 597.21 410.925 597.62 410.105 598.44C409.305 599.24 408.905 600.27 408.905 601.53C408.905 602.79 409.305 603.83 410.105 604.65C410.925 605.45 411.965 605.85 413.225 605.85ZM429.992 603.87C429.992 604.55 430.152 605.02 430.472 605.28C430.792 605.54 431.302 605.67 432.002 605.67C432.422 605.67 432.882 605.64 433.382 605.58V609C432.442 609.1 431.662 609.15 431.042 609.15C429.442 609.15 428.242 608.79 427.442 608.07C426.662 607.33 426.272 606.01 426.272 604.11V597.33H423.452V594H426.272V590.31L429.992 589.05V594H433.322V597.33H429.992V603.87ZM438.294 591.51C437.594 591.51 437.044 591.32 436.644 590.94C436.244 590.56 436.044 590.04 436.044 589.38C436.044 588.7 436.244 588.17 436.644 587.79C437.044 587.41 437.594 587.22 438.294 587.22C438.994 587.22 439.544 587.41 439.944 587.79C440.344 588.17 440.544 588.7 440.544 589.38C440.544 590.02 440.334 590.54 439.914 590.94C439.514 591.32 438.974 591.51 438.294 591.51ZM436.404 609V594H440.124V609H436.404ZM456.729 606.09C455.989 607.11 455.059 607.92 453.939 608.52C452.819 609.12 451.609 609.42 450.309 609.42C448.889 609.42 447.569 609.07 446.349 608.37C445.149 607.65 444.189 606.69 443.469 605.49C442.769 604.27 442.419 602.95 442.419 601.53C442.419 600.11 442.769 598.8 443.469 597.6C444.189 596.38 445.149 595.42 446.349 594.72C447.569 594 448.889 593.64 450.309 593.64C451.589 593.64 452.789 593.94 453.909 594.54C455.029 595.12 455.959 595.91 456.699 596.91L453.639 598.98C452.699 597.88 451.589 597.33 450.309 597.33C449.549 597.33 448.849 597.52 448.209 597.9C447.569 598.28 447.059 598.79 446.679 599.43C446.299 600.07 446.109 600.77 446.109 601.53C446.109 602.29 446.299 602.99 446.679 603.63C447.059 604.27 447.569 604.78 448.209 605.16C448.849 605.52 449.549 605.7 450.309 605.7C451.589 605.7 452.699 605.15 453.639 604.05L456.729 606.09ZM470.195 594H473.915V609H470.195V607.53C469.495 608.13 468.725 608.6 467.885 608.94C467.065 609.26 466.195 609.42 465.275 609.42C463.755 609.42 462.425 609.08 461.285 608.4C460.145 607.72 459.265 606.78 458.645 605.58C458.045 604.38 457.745 603.03 457.745 601.53C457.745 600.03 458.045 598.68 458.645 597.48C459.265 596.28 460.145 595.34 461.285 594.66C462.425 593.96 463.755 593.61 465.275 593.61C466.195 593.61 467.065 593.78 467.885 594.12C468.725 594.44 469.495 594.9 470.195 595.5V594ZM465.755 605.85C466.575 605.85 467.315 605.67 467.975 605.31C468.655 604.93 469.185 604.41 469.565 603.75C469.965 603.09 470.165 602.34 470.165 601.5C470.165 600.24 469.735 599.21 468.875 598.41C468.035 597.61 466.995 597.21 465.755 597.21C464.495 597.21 463.455 597.62 462.635 598.44C461.835 599.24 461.435 600.27 461.435 601.53C461.435 602.79 461.835 603.83 462.635 604.65C463.455 605.45 464.495 605.85 465.755 605.85ZM481.022 604.77C481.022 605.09 481.102 605.32 481.262 605.46C481.422 605.6 481.672 605.67 482.012 605.67C482.272 605.67 482.582 605.64 482.942 605.58V609C482.202 609.12 481.512 609.18 480.872 609.18C479.712 609.18 478.822 608.88 478.202 608.28C477.602 607.66 477.302 606.57 477.302 605.01V588H481.022V604.77ZM489.02 604.77C489.02 605.09 489.1 605.32 489.26 605.46C489.42 605.6 489.67 605.67 490.01 605.67C490.27 605.67 490.58 605.64 490.94 605.58V609C490.2 609.12 489.51 609.18 488.87 609.18C487.71 609.18 486.82 608.88 486.2 608.28C485.6 607.66 485.3 606.57 485.3 605.01V588H489.02V604.77ZM503.171 594H507.071L501.821 609.03C501.041 611.09 499.961 612.63 498.581 613.65C497.221 614.69 495.611 615.14 493.751 615V611.4C493.871 611.42 494.051 611.43 494.291 611.43C495.891 611.43 497.141 610.46 498.041 608.52L491.441 594H495.431L499.841 603.54L503.171 594ZM528.672 594H532.392V608.25C532.392 609.67 532.032 610.92 531.312 612C530.612 613.08 529.632 613.91 528.372 614.49C527.112 615.09 525.702 615.39 524.142 615.39C522.402 615.39 520.822 615.05 519.402 614.37C517.982 613.71 516.982 612.84 516.402 611.76L519.582 609.93C519.882 610.51 520.442 610.99 521.262 611.37C522.082 611.77 523.072 611.97 524.232 611.97C525.512 611.97 526.572 611.62 527.412 610.92C528.252 610.24 528.672 609.35 528.672 608.25V607.56C527.992 608.16 527.232 608.62 526.392 608.94C525.552 609.26 524.682 609.42 523.782 609.42C522.262 609.42 520.932 609.08 519.792 608.4C518.652 607.72 517.772 606.78 517.152 605.58C516.552 604.38 516.252 603.03 516.252 601.53C516.252 600.03 516.552 598.68 517.152 597.48C517.772 596.28 518.652 595.34 519.792 594.66C520.932 593.96 522.262 593.61 523.782 593.61C524.682 593.61 525.542 593.78 526.362 594.12C527.202 594.44 527.972 594.89 528.672 595.47V594ZM524.262 605.85C525.082 605.85 525.822 605.67 526.482 605.31C527.162 604.93 527.692 604.41 528.072 603.75C528.472 603.09 528.672 602.34 528.672 601.5C528.672 600.24 528.242 599.21 527.382 598.41C526.542 597.61 525.502 597.21 524.262 597.21C523.002 597.21 521.962 597.62 521.142 598.44C520.342 599.24 519.942 600.27 519.942 601.53C519.942 602.79 520.342 603.83 521.142 604.65C521.962 605.45 523.002 605.85 524.262 605.85ZM542.682 593.61C544.122 593.61 545.412 593.97 546.552 594.69C547.712 595.39 548.612 596.34 549.252 597.54C549.892 598.74 550.212 600.07 550.212 601.53C550.212 602.01 550.172 602.45 550.092 602.85H538.512C538.812 603.91 539.342 604.74 540.102 605.34C540.862 605.92 541.832 606.21 543.012 606.21C543.732 606.21 544.422 606.05 545.082 605.73C545.762 605.41 546.272 605 546.612 604.5L549.462 606.18C548.762 607.22 547.852 608.02 546.732 608.58C545.632 609.12 544.362 609.39 542.922 609.39C541.322 609.39 539.902 609.05 538.662 608.37C537.422 607.69 536.462 606.75 535.782 605.55C535.122 604.35 534.792 603 534.792 601.5C534.792 600.02 535.122 598.68 535.782 597.48C536.462 596.28 537.402 595.34 538.602 594.66C539.802 593.96 541.162 593.61 542.682 593.61ZM546.732 599.94C546.572 598.98 546.122 598.23 545.382 597.69C544.662 597.13 543.752 596.85 542.652 596.85C541.892 596.85 541.192 596.99 540.552 597.27C539.932 597.55 539.432 597.93 539.052 598.41C538.672 598.89 538.472 599.4 538.452 599.94H546.732ZM560.186 593.61C561.066 593.61 561.956 593.8 562.856 594.18C563.776 594.54 564.556 595.2 565.196 596.16C565.856 597.12 566.186 598.41 566.186 600.03V609H562.466V600.03C562.466 598.91 562.146 598.11 561.506 597.63C560.886 597.13 560.156 596.88 559.316 596.88C558.476 596.88 557.756 597.18 557.156 597.78C556.576 598.36 556.286 599.3 556.286 600.6V609H552.566V594H556.286V595.26C556.826 594.76 557.426 594.36 558.086 594.06C558.746 593.76 559.446 593.61 560.186 593.61ZM576.198 593.61C577.638 593.61 578.928 593.97 580.068 594.69C581.228 595.39 582.128 596.34 582.768 597.54C583.408 598.74 583.728 600.07 583.728 601.53C583.728 602.01 583.688 602.45 583.608 602.85H572.028C572.328 603.91 572.858 604.74 573.618 605.34C574.378 605.92 575.348 606.21 576.528 606.21C577.248 606.21 577.938 606.05 578.598 605.73C579.278 605.41 579.788 605 580.128 604.5L582.978 606.18C582.278 607.22 581.368 608.02 580.248 608.58C579.148 609.12 577.878 609.39 576.438 609.39C574.838 609.39 573.418 609.05 572.178 608.37C570.938 607.69 569.978 606.75 569.298 605.55C568.638 604.35 568.308 603 568.308 601.5C568.308 600.02 568.638 598.68 569.298 597.48C569.978 596.28 570.918 595.34 572.118 594.66C573.318 593.96 574.678 593.61 576.198 593.61ZM580.248 599.94C580.088 598.98 579.638 598.23 578.898 597.69C578.178 597.13 577.268 596.85 576.168 596.85C575.408 596.85 574.708 596.99 574.068 597.27C573.448 597.55 572.948 597.93 572.568 598.41C572.188 598.89 571.988 599.4 571.968 599.94H580.248ZM594.991 593.7L594.721 597.21C594.601 597.17 594.391 597.15 594.091 597.15C592.851 597.15 591.821 597.51 591.001 598.23C590.201 598.95 589.801 599.93 589.801 601.17V609H586.081V594H589.801V596.52C590.141 595.72 590.721 595.05 591.541 594.51C592.361 593.97 593.351 593.7 594.511 593.7H594.991ZM608.3 594H612.02V609H608.3V607.53C607.6 608.13 606.83 608.6 605.99 608.94C605.17 609.26 604.3 609.42 603.38 609.42C601.86 609.42 600.53 609.08 599.39 608.4C598.25 607.72 597.37 606.78 596.75 605.58C596.15 604.38 595.85 603.03 595.85 601.53C595.85 600.03 596.15 598.68 596.75 597.48C597.37 596.28 598.25 595.34 599.39 594.66C600.53 593.96 601.86 593.61 603.38 593.61C604.3 593.61 605.17 593.78 605.99 594.12C606.83 594.44 607.6 594.9 608.3 595.5V594ZM603.86 605.85C604.68 605.85 605.42 605.67 606.08 605.31C606.76 604.93 607.29 604.41 607.67 603.75C608.07 603.09 608.27 602.34 608.27 601.5C608.27 600.24 607.84 599.21 606.98 598.41C606.14 597.61 605.1 597.21 603.86 597.21C602.6 597.21 601.56 597.62 600.74 598.44C599.94 599.24 599.54 600.27 599.54 601.53C599.54 602.79 599.94 603.83 600.74 604.65C601.56 605.45 602.6 605.85 603.86 605.85ZM620.627 603.87C620.627 604.55 620.787 605.02 621.107 605.28C621.427 605.54 621.937 605.67 622.637 605.67C623.057 605.67 623.517 605.64 624.017 605.58V609C623.077 609.1 622.297 609.15 621.677 609.15C620.077 609.15 618.877 608.79 618.077 608.07C617.297 607.33 616.907 606.01 616.907 604.11V597.33H614.087V594H616.907V590.31L620.627 589.05V594H623.957V597.33H620.627V603.87ZM633.444 593.61C634.884 593.61 636.174 593.97 637.314 594.69C638.474 595.39 639.374 596.34 640.014 597.54C640.654 598.74 640.974 600.07 640.974 601.53C640.974 602.01 640.934 602.45 640.854 602.85H629.274C629.574 603.91 630.104 604.74 630.864 605.34C631.624 605.92 632.594 606.21 633.774 606.21C634.494 606.21 635.184 606.05 635.844 605.73C636.524 605.41 637.034 605 637.374 604.5L640.224 606.18C639.524 607.22 638.614 608.02 637.494 608.58C636.394 609.12 635.124 609.39 633.684 609.39C632.084 609.39 630.664 609.05 629.424 608.37C628.184 607.69 627.224 606.75 626.544 605.55C625.884 604.35 625.554 603 625.554 601.5C625.554 600.02 625.884 598.68 626.544 597.48C627.224 596.28 628.164 595.34 629.364 594.66C630.564 593.96 631.924 593.61 633.444 593.61ZM637.494 599.94C637.334 598.98 636.884 598.23 636.144 597.69C635.424 597.13 634.514 596.85 633.414 596.85C632.654 596.85 631.954 596.99 631.314 597.27C630.694 597.55 630.194 597.93 629.814 598.41C629.434 598.89 629.234 599.4 629.214 599.94H637.494ZM646.567 598.2C646.567 598.62 646.797 598.94 647.257 599.16C647.737 599.36 648.487 599.57 649.507 599.79C650.667 600.03 651.637 600.3 652.417 600.6C653.197 600.9 653.867 601.38 654.427 602.04C655.007 602.68 655.297 603.55 655.297 604.65C655.297 605.63 654.997 606.48 654.397 607.2C653.817 607.92 653.037 608.47 652.057 608.85C651.077 609.21 650.007 609.39 648.847 609.39C647.267 609.39 645.907 609.09 644.767 608.49C643.647 607.89 642.817 607.03 642.277 605.91L645.337 604.32C645.877 605.7 647.047 606.39 648.847 606.39C649.627 606.39 650.297 606.24 650.857 605.94C651.417 605.64 651.697 605.21 651.697 604.65C651.697 604.17 651.437 603.82 650.917 603.6C650.417 603.36 649.597 603.1 648.457 602.82C647.277 602.54 646.317 602.26 645.577 601.98C644.837 601.7 644.197 601.27 643.657 600.69C643.117 600.09 642.847 599.3 642.847 598.32C642.847 597.36 643.117 596.53 643.657 595.83C644.197 595.11 644.927 594.56 645.847 594.18C646.767 593.8 647.777 593.61 648.877 593.61C650.177 593.61 651.337 593.88 652.357 594.42C653.397 594.96 654.197 595.73 654.757 596.73L651.727 598.26C651.207 597.14 650.257 596.58 648.877 596.58C648.177 596.58 647.617 596.73 647.197 597.03C646.777 597.31 646.567 597.7 646.567 598.2ZM677.646 594H681.366V609H677.646V607.53C676.946 608.13 676.176 608.6 675.336 608.94C674.516 609.26 673.646 609.42 672.726 609.42C671.206 609.42 669.876 609.08 668.736 608.4C667.596 607.72 666.716 606.78 666.096 605.58C665.496 604.38 665.196 603.03 665.196 601.53C665.196 600.03 665.496 598.68 666.096 597.48C666.716 596.28 667.596 595.34 668.736 594.66C669.876 593.96 671.206 593.61 672.726 593.61C673.646 593.61 674.516 593.78 675.336 594.12C676.176 594.44 676.946 594.9 677.646 595.5V594ZM673.206 605.85C674.026 605.85 674.766 605.67 675.426 605.31C676.106 604.93 676.636 604.41 677.016 603.75C677.416 603.09 677.616 602.34 677.616 601.5C677.616 600.24 677.186 599.21 676.326 598.41C675.486 597.61 674.446 597.21 673.206 597.21C671.946 597.21 670.906 597.62 670.086 598.44C669.286 599.24 668.886 600.27 668.886 601.53C668.886 602.79 669.286 603.83 670.086 604.65C670.906 605.45 671.946 605.85 673.206 605.85ZM177.362 629H181.082V644H177.362V642.74C176.822 643.24 176.222 643.64 175.562 643.94C174.902 644.24 174.202 644.39 173.462 644.39C172.582 644.39 171.682 644.21 170.762 643.85C169.862 643.47 169.082 642.8 168.422 641.84C167.782 640.88 167.462 639.59 167.462 637.97V629H171.182V637.97C171.182 639.09 171.492 639.9 172.112 640.4C172.752 640.88 173.492 641.12 174.332 641.12C175.172 641.12 175.882 640.83 176.462 640.25C177.062 639.65 177.362 638.7 177.362 637.4V629ZM192.554 628.61C193.434 628.61 194.324 628.8 195.224 629.18C196.144 629.54 196.924 630.2 197.564 631.16C198.224 632.12 198.554 633.41 198.554 635.03V644H194.834V635.03C194.834 633.91 194.514 633.11 193.874 632.63C193.254 632.13 192.524 631.88 191.684 631.88C190.844 631.88 190.124 632.18 189.524 632.78C188.944 633.36 188.654 634.3 188.654 635.6V644H184.934V629H188.654V630.26C189.194 629.76 189.794 629.36 190.454 629.06C191.114 628.76 191.814 628.61 192.554 628.61ZM203.436 626.51C202.736 626.51 202.186 626.32 201.786 625.94C201.386 625.56 201.186 625.04 201.186 624.38C201.186 623.7 201.386 623.17 201.786 622.79C202.186 622.41 202.736 622.22 203.436 622.22C204.136 622.22 204.686 622.41 205.086 622.79C205.486 623.17 205.686 623.7 205.686 624.38C205.686 625.02 205.476 625.54 205.056 625.94C204.656 626.32 204.116 626.51 203.436 626.51ZM201.546 644V629H205.266V644H201.546ZM220.716 629H224.436V650H220.716V642.56C220.016 643.14 219.246 643.6 218.406 643.94C217.586 644.26 216.726 644.42 215.826 644.42C214.306 644.42 212.976 644.08 211.836 643.4C210.696 642.7 209.816 641.75 209.196 640.55C208.596 639.35 208.296 638 208.296 636.5C208.296 635 208.596 633.65 209.196 632.45C209.816 631.25 210.696 630.31 211.836 629.63C212.976 628.95 214.306 628.61 215.826 628.61C216.726 628.61 217.596 628.77 218.436 629.09C219.276 629.41 220.036 629.87 220.716 630.47V629ZM216.306 640.82C217.546 640.82 218.586 640.42 219.426 639.62C220.286 638.82 220.716 637.79 220.716 636.53C220.716 635.69 220.516 634.94 220.116 634.28C219.736 633.62 219.206 633.11 218.526 632.75C217.866 632.37 217.126 632.18 216.306 632.18C215.046 632.18 214.006 632.59 213.186 633.41C212.386 634.21 211.986 635.24 211.986 636.5C211.986 637.76 212.386 638.8 213.186 639.62C214.006 640.42 215.046 640.82 216.306 640.82ZM237.128 629H240.848V644H237.128V642.74C236.588 643.24 235.988 643.64 235.328 643.94C234.668 644.24 233.968 644.39 233.228 644.39C232.348 644.39 231.448 644.21 230.528 643.85C229.628 643.47 228.848 642.8 228.188 641.84C227.548 640.88 227.228 639.59 227.228 637.97V629H230.948V637.97C230.948 639.09 231.258 639.9 231.878 640.4C232.518 640.88 233.258 641.12 234.098 641.12C234.938 641.12 235.648 640.83 236.228 640.25C236.828 639.65 237.128 638.7 237.128 637.4V629ZM251.163 628.61C252.603 628.61 253.893 628.97 255.033 629.69C256.193 630.39 257.093 631.34 257.733 632.54C258.373 633.74 258.693 635.07 258.693 636.53C258.693 637.01 258.653 637.45 258.573 637.85H246.993C247.293 638.91 247.823 639.74 248.583 640.34C249.343 640.92 250.313 641.21 251.493 641.21C252.213 641.21 252.903 641.05 253.563 640.73C254.243 640.41 254.753 640 255.093 639.5L257.943 641.18C257.243 642.22 256.333 643.02 255.213 643.58C254.113 644.12 252.843 644.39 251.403 644.39C249.803 644.39 248.383 644.05 247.143 643.37C245.903 642.69 244.943 641.75 244.263 640.55C243.603 639.35 243.273 638 243.273 636.5C243.273 635.02 243.603 633.68 244.263 632.48C244.943 631.28 245.883 630.34 247.083 629.66C248.283 628.96 249.643 628.61 251.163 628.61ZM255.213 634.94C255.053 633.98 254.603 633.23 253.863 632.69C253.143 632.13 252.233 631.85 251.133 631.85C250.373 631.85 249.673 631.99 249.033 632.27C248.413 632.55 247.913 632.93 247.533 633.41C247.153 633.89 246.953 634.4 246.933 634.94H255.213ZM281.068 623H284.788V644H281.068V642.56C280.388 643.16 279.628 643.62 278.788 643.94C277.948 644.26 277.078 644.42 276.178 644.42C274.658 644.42 273.328 644.08 272.188 643.4C271.048 642.72 270.168 641.78 269.548 640.58C268.948 639.38 268.648 638.03 268.648 636.53C268.648 635.03 268.948 633.68 269.548 632.48C270.168 631.28 271.048 630.34 272.188 629.66C273.328 628.96 274.658 628.61 276.178 628.61C277.078 628.61 277.938 628.78 278.758 629.12C279.598 629.44 280.368 629.89 281.068 630.47V623ZM276.658 640.85C277.478 640.85 278.218 640.67 278.878 640.31C279.558 639.93 280.088 639.41 280.468 638.75C280.868 638.09 281.068 637.34 281.068 636.5C281.068 635.24 280.638 634.21 279.778 633.41C278.938 632.61 277.898 632.21 276.658 632.21C275.398 632.21 274.358 632.62 273.538 633.44C272.738 634.24 272.338 635.27 272.338 636.53C272.338 637.79 272.738 638.83 273.538 639.65C274.358 640.45 275.398 640.85 276.658 640.85ZM290.535 626.51C289.835 626.51 289.285 626.32 288.885 625.94C288.485 625.56 288.285 625.04 288.285 624.38C288.285 623.7 288.485 623.17 288.885 622.79C289.285 622.41 289.835 622.22 290.535 622.22C291.235 622.22 291.785 622.41 292.185 622.79C292.585 623.17 292.785 623.7 292.785 624.38C292.785 625.02 292.575 625.54 292.155 625.94C291.755 626.32 291.215 626.51 290.535 626.51ZM288.645 644V629H292.365V644H288.645ZM307.495 629H311.215V643.25C311.215 644.67 310.855 645.92 310.135 647C309.435 648.08 308.455 648.91 307.195 649.49C305.935 650.09 304.525 650.39 302.965 650.39C301.225 650.39 299.645 650.05 298.225 649.37C296.805 648.71 295.805 647.84 295.225 646.76L298.405 644.93C298.705 645.51 299.265 645.99 300.085 646.37C300.905 646.77 301.895 646.97 303.055 646.97C304.335 646.97 305.395 646.62 306.235 645.92C307.075 645.24 307.495 644.35 307.495 643.25V642.56C306.815 643.16 306.055 643.62 305.215 643.94C304.375 644.26 303.505 644.42 302.605 644.42C301.085 644.42 299.755 644.08 298.615 643.4C297.475 642.72 296.595 641.78 295.975 640.58C295.375 639.38 295.075 638.03 295.075 636.53C295.075 635.03 295.375 633.68 295.975 632.48C296.595 631.28 297.475 630.34 298.615 629.66C299.755 628.96 301.085 628.61 302.605 628.61C303.505 628.61 304.365 628.78 305.185 629.12C306.025 629.44 306.795 629.89 307.495 630.47V629ZM303.085 640.85C303.905 640.85 304.645 640.67 305.305 640.31C305.985 639.93 306.515 639.41 306.895 638.75C307.295 638.09 307.495 637.34 307.495 636.5C307.495 635.24 307.065 634.21 306.205 633.41C305.365 632.61 304.325 632.21 303.085 632.21C301.825 632.21 300.785 632.62 299.965 633.44C299.165 634.24 298.765 635.27 298.765 636.53C298.765 637.79 299.165 638.83 299.965 639.65C300.785 640.45 301.825 640.85 303.085 640.85ZM316.961 626.51C316.261 626.51 315.711 626.32 315.311 625.94C314.911 625.56 314.711 625.04 314.711 624.38C314.711 623.7 314.911 623.17 315.311 622.79C315.711 622.41 316.261 622.22 316.961 622.22C317.661 622.22 318.211 622.41 318.611 622.79C319.011 623.17 319.211 623.7 319.211 624.38C319.211 625.02 319.001 625.54 318.581 625.94C318.181 626.32 317.641 626.51 316.961 626.51ZM315.071 644V629H318.791V644H315.071ZM327.878 638.87C327.878 639.55 328.038 640.02 328.358 640.28C328.678 640.54 329.188 640.67 329.888 640.67C330.308 640.67 330.768 640.64 331.268 640.58V644C330.328 644.1 329.548 644.15 328.928 644.15C327.328 644.15 326.128 643.79 325.328 643.07C324.548 642.33 324.158 641.01 324.158 639.11V632.33H321.338V629H324.158V625.31L327.878 624.05V629H331.208V632.33H327.878V638.87ZM345.522 629H349.242V644H345.522V642.53C344.822 643.13 344.052 643.6 343.212 643.94C342.392 644.26 341.522 644.42 340.602 644.42C339.082 644.42 337.752 644.08 336.612 643.4C335.472 642.72 334.592 641.78 333.972 640.58C333.372 639.38 333.072 638.03 333.072 636.53C333.072 635.03 333.372 633.68 333.972 632.48C334.592 631.28 335.472 630.34 336.612 629.66C337.752 628.96 339.082 628.61 340.602 628.61C341.522 628.61 342.392 628.78 343.212 629.12C344.052 629.44 344.822 629.9 345.522 630.5V629ZM341.082 640.85C341.902 640.85 342.642 640.67 343.302 640.31C343.982 639.93 344.512 639.41 344.892 638.75C345.292 638.09 345.492 637.34 345.492 636.5C345.492 635.24 345.062 634.21 344.202 633.41C343.362 632.61 342.322 632.21 341.082 632.21C339.822 632.21 338.782 632.62 337.962 633.44C337.162 634.24 336.762 635.27 336.762 636.53C336.762 637.79 337.162 638.83 337.962 639.65C338.782 640.45 339.822 640.85 341.082 640.85ZM356.349 639.77C356.349 640.09 356.429 640.32 356.589 640.46C356.749 640.6 356.999 640.67 357.339 640.67C357.599 640.67 357.909 640.64 358.269 640.58V644C357.529 644.12 356.839 644.18 356.199 644.18C355.039 644.18 354.149 643.88 353.529 643.28C352.929 642.66 352.629 641.57 352.629 640.01V623H356.349V639.77ZM377.171 626.15C376.671 626.09 376.221 626.06 375.821 626.06C375.121 626.06 374.611 626.19 374.291 626.45C373.971 626.71 373.811 627.19 373.811 627.89V629H377.141V632.33H373.811V644H370.091V632.33H367.601V629H370.091V627.65C370.091 625.75 370.481 624.44 371.261 623.72C372.041 622.98 373.221 622.61 374.801 622.61C375.421 622.61 376.211 622.66 377.171 622.76V626.15ZM381.191 626.51C380.491 626.51 379.941 626.32 379.541 625.94C379.141 625.56 378.941 625.04 378.941 624.38C378.941 623.7 379.141 623.17 379.541 622.79C379.941 622.41 380.491 622.22 381.191 622.22C381.891 622.22 382.441 622.41 382.841 622.79C383.241 623.17 383.441 623.7 383.441 624.38C383.441 625.02 383.231 625.54 382.811 625.94C382.411 626.32 381.871 626.51 381.191 626.51ZM379.301 644V629H383.021V644H379.301ZM394.351 628.61C395.231 628.61 396.121 628.8 397.021 629.18C397.941 629.54 398.721 630.2 399.361 631.16C400.021 632.12 400.351 633.41 400.351 635.03V644H396.631V635.03C396.631 633.91 396.311 633.11 395.671 632.63C395.051 632.13 394.321 631.88 393.481 631.88C392.641 631.88 391.921 632.18 391.321 632.78C390.741 633.36 390.451 634.3 390.451 635.6V644H386.731V629H390.451V630.26C390.991 629.76 391.591 629.36 392.251 629.06C392.911 628.76 393.611 628.61 394.351 628.61ZM415.103 629H418.823V643.25C418.823 644.67 418.463 645.92 417.743 647C417.043 648.08 416.063 648.91 414.803 649.49C413.543 650.09 412.133 650.39 410.573 650.39C408.833 650.39 407.253 650.05 405.833 649.37C404.413 648.71 403.413 647.84 402.833 646.76L406.013 644.93C406.313 645.51 406.873 645.99 407.693 646.37C408.513 646.77 409.503 646.97 410.663 646.97C411.943 646.97 413.003 646.62 413.843 645.92C414.683 645.24 415.103 644.35 415.103 643.25V642.56C414.423 643.16 413.663 643.62 412.823 643.94C411.983 644.26 411.113 644.42 410.213 644.42C408.693 644.42 407.363 644.08 406.223 643.4C405.083 642.72 404.203 641.78 403.583 640.58C402.983 639.38 402.683 638.03 402.683 636.53C402.683 635.03 402.983 633.68 403.583 632.48C404.203 631.28 405.083 630.34 406.223 629.66C407.363 628.96 408.693 628.61 410.213 628.61C411.113 628.61 411.973 628.78 412.793 629.12C413.633 629.44 414.403 629.89 415.103 630.47V629ZM410.693 640.85C411.513 640.85 412.253 640.67 412.913 640.31C413.593 639.93 414.123 639.41 414.503 638.75C414.903 638.09 415.103 637.34 415.103 636.5C415.103 635.24 414.673 634.21 413.813 633.41C412.973 632.61 411.933 632.21 410.693 632.21C409.433 632.21 408.393 632.62 407.573 633.44C406.773 634.24 406.373 635.27 406.373 636.53C406.373 637.79 406.773 638.83 407.573 639.65C408.393 640.45 409.433 640.85 410.693 640.85ZM429.113 628.61C430.553 628.61 431.843 628.97 432.983 629.69C434.143 630.39 435.043 631.34 435.683 632.54C436.323 633.74 436.643 635.07 436.643 636.53C436.643 637.01 436.603 637.45 436.523 637.85H424.943C425.243 638.91 425.773 639.74 426.533 640.34C427.293 640.92 428.263 641.21 429.443 641.21C430.163 641.21 430.853 641.05 431.513 640.73C432.193 640.41 432.703 640 433.043 639.5L435.893 641.18C435.193 642.22 434.283 643.02 433.163 643.58C432.063 644.12 430.793 644.39 429.353 644.39C427.753 644.39 426.333 644.05 425.093 643.37C423.853 642.69 422.893 641.75 422.213 640.55C421.553 639.35 421.223 638 421.223 636.5C421.223 635.02 421.553 633.68 422.213 632.48C422.893 631.28 423.833 630.34 425.033 629.66C426.233 628.96 427.593 628.61 429.113 628.61ZM433.163 634.94C433.003 633.98 432.553 633.23 431.813 632.69C431.093 632.13 430.183 631.85 429.083 631.85C428.323 631.85 427.623 631.99 426.983 632.27C426.363 632.55 425.863 632.93 425.483 633.41C425.103 633.89 424.903 634.4 424.883 634.94H433.163ZM447.906 628.7L447.636 632.21C447.516 632.17 447.306 632.15 447.006 632.15C445.766 632.15 444.736 632.51 443.916 633.23C443.116 633.95 442.716 634.93 442.716 636.17V644H438.996V629H442.716V631.52C443.056 630.72 443.636 630.05 444.456 629.51C445.276 628.97 446.266 628.7 447.426 628.7H447.906ZM459.003 628.61C460.523 628.61 461.853 628.95 462.993 629.63C464.153 630.31 465.033 631.25 465.633 632.45C466.253 633.65 466.563 635 466.563 636.5C466.563 638 466.253 639.35 465.633 640.55C465.033 641.75 464.153 642.7 462.993 643.4C461.853 644.08 460.523 644.42 459.003 644.42C458.103 644.42 457.233 644.26 456.393 643.94C455.573 643.6 454.813 643.13 454.113 642.53V650H450.393V629H454.113V630.47C454.793 629.87 455.553 629.41 456.393 629.09C457.233 628.77 458.103 628.61 459.003 628.61ZM458.553 640.82C459.793 640.82 460.813 640.42 461.613 639.62C462.433 638.8 462.843 637.76 462.843 636.5C462.843 635.24 462.433 634.21 461.613 633.41C460.813 632.59 459.793 632.18 458.553 632.18C457.733 632.18 456.983 632.37 456.303 632.75C455.623 633.11 455.083 633.62 454.683 634.28C454.303 634.94 454.113 635.69 454.113 636.53C454.113 637.79 454.533 638.82 455.373 639.62C456.233 640.42 457.293 640.82 458.553 640.82ZM477.994 628.7L477.724 632.21C477.604 632.17 477.394 632.15 477.094 632.15C475.854 632.15 474.824 632.51 474.004 633.23C473.204 633.95 472.804 634.93 472.804 636.17V644H469.084V629H472.804V631.52C473.144 630.72 473.724 630.05 474.544 629.51C475.364 628.97 476.354 628.7 477.514 628.7H477.994ZM482.576 626.51C481.876 626.51 481.326 626.32 480.926 625.94C480.526 625.56 480.326 625.04 480.326 624.38C480.326 623.7 480.526 623.17 480.926 622.79C481.326 622.41 481.876 622.22 482.576 622.22C483.276 622.22 483.826 622.41 484.226 622.79C484.626 623.17 484.826 623.7 484.826 624.38C484.826 625.02 484.616 625.54 484.196 625.94C483.796 626.32 483.256 626.51 482.576 626.51ZM480.686 644V629H484.406V644H480.686ZM495.747 628.61C496.627 628.61 497.517 628.8 498.417 629.18C499.337 629.54 500.117 630.2 500.757 631.16C501.417 632.12 501.747 633.41 501.747 635.03V644H498.027V635.03C498.027 633.91 497.707 633.11 497.067 632.63C496.447 632.13 495.717 631.88 494.877 631.88C494.037 631.88 493.317 632.18 492.717 632.78C492.137 633.36 491.847 634.3 491.847 635.6V644H488.127V629H491.847V630.26C492.387 629.76 492.987 629.36 493.647 629.06C494.307 628.76 495.007 628.61 495.747 628.61ZM509.635 638.87C509.635 639.55 509.795 640.02 510.115 640.28C510.435 640.54 510.945 640.67 511.645 640.67C512.065 640.67 512.525 640.64 513.025 640.58V644C512.085 644.1 511.305 644.15 510.685 644.15C509.085 644.15 507.885 643.79 507.085 643.07C506.305 642.33 505.915 641.01 505.915 639.11V632.33H503.095V629H505.915V625.31L509.635 624.05V629H512.965V632.33H509.635V638.87ZM516.162 642.32C516.162 641.68 516.332 641.19 516.672 640.85C517.032 640.49 517.532 640.31 518.172 640.31C518.812 640.31 519.302 640.49 519.642 640.85C519.982 641.19 520.152 641.68 520.152 642.32C520.152 642.96 519.982 643.46 519.642 643.82C519.302 644.18 518.812 644.36 518.172 644.36C517.532 644.36 517.032 644.18 516.672 643.82C516.332 643.46 516.162 642.96 516.162 642.32Z" fill="white"/>
</svg>
