<svg width="329" height="244" viewBox="0 0 329 244" fill="none" xmlns="http://www.w3.org/2000/svg">
<g clip-path="url(#clip0_184_20714)">
<path d="M328.336 99.9584C326.73 97.5925 324.802 95.2592 323.451 93.7689C322.906 93.1681 317.69 88.8601 317.299 88.902C316.796 88.9533 316.134 89.6425 315.329 89.7404C315.059 89.773 314.784 89.7823 314.509 89.7823C316.386 93.2752 317.96 96.9358 319.469 100.606C319.548 100.727 319.618 100.857 319.693 100.978C319.721 100.96 319.753 100.941 319.772 100.936C319.776 101.006 319.79 101.085 319.795 101.155C320.279 102.012 320.638 102.934 320.829 103.931C320.838 103.95 320.843 103.968 320.852 103.982H320.843C320.88 104.187 320.913 104.392 320.936 104.602C320.997 105.119 320.908 105.533 320.731 105.864C321.267 108.402 321.686 111.057 320.945 112.58C320.489 113.516 315.538 116.161 312.814 118.317C312.716 118.895 312.371 119.435 311.705 119.812C311.263 120.059 310.83 120.329 310.392 120.609L310.462 120.716C310.276 121.191 309.433 121.624 308.655 121.773C305.739 123.804 302.838 126.002 299.326 126.505C296.807 128.242 290.254 129.639 288.102 129.35L289.97 91.6265C294.166 91.9293 298.251 92.8141 302.386 93.3125C302.978 93.3823 308.035 92.7815 307.533 94.4721C307.542 94.4721 307.551 94.4721 307.56 94.4721C308.692 94.5047 309.866 94.6817 311.03 94.9891C311.268 94.7935 311.431 94.5047 311.505 94.1321C311.002 93.1215 310.485 92.1155 309.931 91.1329C308.66 90.2154 306.932 89.1442 306.364 88.9672C303.988 88.2314 291.088 87.6492 290.631 87.0019L290.72 85.94C290.212 85.5674 289.868 84.9713 289.882 84.1423C289.979 78.4372 292.08 73.2537 293.016 67.6976C293.593 64.2745 293.705 60.7303 294.483 57.3491L294.599 55.5887L295.037 55.3558C295.126 55.0904 295.214 54.8296 295.312 54.5687C294.851 52.8735 295.615 50.177 296.965 49.4737L296.942 48.5562C293.081 46.2323 292.82 44.3368 288.009 46.1251C285.094 47.2103 285.881 48.9754 285.303 51.5741L284.381 51.1038C283.697 52.7291 285.345 52.9201 285.345 53.6326C285.331 57.1582 282.9 64.3024 282.174 68.2285C281.466 72.0847 281.033 76.0806 280.646 79.9834L279.724 79.5084C280.604 81.9208 279.887 84.0818 279.514 86.5268L269.934 87.4257L269.473 86.4989C269.948 88.7437 266.483 88.3665 264.714 88.9579C260.909 90.2294 247.924 95.7808 245.856 98.7428C245.423 99.3622 244.045 103.61 244.087 104.443C244.143 105.584 246.471 109.971 246.182 110.246L242.941 109.813C243.267 111.392 242.01 111.248 241.274 112.081C237.613 116.231 234.996 121.959 232.607 126.938L230.352 127.017C229.78 123.641 231.708 118.103 229.845 115.183C228.741 113.455 224.801 113.134 223.129 112.118C223.353 114.904 220.605 113.781 220.041 116.273L218.244 115.844C218.011 116.031 219.166 116.692 219.105 117.386C218.97 119.016 215.859 123.161 215.375 125.075L201.477 124.218C202.469 118.601 203.699 113.008 203.368 107.252L197.514 104.681C196.182 106.008 196.937 107.461 194.52 107.014L189.397 124.483L166.087 126.551L173.31 113.986C182.015 98.2492 184.357 80.3793 190.081 64.158C193.076 55.6679 196.503 46.5955 200.052 38.6409C202.665 32.7821 202.428 20.4217 200.905 14.1903C200.797 13.7526 199.81 11.1352 199.652 10.9023C198.958 9.91032 194.706 8.25234 193.332 8.21974C192.312 8.19645 188.153 9.92895 187.371 10.553C186.551 11.2097 186.667 12.6628 186.108 13.5104C171.024 36.4427 161.108 78.5257 156.828 105.878C156.125 110.386 155.864 121.056 153.973 124.446C153.317 125.624 148.715 130.235 147.463 129.341C145.828 125.08 147.598 120.185 146.964 116.096C146.596 113.721 143.667 110.814 141.231 111.285C141.003 111.327 137.869 113.618 137.459 113.981C135.116 116.063 132.792 119.44 131.619 122.35C130.221 121.573 132.224 119.607 132.094 118.429C132.01 117.656 130.911 116.58 131.074 115.453C127.744 114.275 124.069 114.442 121.643 117.26C119.663 119.561 118.918 123.179 117.596 125.788C115.486 129.942 112.994 133.868 111.043 138.097L106.944 139.117C107.415 136.495 108.211 133.924 108.668 131.297C109.045 129.136 110.824 119.766 110.661 118.434C110.326 115.733 107.485 113.874 104.914 113.935C102.837 116.226 101.43 118.457 99.8701 121.102C97.1176 125.755 94.6167 130.92 92.1716 135.759C91.0911 137.892 89.9827 140.514 89.177 142.777L63.6273 147.504L65.0198 150.76L62.2301 149.353L64.093 146.331C60.5023 145.786 61.3825 149.861 61.7644 152.148C59.7804 152.05 59.0678 150.056 56.6414 150.76C57.028 147.476 55.9382 148.366 54.5689 148.054C53.3953 148.659 52.2263 149.274 51.0573 149.889V151.687C52.4964 151.966 52.0167 149.768 53.6142 150.289C54.7832 150.671 53.6328 153.154 52.6874 153.545L51.2902 152.166C49.8511 152.795 50.4845 155.953 48.5005 155.412C47.0381 154.267 49.2457 152.842 49.0594 151.048C49.0594 151.007 49.0454 150.974 49.0408 150.937C46.1393 152.427 43.2006 153.838 40.1268 154.956C38.683 155.482 37.0763 155.999 35.4648 156.6C35.5673 157.177 35.6372 157.774 35.6418 158.398C35.6418 158.449 35.6325 158.5 35.6325 158.551C37.4116 158.537 39.1907 158.519 40.9651 158.509C41.2538 158.114 41.5612 157.685 42.0362 157.336L47.5551 158.481C48.9197 157.485 50.2237 157.368 51.2856 158.612C51.6721 158.626 52.0633 158.635 52.4499 158.649C56.9301 158.817 61.5408 159.236 66.0118 158.766C66.8175 158.682 67.6092 158.537 68.3963 158.36L68.7549 158.216C68.7549 158.216 68.7549 158.258 68.7549 158.281C71.4282 157.638 74.0223 156.6 76.6629 155.864C76.8073 155.319 78.102 155.114 77.6037 154.024L79.9277 154.951L80.2071 153.503L83.6488 153.088C84.0447 154.709 81.5996 154.77 81.3901 155.012C81.2317 155.198 80.7986 158.351 80.2537 159.702C75.2332 172.155 57.6101 200.02 46.3535 207.303C33.099 215.882 19.1598 199.982 14.3675 188.605C8.06155 173.636 9.62639 157.052 10.0455 141.189L14.7261 118.154C15.9789 120.11 17.8977 120.185 19.374 118.378C18.7639 115.909 17.9536 119.011 16.1186 118.611L16.5797 116.287L15.1825 117.446L23.1091 94.3929L23.9614 94.7888C25.0419 92.898 24.3387 91.7849 25.4517 89.6193C27.8456 84.9573 30.1975 78.6701 32.9686 73.2909C43.8526 52.1749 56.688 31.003 74.0875 14.7446C75.6709 13.2635 81.9443 7.2324 83.3089 6.71544C83.9609 6.47326 84.5896 6.86913 85.1392 6.71544C86.3873 6.35683 86.8949 5.10869 88.4551 5.95165C93.4244 8.6482 93.145 15.7924 92.4324 20.5149C90.672 32.1999 84.6408 50.3865 80.0441 61.2193C75.1866 72.6575 68.9738 83.2807 63.292 94.2998C62.1742 96.4701 61.2335 100.438 59.4451 102.096C58.3366 103.121 56.0918 103.6 55.3141 105.412C56.2921 109.152 58.8909 107.722 61.2661 106.25C63.0125 105.165 64.3492 103.88 65.5414 102.608C68.7223 99.2179 71.6098 95.7436 72.9418 91.1468L74.3297 92.0783C74.8746 87.7983 78.4327 84.133 80.5564 80.37C89.9454 63.7529 95.9673 45.2263 99.8095 26.5041C100.997 20.7245 103.07 12.3833 99.8887 7.11597C99.3252 6.18451 94.477 1.61575 93.3872 1.08482C90.3646 -0.391532 89.0093 -0.144697 85.8797 0.465404C79.7833 1.653 76.323 4.19587 72.001 8.01016C67.7117 11.7919 64.5261 16.3746 60.8236 21.0551C47.5132 37.9004 33.6252 58.1735 23.1837 77.026C21.1857 80.6308 19.0899 84.3752 17.9722 88.3525L17.0501 87.8821C17.3807 90.4902 15.2896 92.5068 14.3908 94.7749C11.9597 100.908 9.57516 107.671 7.40022 113.865C7.1301 114.629 6.87861 116.948 6.7156 117.139C6.66903 117.19 6.52 117.246 6.31508 117.311C6.02633 117.973 5.70032 118.611 5.44883 119.281L5.8773 118.862L5.3976 122.346L5.09488 122.243C5.08556 122.406 5.07625 122.569 5.06228 122.728C4.88996 124.451 4.2426 125.992 3.64647 127.581C3.44155 128.931 3.40429 130.324 3.06897 131.656C2.84542 131.521 2.71502 131.339 2.64516 131.129C1.99314 134.86 2.32847 138.823 1.28058 142.512C1.22935 142.698 1.15949 142.87 1.07566 143.024C1.65782 144.198 0.796228 145.613 0.754312 146.801C0.619252 150.615 1.05703 154.448 0.279272 158.207C0.246671 158.211 0.223385 158.211 0.190784 158.216C-0.195768 160.899 0.0929818 163.809 0.190784 166.511C0.283929 169.049 0.516792 171.592 1.0058 174.088C1.91397 178.689 4.16808 183.016 4.3078 187.748C4.33574 187.818 4.36369 187.883 4.39163 187.953C4.53601 187.78 4.71298 187.636 4.92721 187.547C5.72826 191.003 7.66568 194.463 9.67296 197.472C15.5364 206.242 25.4052 213.507 35.8421 216.013C46.2231 218.509 55.8217 211.225 62.463 203.871C69.6817 195.879 75.8526 185.866 80.8498 176.365L80.943 176.486C81.0082 176.361 81.078 176.235 81.1432 176.1C81.1013 176.193 81.0641 176.286 81.0221 176.384C81.2271 175.914 81.4972 175.541 81.9163 175.238C81.907 174.647 82.4612 174.637 82.5963 174.274C83.565 171.648 85.0786 169.445 85.861 167.177C86.4385 165.495 86.0101 164.499 86.3268 163.465C86.5736 162.654 90.6394 154.923 91.0818 154.7C91.8177 154.327 92.8283 154.416 93.6433 154.472C94.6306 154.541 99.2832 155.268 100.08 155.501C100.662 155.668 102.292 157.368 102.534 157.969C102.571 158.058 102.595 158.146 102.613 158.23C102.893 158.235 103.167 158.281 103.428 158.37L103.2 157.741C106.111 158.118 108.924 156.362 111.378 155.901C114.615 155.296 113.18 156.339 116.124 154.467C118.928 152.688 120.623 153.214 123.343 152.497C126.388 151.696 129.672 149.707 133.002 150.746L132.07 148.892L134.865 149.819C134.334 146.615 137.636 149.689 138.106 149.339C138.418 147.132 139.489 148.543 140.565 148.319C141.003 148.226 141.436 147.649 142.121 147.523C143.332 147.304 146.14 146.871 147.234 146.973C148.357 147.08 147.532 148.045 148.366 147.951L148.599 146.545L150.229 146.554C150.033 154.104 148.496 161.611 147.905 169.151C146.713 184.38 144.929 206.223 149.516 220.623C151.365 226.431 158.491 240.314 164.317 242.615C164.685 242.759 169.696 243.937 169.99 243.923C170.246 243.91 170.181 243.09 170.577 242.983C172.63 242.415 174.526 243.146 176.31 240.878C178.405 238.214 180.804 228.927 181.665 225.276C184.255 214.341 185.75 198.939 186.067 187.804C186.099 186.709 186.798 185.503 186.556 184.292L187.943 184.758C188.335 183.37 186.993 184.245 186.961 183.151C186.91 181.363 188.283 178.289 188.363 176.091C188.665 167.619 189.727 161.998 191.054 153.731C191.19 152.893 190.179 151.947 191.436 151.235C193.15 153.172 195.707 152.385 197.994 153.535C199.652 154.369 201.529 157.117 203.531 158.225C205.613 159.38 209.385 160.559 211.719 159.86C213.093 159.45 214.597 157.257 215.137 157.275L226.133 160.545L224.279 161.462L226.324 161.965L226.883 160.973C235.727 165.523 245.777 166.087 254.789 170.311C259.53 172.532 266.851 177.981 270.191 181.931C270.708 182.541 270.796 183.64 270.936 183.752C271.252 184.003 272.123 183.659 272.603 183.924C273.539 184.446 278.662 190.896 279.98 192.158C281.256 193.374 285.196 196.773 286.812 196.331C287.721 195.018 290.547 194.571 291.335 193.816C291.544 193.616 291.642 193.388 291.693 193.164C291.26 191.427 291.2 189.587 291.167 187.785L288.359 140.518C288.331 140.341 288.321 140.155 288.326 139.978L288.233 138.399C288.973 137.412 288.936 137.854 288.992 138.39C289.285 138.101 289.681 137.906 290.17 137.845L290.198 137.691L297.51 136.886C298.106 136.709 298.698 136.509 299.28 136.285C302.321 135 305.222 133.151 307.812 131.581C308.087 131.413 308.361 131.25 308.636 131.087C313.321 127.813 317.769 124.022 322.371 121.312C328.034 115.234 329.277 107.624 328.313 99.9584H328.336ZM166.585 102.143C169.836 83.467 174.735 64.7169 181.228 46.9215C183.1 41.7846 187.305 30.0204 189.941 25.8288C190.612 24.767 191.599 24.2407 192.624 23.6259C193.616 35.2551 189.131 46.6188 185.191 57.405C179.747 72.3082 173.557 87.0531 167.582 101.737C167.265 102.52 167.051 103.349 167.009 104.192C166.18 104.29 166.506 102.59 166.585 102.138V102.143ZM137.212 127.022L139.07 131.204L135.344 132.135L137.212 127.022ZM151.081 143.452C150.574 145.143 149.461 144.23 148.953 144.403C148.869 144.431 148.869 145.096 148.543 145.171C146.568 145.632 144.664 144.603 143.015 144.668C142.824 144.677 141.301 146.019 139.736 146.07C139.48 146.079 139.783 144.784 138.446 145.255C137.794 145.483 137.543 146.382 136.504 146.578C135.498 146.768 134.301 146.442 133.253 146.587C131.125 146.876 117.94 148.985 117.181 148.44L119.947 144.468L146.41 138.32L151.132 138.25C151.645 138.707 151.3 142.717 151.081 143.457V143.452ZM182.844 162.417L181.922 161.942C181.987 162.836 182.42 163.46 182.364 164.429C181.926 171.89 177.534 184.93 175.993 193.043C173.324 207.089 172.328 221.517 167.479 235.065C164.522 231.829 162.468 227.306 160.95 223.208C155.049 207.322 156.726 193.499 157.671 177.008C158.156 168.597 158.505 159.962 159.627 151.524C159.888 149.567 160.549 147.649 160.503 145.646L165.155 145.18L162.366 147.039C165.239 146.568 169.356 146.736 172.328 147.09C173.92 147.281 185.056 149.414 185.219 150.14L182.853 162.417H182.844ZM186.062 144.668C177.651 144.887 169.333 142.754 160.955 143.783L161.951 135.693C162.268 134.725 167.442 134.25 168.704 134.063C174.996 133.137 181.414 133.039 187.706 132.145L188.237 133.085C187.347 137.067 187.408 140.858 186.053 144.663L186.062 144.668ZM211.719 135.4C211.113 135.661 211.239 133.463 210.331 134.473C209.767 135.102 211.56 136.052 211.598 136.56L207.998 147.979L203.89 146.964C202.642 142.107 202.302 137.133 201.943 132.14L212.655 132.61L211.719 135.395V135.4ZM250.146 102.329C250.276 102.059 254.3 99.0549 254.887 98.6869C262.236 94.1089 270.763 92.2087 279.254 91.1562C279.421 94.0064 278.802 96.6284 277.349 99.0316L276.958 98.9943C276.934 102.301 274.578 105.258 272.449 107.708L265.026 121.456C263.391 121.582 255.287 113.325 253.904 111.62C252.586 109.999 250.416 107.284 250.025 105.254C249.843 104.313 249.708 103.223 250.146 102.329ZM276.93 120.967L277.391 122.588V126.551L275.062 126.081C275.747 124.344 277.344 123.021 276.93 120.967ZM262.022 125.629C260.774 127.753 257.537 132.955 254.552 130.994C253.327 130.189 254.035 126.635 253.173 125.392V118.639L258.794 124.428L262.022 125.634V125.629ZM268.505 170.604C253.718 159.65 235.331 156.227 218.244 150.303C219.78 144.561 220.377 138.553 220.577 132.61C220.619 132.555 221.695 133.067 221.825 133.225C223.106 134.795 225.458 140.197 227.223 141.324C228.941 142.423 232.225 141.892 230.814 145.646C232.159 145.865 233.515 146.154 234.539 144.943L233.151 143.089C236.37 141.296 238.675 139.117 240.403 135.843L247.589 137.962L247.119 139.592C249.023 138.781 250.057 139.95 251.557 140.998C251.957 141.278 252.069 142.06 252.372 142.26C253.513 143.015 259.218 143.066 260.648 142.642C263.289 141.86 264.378 138.576 267.876 138.642C268.849 138.66 269.445 139.624 270.405 139.126L270.498 142.316C271.509 141.711 272.999 143.955 273.67 143.313C274.131 142.87 272.882 142.018 272.887 141.687C272.887 141.226 273.865 140.938 273.679 140.295L272.277 140.518L273.674 139.582L272.743 138.199L277.838 138.218L280.655 181.037C276.464 177.767 272.789 173.762 268.514 170.595L268.505 170.604Z" fill="white"/>
<path d="M267.978 76.1832C270.319 76.1832 272.216 74.2858 272.216 71.9451C272.216 69.6045 270.319 67.707 267.978 67.707C265.638 67.707 263.74 69.6045 263.74 71.9451C263.74 74.2858 265.638 76.1832 267.978 76.1832Z" fill="black"/>
<path d="M327.014 81.445C327.907 81.445 328.63 80.7215 328.63 79.829C328.63 78.9364 327.907 78.2129 327.014 78.2129C326.121 78.2129 325.398 78.9364 325.398 79.829C325.398 80.7215 326.121 81.445 327.014 81.445Z" fill="black"/>
</g>
<defs>
<clipPath id="clip0_184_20714">
<rect width="328.63" height="243.942" fill="white"/>
</clipPath>
</defs>
</svg>
