<?xml version="1.0" encoding="UTF-8"?>
<svg version="1.1" viewBox="0 0 1728 1448" width="432" height="362" xmlns="http://www.w3.org/2000/svg">
<path transform="translate(817,2)" d="m0 0h95l55 2 66 4 56 5 51 6 58 9 43 8 42 9 56 14 24 7 41 13 39 14 30 12 26 11 33 15 44 24 21 13 12 8 17 12 10 8 11 9 12 11 17 17 9 11 11 15 9 15 9 19 6 18 3 12 2 15 1 18v744l-2 23-4 19-6 17-10 21-12 18-14 17-7 7-1 2h-2v2h-2v2h-2v2l-8 7-12 11-20 15-30 20-15 9-21 12-19 9-17 9-31 14-42 17-30 11-35 12-43 13-50 13-50 11-37 7-41 7-45 6-44 5-45 4-55 4-21 1-8 1h-179v-1l-91-7-59-6-37-5-46-7-47-9-46-10-47-12-44-13-36-12-28-10-28-11-35-15-29-14-26-13-24-14-16-10-12-8-14-10-14-11-15-13-23-23-11-14-8-11-11-19-6-14-6-19-3-17-1-12v-760l2-22 4-17 6-18 8-16 8-14 14-19 10-11 7-8 12-12 8-7 16-13 18-13 17-11 21-13 27-15 32-16 25-11 34-14 27-10 41-14 40-12 42-11 43-10 39-8 53-9 49-7 56-6 49-4 32-2zm1 42-66 2-64 4-56 5-50 6-47 7-49 9-53 12-45 12-26 8-40 13-33 12-29 12-29 13-23 11-21 11-22 13-14 9-17 12-14 11-14 12-14 14-9 11-11 15-8 13-8 18-5 19-2 14v22l3 18 6 18 11 21 10 14 13 15 15 15 10 8 14 11 27 18 22 13 27 14 27 13 35 15 40 15 45 15 41 12 38 10 45 10 41 8 34 6 58 8 55 6 49 4 60 3 30 1h122l56-2 61-4 53-5 56-7 56-9 47-9 44-10 45-12 43-13 32-11 37-14 38-16 34-16 24-13 17-10 24-16 16-12 14-12 14-13 7-8 10-12 11-18 8-17 6-21 1-7v-30l-4-21-7-19-10-19-10-14-11-13-7-8-8-7-13-12-16-12-16-11-19-12-23-13-38-19-30-13-41-16-37-13-39-12-44-12-47-11-51-10-51-8-38-5-37-4-60-5-52-3-60-2zm-769 420v274l3 19 7 19 10 19 10 14 11 13 19 19 10 8 18 14 11 7 21 13 18 10 27 14 26 12 36 15 35 13 35 12 30 9 29 8 44 11 47 10 43 8 69 10 55 6 48 4 54 3 23 1 47 1h61l47-1 62-3 43-3 43-4 51-6 48-7 44-8 44-9 56-14 38-11 40-13 33-12 34-14 18-8 28-13 28-15 20-12 18-12 11-8 14-11 11-10 3-2v-2l4-2 11-12 8-10 10-15 9-17 6-18 3-17v-275l-7 6-20 20-11 9-12 10-19 14-20 13-22 13-22 12-15 8-23 11-31 13-34 13-47 16-47 14-64 16-51 11-44 8-54 8-50 6-54 5-63 4-20 1-36 1h-107l-51-2-52-3-56-5-52-6-62-9-44-8-63-14-47-12-44-13-37-12-41-15-29-12-40-19-22-12-21-12-33-22-17-13-11-9-13-12-8-7-7-7-2-3h-2l-2-4zm1632 1m-1632 374v273l3 19 6 17 8 16 7 11 9 12 9 10 20 20 10 8 19 14 17 11 15 9 27 15 27 13 18 8 34 14 26 10 36 12 25 8 35 10 56 14 48 10 33 6 61 9 41 5 66 6 54 3 55 2h98l62-2 52-3 49-4 55-6 49-7 47-8 53-11 37-9 37-10 36-11 41-14 33-13 19-8 27-12 34-17 24-14 17-11 20-14 17-14 12-11 8-8v-2h2l10-13 12-18 6-12 6-17 3-12 1-8v-276l-4 2-9 9v2l-4 2v2l-4 2v2l-4 2v2l-4 2-7 7-11 9-13 10-14 10-17 11-25 15-28 15-16 8-31 14-39 15-43 15-32 10-36 10-60 15-48 10-39 7-45 7-49 6-39 4-50 4-54 3-24 1-41 1h-54l-65-2-55-3-50-4-48-5-53-7-50-8-54-11-50-12-38-10-39-12-37-12-35-13-36-15-20-9-36-18-27-16-16-10-17-12-13-10-10-8-10-9-8-7-18-18z" fill="#FEFEFE"/>
<path transform="translate(809,86)" d="m0 0h111l50 2 57 4 48 5 45 6 46 8 47 10 42 11 37 11 39 14 29 12 22 10 19 10 15 8 15 9 20 14 10 8 15 13 9 10 11 15 8 15 5 14 2 8 1 9v13l-3 16-6 16-8 14-10 13-20 20-19 14-23 15-25 14-27 13-36 15-30 11-41 13-33 9-43 10-36 7-49 8-38 5-50 5-42 3-46 2h-126l-49-2-53-4-52-6-42-6-45-8-42-9-42-11-39-12-37-13-30-12-25-11-30-15-20-12-12-8-12-9-13-11-15-15-11-15-10-19-4-14-2-14v-9l3-17 6-17 9-16 10-13 21-21 20-15 17-11 25-14 27-13 25-11 38-14 36-12 42-12 42-10 40-8 36-6 42-6 49-5 57-4zm31 37-64 2-50 3-52 5-40 5-39 6-42 8-39 9-41 11-39 12-35 13-26 11-25 12-20 11-15 10-9 7-14 12-10 11-8 12-7 16-2 9v21l3 12 8 16 8 11 19 19 18 13 18 11 22 12 21 9 11 5 37 14 32 10 28 8 40 10 48 10 49 8 45 6 40 4 57 4 53 2h86l53-2 44-3 51-5 45-6 48-8 49-10 52-13 31-9 38-13 30-12 18-8 28-14 22-14 11-8 12-10v-2l4-2v-2l4-2 9-11 6-11 4-10 3-14v-12l-3-15-4-11-6-11-12-15h-2l-2-4-12-11-16-11-18-11-21-11-25-11-26-10-40-13-47-13-49-11-31-6-38-6-49-7-45-5-54-4-41-2-38-1z" fill="#FEFEFE"/>
<path transform="translate(837,206)" d="m0 0h54l33 3 29 5 27 7 22 8 15 7 15 8 15 11 10 9 10 14 5 12 3 16-1 12-3 11-7 14-8 10-7 7-17 12-14 8-26 11-26 8-23 5-29 4-23 2h-58l-40-4-31-6-24-7-21-8-19-10-14-10-11-10-9-12-8-16-2-10v-16l3-12 7-14 8-10 11-10 15-10 23-12 19-8 25-8 28-6 31-4zm13 37-31 2-24 3-27 6-24 8-16 7-15 10-8 8-5 8-2 7v11l4 11 7 9 9 7 11 7 19 8 23 7 22 5 28 4 30 2h26l32-2 24-3 24-5 17-5 17-6 19-10 12-9 6-8 4-10v-14l-3-9-7-9-8-7-13-8-21-9-25-7-26-5-31-3-21-1z" fill="#FEFEFE"/>
<path transform="translate(1445,677)" d="m0 0 2 1v202l-4 4-48 16-42 13-7 2v-207l28-9 70-21z" fill="#fff"/>
<path transform="translate(1444,1052)" d="m0 0h2l1 21v182l-3 3-36 12-44 14-18 5v-206l8-3 48-14 40-13z" fill="#fff"/>
<path transform="translate(1607,597)" d="m0 0h2l1 7-1 193-5 5-13 11-15 10-21 12-20 10-11 6h-3v-203l8-5 16-8 19-10 20-12 15-10z" fill="#fff"/>
<path transform="translate(1607,971)" d="m0 0h2l1 4-1 196-11 9-20 13-20 12-29 17-5 3h-3v-203l8-5 16-8 25-13 24-15z" fill="#FEFEFE"/>
<path transform="translate(1285,724)" d="m0 0 3 1v205l-5 2-68 12-9 1-1-1v-201l3-3 74-15z" fill="#fff"/>
<path transform="translate(1284,1099)" d="m0 0 4 1v204l-3 2-69 12-10 1-1-1v-202l9-3z" fill="#fff"/>
<path transform="translate(297,1056)" d="m0 0 35 11 45 15 2 5v200l-10-3-29-7-42-13-2-2v-205z" fill="#FEFEFE"/>
<path transform="translate(297,682)" d="m0 0 30 9 48 16 3 2 1 8v195l-6-1-18-6-53-15-6-2v-205z" fill="#fff"/>
<path transform="translate(137,985)" d="m0 0 5 2 13 8 29 15 29 13 6 3 1 1 1 201-2 3-14-8-19-10-24-14-24-15-1-2z" fill="#FEFEFE"/>
<path transform="translate(137,612)" d="m0 0 5 1 23 14 16 8 26 11 12 5 1 1v204l-5-2-32-17-27-16-16-10-3-3z" fill="#fff"/>
<path transform="translate(496,735)" d="m0 0 9 1 58 10 2 1 1 3-1 201-13-1-52-8-4-1-1-2v-202z" fill="#FBFBFB"/>
<path transform="translate(496,1109)" d="m0 0 8 1 57 10 4 1 1 203-1 2-22-3-46-7-2-2v-203z" fill="#FBFBFB"/>
<path transform="translate(1131,751)" d="m0 0 4 1 1 1v202l-1 2-11 2-48 6h-9l-1-56v-76l1-73 7-2z" fill="#FEFEFE"/>
<path transform="translate(1132,1125)" d="m0 0h3l1 203-1 3-9 2-55 7-4-1-1-59v-72l1-74 1-1z" fill="#fff"/>
<path transform="translate(1727,361)" d="m0 0h1v721h-1z" fill="#fff"/>
</svg>
