<svg width="440" height="459" viewBox="0 0 440 459" fill="none" xmlns="http://www.w3.org/2000/svg">
<path d="M264.5 152H271.5L279.25 152.75L290.25 155L298.25 157.25L304.75 159.5L309.75 161.25L317.25 164L320.5 165L322.5 162L326 158.25L328 156.25L330.25 154.75L332 154.25L334.5 154.5L336 155.75L337.25 157.75L337.75 159.5V161.25L337 163.25L335 166.75L333.25 169L332.25 170L336.75 171.75L340.25 173L345 174.75L354.5 178.75L358.5 180.75L361.25 182.5L364.25 184.75L367 186.75L370.5 190.25L372.75 193.5L374.75 197.75L375.75 202V204.5L374.75 208L373.25 210.75L372 212.25L370 214L366 216.25L362.75 217.25L361 217.5L363.75 223.25L366.75 229L372.5 240.5L375.25 246.75L376.75 251L378.25 255.75L380.25 265.75L380.5 268.5V279.5L379.75 283.25L378.25 288.25L376 293.25L373.5 296.75L370.5 300.25L368.25 302.5L365.5 304.5L361.75 307L359.75 308.25L354 310L351 310.5H345.25L340.75 309.75L335.5 308H335L337 309.5L340 312.5L342 314.25L346.25 318.5L349 322L352.25 326.5L355 331L357 335L359 340L360.5 344.5L361.25 348L362 352.75V358.5L361 366.5L359.25 372.75L357.75 376.5L354.25 384L352.25 387L349 391.5L348.25 392.75L347.75 396.75L346.75 401.25L345.25 406.25L342.5 415.5L340.75 421.75L339 427.75L337.5 433L334.75 443.75L333 449.75L331 453.75L329.5 455.5L327 457.25L325 458L323.25 458.25H320.75L309 456.5L308.25 456.25H302.5L301.75 456.5H277L273.5 455.75L268.25 454.75L267.25 453.75L266.25 452V448.5L264 447.75L256.5 446.75L255.5 446.5L255 448.75L252.75 452.5L251 454L249 455L242.5 456H220L206 455.25L199.5 454.5L195.75 453.5L193.25 452.5L190.5 450.25L189 448.5L187.25 444.75L186.75 442.25V439.25L187.5 435.25L189.5 430.75L191.5 428L194 425.25L196 423.5L199.5 421.5L203.5 419.5L206.25 418L206.5 416.5V411.25L206 406.5L205.25 403.25L204.25 395L203.25 388.25V376L203.5 375.25L200.25 376.75L196.25 378L192 379L183.5 380.25L176 380.75L175.25 382L173 383.75L171.5 384.75L166.25 386.75L161.5 388L159.75 388.25H157.75L153.5 386.75L149.5 384.75L147.5 383.25H147L145.75 387L143.75 390.5L140.75 394.25L137.75 398.25L134.75 401.5L135.5 403.5L136.25 408.25V411.25L135.5 413.75L133.75 417L131.5 419L129.25 419.75L125.5 420.25L120.75 420.75L110.5 422L97.75 423.5L88 424.5L79.25 425.75L65 427.5L55.25 428.5L47.75 429.5L39 430.25H36.25L32.25 429.75L30 428.75L27.5 426.5L25.75 422.75L24.75 419L23.25 410.75L22 402.75L20.75 395.25L19.25 386L18.25 379.5L16.25 368.25L15 361.25L13.25 352L12.5 347.25L11.5 342.75L10.75 338L9.25 330.25L9 328.25V323.5L9.75 320.75L11 318.5L12.75 316.5L15.5 314.75L19 313.75L25.25 312.75L38.5 312L40.75 311.75L41 307.25L43.25 305.25L44.5 304.75L49 304L49.75 303.75L53.5 303.25L53.75 302.5L54.25 298.5L55.25 296.75L57.25 294.5L59.5 293L63.75 291.5H66.5L70 292.5L72.5 293.75L75.5 296.75L77.25 299.5L77.5 301L80.25 300.5L86.5 300.25L89 300.5L90.25 301.75L91.25 303.75L91.75 306.5L98.25 306L102.75 305.5L107.75 305.25L112 305.75L114.25 306.75L116.5 308.5L118.25 311.25L119.25 314.5L120.5 321.25L121.75 328.5L123 335.25L123.75 339.25L124 339.75L128 334.75L130.5 332.25L134.5 329.5L137.25 328.25L142 327.25L143.5 322.75L145.25 316.75L147.25 309.5L151.25 301.5L154.5 295.5L155.5 294.25L157.5 293L158.5 292.75H162.75L164.25 293.75L165.5 295L166.5 297L166.75 298V314.25L165.5 318.75L164.25 322.5L162.5 329.5L167 330L169.5 330.75L171.5 331.75L172.25 332H174.5L180.75 330.25L184.75 329.25L190.5 327.25L197.75 323.5L202.25 321L207.5 318L211.75 315L215.5 312.5L218.75 310.5L222.25 308.25L224 303.5L225.25 299.5L225.75 297.75L218.5 296L215.25 295L211.25 293.75L206 292L200 289.25L194.25 286.5L190 284L184 280L181.25 277.75L177.25 273.75L175 271L172.5 268L169.75 264L167.5 260L165.75 255.5L164.25 249.5L163.75 246V237L164.25 233.5L165.5 229L166.75 225.25L168.75 221.25L171 217.5L173.75 214.25L177.75 210.25L180.25 208.5L184 206.25L187 205L192 203.5L194.75 203L197.5 202.75H214.75L218.75 201.75L221.5 200.75L224.25 198.75L227.25 195.75L229.25 193.25L231.25 191.5L233 189.75L237.25 187L241.25 185L245.5 183.5L249.25 182.75L248.75 181.75L247 179.5L245 175.5L244 173L243.75 171V167.25L244.5 164.25L246.5 161L249.75 157.75L253.25 155.5L255.75 154.25L260.75 152.5L264.5 152ZM255.25 187.25L250.5 188.25L245 190L241 191.75L237.5 194.25L234.25 197.25L231.75 200.25L230 202.25L228 204.25L223.25 206.75L220.25 207.75L217.25 208.5L215.5 208.75H197.5L193.75 209.25L187.75 211.25L183.5 213.75L181.25 215.5L179.25 217.25V217.75L178.25 218.25L175.75 220.75L173.25 225.25L171.75 228.75L170 235.5L169.75 238.5V245.25L170.5 248.75L172 254.25L174.25 259.5L176.75 263.25L178.5 265.75L181.5 269L185 272.5L187.75 274.75L192 277.75L194.75 279.5L200.75 283L204.25 284.5L206.5 285.5L210.25 287L216.5 289L221.75 290.5L227.5 291.75L230 293.25L231.75 295.25L233 297.5L234.75 299.25L237 300.5L242.25 302.5L250 304.5L260.75 306L262.75 306.25H280.25L280.75 306L286 305.5L287.75 305.25L293 304.75L298.25 303.25L302 302.5L308.25 300L312.5 298L317.25 295.5L317 294.25L313.5 286.25L312.5 283L311.25 277.25L310.75 273.5V262.75L312.75 250L315 241L317 234.75L319 229.25L321.25 224.25L323.25 220.5L326.5 214.75L328.5 211.75V211.25H329L329.25 210.25L327 209.25L318.75 206.75L311.75 204.75L305.75 203L291.5 199.25L287 198.25L280 196.5L277.5 195.5L273.75 194.5L271.5 193.5L268.5 192.75L262 189.75L259.25 188.25L257.5 187.25H255.25ZM63.5 299L62.25 299.75L61.25 301V302.75L62 304.25L63 305L64 305.25H66.25L68.25 304.5L68.75 303.5L68.5 301L67.5 299.75L65.5 299H63.5ZM154.25 308.5L153 309.5L152 312L151.5 314.25L152.75 315.25L156 316.25L159.75 316.75L160.5 315.5L161.5 312.75L161.25 311.25L160 309.5L158.25 308.75L156.75 308.5H154.25ZM328.5 311.25L327.25 312.5L325 314.25L322.25 316L318.25 318L313.5 320.25L309.25 322L305.75 323.25L302 324.25L296 325.75L288.25 326.5L285.5 327L281.75 327.5L277.75 327.75H264.75L259.75 327.5L253.5 326.5L247 325.5L241 323.75L238.5 322.75L234.75 321.5L230.75 319.5L227.75 317.5L225 315.25L224 314.25L223 314.5L220.75 316.25L212.75 321.5L209 324L203.25 327.25L198.5 329.75L194.75 331.75L191.75 333L188.25 334.25L183.75 335.75L179.75 336.75L173.75 338.75L172.75 339L167.5 336.5L165.25 335.75L162.5 336L157 338L155 339.25L152 340.75L147.25 344L144.75 346.25L143 348.5L142.5 350V352L144 355L145 356.25L146.75 357.25L149 357.75H155L158.75 356.75L160.75 355.5L161.5 355.25H163.5L165 356V357.5L164 359V359.5L163 360L159.25 361.25L157 361.5L156.5 362L158.25 365.25L160 367.25L162.75 368.25L165.25 368.5L166.25 369.75L166 371.5L165 372.75L164.5 373H160.5L157.75 372L155.25 369.75L153.5 367.5L153 366.75H152.25L149.75 376V377.25L152 379.25L154.5 380.75L158.25 381.75H161.25L166.75 380.5L170.75 378L173.25 375.5L173.75 375.25V374.75L175.75 374.5L177.75 374.75H180.25L186 374L193 372.5L199 370.75L202.75 369.25L204.25 368.75L204.5 368.25L205.25 362L206.5 356.75L207.5 351.75L209.75 345L211.25 341.5L213.5 337.75L214.75 337L217 337.5L217.5 337.75L217.25 340.25L214.5 349L212.75 355.25L211 363.75L209.75 374L209.5 378V383.5L210 390.25L211 399.25L212 404.25L212.5 410.75V415L212.25 419.25L211.75 421.25L210.5 423L205.75 424.75L202.25 426.25L199 428.5L195.75 431.75L193.5 436.5L193 439.25L193.25 442.75L194.5 445.25L195.75 446.5L197.5 447.25L198.75 447.5H201L201.75 442.75L203.25 437L205 434L206.5 433L208 433.25L209.25 434L209 436.25L207 440.5L206 447V448.75L212.75 449.25H216L216.25 448.75L216.5 443L217.25 439.75L219.25 435.75L220.5 434.5L221.75 434.25L223 435L223.75 435.75L223.5 437.75L222.25 440.5L220.75 446.5L220.5 449L220.75 449.5L231.25 449.75H241.75L246.5 449.5L248.25 448.75L249.75 447L250.25 446.25L250 445L247.75 443.25L246.5 441L246.25 440V435.5L247.25 431.75L249 425.75L250.75 419.5L252.75 413V412.5L251.25 412.25L245 411.75L242.5 411L237.75 409L234.5 407.25L231 404.25L228.75 401.75L226.75 399.25L224.5 395.5L223 391.75L221.75 385.25L221.5 383.25V376L222.5 370.25L223.25 367.75L225.25 362.75L227.75 358L229.5 355.5L231.75 353L233.5 351L237 347.75L239.5 346L243.5 344L247.75 342.25L250.5 341.75L255 341.5L260 341L266.25 342L269 343L273 344.75L276 346.75L279 349.5L280.25 350.75L282 352.75L284.25 356.25L286.25 360.75L287.5 367L288 368L290.5 368.75L297.75 369.75L301 370.25H302.25L304.75 366L307.5 361.5V360.5L304.75 358.75L301 355L298.75 352L296.75 348L295.5 343.25L295.75 341.25L296.5 340.5L299.25 340L300 340.75L301 343.25L302.25 346.25L303.5 348.75L305.5 351.5L307 353.25L310.75 355.5H311.5L314.75 350.75L315.75 349.75L317.75 349.5L319 350.25L319.75 351.75L319.5 353.25L318 356.25L315.5 360L312.75 364L310.25 367.75L307.75 371.75L304.75 377L302.5 381.75L300.25 388L299.5 391L299.25 394.75L299.75 397L300.75 399.75L302.75 401.25L304.25 401.75L304.75 401.25L306.5 395.25L307.5 393.75L308.5 393H310L311.5 394.5V396.25L310.25 399.75V404.75L311 406.5L312.5 407.5L314.25 407.25L316.5 405.75L318.5 403.25L319.75 401L320.75 397.75L322 396.5H323.5L324.25 396.75L324.75 399L323 405.25L323.25 406H328.25L330 405L331.5 403.25L334.25 398.25L336.5 395.5L345 387L347.75 383.25L349.25 380.75L352.5 374L354.75 367.25L355.5 363V351.5L354.75 346.5L352 338.25L349.5 333.25L346.75 329L344 325.5L340.75 321.75L337.25 318L334.25 315.25L331.25 312.75L329 311.25H328.5ZM102.75 311.5L98.75 312L93.5 312.25L93.25 312.5V317.25L92.25 319.25L91 320.25L88.75 321.25L84 322L73 323.25L66.75 324L60.5 324.5L57.25 325L52.5 325.5L48.5 325.75H45.25L44.25 325.25L43.25 324.25L42 318.25L41.75 317.75L35 318L27.75 318.75L21.25 319.5L17.25 320.5L15.75 321.5L15 323.25L15.5 329L17 337L18 343.25L19 349L19.75 353.75L20.75 359L22 366.5L24.5 380.75L25.5 387.75L29.5 411.75L31.25 420.5L32.5 423L33.75 423.75L35.5 424H41.25L46.5 423.5L53.75 422.5L67 421.25L77 420L100.5 417.25L120.25 414.75L126.25 414L128.5 413.25L129.75 412L130 411.25V407L129.75 406.25L127.75 404.75L126.75 403.75L126.25 401L126.5 396.75L126.75 394.5V385.75L126 381.5L125.25 378.75L124.25 372L123.25 368.25L121.5 365.75L119.75 360.75L119.5 360.25L119.25 358V349.25L118.5 342.75L117.25 336.25L116.25 330.25L115.25 324.75L114 318L112.75 313.25L111.25 312L110.25 311.5H102.75ZM254.25 313.75V314.25L253.25 314.5L252.75 315.25L251.75 315.75L252 317.5L254.5 318.75L255.75 319.25L257.75 319L263.75 320.25L266.75 320.75V321.25L268.75 322H278L280.25 321.75V321.5L275.75 321L274.5 320.25L273.75 319.25H273.25L273 317.25L272.25 317L272 315.75L270.5 316V315L269 314.75L268.25 315.25L267.5 314.75L262 314.5L257 313.75H254.25ZM282.75 314.75L279.75 315.75L279.5 316.5H280V317L281.75 317.75L281.5 318.75L281 319L282.5 319.25H285.25L285.75 318.75L285 318.5V317.75L287.5 317.25L289.5 316.25L289.25 315L289 314.75H282.75ZM251.75 318.75L252.5 320.25L258.25 321L261.5 321.25V320.75L255.5 319.5L253.25 319L253 318.75H251.75ZM248.75 319.5L249 320H251V319.5H248.75ZM282.5 320.5L280.75 321.25V321.5L284.25 321.25L285.75 320.75V320.5H282.5ZM139.5 333.75L137.5 334.5L134.5 336.75L133.25 337.75L132 339.25L130.75 340.5L129.25 342.5L127.75 345.25L126.25 348.25L125 352V357.25L126.75 361.5L128.5 363.5L130.25 365.25L131 365.5L132 363.5L134 357L137.5 344.75L140.5 334.75V333.75H139.5ZM269.25 370.75L268 373.75L266.5 380.5L265.5 383.75L264.5 388.75L263 395L261 402.75L259.25 408.25L257.75 413L256.75 417L255.75 420L254.75 424.25L253.25 429.25L251.5 435.25L251.25 436.75V438.75L252.25 439.75L255.25 441L263.75 442.25L275.25 444.25L280.25 445.25L286.25 446.25L292.5 447.5L304.25 449.75L309 450.75L321 452.25H324.25L325.75 451.25L327.25 449L328.75 443.75L332.5 430.25L333.75 426L335.5 420L336.5 415.75L338 410L339.5 405L340.25 401.25L340.75 400V399.25L339.75 399.5L337 405.25L335 408L333.75 409.25L331.25 411L328 412H322.75L320.5 411L320 410.5L318.75 410.75L317.25 411.75L313 413L310.75 412.75L308 411.75L306.5 410L305.5 408.5L304.75 407.75L302.5 407.5L298.5 405.75L296.75 404.25L294.75 401.75L293.75 398.75L293.5 396L292.5 395L286.25 394L283.75 392.75L283 391.75L283.5 390.25L284.25 389.25H286L291.5 390.5L293.5 390.75L294.5 388.5L296 383.5L297.5 379.5L298.75 376.5V375.5L289 373.75L282.75 372.75L275 371.25L270.75 370.75H269.25ZM132.25 377.75L132 378.25V380.75L132.5 386.5L133.75 388L135.25 388.75H136.75L138 387.75L139.5 385.5L140.5 383.5L141.5 381L142 380L140 379.25L135 378L132.25 377.75ZM271.5 449L271.75 450L272.25 450.25H275L274.75 449.5L272.5 449H271.5Z" fill="white"/>
<path d="M226.75 0H299.75L308.25 0.25L312.25 1L315.5 2.25L318.75 4.75L321 7.25L323 11.25L324 14.75L324.25 17.75V107L324 145.5L322.75 146.75H319L318 145.75L317.75 143.75V48.25L317.5 17.25L316.25 13.25L314.5 10.5L312.5 8.75L309.5 7.5L305.75 7H264.5L263.25 7.25H231L228.25 7H216L215.25 7.25L209 7.5H170.75L163.5 7.75H129.75L118.25 7H115.5L111.75 7.25L110 7L105.5 7.5L101.5 7.75L87.75 8H82.5L81.5 7.75H67.5L61.5 7.5H53.75L41.75 7.75H18.5L16 8.75L13.5 10.25L11 12.5L9.25 15.25L8 17.75L7.25 22.5L6.75 26.75L6.5 181.25V202.25L6.25 236.75V258.25L6.75 263.75L8 269L9.5 271.25L11.25 273L14 274.75L17.25 275.5L22.75 276H56.5L130.75 276.25L149 276.75L167 277L169.5 277.5L171.25 279.5L171 280.75L169.75 282.25L169 282.75H88.75L64.25 282.5L44.75 282.75H41.75L41.25 282.5H24L19.5 282L13.75 281L11.25 280L7.5 278L5.25 276L3.5 273.5L2 270.25L1 265.75L0.25 261.25L0 257.75V236.75L0.25 221.5L0 211.25V151L0.25 149.5L0 148.75V139.75L0.25 125.5V110.25L0 109.5V82.75L0.25 68.75L0 62V51.75L0.25 39.25L0.5 34V24.75L1.75 17L3 13.5L5.25 9.5L8 6.5L11.5 4L14 2.5L16.25 1.75L19.5 1L48.5 0.75L53 0.25L62.25 0.5L68.25 1.25H73.75L74.75 1H83.25L84.5 1.25L88.75 1.5H92.25L113.75 0.5H126.5L139.5 0.75H147.5L154 1H163.25L174.5 0.5H189.75L200.5 0.75L202.5 0.5L210.75 0.25L226.75 0Z" fill="white"/>
<path d="M384.5 7.5H395.25L399.25 8L405.25 10L410 12.5L414.25 15.5L417.25 18.25L420.25 21.75L423 26.25L424.75 29.75L425.75 33L427 37.75L427.25 39.25V48.5L426.5 52.25L425.25 56.5L423.25 60.75L421 64.5L419 67.25L416.5 70L415.25 71.5L411.75 74.25L408.25 76.25L403 78.5L399.25 79.75L396.5 80.25L391 80.5L387.25 80.75L381 80L378.25 79.25L373.75 77.5L370 75.5L367 73.25L364 70.5L362 68.5L359.75 65.75L357.25 62L355.25 57.75L353.5 51.5L353 48V41L353.5 36.5L355 31.5L356.25 28.5L358.25 24.5L360.5 21.25L363.5 17.75L366 15.5L369.5 13L372.25 11.25L376.25 9.5L381 8L384.5 7.5Z" fill="#3F6981"/>
<path d="M379.5 93.5H384.5L389.25 94L395 96L399 98.25L401.5 100.25L404 102.5L406.5 105.25L408.25 107.75L410.25 111.75L411.75 116.5L412.25 120V128L411.75 131.75L411 134.75L409 139.25L407 142.5L407.5 143.75H408L409.75 145.75L411.5 147.25L414 147.75L415.5 148.75L418 151L425 158L425.5 158.25V158.75L426.5 159.25L428 161L429.5 162.25V162.75L430.5 163.25L432.5 165.25L434.25 167.25L435.75 169.25L436.5 171V172.75L435 175.75L433 177.5L431.5 178H427.5L425.5 177L422.25 174.25L412.75 164.75L410.75 163L406.75 159.25L405 157.5L404.25 156.5L404 154.5L404.25 152.75L401.75 150.5L401 149.5L399.75 149.75L395.5 152.25L391.25 154L385.25 155.25H377.5L371 153.75L367 152L364 150L360.75 147.5L357.25 144L355 140.75L353 137L351.5 133.25L350.75 128.25L350.5 126.25V122.5L350.75 121.5L351 117.5L352.25 113.75L354 109.75L355.75 107L358.25 103.75L361.75 100.25L365.25 97.75L368.25 96L374.5 94L379.5 93.5Z" fill="#3F6981"/>
<path d="M416.25 260.75H418.25L423.5 262L427.5 264L430 266L431.5 267.25L433.75 270L435.5 272.5L437.25 276L438.25 281V286.75L437 291.75L435 295.75L433.25 298.25L431 300.75L428.5 302.75L426 304.25L421 306.25L419.25 306.5H411.5L409 305.75L405 304L402.5 302L398.75 298.25L396 293.25L394.25 288.25L394 286.25V280.25L394.75 276.75L396 273.5L397.75 270.75L401 267L404 264.25L407.75 262.25L411.75 261.25L416.25 260.75Z" fill="#3F6981"/>
<path d="M379.5 93.5H384.5L389.25 94L395 96L399 98.25L401.5 100.25L404 102.5L406.5 105.25L408.25 107.75L410.25 111.75L411.75 116.5L412.25 120V128L411.75 131.75L411 134.75L409 139.25L407 142.5L407.5 143.75H408L409.75 145.75L411.5 147.25L414 147.75L415.5 148.75L418 151L425 158L425.5 158.25V158.75L426.5 159.25L428 161L429.5 162.25V162.75L430.5 163.25L432.5 165.25L434.25 167.25L435.75 169.25L436.5 171V172.75L435 175.75L433 177.5L431.5 178H427.5L425.5 177L422.25 174.25L412.75 164.75L410.75 163L406.75 159.25L405 157.5L404.25 156.5L404 154.5L404.25 152.75L401.75 150.5L401 149.5L399.75 149.75L395.5 152.25L391.25 154L385.25 155.25H377.5L371 153.75L367 152L364 150L360.75 147.5L357.25 144L355 140.75L353 137L351.5 133.25L350.75 128.25L350.5 126.25V122.5L350.75 121.5L351 117.5L352.25 113.75L354 109.75L355.75 107L358.25 103.75L361.75 100.25L365.25 97.75L368.25 96L374.5 94L379.5 93.5ZM379.5 98.75L376 99.25L372 100.5L367.25 103L364 105.5L361.25 108.25L359.5 110.75L356.75 116L355.75 120.5V125.75L356.5 130.75L357.75 134.5L359.75 138L361.75 140.75L364.5 143.75L367 145.5L372.75 148.5L376.75 149.5L379.25 149.75H383L386.75 149.5L390.5 148.25L394.75 146L398.75 143L401.5 139.75L403.75 136.25L405.25 133.25L406.25 129.75L406.5 128V120L405.5 115.5L403.5 111.5L401.75 109L399.5 106.5L397.25 104.25L394 101.75L390.5 100L387.25 99.25L382.5 98.75H379.5Z" fill="white"/>
<path d="M384.5 7.5H395.25L399.25 8L405.25 10L410 12.5L414.25 15.5L417.25 18.25L420.25 21.75L423 26.25L424.75 29.75L425.75 33L427 37.75L427.25 39.25V48.5L426.5 52.25L425.25 56.5L423.25 60.75L421 64.5L419 67.25L416.5 70L415.25 71.5L411.75 74.25L408.25 76.25L403 78.5L399.25 79.75L396.5 80.25L391 80.5L387.25 80.75L381 80L378.25 79.25L373.75 77.5L370 75.5L367 73.25L364 70.5L362 68.5L359.75 65.75L357.25 62L355.25 57.75L353.5 51.5L353 48V41L353.5 36.5L355 31.5L356.25 28.5L358.25 24.5L360.5 21.25L363.5 17.75L366 15.5L369.5 13L372.25 11.25L376.25 9.5L381 8L384.5 7.5ZM386.25 12.75L380.25 14L376.5 15.25L374.5 16.25L371 18.75L367.5 21.75L365 24.5L362.5 28.25L360.75 31.25L359.25 35.25L358.5 39.5L358.25 43.5V46.5L359 51.75L360 55.5L361.75 59.5L363.75 62.5L366 65.25L369.25 68.5L373 71.25L375 72.5L378.25 73.75L382.25 74.75L386.5 75.5H393.25L398.25 74.5L402.5 73.25L406.5 71.5L409.25 69.75L411.5 68L413.5 66.25L415.25 63.75L418.5 57.75L420.25 53.5L421.25 49.5L421.5 48V39L420.5 35L418.75 31L415.75 25.75L413 22.25L411.25 20.5L407.5 17.75L404 15.75L400 14.25L395 13L393 12.75H386.25Z" fill="white"/>
<path d="M239.75 71H297L298.25 71.5L298.75 72.5L298.5 74.25L297.25 75.5L296.75 75.75L285.5 76L210.25 76.25H97.75L84.5 76L83.75 75.25L83.5 74.75V72.25L85.25 71.5L112.5 71.25H135L150.25 71.75H154.75L172 71.25L239.75 71Z" fill="white"/>
<path d="M250.25 130.75H292L297.25 131L299 131.75L299.5 132.5V134.25L298 135.5H91L89.5 134V132.25L90.75 131L250.25 130.75Z" fill="white"/>
<path d="M193.5 219.75H199.25L204.75 220.75L207.75 222.25L210.5 224.25L212.5 227L214.25 231L214.75 232.75L215 236V238.25L214.5 241.5L212.5 245.5L211.75 246.5H211.25L210.75 247.5L208.25 249.5L204.25 251.25L202 251.75L199.75 252H195.25L191.75 251.5L188 250L184.75 247.5L182.25 244.5L180.75 241.5L179.75 238.25L179.5 236.5L179.75 233L181 229.25L182.5 226.5L185.25 223.5L187.75 221.75L190.5 220.5L193.5 219.75Z" fill="white"/>
<path d="M34.75 208.75H45L47.5 209.25L49.5 210.25L52 212.5L53.75 215L54.5 216.75L54.75 219V230.5L54.5 233.75L53 236.25L50.75 238.25L48 239.75L44.75 240.25H34.5L31.75 239.75L29 238L27.75 236.75L26 234.5L25 232.25L24.75 231V219.5L25.25 217L26.75 214L29.25 211.25L32.5 209.25L34.75 208.75Z" fill="#3F6981"/>
<path d="M411.5 189.5H416.5L420.5 190L425.5 191.75L428.25 193.5L431 196L432.25 197.25L434 199.25L436.25 203L437.25 205L438.75 209.75L439.25 214.25L439 218.75L438.25 221.75L436.5 226.25L434.5 229.75L431.75 232.75L430 234.5L427.25 236.25L423.25 238.25L418 239.5L416 239.75H411.5L406 245.25L402.5 247.75L399 249L396.75 248.5L395.5 246.5L395.25 244.75L396.25 239.25L397.25 236.75L398.25 234.5L397.75 233.5L396.25 232.25L394 229.5L392.5 227.5L390.75 223.5L390 220.25V211.25L390.75 207.75L392.75 203L395.25 199.25L398 196L401.5 193.25L405.5 191.25L410 189.75L411.5 189.5ZM412.5 195L409 195.75L405 197.5L402.5 199.5L400.25 201.5L398 205L396.5 207.75L395.75 211L395.25 213.5V217L396 221.5L397 224L399 228L402.5 232.5L403.25 233.25L403 234.5L402.25 235.75L399.75 243.25L400 244L401.5 243L403.5 241.5L405 240.25L407 237.75L409.25 235V234.5L416.5 234.75L420.5 234L425.25 231.5L428.5 228.5L430.5 226L432.5 222.25L433.5 218.25V211.25L432.75 208.25L430.75 204L428.75 201.25L426.25 198.75L422.75 196.5L420.25 195.5L416.75 195H412.5Z" fill="white"/>
<path d="M320.75 300H321.5V300.5L322.5 301L326.5 304L327.25 304.5L327 305.5L324 307.75L320.5 310.25L315.25 313.25L309 316.25L303.75 318L296.5 319.75L288.5 321.25L278.75 322.25L272.25 322.5L257.5 321.5L249.25 320.25V320L251 319.5L249 319.75L248.5 320L242.25 318.25L238.25 316.75L233.5 314.25L230 311.75L228.25 309.75L228.5 307.75L230 303.5L231 303.25L237 306.25L241.75 308L251.25 310.25L258 311.25L265.75 311.75L273.5 312L282.75 311.5L289 310.75L298 309L304.5 307.25L310 305.25L314.5 303.25L319.25 301L320.75 300ZM254.25 313.75V314.25L253.25 314.5L252.75 315.25L251.75 315.75L252 317.5L254.5 318.75L255.75 319.25L257.75 319L263.75 320.25L266.75 320.75V321.25L268.75 322H278L280.25 321.75V321.5L275.75 321L274.5 320.25L273.75 319.25H273.25L273 317.25L272.25 317L272 315.75L270.5 316V315L269 314.75L268.25 315.25L267.5 314.75L262 314.5L257 313.75H254.25ZM282.75 314.75L279.75 315.75L279.5 316.5H280V317L281.75 317.75L281.5 318.75L281 319L282.5 319.25H285.25L285.75 318.75L285 318.5V317.75L287.5 317.25L289.5 316.25L289.25 315L289 314.75H282.75ZM251.75 318.75L252.5 320.25L258.25 321L261.5 321.25V320.75L255.5 319.5L253.25 319L253 318.75H251.75ZM282.5 320.5L280.75 321.25V321.5L284.25 321.25L285.75 320.75V320.5H282.5Z" fill="#CBC1AD"/>
<path d="M262.5 101H280.75L298.5 101.25L299 101.5L299.25 102.75L298.75 105L298.25 105.5H127.5L122.75 105.25L121.5 103.75V102L122.75 101.25L262.5 101Z" fill="white"/>
<path d="M403 322H408.75L411.25 322.75L414.75 324.75L418 327.75L419.25 329.75L421 334.5L421.5 337V341.25L421 343.25L419.25 347.5L419.5 348.75L420.5 349.25L424 352.75L426 354.5L429.25 357.5L432.5 360.75L433.25 362.5L432.25 364.5L430.25 366L429.75 366.25H428.25L425.5 364.25L423 361.75L421 360L418.25 357.5L416.25 355.75L413.25 353L412.25 353.25L407.5 355L406.25 355.25H401.5L398.25 354.25L395.5 352.75L392.5 350L390.25 347L388.5 343.25L388.25 341.75V338.5L389 334.75L390.75 330.75L393.75 326.75L396 324.75L400 322.75L403 322ZM404 327.5L401 328.25L398.5 329.75L396.5 331.75L394.5 334.75L394 337V341.5L394.75 344L396.25 346.25L398.75 348L401.75 349.25H406.5L411 347.5L413.5 345.5L415.5 343.25L416 342V336.75L415.25 334.25L413.25 330.75L411.25 328.75L409.25 327.75L408 327.5H404Z" fill="white"/>
<path d="M109.25 251.75H152L153.5 253L153.75 254.75L152.25 256.75L47.5 257L43 257.25H28.5L26.75 256.25L26 255.5L25.75 254.25L26.5 253L27.5 252L109.25 251.75Z" fill="white"/>
<path d="M416.25 260.75H418.25L423.5 262L427.5 264L430 266L431.5 267.25L433.75 270L435.5 272.5L437.25 276L438.25 281V286.75L437 291.75L435 295.75L433.25 298.25L431 300.75L428.5 302.75L426 304.25L421 306.25L419.25 306.5H411.5L409 305.75L405 304L402.5 302L398.75 298.25L396 293.25L394.25 288.25L394 286.25V280.25L394.75 276.75L396 273.5L397.75 270.75L401 267L404 264.25L407.75 262.25L411.75 261.25L416.25 260.75ZM412.25 266.25L409 267.25L406.5 268.75L404 271L401.75 273.5L400.25 276.5L399.25 280L399 281.75V285.5L399.75 289.25L401.25 293.25L403.5 296.5L405.75 298.5L409.25 300.5L412.25 301.5L414 301.75H417L420.75 301L423.75 299.75L426.25 298.25L428.75 296L430.75 293.25L432.25 290.75L433.5 287L433.75 285.25V282.25L433 278.25L431 274.25L429 271.75L427 269.75L423.75 267.75L420.5 266.5L418.75 266.25H412.25Z" fill="white"/>
<path d="M113.25 189.75H187L188.5 191L188.75 192.75L187.25 194.75L186.25 195.25H176L137.75 195H127.75L117 194.75L113 194.25L111.75 193.5L111.25 193L111.5 191.25L113.25 189.75Z" fill="white"/>
<path d="M34.75 208.75H45L47.5 209.25L49.5 210.25L52 212.5L53.75 215L54.5 216.75L54.75 219V230.5L54.5 233.75L53 236.25L50.75 238.25L48 239.75L44.75 240.25H34.5L31.75 239.75L29 238L27.75 236.75L26 234.5L25 232.25L24.75 231V219.5L25.25 217L26.75 214L29.25 211.25L32.5 209.25L34.75 208.75ZM38 212.5L34.75 213L32.25 214.25L30.5 216L29.25 218.25L29 220V223.75L29.25 231.5L30.25 234L32.25 235.5L34.5 236.25L36.25 236.5H44.25L47.75 235.5L49.5 234L50.5 231.75V218.75L49.5 216L47.5 214.25L45.5 213.25L43.75 212.75L38 212.5Z" fill="white"/>
<path d="M84.75 22.75H86.5L87.5 23.5L89.25 29.75L90.5 36H91L91.75 31.5L93 27.75L93.75 25L95 23.75L96.5 23.5L97.75 24.5L99.25 27.5L100.25 31.25L101 34L101.25 35.75L101.75 35L102.75 31L103.5 26.75L104.75 23.75L106 23L108.25 23.25L109 24L109.25 26L108 32.25L106.5 39L105 44.25L103.5 46.25L103.25 46.5H101L99.5 45.25L97.5 39.5L96.5 35.25L96 34L95.5 35.5L94.5 38.75L93.75 41L92.75 44.25L91.25 46.25L90.75 46.5H89L87.75 45.5L86.25 41.5L84.75 34.5L83.75 30.75L83 26.25L82.75 25.25L83.75 23.5L84.75 22.75Z" fill="white"/>
<path d="M158.25 160.5H227.75L228.75 161.5L229.75 163L229.25 164L228 165.5H157.75L156.5 164.25L156 163.5L156.25 162.25L157.5 160.75L158.25 160.5Z" fill="white"/>
<path d="M48.25 22H54.25L58 23L60 24L61.75 25.75L62.5 27.75L62.75 29V31L62 33.5L61 34.75L58.75 36.25V36.75L60 38L61.75 40.75L63.25 43.5L64 45L63.75 46L62.25 47.25H60.75L59 46L56 41.25L54.75 39.5L53 38.75H52L51.75 44.25L50.75 46.25L50 46.75L47.75 46.5L46.75 45.5L46.5 43V24.5L47.25 23L48.25 22ZM51.75 27L51.5 27.25V30.75L51.75 32.75L52 33H55L56.5 32L57.5 30.5L57.25 28.5L56 27.25L55 27H51.75Z" fill="white"/>
<path d="M183.75 21.75L186.25 22H188.75L191.75 22.75L195.25 24.5L197.25 26.25L198.75 28.5L199.25 30.5V36.5L198.25 39.75L196.25 42.5L192.75 45.25L189.75 46.5L188.25 46.75H183.75L182.5 46L181.75 45L181.5 42.75L181.75 24.25L182.5 22.75L183.75 21.75ZM187 27L186.75 42L188.25 41.75L191 40.25L192.75 38.5L194.25 35.5V32.25L193 29.75L191 27.75L189 27H187Z" fill="white"/>
<path d="M135.25 21.75H138.5L141.5 22.25L144.25 23.5L146.25 25.25L147.25 27.75L147.5 29.25V31.25L146.75 33.5L145.5 35L144.75 35.5V36L146 37.25L148.5 43.5V46.25L147.75 47L146 47.25L144.75 46.75L143.5 45.25L142.25 42.25L141.5 39.5L139 38.75H138.25L138 44.5L137 46.25L136.5 46.5H134.25L133 45.5L132.5 44.25V24.25L133.25 23L134.5 22L135.25 21.75ZM138.25 27L138 27.25V33L138.75 33.25L140.5 32.25L141.75 31.25L142.25 30.25L142 28L140.75 27.25L138.25 27Z" fill="white"/>
<path d="M119.25 22H121L125 23.25L126.75 24.5L128.25 26.25L129 29L129.75 34V37L129 40.75L127.75 43.25L125.75 45.25L123.25 46.5L121.75 46.75H118.75L116.25 46L114.25 44.5L112.5 42.25L111.25 39.5L110.75 36.75V31.5L111.25 29L113 25.5L115.25 23.5L118.25 22.25L119.25 22ZM118.75 27.25L117.5 28L116.75 29L116 31.5L115.75 34.25L116.5 38.25L117.75 40.75L119 41.5H121.75L123.25 40.5L124 39.5L124.5 37.75V32.25L124 29.75L122.5 27.75L121 27.25H118.75Z" fill="white"/>
<path d="M154 22.5H155.75L157.25 24L157.5 25L157.75 31L160.75 26.75L163.75 23.5L164.75 22.5H166.25L167.75 23.75L168.25 25L168 26.5L165.25 29.5L162.5 33L161.75 34.25L163.5 35.75L165.25 37.75L168.25 41.25L169.75 43.75L169.5 45L168.25 46.5L167.75 46.75H166.25L165 46L163.25 44L160 40.5L158 37.75L157.5 37.5L157.75 39L157.5 44.75L156.5 46.25L156 46.5H154L152.75 45.5L152.25 44L152 33.25V24.75L153 23.25L154 22.5Z" fill="white"/>
<path d="M242.5 22.25L245 22.75L246.5 23.75L247.5 25.25L250 32.75L252 39L253.5 43L253.75 44.25L253.25 46L252.25 46.75H250.25L248.5 44.75L247.25 41.25L246.75 41H240L237.25 46.25L235.5 46.5L234.25 45.75L233.75 45V42.5L234.75 38.75L236.5 34L238 29.5L239.5 25.25L240.5 23.25L241.5 22.5L242.5 22.25ZM243.5 30L242.25 32L241.25 36L245.25 36.25L245.75 35.75L244 30H243.5Z" fill="white"/>
<path d="M32.25 22.5H35.25L36.75 23.5L38.25 25.75L42 37.25L44 43.75L43.75 45.5L42.75 46.5H40.5L39.25 45.25L38.25 43L37.25 41H30L29.75 42.5L28.75 45L27 46.5H25.5L24.25 45.5L24 45L24.25 42.75L25.75 37.5L26.75 35L28 31L29.75 25.75L31 23.5L32.25 22.5ZM33.75 29L33.25 29.75L32 34.75L31.75 36.25H36.25L35.75 34L34.25 29.25L33.75 29Z" fill="white"/>
<path d="M272.5 265.5L274.5 266.25L275.5 267.5L275.75 268L275.5 270.5L274.25 272.5L272.5 274.5L269 277L264.75 279.25L260.25 281L256.25 281.5H247.25L242.75 281L238 279.75L235.75 278.75L234.5 277.5L234.75 275.75L236.75 273.75L237.75 273.5L241.5 274.5L245.5 275.25L248.5 275.5H254.75L259.5 274.75L263.75 273L267 271L269.5 268.75L271.75 266L272.5 265.5Z" fill="white"/>
<path d="M203.25 22.5H211.75L215 23.5L215.5 24L215.25 26.25L214.25 27.5H207V32.5L213.5 32.75L214.5 33.25L214.75 33.75L214.5 36.25L213.75 36.75L207 37V40.5L207.25 41.5H215.25L216.5 42.75L216.75 43.25V44.75L215.75 46.25L215 46.5H203.5L202.5 45.5L201.75 43.75V24.25L203.25 22.5Z" fill="white"/>
<path d="M290 21.75H292.75L295.5 22.75L297.5 24L298.5 25.25V26.75L296.75 28.25H295.25L292.5 27.25H290L288.75 28.5L289 29.75L290.25 31L295 33L297 34.5L298.5 36.5L299 38.75L298.75 41.75L297.75 43.75L296.75 45L294.75 46.25L293 46.75H288.5L286 46L283.5 43.75L283.25 43.25V41.5L285 39.5L286.5 39.25L289 41.25L290.25 41.75H292L293.75 40.5L294 39L292.75 37.5L287.75 35.5L286 34.25L284 31.5L283.25 29.75L283.5 27.75L284.75 25.25L286 23.75L288.75 22.25L290 21.75Z" fill="white"/>
<path d="M98.5 335.75H102L103.75 336.5L105 338.25L104.75 339.25L102.25 340.25L95.75 341.5L86.25 342.75L79.5 343.75L69.75 345L62.25 346H60.25L59 345.25L58.5 344.25L58.75 342.25L59.75 341.25L63.5 340.25L72 339.25L82.5 337.75L92.25 336.5L98.5 335.75Z" fill="white"/>
<path d="M104.75 361.25H106.75L108 362L108.75 362.75V364.5L106.75 366L105 366.5L94.25 367.75L86 369L78.75 369.75L74 370.5L67.75 371.25H63.75L62.75 369.5L63 368L63.75 366.75L65.5 366.25L69 365.75L80.5 364.25L85.75 363.5L100 362L102.5 361.5L104.75 361.25Z" fill="white"/>
<path d="M275.75 386.25H277.5L279 387V390L277.75 396L275 407.25L274 410.75L272 419.5L271.25 422.25L270.25 426.75L269 430.25L267.75 431.5H266L265 430.25V427.5L266 422.25L267.25 416.75L268.25 412.75L270 405.5L274 389.5L275.25 386.5L275.75 386.25Z" fill="white"/>
<path d="M107.25 388.25H110.75L111.75 389.5L112 391L111 392.5L107 393.25L100.75 394.25L92.25 395.25L85.5 396.25L75 397.5L70 398.25H68.75L67.75 397L67.25 395.75L67.5 394L68.5 393L72.75 392.5L78.25 392L83.5 391L93.5 390L99.75 389L107.25 388.25Z" fill="white"/>
<path d="M383.5 38.75H392L392.75 39.75L393 41V58L393.25 60L394 60.5L396.5 60.75L397.75 61.75L398 63.5L397 64.5L396.5 64.75L393.75 65L386.25 65.25L382.75 64.75L381.5 63.5L381.75 61.75L383.75 60.75L386.75 60.25L387 60L387.25 53.25V44.5L387 43.5L384.25 43.25L382.75 42.25L382.25 40.5L382.75 39.25L383.5 38.75Z" fill="white"/>
<path d="M280.75 217.5H283L285.25 218.5L286.5 220L287.25 222.25V227.25L286 231.25L284.25 234L282.25 235.75L281.75 236H277.75L276.25 235L275 233.5L274.25 231.25V227.25L275.25 223.25L276.75 220.5L278 219L280.75 217.5Z" fill="white"/>
<path d="M245.75 210.75H248.5L250.25 211.5L251.5 212.75L252.5 215.25V219.5L251.5 223.5L250 226L248 228L246.25 228.75H242.75L240.75 227.25L240 226L239.5 223.75V220.5L240.25 217.5L242.25 213.5L244 211.5L245.75 210.75Z" fill="white"/>
<path d="M277.25 425.5L280.75 425.75L284.75 426.5L289.75 427.5L306.25 430.25L312.5 431.75L313.75 432.75L314 434.5L312.5 436.25L311.5 436.5L302.25 434.5L290.25 432.25L281.5 431L276.75 429.75L275.5 428.5V427.25L276.75 425.75L277.25 425.5Z" fill="white"/>
<path d="M281.25 408L284.75 408.5L292.25 410L304.5 412.25L316.75 415L318.5 416L318.25 418.25L317.25 419.5H315.25L306 417.5L299.5 416.25L294 415.25L289.5 414.25L283.25 413L280.25 412L280 410.75L281 408.25L281.25 408Z" fill="white"/>
<path d="M67.5 22.5H77.75L79.5 23.25L80.5 24.5L80.25 26.25L79.25 27.25L75 27.5V46L74 46.75H71L70 45.75L69.75 44.5V27.5H65.5L64.5 26.75L64.25 25L64.75 23.5L66.25 22.75L67.5 22.5Z" fill="white"/>
<path d="M221.75 22.5H230.75L233 23.25L234.25 24.75L233.75 26.75L232.5 27.5H228.5L228.25 45.75L227.5 46.5H224.5L223.5 45.75L223.25 44.75V27.5H220L218.5 27L218.25 26.5V23.75L219 23L221.75 22.5Z" fill="white"/>
<path d="M39.25 89.75L41 90.25L41.75 91.25L42 93.75V105.5L41.5 107.25L40.25 107.5L38.75 107L38.5 106.5L38.25 96.5L35.5 100.75L34.25 101.75L33 101L31 98.5L29.5 96.25L29.25 107L29 107.5L26.75 107L26 106.25V96.75L26.25 91.75L27 90.5L28 90H29.5L30.75 91.25L33.75 97L34.5 96.25L37.5 91.25L38.75 90L39.25 89.75Z" fill="white"/>
<path d="M268.75 22.5H271L272 23.5L272.25 26.75V35L272 41.25H278L280.25 41.75L281 43V44.75L279.25 46.25L277.75 46.5H269L267.5 45.75L267 45L266.75 43.75V38.5L267 24L268 23L268.75 22.5Z" fill="white"/>
<path d="M94.75 221.5H97.75L98.75 222L100.25 221.75L101 221.5L101.75 221.75L102.25 223.25L102.75 229.75V235.5L101.75 238L100 240L97.5 241L95.75 241.25L93 240.5L91.25 239.5L91 237.75L92 236.5L93.75 236.75L95.5 237.5L97 237.25L98.5 236L99 235.25L99.25 234L97 234.5L93.5 234.25L92 233.5L90.75 231.5L90.25 229.75V226.25L91.25 224L92.5 222.75L94 221.75L94.75 221.5ZM95.75 224.75L94.25 226L93.5 228L93.75 229.75L94.75 231L96 231.5L97.5 231.25L98.75 230.25L99.25 229.25V226.5L98.25 225L97.75 224.75H95.75Z" fill="white"/>
<path d="M106.25 94.5L108.5 94.75L110.25 96.25L110.75 97.75L111 99.75V106.5L110.5 107.25H108.5L107.5 106.5L107.25 100.25L107 97.75L105.5 98L104.5 99.5L104.25 105.75L103.5 107L102 107.25L101.25 107L101 106.5L100.25 100L99.5 98.5L98.25 98.25L97.5 99.25L97.25 100.5V106.75L97 107.25H94.75L93.75 106.25V97L94.75 95L95 94.75H96.25L97.75 95.75L99.25 95H101.25L102.5 96L103.5 95.75L105.25 94.75L106.25 94.5Z" fill="white"/>
<path d="M27.5 148.75H32.75L35.25 149.75L37.25 151.25L38.75 153.5L39.25 155.75V158.75L38.75 161L37.25 163.5L35 165.5L32 166.25H27.25L26.75 165.5L26.5 163.5V156L26.75 149.5L27.5 148.75ZM30 152.25V163.5L32.25 163L33.75 162L35 160.75L35.75 158.75V155.5L34.75 153.5L33.5 152.5L33 152.25H30Z" fill="white"/>
<path d="M60.25 154H62.75L64 154.75L65 157L65.25 158.75V165.5L64.25 166.5L62.5 166.25L62 165.75L61.5 157.25L59.75 157.75L58.75 159L58.5 161.5V165.5L57.75 166.25H56L55.25 165.75L55 164.75V159.5L54.5 157.25L53 157.5L52.5 158.5L51.75 160.5L51.25 166.25L51 166.5H49.25L48.5 165.75V154.5L48.75 154.25H50.75L51.5 155L52.75 154.5L53 154.25H55.75L57 155.25L57.25 156.25L58.5 155L59.75 154.25L60.25 154Z" fill="white"/>
<path d="M57.25 386.75H58.75L60 388L60.25 388.5V390.25L58.75 393L52 404.25L51.5 404.5H49.25L47.25 403.75L44 400.75L42.75 399.5L41 397.25L41.25 396.25L42.5 394.75L43 394.5H44.5L46.25 395.75L48 397.75L48.75 398.5H49.5L52.75 392.75L55.25 388.5L57.25 386.75Z" fill="white"/>
<path d="M49.25 334.25H50.75L52 335.5L52.25 337L48.75 342.75L47 345.75L45.75 348.25L44.5 350.25L43.75 351.5L42.25 353L39.75 352.5L37.25 351L33.5 347.5L32.75 346.25V344.75L34.25 343.5L36.5 343.75L39.75 346.25L40.75 346.75L42.75 343.25L44.75 340L47.25 336L49.25 334.25Z" fill="white"/>
<path d="M52.5 358.75L54 359L55.5 360L56 360.75L55.75 362L53.75 365.5L52.25 368L50.5 371L49 373.75L47 376.5L46 377H44.25L42.5 376L39 373L37 371L36.75 369.25L37.75 368L39 367.5L40.25 368.25L43 370.25L43.75 371L44.75 371.25L45.25 370L48.25 365L50.25 361.5L51.25 359.5L52.5 358.75Z" fill="white"/>
<path d="M150.5 320.75L152.75 321L157.25 321.75L158 322.5L156 331.25L155.25 333.5L151 335.75L146.25 338.75L145.5 339V337L148 328L149.75 322.5L150.5 320.75Z" fill="#3F6981"/>
<path d="M139.75 358.5L141.5 360L144.25 362L146.75 363L147 363.75L145.5 370L144.25 375.25L144 375.5L142 375.25L136 374L135.25 373.5L135.5 371.25L139.5 358.75L139.75 358.5Z" fill="#3F6981"/>
<path d="M68 90L69.5 90.5L70 91.5V107L69.5 107.5H68L67.5 107.25V106.75L66 107.25L63 107.5L60.5 107L59 105L58.25 103V99.75L59.25 97.25L61 95.75L62.75 95H64.75L66.25 95.25L66.5 91.25L67.25 90.25L68 90ZM63.75 97.75L62.5 98.5L61.75 100.25V102.5L62.5 103.75L63 104H65L66.25 103.5L66.5 103V100.25L66 98.75L65.25 98L63.75 97.75Z" fill="white"/>
<path d="M258.5 22.5H260.5L261.5 23.25L262 24.5L262.25 29.25V44.25L261.5 46.25L261 46.5H257.75L257.25 46L257 45L256.75 41.5V25.25L258.25 22.75L258.5 22.5Z" fill="white"/>
<path d="M47 178.75H48.5L49.5 179.25L50 180.5L50.25 193.25L50 195.5H47.25L46.25 195.25L44 196H42L40.25 195.25L39 193.75L38.5 191.5V189L39 187L40 185.5L41.75 184L44.75 183.5H46.5L46.75 179L47 178.75ZM43.25 187.25L42 188.5L41.5 190L42 192L43 193H44.5L46.5 191.25V189.25L45.75 187.75L44.75 187.25H43.25Z" fill="white"/>
<path d="M27.5 178.75H36.5V181.5L36.25 181.75H29.25L29.5 185.5L34.75 185.75L35 187L34.5 188.5L34 188.75H29.25V193.25L36.5 193L37 193.75L36.75 195.75L36.25 196.25H27.75L26.5 195.75L26 194.75V180.75L26.75 179.25L27.5 178.75Z" fill="white"/>
<path d="M49.75 94H52.75L54.5 95L56 97.25L56.25 98.25V100.75L55.5 101.5L49 102.5H48.25L48.5 103.25L49.5 103.75H51.5L53.75 103.25L55.5 103.5L56 105L54.25 107L53.25 107.5L51.5 107.75H49.5L47.5 107.25L46.25 106.25L45 104.25L44.5 101.75L44.75 99L46 96.5L48 94.75L49.75 94ZM50.75 97.25L49 97.75L48 99V99.5L51.75 99.25L52.75 98.75L52.5 97.75L51.5 97.25H50.75Z" fill="white"/>
<path d="M422.5 278.25L424.5 278.5L425.5 279.5L425.25 281.75L421.75 286L419.5 289.25L417.75 291.5L416 293.25L414 293.5L412 292.5L408 288.5L407.5 287.5V285.75L408.5 284.75L410 284.5L411.75 285.5L413.75 287.25L415 287.5L416.5 285.5L419.25 281.75L421 279.25L422.5 278.25Z" fill="white"/>
<path d="M80.5 221.25H82.5L83.75 221.75H86.25L87 222.5L87.5 224.5V233L87 234.5H85L84.25 233.75L82.75 234.25L80.25 234.5L78.25 234L76.5 232.25L75.75 229.75V226.75L76.5 224.25L78 222.5L80.5 221.25ZM81.25 224.5L80 225.25L79 227.25V230L80 231.25L81.25 231.5L83.25 230.5L84 229.25V226.25L83.25 224.5H81.25Z" fill="white"/>
<path d="M56.5 124.5H58.75L60.5 125.25H63.25L63.75 126L64 128.5V136.25L63.75 136.75L61.5 137L61 136.75L58.75 137H56L54.5 136.25L53 134.25L52.5 133V128.75L53.25 127L54.75 125.25L56.5 124.5ZM57.25 127.75L56.25 128.75L56 129.5V132L56.75 133.5L57.25 133.75H58.75L60 132.75L60.25 132.25V129L59 127.75H57.25Z" fill="white"/>
<path d="M43.75 124H45.5L47.5 124.75L49.25 126.25L50.25 128.25V130.75L49.25 131.25L42.5 132.25L42.75 133.75L43.25 134.25H46L47.25 133H48.75L49.5 133.75L49.75 135L49 136.25L47 137.25H43L41 136.5L39.5 134.75L38.75 132.75V128.5L39.75 126.5L41.75 124.75L43.75 124ZM43.5 127L42.25 128V129L43.5 129.25L46.75 128.75L46.5 127.75L45.5 127H43.5Z" fill="white"/>
<path d="M67 64.5H70L71.5 65.25L73 67L73.5 68V71.5L72 72L70.25 72.25L65.75 72.5L66.25 73.75L66.75 74.25H69.75L72.25 73.75L73.5 74.5V75.75L71.5 77.5L69 78L66.25 77.75L65 77L63.75 75.5L62.75 73.5L62.5 72.5V68.75L63.5 66.75L65.25 65.25L67 64.5ZM68.25 67.25L66.5 68L65.5 69.25V70L70.5 69.75V68.5L69.5 67.5L68.25 67.25Z" fill="white"/>
<path d="M37.5 119L39.5 119.25L39.75 119.5L39.5 121.25L37.75 124.5L35 128.75L34.75 129.75L34.5 136.25L33 137H31.5L30.75 136.25V129.5L27.5 125L25.5 121.5V120.25L26.25 119.5L27.5 119.25L28.5 119.75L32.25 125.75L32.75 126L33.25 124.75L35.75 121L37.5 119Z" fill="white"/>
<path d="M81.75 95.25L83.5 95.5L83.75 102V104.25H85.5L86.75 103.5L87.25 101.75L87.5 95.75L87.75 95.5H90.25L91 96.25L91.25 97.75V105.5L90.75 106.75L90 107.5L87 107.25L86 107.5H83L81.75 107L80.25 104L80 102V96.75L80.25 95.5L81.75 95.25Z" fill="white"/>
<path d="M72 154H74.25L75.75 154.75L77.25 156.5L77.75 157.75V160L76.25 161L74.5 161.25H70.5L71.25 162.75L72.5 163.75L74 163.5L75.75 162.5L77.25 162.75L77.75 163.25V164.75L76 166.25L74 167H71.75L69.75 166.25L68 164.25L67.25 162.75L67 160L67.75 157.25L69.25 155.25L70.75 154.25L72 154ZM72 156.5L70.75 157.75L71 158.5H74.5L74.75 158L73.75 156.75L72 156.5Z" fill="white"/>
<path d="M115.75 154H119L120.5 154.75L122 156.5L122.75 158.5V162.5L121.75 164.5L120.75 165.75L118.75 166.75L118 167H115.75L114 166.25L112.75 165L111.5 163L111.25 162.25V159.5L112.25 156.75L113.5 155L114.75 154.25L115.75 154ZM116 157L114.75 158.5L114.5 159V161.75L115.5 163.25L117 164L118.5 163.5L119.5 162.25L119.75 161.5V159L118.75 157.5L118 157H116Z" fill="white"/>
<path d="M79.75 183.5H83L84.75 184.25L86.25 186L87.25 189.25V191.5L86.25 194L85 195.5L82.75 196.5H79.5L77.5 195.25L76.25 193.5L75.75 191.75V188L76.5 186L78 184.25L79.75 183.5ZM80.5 186.25L79.25 187.25L78.5 189.5L78.75 191.5L79.75 193L81 193.5L82.75 193.25L83.5 192.75L84 191.25V188.75L83.25 187.25L82.5 186.5L80.5 186.25Z" fill="white"/>
<path d="M130.25 154.25H133.25L134.75 155.5L135.75 157.5L136.25 159.5V164.75L135.5 166.25L134.75 166.75L133.25 166.5L132.5 164.75V160.75L132.25 158.25L131.75 157.5H130.25L129 158.75L128.75 159.5L128.5 164.5L128 166.25L126.75 166.75L125.25 165.75L125 163.5L125.25 155.75L125.75 154.5H127.75L129 154.75L130.25 154.25Z" fill="white"/>
<path d="M64.25 217H75.25L75.75 217.25V220.25L75.5 220.5H71.75V234.25L71.5 234.5H68.5L68.25 234.25L68 220.75L65 220.5L64.25 220.25L64 219.5V217.25L64.25 217Z" fill="white"/>
<path d="M85 154.25H88.5L89.5 154.75L91 157L91.25 158.25V165.5L90.75 166.25L89.25 166.5L88 166L87.75 165.5L87.5 157.75L85.25 158L84.25 159L84 159.75L83.75 165L83.25 166.25L83 166.5H81.5L80.75 165.5L80.5 164.25V155.75L81 154.5H82.5L83.75 155L85 154.25Z" fill="white"/>
<path d="M89.75 183.75H91.25L92 184.5L93.25 184.25L94.25 183.75H96.5L98.5 184.75L99.75 186.75L100.25 188.5V195L99.25 196H97.5L97 195.5L96.75 188.5L96 187.5H94.25L93.25 188.5L92.75 189.75L92.25 195L91.75 195.75L89.5 195.5L89.25 195V184.75L89.75 183.75Z" fill="white"/>
<path d="M110.25 220.75L112.5 221.25L113.75 222.5L114 224.25L113 224.75H109L111 226.25L112.5 227.25L114 229.5V232.25L112.75 234.25L111.25 235H108.5L106 234.25L105 233.25L105.25 231.5L106 230.5L107.5 231L108.5 231.5H110.25V230L108 228.5L106 227.25L105.25 226.25L105 224.75L105.75 222.75L107 221.75L108.75 221L110.25 220.75Z" fill="white"/>
<path d="M96.5 154H100.5L102 155.25V157.25L101.25 158L99.75 157.5L98.75 156.75L97.5 156.5L98 157.75L100.75 159.25L102.5 161L103 162V164L102.25 165.5L100.75 166.75L98.75 167.5L96.5 167.25L94.25 165.75L93.5 165L93.75 164L94.75 162.75L96 163L97.75 164H99L99.5 163L98.5 162L95.5 160.5L94.25 159.25L93.75 158.25V156.75L95 154.75L96.5 154Z" fill="white"/>
<path d="M26.75 60.75H32.5L36 61L36.5 61.25V63.75L36.25 64L33 64.25L32.75 77.5L31.5 77.75L30.25 77.25L29.5 76.25L29.25 64.5L26.25 64.25L25.5 63.75V61.25L26.75 60.75Z" fill="white"/>
<path d="M141.75 154.25H144.75L146 155L146.5 156.5L146.25 157.75H144.5L142.25 157.25L142.75 158.25L146.5 160.25L147.75 161.75L148 164L147.25 165.25L145.5 166.75L144.25 167.25H142L139.75 166.25L138.5 165.25V163.75L139.5 162.5L140.75 163L142.5 164H144L144.5 163L143.75 162.25L140 159.75L139 158.25V156.75L140 155.25L141 154.5L141.75 154.25Z" fill="white"/>
<path d="M48.5 61L50 61.5L50.25 61.75V65.5H52.75V68L52.5 68.25H50.25L50.5 74.25L52.5 75.25L52.75 75.75V77.25L52.25 77.75H49.5L48.25 76.75L47.25 74.5L47 73L46.75 68.5L44.75 68.25V65.75L45 65.5L46.75 65.25L47 62.5L47.75 61.25L48.5 61Z" fill="white"/>
<path d="M61.5 179.5H64L64.5 180.5V184.25L66.75 184.5L67 184.75V187L66.25 187.5H64.25L64.5 189V192.75L67 193.25L67.5 194L67.25 195.25L66.25 196.25H64.5L62.5 195.25L61.75 193L61.25 188.75V187.5L59.25 187.25L58.75 186.25L59 185L59.75 184.5H61.25V181.75L61.5 179.5Z" fill="white"/>
<path d="M407.75 219H421L422.25 220.25L422.5 221.75L421 223.5H407.75L407 223V222.5H406.5L406.25 222V220.5L407.75 219Z" fill="white"/>
<path d="M389.25 22.5L391.75 22.75L394 24.25L394.5 25L394.75 27.5L394.25 29.5L393.25 31L392.25 31.5L389.5 31.75L387.5 31.25L385.75 29.25L385.5 28.5V25.5L386.5 24L387.75 23L389.25 22.5Z" fill="white"/>
<path d="M409 209.25H420.75L422 210.5L422.25 212L421.25 213.5L420.75 213.75H407.75L406.25 212.5L406 211.25L407.5 209.5L409 209.25Z" fill="white"/>
<path d="M72 124.5H75L75.5 125V126.5L74.5 127.5L72 128.5L71 130.75L70.25 136.75L70 137H68.25L67 136.25V125.5L67.5 124.75H69.75L70.75 125L72 124.5Z" fill="white"/>
<path d="M55.75 60.5H58L58.5 61.75V76.5L58 77.75H56L55.5 77.25L55.25 75.25V66.25L55.5 61L55.75 60.5Z" fill="white"/>
<path d="M106.5 154.5L108.5 154.75L109 156V165.25L108.25 166.5L108 166.75H106.25L105.5 166L105.25 160.75L105.5 155.75L106.5 154.5Z" fill="white"/>
<path d="M42.75 154.25H44.5L44.75 154.5V166.25L44.5 166.75H42.5L41.75 166L41.5 164.5V156.75L42 154.75L42.75 154.25Z" fill="white"/>
<path d="M73.75 95.5H76.5L76.75 96.25V107L76.5 107.25H74.25L73.75 107L73.5 106.25V97.25L73.75 95.5Z" fill="white"/>
<path d="M39.75 65.75H41.5L42.25 67.25L42.5 71.5V77L42.25 77.5L41 77.75L39.75 77L39.25 76.25L39 74V66.5L39.75 65.75Z" fill="white"/>
<path d="M70.75 183.75L72 184L73 186V194.5L72.5 195.75L71.5 196.25L70.25 196L69.75 195V185.25L70.5 184L70.75 183.75Z" fill="white"/>
<path d="M54.25 184L56 184.25L56.5 185.25V195.25L56.25 195.5H53.75L53.25 194.75V185.25L54.25 184Z" fill="white"/>
<path d="M107.25 149H108.5L109.25 150V152.25L109 152.5H106.25L105.5 151.75V150.25L106.75 149.25L107.25 149Z" fill="white"/>
<path d="M75 90L76.75 90.25L77.25 90.75V92.5L77 93.25L76.5 93.5H74.5L74 93.25L73.75 91.75L74.25 90.25L75 90Z" fill="white"/>
<path d="M39.5 60.5H42.5L42.75 61.5L42.25 63.5L41.5 64L40.25 63.75L39.25 62.75V60.75L39.5 60.5Z" fill="white"/>
<path d="M54 179H56.25L56.5 179.25V182.25L54.75 182.5L53.5 182V179.5L54 179Z" fill="white"/>
<path d="M43 148.75L44.25 149L44.75 149.75V152.25L44.25 152.5H42.25L41.75 152.25V150.5L42.75 149L43 148.75Z" fill="white"/>
<path d="M70.5 179H72.25L73 180V181.5L72.5 182L71.25 182.25L70.25 182L70 181.5V179.75L70.5 179Z" fill="white"/>
<path d="M252.75 320.25L258.25 320.75L258.5 321.5L254 321L252.75 320.75V320.25Z" fill="#C3C0B0"/>
<path d="M270.5 316.5H271L270.75 317L270.5 316.5Z" fill="#CDC2AD"/>
</svg>
