<svg width="1194" height="374" viewBox="0 0 1194 374" fill="none" xmlns="http://www.w3.org/2000/svg">
<path d="M131.4 23.2H136.9V26.75C136.9 29.75 136.433 32.5833 135.5 35.25C134.567 37.8833 133.133 40.1833 131.2 42.15C129.3 44.1167 126.883 45.6 123.95 46.6L120.45 41.4C123.05 40.5667 125.15 39.4 126.75 37.9C128.35 36.3667 129.517 34.6333 130.25 32.7C131.017 30.7667 131.4 28.7833 131.4 26.75V23.2ZM132.8 23.2H138.15V26.65C138.15 28.05 138.35 29.45 138.75 30.85C139.15 32.2167 139.767 33.5167 140.6 34.75C141.433 35.9833 142.5 37.0833 143.8 38.05C145.133 39.0167 146.717 39.8 148.55 40.4L145 45.55C142.233 44.5833 139.933 43.1667 138.1 41.3C136.3 39.4333 134.967 37.2333 134.1 34.7C133.233 32.1667 132.8 29.4833 132.8 26.65V23.2ZM150.8 21.15H157.45V46.7H150.8V21.15ZM155.65 31.05H163.6V36.45H155.65V31.05ZM127.25 48.6H133.85V52.7H150.9V48.6H157.45V66.95H127.25V48.6ZM133.85 57.75V61.6H150.9V57.75H133.85ZM177.746 48.55H184.396V56H177.746V48.55ZM197.196 21.15H203.846V67.45H197.196V21.15ZM201.546 39.95H209.696V45.4H201.546V39.95ZM167.346 59.75L166.546 54.35C169.213 54.35 172.129 54.3333 175.296 54.3C178.496 54.2667 181.763 54.15 185.096 53.95C188.463 53.75 191.713 53.45 194.846 53.05L195.346 57.85C192.113 58.45 188.829 58.9 185.496 59.2C182.163 59.4667 178.946 59.6333 175.846 59.7C172.779 59.7333 169.946 59.75 167.346 59.75ZM167.396 26.2H194.646V31.4H167.396V26.2ZM181.046 33.25C183.279 33.25 185.246 33.6167 186.946 34.35C188.646 35.0833 189.979 36.1 190.946 37.4C191.913 38.7 192.396 40.2167 192.396 41.95C192.396 43.65 191.913 45.1667 190.946 46.5C189.979 47.8 188.646 48.8167 186.946 49.55C185.246 50.2833 183.279 50.65 181.046 50.65C178.846 50.65 176.896 50.2833 175.196 49.55C173.496 48.8167 172.163 47.8 171.196 46.5C170.229 45.1667 169.746 43.65 169.746 41.95C169.746 40.2167 170.229 38.7 171.196 37.4C172.163 36.1 173.496 35.0833 175.196 34.35C176.896 33.6167 178.846 33.25 181.046 33.25ZM181.046 38.25C179.546 38.25 178.329 38.5833 177.396 39.25C176.496 39.8833 176.046 40.7833 176.046 41.95C176.046 43.15 176.496 44.0667 177.396 44.7C178.329 45.3333 179.546 45.65 181.046 45.65C182.579 45.65 183.796 45.3333 184.696 44.7C185.629 44.0667 186.096 43.15 186.096 41.95C186.096 40.7833 185.629 39.8833 184.696 39.25C183.796 38.5833 182.579 38.25 181.046 38.25ZM177.746 21.35H184.396V30.1H177.746V21.35Z" fill="#4C4C4C"/>
<path d="M934.35 336.8H963.85V342.35H934.35V336.8ZM963 336.85H963.9L965.1 336.6L969.35 339.9C969.25 340 969.083 340.117 968.85 340.25C968.65 340.383 968.417 340.517 968.15 340.65C963.983 342.717 960.417 344.533 957.45 346.1C954.483 347.633 952.017 348.967 950.05 350.1C948.083 351.2 946.517 352.15 945.35 352.95C944.183 353.717 943.317 354.367 942.75 354.9C942.183 355.4 941.8 355.833 941.6 356.2C941.433 356.567 941.35 356.917 941.35 357.25C941.35 357.95 941.767 358.467 942.6 358.8C943.433 359.1 944.567 359.25 946 359.25H965.2C966.067 359.25 966.75 359.083 967.25 358.75C967.783 358.417 968.2 357.75 968.5 356.75C968.8 355.717 968.983 354.133 969.05 352C969.917 352.5 970.833 352.917 971.8 353.25C972.8 353.55 973.75 353.783 974.65 353.95C974.417 357.017 973.933 359.35 973.2 360.95C972.467 362.55 971.4 363.633 970 364.2C968.633 364.767 966.833 365.05 964.6 365.05H946.45C942.65 365.05 939.817 364.4 937.95 363.1C936.117 361.8 935.183 360.033 935.15 357.8C935.15 357.133 935.233 356.483 935.4 355.85C935.567 355.183 935.917 354.45 936.45 353.65C937.017 352.85 937.9 351.95 939.1 350.95C940.3 349.95 941.917 348.783 943.95 347.45C945.983 346.117 948.55 344.583 951.65 342.85C954.783 341.117 958.567 339.117 963 336.85ZM929.5 324.4H974.35V330.15H929.5V324.4ZM940.1 319.5H946.25V333.9H940.1V319.5ZM957.75 319.5H963.9V333.9H957.75V319.5ZM1006.85 335.75C1007.88 337.617 1009.12 339.483 1010.55 341.35C1012.02 343.217 1013.6 345.033 1015.3 346.8C1017 348.567 1018.75 350.217 1020.55 351.75C1022.35 353.283 1024.15 354.6 1025.95 355.7C1025.45 356.1 1024.88 356.617 1024.25 357.25C1023.65 357.883 1023.07 358.533 1022.5 359.2C1021.97 359.867 1021.5 360.483 1021.1 361.05C1019.33 359.717 1017.55 358.183 1015.75 356.45C1013.98 354.683 1012.27 352.783 1010.6 350.75C1008.93 348.683 1007.35 346.55 1005.85 344.35C1004.38 342.15 1003.07 339.95 1001.9 337.75L1006.85 335.75ZM998.1 335.95L1003.55 337.9C1002.35 340.333 1001 342.7 999.5 345C998 347.3 996.35 349.467 994.55 351.5C992.783 353.5 990.883 355.35 988.85 357.05C986.85 358.75 984.783 360.217 982.65 361.45C982.317 360.917 981.867 360.333 981.3 359.7C980.767 359.033 980.217 358.383 979.65 357.75C979.117 357.117 978.6 356.583 978.1 356.15C980.167 355.15 982.183 353.917 984.15 352.45C986.117 350.95 987.967 349.317 989.7 347.55C991.467 345.75 993.067 343.867 994.5 341.9C995.933 339.933 997.133 337.95 998.1 335.95ZM980.05 331.8H1023.8V337.75H980.05V331.8ZM998.85 319.55H1005.45V366.5H998.85V319.55ZM1007.3 323.65L1011.7 320C1012.63 320.667 1013.63 321.433 1014.7 322.3C1015.77 323.133 1016.8 323.967 1017.8 324.8C1018.8 325.633 1019.62 326.383 1020.25 327.05L1015.55 331.2C1014.98 330.5 1014.22 329.717 1013.25 328.85C1012.32 327.95 1011.32 327.05 1010.25 326.15C1009.18 325.217 1008.2 324.383 1007.3 323.65ZM1043.2 327.25V333.95H1060.8V327.25H1043.2ZM1037.4 321.5H1066.9V339.65H1037.4V321.5ZM1030.5 343.85H1049.65V366.2H1043.65V349.6H1036.2V366.5H1030.5V343.85ZM1053.85 343.85H1073.65V366.25H1067.65V349.6H1059.6V366.5H1053.85V343.85ZM1033 358.2H1046.15V363.95H1033V358.2ZM1056.6 358.2H1070.6V363.95H1056.6V358.2Z" fill="#4C4C4C"/>
<path d="M93.8 199H100V224H93.8V221.55C92.6333 222.55 91.35 223.333 89.95 223.9C88.5833 224.433 87.1333 224.7 85.6 224.7C83.0667 224.7 80.85 224.133 78.95 223C77.05 221.867 75.5833 220.3 74.55 218.3C73.55 216.3 73.05 214.05 73.05 211.55C73.05 209.05 73.55 206.8 74.55 204.8C75.5833 202.8 77.05 201.233 78.95 200.1C80.85 198.933 83.0667 198.35 85.6 198.35C87.1333 198.35 88.5833 198.633 89.95 199.2C91.35 199.733 92.6333 200.5 93.8 201.5V199ZM86.4 218.75C87.7667 218.75 89 218.45 90.1 217.85C91.2333 217.217 92.1167 216.35 92.75 215.25C93.4167 214.15 93.75 212.9 93.75 211.5C93.75 209.4 93.0333 207.683 91.6 206.35C90.2 205.017 88.4667 204.35 86.4 204.35C84.3 204.35 82.5667 205.033 81.2 206.4C79.8667 207.733 79.2 209.45 79.2 211.55C79.2 213.65 79.8667 215.383 81.2 216.75C82.5667 218.083 84.3 218.75 86.4 218.75ZM121.228 198.5L120.778 204.35C120.578 204.283 120.228 204.25 119.728 204.25C117.661 204.25 115.944 204.85 114.578 206.05C113.244 207.25 112.578 208.883 112.578 210.95V224H106.378V199H112.578V203.2C113.144 201.867 114.111 200.75 115.478 199.85C116.844 198.95 118.494 198.5 120.428 198.5H121.228ZM135.34 215.45C135.34 216.583 135.607 217.367 136.14 217.8C136.674 218.233 137.524 218.45 138.69 218.45C139.39 218.45 140.157 218.4 140.99 218.3V224C139.424 224.167 138.124 224.25 137.09 224.25C134.424 224.25 132.424 223.65 131.09 222.45C129.79 221.217 129.14 219.017 129.14 215.85V204.55H124.44V199H129.14V192.85L135.34 190.75V199H140.89V204.55H135.34V215.45ZM164.747 199H170.947V224H164.747V221.55C163.581 222.55 162.297 223.333 160.897 223.9C159.531 224.433 158.081 224.7 156.547 224.7C154.014 224.7 151.797 224.133 149.897 223C147.997 221.867 146.531 220.3 145.497 218.3C144.497 216.3 143.997 214.05 143.997 211.55C143.997 209.05 144.497 206.8 145.497 204.8C146.531 202.8 147.997 201.233 149.897 200.1C151.797 198.933 154.014 198.35 156.547 198.35C158.081 198.35 159.531 198.633 160.897 199.2C162.297 199.733 163.581 200.5 164.747 201.5V199ZM157.347 218.75C158.714 218.75 159.947 218.45 161.047 217.85C162.181 217.217 163.064 216.35 163.697 215.25C164.364 214.15 164.697 212.9 164.697 211.5C164.697 209.4 163.981 207.683 162.547 206.35C161.147 205.017 159.414 204.35 157.347 204.35C155.247 204.35 153.514 205.033 152.147 206.4C150.814 207.733 150.147 209.45 150.147 211.55C150.147 213.65 150.814 215.383 152.147 216.75C153.514 218.083 155.247 218.75 157.347 218.75ZM181.575 195.45C180.442 195.45 179.525 195.133 178.825 194.5C178.158 193.833 177.825 192.95 177.825 191.85C177.825 190.75 178.158 189.883 178.825 189.25C179.492 188.617 180.408 188.3 181.575 188.3C182.742 188.3 183.658 188.617 184.325 189.25C184.992 189.883 185.325 190.75 185.325 191.85C185.325 192.95 184.992 193.833 184.325 194.5C183.658 195.133 182.742 195.45 181.575 195.45ZM178.475 199H184.675V225.05C184.675 227.15 184.192 228.95 183.225 230.45C182.292 231.95 180.975 233.067 179.275 233.8C177.575 234.533 175.625 234.817 173.425 234.65V228.7C173.692 228.733 174.058 228.75 174.525 228.75C175.892 228.75 176.892 228.45 177.525 227.85C178.158 227.283 178.475 226.35 178.475 225.05V199ZM186.919 196.2H183.019L179.319 191.65L175.769 196.2H171.969L176.569 189H182.119L186.919 196.2ZM201.819 224.7C199.452 224.7 197.252 224.117 195.219 222.95C193.219 221.75 191.619 220.15 190.419 218.15C189.252 216.117 188.669 213.917 188.669 211.55C188.669 209.183 189.252 207 190.419 205C191.619 202.967 193.219 201.367 195.219 200.2C197.252 199 199.452 198.4 201.819 198.4C204.186 198.4 206.369 199 208.369 200.2C210.402 201.367 212.002 202.967 213.169 205C214.369 207 214.969 209.183 214.969 211.55C214.969 213.917 214.369 216.117 213.169 218.15C212.002 220.15 210.402 221.75 208.369 222.95C206.369 224.117 204.186 224.7 201.819 224.7ZM201.769 218.5C203.036 218.5 204.202 218.2 205.269 217.6C206.336 216.967 207.186 216.117 207.819 215.05C208.452 213.983 208.769 212.817 208.769 211.55C208.769 210.283 208.452 209.117 207.819 208.05C207.186 206.983 206.336 206.133 205.269 205.5C204.202 204.867 203.036 204.55 201.769 204.55C200.502 204.55 199.336 204.867 198.269 205.5C197.202 206.133 196.352 206.983 195.719 208.05C195.119 209.117 194.819 210.283 194.819 211.55C194.819 212.817 195.119 213.983 195.719 215.05C196.352 216.117 197.202 216.967 198.269 217.6C199.336 218.2 200.502 218.5 201.769 218.5ZM222.639 195.45C221.506 195.45 220.589 195.133 219.889 194.5C219.223 193.833 218.889 192.95 218.889 191.85C218.889 190.75 219.223 189.883 219.889 189.25C220.556 188.617 221.473 188.3 222.639 188.3C223.806 188.3 224.723 188.617 225.389 189.25C226.056 189.883 226.389 190.75 226.389 191.85C226.389 192.95 226.056 193.833 225.389 194.5C224.723 195.133 223.806 195.45 222.639 195.45ZM219.539 199H225.739V225.05C225.739 227.15 225.256 228.95 224.289 230.45C223.356 231.95 222.039 233.067 220.339 233.8C218.639 234.533 216.689 234.817 214.489 234.65V228.7C214.756 228.733 215.123 228.75 215.589 228.75C216.956 228.75 217.956 228.45 218.589 227.85C219.223 227.283 219.539 226.35 219.539 225.05V199Z" fill="#4C4C4C"/>
<path d="M14.95 362.7C12.5833 362.7 10.3833 362.117 8.35 360.95C6.35 359.75 4.75 358.15 3.55 356.15C2.38333 354.117 1.8 351.917 1.8 349.55C1.8 347.183 2.38333 345 3.55 343C4.75 340.967 6.35 339.367 8.35 338.2C10.3833 337 12.5833 336.4 14.95 336.4C17.3167 336.4 19.5 337 21.5 338.2C23.5333 339.367 25.1333 340.967 26.3 343C27.5 345 28.1 347.183 28.1 349.55C28.1 351.917 27.5 354.117 26.3 356.15C25.1333 358.15 23.5333 359.75 21.5 360.95C19.5 362.117 17.3167 362.7 14.95 362.7ZM14.9 356.5C16.1667 356.5 17.3333 356.2 18.4 355.6C19.4667 354.967 20.3167 354.117 20.95 353.05C21.5833 351.983 21.9 350.817 21.9 349.55C21.9 348.283 21.5833 347.117 20.95 346.05C20.3167 344.983 19.4667 344.133 18.4 343.5C17.3333 342.867 16.1667 342.55 14.9 342.55C13.6333 342.55 12.4667 342.867 11.4 343.5C10.3333 344.133 9.48333 344.983 8.85 346.05C8.25 347.117 7.95 348.283 7.95 349.55C7.95 350.817 8.25 351.983 8.85 353.05C9.48333 354.117 10.3333 354.967 11.4 355.6C12.4667 356.2 13.6333 356.5 14.9 356.5ZM43.8074 336.35C46.2074 336.35 48.3574 336.95 50.2574 338.15C52.1908 339.317 53.6908 340.9 54.7574 342.9C55.8241 344.9 56.3574 347.117 56.3574 349.55C56.3574 350.35 56.2908 351.083 56.1574 351.75H36.8574C37.3574 353.517 38.2408 354.9 39.5074 355.9C40.7741 356.867 42.3908 357.35 44.3574 357.35C45.5574 357.35 46.7074 357.083 47.8074 356.55C48.9408 356.017 49.7908 355.333 50.3574 354.5L55.1074 357.3C53.9408 359.033 52.4241 360.367 50.5574 361.3C48.7241 362.2 46.6074 362.65 44.2074 362.65C41.5408 362.65 39.1741 362.083 37.1074 360.95C35.0408 359.817 33.4408 358.25 32.3074 356.25C31.2074 354.25 30.6574 352 30.6574 349.5C30.6574 347.033 31.2074 344.8 32.3074 342.8C33.4408 340.8 35.0074 339.233 37.0074 338.1C39.0074 336.933 41.2741 336.35 43.8074 336.35ZM50.5574 346.9C50.2908 345.3 49.5408 344.05 48.3074 343.15C47.1074 342.217 45.5908 341.75 43.7574 341.75C42.4908 341.75 41.3241 341.983 40.2574 342.45C39.2241 342.917 38.3908 343.55 37.7574 344.35C37.1241 345.15 36.7908 346 36.7574 346.9H50.5574ZM77.0066 337H83.2066V362H77.0066V359.9C76.1066 360.733 75.1066 361.4 74.0066 361.9C72.9066 362.4 71.74 362.65 70.5066 362.65C69.04 362.65 67.54 362.35 66.0066 361.75C64.5066 361.117 63.2066 360 62.1066 358.4C61.04 356.8 60.5066 354.65 60.5066 351.95V337H66.7066V351.95C66.7066 353.817 67.2233 355.167 68.2566 356C69.3233 356.8 70.5566 357.2 71.9566 357.2C73.3566 357.2 74.54 356.717 75.5066 355.75C76.5066 354.75 77.0066 353.167 77.0066 351V337ZM99.8258 354.5L106.376 337H112.926L103.626 362H96.0258L86.7258 337H93.2758L99.8258 354.5ZM131.282 336.5L130.832 342.35C130.632 342.283 130.282 342.25 129.782 342.25C127.716 342.25 125.999 342.85 124.632 344.05C123.299 345.25 122.632 346.883 122.632 348.95V362H116.432V337H122.632V341.2C123.199 339.867 124.166 338.75 125.532 337.85C126.899 336.95 128.549 336.5 130.482 336.5H131.282ZM145.761 336.35C148.161 336.35 150.311 336.95 152.211 338.15C154.144 339.317 155.644 340.9 156.711 342.9C157.777 344.9 158.311 347.117 158.311 349.55C158.311 350.35 158.244 351.083 158.111 351.75H138.811C139.311 353.517 140.194 354.9 141.461 355.9C142.727 356.867 144.344 357.35 146.311 357.35C147.511 357.35 148.661 357.083 149.761 356.55C150.894 356.017 151.744 355.333 152.311 354.5L157.061 357.3C155.894 359.033 154.377 360.367 152.511 361.3C150.677 362.2 148.561 362.65 146.161 362.65C143.494 362.65 141.127 362.083 139.061 360.95C136.994 359.817 135.394 358.25 134.261 356.25C133.161 354.25 132.611 352 132.611 349.5C132.611 347.033 133.161 344.8 134.261 342.8C135.394 340.8 136.961 339.233 138.961 338.1C140.961 336.933 143.227 336.35 145.761 336.35ZM152.511 346.9C152.244 345.3 151.494 344.05 150.261 343.15C149.061 342.217 147.544 341.75 145.711 341.75C144.444 341.75 143.277 341.983 142.211 342.45C141.177 342.917 140.344 343.55 139.711 344.35C139.077 345.15 138.744 346 138.711 346.9H152.511ZM195.602 327H201.802V362H195.602V359.6C194.468 360.6 193.202 361.367 191.802 361.9C190.402 362.433 188.952 362.7 187.452 362.7C184.918 362.7 182.702 362.133 180.802 361C178.902 359.867 177.435 358.3 176.402 356.3C175.402 354.3 174.902 352.05 174.902 349.55C174.902 347.05 175.402 344.8 176.402 342.8C177.435 340.8 178.902 339.233 180.802 338.1C182.702 336.933 184.918 336.35 187.452 336.35C188.952 336.35 190.385 336.633 191.752 337.2C193.152 337.733 194.435 338.483 195.602 339.45V327ZM188.252 356.75C189.618 356.75 190.852 356.45 191.952 355.85C193.085 355.217 193.968 354.35 194.602 353.25C195.268 352.15 195.602 350.9 195.602 349.5C195.602 347.4 194.885 345.683 193.452 344.35C192.052 343.017 190.318 342.35 188.252 342.35C186.152 342.35 184.418 343.033 183.052 344.4C181.718 345.733 181.052 347.45 181.052 349.55C181.052 351.65 181.718 353.383 183.052 354.75C184.418 356.083 186.152 356.75 188.252 356.75ZM207.68 332.45V327H213.28V332.45L211.68 341.75H209.33L207.68 332.45ZM237.058 337H243.258V362H237.058V359.55C235.891 360.55 234.608 361.333 233.208 361.9C231.841 362.433 230.391 362.7 228.858 362.7C226.324 362.7 224.108 362.133 222.208 361C220.308 359.867 218.841 358.3 217.808 356.3C216.808 354.3 216.308 352.05 216.308 349.55C216.308 347.05 216.808 344.8 217.808 342.8C218.841 340.8 220.308 339.233 222.208 338.1C224.108 336.933 226.324 336.35 228.858 336.35C230.391 336.35 231.841 336.633 233.208 337.2C234.608 337.733 235.891 338.5 237.058 339.5V337ZM229.658 356.75C231.024 356.75 232.258 356.45 233.358 355.85C234.491 355.217 235.374 354.35 236.008 353.25C236.674 352.15 237.008 350.9 237.008 349.5C237.008 347.4 236.291 345.683 234.858 344.35C233.458 343.017 231.724 342.35 229.658 342.35C227.558 342.35 225.824 343.033 224.458 344.4C223.124 345.733 222.458 347.45 222.458 349.55C222.458 351.65 223.124 353.383 224.458 354.75C225.824 356.083 227.558 356.75 229.658 356.75ZM264.486 336.5L264.036 342.35C263.836 342.283 263.486 342.25 262.986 342.25C260.919 342.25 259.202 342.85 257.836 344.05C256.502 345.25 255.836 346.883 255.836 348.95V362H249.636V337H255.836V341.2C256.402 339.867 257.369 338.75 258.736 337.85C260.102 336.95 261.752 336.5 263.686 336.5H264.486ZM278.598 353.45C278.598 354.583 278.865 355.367 279.398 355.8C279.931 356.233 280.781 356.45 281.948 356.45C282.648 356.45 283.415 356.4 284.248 356.3V362C282.681 362.167 281.381 362.25 280.348 362.25C277.681 362.25 275.681 361.65 274.348 360.45C273.048 359.217 272.398 357.017 272.398 353.85V342.55H267.698V337H272.398V330.85L278.598 328.75V337H284.148V342.55H278.598V353.45Z" fill="#4C4C4C"/>
<path d="M868.95 212.7C866.583 212.7 864.383 212.117 862.35 210.95C860.35 209.75 858.75 208.15 857.55 206.15C856.383 204.117 855.8 201.917 855.8 199.55C855.8 197.183 856.383 195 857.55 193C858.75 190.967 860.35 189.367 862.35 188.2C864.383 187 866.583 186.4 868.95 186.4C871.317 186.4 873.5 187 875.5 188.2C877.533 189.367 879.133 190.967 880.3 193C881.5 195 882.1 197.183 882.1 199.55C882.1 201.917 881.5 204.117 880.3 206.15C879.133 208.15 877.533 209.75 875.5 210.95C873.5 212.117 871.317 212.7 868.95 212.7ZM868.9 206.5C870.167 206.5 871.333 206.2 872.4 205.6C873.467 204.967 874.317 204.117 874.95 203.05C875.583 201.983 875.9 200.817 875.9 199.55C875.9 198.283 875.583 197.117 874.95 196.05C874.317 194.983 873.467 194.133 872.4 193.5C871.333 192.867 870.167 192.55 868.9 192.55C867.633 192.55 866.467 192.867 865.4 193.5C864.333 194.133 863.483 194.983 862.85 196.05C862.25 197.117 861.95 198.283 861.95 199.55C861.95 200.817 862.25 201.983 862.85 203.05C863.483 204.117 864.333 204.967 865.4 205.6C866.467 206.2 867.633 206.5 868.9 206.5ZM900.407 186.35C902.941 186.35 905.157 186.917 907.057 188.05C908.991 189.183 910.457 190.75 911.457 192.75C912.491 194.75 913.007 197 913.007 199.5C913.007 202 912.491 204.25 911.457 206.25C910.457 208.25 908.991 209.833 907.057 211C905.157 212.133 902.941 212.7 900.407 212.7C898.907 212.7 897.457 212.433 896.057 211.9C894.691 211.333 893.424 210.55 892.257 209.55V222H886.057V187H892.257V189.45C893.391 188.45 894.657 187.683 896.057 187.15C897.457 186.617 898.907 186.35 900.407 186.35ZM899.657 206.7C901.724 206.7 903.424 206.033 904.757 204.7C906.124 203.333 906.807 201.6 906.807 199.5C906.807 197.4 906.124 195.683 904.757 194.35C903.424 192.983 901.724 192.3 899.657 192.3C898.291 192.3 897.041 192.617 895.907 193.25C894.774 193.85 893.874 194.7 893.207 195.8C892.574 196.9 892.257 198.15 892.257 199.55C892.257 201.65 892.957 203.367 894.357 204.7C895.791 206.033 897.557 206.7 899.657 206.7ZM928.96 186.35C931.36 186.35 933.51 186.95 935.41 188.15C937.343 189.317 938.843 190.9 939.91 192.9C940.976 194.9 941.51 197.117 941.51 199.55C941.51 200.35 941.443 201.083 941.31 201.75H922.01C922.51 203.517 923.393 204.9 924.66 205.9C925.926 206.867 927.543 207.35 929.51 207.35C930.71 207.35 931.86 207.083 932.96 206.55C934.093 206.017 934.943 205.333 935.51 204.5L940.26 207.3C939.093 209.033 937.576 210.367 935.71 211.3C933.876 212.2 931.76 212.65 929.36 212.65C926.693 212.65 924.326 212.083 922.26 210.95C920.193 209.817 918.593 208.25 917.46 206.25C916.36 204.25 915.81 202 915.81 199.5C915.81 197.033 916.36 194.8 917.46 192.8C918.593 190.8 920.16 189.233 922.16 188.1C924.16 186.933 926.426 186.35 928.96 186.35ZM935.71 196.9C935.443 195.3 934.693 194.05 933.46 193.15C932.26 192.217 930.743 191.75 928.91 191.75C927.643 191.75 926.476 191.983 925.41 192.45C924.376 192.917 923.543 193.55 922.91 194.35C922.276 195.15 921.943 196 921.91 196.9H935.71ZM960.282 186.5L959.832 192.35C959.632 192.283 959.282 192.25 958.782 192.25C956.716 192.25 954.999 192.85 953.632 194.05C952.299 195.25 951.632 196.883 951.632 198.95V212H945.432V187H951.632V191.2C952.199 189.867 953.166 188.75 954.532 187.85C955.899 186.95 957.549 186.5 959.482 186.5H960.282ZM982.464 187H988.664V212H982.464V209.55C981.297 210.55 980.014 211.333 978.614 211.9C977.247 212.433 975.797 212.7 974.264 212.7C971.731 212.7 969.514 212.133 967.614 211C965.714 209.867 964.247 208.3 963.214 206.3C962.214 204.3 961.714 202.05 961.714 199.55C961.714 197.05 962.214 194.8 963.214 192.8C964.247 190.8 965.714 189.233 967.614 188.1C969.514 186.933 971.731 186.35 974.264 186.35C975.797 186.35 977.247 186.633 978.614 187.2C980.014 187.733 981.297 188.5 982.464 189.5V187ZM975.064 206.75C976.431 206.75 977.664 206.45 978.764 205.85C979.897 205.217 980.781 204.35 981.414 203.25C982.081 202.15 982.414 200.9 982.414 199.5C982.414 197.4 981.697 195.683 980.264 194.35C978.864 193.017 977.131 192.35 975.064 192.35C972.964 192.35 971.231 193.033 969.864 194.4C968.531 195.733 967.864 197.45 967.864 199.55C967.864 201.65 968.531 203.383 969.864 204.75C971.231 206.083 972.964 206.75 975.064 206.75ZM1027.43 177H1033.63V212H1027.43V209.6C1026.3 210.6 1025.03 211.367 1023.63 211.9C1022.23 212.433 1020.78 212.7 1019.28 212.7C1016.75 212.7 1014.53 212.133 1012.63 211C1010.73 209.867 1009.27 208.3 1008.23 206.3C1007.23 204.3 1006.73 202.05 1006.73 199.55C1006.73 197.05 1007.23 194.8 1008.23 192.8C1009.27 190.8 1010.73 189.233 1012.63 188.1C1014.53 186.933 1016.75 186.35 1019.28 186.35C1020.78 186.35 1022.22 186.633 1023.58 187.2C1024.98 187.733 1026.27 188.483 1027.43 189.45V177ZM1020.08 206.75C1021.45 206.75 1022.68 206.45 1023.78 205.85C1024.92 205.217 1025.8 204.35 1026.43 203.25C1027.1 202.15 1027.43 200.9 1027.43 199.5C1027.43 197.4 1026.72 195.683 1025.28 194.35C1023.88 193.017 1022.15 192.35 1020.08 192.35C1017.98 192.35 1016.25 193.033 1014.88 194.4C1013.55 195.733 1012.88 197.45 1012.88 199.55C1012.88 201.65 1013.55 203.383 1014.88 204.75C1016.25 206.083 1017.98 206.75 1020.08 206.75ZM1039.51 182.45V177H1045.11V182.45L1043.51 191.75H1041.16L1039.51 182.45ZM1068.89 187H1075.09V212H1068.89V209.55C1067.72 210.55 1066.44 211.333 1065.04 211.9C1063.67 212.433 1062.22 212.7 1060.69 212.7C1058.16 212.7 1055.94 212.133 1054.04 211C1052.14 209.867 1050.67 208.3 1049.64 206.3C1048.64 204.3 1048.14 202.05 1048.14 199.55C1048.14 197.05 1048.64 194.8 1049.64 192.8C1050.67 190.8 1052.14 189.233 1054.04 188.1C1055.94 186.933 1058.16 186.35 1060.69 186.35C1062.22 186.35 1063.67 186.633 1065.04 187.2C1066.44 187.733 1067.72 188.5 1068.89 189.5V187ZM1061.49 206.75C1062.86 206.75 1064.09 206.45 1065.19 205.85C1066.32 205.217 1067.21 204.35 1067.84 203.25C1068.51 202.15 1068.84 200.9 1068.84 199.5C1068.84 197.4 1068.12 195.683 1066.69 194.35C1065.29 193.017 1063.56 192.35 1061.49 192.35C1059.39 192.35 1057.66 193.033 1056.29 194.4C1054.96 195.733 1054.29 197.45 1054.29 199.55C1054.29 201.65 1054.96 203.383 1056.29 204.75C1057.66 206.083 1059.39 206.75 1061.49 206.75ZM1096.32 186.5L1095.87 192.35C1095.67 192.283 1095.32 192.25 1094.82 192.25C1092.75 192.25 1091.03 192.85 1089.67 194.05C1088.33 195.25 1087.67 196.883 1087.67 198.95V212H1081.47V187H1087.67V191.2C1088.23 189.867 1089.2 188.75 1090.57 187.85C1091.93 186.95 1093.58 186.5 1095.52 186.5H1096.32ZM1110.43 203.45C1110.43 204.583 1110.7 205.367 1111.23 205.8C1111.76 206.233 1112.61 206.45 1113.78 206.45C1114.48 206.45 1115.25 206.4 1116.08 206.3V212C1114.51 212.167 1113.21 212.25 1112.18 212.25C1109.51 212.25 1107.51 211.65 1106.18 210.45C1104.88 209.217 1104.23 207.017 1104.23 203.85V192.55H1099.53V187H1104.23V180.85L1110.43 178.75V187H1115.98V192.55H1110.43V203.45ZM1131.79 186.35C1134.19 186.35 1136.34 186.95 1138.24 188.15C1140.18 189.317 1141.68 190.9 1142.74 192.9C1143.81 194.9 1144.34 197.117 1144.34 199.55C1144.34 200.35 1144.28 201.083 1144.14 201.75H1124.84C1125.34 203.517 1126.23 204.9 1127.49 205.9C1128.76 206.867 1130.38 207.35 1132.34 207.35C1133.54 207.35 1134.69 207.083 1135.79 206.55C1136.93 206.017 1137.78 205.333 1138.34 204.5L1143.09 207.3C1141.93 209.033 1140.41 210.367 1138.54 211.3C1136.71 212.2 1134.59 212.65 1132.19 212.65C1129.53 212.65 1127.16 212.083 1125.09 210.95C1123.03 209.817 1121.43 208.25 1120.29 206.25C1119.19 204.25 1118.64 202 1118.64 199.5C1118.64 197.033 1119.19 194.8 1120.29 192.8C1121.43 190.8 1122.99 189.233 1124.99 188.1C1126.99 186.933 1129.26 186.35 1131.79 186.35ZM1138.54 196.9C1138.28 195.3 1137.53 194.05 1136.29 193.15C1135.09 192.217 1133.58 191.75 1131.74 191.75C1130.48 191.75 1129.31 191.983 1128.24 192.45C1127.21 192.917 1126.38 193.55 1125.74 194.35C1125.11 195.15 1124.78 196 1124.74 196.9H1138.54Z" fill="#4C4C4C"/>
<path d="M943.75 12.15C943.483 12.4833 943.15 12.9167 942.75 13.45C942.35 13.95 942.033 14.3833 941.8 14.75C941.033 16.05 940.017 17.55 938.75 19.25C937.483 20.9167 936.083 22.5833 934.55 24.25C933.017 25.8833 931.433 27.2833 929.8 28.45L924.6 24.3C925.6 23.7 926.583 23 927.55 22.2C928.517 21.4 929.4 20.5667 930.2 19.7C931.033 18.8 931.75 17.95 932.35 17.15C932.983 16.35 933.467 15.6333 933.8 15C933.367 15 932.633 15 931.6 15C930.567 15 929.333 15 927.9 15C926.467 15 924.917 15 923.25 15C921.617 15 919.983 15 918.35 15C916.717 15 915.167 15 913.7 15C912.267 15 911.017 15 909.95 15C908.917 15 908.183 15 907.75 15C906.717 15 905.733 15.0333 904.8 15.1C903.867 15.1667 902.817 15.25 901.65 15.35V8.4C902.617 8.53333 903.617 8.65 904.65 8.75C905.683 8.85 906.717 8.9 907.75 8.9C908.183 8.9 908.95 8.9 910.05 8.9C911.15 8.9 912.45 8.9 913.95 8.9C915.483 8.9 917.1 8.9 918.8 8.9C920.533 8.9 922.25 8.9 923.95 8.9C925.683 8.9 927.283 8.9 928.75 8.9C930.25 8.9 931.517 8.9 932.55 8.9C933.617 8.9 934.333 8.9 934.7 8.9C935.167 8.9 935.733 8.88333 936.4 8.85C937.067 8.81667 937.717 8.76667 938.35 8.7C939.017 8.63333 939.5 8.55 939.8 8.45L943.75 12.15ZM923.35 18.9C923.35 21.3667 923.3 23.75 923.2 26.05C923.1 28.35 922.817 30.5667 922.35 32.7C921.917 34.8 921.2 36.8 920.2 38.7C919.233 40.6 917.883 42.4 916.15 44.1C914.417 45.8 912.2 47.3667 909.5 48.8L903.65 44.05C904.45 43.7833 905.3 43.4333 906.2 43C907.1 42.5333 908 41.9667 908.9 41.3C910.5 40.2 911.783 39.0333 912.75 37.8C913.75 36.5667 914.517 35.2333 915.05 33.8C915.583 32.3333 915.95 30.75 916.15 29.05C916.35 27.3167 916.45 25.4333 916.45 23.4C916.45 22.6333 916.433 21.9 916.4 21.2C916.367 20.4667 916.267 19.7 916.1 18.9H923.35ZM947.621 22.85C948.221 22.8833 948.988 22.9333 949.921 23C950.855 23.0333 951.821 23.0667 952.821 23.1C953.855 23.1333 954.805 23.15 955.671 23.15C956.505 23.15 957.538 23.15 958.771 23.15C960.005 23.15 961.338 23.15 962.771 23.15C964.238 23.15 965.738 23.15 967.271 23.15C968.838 23.15 970.388 23.15 971.921 23.15C973.455 23.15 974.905 23.15 976.271 23.15C977.638 23.15 978.855 23.15 979.921 23.15C981.021 23.15 981.888 23.15 982.521 23.15C983.688 23.15 984.788 23.1167 985.821 23.05C986.855 22.95 987.705 22.8833 988.371 22.85V30.7C987.805 30.6667 986.955 30.6167 985.821 30.55C984.688 30.4833 983.588 30.45 982.521 30.45C981.888 30.45 981.021 30.45 979.921 30.45C978.821 30.45 977.588 30.45 976.221 30.45C974.855 30.45 973.405 30.45 971.871 30.45C970.371 30.45 968.838 30.45 967.271 30.45C965.705 30.45 964.188 30.45 962.721 30.45C961.288 30.45 959.955 30.45 958.721 30.45C957.521 30.45 956.505 30.45 955.671 30.45C954.238 30.45 952.771 30.4833 951.271 30.55C949.771 30.5833 948.555 30.6333 947.621 30.7V22.85ZM1008.72 41.2C1008.72 40.5667 1008.72 39.5333 1008.72 38.1C1008.72 36.6333 1008.72 34.95 1008.72 33.05C1008.72 31.1167 1008.72 29.1 1008.72 27C1008.72 24.9 1008.72 22.8833 1008.72 20.95C1008.72 18.9833 1008.72 17.25 1008.72 15.75C1008.72 14.25 1008.72 13.15 1008.72 12.45C1008.72 11.5833 1008.67 10.5833 1008.57 9.45C1008.5 8.31667 1008.39 7.31667 1008.22 6.45H1016.02C1015.92 7.31667 1015.82 8.28333 1015.72 9.35C1015.62 10.3833 1015.57 11.4167 1015.57 12.45C1015.57 13.3833 1015.57 14.65 1015.57 16.25C1015.57 17.85 1015.57 19.6333 1015.57 21.6C1015.57 23.5333 1015.57 25.5167 1015.57 27.55C1015.57 29.55 1015.57 31.4833 1015.57 33.35C1015.57 35.2167 1015.57 36.85 1015.57 38.25C1015.57 39.6167 1015.57 40.6 1015.57 41.2C1015.57 41.6667 1015.59 42.3333 1015.62 43.2C1015.65 44.0333 1015.72 44.9 1015.82 45.8C1015.92 46.7 1015.99 47.5 1016.02 48.2H1008.22C1008.35 47.2 1008.47 46.0333 1008.57 44.7C1008.67 43.3667 1008.72 42.2 1008.72 41.2ZM1014.07 19.4C1015.74 19.8333 1017.6 20.4 1019.67 21.1C1021.74 21.7667 1023.82 22.4833 1025.92 23.25C1028.02 24.0167 1029.99 24.7833 1031.82 25.55C1033.69 26.2833 1035.24 26.9667 1036.47 27.6L1033.62 34.5C1032.22 33.7667 1030.67 33.0333 1028.97 32.3C1027.27 31.5333 1025.54 30.8 1023.77 30.1C1022.04 29.4 1020.32 28.75 1018.62 28.15C1016.95 27.55 1015.44 27.0167 1014.07 26.55V19.4ZM1088.12 12.5C1088.05 12.7333 1087.95 13.0833 1087.82 13.55C1087.69 13.9833 1087.57 14.4167 1087.47 14.85C1087.37 15.2833 1087.29 15.6167 1087.22 15.85C1086.92 17.5833 1086.55 19.5167 1086.12 21.65C1085.72 23.75 1085.14 25.9 1084.37 28.1C1083.64 30.3 1082.6 32.4 1081.27 34.4C1079.2 37.6667 1076.52 40.5333 1073.22 43C1069.95 45.4333 1066.32 47.35 1062.32 48.75L1056.72 43.05C1058.99 42.4833 1061.27 41.6667 1063.57 40.6C1065.9 39.5 1068.09 38.15 1070.12 36.55C1072.15 34.9167 1073.82 33.0667 1075.12 31C1075.99 29.6333 1076.72 28.1333 1077.32 26.5C1077.92 24.8667 1078.42 23.1667 1078.82 21.4C1079.22 19.6 1079.5 17.8 1079.67 16C1079.24 16 1078.54 16 1077.57 16C1076.6 16 1075.47 16 1074.17 16C1072.87 16 1071.49 16 1070.02 16C1068.55 16 1067.09 16 1065.62 16C1064.15 16 1062.75 16 1061.42 16C1060.12 16 1058.95 16 1057.92 16C1056.92 16 1056.17 16 1055.67 16C1055.67 16.3333 1055.67 16.7667 1055.67 17.3C1055.67 17.8 1055.67 18.3833 1055.67 19.05C1055.67 19.6833 1055.67 20.3333 1055.67 21C1055.67 21.6333 1055.67 22.25 1055.67 22.85C1055.67 23.4167 1055.67 23.9167 1055.67 24.35C1055.67 24.7167 1055.67 25.3 1055.67 26.1C1055.7 26.8667 1055.77 27.65 1055.87 28.45H1048.52C1048.59 27.65 1048.64 26.9333 1048.67 26.3C1048.74 25.6667 1048.77 25.0167 1048.77 24.35C1048.77 23.85 1048.77 23.1333 1048.77 22.2C1048.77 21.2667 1048.77 20.2667 1048.77 19.2C1048.77 18.1 1048.77 17.0667 1048.77 16.1C1048.77 15.1333 1048.77 14.3667 1048.77 13.8C1048.77 13.1 1048.74 12.4 1048.67 11.7C1048.64 10.9667 1048.59 10.2667 1048.52 9.6C1049.32 9.63333 1050.25 9.68333 1051.32 9.75C1052.39 9.78333 1053.5 9.8 1054.67 9.8C1054.94 9.8 1055.5 9.8 1056.37 9.8C1057.27 9.8 1058.35 9.8 1059.62 9.8C1060.89 9.8 1062.27 9.8 1063.77 9.8C1065.27 9.8 1066.77 9.8 1068.27 9.8C1069.8 9.8 1071.25 9.8 1072.62 9.8C1073.99 9.8 1075.19 9.8 1076.22 9.8C1077.25 9.8 1078.04 9.8 1078.57 9.8C1079.4 9.8 1080.22 9.76667 1081.02 9.7C1081.85 9.63333 1082.6 9.55 1083.27 9.45L1088.12 12.5ZM1097.62 22.85C1098.22 22.8833 1098.99 22.9333 1099.92 23C1100.85 23.0333 1101.82 23.0667 1102.82 23.1C1103.85 23.1333 1104.8 23.15 1105.67 23.15C1106.5 23.15 1107.54 23.15 1108.77 23.15C1110 23.15 1111.34 23.15 1112.77 23.15C1114.24 23.15 1115.74 23.15 1117.27 23.15C1118.84 23.15 1120.39 23.15 1121.92 23.15C1123.45 23.15 1124.9 23.15 1126.27 23.15C1127.64 23.15 1128.85 23.15 1129.92 23.15C1131.02 23.15 1131.89 23.15 1132.52 23.15C1133.69 23.15 1134.79 23.1167 1135.82 23.05C1136.85 22.95 1137.7 22.8833 1138.37 22.85V30.7C1137.8 30.6667 1136.95 30.6167 1135.82 30.55C1134.69 30.4833 1133.59 30.45 1132.52 30.45C1131.89 30.45 1131.02 30.45 1129.92 30.45C1128.82 30.45 1127.59 30.45 1126.22 30.45C1124.85 30.45 1123.4 30.45 1121.87 30.45C1120.37 30.45 1118.84 30.45 1117.27 30.45C1115.7 30.45 1114.19 30.45 1112.72 30.45C1111.29 30.45 1109.95 30.45 1108.72 30.45C1107.52 30.45 1106.5 30.45 1105.67 30.45C1104.24 30.45 1102.77 30.4833 1101.27 30.55C1099.77 30.5833 1098.55 30.6333 1097.62 30.7V22.85ZM1187.97 14.9C1187.7 15.3667 1187.42 15.9333 1187.12 16.6C1186.82 17.2333 1186.55 17.8667 1186.32 18.5C1185.89 19.9667 1185.27 21.65 1184.47 23.55C1183.7 25.4167 1182.74 27.3667 1181.57 29.4C1180.44 31.4 1179.12 33.3333 1177.62 35.2C1175.22 38.0667 1172.42 40.6667 1169.22 43C1166.05 45.3333 1162.12 47.4333 1157.42 49.3L1151.52 44C1154.92 43 1157.85 41.85 1160.32 40.55C1162.79 39.25 1164.94 37.8667 1166.77 36.4C1168.6 34.9 1170.24 33.3167 1171.67 31.65C1172.84 30.35 1173.9 28.8833 1174.87 27.25C1175.84 25.5833 1176.67 23.9333 1177.37 22.3C1178.07 20.6667 1178.54 19.2333 1178.77 18H1161.92L1164.22 12.35C1164.69 12.35 1165.4 12.35 1166.37 12.35C1167.37 12.35 1168.49 12.35 1169.72 12.35C1170.99 12.35 1172.22 12.35 1173.42 12.35C1174.65 12.35 1175.72 12.35 1176.62 12.35C1177.55 12.35 1178.19 12.35 1178.52 12.35C1179.29 12.35 1180.05 12.3 1180.82 12.2C1181.62 12.1 1182.3 11.95 1182.87 11.75L1187.97 14.9ZM1171.67 7C1171.07 7.86667 1170.49 8.8 1169.92 9.8C1169.35 10.8 1168.92 11.5667 1168.62 12.1C1167.49 14.1 1166.09 16.1833 1164.42 18.35C1162.79 20.4833 1160.92 22.5667 1158.82 24.6C1156.72 26.6 1154.49 28.4333 1152.12 30.1L1146.47 25.95C1148.67 24.5833 1150.6 23.1833 1152.27 21.75C1153.97 20.3167 1155.44 18.9 1156.67 17.5C1157.9 16.0667 1158.95 14.7 1159.82 13.4C1160.72 12.0667 1161.49 10.8833 1162.12 9.85C1162.52 9.21666 1162.94 8.4 1163.37 7.4C1163.8 6.36667 1164.14 5.43333 1164.37 4.6L1171.67 7Z" fill="#4C4C4C"/>
</svg>
