<svg width="854" height="162" viewBox="0 0 854 162" fill="none" xmlns="http://www.w3.org/2000/svg">
<path d="M269.8 21H276V46H269.8V43.55C268.633 44.55 267.35 45.3333 265.95 45.9C264.583 46.4333 263.133 46.7 261.6 46.7C259.067 46.7 256.85 46.1333 254.95 45C253.05 43.8667 251.583 42.3 250.55 40.3C249.55 38.3 249.05 36.05 249.05 33.55C249.05 31.05 249.55 28.8 250.55 26.8C251.583 24.8 253.05 23.2333 254.95 22.1C256.85 20.9333 259.067 20.35 261.6 20.35C263.133 20.35 264.583 20.6333 265.95 21.2C267.35 21.7333 268.633 22.5 269.8 23.5V21ZM262.4 40.75C263.767 40.75 265 40.45 266.1 39.85C267.233 39.2167 268.117 38.35 268.75 37.25C269.417 36.15 269.75 34.9 269.75 33.5C269.75 31.4 269.033 29.6833 267.6 28.35C266.2 27.0167 264.467 26.35 262.4 26.35C260.3 26.35 258.567 27.0333 257.2 28.4C255.867 29.7333 255.2 31.45 255.2 33.55C255.2 35.65 255.867 37.3833 257.2 38.75C258.567 40.0833 260.3 40.75 262.4 40.75ZM297.228 20.5L296.778 26.35C296.578 26.2833 296.228 26.25 295.728 26.25C293.661 26.25 291.944 26.85 290.578 28.05C289.244 29.25 288.578 30.8833 288.578 32.95V46H282.378V21H288.578V25.2C289.144 23.8667 290.111 22.75 291.478 21.85C292.844 20.95 294.494 20.5 296.428 20.5H297.228ZM311.34 37.45C311.34 38.5833 311.607 39.3667 312.14 39.8C312.674 40.2333 313.524 40.45 314.69 40.45C315.39 40.45 316.157 40.4 316.99 40.3V46C315.424 46.1667 314.124 46.25 313.09 46.25C310.424 46.25 308.424 45.65 307.09 44.45C305.79 43.2167 305.14 41.0167 305.14 37.85V26.55H300.44V21H305.14V14.85L311.34 12.75V21H316.89V26.55H311.34V37.45ZM346.418 36.15L351.068 21H357.568L349.468 46H343.318L338.618 31.15L333.918 46H327.868L319.968 21H326.418L330.918 36.05L335.318 21H341.918L346.418 36.15ZM371.569 46.7C369.202 46.7 367.002 46.1167 364.969 44.95C362.969 43.75 361.369 42.15 360.169 40.15C359.002 38.1167 358.419 35.9167 358.419 33.55C358.419 31.1833 359.002 29 360.169 27C361.369 24.9667 362.969 23.3667 364.969 22.2C367.002 21 369.202 20.4 371.569 20.4C373.936 20.4 376.119 21 378.119 22.2C380.152 23.3667 381.752 24.9667 382.919 27C384.119 29 384.719 31.1833 384.719 33.55C384.719 35.9167 384.119 38.1167 382.919 40.15C381.752 42.15 380.152 43.75 378.119 44.95C376.119 46.1167 373.936 46.7 371.569 46.7ZM371.519 40.5C372.786 40.5 373.952 40.2 375.019 39.6C376.086 38.9667 376.936 38.1167 377.569 37.05C378.202 35.9833 378.519 34.8167 378.519 33.55C378.519 32.2833 378.202 31.1167 377.569 30.05C376.936 28.9833 376.086 28.1333 375.019 27.5C373.952 26.8667 372.786 26.55 371.519 26.55C370.252 26.55 369.086 26.8667 368.019 27.5C366.952 28.1333 366.102 28.9833 365.469 30.05C364.869 31.1167 364.569 32.2833 364.569 33.55C364.569 34.8167 364.869 35.9833 365.469 37.05C366.102 38.1167 366.952 38.9667 368.019 39.6C369.086 40.2 370.252 40.5 371.519 40.5ZM403.527 20.5L403.077 26.35C402.877 26.2833 402.527 26.25 402.027 26.25C399.96 26.25 398.243 26.85 396.877 28.05C395.543 29.25 394.877 30.8833 394.877 32.95V46H388.677V21H394.877V25.2C395.443 23.8667 396.41 22.75 397.777 21.85C399.143 20.95 400.793 20.5 402.727 20.5H403.527ZM432.271 46H424.521L417.521 36.65L413.871 40.65V46H407.671V11H413.871V31.55L423.271 21H431.921L421.721 32.1L432.271 46ZM468.383 11H474.583V46H468.383V43.6C467.249 44.6 465.983 45.3667 464.583 45.9C463.183 46.4333 461.733 46.7 460.233 46.7C457.699 46.7 455.483 46.1333 453.583 45C451.683 43.8667 450.216 42.3 449.183 40.3C448.183 38.3 447.683 36.05 447.683 33.55C447.683 31.05 448.183 28.8 449.183 26.8C450.216 24.8 451.683 23.2333 453.583 22.1C455.483 20.9333 457.699 20.35 460.233 20.35C461.733 20.35 463.166 20.6333 464.533 21.2C465.933 21.7333 467.216 22.4833 468.383 23.45V11ZM461.033 40.75C462.399 40.75 463.633 40.45 464.733 39.85C465.866 39.2167 466.749 38.35 467.383 37.25C468.049 36.15 468.383 34.9 468.383 33.5C468.383 31.4 467.666 29.6833 466.233 28.35C464.833 27.0167 463.099 26.35 461.033 26.35C458.933 26.35 457.199 27.0333 455.833 28.4C454.499 29.7333 453.833 31.45 453.833 33.55C453.833 35.65 454.499 37.3833 455.833 38.75C457.199 40.0833 458.933 40.75 461.033 40.75ZM491.735 20.35C494.135 20.35 496.285 20.95 498.185 22.15C500.118 23.3167 501.618 24.9 502.685 26.9C503.752 28.9 504.285 31.1167 504.285 33.55C504.285 34.35 504.218 35.0833 504.085 35.75H484.785C485.285 37.5167 486.168 38.9 487.435 39.9C488.702 40.8667 490.318 41.35 492.285 41.35C493.485 41.35 494.635 41.0833 495.735 40.55C496.868 40.0167 497.718 39.3333 498.285 38.5L503.035 41.3C501.868 43.0333 500.352 44.3667 498.485 45.3C496.652 46.2 494.535 46.65 492.135 46.65C489.468 46.65 487.102 46.0833 485.035 44.95C482.968 43.8167 481.368 42.25 480.235 40.25C479.135 38.25 478.585 36 478.585 33.5C478.585 31.0333 479.135 28.8 480.235 26.8C481.368 24.8 482.935 23.2333 484.935 22.1C486.935 20.9333 489.202 20.35 491.735 20.35ZM498.485 30.9C498.218 29.3 497.468 28.05 496.235 27.15C495.035 26.2167 493.518 25.75 491.685 25.75C490.418 25.75 489.252 25.9833 488.185 26.45C487.152 26.9167 486.318 27.55 485.685 28.35C485.052 29.15 484.718 30 484.685 30.9H498.485ZM516.614 37.45C516.614 38.5833 516.88 39.3667 517.414 39.8C517.947 40.2333 518.797 40.45 519.964 40.45C520.664 40.45 521.43 40.4 522.264 40.3V46C520.697 46.1667 519.397 46.25 518.364 46.25C515.697 46.25 513.697 45.65 512.364 44.45C511.064 43.2167 510.414 41.0167 510.414 37.85V26.55H505.714V21H510.414V14.85L516.614 12.75V21H522.164V26.55H516.614V37.45ZM546.021 21H552.221V46H546.021V43.55C544.854 44.55 543.571 45.3333 542.171 45.9C540.804 46.4333 539.354 46.7 537.821 46.7C535.287 46.7 533.071 46.1333 531.171 45C529.271 43.8667 527.804 42.3 526.771 40.3C525.771 38.3 525.271 36.05 525.271 33.55C525.271 31.05 525.771 28.8 526.771 26.8C527.804 24.8 529.271 23.2333 531.171 22.1C533.071 20.9333 535.287 20.35 537.821 20.35C539.354 20.35 540.804 20.6333 542.171 21.2C543.571 21.7333 544.854 22.5 546.021 23.5V21ZM538.621 40.75C539.987 40.75 541.221 40.45 542.321 39.85C543.454 39.2167 544.337 38.35 544.971 37.25C545.637 36.15 545.971 34.9 545.971 33.5C545.971 31.4 545.254 29.6833 543.821 28.35C542.421 27.0167 540.687 26.35 538.621 26.35C536.521 26.35 534.787 27.0333 533.421 28.4C532.087 29.7333 531.421 31.45 531.421 33.55C531.421 35.65 532.087 37.3833 533.421 38.75C534.787 40.0833 536.521 40.75 538.621 40.75ZM561.798 16.85C560.632 16.85 559.715 16.5333 559.048 15.9C558.382 15.2667 558.048 14.4 558.048 13.3C558.048 12.1667 558.382 11.2833 559.048 10.65C559.715 10.0167 560.632 9.7 561.798 9.7C562.965 9.7 563.882 10.0167 564.548 10.65C565.215 11.2833 565.548 12.1667 565.548 13.3C565.548 14.3667 565.198 15.2333 564.498 15.9C563.832 16.5333 562.932 16.85 561.798 16.85ZM558.648 46V21H564.848V46H558.648ZM577.25 38.95C577.25 39.4833 577.383 39.8667 577.65 40.1C577.916 40.3333 578.333 40.45 578.9 40.45C579.333 40.45 579.85 40.4 580.45 40.3V46C579.216 46.2 578.066 46.3 577 46.3C575.066 46.3 573.583 45.8 572.55 44.8C571.55 43.7667 571.05 41.95 571.05 39.35V11H577.25V38.95ZM590.561 28C590.561 28.7 590.944 29.2333 591.711 29.6C592.511 29.9333 593.761 30.2833 595.461 30.65C597.394 31.05 599.011 31.5 600.311 32C601.611 32.5 602.728 33.3 603.661 34.4C604.628 35.4667 605.111 36.9167 605.111 38.75C605.111 40.3833 604.611 41.8 603.611 43C602.644 44.2 601.344 45.1167 599.711 45.75C598.078 46.35 596.294 46.65 594.361 46.65C591.728 46.65 589.461 46.15 587.561 45.15C585.694 44.15 584.311 42.7167 583.411 40.85L588.511 38.2C589.411 40.5 591.361 41.65 594.361 41.65C595.661 41.65 596.778 41.4 597.711 40.9C598.644 40.4 599.111 39.6833 599.111 38.75C599.111 37.95 598.678 37.3667 597.811 37C596.978 36.6 595.611 36.1667 593.711 35.7C591.744 35.2333 590.144 34.7667 588.911 34.3C587.678 33.8333 586.611 33.1167 585.711 32.15C584.811 31.15 584.361 29.8333 584.361 28.2C584.361 26.6 584.811 25.2167 585.711 24.05C586.611 22.85 587.828 21.9333 589.361 21.3C590.894 20.6667 592.578 20.35 594.411 20.35C596.578 20.35 598.511 20.8 600.211 21.7C601.944 22.6 603.278 23.8833 604.211 25.55L599.161 28.1C598.294 26.2333 596.711 25.3 594.411 25.3C593.244 25.3 592.311 25.55 591.611 26.05C590.911 26.5167 590.561 27.1667 590.561 28Z" fill="#E6E8EB"/>
<path d="M62.397 74C63.2236 74 63.9903 74.2067 64.697 74.62C65.4036 75.02 65.957 75.5733 66.357 76.28C66.7703 76.9867 66.977 77.7533 66.977 78.58C66.977 79.4067 66.7703 80.1733 66.357 80.88C65.957 81.5733 65.4036 82.1267 64.697 82.54C63.9903 82.9533 63.2236 83.16 62.397 83.16H59.917V88H57.297V74H62.397ZM62.397 80.66C62.9703 80.66 63.457 80.46 63.857 80.06C64.2703 79.6467 64.477 79.1533 64.477 78.58C64.477 78.0067 64.2703 77.5133 63.857 77.1C63.457 76.6867 62.9703 76.48 62.397 76.48H59.917V80.66H62.397ZM74.6985 77.8L74.5185 80.14C74.4385 80.1133 74.2985 80.1 74.0985 80.1C73.2718 80.1 72.5852 80.34 72.0385 80.82C71.5052 81.3 71.2385 81.9533 71.2385 82.78V88H68.7585V78H71.2385V79.68C71.4652 79.1467 71.8518 78.7 72.3985 78.34C72.9452 77.98 73.6052 77.8 74.3785 77.8H74.6985ZM80.4312 88.28C79.4845 88.28 78.6045 88.0467 77.7912 87.58C76.9912 87.1 76.3512 86.46 75.8712 85.66C75.4045 84.8467 75.1712 83.9667 75.1712 83.02C75.1712 82.0733 75.4045 81.2 75.8712 80.4C76.3512 79.5867 76.9912 78.9467 77.7912 78.48C78.6045 78 79.4845 77.76 80.4312 77.76C81.3778 77.76 82.2512 78 83.0512 78.48C83.8645 78.9467 84.5045 79.5867 84.9712 80.4C85.4512 81.2 85.6912 82.0733 85.6912 83.02C85.6912 83.9667 85.4512 84.8467 84.9712 85.66C84.5045 86.46 83.8645 87.1 83.0512 87.58C82.2512 88.0467 81.3778 88.28 80.4312 88.28ZM80.4112 85.8C80.9178 85.8 81.3845 85.68 81.8112 85.44C82.2378 85.1867 82.5778 84.8467 82.8312 84.42C83.0845 83.9933 83.2112 83.5267 83.2112 83.02C83.2112 82.5133 83.0845 82.0467 82.8312 81.62C82.5778 81.1933 82.2378 80.8533 81.8112 80.6C81.3845 80.3467 80.9178 80.22 80.4112 80.22C79.9045 80.22 79.4378 80.3467 79.0112 80.6C78.5845 80.8533 78.2445 81.1933 77.9912 81.62C77.7512 82.0467 77.6312 82.5133 77.6312 83.02C77.6312 83.5267 77.7512 83.9933 77.9912 84.42C78.2445 84.8467 78.5845 85.1867 79.0112 85.44C79.4378 85.68 79.9045 85.8 80.4112 85.8ZM91.1393 85L93.7593 78H96.3793L92.6593 88H89.6193L85.8993 78H88.5193L91.1393 85ZM99.062 76.34C98.5953 76.34 98.2286 76.2133 97.962 75.96C97.6953 75.7067 97.562 75.36 97.562 74.92C97.562 74.4667 97.6953 74.1133 97.962 73.86C98.2286 73.6067 98.5953 73.48 99.062 73.48C99.5286 73.48 99.8953 73.6067 100.162 73.86C100.429 74.1133 100.562 74.4667 100.562 74.92C100.562 75.3467 100.422 75.6933 100.142 75.96C99.8753 76.2133 99.5153 76.34 99.062 76.34ZM97.802 88V78H100.282V88H97.802ZM110.192 74H112.672V88H110.192V87.04C109.738 87.44 109.232 87.7467 108.672 87.96C108.112 88.1733 107.532 88.28 106.932 88.28C105.918 88.28 105.032 88.0533 104.272 87.6C103.512 87.1467 102.925 86.52 102.512 85.72C102.112 84.92 101.912 84.02 101.912 83.02C101.912 82.02 102.112 81.12 102.512 80.32C102.925 79.52 103.512 78.8933 104.272 78.44C105.032 77.9733 105.918 77.74 106.932 77.74C107.532 77.74 108.105 77.8533 108.652 78.08C109.212 78.2933 109.725 78.5933 110.192 78.98V74ZM107.252 85.9C107.798 85.9 108.292 85.78 108.732 85.54C109.185 85.2867 109.538 84.94 109.792 84.5C110.058 84.06 110.192 83.56 110.192 83C110.192 82.16 109.905 81.4733 109.332 80.94C108.772 80.4067 108.078 80.14 107.252 80.14C106.412 80.14 105.718 80.4133 105.172 80.96C104.638 81.4933 104.372 82.18 104.372 83.02C104.372 83.86 104.638 84.5533 105.172 85.1C105.718 85.6333 106.412 85.9 107.252 85.9ZM119.533 77.74C120.493 77.74 121.353 77.98 122.113 78.46C122.886 78.9267 123.486 79.56 123.913 80.36C124.339 81.16 124.553 82.0467 124.553 83.02C124.553 83.34 124.526 83.6333 124.473 83.9H116.753C116.953 84.6067 117.306 85.16 117.813 85.56C118.319 85.9467 118.966 86.14 119.753 86.14C120.233 86.14 120.693 86.0333 121.133 85.82C121.586 85.6067 121.926 85.3333 122.153 85L124.053 86.12C123.586 86.8133 122.979 87.3467 122.233 87.72C121.499 88.08 120.653 88.26 119.693 88.26C118.626 88.26 117.679 88.0333 116.853 87.58C116.026 87.1267 115.386 86.5 114.933 85.7C114.493 84.9 114.273 84 114.273 83C114.273 82.0133 114.493 81.12 114.933 80.32C115.386 79.52 116.013 78.8933 116.813 78.44C117.613 77.9733 118.519 77.74 119.533 77.74ZM122.233 81.96C122.126 81.32 121.826 80.82 121.333 80.46C120.853 80.0867 120.246 79.9 119.513 79.9C119.006 79.9 118.539 79.9933 118.113 80.18C117.699 80.3667 117.366 80.62 117.113 80.94C116.859 81.26 116.726 81.6 116.713 81.96H122.233ZM139.469 74H141.949V88H139.469V87.04C139.016 87.44 138.509 87.7467 137.949 87.96C137.389 88.1733 136.809 88.28 136.209 88.28C135.196 88.28 134.309 88.0533 133.549 87.6C132.789 87.1467 132.202 86.52 131.789 85.72C131.389 84.92 131.189 84.02 131.189 83.02C131.189 82.02 131.389 81.12 131.789 80.32C132.202 79.52 132.789 78.8933 133.549 78.44C134.309 77.9733 135.196 77.74 136.209 77.74C136.809 77.74 137.382 77.8533 137.929 78.08C138.489 78.2933 139.002 78.5933 139.469 78.98V74ZM136.529 85.9C137.076 85.9 137.569 85.78 138.009 85.54C138.462 85.2867 138.816 84.94 139.069 84.5C139.336 84.06 139.469 83.56 139.469 83C139.469 82.16 139.182 81.4733 138.609 80.94C138.049 80.4067 137.356 80.14 136.529 80.14C135.689 80.14 134.996 80.4133 134.449 80.96C133.916 81.4933 133.649 82.18 133.649 83.02C133.649 83.86 133.916 84.5533 134.449 85.1C134.996 85.6333 135.689 85.9 136.529 85.9ZM148.81 77.74C149.77 77.74 150.63 77.98 151.39 78.46C152.163 78.9267 152.763 79.56 153.19 80.36C153.617 81.16 153.83 82.0467 153.83 83.02C153.83 83.34 153.803 83.6333 153.75 83.9H146.03C146.23 84.6067 146.583 85.16 147.09 85.56C147.597 85.9467 148.243 86.14 149.03 86.14C149.51 86.14 149.97 86.0333 150.41 85.82C150.863 85.6067 151.203 85.3333 151.43 85L153.33 86.12C152.863 86.8133 152.257 87.3467 151.51 87.72C150.777 88.08 149.93 88.26 148.97 88.26C147.903 88.26 146.957 88.0333 146.13 87.58C145.303 87.1267 144.663 86.5 144.21 85.7C143.77 84.9 143.55 84 143.55 83C143.55 82.0133 143.77 81.12 144.21 80.32C144.663 79.52 145.29 78.8933 146.09 78.44C146.89 77.9733 147.797 77.74 148.81 77.74ZM151.51 81.96C151.403 81.32 151.103 80.82 150.61 80.46C150.13 80.0867 149.523 79.9 148.79 79.9C148.283 79.9 147.817 79.9933 147.39 80.18C146.977 80.3667 146.643 80.62 146.39 80.94C146.137 81.26 146.003 81.6 145.99 81.96H151.51ZM158.761 84.58C158.761 85.0333 158.868 85.3467 159.081 85.52C159.295 85.6933 159.635 85.78 160.101 85.78C160.381 85.78 160.688 85.76 161.021 85.72V88C160.395 88.0667 159.875 88.1 159.461 88.1C158.395 88.1 157.595 87.86 157.061 87.38C156.541 86.8867 156.281 86.0067 156.281 84.74V80.22H154.401V78H156.281V75.54L158.761 74.7V78H160.981V80.22H158.761V84.58ZM170.524 78H173.004V88H170.524V87.02C170.058 87.42 169.544 87.7333 168.984 87.96C168.438 88.1733 167.858 88.28 167.244 88.28C166.231 88.28 165.344 88.0533 164.584 87.6C163.824 87.1467 163.238 86.52 162.824 85.72C162.424 84.92 162.224 84.02 162.224 83.02C162.224 82.02 162.424 81.12 162.824 80.32C163.238 79.52 163.824 78.8933 164.584 78.44C165.344 77.9733 166.231 77.74 167.244 77.74C167.858 77.74 168.438 77.8533 168.984 78.08C169.544 78.2933 170.058 78.6 170.524 79V78ZM167.564 85.9C168.111 85.9 168.604 85.78 169.044 85.54C169.498 85.2867 169.851 84.94 170.104 84.5C170.371 84.06 170.504 83.56 170.504 83C170.504 82.16 170.218 81.4733 169.644 80.94C169.084 80.4067 168.391 80.14 167.564 80.14C166.724 80.14 166.031 80.4133 165.484 80.96C164.951 81.4933 164.684 82.18 164.684 83.02C164.684 83.86 164.951 84.5533 165.484 85.1C166.031 85.6333 166.724 85.9 167.564 85.9ZM176.835 76.34C176.369 76.34 176.002 76.2133 175.735 75.96C175.469 75.7067 175.335 75.36 175.335 74.92C175.335 74.4667 175.469 74.1133 175.735 73.86C176.002 73.6067 176.369 73.48 176.835 73.48C177.302 73.48 177.669 73.6067 177.935 73.86C178.202 74.1133 178.335 74.4667 178.335 74.92C178.335 75.3467 178.195 75.6933 177.915 75.96C177.649 76.2133 177.289 76.34 176.835 76.34ZM175.575 88V78H178.055V88H175.575ZM183.016 85.18C183.016 85.3933 183.069 85.5467 183.176 85.64C183.283 85.7333 183.449 85.78 183.676 85.78C183.849 85.78 184.056 85.76 184.296 85.72V88C183.803 88.08 183.343 88.12 182.916 88.12C182.143 88.12 181.549 87.92 181.136 87.52C180.736 87.1067 180.536 86.38 180.536 85.34V74H183.016V85.18ZM190.392 77.74C191.352 77.74 192.212 77.98 192.972 78.46C193.745 78.9267 194.345 79.56 194.772 80.36C195.199 81.16 195.412 82.0467 195.412 83.02C195.412 83.34 195.385 83.6333 195.332 83.9H187.612C187.812 84.6067 188.165 85.16 188.672 85.56C189.179 85.9467 189.825 86.14 190.612 86.14C191.092 86.14 191.552 86.0333 191.992 85.82C192.445 85.6067 192.785 85.3333 193.012 85L194.912 86.12C194.445 86.8133 193.839 87.3467 193.092 87.72C192.359 88.08 191.512 88.26 190.552 88.26C189.485 88.26 188.539 88.0333 187.712 87.58C186.885 87.1267 186.245 86.5 185.792 85.7C185.352 84.9 185.132 84 185.132 83C185.132 82.0133 185.352 81.12 185.792 80.32C186.245 79.52 186.872 78.8933 187.672 78.44C188.472 77.9733 189.379 77.74 190.392 77.74ZM193.092 81.96C192.985 81.32 192.685 80.82 192.192 80.46C191.712 80.0867 191.105 79.9 190.372 79.9C189.865 79.9 189.399 79.9933 188.972 80.18C188.559 80.3667 188.225 80.62 187.972 80.94C187.719 81.26 187.585 81.6 187.572 81.96H193.092ZM204.801 74H207.281V88H204.801V87.04C204.348 87.44 203.841 87.7467 203.281 87.96C202.721 88.1733 202.141 88.28 201.541 88.28C200.528 88.28 199.641 88.0533 198.881 87.6C198.121 87.1467 197.535 86.52 197.121 85.72C196.721 84.92 196.521 84.02 196.521 83.02C196.521 82.02 196.721 81.12 197.121 80.32C197.535 79.52 198.121 78.8933 198.881 78.44C199.641 77.9733 200.528 77.74 201.541 77.74C202.141 77.74 202.715 77.8533 203.261 78.08C203.821 78.2933 204.335 78.5933 204.801 78.98V74ZM201.861 85.9C202.408 85.9 202.901 85.78 203.341 85.54C203.795 85.2867 204.148 84.94 204.401 84.5C204.668 84.06 204.801 83.56 204.801 83C204.801 82.16 204.515 81.4733 203.941 80.94C203.381 80.4067 202.688 80.14 201.861 80.14C201.021 80.14 200.328 80.4133 199.781 80.96C199.248 81.4933 198.981 82.18 198.981 83.02C198.981 83.86 199.248 84.5533 199.781 85.1C200.328 85.6333 201.021 85.9 201.861 85.9ZM216.249 76.34C215.783 76.34 215.416 76.2133 215.149 75.96C214.883 75.7067 214.749 75.36 214.749 74.92C214.749 74.4667 214.883 74.1133 215.149 73.86C215.416 73.6067 215.783 73.48 216.249 73.48C216.716 73.48 217.083 73.6067 217.349 73.86C217.616 74.1133 217.749 74.4667 217.749 74.92C217.749 75.3467 217.609 75.6933 217.329 75.96C217.063 76.2133 216.703 76.34 216.249 76.34ZM214.989 88V78H217.469V88H214.989ZM225.03 77.74C225.617 77.74 226.21 77.8667 226.81 78.12C227.423 78.36 227.943 78.8 228.37 79.44C228.81 80.08 229.03 80.94 229.03 82.02V88H226.55V82.02C226.55 81.2733 226.337 80.74 225.91 80.42C225.497 80.0867 225.01 79.92 224.45 79.92C223.89 79.92 223.41 80.12 223.01 80.52C222.623 80.9067 222.43 81.5333 222.43 82.4V88H219.95V78H222.43V78.84C222.79 78.5067 223.19 78.24 223.63 78.04C224.07 77.84 224.537 77.74 225.03 77.74ZM236.975 76.1C236.642 76.06 236.342 76.04 236.075 76.04C235.609 76.04 235.269 76.1267 235.055 76.3C234.842 76.4733 234.735 76.7933 234.735 77.26V78H236.955V80.22H234.735V88H232.255V80.22H230.595V78H232.255V77.1C232.255 75.8333 232.515 74.96 233.035 74.48C233.555 73.9867 234.342 73.74 235.395 73.74C235.809 73.74 236.335 73.7733 236.975 73.84V76.1ZM242.736 88.28C241.789 88.28 240.909 88.0467 240.096 87.58C239.296 87.1 238.656 86.46 238.176 85.66C237.709 84.8467 237.476 83.9667 237.476 83.02C237.476 82.0733 237.709 81.2 238.176 80.4C238.656 79.5867 239.296 78.9467 240.096 78.48C240.909 78 241.789 77.76 242.736 77.76C243.683 77.76 244.556 78 245.356 78.48C246.169 78.9467 246.809 79.5867 247.276 80.4C247.756 81.2 247.996 82.0733 247.996 83.02C247.996 83.9667 247.756 84.8467 247.276 85.66C246.809 86.46 246.169 87.1 245.356 87.58C244.556 88.0467 243.683 88.28 242.736 88.28ZM242.716 85.8C243.223 85.8 243.689 85.68 244.116 85.44C244.543 85.1867 244.883 84.8467 245.136 84.42C245.389 83.9933 245.516 83.5267 245.516 83.02C245.516 82.5133 245.389 82.0467 245.136 81.62C244.883 81.1933 244.543 80.8533 244.116 80.6C243.689 80.3467 243.223 80.22 242.716 80.22C242.209 80.22 241.743 80.3467 241.316 80.6C240.889 80.8533 240.549 81.1933 240.296 81.62C240.056 82.0467 239.936 82.5133 239.936 83.02C239.936 83.5267 240.056 83.9933 240.296 84.42C240.549 84.8467 240.889 85.1867 241.316 85.44C241.743 85.68 242.209 85.8 242.716 85.8ZM255.519 77.8L255.339 80.14C255.259 80.1133 255.119 80.1 254.919 80.1C254.092 80.1 253.405 80.34 252.859 80.82C252.325 81.3 252.059 81.9533 252.059 82.78V88H249.579V78H252.059V79.68C252.285 79.1467 252.672 78.7 253.219 78.34C253.765 77.98 254.425 77.8 255.199 77.8H255.519ZM268.716 77.74C269.303 77.74 269.896 77.8667 270.496 78.12C271.096 78.36 271.61 78.8 272.036 79.44C272.476 80.08 272.696 80.94 272.696 82.02V88H270.236V82.02C270.236 81.2733 270.023 80.74 269.596 80.42C269.183 80.0867 268.696 79.92 268.136 79.92C267.656 79.92 267.236 80.0667 266.876 80.36C266.516 80.64 266.283 81.0933 266.176 81.72V82.02V88H263.716V82.02C263.716 81.2733 263.503 80.74 263.076 80.42C262.663 80.0867 262.17 79.92 261.596 79.92C261.143 79.92 260.73 80.06 260.356 80.34C259.996 80.62 259.763 81.0667 259.656 81.68V88H257.176V78H259.656V78.78C259.99 78.46 260.37 78.2067 260.796 78.02C261.236 77.8333 261.703 77.74 262.196 77.74C262.81 77.74 263.43 77.8733 264.056 78.14C264.683 78.4067 265.183 78.8533 265.556 79.48C265.903 78.9867 266.356 78.5733 266.916 78.24C267.476 77.9067 268.076 77.74 268.716 77.74ZM282.36 78H284.84V88H282.36V87.02C281.894 87.42 281.38 87.7333 280.82 87.96C280.274 88.1733 279.694 88.28 279.08 88.28C278.067 88.28 277.18 88.0533 276.42 87.6C275.66 87.1467 275.074 86.52 274.66 85.72C274.26 84.92 274.06 84.02 274.06 83.02C274.06 82.02 274.26 81.12 274.66 80.32C275.074 79.52 275.66 78.8933 276.42 78.44C277.18 77.9733 278.067 77.74 279.08 77.74C279.694 77.74 280.274 77.8533 280.82 78.08C281.38 78.2933 281.894 78.6 282.36 79V78ZM279.4 85.9C279.947 85.9 280.44 85.78 280.88 85.54C281.334 85.2867 281.687 84.94 281.94 84.5C282.207 84.06 282.34 83.56 282.34 83C282.34 82.16 282.054 81.4733 281.48 80.94C280.92 80.4067 280.227 80.14 279.4 80.14C278.56 80.14 277.867 80.4133 277.32 80.96C276.787 81.4933 276.52 82.18 276.52 83.02C276.52 83.86 276.787 84.5533 277.32 85.1C277.867 85.6333 278.56 85.9 279.4 85.9ZM290.578 84.58C290.578 85.0333 290.685 85.3467 290.898 85.52C291.111 85.6933 291.451 85.78 291.918 85.78C292.198 85.78 292.505 85.76 292.838 85.72V88C292.211 88.0667 291.691 88.1 291.278 88.1C290.211 88.1 289.411 87.86 288.878 87.38C288.358 86.8867 288.098 86.0067 288.098 84.74V80.22H286.218V78H288.098V75.54L290.578 74.7V78H292.798V80.22H290.578V84.58ZM296.113 76.34C295.646 76.34 295.279 76.2133 295.013 75.96C294.746 75.7067 294.613 75.36 294.613 74.92C294.613 74.4667 294.746 74.1133 295.013 73.86C295.279 73.6067 295.646 73.48 296.113 73.48C296.579 73.48 296.946 73.6067 297.213 73.86C297.479 74.1133 297.613 74.4667 297.613 74.92C297.613 75.3467 297.473 75.6933 297.193 75.96C296.926 76.2133 296.566 76.34 296.113 76.34ZM294.853 88V78H297.333V88H294.853ZM304.123 88.28C303.176 88.28 302.296 88.0467 301.483 87.58C300.683 87.1 300.043 86.46 299.563 85.66C299.096 84.8467 298.863 83.9667 298.863 83.02C298.863 82.0733 299.096 81.2 299.563 80.4C300.043 79.5867 300.683 78.9467 301.483 78.48C302.296 78 303.176 77.76 304.123 77.76C305.069 77.76 305.943 78 306.743 78.48C307.556 78.9467 308.196 79.5867 308.663 80.4C309.143 81.2 309.383 82.0733 309.383 83.02C309.383 83.9667 309.143 84.8467 308.663 85.66C308.196 86.46 307.556 87.1 306.743 87.58C305.943 88.0467 305.069 88.28 304.123 88.28ZM304.103 85.8C304.609 85.8 305.076 85.68 305.503 85.44C305.929 85.1867 306.269 84.8467 306.523 84.42C306.776 83.9933 306.903 83.5267 306.903 83.02C306.903 82.5133 306.776 82.0467 306.523 81.62C306.269 81.1933 305.929 80.8533 305.503 80.6C305.076 80.3467 304.609 80.22 304.103 80.22C303.596 80.22 303.129 80.3467 302.703 80.6C302.276 80.8533 301.936 81.1933 301.683 81.62C301.443 82.0467 301.323 82.5133 301.323 83.02C301.323 83.5267 301.443 83.9933 301.683 84.42C301.936 84.8467 302.276 85.1867 302.703 85.44C303.129 85.68 303.596 85.8 304.103 85.8ZM316.046 77.74C316.632 77.74 317.226 77.8667 317.826 78.12C318.439 78.36 318.959 78.8 319.386 79.44C319.826 80.08 320.046 80.94 320.046 82.02V88H317.566V82.02C317.566 81.2733 317.352 80.74 316.926 80.42C316.512 80.0867 316.026 79.92 315.466 79.92C314.906 79.92 314.426 80.12 314.026 80.52C313.639 80.9067 313.446 81.5333 313.446 82.4V88H310.966V78H313.446V78.84C313.806 78.5067 314.206 78.24 314.646 78.04C315.086 77.84 315.552 77.74 316.046 77.74ZM335.388 78H337.868V88H335.388V87.02C334.921 87.42 334.408 87.7333 333.848 87.96C333.301 88.1733 332.721 88.28 332.108 88.28C331.094 88.28 330.208 88.0533 329.448 87.6C328.688 87.1467 328.101 86.52 327.688 85.72C327.288 84.92 327.088 84.02 327.088 83.02C327.088 82.02 327.288 81.12 327.688 80.32C328.101 79.52 328.688 78.8933 329.448 78.44C330.208 77.9733 331.094 77.74 332.108 77.74C332.721 77.74 333.301 77.8533 333.848 78.08C334.408 78.2933 334.921 78.6 335.388 79V78ZM332.428 85.9C332.974 85.9 333.468 85.78 333.908 85.54C334.361 85.2867 334.714 84.94 334.968 84.5C335.234 84.06 335.368 83.56 335.368 83C335.368 82.16 335.081 81.4733 334.508 80.94C333.948 80.4067 333.254 80.14 332.428 80.14C331.588 80.14 330.894 80.4133 330.348 80.96C329.814 81.4933 329.548 82.18 329.548 83.02C329.548 83.86 329.814 84.5533 330.348 85.1C330.894 85.6333 331.588 85.9 332.428 85.9ZM346.379 77.74C347.392 77.74 348.279 77.9733 349.039 78.44C349.799 78.8933 350.379 79.52 350.779 80.32C351.192 81.12 351.399 82.02 351.399 83.02C351.399 84.02 351.192 84.92 350.779 85.72C350.379 86.52 349.799 87.1467 349.039 87.6C348.279 88.0533 347.392 88.28 346.379 88.28C345.725 88.28 345.099 88.1533 344.499 87.9C343.899 87.6467 343.365 87.2933 342.899 86.84V88H340.419V74H342.899V79.18C343.365 78.7267 343.899 78.3733 344.499 78.12C345.112 77.8667 345.739 77.74 346.379 77.74ZM346.059 85.9C346.899 85.9 347.585 85.6333 348.119 85.1C348.665 84.5533 348.939 83.86 348.939 83.02C348.939 82.18 348.665 81.4933 348.119 80.96C347.585 80.4133 346.899 80.14 346.059 80.14C345.232 80.14 344.532 80.4067 343.959 80.94C343.399 81.4733 343.119 82.16 343.119 83C343.119 83.56 343.245 84.06 343.499 84.5C343.765 84.94 344.119 85.2867 344.559 85.54C345.012 85.78 345.512 85.9 346.059 85.9ZM357.853 88.28C356.906 88.28 356.026 88.0467 355.213 87.58C354.413 87.1 353.773 86.46 353.293 85.66C352.826 84.8467 352.593 83.9667 352.593 83.02C352.593 82.0733 352.826 81.2 353.293 80.4C353.773 79.5867 354.413 78.9467 355.213 78.48C356.026 78 356.906 77.76 357.853 77.76C358.8 77.76 359.673 78 360.473 78.48C361.286 78.9467 361.926 79.5867 362.393 80.4C362.873 81.2 363.113 82.0733 363.113 83.02C363.113 83.9667 362.873 84.8467 362.393 85.66C361.926 86.46 361.286 87.1 360.473 87.58C359.673 88.0467 358.8 88.28 357.853 88.28ZM357.833 85.8C358.34 85.8 358.806 85.68 359.233 85.44C359.66 85.1867 360 84.8467 360.253 84.42C360.506 83.9933 360.633 83.5267 360.633 83.02C360.633 82.5133 360.506 82.0467 360.253 81.62C360 81.1933 359.66 80.8533 359.233 80.6C358.806 80.3467 358.34 80.22 357.833 80.22C357.326 80.22 356.86 80.3467 356.433 80.6C356.006 80.8533 355.666 81.1933 355.413 81.62C355.173 82.0467 355.053 82.5133 355.053 83.02C355.053 83.5267 355.173 83.9933 355.413 84.42C355.666 84.8467 356.006 85.1867 356.433 85.44C356.86 85.68 357.326 85.8 357.833 85.8ZM370.996 78H373.476V88H370.996V87.16C370.636 87.4933 370.236 87.76 369.796 87.96C369.356 88.16 368.889 88.26 368.396 88.26C367.809 88.26 367.209 88.14 366.596 87.9C365.996 87.6467 365.476 87.2 365.036 86.56C364.609 85.92 364.396 85.06 364.396 83.98V78H366.876V83.98C366.876 84.7267 367.083 85.2667 367.496 85.6C367.923 85.92 368.416 86.08 368.976 86.08C369.536 86.08 370.009 85.8867 370.396 85.5C370.796 85.1 370.996 84.4667 370.996 83.6V78ZM379.015 84.58C379.015 85.0333 379.122 85.3467 379.335 85.52C379.549 85.6933 379.889 85.78 380.355 85.78C380.635 85.78 380.942 85.76 381.275 85.72V88C380.649 88.0667 380.129 88.1 379.715 88.1C378.649 88.1 377.849 87.86 377.315 87.38C376.795 86.8867 376.535 86.0067 376.535 84.74V80.22H374.655V78H376.535V75.54L379.015 74.7V78H381.235V80.22H379.015V84.58ZM395.223 78H397.823L394.323 88.02C393.803 89.3933 393.083 90.42 392.163 91.1C391.257 91.7933 390.183 92.0933 388.943 92V89.6C389.023 89.6133 389.143 89.62 389.303 89.62C390.37 89.62 391.203 88.9733 391.803 87.68L387.403 78H390.063L393.003 84.36L395.223 78ZM403.927 88.28C402.981 88.28 402.101 88.0467 401.287 87.58C400.487 87.1 399.847 86.46 399.367 85.66C398.901 84.8467 398.667 83.9667 398.667 83.02C398.667 82.0733 398.901 81.2 399.367 80.4C399.847 79.5867 400.487 78.9467 401.287 78.48C402.101 78 402.981 77.76 403.927 77.76C404.874 77.76 405.747 78 406.547 78.48C407.361 78.9467 408.001 79.5867 408.467 80.4C408.947 81.2 409.187 82.0733 409.187 83.02C409.187 83.9667 408.947 84.8467 408.467 85.66C408.001 86.46 407.361 87.1 406.547 87.58C405.747 88.0467 404.874 88.28 403.927 88.28ZM403.907 85.8C404.414 85.8 404.881 85.68 405.307 85.44C405.734 85.1867 406.074 84.8467 406.327 84.42C406.581 83.9933 406.707 83.5267 406.707 83.02C406.707 82.5133 406.581 82.0467 406.327 81.62C406.074 81.1933 405.734 80.8533 405.307 80.6C404.881 80.3467 404.414 80.22 403.907 80.22C403.401 80.22 402.934 80.3467 402.507 80.6C402.081 80.8533 401.741 81.1933 401.487 81.62C401.247 82.0467 401.127 82.5133 401.127 83.02C401.127 83.5267 401.247 83.9933 401.487 84.42C401.741 84.8467 402.081 85.1867 402.507 85.44C402.934 85.68 403.401 85.8 403.907 85.8ZM417.07 78H419.55V88H417.07V87.16C416.71 87.4933 416.31 87.76 415.87 87.96C415.43 88.16 414.964 88.26 414.47 88.26C413.884 88.26 413.284 88.14 412.67 87.9C412.07 87.6467 411.55 87.2 411.11 86.56C410.684 85.92 410.47 85.06 410.47 83.98V78H412.95V83.98C412.95 84.7267 413.157 85.2667 413.57 85.6C413.997 85.92 414.49 86.08 415.05 86.08C415.61 86.08 416.084 85.8867 416.47 85.5C416.87 85.1 417.07 84.4667 417.07 83.6V78ZM428.058 77.8L427.878 80.14C427.798 80.1133 427.658 80.1 427.458 80.1C426.631 80.1 425.945 80.34 425.398 80.82C424.865 81.3 424.598 81.9533 424.598 82.78V88H422.118V78H424.598V79.68C424.825 79.1467 425.211 78.7 425.758 78.34C426.305 77.98 426.965 77.8 427.738 77.8H428.058ZM442.692 78H445.172V88H442.692V87.02C442.226 87.42 441.712 87.7333 441.152 87.96C440.606 88.1733 440.026 88.28 439.412 88.28C438.399 88.28 437.512 88.0533 436.752 87.6C435.992 87.1467 435.406 86.52 434.992 85.72C434.592 84.92 434.392 84.02 434.392 83.02C434.392 82.02 434.592 81.12 434.992 80.32C435.406 79.52 435.992 78.8933 436.752 78.44C437.512 77.9733 438.399 77.74 439.412 77.74C440.026 77.74 440.606 77.8533 441.152 78.08C441.712 78.2933 442.226 78.6 442.692 79V78ZM439.732 85.9C440.279 85.9 440.772 85.78 441.212 85.54C441.666 85.2867 442.019 84.94 442.272 84.5C442.539 84.06 442.672 83.56 442.672 83C442.672 82.16 442.386 81.4733 441.812 80.94C441.252 80.4067 440.559 80.14 439.732 80.14C438.892 80.14 438.199 80.4133 437.652 80.96C437.119 81.4933 436.852 82.18 436.852 83.02C436.852 83.86 437.119 84.5533 437.652 85.1C438.199 85.6333 438.892 85.9 439.732 85.9ZM453.663 77.8L453.483 80.14C453.403 80.1133 453.263 80.1 453.063 80.1C452.237 80.1 451.55 80.34 451.003 80.82C450.47 81.3 450.203 81.9533 450.203 82.78V88H447.723V78H450.203V79.68C450.43 79.1467 450.817 78.7 451.363 78.34C451.91 77.98 452.57 77.8 453.343 77.8H453.663ZM459.308 84.58C459.308 85.0333 459.415 85.3467 459.628 85.52C459.842 85.6933 460.182 85.78 460.648 85.78C460.928 85.78 461.235 85.76 461.568 85.72V88C460.942 88.0667 460.422 88.1 460.008 88.1C458.942 88.1 458.142 87.86 457.608 87.38C457.088 86.8867 456.828 86.0067 456.828 84.74V80.22H454.948V78H456.828V75.54L459.308 74.7V78H461.528V80.22H459.308V84.58ZM473.339 84.06L475.199 78H477.799L474.559 88H472.099L470.219 82.06L468.339 88H465.919L462.759 78H465.339L467.139 84.02L468.899 78H471.539L473.339 84.06ZM483.4 88.28C482.453 88.28 481.573 88.0467 480.76 87.58C479.96 87.1 479.32 86.46 478.84 85.66C478.373 84.8467 478.14 83.9667 478.14 83.02C478.14 82.0733 478.373 81.2 478.84 80.4C479.32 79.5867 479.96 78.9467 480.76 78.48C481.573 78 482.453 77.76 483.4 77.76C484.347 77.76 485.22 78 486.02 78.48C486.833 78.9467 487.473 79.5867 487.94 80.4C488.42 81.2 488.66 82.0733 488.66 83.02C488.66 83.9667 488.42 84.8467 487.94 85.66C487.473 86.46 486.833 87.1 486.02 87.58C485.22 88.0467 484.347 88.28 483.4 88.28ZM483.38 85.8C483.887 85.8 484.353 85.68 484.78 85.44C485.207 85.1867 485.547 84.8467 485.8 84.42C486.053 83.9933 486.18 83.5267 486.18 83.02C486.18 82.5133 486.053 82.0467 485.8 81.62C485.547 81.1933 485.207 80.8533 484.78 80.6C484.353 80.3467 483.887 80.22 483.38 80.22C482.873 80.22 482.407 80.3467 481.98 80.6C481.553 80.8533 481.213 81.1933 480.96 81.62C480.72 82.0467 480.6 82.5133 480.6 83.02C480.6 83.5267 480.72 83.9933 480.96 84.42C481.213 84.8467 481.553 85.1867 481.98 85.44C482.407 85.68 482.873 85.8 483.38 85.8ZM496.183 77.8L496.003 80.14C495.923 80.1133 495.783 80.1 495.583 80.1C494.756 80.1 494.07 80.34 493.523 80.82C492.99 81.3 492.723 81.9533 492.723 82.78V88H490.243V78H492.723V79.68C492.95 79.1467 493.336 78.7 493.883 78.34C494.43 77.98 495.09 77.8 495.863 77.8H496.183ZM507.681 88H504.581L501.781 84.26L500.321 85.86V88H497.841V74H500.321V82.22L504.081 78H507.541L503.461 82.44L507.681 88ZM517.765 84.58C517.765 85.0333 517.872 85.3467 518.085 85.52C518.299 85.6933 518.639 85.78 519.105 85.78C519.385 85.78 519.692 85.76 520.025 85.72V88C519.399 88.0667 518.879 88.1 518.465 88.1C517.399 88.1 516.599 87.86 516.065 87.38C515.545 86.8867 515.285 86.0067 515.285 84.74V80.22H513.405V78H515.285V75.54L517.765 74.7V78H519.985V80.22H517.765V84.58ZM526.388 88.28C525.442 88.28 524.562 88.0467 523.748 87.58C522.948 87.1 522.308 86.46 521.828 85.66C521.362 84.8467 521.128 83.9667 521.128 83.02C521.128 82.0733 521.362 81.2 521.828 80.4C522.308 79.5867 522.948 78.9467 523.748 78.48C524.562 78 525.442 77.76 526.388 77.76C527.335 77.76 528.208 78 529.008 78.48C529.822 78.9467 530.462 79.5867 530.928 80.4C531.408 81.2 531.648 82.0733 531.648 83.02C531.648 83.9667 531.408 84.8467 530.928 85.66C530.462 86.46 529.822 87.1 529.008 87.58C528.208 88.0467 527.335 88.28 526.388 88.28ZM526.368 85.8C526.875 85.8 527.342 85.68 527.768 85.44C528.195 85.1867 528.535 84.8467 528.788 84.42C529.042 83.9933 529.168 83.5267 529.168 83.02C529.168 82.5133 529.042 82.0467 528.788 81.62C528.535 81.1933 528.195 80.8533 527.768 80.6C527.342 80.3467 526.875 80.22 526.368 80.22C525.862 80.22 525.395 80.3467 524.968 80.6C524.542 80.8533 524.202 81.1933 523.948 81.62C523.708 82.0467 523.588 82.5133 523.588 83.02C523.588 83.5267 523.708 83.9933 523.948 84.42C524.202 84.8467 524.542 85.1867 524.968 85.44C525.395 85.68 525.862 85.8 526.368 85.8ZM547.759 88H545.299V82.08C545.299 81.3333 545.085 80.8 544.659 80.48C544.245 80.1467 543.752 79.98 543.179 79.98C542.725 79.98 542.312 80.12 541.939 80.4C541.579 80.68 541.345 81.1267 541.239 81.74V88H538.759V74H541.239V78.84C541.572 78.52 541.952 78.2667 542.379 78.08C542.819 77.8933 543.285 77.8 543.779 77.8C544.365 77.8 544.959 77.9267 545.559 78.18C546.159 78.42 546.672 78.8533 547.099 79.48C547.539 80.1067 547.759 80.9533 547.759 82.02V88ZM554.337 77.74C555.297 77.74 556.157 77.98 556.917 78.46C557.691 78.9267 558.291 79.56 558.717 80.36C559.144 81.16 559.357 82.0467 559.357 83.02C559.357 83.34 559.331 83.6333 559.277 83.9H551.557C551.757 84.6067 552.111 85.16 552.617 85.56C553.124 85.9467 553.771 86.14 554.557 86.14C555.037 86.14 555.497 86.0333 555.937 85.82C556.391 85.6067 556.731 85.3333 556.957 85L558.857 86.12C558.391 86.8133 557.784 87.3467 557.037 87.72C556.304 88.08 555.457 88.26 554.497 88.26C553.431 88.26 552.484 88.0333 551.657 87.58C550.831 87.1267 550.191 86.5 549.737 85.7C549.297 84.9 549.077 84 549.077 83C549.077 82.0133 549.297 81.12 549.737 80.32C550.191 79.52 550.817 78.8933 551.617 78.44C552.417 77.9733 553.324 77.74 554.337 77.74ZM557.037 81.96C556.931 81.32 556.631 80.82 556.137 80.46C555.657 80.0867 555.051 79.9 554.317 79.9C553.811 79.9 553.344 79.9933 552.917 80.18C552.504 80.3667 552.171 80.62 551.917 80.94C551.664 81.26 551.531 81.6 551.517 81.96H557.037ZM563.406 85.18C563.406 85.3933 563.46 85.5467 563.566 85.64C563.673 85.7333 563.84 85.78 564.066 85.78C564.24 85.78 564.446 85.76 564.686 85.72V88C564.193 88.08 563.733 88.12 563.306 88.12C562.533 88.12 561.94 87.92 561.526 87.52C561.126 87.1067 560.926 86.38 560.926 85.34V74H563.406V85.18ZM572.311 77.74C573.324 77.74 574.211 77.9667 574.971 78.42C575.744 78.8733 576.331 79.5 576.731 80.3C577.144 81.1 577.351 82 577.351 83C577.351 84 577.144 84.9 576.731 85.7C576.331 86.5 575.744 87.1333 574.971 87.6C574.211 88.0533 573.324 88.28 572.311 88.28C571.711 88.28 571.131 88.1733 570.571 87.96C570.024 87.7333 569.518 87.42 569.051 87.02V92H566.571V78H569.051V78.98C569.504 78.58 570.011 78.2733 570.571 78.06C571.131 77.8467 571.711 77.74 572.311 77.74ZM572.011 85.88C572.838 85.88 573.518 85.6133 574.051 85.08C574.598 84.5333 574.871 83.84 574.871 83C574.871 82.16 574.598 81.4733 574.051 80.94C573.518 80.3933 572.838 80.12 572.011 80.12C571.464 80.12 570.964 80.2467 570.511 80.5C570.058 80.74 569.698 81.08 569.431 81.52C569.178 81.96 569.051 82.46 569.051 83.02C569.051 83.86 569.331 84.5467 569.891 85.08C570.464 85.6133 571.171 85.88 572.011 85.88ZM593.539 86.06C593.046 86.74 592.426 87.28 591.679 87.68C590.933 88.08 590.126 88.28 589.259 88.28C588.313 88.28 587.433 88.0467 586.619 87.58C585.819 87.1 585.179 86.46 584.699 85.66C584.233 84.8467 583.999 83.9667 583.999 83.02C583.999 82.0733 584.233 81.2 584.699 80.4C585.179 79.5867 585.819 78.9467 586.619 78.48C587.433 78 588.313 77.76 589.259 77.76C590.113 77.76 590.913 77.96 591.659 78.36C592.406 78.7467 593.026 79.2733 593.519 79.94L591.479 81.32C590.853 80.5867 590.113 80.22 589.259 80.22C588.753 80.22 588.286 80.3467 587.859 80.6C587.433 80.8533 587.093 81.1933 586.839 81.62C586.586 82.0467 586.459 82.5133 586.459 83.02C586.459 83.5267 586.586 83.9933 586.839 84.42C587.093 84.8467 587.433 85.1867 587.859 85.44C588.286 85.68 588.753 85.8 589.259 85.8C590.113 85.8 590.853 85.4333 591.479 84.7L593.539 86.06ZM599.513 88.28C598.567 88.28 597.687 88.0467 596.873 87.58C596.073 87.1 595.433 86.46 594.953 85.66C594.487 84.8467 594.253 83.9667 594.253 83.02C594.253 82.0733 594.487 81.2 594.953 80.4C595.433 79.5867 596.073 78.9467 596.873 78.48C597.687 78 598.567 77.76 599.513 77.76C600.46 77.76 601.333 78 602.133 78.48C602.947 78.9467 603.587 79.5867 604.053 80.4C604.533 81.2 604.773 82.0733 604.773 83.02C604.773 83.9667 604.533 84.8467 604.053 85.66C603.587 86.46 602.947 87.1 602.133 87.58C601.333 88.0467 600.46 88.28 599.513 88.28ZM599.493 85.8C600 85.8 600.467 85.68 600.893 85.44C601.32 85.1867 601.66 84.8467 601.913 84.42C602.167 83.9933 602.293 83.5267 602.293 83.02C602.293 82.5133 602.167 82.0467 601.913 81.62C601.66 81.1933 601.32 80.8533 600.893 80.6C600.467 80.3467 600 80.22 599.493 80.22C598.987 80.22 598.52 80.3467 598.093 80.6C597.667 80.8533 597.327 81.1933 597.073 81.62C596.833 82.0467 596.713 82.5133 596.713 83.02C596.713 83.5267 596.833 83.9933 597.073 84.42C597.327 84.8467 597.667 85.1867 598.093 85.44C598.52 85.68 598.987 85.8 599.493 85.8ZM608.836 85.18C608.836 85.3933 608.89 85.5467 608.996 85.64C609.103 85.7333 609.27 85.78 609.496 85.78C609.67 85.78 609.876 85.76 610.116 85.72V88C609.623 88.08 609.163 88.12 608.736 88.12C607.963 88.12 607.37 87.92 606.956 87.52C606.556 87.1067 606.356 86.38 606.356 85.34V74H608.836V85.18ZM614.168 85.18C614.168 85.3933 614.222 85.5467 614.328 85.64C614.435 85.7333 614.602 85.78 614.828 85.78C615.002 85.78 615.208 85.76 615.448 85.72V88C614.955 88.08 614.495 88.12 614.068 88.12C613.295 88.12 612.702 87.92 612.288 87.52C611.888 87.1067 611.688 86.38 611.688 85.34V74H614.168V85.18ZM621.544 77.74C622.504 77.74 623.364 77.98 624.124 78.46C624.898 78.9267 625.498 79.56 625.924 80.36C626.351 81.16 626.564 82.0467 626.564 83.02C626.564 83.34 626.538 83.6333 626.484 83.9H618.764C618.964 84.6067 619.318 85.16 619.824 85.56C620.331 85.9467 620.978 86.14 621.764 86.14C622.244 86.14 622.704 86.0333 623.144 85.82C623.598 85.6067 623.938 85.3333 624.164 85L626.064 86.12C625.598 86.8133 624.991 87.3467 624.244 87.72C623.511 88.08 622.664 88.26 621.704 88.26C620.638 88.26 619.691 88.0333 618.864 87.58C618.038 87.1267 617.398 86.5 616.944 85.7C616.504 84.9 616.284 84 616.284 83C616.284 82.0133 616.504 81.12 616.944 80.32C617.398 79.52 618.024 78.8933 618.824 78.44C619.624 77.9733 620.531 77.74 621.544 77.74ZM624.244 81.96C624.138 81.32 623.838 80.82 623.344 80.46C622.864 80.0867 622.258 79.9 621.524 79.9C621.018 79.9 620.551 79.9933 620.124 80.18C619.711 80.3667 619.378 80.62 619.124 80.94C618.871 81.26 618.738 81.6 618.724 81.96H624.244ZM637.114 86.06C636.62 86.74 636 87.28 635.254 87.68C634.507 88.08 633.7 88.28 632.834 88.28C631.887 88.28 631.007 88.0467 630.194 87.58C629.394 87.1 628.754 86.46 628.274 85.66C627.807 84.8467 627.574 83.9667 627.574 83.02C627.574 82.0733 627.807 81.2 628.274 80.4C628.754 79.5867 629.394 78.9467 630.194 78.48C631.007 78 631.887 77.76 632.834 77.76C633.687 77.76 634.487 77.96 635.234 78.36C635.98 78.7467 636.6 79.2733 637.094 79.94L635.054 81.32C634.427 80.5867 633.687 80.22 632.834 80.22C632.327 80.22 631.86 80.3467 631.434 80.6C631.007 80.8533 630.667 81.1933 630.414 81.62C630.16 82.0467 630.034 82.5133 630.034 83.02C630.034 83.5267 630.16 83.9933 630.414 84.42C630.667 84.8467 631.007 85.1867 631.434 85.44C631.86 85.68 632.327 85.8 632.834 85.8C633.687 85.8 634.427 85.4333 635.054 84.7L637.114 86.06ZM642.082 84.58C642.082 85.0333 642.188 85.3467 642.402 85.52C642.615 85.6933 642.955 85.78 643.422 85.78C643.702 85.78 644.008 85.76 644.342 85.72V88C643.715 88.0667 643.195 88.1 642.782 88.1C641.715 88.1 640.915 87.86 640.382 87.38C639.862 86.8867 639.602 86.0067 639.602 84.74V80.22H637.722V78H639.602V75.54L642.082 74.7V78H644.302V80.22H642.082V84.58ZM650.705 88.28C649.758 88.28 648.878 88.0467 648.065 87.58C647.265 87.1 646.625 86.46 646.145 85.66C645.678 84.8467 645.445 83.9667 645.445 83.02C645.445 82.0733 645.678 81.2 646.145 80.4C646.625 79.5867 647.265 78.9467 648.065 78.48C648.878 78 649.758 77.76 650.705 77.76C651.651 77.76 652.525 78 653.325 78.48C654.138 78.9467 654.778 79.5867 655.245 80.4C655.725 81.2 655.965 82.0733 655.965 83.02C655.965 83.9667 655.725 84.8467 655.245 85.66C654.778 86.46 654.138 87.1 653.325 87.58C652.525 88.0467 651.651 88.28 650.705 88.28ZM650.685 85.8C651.191 85.8 651.658 85.68 652.085 85.44C652.511 85.1867 652.851 84.8467 653.105 84.42C653.358 83.9933 653.485 83.5267 653.485 83.02C653.485 82.5133 653.358 82.0467 653.105 81.62C652.851 81.1933 652.511 80.8533 652.085 80.6C651.658 80.3467 651.191 80.22 650.685 80.22C650.178 80.22 649.711 80.3467 649.285 80.6C648.858 80.8533 648.518 81.1933 648.265 81.62C648.025 82.0467 647.905 82.5133 647.905 83.02C647.905 83.5267 648.025 83.9933 648.265 84.42C648.518 84.8467 648.858 85.1867 649.285 85.44C649.711 85.68 650.178 85.8 650.685 85.8ZM663.488 77.8L663.308 80.14C663.228 80.1133 663.088 80.1 662.888 80.1C662.061 80.1 661.374 80.34 660.828 80.82C660.294 81.3 660.028 81.9533 660.028 82.78V88H657.548V78H660.028V79.68C660.254 79.1467 660.641 78.7 661.188 78.34C661.734 77.98 662.394 77.8 663.168 77.8H663.488ZM666.836 80.8C666.836 81.08 666.99 81.2933 667.296 81.44C667.616 81.5733 668.116 81.7133 668.796 81.86C669.57 82.02 670.216 82.2 670.736 82.4C671.256 82.6 671.703 82.92 672.076 83.36C672.463 83.7867 672.656 84.3667 672.656 85.1C672.656 85.7533 672.456 86.32 672.056 86.8C671.67 87.28 671.15 87.6467 670.496 87.9C669.843 88.14 669.13 88.26 668.356 88.26C667.303 88.26 666.396 88.06 665.636 87.66C664.89 87.26 664.336 86.6867 663.976 85.94L666.016 84.88C666.376 85.8 667.156 86.26 668.356 86.26C668.876 86.26 669.323 86.16 669.696 85.96C670.07 85.76 670.256 85.4733 670.256 85.1C670.256 84.78 670.083 84.5467 669.736 84.4C669.403 84.24 668.856 84.0667 668.096 83.88C667.31 83.6933 666.67 83.5067 666.176 83.32C665.683 83.1333 665.256 82.8467 664.896 82.46C664.536 82.06 664.356 81.5333 664.356 80.88C664.356 80.24 664.536 79.6867 664.896 79.22C665.256 78.74 665.743 78.3733 666.356 78.12C666.97 77.8667 667.643 77.74 668.376 77.74C669.243 77.74 670.016 77.92 670.696 78.28C671.39 78.64 671.923 79.1533 672.296 79.82L670.276 80.84C669.93 80.0933 669.296 79.72 668.376 79.72C667.91 79.72 667.536 79.82 667.256 80.02C666.976 80.2067 666.836 80.4667 666.836 80.8ZM687.536 74H690.016V88H687.536V87.04C687.082 87.44 686.576 87.7467 686.016 87.96C685.456 88.1733 684.876 88.28 684.276 88.28C683.262 88.28 682.376 88.0533 681.616 87.6C680.856 87.1467 680.269 86.52 679.856 85.72C679.456 84.92 679.256 84.02 679.256 83.02C679.256 82.02 679.456 81.12 679.856 80.32C680.269 79.52 680.856 78.8933 681.616 78.44C682.376 77.9733 683.262 77.74 684.276 77.74C684.876 77.74 685.449 77.8533 685.996 78.08C686.556 78.2933 687.069 78.5933 687.536 78.98V74ZM684.596 85.9C685.142 85.9 685.636 85.78 686.076 85.54C686.529 85.2867 686.882 84.94 687.136 84.5C687.402 84.06 687.536 83.56 687.536 83C687.536 82.16 687.249 81.4733 686.676 80.94C686.116 80.4067 685.422 80.14 684.596 80.14C683.756 80.14 683.062 80.4133 682.516 80.96C681.982 81.4933 681.716 82.18 681.716 83.02C681.716 83.86 681.982 84.5533 682.516 85.1C683.062 85.6333 683.756 85.9 684.596 85.9ZM693.847 76.34C693.38 76.34 693.014 76.2133 692.747 75.96C692.48 75.7067 692.347 75.36 692.347 74.92C692.347 74.4667 692.48 74.1133 692.747 73.86C693.014 73.6067 693.38 73.48 693.847 73.48C694.314 73.48 694.68 73.6067 694.947 73.86C695.214 74.1133 695.347 74.4667 695.347 74.92C695.347 75.3467 695.207 75.6933 694.927 75.96C694.66 76.2133 694.3 76.34 693.847 76.34ZM692.587 88V78H695.067V88H692.587ZM699.434 80.8C699.434 81.08 699.587 81.2933 699.894 81.44C700.214 81.5733 700.714 81.7133 701.394 81.86C702.167 82.02 702.814 82.2 703.334 82.4C703.854 82.6 704.301 82.92 704.674 83.36C705.061 83.7867 705.254 84.3667 705.254 85.1C705.254 85.7533 705.054 86.32 704.654 86.8C704.267 87.28 703.747 87.6467 703.094 87.9C702.441 88.14 701.727 88.26 700.954 88.26C699.901 88.26 698.994 88.06 698.234 87.66C697.487 87.26 696.934 86.6867 696.574 85.94L698.614 84.88C698.974 85.8 699.754 86.26 700.954 86.26C701.474 86.26 701.921 86.16 702.294 85.96C702.667 85.76 702.854 85.4733 702.854 85.1C702.854 84.78 702.681 84.5467 702.334 84.4C702.001 84.24 701.454 84.0667 700.694 83.88C699.907 83.6933 699.267 83.5067 698.774 83.32C698.281 83.1333 697.854 82.8467 697.494 82.46C697.134 82.06 696.954 81.5333 696.954 80.88C696.954 80.24 697.134 79.6867 697.494 79.22C697.854 78.74 698.341 78.3733 698.954 78.12C699.567 77.8667 700.241 77.74 700.974 77.74C701.841 77.74 702.614 77.92 703.294 78.28C703.987 78.64 704.521 79.1533 704.894 79.82L702.874 80.84C702.527 80.0933 701.894 79.72 700.974 79.72C700.507 79.72 700.134 79.82 699.854 80.02C699.574 80.2067 699.434 80.4667 699.434 80.8ZM715.883 86.06C715.39 86.74 714.77 87.28 714.023 87.68C713.276 88.08 712.47 88.28 711.603 88.28C710.656 88.28 709.776 88.0467 708.963 87.58C708.163 87.1 707.523 86.46 707.043 85.66C706.576 84.8467 706.343 83.9667 706.343 83.02C706.343 82.0733 706.576 81.2 707.043 80.4C707.523 79.5867 708.163 78.9467 708.963 78.48C709.776 78 710.656 77.76 711.603 77.76C712.456 77.76 713.256 77.96 714.003 78.36C714.75 78.7467 715.37 79.2733 715.863 79.94L713.823 81.32C713.196 80.5867 712.456 80.22 711.603 80.22C711.096 80.22 710.63 80.3467 710.203 80.6C709.776 80.8533 709.436 81.1933 709.183 81.62C708.93 82.0467 708.803 82.5133 708.803 83.02C708.803 83.5267 708.93 83.9933 709.183 84.42C709.436 84.8467 709.776 85.1867 710.203 85.44C710.63 85.68 711.096 85.8 711.603 85.8C712.456 85.8 713.196 85.4333 713.823 84.7L715.883 86.06ZM721.857 88.28C720.91 88.28 720.03 88.0467 719.217 87.58C718.417 87.1 717.777 86.46 717.297 85.66C716.83 84.8467 716.597 83.9667 716.597 83.02C716.597 82.0733 716.83 81.2 717.297 80.4C717.777 79.5867 718.417 78.9467 719.217 78.48C720.03 78 720.91 77.76 721.857 77.76C722.804 77.76 723.677 78 724.477 78.48C725.29 78.9467 725.93 79.5867 726.397 80.4C726.877 81.2 727.117 82.0733 727.117 83.02C727.117 83.9667 726.877 84.8467 726.397 85.66C725.93 86.46 725.29 87.1 724.477 87.58C723.677 88.0467 722.804 88.28 721.857 88.28ZM721.837 85.8C722.344 85.8 722.81 85.68 723.237 85.44C723.664 85.1867 724.004 84.8467 724.257 84.42C724.51 83.9933 724.637 83.5267 724.637 83.02C724.637 82.5133 724.51 82.0467 724.257 81.62C724.004 81.1933 723.664 80.8533 723.237 80.6C722.81 80.3467 722.344 80.22 721.837 80.22C721.33 80.22 720.864 80.3467 720.437 80.6C720.01 80.8533 719.67 81.1933 719.417 81.62C719.177 82.0467 719.057 82.5133 719.057 83.02C719.057 83.5267 719.177 83.9933 719.417 84.42C719.67 84.8467 720.01 85.1867 720.437 85.44C720.864 85.68 721.33 85.8 721.837 85.8ZM732.565 85L735.185 78H737.805L734.085 88H731.045L727.325 78H729.945L732.565 85ZM743.302 77.74C744.262 77.74 745.122 77.98 745.882 78.46C746.656 78.9267 747.256 79.56 747.682 80.36C748.109 81.16 748.322 82.0467 748.322 83.02C748.322 83.34 748.296 83.6333 748.242 83.9H740.522C740.722 84.6067 741.076 85.16 741.582 85.56C742.089 85.9467 742.736 86.14 743.522 86.14C744.002 86.14 744.462 86.0333 744.902 85.82C745.356 85.6067 745.696 85.3333 745.922 85L747.822 86.12C747.356 86.8133 746.749 87.3467 746.002 87.72C745.269 88.08 744.422 88.26 743.462 88.26C742.396 88.26 741.449 88.0333 740.622 87.58C739.796 87.1267 739.156 86.5 738.702 85.7C738.262 84.9 738.042 84 738.042 83C738.042 82.0133 738.262 81.12 738.702 80.32C739.156 79.52 739.782 78.8933 740.582 78.44C741.382 77.9733 742.289 77.74 743.302 77.74ZM746.002 81.96C745.896 81.32 745.596 80.82 745.102 80.46C744.622 80.0867 744.016 79.9 743.282 79.9C742.776 79.9 742.309 79.9933 741.882 80.18C741.469 80.3667 741.136 80.62 740.882 80.94C740.629 81.26 740.496 81.6 740.482 81.96H746.002ZM755.831 77.8L755.651 80.14C755.571 80.1133 755.431 80.1 755.231 80.1C754.405 80.1 753.718 80.34 753.171 80.82C752.638 81.3 752.371 81.9533 752.371 82.78V88H749.891V78H752.371V79.68C752.598 79.1467 752.985 78.7 753.531 78.34C754.078 77.98 754.738 77.8 755.511 77.8H755.831ZM770.466 78H772.946V88H770.466V87.02C769.999 87.42 769.486 87.7333 768.926 87.96C768.379 88.1733 767.799 88.28 767.186 88.28C766.172 88.28 765.286 88.0533 764.526 87.6C763.766 87.1467 763.179 86.52 762.766 85.72C762.366 84.92 762.166 84.02 762.166 83.02C762.166 82.02 762.366 81.12 762.766 80.32C763.179 79.52 763.766 78.8933 764.526 78.44C765.286 77.9733 766.172 77.74 767.186 77.74C767.799 77.74 768.379 77.8533 768.926 78.08C769.486 78.2933 769.999 78.6 770.466 79V78ZM767.506 85.9C768.052 85.9 768.546 85.78 768.986 85.54C769.439 85.2867 769.792 84.94 770.046 84.5C770.312 84.06 770.446 83.56 770.446 83C770.446 82.16 770.159 81.4733 769.586 80.94C769.026 80.4067 768.332 80.14 767.506 80.14C766.666 80.14 765.972 80.4133 765.426 80.96C764.892 81.4933 764.626 82.18 764.626 83.02C764.626 83.86 764.892 84.5533 765.426 85.1C765.972 85.6333 766.666 85.9 767.506 85.9ZM780.577 77.74C781.163 77.74 781.757 77.8667 782.357 78.12C782.97 78.36 783.49 78.8 783.917 79.44C784.357 80.08 784.577 80.94 784.577 82.02V88H782.097V82.02C782.097 81.2733 781.883 80.74 781.457 80.42C781.043 80.0867 780.557 79.92 779.997 79.92C779.437 79.92 778.957 80.12 778.557 80.52C778.17 80.9067 777.977 81.5333 777.977 82.4V88H775.497V78H777.977V78.84C778.337 78.5067 778.737 78.24 779.177 78.04C779.617 77.84 780.083 77.74 780.577 77.74ZM794.371 74H796.851V88H794.371V87.04C793.918 87.44 793.411 87.7467 792.851 87.96C792.291 88.1733 791.711 88.28 791.111 88.28C790.098 88.28 789.211 88.0533 788.451 87.6C787.691 87.1467 787.105 86.52 786.691 85.72C786.291 84.92 786.091 84.02 786.091 83.02C786.091 82.02 786.291 81.12 786.691 80.32C787.105 79.52 787.691 78.8933 788.451 78.44C789.211 77.9733 790.098 77.74 791.111 77.74C791.711 77.74 792.285 77.8533 792.831 78.08C793.391 78.2933 793.905 78.5933 794.371 78.98V74ZM791.431 85.9C791.978 85.9 792.471 85.78 792.911 85.54C793.365 85.2867 793.718 84.94 793.971 84.5C794.238 84.06 794.371 83.56 794.371 83C794.371 82.16 794.085 81.4733 793.511 80.94C792.951 80.4067 792.258 80.14 791.431 80.14C790.591 80.14 789.898 80.4133 789.351 80.96C788.818 81.4933 788.551 82.18 788.551 83.02C788.551 83.86 788.818 84.5533 789.351 85.1C789.898 85.6333 790.591 85.9 791.431 85.9ZM327.646 101H330.126V111H327.646V110.16C327.286 110.493 326.886 110.76 326.446 110.96C326.006 111.16 325.54 111.26 325.046 111.26C324.46 111.26 323.86 111.14 323.246 110.9C322.646 110.647 322.126 110.2 321.686 109.56C321.26 108.92 321.046 108.06 321.046 106.98V101H323.526V106.98C323.526 107.727 323.733 108.267 324.146 108.6C324.573 108.92 325.066 109.08 325.626 109.08C326.186 109.08 326.66 108.887 327.046 108.5C327.446 108.1 327.646 107.467 327.646 106.6V101ZM337.774 100.74C338.361 100.74 338.954 100.867 339.554 101.12C340.167 101.36 340.687 101.8 341.114 102.44C341.554 103.08 341.774 103.94 341.774 105.02V111H339.294V105.02C339.294 104.273 339.081 103.74 338.654 103.42C338.241 103.087 337.754 102.92 337.194 102.92C336.634 102.92 336.154 103.12 335.754 103.52C335.367 103.907 335.174 104.533 335.174 105.4V111H332.694V101H335.174V101.84C335.534 101.507 335.934 101.24 336.374 101.04C336.814 100.84 337.281 100.74 337.774 100.74ZM351.569 97H354.049V111H351.569V110.04C351.115 110.44 350.609 110.747 350.049 110.96C349.489 111.173 348.909 111.28 348.309 111.28C347.295 111.28 346.409 111.053 345.649 110.6C344.889 110.147 344.302 109.52 343.889 108.72C343.489 107.92 343.289 107.02 343.289 106.02C343.289 105.02 343.489 104.12 343.889 103.32C344.302 102.52 344.889 101.893 345.649 101.44C346.409 100.973 347.295 100.74 348.309 100.74C348.909 100.74 349.482 100.853 350.029 101.08C350.589 101.293 351.102 101.593 351.569 101.98V97ZM348.629 108.9C349.175 108.9 349.669 108.78 350.109 108.54C350.562 108.287 350.915 107.94 351.169 107.5C351.435 107.06 351.569 106.56 351.569 106C351.569 105.16 351.282 104.473 350.709 103.94C350.149 103.407 349.455 103.14 348.629 103.14C347.789 103.14 347.095 103.413 346.549 103.96C346.015 104.493 345.749 105.18 345.749 106.02C345.749 106.86 346.015 107.553 346.549 108.1C347.095 108.633 347.789 108.9 348.629 108.9ZM360.91 100.74C361.87 100.74 362.73 100.98 363.49 101.46C364.263 101.927 364.863 102.56 365.29 103.36C365.716 104.16 365.93 105.047 365.93 106.02C365.93 106.34 365.903 106.633 365.85 106.9H358.13C358.33 107.607 358.683 108.16 359.19 108.56C359.696 108.947 360.343 109.14 361.13 109.14C361.61 109.14 362.07 109.033 362.51 108.82C362.963 108.607 363.303 108.333 363.53 108L365.43 109.12C364.963 109.813 364.356 110.347 363.61 110.72C362.876 111.08 362.03 111.26 361.07 111.26C360.003 111.26 359.056 111.033 358.23 110.58C357.403 110.127 356.763 109.5 356.31 108.7C355.87 107.9 355.65 107 355.65 106C355.65 105.013 355.87 104.12 356.31 103.32C356.763 102.52 357.39 101.893 358.19 101.44C358.99 100.973 359.896 100.74 360.91 100.74ZM363.61 104.96C363.503 104.32 363.203 103.82 362.71 103.46C362.23 103.087 361.623 102.9 360.89 102.9C360.383 102.9 359.916 102.993 359.49 103.18C359.076 103.367 358.743 103.62 358.49 103.94C358.236 104.26 358.103 104.6 358.09 104.96H363.61ZM373.439 100.8L373.259 103.14C373.179 103.113 373.039 103.1 372.839 103.1C372.012 103.1 371.325 103.34 370.779 103.82C370.245 104.3 369.979 104.953 369.979 105.78V111H367.499V101H369.979V102.68C370.205 102.147 370.592 101.7 371.139 101.34C371.685 100.98 372.345 100.8 373.119 100.8H373.439ZM376.788 103.8C376.788 104.08 376.941 104.293 377.248 104.44C377.568 104.573 378.068 104.713 378.748 104.86C379.521 105.02 380.168 105.2 380.688 105.4C381.208 105.6 381.654 105.92 382.028 106.36C382.414 106.787 382.608 107.367 382.608 108.1C382.608 108.753 382.408 109.32 382.008 109.8C381.621 110.28 381.101 110.647 380.448 110.9C379.794 111.14 379.081 111.26 378.308 111.26C377.254 111.26 376.348 111.06 375.588 110.66C374.841 110.26 374.288 109.687 373.928 108.94L375.968 107.88C376.328 108.8 377.108 109.26 378.308 109.26C378.828 109.26 379.274 109.16 379.648 108.96C380.021 108.76 380.208 108.473 380.208 108.1C380.208 107.78 380.034 107.547 379.688 107.4C379.354 107.24 378.808 107.067 378.048 106.88C377.261 106.693 376.621 106.507 376.128 106.32C375.634 106.133 375.208 105.847 374.848 105.46C374.488 105.06 374.308 104.533 374.308 103.88C374.308 103.24 374.488 102.687 374.848 102.22C375.208 101.74 375.694 101.373 376.308 101.12C376.921 100.867 377.594 100.74 378.328 100.74C379.194 100.74 379.968 100.92 380.648 101.28C381.341 101.64 381.874 102.153 382.248 102.82L380.228 103.84C379.881 103.093 379.248 102.72 378.328 102.72C377.861 102.72 377.488 102.82 377.208 103.02C376.928 103.207 376.788 103.467 376.788 103.8ZM387.599 107.58C387.599 108.033 387.706 108.347 387.919 108.52C388.133 108.693 388.473 108.78 388.939 108.78C389.219 108.78 389.526 108.76 389.859 108.72V111C389.233 111.067 388.713 111.1 388.299 111.1C387.233 111.1 386.433 110.86 385.899 110.38C385.379 109.887 385.119 109.007 385.119 107.74V103.22H383.239V101H385.119V98.54L387.599 97.7V101H389.819V103.22H387.599V107.58ZM399.362 101H401.842V111H399.362V110.02C398.896 110.42 398.382 110.733 397.822 110.96C397.276 111.173 396.696 111.28 396.082 111.28C395.069 111.28 394.182 111.053 393.422 110.6C392.662 110.147 392.076 109.52 391.662 108.72C391.262 107.92 391.062 107.02 391.062 106.02C391.062 105.02 391.262 104.12 391.662 103.32C392.076 102.52 392.662 101.893 393.422 101.44C394.182 100.973 395.069 100.74 396.082 100.74C396.696 100.74 397.276 100.853 397.822 101.08C398.382 101.293 398.896 101.6 399.362 102V101ZM396.402 108.9C396.949 108.9 397.442 108.78 397.882 108.54C398.336 108.287 398.689 107.94 398.942 107.5C399.209 107.06 399.342 106.56 399.342 106C399.342 105.16 399.056 104.473 398.482 103.94C397.922 103.407 397.229 103.14 396.402 103.14C395.562 103.14 394.869 103.413 394.322 103.96C393.789 104.493 393.522 105.18 393.522 106.02C393.522 106.86 393.789 107.553 394.322 108.1C394.869 108.633 395.562 108.9 396.402 108.9ZM409.473 100.74C410.06 100.74 410.653 100.867 411.253 101.12C411.867 101.36 412.387 101.8 412.813 102.44C413.253 103.08 413.473 103.94 413.473 105.02V111H410.993V105.02C410.993 104.273 410.78 103.74 410.353 103.42C409.94 103.087 409.453 102.92 408.893 102.92C408.333 102.92 407.853 103.12 407.453 103.52C407.067 103.907 406.873 104.533 406.873 105.4V111H404.393V101H406.873V101.84C407.233 101.507 407.633 101.24 408.073 101.04C408.513 100.84 408.98 100.74 409.473 100.74ZM423.268 97H425.748V111H423.268V110.04C422.815 110.44 422.308 110.747 421.748 110.96C421.188 111.173 420.608 111.28 420.008 111.28C418.995 111.28 418.108 111.053 417.348 110.6C416.588 110.147 416.001 109.52 415.588 108.72C415.188 107.92 414.988 107.02 414.988 106.02C414.988 105.02 415.188 104.12 415.588 103.32C416.001 102.52 416.588 101.893 417.348 101.44C418.108 100.973 418.995 100.74 420.008 100.74C420.608 100.74 421.181 100.853 421.728 101.08C422.288 101.293 422.801 101.593 423.268 101.98V97ZM420.328 108.9C420.875 108.9 421.368 108.78 421.808 108.54C422.261 108.287 422.615 107.94 422.868 107.5C423.135 107.06 423.268 106.56 423.268 106C423.268 105.16 422.981 104.473 422.408 103.94C421.848 103.407 421.155 103.14 420.328 103.14C419.488 103.14 418.795 103.413 418.248 103.96C417.715 104.493 417.448 105.18 417.448 106.02C417.448 106.86 417.715 107.553 418.248 108.1C418.795 108.633 419.488 108.9 420.328 108.9ZM440.096 101H442.696L439.196 111.02C438.676 112.393 437.956 113.42 437.036 114.1C436.13 114.793 435.056 115.093 433.816 115V112.6C433.896 112.613 434.016 112.62 434.176 112.62C435.243 112.62 436.076 111.973 436.676 110.68L432.276 101H434.936L437.876 107.36L440.096 101ZM448.8 111.28C447.854 111.28 446.974 111.047 446.16 110.58C445.36 110.1 444.72 109.46 444.24 108.66C443.774 107.847 443.54 106.967 443.54 106.02C443.54 105.073 443.774 104.2 444.24 103.4C444.72 102.587 445.36 101.947 446.16 101.48C446.974 101 447.854 100.76 448.8 100.76C449.747 100.76 450.62 101 451.42 101.48C452.234 101.947 452.874 102.587 453.34 103.4C453.82 104.2 454.06 105.073 454.06 106.02C454.06 106.967 453.82 107.847 453.34 108.66C452.874 109.46 452.234 110.1 451.42 110.58C450.62 111.047 449.747 111.28 448.8 111.28ZM448.78 108.8C449.287 108.8 449.754 108.68 450.18 108.44C450.607 108.187 450.947 107.847 451.2 107.42C451.454 106.993 451.58 106.527 451.58 106.02C451.58 105.513 451.454 105.047 451.2 104.62C450.947 104.193 450.607 103.853 450.18 103.6C449.754 103.347 449.287 103.22 448.78 103.22C448.274 103.22 447.807 103.347 447.38 103.6C446.954 103.853 446.614 104.193 446.36 104.62C446.12 105.047 446 105.513 446 106.02C446 106.527 446.12 106.993 446.36 107.42C446.614 107.847 446.954 108.187 447.38 108.44C447.807 108.68 448.274 108.8 448.78 108.8ZM461.943 101H464.423V111H461.943V110.16C461.583 110.493 461.183 110.76 460.743 110.96C460.303 111.16 459.837 111.26 459.343 111.26C458.757 111.26 458.157 111.14 457.543 110.9C456.943 110.647 456.423 110.2 455.983 109.56C455.557 108.92 455.343 108.06 455.343 106.98V101H457.823V106.98C457.823 107.727 458.03 108.267 458.443 108.6C458.87 108.92 459.363 109.08 459.923 109.08C460.483 109.08 460.957 108.887 461.343 108.5C461.743 108.1 461.943 107.467 461.943 106.6V101ZM472.931 100.8L472.751 103.14C472.671 103.113 472.531 103.1 472.331 103.1C471.504 103.1 470.818 103.34 470.271 103.82C469.738 104.3 469.471 104.953 469.471 105.78V111H466.991V101H469.471V102.68C469.698 102.147 470.084 101.7 470.631 101.34C471.178 100.98 471.838 100.8 472.611 100.8H472.931ZM485.465 100.74C486.479 100.74 487.365 100.967 488.125 101.42C488.899 101.873 489.485 102.5 489.885 103.3C490.299 104.1 490.505 105 490.505 106C490.505 107 490.299 107.9 489.885 108.7C489.485 109.5 488.899 110.133 488.125 110.6C487.365 111.053 486.479 111.28 485.465 111.28C484.865 111.28 484.285 111.173 483.725 110.96C483.179 110.733 482.672 110.42 482.205 110.02V115H479.725V101H482.205V101.98C482.659 101.58 483.165 101.273 483.725 101.06C484.285 100.847 484.865 100.74 485.465 100.74ZM485.165 108.88C485.992 108.88 486.672 108.613 487.205 108.08C487.752 107.533 488.025 106.84 488.025 106C488.025 105.16 487.752 104.473 487.205 103.94C486.672 103.393 485.992 103.12 485.165 103.12C484.619 103.12 484.119 103.247 483.665 103.5C483.212 103.74 482.852 104.08 482.585 104.52C482.332 104.96 482.205 105.46 482.205 106.02C482.205 106.86 482.485 107.547 483.045 108.08C483.619 108.613 484.325 108.88 485.165 108.88ZM493.486 99.34C493.019 99.34 492.652 99.2133 492.386 98.96C492.119 98.7067 491.986 98.36 491.986 97.92C491.986 97.4667 492.119 97.1133 492.386 96.86C492.652 96.6067 493.019 96.48 493.486 96.48C493.952 96.48 494.319 96.6067 494.586 96.86C494.852 97.1133 494.986 97.4667 494.986 97.92C494.986 98.3467 494.846 98.6933 494.566 98.96C494.299 99.2133 493.939 99.34 493.486 99.34ZM492.226 111V101H494.706V111H492.226ZM501.496 100.74C502.456 100.74 503.316 100.98 504.076 101.46C504.849 101.927 505.449 102.56 505.876 103.36C506.302 104.16 506.516 105.047 506.516 106.02C506.516 106.34 506.489 106.633 506.436 106.9H498.716C498.916 107.607 499.269 108.16 499.776 108.56C500.282 108.947 500.929 109.14 501.716 109.14C502.196 109.14 502.656 109.033 503.096 108.82C503.549 108.607 503.889 108.333 504.116 108L506.016 109.12C505.549 109.813 504.942 110.347 504.196 110.72C503.462 111.08 502.616 111.26 501.656 111.26C500.589 111.26 499.642 111.033 498.816 110.58C497.989 110.127 497.349 109.5 496.896 108.7C496.456 107.9 496.236 107 496.236 106C496.236 105.013 496.456 104.12 496.896 103.32C497.349 102.52 497.976 101.893 498.776 101.44C499.576 100.973 500.482 100.74 501.496 100.74ZM504.196 104.96C504.089 104.32 503.789 103.82 503.296 103.46C502.816 103.087 502.209 102.9 501.476 102.9C500.969 102.9 500.502 102.993 500.076 103.18C499.662 103.367 499.329 103.62 499.076 103.94C498.822 104.26 498.689 104.6 498.676 104.96H504.196ZM517.065 109.06C516.571 109.74 515.951 110.28 515.205 110.68C514.458 111.08 513.651 111.28 512.785 111.28C511.838 111.28 510.958 111.047 510.145 110.58C509.345 110.1 508.705 109.46 508.225 108.66C507.758 107.847 507.525 106.967 507.525 106.02C507.525 105.073 507.758 104.2 508.225 103.4C508.705 102.587 509.345 101.947 510.145 101.48C510.958 101 511.838 100.76 512.785 100.76C513.638 100.76 514.438 100.96 515.185 101.36C515.931 101.747 516.551 102.273 517.045 102.94L515.005 104.32C514.378 103.587 513.638 103.22 512.785 103.22C512.278 103.22 511.811 103.347 511.385 103.6C510.958 103.853 510.618 104.193 510.365 104.62C510.111 105.047 509.985 105.513 509.985 106.02C509.985 106.527 510.111 106.993 510.365 107.42C510.618 107.847 510.958 108.187 511.385 108.44C511.811 108.68 512.278 108.8 512.785 108.8C513.638 108.8 514.378 108.433 515.005 107.7L517.065 109.06ZM523.117 100.74C524.077 100.74 524.937 100.98 525.697 101.46C526.47 101.927 527.07 102.56 527.497 103.36C527.923 104.16 528.137 105.047 528.137 106.02C528.137 106.34 528.11 106.633 528.057 106.9H520.337C520.537 107.607 520.89 108.16 521.397 108.56C521.903 108.947 522.55 109.14 523.337 109.14C523.817 109.14 524.277 109.033 524.717 108.82C525.17 108.607 525.51 108.333 525.737 108L527.637 109.12C527.17 109.813 526.563 110.347 525.817 110.72C525.083 111.08 524.237 111.26 523.277 111.26C522.21 111.26 521.263 111.033 520.437 110.58C519.61 110.127 518.97 109.5 518.517 108.7C518.077 107.9 517.857 107 517.857 106C517.857 105.013 518.077 104.12 518.517 103.32C518.97 102.52 519.597 101.893 520.397 101.44C521.197 100.973 522.103 100.74 523.117 100.74ZM525.817 104.96C525.71 104.32 525.41 103.82 524.917 103.46C524.437 103.087 523.83 102.9 523.097 102.9C522.59 102.9 522.123 102.993 521.697 103.18C521.283 103.367 520.95 103.62 520.697 103.94C520.443 104.26 520.31 104.6 520.297 104.96H525.817ZM530.036 109.88C530.036 109.453 530.15 109.127 530.376 108.9C530.616 108.66 530.95 108.54 531.376 108.54C531.803 108.54 532.13 108.66 532.356 108.9C532.583 109.127 532.696 109.453 532.696 109.88C532.696 110.307 532.583 110.64 532.356 110.88C532.13 111.12 531.803 111.24 531.376 111.24C530.95 111.24 530.616 111.12 530.376 110.88C530.15 110.64 530.036 110.307 530.036 109.88Z" fill="#E6E8EB"/>
</svg>
