<svg width="117" height="41" viewBox="0 0 117 41" fill="none" xmlns="http://www.w3.org/2000/svg">
<path d="M15.9513 27.9666C16.2541 28.0432 16.3553 27.7739 16.5562 27.6645C17.6691 27.0602 18.4525 26.7464 19.724 27.242C19.9284 27.3213 20.9996 28.0637 21.0823 27.9666C21.2655 25.3068 22.0578 21.858 23.9151 19.851C26.3631 17.2048 28.7898 19.7437 28.9997 22.571C29.3374 27.1128 26.4246 30.5062 23.8003 33.8305C22.0161 36.0905 19.4369 37.6621 16.587 36.247C14.3482 35.1355 11.5633 31.7052 10.0252 29.6661C8.47958 27.6173 7.79257 25.2781 8.05097 22.6948C8.24169 20.7862 9.63623 18.3956 11.8839 19.1613C14.7379 20.1333 16.0107 25.2979 15.9506 27.9666H15.9513ZM12.7138 21.1512C12.0391 21.2538 11.8121 22.9798 11.7813 23.5376C11.7431 24.2288 11.8299 27.026 12.7937 27.0711C13.5218 27.1046 13.7727 25.6841 13.8157 25.142C13.8731 24.412 13.9661 20.9612 12.7138 21.1512ZM24.477 21.1505C24.2665 21.1902 24.1633 21.3153 24.0525 21.4834C23.4544 22.3892 23.4681 25.732 24.0539 26.6555C24.5509 27.4389 25.0909 27.0178 25.3644 26.3171C25.7916 25.2234 25.7677 22.77 25.2728 21.7015C25.1094 21.3488 24.933 21.0644 24.477 21.1505Z" fill="black"/>
<path d="M24.959 6.9606C25.2701 6.66324 25.8908 6.84302 26.1669 7.14175C26.6564 7.67154 27.1418 10.2384 26.9421 10.9159C26.6961 11.7519 24.4669 10.6035 24.2331 9.82076C24.0847 9.32378 24.6036 7.30103 24.959 6.9606Z" fill="black"/>
<path d="M11.4349 6.73922C12.1239 6.56832 12.6906 8.08658 12.8191 8.61978C13.1097 9.82427 13.0611 9.79078 12.0665 10.3691C11.6235 10.6268 10.3363 11.4335 10.1798 10.6145C10.0157 9.75728 10.4279 6.98873 11.4349 6.7399V6.73922Z" fill="black"/>
<path d="M24.477 21.1506C24.9336 21.0637 25.1093 21.3481 25.2727 21.7015C25.7683 22.77 25.7915 25.2241 25.3643 26.3172C25.0909 27.0178 24.5508 27.4389 24.0539 26.6555C23.4673 25.732 23.4537 22.3892 24.0525 21.4835C24.1632 21.3153 24.2664 21.1909 24.477 21.1506Z" fill="white"/>
<path d="M12.7138 21.1513C13.9661 20.9613 13.8738 24.4121 13.8157 25.1422C13.7727 25.6843 13.5218 27.1048 12.7938 27.0713C11.8292 27.0268 11.7431 24.2289 11.7814 23.5378C11.8121 22.9806 12.0391 21.2539 12.7138 21.1513Z" fill="white"/>
<path d="M16.4852 30.6259L17.8783 32.8113C18.0875 32.9904 18.3692 33.4566 18.6686 33.4095L20.6544 30.8911L20.4945 30.6259H16.4845H16.4852Z" fill="white"/>
<path d="M10.4139 0.88612C9.52388 1.71252 8.40228 5.6366 7.97836 6.94759C7.3162 8.99545 6.76059 10.6616 5.92236 12.6369C5.25355 14.212 4.97906 16.7482 3.5386 17.7684C2.60123 18.4328 0.919587 18.6932 0.68062 20.1144C0.429076 21.6111 0.817496 23.1559 1.66757 24.3892C2.00049 24.8723 2.99704 25.7179 3.07621 26.2181C3.37214 28.0832 2.02416 30.0652 2.30308 31.9592C2.49914 33.2939 3.24489 33.9279 4.57585 33.3641C4.97463 33.1955 5.32383 32.6391 5.86243 32.9106C6.62668 33.7281 5.73888 34.815 6.66811 35.574C7.10387 35.9306 7.63656 35.9484 8.17886 35.8056C8.92535 35.6095 9.26715 34.4532 10.1757 34.7262C10.5056 34.8253 12.4832 37.1876 13.0344 37.6522C15.1444 39.4323 18.2584 40.7958 21.0231 39.9642C22.2764 39.5876 24.2126 37.9903 25.1884 37.0744C25.7396 36.5573 27.3103 34.5782 27.8429 34.4073C28.9912 34.0396 29.0326 35.5607 29.4647 36.0372C29.8693 36.484 30.5322 36.484 31.0139 36.1888C32.0674 35.543 31.7056 33.3597 32.202 33.2088C32.8664 33.0061 33.5227 35.0709 34.8211 34.1291C35.5579 33.5942 35.5461 32.227 35.4914 31.4058C35.3604 29.4541 34.0361 27.3855 35.2746 25.5367C36.3888 23.8728 37.6953 23.4622 37.1952 21.037C36.8771 19.4937 35.4566 19.0409 34.5577 18.0081C33.4198 16.7008 32.6134 14.5205 31.8824 12.9373C30.5574 10.0653 30.3946 7.34932 29.2397 4.48246C28.9949 3.87505 27.8992 1.44987 27.5522 1.08292C27.0439 0.545796 26.4913 0.503626 25.889 0.910535C24.8888 1.58748 23.6858 5.2763 23.0481 6.50961C22.6123 7.35228 21.9923 8.58559 20.9625 8.70248C20.122 8.79792 16.8519 8.81049 16.158 8.53084C15.2317 8.15796 14.702 5.99542 14.3306 5.15571C14.0864 4.60453 13.7076 4.12068 13.4776 3.5806C13.1358 2.77714 13.0714 1.75321 12.5047 1.08514C11.938 0.417065 11.0886 0.258 10.4132 0.884641L10.4139 0.88612ZM26.6015 5.60479C27.6913 5.87483 28.1374 8.87116 27.9598 9.79818C27.7904 10.6845 26.3973 9.81075 25.9179 9.53257C24.8414 8.90667 24.7896 8.94293 25.1033 7.63934C25.2424 7.063 25.8557 5.41983 26.6015 5.60405V5.60479ZM11.9646 5.8445C12.3493 6.21293 12.9108 8.40211 12.7503 8.93997C12.4973 9.78708 10.0839 11.03 9.81833 10.1252C9.60229 9.39201 10.1283 6.61392 10.6573 6.04055C10.9562 5.71724 11.6287 5.52267 11.9646 5.8445ZM21.7134 28.5789C21.6483 25.6906 23.0259 20.1011 26.1147 19.0491C28.5473 18.2205 30.0565 20.8077 30.2629 22.8733C30.5426 25.6691 29.7983 28.2008 28.1263 30.4181C26.4617 32.6243 23.4476 36.3375 21.0246 37.5405C17.941 39.072 15.1488 37.3711 13.2179 34.9252C10.3776 31.3274 7.22594 27.6548 7.59068 22.7394C7.81781 19.6794 10.4442 16.9317 13.0936 19.7956C15.103 21.9677 15.9612 25.7002 16.1595 28.5789C16.249 28.6832 17.4083 27.8805 17.6295 27.7947C19.0056 27.2583 19.8535 27.5979 21.0579 28.2519C21.2754 28.3703 21.3849 28.6618 21.7127 28.5789H21.7134Z" fill="white"/>
<path d="M21.7135 28.5792C21.3857 28.662 21.2762 28.3705 21.0587 28.2522C19.8543 27.5982 19.0064 27.2586 17.6303 27.795C17.4091 27.8808 16.2498 28.6842 16.1603 28.5792C15.962 25.7005 15.1045 21.968 13.0944 19.7958C10.445 16.9319 7.81863 19.6797 7.5915 22.7397C7.22602 27.6551 10.3785 31.3277 13.2187 34.9255C15.1497 37.3714 17.9411 39.0723 21.0254 37.5408C23.4484 36.3378 26.4625 32.6253 28.1271 30.4184C29.7999 28.2011 30.5434 25.6694 30.2638 22.8736C30.0573 20.8079 28.5481 18.2207 26.1155 19.0494C23.0267 20.1014 21.6491 25.6909 21.7142 28.5792H21.7135ZM25.2173 21.203C25.9476 21.314 26.1932 23.1821 26.2265 23.7858C26.2679 24.5338 26.1739 27.5612 25.1308 27.61C24.3429 27.6462 24.0713 26.1089 24.0247 25.5222C23.9626 24.732 23.862 20.9973 25.2173 21.203ZM12.4863 21.2023C12.7141 21.2452 12.8258 21.3806 12.9457 21.5626C13.593 22.5429 13.5782 26.1607 12.9442 27.1602C12.4063 28.008 11.8219 27.5523 11.5259 26.794C11.0636 25.6102 11.0894 22.9549 11.6251 21.7986C11.8019 21.4168 11.9928 21.1091 12.4863 21.2023Z" fill="black"/>
<path d="M11.9648 5.84453C11.6282 5.5227 10.9564 5.71728 10.6575 6.04059C10.1278 6.61396 9.60249 9.39204 9.81852 10.1252C10.0849 11.03 12.4975 9.78712 12.7505 8.94C12.911 8.40214 12.3495 6.21297 11.9648 5.84453Z" fill="black"/>
<path d="M26.6016 5.6049C25.8558 5.41994 25.2425 7.06311 25.1034 7.64019C24.789 8.94378 24.8415 8.90752 25.9179 9.53342C26.3974 9.81234 27.7905 10.6853 27.9599 9.79902C28.1375 8.87127 27.6913 5.87494 26.6016 5.60564V5.6049Z" fill="black"/>
<path d="M12.4864 21.2018C11.9922 21.1078 11.802 21.4156 11.6252 21.7981C11.0888 22.9544 11.0637 25.6104 11.5261 26.7934C11.822 27.5518 12.4065 28.0075 12.9443 27.1596C13.5791 26.1601 13.5939 22.5423 12.9458 21.5621C12.826 21.3801 12.7143 21.2454 12.4864 21.2018Z" fill="white"/>
<path d="M25.2175 21.203C23.8621 20.9973 23.962 24.732 24.0249 25.5221C24.0715 26.1088 24.343 27.6462 25.1309 27.6099C26.1748 27.5618 26.2681 24.5337 26.2266 23.7857C26.1933 23.1828 25.9477 21.3139 25.2175 21.203Z" fill="white"/>
<path d="M21.1356 31.4567L19.6278 33.822C19.4014 34.0158 19.0966 34.5204 18.7725 34.4694L16.6233 31.7438L16.7964 31.4567H21.1363H21.1356Z" fill="white"/>
<path d="M53.214 25.238C53.214 25.7367 53.3313 26.0813 53.566 26.272C53.8007 26.4627 54.1747 26.558 54.688 26.558C54.996 26.558 55.3333 26.536 55.7 26.492V29C55.0107 29.0733 54.4387 29.11 53.984 29.11C52.8107 29.11 51.9307 28.846 51.344 28.318C50.772 27.7753 50.486 26.8073 50.486 25.414V20.442H48.418V18H50.486V15.294L53.214 14.37V18H55.656V20.442H53.214V25.238ZM66.1531 18H68.8811V29H66.1531V27.922C65.6398 28.362 65.0751 28.7067 64.4591 28.956C63.8578 29.1907 63.2198 29.308 62.5451 29.308C61.4304 29.308 60.4551 29.0587 59.6191 28.56C58.7831 28.0613 58.1378 27.372 57.6831 26.492C57.2431 25.612 57.0231 24.622 57.0231 23.522C57.0231 22.422 57.2431 21.432 57.6831 20.552C58.1378 19.672 58.7831 18.9827 59.6191 18.484C60.4551 17.9707 61.4304 17.714 62.5451 17.714C63.2198 17.714 63.8578 17.8387 64.4591 18.088C65.0751 18.3227 65.6398 18.66 66.1531 19.1V18ZM62.8971 26.69C63.4984 26.69 64.0411 26.558 64.5251 26.294C65.0238 26.0153 65.4124 25.634 65.6911 25.15C65.9844 24.666 66.1311 24.116 66.1311 23.5C66.1311 22.576 65.8158 21.8207 65.1851 21.234C64.5691 20.6473 63.8064 20.354 62.8971 20.354C61.9731 20.354 61.2104 20.6547 60.6091 21.256C60.0224 21.8427 59.7291 22.598 59.7291 23.522C59.7291 24.446 60.0224 25.2087 60.6091 25.81C61.2104 26.3967 61.9731 26.69 62.8971 26.69ZM76.6854 17.714C77.7414 17.714 78.6874 17.978 79.5234 18.506C80.3741 19.0193 81.0341 19.716 81.5034 20.596C81.9728 21.476 82.2074 22.4513 82.2074 23.522C82.2074 23.874 82.1781 24.1967 82.1194 24.49H73.6274C73.8474 25.2673 74.2361 25.876 74.7934 26.316C75.3508 26.7413 76.0621 26.954 76.9274 26.954C77.4554 26.954 77.9614 26.8367 78.4454 26.602C78.9441 26.3673 79.3181 26.0667 79.5674 25.7L81.6574 26.932C81.1441 27.6947 80.4768 28.2813 79.6554 28.692C78.8488 29.088 77.9174 29.286 76.8614 29.286C75.6881 29.286 74.6468 29.0367 73.7374 28.538C72.8281 28.0393 72.1241 27.35 71.6254 26.47C71.1414 25.59 70.8994 24.6 70.8994 23.5C70.8994 22.4147 71.1414 21.432 71.6254 20.552C72.1241 19.672 72.8134 18.9827 73.6934 18.484C74.5734 17.9707 75.5708 17.714 76.6854 17.714ZM79.6554 22.356C79.5381 21.652 79.2081 21.102 78.6654 20.706C78.1374 20.2953 77.4701 20.09 76.6634 20.09C76.1061 20.09 75.5928 20.1927 75.1234 20.398C74.6688 20.6033 74.3021 20.882 74.0234 21.234C73.7448 21.586 73.5981 21.96 73.5834 22.356H79.6554ZM92.5354 13.6H95.2634V29H92.5354V27.944C92.0367 28.384 91.4794 28.7213 90.8634 28.956C90.2474 29.1907 89.6094 29.308 88.9494 29.308C87.8347 29.308 86.8594 29.0587 86.0234 28.56C85.1874 28.0613 84.5421 27.372 84.0874 26.492C83.6474 25.612 83.4274 24.622 83.4274 23.522C83.4274 22.422 83.6474 21.432 84.0874 20.552C84.5421 19.672 85.1874 18.9827 86.0234 18.484C86.8594 17.9707 87.8347 17.714 88.9494 17.714C89.6094 17.714 90.2401 17.8387 90.8414 18.088C91.4574 18.3227 92.0221 18.6527 92.5354 19.078V13.6ZM89.3014 26.69C89.9027 26.69 90.4454 26.558 90.9294 26.294C91.4281 26.0153 91.8167 25.634 92.0954 25.15C92.3887 24.666 92.5354 24.116 92.5354 23.5C92.5354 22.576 92.2201 21.8207 91.5894 21.234C90.9734 20.6473 90.2107 20.354 89.3014 20.354C88.3774 20.354 87.6147 20.6547 87.0134 21.256C86.4267 21.8427 86.1334 22.598 86.1334 23.522C86.1334 24.446 86.4267 25.2087 87.0134 25.81C87.6147 26.3967 88.3774 26.69 89.3014 26.69ZM106.264 18H108.992V29H106.264V27.922C105.751 28.362 105.186 28.7067 104.57 28.956C103.969 29.1907 103.331 29.308 102.656 29.308C101.542 29.308 100.566 29.0587 99.7304 28.56C98.8944 28.0613 98.2491 27.372 97.7944 26.492C97.3544 25.612 97.1344 24.622 97.1344 23.522C97.1344 22.422 97.3544 21.432 97.7944 20.552C98.2491 19.672 98.8944 18.9827 99.7304 18.484C100.566 17.9707 101.542 17.714 102.656 17.714C103.331 17.714 103.969 17.8387 104.57 18.088C105.186 18.3227 105.751 18.66 106.264 19.1V18ZM103.008 26.69C103.61 26.69 104.152 26.558 104.636 26.294C105.135 26.0153 105.524 25.634 105.802 25.15C106.096 24.666 106.242 24.116 106.242 23.5C106.242 22.576 105.927 21.8207 105.296 21.234C104.68 20.6473 103.918 20.354 103.008 20.354C102.084 20.354 101.322 20.6547 100.72 21.256C100.134 21.8427 99.8404 22.598 99.8404 23.522C99.8404 24.446 100.134 25.2087 100.72 25.81C101.322 26.3967 102.084 26.69 103.008 26.69ZM114.204 25.898C114.204 26.1327 114.263 26.3013 114.38 26.404C114.498 26.5067 114.681 26.558 114.93 26.558C115.121 26.558 115.348 26.536 115.612 26.492V29C115.07 29.088 114.564 29.132 114.094 29.132C113.244 29.132 112.591 28.912 112.136 28.472C111.696 28.0173 111.476 27.218 111.476 26.074V13.6H114.204V25.898Z" fill="#E6E8EB"/>
</svg>
