<svg width="550" height="65" viewBox="0 0 550 65" fill="none" xmlns="http://www.w3.org/2000/svg">
<rect width="550" height="65" rx="32.5" fill="white"/>
<path d="M32.6009 20.2328C33.4668 20.2328 34.2244 20.4322 34.8738 20.831C35.5233 21.2184 36.0189 21.7538 36.3607 22.4374C36.7139 23.121 36.8905 23.8901 36.8905 24.7446C36.8905 25.5991 36.7139 26.3681 36.3607 27.0517C36.0189 27.7353 35.5233 28.2708 34.8738 28.6582C34.2244 29.0456 33.4668 29.2393 32.6009 29.2393C32.0426 29.2393 31.5071 29.131 30.9944 28.9145C30.4817 28.6981 30.026 28.3962 29.6272 28.0088V29H27.5081V17.037H29.6272V21.4633C30.026 21.0759 30.4817 20.774 30.9944 20.5575C31.5185 20.3411 32.054 20.2328 32.6009 20.2328ZM32.3274 27.2055C33.0452 27.2055 33.632 26.9777 34.0877 26.5219C34.5548 26.0548 34.7884 25.4624 34.7884 24.7446C34.7884 24.0268 34.5548 23.4401 34.0877 22.9843C33.632 22.5172 33.0452 22.2836 32.3274 22.2836C31.621 22.2836 31.0229 22.5115 30.533 22.9672C30.0545 23.423 29.8152 24.0097 29.8152 24.7275C29.8152 25.206 29.9234 25.6333 30.1399 26.0092C30.3678 26.3852 30.6697 26.6815 31.0457 26.8979C31.4331 27.103 31.8603 27.2055 32.3274 27.2055ZM44.972 20.455H47.0912V29H44.972V28.1626C44.5733 28.5044 44.1346 28.7721 43.6561 28.9658C43.189 29.1481 42.6934 29.2393 42.1693 29.2393C41.3034 29.2393 40.5457 29.0456 39.8963 28.6582C39.2469 28.2708 38.7456 27.7353 38.3924 27.0517C38.0506 26.3681 37.8797 25.5991 37.8797 24.7446C37.8797 23.8901 38.0506 23.121 38.3924 22.4374C38.7456 21.7538 39.2469 21.2184 39.8963 20.831C40.5457 20.4322 41.3034 20.2328 42.1693 20.2328C42.6934 20.2328 43.189 20.3297 43.6561 20.5234C44.1346 20.7057 44.5733 20.9677 44.972 21.3095V20.455ZM42.4427 27.2055C42.9098 27.2055 43.3314 27.103 43.7074 26.8979C44.0947 26.6815 44.3967 26.3852 44.6131 26.0092C44.841 25.6333 44.9549 25.206 44.9549 24.7275C44.9549 24.0097 44.71 23.423 44.2201 22.9672C43.7415 22.5115 43.1491 22.2836 42.4427 22.2836C41.7249 22.2836 41.1325 22.5172 40.6653 22.9843C40.2096 23.4401 39.9817 24.0268 39.9817 24.7446C39.9817 25.4624 40.2096 26.0548 40.6653 26.5219C41.1325 26.9777 41.7249 27.2055 42.4427 27.2055ZM50.783 22.8476C50.783 23.0869 50.9141 23.2692 51.1761 23.3945C51.4495 23.5084 51.8768 23.628 52.4578 23.7534C53.1187 23.8901 53.6712 24.0439 54.1156 24.2148C54.5599 24.3857 54.9416 24.6591 55.2606 25.0351C55.591 25.3997 55.7562 25.8953 55.7562 26.5219C55.7562 27.0802 55.5853 27.5644 55.2435 27.9746C54.9131 28.3848 54.4688 28.6981 53.9105 28.9145C53.3522 29.1196 52.7427 29.2222 52.0819 29.2222C51.1818 29.2222 50.407 29.0513 49.7576 28.7095C49.1196 28.3677 48.6468 27.8778 48.3392 27.2397L50.0823 26.334C50.39 27.1201 51.0565 27.5132 52.0819 27.5132C52.5262 27.5132 52.9079 27.4277 53.2269 27.2568C53.5459 27.0859 53.7054 26.841 53.7054 26.5219C53.7054 26.2485 53.5573 26.0491 53.2611 25.9238C52.9762 25.7871 52.5091 25.639 51.8597 25.4795C51.1875 25.32 50.6406 25.1604 50.2191 25.0009C49.7975 24.8414 49.4329 24.5965 49.1253 24.2661C48.8177 23.9243 48.6639 23.4742 48.6639 22.916C48.6639 22.3691 48.8177 21.8963 49.1253 21.4975C49.4329 21.0873 49.8488 20.774 50.3729 20.5575C50.897 20.3411 51.4723 20.2328 52.099 20.2328C52.8395 20.2328 53.5003 20.3866 54.0814 20.6943C54.6739 21.0019 55.1296 21.4405 55.4486 22.0102L53.7225 22.8818C53.4263 22.2438 52.8851 21.9247 52.099 21.9247C51.7002 21.9247 51.3812 22.0102 51.1419 22.1811C50.9027 22.3406 50.783 22.5628 50.783 22.8476ZM61.0812 20.2328C61.9015 20.2328 62.6364 20.4379 63.2858 20.8481C63.9466 21.2468 64.4593 21.788 64.8239 22.4716C65.1885 23.1552 65.3708 23.9129 65.3708 24.7446C65.3708 25.018 65.348 25.2687 65.3025 25.4965H58.7057C58.8766 26.1004 59.1785 26.5732 59.6115 26.915C60.0444 27.2454 60.597 27.4106 61.2692 27.4106C61.6794 27.4106 62.0724 27.3195 62.4484 27.1372C62.8358 26.9549 63.1263 26.7213 63.32 26.4365L64.9436 27.3935C64.5448 27.986 64.0264 28.4417 63.3884 28.7607C62.7617 29.0684 62.0383 29.2222 61.2179 29.2222C60.3065 29.2222 59.4976 29.0285 58.7912 28.6411C58.0848 28.2537 57.5379 27.7182 57.1505 27.0346C56.7745 26.351 56.5866 25.582 56.5866 24.7275C56.5866 23.8844 56.7745 23.121 57.1505 22.4374C57.5379 21.7538 58.0734 21.2184 58.757 20.831C59.4406 20.4322 60.2153 20.2328 61.0812 20.2328ZM63.3884 23.8388C63.2972 23.2919 63.0409 22.8647 62.6193 22.5571C62.2092 22.2381 61.6908 22.0785 61.0641 22.0785C60.6312 22.0785 60.2324 22.1583 59.8678 22.3178C59.5146 22.4773 59.2298 22.6938 59.0133 22.9672C58.7969 23.2407 58.6829 23.5312 58.6715 23.8388H63.3884ZM73.2804 22.8476C73.2804 23.0869 73.4114 23.2692 73.6735 23.3945C73.9469 23.5084 74.3742 23.628 74.9552 23.7534C75.616 23.8901 76.1686 24.0439 76.613 24.2148C77.0573 24.3857 77.439 24.6591 77.758 25.0351C78.0884 25.3997 78.2536 25.8953 78.2536 26.5219C78.2536 27.0802 78.0827 27.5644 77.7409 27.9746C77.4105 28.3848 76.9662 28.6981 76.4079 28.9145C75.8496 29.1196 75.2401 29.2222 74.5793 29.2222C73.6792 29.2222 72.9044 29.0513 72.255 28.7095C71.617 28.3677 71.1442 27.8778 70.8365 27.2397L72.5797 26.334C72.8873 27.1201 73.5539 27.5132 74.5793 27.5132C75.0236 27.5132 75.4053 27.4277 75.7243 27.2568C76.0433 27.0859 76.2028 26.841 76.2028 26.5219C76.2028 26.2485 76.0547 26.0491 75.7585 25.9238C75.4736 25.7871 75.0065 25.639 74.3571 25.4795C73.6849 25.32 73.138 25.1604 72.7164 25.0009C72.2949 24.8414 71.9303 24.5965 71.6227 24.2661C71.3151 23.9243 71.1613 23.4742 71.1613 22.916C71.1613 22.3691 71.3151 21.8963 71.6227 21.4975C71.9303 21.0873 72.3462 20.774 72.8703 20.5575C73.3943 20.3411 73.9697 20.2328 74.5963 20.2328C75.3369 20.2328 75.9977 20.3866 76.5788 20.6943C77.1712 21.0019 77.627 21.4405 77.946 22.0102L76.2199 22.8818C75.9237 22.2438 75.3825 21.9247 74.5963 21.9247C74.1976 21.9247 73.8786 22.0102 73.6393 22.1811C73.4 22.3406 73.2804 22.5628 73.2804 22.8476ZM83.5786 20.2328C84.3989 20.2328 85.1338 20.4379 85.7832 20.8481C86.444 21.2468 86.9567 21.788 87.3213 22.4716C87.6859 23.1552 87.8682 23.9129 87.8682 24.7446C87.8682 25.018 87.8454 25.2687 87.7998 25.4965H81.2031C81.374 26.1004 81.6759 26.5732 82.1089 26.915C82.5418 27.2454 83.0944 27.4106 83.7666 27.4106C84.1768 27.4106 84.5698 27.3195 84.9458 27.1372C85.3332 26.9549 85.6237 26.7213 85.8174 26.4365L87.4409 27.3935C87.0422 27.986 86.5238 28.4417 85.8858 28.7607C85.2591 29.0684 84.5356 29.2222 83.7153 29.2222C82.8039 29.2222 81.9949 29.0285 81.2885 28.6411C80.5822 28.2537 80.0353 27.7182 79.6479 27.0346C79.2719 26.351 79.0839 25.582 79.0839 24.7275C79.0839 23.8844 79.2719 23.121 79.6479 22.4374C80.0353 21.7538 80.5708 21.2184 81.2544 20.831C81.938 20.4322 82.7127 20.2328 83.5786 20.2328ZM85.8858 23.8388C85.7946 23.2919 85.5383 22.8647 85.1167 22.5571C84.7065 22.2381 84.1882 22.0785 83.5615 22.0785C83.1286 22.0785 82.7298 22.1583 82.3652 22.3178C82.012 22.4773 81.7272 22.6938 81.5107 22.9672C81.2942 23.2407 81.1803 23.5312 81.1689 23.8388H85.8858ZM94.4476 20.2328C95.3135 20.2328 96.0711 20.4265 96.7206 20.8139C97.3814 21.2013 97.8827 21.7367 98.2245 22.4203C98.5777 23.1039 98.7543 23.873 98.7543 24.7275C98.7543 25.582 98.5777 26.351 98.2245 27.0346C97.8827 27.7182 97.3814 28.2594 96.7206 28.6582C96.0711 29.0456 95.3135 29.2393 94.4476 29.2393C93.9349 29.2393 93.4393 29.1481 92.9607 28.9658C92.4936 28.7721 92.0607 28.5044 91.6619 28.1626V32.418H89.5427V20.455H91.6619V21.2924C92.0493 20.9506 92.4822 20.6886 92.9607 20.5063C93.4393 20.324 93.9349 20.2328 94.4476 20.2328ZM94.1912 27.1885C94.8976 27.1885 95.4787 26.9606 95.9344 26.5049C96.4015 26.0377 96.6351 25.4453 96.6351 24.7275C96.6351 24.0097 96.4015 23.423 95.9344 22.9672C95.4787 22.5001 94.8976 22.2665 94.1912 22.2665C93.7241 22.2665 93.2969 22.3748 92.9095 22.5912C92.5221 22.7963 92.2145 23.0869 91.9866 23.4628C91.7701 23.8388 91.6619 24.2661 91.6619 24.7446C91.6619 25.4624 91.9012 26.0491 92.3797 26.5049C92.8696 26.9606 93.4735 27.1885 94.1912 27.1885ZM104.207 29.2393C103.398 29.2393 102.646 29.0399 101.951 28.6411C101.267 28.2309 100.72 27.6841 100.31 27.0005C99.9115 26.3055 99.7121 25.5535 99.7121 24.7446C99.7121 23.9357 99.9115 23.1894 100.31 22.5058C100.72 21.8108 101.267 21.2639 101.951 20.8652C102.646 20.455 103.398 20.2499 104.207 20.2499C105.016 20.2499 105.762 20.455 106.446 20.8652C107.141 21.2639 107.687 21.8108 108.086 22.5058C108.496 23.1894 108.701 23.9357 108.701 24.7446C108.701 25.5535 108.496 26.3055 108.086 27.0005C107.687 27.6841 107.141 28.2309 106.446 28.6411C105.762 29.0399 105.016 29.2393 104.207 29.2393ZM104.19 27.1201C104.623 27.1201 105.021 27.0176 105.386 26.8125C105.751 26.596 106.041 26.3055 106.258 25.9409C106.474 25.5763 106.582 25.1775 106.582 24.7446C106.582 24.3116 106.474 23.9129 106.258 23.5483C106.041 23.1837 105.751 22.8932 105.386 22.6767C105.021 22.4602 104.623 22.352 104.19 22.352C103.757 22.352 103.358 22.4602 102.993 22.6767C102.629 22.8932 102.338 23.1837 102.122 23.5483C101.917 23.9129 101.814 24.3116 101.814 24.7446C101.814 25.1775 101.917 25.5763 102.122 25.9409C102.338 26.3055 102.629 26.596 102.993 26.8125C103.358 27.0176 103.757 27.1201 104.19 27.1201ZM112.173 26.5903C112.173 26.7726 112.219 26.9036 112.31 26.9834C112.401 27.0631 112.544 27.103 112.737 27.103C112.885 27.103 113.062 27.0859 113.267 27.0517V29C112.845 29.0684 112.452 29.1025 112.088 29.1025C111.427 29.1025 110.92 28.9316 110.567 28.5898C110.225 28.2366 110.054 27.6157 110.054 26.727V17.037H112.173V26.5903ZM115.971 19.0365C115.572 19.0365 115.259 18.9283 115.031 18.7118C114.803 18.4953 114.689 18.1991 114.689 17.8231C114.689 17.4358 114.803 17.1338 115.031 16.9174C115.259 16.7009 115.572 16.5927 115.971 16.5927C116.37 16.5927 116.683 16.7009 116.911 16.9174C117.139 17.1338 117.253 17.4358 117.253 17.8231C117.253 18.1877 117.133 18.484 116.894 18.7118C116.666 18.9283 116.358 19.0365 115.971 19.0365ZM114.894 29V20.455H117.014V29H114.894ZM125.832 20.455H127.952V29H125.832V28.1626C125.434 28.5044 124.995 28.7721 124.517 28.9658C124.049 29.1481 123.554 29.2393 123.03 29.2393C122.164 29.2393 121.406 29.0456 120.757 28.6582C120.107 28.2708 119.606 27.7353 119.253 27.0517C118.911 26.3681 118.74 25.5991 118.74 24.7446C118.74 23.8901 118.911 23.121 119.253 22.4374C119.606 21.7538 120.107 21.2184 120.757 20.831C121.406 20.4322 122.164 20.2328 123.03 20.2328C123.554 20.2328 124.049 20.3297 124.517 20.5234C124.995 20.7057 125.434 20.9677 125.832 21.3095V20.455ZM123.303 27.2055C123.77 27.2055 124.192 27.103 124.568 26.8979C124.955 26.6815 125.257 26.3852 125.474 26.0092C125.701 25.6333 125.815 25.206 125.815 24.7275C125.815 24.0097 125.57 23.423 125.08 22.9672C124.602 22.5115 124.009 22.2836 123.303 22.2836C122.585 22.2836 121.993 22.5172 121.526 22.9843C121.07 23.4401 120.842 24.0268 120.842 24.7446C120.842 25.4624 121.07 26.0548 121.526 26.5219C121.993 26.9777 122.585 27.2055 123.303 27.2055ZM138.041 25.7529H133.94V23.9584H138.041V25.7529Z" fill="black"/>
<path d="M147.503 15.8749H149.075V17.4813C150.465 17.6408 151.622 18.1535 152.545 19.0194L151.229 20.6943C150.591 20.079 149.839 19.703 148.973 19.5663V22.0956C149.759 22.2893 150.42 22.5115 150.955 22.7621C151.502 23.0014 151.946 23.3489 152.288 23.8046C152.641 24.2604 152.818 24.8471 152.818 25.5649C152.818 26.5903 152.482 27.4163 151.81 28.043C151.149 28.6696 150.237 29.0399 149.075 29.1538V30.709H147.503V29.1709C145.828 29.0456 144.484 28.4531 143.47 27.3935L144.769 25.6504C145.555 26.4935 146.529 26.9891 147.691 27.1372V24.3002C146.905 24.118 146.244 23.9129 145.709 23.685C145.173 23.4457 144.729 23.1039 144.376 22.6596C144.022 22.2039 143.846 21.6057 143.846 20.8652C143.846 20.2841 143.994 19.7486 144.29 19.2587C144.586 18.7688 145.008 18.3643 145.555 18.0453C146.113 17.7263 146.763 17.5326 147.503 17.4642V15.8749ZM146.256 20.643C146.256 20.9392 146.369 21.1728 146.597 21.3437C146.837 21.5146 147.201 21.6684 147.691 21.8051V19.4467C147.247 19.4695 146.894 19.5948 146.631 19.8227C146.381 20.0391 146.256 20.3126 146.256 20.643ZM148.973 27.1372C149.417 27.0802 149.765 26.9435 150.015 26.727C150.277 26.4992 150.408 26.2029 150.408 25.8383C150.408 25.4965 150.294 25.2402 150.067 25.0693C149.839 24.8984 149.474 24.7332 148.973 24.5737V27.1372ZM158.565 29.2222C157.574 29.2222 156.708 28.9658 155.967 28.4531C155.238 27.929 154.674 27.1999 154.276 26.2656C153.888 25.3313 153.694 24.249 153.694 23.0185C153.694 21.788 153.888 20.7057 154.276 19.7714C154.674 18.8371 155.238 18.1137 155.967 17.601C156.708 17.0769 157.574 16.8148 158.565 16.8148C159.556 16.8148 160.417 17.0769 161.146 17.601C161.875 18.1137 162.433 18.8371 162.821 19.7714C163.219 20.7057 163.419 21.788 163.419 23.0185C163.419 24.249 163.219 25.3313 162.821 26.2656C162.433 27.1999 161.875 27.929 161.146 28.4531C160.417 28.9658 159.556 29.2222 158.565 29.2222ZM158.565 26.9834C159.374 26.9834 160.012 26.6587 160.479 26.0092C160.958 25.3484 161.197 24.3515 161.197 23.0185C161.197 21.6855 160.958 20.6943 160.479 20.0448C160.012 19.384 159.374 19.0536 158.565 19.0536C157.756 19.0536 157.112 19.384 156.634 20.0448C156.167 20.6943 155.933 21.6855 155.933 23.0185C155.933 24.3515 156.167 25.3484 156.634 26.0092C157.112 26.6587 157.756 26.9834 158.565 26.9834ZM164.728 28.043C164.728 27.6784 164.824 27.3992 165.018 27.2055C165.223 27.0005 165.508 26.8979 165.873 26.8979C166.237 26.8979 166.516 27.0005 166.71 27.2055C166.904 27.3992 167.001 27.6784 167.001 28.043C167.001 28.4075 166.904 28.6924 166.71 28.8975C166.516 29.1025 166.237 29.2051 165.873 29.2051C165.508 29.2051 165.223 29.1025 165.018 28.8975C164.824 28.6924 164.728 28.4075 164.728 28.043ZM173.202 29.2222C172.211 29.2222 171.345 28.9658 170.604 28.4531C169.875 27.929 169.311 27.1999 168.912 26.2656C168.525 25.3313 168.331 24.249 168.331 23.0185C168.331 21.788 168.525 20.7057 168.912 19.7714C169.311 18.8371 169.875 18.1137 170.604 17.601C171.345 17.0769 172.211 16.8148 173.202 16.8148C174.193 16.8148 175.053 17.0769 175.782 17.601C176.512 18.1137 177.07 18.8371 177.457 19.7714C177.856 20.7057 178.055 21.788 178.055 23.0185C178.055 24.249 177.856 25.3313 177.457 26.2656C177.07 27.1999 176.512 27.929 175.782 28.4531C175.053 28.9658 174.193 29.2222 173.202 29.2222ZM173.202 26.9834C174.011 26.9834 174.649 26.6587 175.116 26.0092C175.594 25.3484 175.834 24.3515 175.834 23.0185C175.834 21.6855 175.594 20.6943 175.116 20.0448C174.649 19.384 174.011 19.0536 173.202 19.0536C172.393 19.0536 171.749 19.384 171.271 20.0448C170.803 20.6943 170.57 21.6855 170.57 23.0185C170.57 24.3515 170.803 25.3484 171.271 26.0092C171.749 26.6587 172.393 26.9834 173.202 26.9834ZM184.696 17.037V26.8808H187.943V29H178.971V26.8808H182.457V19.4296L180.595 20.5575L179.433 18.8144L182.457 17.0541V17.037H184.696Z" fill="black" fill-opacity="0.3"/>
<path d="M28.966 44.885C28.966 45.045 29.006 45.16 29.086 45.23C29.166 45.3 29.291 45.335 29.461 45.335C29.591 45.335 29.746 45.32 29.926 45.29V47C29.556 47.06 29.211 47.09 28.891 47.09C28.311 47.09 27.866 46.94 27.556 46.64C27.256 46.33 27.106 45.785 27.106 45.005V36.5H28.966V44.885ZM34.3517 47.21C33.6417 47.21 32.9817 47.035 32.3717 46.685C31.7717 46.325 31.2917 45.845 30.9317 45.245C30.5817 44.635 30.4067 43.975 30.4067 43.265C30.4067 42.555 30.5817 41.9 30.9317 41.3C31.2917 40.69 31.7717 40.21 32.3717 39.86C32.9817 39.5 33.6417 39.32 34.3517 39.32C35.0617 39.32 35.7167 39.5 36.3167 39.86C36.9267 40.21 37.4067 40.69 37.7567 41.3C38.1167 41.9 38.2967 42.555 38.2967 43.265C38.2967 43.975 38.1167 44.635 37.7567 45.245C37.4067 45.845 36.9267 46.325 36.3167 46.685C35.7167 47.035 35.0617 47.21 34.3517 47.21ZM34.3367 45.35C34.7167 45.35 35.0667 45.26 35.3867 45.08C35.7067 44.89 35.9617 44.635 36.1517 44.315C36.3417 43.995 36.4367 43.645 36.4367 43.265C36.4367 42.885 36.3417 42.535 36.1517 42.215C35.9617 41.895 35.7067 41.64 35.3867 41.45C35.0667 41.26 34.7167 41.165 34.3367 41.165C33.9567 41.165 33.6067 41.26 33.2867 41.45C32.9667 41.64 32.7117 41.895 32.5217 42.215C32.3417 42.535 32.2517 42.885 32.2517 43.265C32.2517 43.645 32.3417 43.995 32.5217 44.315C32.7117 44.635 32.9667 44.89 33.2867 45.08C33.6067 45.26 33.9567 45.35 34.3367 45.35ZM46.4499 44.045L47.8449 39.5H49.7949L47.3649 47H45.5199L44.1099 42.545L42.6999 47H40.8849L38.5149 39.5H40.4499L41.7999 44.015L43.1199 39.5H45.0999L46.4499 44.045ZM59.0205 38.075C58.7705 38.045 58.5455 38.03 58.3455 38.03C57.9955 38.03 57.7405 38.095 57.5805 38.225C57.4205 38.355 57.3405 38.595 57.3405 38.945V39.5H59.0055V41.165H57.3405V47H55.4805V41.165H54.2355V39.5H55.4805V38.825C55.4805 37.875 55.6755 37.22 56.0655 36.86C56.4555 36.49 57.0455 36.305 57.8355 36.305C58.1455 36.305 58.5405 36.33 59.0205 36.38V38.075ZM63.297 39.305C64.017 39.305 64.662 39.485 65.232 39.845C65.812 40.195 66.262 40.67 66.582 41.27C66.902 41.87 67.062 42.535 67.062 43.265C67.062 43.505 67.042 43.725 67.002 43.925H61.212C61.362 44.455 61.627 44.87 62.007 45.17C62.387 45.46 62.872 45.605 63.462 45.605C63.822 45.605 64.167 45.525 64.497 45.365C64.837 45.205 65.092 45 65.262 44.75L66.687 45.59C66.337 46.11 65.882 46.51 65.322 46.79C64.772 47.06 64.137 47.195 63.417 47.195C62.617 47.195 61.907 47.025 61.287 46.685C60.667 46.345 60.187 45.875 59.847 45.275C59.517 44.675 59.352 44 59.352 43.25C59.352 42.51 59.517 41.84 59.847 41.24C60.187 40.64 60.657 40.17 61.257 39.83C61.857 39.48 62.537 39.305 63.297 39.305ZM65.322 42.47C65.242 41.99 65.017 41.615 64.647 41.345C64.287 41.065 63.832 40.925 63.282 40.925C62.902 40.925 62.552 40.995 62.232 41.135C61.922 41.275 61.672 41.465 61.482 41.705C61.292 41.945 61.192 42.2 61.182 42.47H65.322ZM71.7638 39.305C72.4838 39.305 73.1288 39.485 73.6988 39.845C74.2788 40.195 74.7288 40.67 75.0488 41.27C75.3688 41.87 75.5288 42.535 75.5288 43.265C75.5288 43.505 75.5088 43.725 75.4688 43.925H69.6788C69.8288 44.455 70.0938 44.87 70.4738 45.17C70.8538 45.46 71.3388 45.605 71.9288 45.605C72.2888 45.605 72.6338 45.525 72.9638 45.365C73.3038 45.205 73.5588 45 73.7288 44.75L75.1538 45.59C74.8038 46.11 74.3488 46.51 73.7888 46.79C73.2388 47.06 72.6038 47.195 71.8838 47.195C71.0838 47.195 70.3738 47.025 69.7538 46.685C69.1338 46.345 68.6538 45.875 68.3138 45.275C67.9838 44.675 67.8188 44 67.8188 43.25C67.8188 42.51 67.9838 41.84 68.3138 41.24C68.6538 40.64 69.1238 40.17 69.7238 39.83C70.3238 39.48 71.0038 39.305 71.7638 39.305ZM73.7888 42.47C73.7088 41.99 73.4838 41.615 73.1138 41.345C72.7538 41.065 72.2988 40.925 71.7488 40.925C71.3688 40.925 71.0188 40.995 70.6988 41.135C70.3888 41.275 70.1388 41.465 69.9488 41.705C69.7588 41.945 69.6588 42.2 69.6488 42.47H73.7888ZM78.3256 41.6C78.3256 41.81 78.4406 41.97 78.6706 42.08C78.9106 42.18 79.2856 42.285 79.7956 42.395C80.3756 42.515 80.8606 42.65 81.2506 42.8C81.6406 42.95 81.9756 43.19 82.2556 43.52C82.5456 43.84 82.6906 44.275 82.6906 44.825C82.6906 45.315 82.5406 45.74 82.2406 46.1C81.9506 46.46 81.5606 46.735 81.0706 46.925C80.5806 47.105 80.0456 47.195 79.4656 47.195C78.6756 47.195 77.9956 47.045 77.4256 46.745C76.8656 46.445 76.4506 46.015 76.1806 45.455L77.7106 44.66C77.9806 45.35 78.5656 45.695 79.4656 45.695C79.8556 45.695 80.1906 45.62 80.4706 45.47C80.7506 45.32 80.8906 45.105 80.8906 44.825C80.8906 44.585 80.7606 44.41 80.5006 44.3C80.2506 44.18 79.8406 44.05 79.2706 43.91C78.6806 43.77 78.2006 43.63 77.8306 43.49C77.4606 43.35 77.1406 43.135 76.8706 42.845C76.6006 42.545 76.4656 42.15 76.4656 41.66C76.4656 41.18 76.6006 40.765 76.8706 40.415C77.1406 40.055 77.5056 39.78 77.9656 39.59C78.4256 39.4 78.9306 39.305 79.4806 39.305C80.1306 39.305 80.7106 39.44 81.2206 39.71C81.7406 39.98 82.1406 40.365 82.4206 40.865L80.9056 41.63C80.6456 41.07 80.1706 40.79 79.4806 40.79C79.1306 40.79 78.8506 40.865 78.6406 41.015C78.4306 41.155 78.3256 41.35 78.3256 41.6ZM84.7624 47.135C84.4624 47.055 84.2624 46.95 84.1624 46.82C84.0724 46.68 84.0274 46.435 84.0274 46.085C84.0274 45.745 84.1174 45.48 84.2974 45.29C84.4874 45.1 84.7524 45.005 85.0924 45.005C85.4324 45.005 85.6974 45.105 85.8874 45.305C86.0774 45.495 86.1724 45.765 86.1724 46.115C86.1624 46.505 86.1124 46.82 86.0224 47.06C85.9424 47.3 85.7774 47.595 85.5274 47.945L84.7774 48.965L84.1774 48.47L84.7624 47.135ZM95.9785 38.075C95.7285 38.045 95.5035 38.03 95.3035 38.03C94.9535 38.03 94.6985 38.095 94.5385 38.225C94.3785 38.355 94.2985 38.595 94.2985 38.945V39.5H95.9635V41.165H94.2985V47H92.4385V41.165H91.1935V39.5H92.4385V38.825C92.4385 37.875 92.6335 37.22 93.0235 36.86C93.4135 36.49 94.0035 36.305 94.7935 36.305C95.1035 36.305 95.4985 36.33 95.9785 36.38V38.075ZM102.61 39.5H104.47V47H102.61V46.265C102.26 46.565 101.875 46.8 101.455 46.97C101.045 47.13 100.61 47.21 100.15 47.21C99.39 47.21 98.725 47.04 98.155 46.7C97.585 46.36 97.145 45.89 96.835 45.29C96.535 44.69 96.385 44.015 96.385 43.265C96.385 42.515 96.535 41.84 96.835 41.24C97.145 40.64 97.585 40.17 98.155 39.83C98.725 39.48 99.39 39.305 100.15 39.305C100.61 39.305 101.045 39.39 101.455 39.56C101.875 39.72 102.26 39.95 102.61 40.25V39.5ZM100.39 45.425C100.8 45.425 101.17 45.335 101.5 45.155C101.84 44.965 102.105 44.705 102.295 44.375C102.495 44.045 102.595 43.67 102.595 43.25C102.595 42.62 102.38 42.105 101.95 41.705C101.53 41.305 101.01 41.105 100.39 41.105C99.76 41.105 99.24 41.31 98.83 41.72C98.43 42.12 98.23 42.635 98.23 43.265C98.23 43.895 98.43 44.415 98.83 44.825C99.24 45.225 99.76 45.425 100.39 45.425ZM107.71 41.6C107.71 41.81 107.825 41.97 108.055 42.08C108.295 42.18 108.67 42.285 109.18 42.395C109.76 42.515 110.245 42.65 110.635 42.8C111.025 42.95 111.36 43.19 111.64 43.52C111.93 43.84 112.075 44.275 112.075 44.825C112.075 45.315 111.925 45.74 111.625 46.1C111.335 46.46 110.945 46.735 110.455 46.925C109.965 47.105 109.43 47.195 108.85 47.195C108.06 47.195 107.38 47.045 106.81 46.745C106.25 46.445 105.835 46.015 105.565 45.455L107.095 44.66C107.365 45.35 107.95 45.695 108.85 45.695C109.24 45.695 109.575 45.62 109.855 45.47C110.135 45.32 110.275 45.105 110.275 44.825C110.275 44.585 110.145 44.41 109.885 44.3C109.635 44.18 109.225 44.05 108.655 43.91C108.065 43.77 107.585 43.63 107.215 43.49C106.845 43.35 106.525 43.135 106.255 42.845C105.985 42.545 105.85 42.15 105.85 41.66C105.85 41.18 105.985 40.765 106.255 40.415C106.525 40.055 106.89 39.78 107.35 39.59C107.81 39.4 108.315 39.305 108.865 39.305C109.515 39.305 110.095 39.44 110.605 39.71C111.125 39.98 111.525 40.365 111.805 40.865L110.29 41.63C110.03 41.07 109.555 40.79 108.865 40.79C108.515 40.79 108.235 40.865 108.025 41.015C107.815 41.155 107.71 41.35 107.71 41.6ZM115.819 44.435C115.819 44.775 115.899 45.01 116.059 45.14C116.219 45.27 116.474 45.335 116.824 45.335C117.034 45.335 117.264 45.32 117.514 45.29V47C117.044 47.05 116.654 47.075 116.344 47.075C115.544 47.075 114.944 46.895 114.544 46.535C114.154 46.165 113.959 45.505 113.959 44.555V41.165H112.549V39.5H113.959V37.655L115.819 37.025V39.5H117.484V41.165H115.819V44.435ZM125.575 44.435C125.575 44.775 125.655 45.01 125.815 45.14C125.975 45.27 126.23 45.335 126.58 45.335C126.79 45.335 127.02 45.32 127.27 45.29V47C126.8 47.05 126.41 47.075 126.1 47.075C125.3 47.075 124.7 46.895 124.3 46.535C123.91 46.165 123.715 45.505 123.715 44.555V41.165H122.305V39.5H123.715V37.655L125.575 37.025V39.5H127.24V41.165H125.575V44.435ZM133.338 39.35L133.203 41.105C133.143 41.085 133.038 41.075 132.888 41.075C132.268 41.075 131.753 41.255 131.343 41.615C130.943 41.975 130.743 42.465 130.743 43.085V47H128.883V39.5H130.743V40.76C130.913 40.36 131.203 40.025 131.613 39.755C132.023 39.485 132.518 39.35 133.098 39.35H133.338ZM139.993 39.5H141.853V47H139.993V46.265C139.643 46.565 139.258 46.8 138.838 46.97C138.428 47.13 137.993 47.21 137.533 47.21C136.773 47.21 136.108 47.04 135.538 46.7C134.968 46.36 134.528 45.89 134.218 45.29C133.918 44.69 133.768 44.015 133.768 43.265C133.768 42.515 133.918 41.84 134.218 41.24C134.528 40.64 134.968 40.17 135.538 39.83C136.108 39.48 136.773 39.305 137.533 39.305C137.993 39.305 138.428 39.39 138.838 39.56C139.258 39.72 139.643 39.95 139.993 40.25V39.5ZM137.773 45.425C138.183 45.425 138.553 45.335 138.883 45.155C139.223 44.965 139.488 44.705 139.678 44.375C139.878 44.045 139.978 43.67 139.978 43.25C139.978 42.62 139.763 42.105 139.333 41.705C138.913 41.305 138.393 41.105 137.773 41.105C137.143 41.105 136.623 41.31 136.213 41.72C135.813 42.12 135.613 42.635 135.613 43.265C135.613 43.895 135.813 44.415 136.213 44.825C136.623 45.225 137.143 45.425 137.773 45.425ZM147.576 39.305C148.016 39.305 148.461 39.4 148.911 39.59C149.371 39.77 149.761 40.1 150.081 40.58C150.411 41.06 150.576 41.705 150.576 42.515V47H148.716V42.515C148.716 41.955 148.556 41.555 148.236 41.315C147.926 41.065 147.561 40.94 147.141 40.94C146.721 40.94 146.361 41.09 146.061 41.39C145.771 41.68 145.626 42.15 145.626 42.8V47H143.766V39.5H145.626V40.13C145.896 39.88 146.196 39.68 146.526 39.53C146.856 39.38 147.206 39.305 147.576 39.305ZM153.677 41.6C153.677 41.81 153.792 41.97 154.022 42.08C154.262 42.18 154.637 42.285 155.147 42.395C155.727 42.515 156.212 42.65 156.602 42.8C156.992 42.95 157.327 43.19 157.607 43.52C157.897 43.84 158.042 44.275 158.042 44.825C158.042 45.315 157.892 45.74 157.592 46.1C157.302 46.46 156.912 46.735 156.422 46.925C155.932 47.105 155.397 47.195 154.817 47.195C154.027 47.195 153.347 47.045 152.777 46.745C152.217 46.445 151.802 46.015 151.532 45.455L153.062 44.66C153.332 45.35 153.917 45.695 154.817 45.695C155.207 45.695 155.542 45.62 155.822 45.47C156.102 45.32 156.242 45.105 156.242 44.825C156.242 44.585 156.112 44.41 155.852 44.3C155.602 44.18 155.192 44.05 154.622 43.91C154.032 43.77 153.552 43.63 153.182 43.49C152.812 43.35 152.492 43.135 152.222 42.845C151.952 42.545 151.817 42.15 151.817 41.66C151.817 41.18 151.952 40.765 152.222 40.415C152.492 40.055 152.857 39.78 153.317 39.59C153.777 39.4 154.282 39.305 154.832 39.305C155.482 39.305 156.062 39.44 156.572 39.71C157.092 39.98 157.492 40.365 157.772 40.865L156.257 41.63C155.997 41.07 155.522 40.79 154.832 40.79C154.482 40.79 154.202 40.865 153.992 41.015C153.782 41.155 153.677 41.35 153.677 41.6ZM165.071 39.5H166.931V47H165.071V46.265C164.721 46.565 164.336 46.8 163.916 46.97C163.506 47.13 163.071 47.21 162.611 47.21C161.851 47.21 161.186 47.04 160.616 46.7C160.046 46.36 159.606 45.89 159.296 45.29C158.996 44.69 158.846 44.015 158.846 43.265C158.846 42.515 158.996 41.84 159.296 41.24C159.606 40.64 160.046 40.17 160.616 39.83C161.186 39.48 161.851 39.305 162.611 39.305C163.071 39.305 163.506 39.39 163.916 39.56C164.336 39.72 164.721 39.95 165.071 40.25V39.5ZM162.851 45.425C163.261 45.425 163.631 45.335 163.961 45.155C164.301 44.965 164.566 44.705 164.756 44.375C164.956 44.045 165.056 43.67 165.056 43.25C165.056 42.62 164.841 42.105 164.411 41.705C163.991 41.305 163.471 41.105 162.851 41.105C162.221 41.105 161.701 41.31 161.291 41.72C160.891 42.12 160.691 42.635 160.691 43.265C160.691 43.895 160.891 44.415 161.291 44.825C161.701 45.225 162.221 45.425 162.851 45.425ZM175.213 45.545C174.843 46.055 174.378 46.46 173.818 46.76C173.258 47.06 172.653 47.21 172.003 47.21C171.293 47.21 170.633 47.035 170.023 46.685C169.423 46.325 168.943 45.845 168.583 45.245C168.233 44.635 168.058 43.975 168.058 43.265C168.058 42.555 168.233 41.9 168.583 41.3C168.943 40.69 169.423 40.21 170.023 39.86C170.633 39.5 171.293 39.32 172.003 39.32C172.643 39.32 173.243 39.47 173.803 39.77C174.363 40.06 174.828 40.455 175.198 40.955L173.668 41.99C173.198 41.44 172.643 41.165 172.003 41.165C171.623 41.165 171.273 41.26 170.953 41.45C170.633 41.64 170.378 41.895 170.188 42.215C169.998 42.535 169.903 42.885 169.903 43.265C169.903 43.645 169.998 43.995 170.188 44.315C170.378 44.635 170.633 44.89 170.953 45.08C171.273 45.26 171.623 45.35 172.003 45.35C172.643 45.35 173.198 45.075 173.668 44.525L175.213 45.545ZM178.939 44.435C178.939 44.775 179.019 45.01 179.179 45.14C179.339 45.27 179.594 45.335 179.944 45.335C180.154 45.335 180.384 45.32 180.634 45.29V47C180.164 47.05 179.774 47.075 179.464 47.075C178.664 47.075 178.064 46.895 177.664 46.535C177.274 46.165 177.079 45.505 177.079 44.555V41.165H175.669V39.5H177.079V37.655L178.939 37.025V39.5H180.604V41.165H178.939V44.435ZM183.09 38.255C182.74 38.255 182.465 38.16 182.265 37.97C182.065 37.78 181.965 37.52 181.965 37.19C181.965 36.85 182.065 36.585 182.265 36.395C182.465 36.205 182.74 36.11 183.09 36.11C183.44 36.11 183.715 36.205 183.915 36.395C184.115 36.585 184.215 36.85 184.215 37.19C184.215 37.51 184.11 37.77 183.9 37.97C183.7 38.16 183.43 38.255 183.09 38.255ZM182.145 47V39.5H184.005V47H182.145ZM189.098 47.21C188.388 47.21 187.728 47.035 187.118 46.685C186.518 46.325 186.038 45.845 185.678 45.245C185.328 44.635 185.153 43.975 185.153 43.265C185.153 42.555 185.328 41.9 185.678 41.3C186.038 40.69 186.518 40.21 187.118 39.86C187.728 39.5 188.388 39.32 189.098 39.32C189.808 39.32 190.463 39.5 191.063 39.86C191.673 40.21 192.153 40.69 192.503 41.3C192.863 41.9 193.043 42.555 193.043 43.265C193.043 43.975 192.863 44.635 192.503 45.245C192.153 45.845 191.673 46.325 191.063 46.685C190.463 47.035 189.808 47.21 189.098 47.21ZM189.083 45.35C189.463 45.35 189.813 45.26 190.133 45.08C190.453 44.89 190.708 44.635 190.898 44.315C191.088 43.995 191.183 43.645 191.183 43.265C191.183 42.885 191.088 42.535 190.898 42.215C190.708 41.895 190.453 41.64 190.133 41.45C189.813 41.26 189.463 41.165 189.083 41.165C188.703 41.165 188.353 41.26 188.033 41.45C187.713 41.64 187.458 41.895 187.268 42.215C187.088 42.535 186.998 42.885 186.998 43.265C186.998 43.645 187.088 43.995 187.268 44.315C187.458 44.635 187.713 44.89 188.033 45.08C188.353 45.26 188.703 45.35 189.083 45.35ZM198.04 39.305C198.48 39.305 198.925 39.4 199.375 39.59C199.835 39.77 200.225 40.1 200.545 40.58C200.875 41.06 201.04 41.705 201.04 42.515V47H199.18V42.515C199.18 41.955 199.02 41.555 198.7 41.315C198.39 41.065 198.025 40.94 197.605 40.94C197.185 40.94 196.825 41.09 196.525 41.39C196.235 41.68 196.09 42.15 196.09 42.8V47H194.23V39.5H196.09V40.13C196.36 39.88 196.66 39.68 196.99 39.53C197.32 39.38 197.67 39.305 198.04 39.305Z" fill="#6A6A6A"/>
</svg>
