<svg width="283" height="29" viewBox="0 0 283 29" fill="none" xmlns="http://www.w3.org/2000/svg">
<path d="M7.60435 0.303566H10.2246V2.98075C12.541 3.24657 14.4682 4.10099 16.0062 5.54402L13.8131 8.33513C12.7499 7.30982 11.4967 6.68325 10.0537 6.4554V10.6705C11.3638 10.9933 12.4651 11.3636 13.3575 11.7813C14.2688 12.18 15.0093 12.7591 15.579 13.5186C16.1676 14.2781 16.4619 15.2559 16.4619 16.4521C16.4619 18.161 15.9017 19.5375 14.7815 20.5818C13.6802 21.6261 12.1613 22.2432 10.2246 22.4331V25.0248H7.60435V22.4616C4.81324 22.2527 2.57276 21.2654 0.882902 19.4996L3.04744 16.5945C4.35755 17.9996 5.98095 18.8255 7.91764 19.0724V14.3446C6.60753 14.0408 5.50627 13.699 4.61388 13.3193C3.72148 12.9205 2.98098 12.3509 2.39238 11.6104C1.80378 10.8509 1.50948 9.8541 1.50948 8.61994C1.50948 7.65159 1.75631 6.75919 2.24998 5.94275C2.74364 5.1263 3.44617 4.45226 4.35755 3.92062C5.28792 3.38898 6.37019 3.06619 7.60435 2.95227V0.303566ZM5.52526 8.24969C5.52526 8.74335 5.71513 9.13259 6.09487 9.4174C6.4936 9.7022 7.10119 9.95853 7.91764 10.1864V6.25604C7.17714 6.29401 6.58854 6.50287 6.15184 6.88261C5.73412 7.24337 5.52526 7.69906 5.52526 8.24969ZM10.0537 19.0724C10.7942 18.9774 11.3733 18.7496 11.791 18.3888C12.2277 18.0091 12.4461 17.5154 12.4461 16.9078C12.4461 16.3382 12.2562 15.911 11.8765 15.6262C11.4967 15.3414 10.8891 15.0661 10.0537 14.8003V19.0724ZM35.0916 7.56615C36.5346 7.56615 37.7973 7.89842 38.8795 8.56297C39.9618 9.20854 40.7877 10.1009 41.3573 11.2402C41.9459 12.3794 42.2402 13.661 42.2402 15.0851C42.2402 16.5091 41.9459 17.7907 41.3573 18.93C40.7877 20.0692 39.9618 20.9616 38.8795 21.6071C37.7973 22.2527 36.5346 22.5755 35.0916 22.5755C34.1612 22.5755 33.2688 22.3951 32.4144 22.0344C31.56 21.6736 30.8005 21.1704 30.1359 20.5249V22.1768H26.6043V2.24025H30.1359V9.61676C30.8005 8.9712 31.56 8.46804 32.4144 8.10728C33.2878 7.74653 34.1802 7.56615 35.0916 7.56615ZM34.6359 19.1863C35.8321 19.1863 36.8099 18.8065 37.5694 18.0471C38.3479 17.2686 38.7371 16.2812 38.7371 15.0851C38.7371 13.8889 38.3479 12.911 37.5694 12.1515C36.8099 11.3731 35.8321 10.9838 34.6359 10.9838C33.4587 10.9838 32.4619 11.3636 31.6454 12.1231C30.848 12.8825 30.4492 13.8604 30.4492 15.0566C30.4492 15.854 30.6296 16.5661 30.9904 17.1926C31.3701 17.8192 31.8733 18.3129 32.4998 18.6736C33.1454 19.0154 33.8574 19.1863 34.6359 19.1863ZM48.2701 18.161C48.2701 18.4648 48.3461 18.6831 48.498 18.816C48.6499 18.9489 48.8872 19.0154 49.21 19.0154C49.4568 19.0154 49.7511 18.9869 50.0929 18.93V22.1768C49.3904 22.2907 48.7353 22.3476 48.1277 22.3476C47.0265 22.3476 46.1816 22.0628 45.593 21.4932C45.0233 20.9046 44.7385 19.8698 44.7385 18.3888V2.24025H48.2701V18.161ZM58.4961 22.5755C57.148 22.5755 55.8948 22.2432 54.7366 21.5787C53.5974 20.8951 52.686 19.9837 52.0025 18.8445C51.3379 17.6863 51.0056 16.4331 51.0056 15.0851C51.0056 13.737 51.3379 12.4933 52.0025 11.3541C52.686 10.1959 53.5974 9.28449 54.7366 8.61994C55.8948 7.9364 57.148 7.59463 58.4961 7.59463C59.8441 7.59463 61.0878 7.9364 62.227 8.61994C63.3852 9.28449 64.2966 10.1959 64.9612 11.3541C65.6447 12.4933 65.9865 13.737 65.9865 15.0851C65.9865 16.4331 65.6447 17.6863 64.9612 18.8445C64.2966 19.9837 63.3852 20.8951 62.227 21.5787C61.0878 22.2432 59.8441 22.5755 58.4961 22.5755ZM58.4676 19.0439C59.1891 19.0439 59.8536 18.873 60.4612 18.5312C61.0688 18.1705 61.553 17.6863 61.9137 17.0787C62.2745 16.4711 62.4549 15.8066 62.4549 15.0851C62.4549 14.3635 62.2745 13.699 61.9137 13.0914C61.553 12.4838 61.0688 11.9996 60.4612 11.6389C59.8536 11.2781 59.1891 11.0978 58.4676 11.0978C57.7461 11.0978 57.0815 11.2781 56.4739 11.6389C55.8663 11.9996 55.3822 12.4838 55.0214 13.0914C54.6796 13.699 54.5088 14.3635 54.5088 15.0851C54.5088 15.8066 54.6796 16.4711 55.0214 17.0787C55.3822 17.6863 55.8663 18.1705 56.4739 18.5312C57.0815 18.873 57.7461 19.0439 58.4676 19.0439ZM81.0285 19.4141C80.326 20.3825 79.4431 21.1515 78.3798 21.7211C77.3165 22.2907 76.1678 22.5755 74.9337 22.5755C73.5856 22.5755 72.3324 22.2432 71.1742 21.5787C70.035 20.8951 69.1236 19.9837 68.4401 18.8445C67.7755 17.6863 67.4432 16.4331 67.4432 15.0851C67.4432 13.737 67.7755 12.4933 68.4401 11.3541C69.1236 10.1959 70.035 9.28449 71.1742 8.61994C72.3324 7.9364 73.5856 7.59463 74.9337 7.59463C76.1488 7.59463 77.2881 7.87944 78.3513 8.44905C79.4146 8.99968 80.2975 9.74967 81.0001 10.699L78.095 12.6642C77.2026 11.6199 76.1488 11.0978 74.9337 11.0978C74.2121 11.0978 73.5476 11.2781 72.94 11.6389C72.3324 11.9996 71.8482 12.4838 71.4875 13.0914C71.1267 13.699 70.9464 14.3635 70.9464 15.0851C70.9464 15.8066 71.1267 16.4711 71.4875 17.0787C71.8482 17.6863 72.3324 18.1705 72.94 18.5312C73.5476 18.873 74.2121 19.0439 74.9337 19.0439C76.1488 19.0439 77.2026 18.5217 78.095 17.4774L81.0285 19.4141ZM97.1333 22.1768H92.7188L88.7315 16.8509L86.6524 19.1293V22.1768H83.1208V2.24025H86.6524V13.9458L92.0067 7.9364H96.9339L91.1238 14.2591L97.1333 22.1768ZM112.04 19.4141C111.338 20.3825 110.455 21.1515 109.392 21.7211C108.328 22.2907 107.18 22.5755 105.945 22.5755C104.597 22.5755 103.344 22.2432 102.186 21.5787C101.047 20.8951 100.135 19.9837 99.4518 18.8445C98.7872 17.6863 98.4549 16.4331 98.4549 15.0851C98.4549 13.737 98.7872 12.4933 99.4518 11.3541C100.135 10.1959 101.047 9.28449 102.186 8.61994C103.344 7.9364 104.597 7.59463 105.945 7.59463C107.161 7.59463 108.3 7.87944 109.363 8.44905C110.426 8.99968 111.309 9.74967 112.012 10.699L109.107 12.6642C108.214 11.6199 107.161 11.0978 105.945 11.0978C105.224 11.0978 104.559 11.2781 103.952 11.6389C103.344 11.9996 102.86 12.4838 102.499 13.0914C102.138 13.699 101.958 14.3635 101.958 15.0851C101.958 15.8066 102.138 16.4711 102.499 17.0787C102.86 17.6863 103.344 18.1705 103.952 18.5312C104.559 18.873 105.224 19.0439 105.945 19.0439C107.161 19.0439 108.214 18.5217 109.107 17.4774L112.04 19.4141ZM127.227 22.1768H123.724V13.7465C123.724 12.6832 123.42 11.9237 122.812 11.468C122.224 10.9933 121.521 10.756 120.705 10.756C120.059 10.756 119.471 10.9554 118.939 11.3541C118.426 11.7528 118.094 12.3889 117.942 13.2623V22.1768H114.411V2.24025H117.942V9.13259C118.417 8.6769 118.958 8.31614 119.566 8.05032C120.192 7.7845 120.857 7.65159 121.559 7.65159C122.395 7.65159 123.24 7.83197 124.094 8.19272C124.948 8.53449 125.679 9.15158 126.287 10.044C126.914 10.9364 127.227 12.1421 127.227 13.661V22.1768ZM141.262 7.9364H144.793V22.1768H141.262V20.7812C140.597 21.3508 139.866 21.797 139.069 22.1198C138.29 22.4236 137.464 22.5755 136.591 22.5755C135.148 22.5755 133.885 22.2527 132.803 21.6071C131.721 20.9616 130.885 20.0692 130.297 18.93C129.727 17.7907 129.442 16.5091 129.442 15.0851C129.442 13.661 129.727 12.3794 130.297 11.2402C130.885 10.1009 131.721 9.20854 132.803 8.56297C133.885 7.89842 135.148 7.56615 136.591 7.56615C137.464 7.56615 138.29 7.72754 139.069 8.05032C139.866 8.35412 140.597 8.79082 141.262 9.36043V7.9364ZM137.047 19.1863C137.825 19.1863 138.528 19.0154 139.154 18.6736C139.8 18.3129 140.303 17.8192 140.664 17.1926C141.043 16.5661 141.233 15.854 141.233 15.0566C141.233 13.8604 140.825 12.8825 140.009 12.1231C139.211 11.3636 138.224 10.9838 137.047 10.9838C135.85 10.9838 134.863 11.3731 134.085 12.1515C133.325 12.911 132.945 13.8889 132.945 15.0851C132.945 16.2812 133.325 17.2686 134.085 18.0471C134.863 18.8065 135.85 19.1863 137.047 19.1863ZM150.249 5.5725C149.584 5.5725 149.062 5.39212 148.682 5.03136C148.303 4.67061 148.113 4.17694 148.113 3.55037C148.113 2.9048 148.303 2.40164 148.682 2.04089C149.062 1.68013 149.584 1.49976 150.249 1.49976C150.913 1.49976 151.436 1.68013 151.815 2.04089C152.195 2.40164 152.385 2.9048 152.385 3.55037C152.385 4.15796 152.186 4.65162 151.787 5.03136C151.407 5.39212 150.894 5.5725 150.249 5.5725ZM148.455 22.1768V7.9364H151.986V22.1768H148.455ZM162.753 7.56615C163.588 7.56615 164.433 7.74653 165.287 8.10728C166.161 8.44905 166.901 9.07563 167.509 9.98701C168.135 10.8984 168.449 12.1231 168.449 13.661V22.1768H164.917V13.661C164.917 12.5977 164.613 11.8383 164.006 11.3826C163.417 10.9079 162.724 10.6705 161.927 10.6705C161.129 10.6705 160.446 10.9554 159.876 11.525C159.325 12.0756 159.05 12.968 159.05 14.2022V22.1768H155.519V7.9364H159.05V9.13259C159.563 8.65791 160.132 8.27817 160.759 7.99336C161.386 7.70855 162.05 7.56615 162.753 7.56615ZM182.208 11.9237C182.208 12.3224 182.426 12.6262 182.863 12.8351C183.319 13.025 184.031 13.2243 184.999 13.4332C186.1 13.661 187.021 13.9173 187.762 14.2022C188.502 14.487 189.138 14.9427 189.67 15.5692C190.22 16.1768 190.496 17.0028 190.496 18.0471C190.496 18.9774 190.211 19.7844 189.641 20.4679C189.091 21.1515 188.35 21.6736 187.42 22.0344C186.489 22.3761 185.474 22.547 184.372 22.547C182.872 22.547 181.581 22.2622 180.499 21.6926C179.436 21.123 178.648 20.3065 178.135 19.2432L181.04 17.7338C181.553 19.0439 182.664 19.6989 184.372 19.6989C185.113 19.6989 185.749 19.5565 186.281 19.2717C186.812 18.9869 187.078 18.5787 187.078 18.0471C187.078 17.5914 186.831 17.2591 186.338 17.0502C185.863 16.8224 185.084 16.5755 184.002 16.3097C182.882 16.0439 181.971 15.7781 181.268 15.5123C180.565 15.2464 179.958 14.8382 179.445 14.2876C178.933 13.718 178.676 12.968 178.676 12.0376C178.676 11.1262 178.933 10.3383 179.445 9.67372C179.958 8.99018 180.651 8.46804 181.524 8.10728C182.398 7.74653 183.357 7.56615 184.401 7.56615C185.635 7.56615 186.736 7.82248 187.705 8.33513C188.692 8.84778 189.451 9.57879 189.983 10.5281L187.107 11.9807C186.613 10.9174 185.711 10.3857 184.401 10.3857C183.736 10.3857 183.205 10.5281 182.806 10.813C182.407 11.0788 182.208 11.449 182.208 11.9237ZM199.37 7.56615C200.737 7.56615 201.962 7.90792 203.044 8.59145C204.145 9.256 205 10.1579 205.607 11.2971C206.215 12.4364 206.519 13.699 206.519 15.0851C206.519 15.5408 206.481 15.9585 206.405 16.3382H195.411C195.696 17.3445 196.199 18.1325 196.921 18.7021C197.642 19.2527 198.563 19.5281 199.683 19.5281C200.367 19.5281 201.022 19.3762 201.648 19.0724C202.294 18.7686 202.778 18.3793 203.101 17.9046L205.807 19.4996C205.142 20.4869 204.278 21.2464 203.215 21.778C202.171 22.2907 200.965 22.547 199.598 22.547C198.079 22.547 196.731 22.2242 195.554 21.5787C194.376 20.9331 193.465 20.0407 192.819 18.9015C192.193 17.7622 191.879 16.4806 191.879 15.0566C191.879 13.6515 192.193 12.3794 192.819 11.2402C193.465 10.1009 194.357 9.20854 195.497 8.56297C196.636 7.89842 197.927 7.56615 199.37 7.56615ZM203.215 13.5756C203.063 12.6642 202.636 11.9522 201.933 11.4395C201.25 10.9079 200.386 10.6421 199.341 10.6421C198.62 10.6421 197.955 10.775 197.348 11.0408C196.759 11.3066 196.285 11.6674 195.924 12.1231C195.563 12.5788 195.373 13.0629 195.354 13.5756H203.215ZM213.541 17.3066C213.541 17.9521 213.693 18.3983 213.997 18.6451C214.301 18.892 214.785 19.0154 215.449 19.0154C215.848 19.0154 216.285 18.9869 216.759 18.93V22.1768C215.867 22.2717 215.127 22.3192 214.538 22.3192C213.019 22.3192 211.88 21.9774 211.12 21.2939C210.38 20.5913 210.009 19.3382 210.009 17.5344V11.0978H207.332V7.9364H210.009V4.43327L213.541 3.23708V7.9364H216.702V11.0978H213.541V17.3066ZM224.917 17.3066C224.917 17.9521 225.069 18.3983 225.372 18.6451C225.676 18.892 226.16 19.0154 226.825 19.0154C227.224 19.0154 227.66 18.9869 228.135 18.93V22.1768C227.243 22.2717 226.502 22.3192 225.914 22.3192C224.395 22.3192 223.255 21.9774 222.496 21.2939C221.755 20.5913 221.385 19.3382 221.385 17.5344V11.0978H218.708V7.9364H221.385V4.43327L224.917 3.23708V7.9364H228.078V11.0978H224.917V17.3066ZM232.799 5.5725C232.134 5.5725 231.612 5.39212 231.232 5.03136C230.852 4.67061 230.662 4.17694 230.662 3.55037C230.662 2.9048 230.852 2.40164 231.232 2.04089C231.612 1.68013 232.134 1.49976 232.799 1.49976C233.463 1.49976 233.985 1.68013 234.365 2.04089C234.745 2.40164 234.935 2.9048 234.935 3.55037C234.935 4.15796 234.735 4.65162 234.336 5.03136C233.957 5.39212 233.444 5.5725 232.799 5.5725ZM231.004 22.1768V7.9364H234.536V22.1768H231.004ZM245.302 7.56615C246.138 7.56615 246.983 7.74653 247.837 8.10728C248.71 8.44905 249.451 9.07563 250.058 9.98701C250.685 10.8984 250.998 12.1231 250.998 13.661V22.1768H247.467V13.661C247.467 12.5977 247.163 11.8383 246.555 11.3826C245.967 10.9079 245.274 10.6705 244.476 10.6705C243.679 10.6705 242.995 10.9554 242.426 11.525C241.875 12.0756 241.6 12.968 241.6 14.2022V22.1768H238.068V7.9364H241.6V9.13259C242.112 8.65791 242.682 8.27817 243.309 7.99336C243.935 7.70855 244.6 7.56615 245.302 7.56615ZM265.003 7.9364H268.535V21.4647C268.535 22.8128 268.193 23.9995 267.51 25.0248C266.845 26.0501 265.915 26.8381 264.718 27.3887C263.522 27.9583 262.184 28.2432 260.703 28.2432C259.051 28.2432 257.551 27.9204 256.203 27.2748C254.855 26.6482 253.905 25.8223 253.355 24.797L256.374 23.0597C256.658 23.6103 257.19 24.066 257.969 24.4267C258.747 24.8065 259.687 24.9963 260.788 24.9963C262.003 24.9963 263.01 24.6641 263.807 23.9995C264.605 23.354 265.003 22.509 265.003 21.4647V20.8097C264.358 21.3793 263.636 21.816 262.839 22.1198C262.041 22.4236 261.215 22.5755 260.361 22.5755C258.918 22.5755 257.655 22.2527 256.573 21.6071C255.491 20.9616 254.655 20.0692 254.067 18.93C253.497 17.7907 253.212 16.5091 253.212 15.0851C253.212 13.661 253.497 12.3794 254.067 11.2402C254.655 10.1009 255.491 9.20854 256.573 8.56297C257.655 7.89842 258.918 7.56615 260.361 7.56615C261.215 7.56615 262.032 7.72754 262.81 8.05032C263.608 8.35412 264.339 8.78133 265.003 9.33195V7.9364ZM260.817 19.1863C261.595 19.1863 262.298 19.0154 262.924 18.6736C263.57 18.3129 264.073 17.8192 264.434 17.1926C264.813 16.5661 265.003 15.854 265.003 15.0566C265.003 13.8604 264.595 12.8825 263.779 12.1231C262.981 11.3636 261.994 10.9838 260.817 10.9838C259.62 10.9838 258.633 11.3731 257.855 12.1515C257.095 12.911 256.715 13.8889 256.715 15.0851C256.715 16.2812 257.095 17.2686 257.855 18.0471C258.633 18.8065 259.62 19.1863 260.817 19.1863ZM274.687 11.9237C274.687 12.3224 274.905 12.6262 275.342 12.8351C275.797 13.025 276.51 13.2243 277.478 13.4332C278.579 13.661 279.5 13.9173 280.24 14.2022C280.981 14.487 281.617 14.9427 282.149 15.5692C282.699 16.1768 282.975 17.0028 282.975 18.0471C282.975 18.9774 282.69 19.7844 282.12 20.4679C281.57 21.1515 280.829 21.6736 279.899 22.0344C278.968 22.3761 277.953 22.547 276.851 22.547C275.351 22.547 274.06 22.2622 272.978 21.6926C271.915 21.123 271.127 20.3065 270.614 19.2432L273.519 17.7338C274.032 19.0439 275.142 19.6989 276.851 19.6989C277.592 19.6989 278.228 19.5565 278.759 19.2717C279.291 18.9869 279.557 18.5787 279.557 18.0471C279.557 17.5914 279.31 17.2591 278.816 17.0502C278.342 16.8224 277.563 16.5755 276.481 16.3097C275.361 16.0439 274.449 15.7781 273.747 15.5123C273.044 15.2464 272.437 14.8382 271.924 14.2876C271.411 13.718 271.155 12.968 271.155 12.0376C271.155 11.1262 271.411 10.3383 271.924 9.67372C272.437 8.99018 273.13 8.46804 274.003 8.10728C274.877 7.74653 275.835 7.56615 276.88 7.56615C278.114 7.56615 279.215 7.82248 280.184 8.33513C281.171 8.84778 281.93 9.57879 282.462 10.5281L279.585 11.9807C279.092 10.9174 278.19 10.3857 276.88 10.3857C276.215 10.3857 275.684 10.5281 275.285 10.813C274.886 11.0788 274.687 11.449 274.687 11.9237Z" fill="#E6E8EB"/>
</svg>
