<svg width="195" height="52" viewBox="0 0 195 52" fill="none" xmlns="http://www.w3.org/2000/svg">
<path d="M12.1943 18.7899C11.6323 19.5646 10.926 20.1798 10.0754 20.6354C9.22476 21.0911 8.30578 21.319 7.31845 21.319C6.23998 21.319 5.23746 21.0532 4.31088 20.5215C3.3995 19.9747 2.67039 19.2456 2.12356 18.3342C1.59192 17.4076 1.3261 16.4051 1.3261 15.3266C1.3261 14.2482 1.59192 13.2532 2.12356 12.3419C2.67039 11.4153 3.3995 10.6862 4.31088 10.1545C5.23746 9.60771 6.23998 9.3343 7.31845 9.3343C8.29059 9.3343 9.20197 9.56214 10.0526 10.0178C10.9032 10.4583 11.6095 11.0583 12.1716 11.8178L9.84754 13.39C9.13362 12.5545 8.29059 12.1368 7.31845 12.1368C6.74124 12.1368 6.2096 12.2811 5.72353 12.5697C5.23746 12.8583 4.85012 13.2456 4.56151 13.7317C4.27291 14.2178 4.12861 14.7494 4.12861 15.3266C4.12861 15.9038 4.27291 16.4355 4.56151 16.9216C4.85012 17.4076 5.23746 17.795 5.72353 18.0836C6.2096 18.357 6.74124 18.4937 7.31845 18.4937C8.29059 18.4937 9.13362 18.076 9.84754 17.2405L12.1943 18.7899ZM19 21.319C17.9215 21.319 16.919 21.0532 15.9924 20.5215C15.081 19.9747 14.3519 19.2456 13.8051 18.3342C13.2735 17.4076 13.0076 16.4051 13.0076 15.3266C13.0076 14.2482 13.2735 13.2532 13.8051 12.3419C14.3519 11.4153 15.081 10.6862 15.9924 10.1545C16.919 9.60771 17.9215 9.3343 19 9.3343C20.0785 9.3343 21.0734 9.60771 21.9848 10.1545C22.9113 10.6862 23.6405 11.4153 24.1721 12.3419C24.7189 13.2532 24.9923 14.2482 24.9923 15.3266C24.9923 16.4051 24.7189 17.4076 24.1721 18.3342C23.6405 19.2456 22.9113 19.9747 21.9848 20.5215C21.0734 21.0532 20.0785 21.319 19 21.319ZM18.9772 18.4937C19.5544 18.4937 20.0861 18.357 20.5721 18.0836C21.0582 17.795 21.4455 17.4076 21.7341 16.9216C22.0227 16.4355 22.167 15.9038 22.167 15.3266C22.167 14.7494 22.0227 14.2178 21.7341 13.7317C21.4455 13.2456 21.0582 12.8583 20.5721 12.5697C20.0861 12.2811 19.5544 12.1368 18.9772 12.1368C18.4 12.1368 17.8684 12.2811 17.3823 12.5697C16.8962 12.8583 16.5089 13.2456 16.2203 13.7317C15.9469 14.2178 15.8102 14.7494 15.8102 15.3266C15.8102 15.9038 15.9469 16.4355 16.2203 16.9216C16.5089 17.4076 16.8962 17.795 17.3823 18.0836C17.8684 18.357 18.4 18.4937 18.9772 18.4937ZM32.583 9.31151C33.2513 9.31151 33.9273 9.45582 34.6108 9.74442C35.3095 10.0178 35.9019 10.5191 36.388 11.2482C36.8893 11.9773 37.1399 12.957 37.1399 14.1874V21H34.3146V14.1874C34.3146 13.3368 34.0716 12.7292 33.5855 12.3646C33.1146 11.9849 32.5602 11.795 31.9222 11.795C31.2843 11.795 30.7374 12.0229 30.2817 12.4786C29.8412 12.9191 29.621 13.633 29.621 14.6203V21H26.7957V9.60771H29.621V10.5647C30.0311 10.1849 30.4868 9.88113 30.9881 9.65328C31.4893 9.42544 32.021 9.31151 32.583 9.31151ZM43.131 17.1038C43.131 17.6203 43.2525 17.9772 43.4955 18.1747C43.7386 18.3722 44.1259 18.4709 44.6576 18.4709C44.9765 18.4709 45.3259 18.4481 45.7057 18.4026V21C44.9917 21.0759 44.3993 21.1139 43.9285 21.1139C42.7133 21.1139 41.8019 20.8405 41.1943 20.2937C40.6019 19.7317 40.3057 18.7291 40.3057 17.2861V12.1368H38.164V9.60771H40.3057V6.80521L43.131 5.84826V9.60771H45.6601V12.1368H43.131V17.1038ZM54.9233 9.37987L54.7182 12.0457C54.6271 12.0153 54.4676 12.0001 54.2397 12.0001C53.298 12.0001 52.5157 12.2735 51.8929 12.8203C51.2853 13.3672 50.9815 14.1115 50.9815 15.0532V21H48.1562V9.60771H50.9815V11.5216C51.2398 10.914 51.6803 10.4052 52.303 9.99505C52.9258 9.58493 53.6777 9.37987 54.5587 9.37987H54.9233ZM65.0312 9.60771H67.8565V21H65.0312V19.8836C64.4996 20.3392 63.9148 20.6962 63.2768 20.9544C62.6541 21.1975 61.9933 21.319 61.2946 21.319C60.1402 21.319 59.13 21.0608 58.2642 20.5443C57.3984 20.0279 56.7301 19.3139 56.2592 18.4026C55.8035 17.4912 55.5756 16.4659 55.5756 15.3266C55.5756 14.1874 55.8035 13.1621 56.2592 12.2507C56.7301 11.3393 57.3984 10.6254 58.2642 10.109C59.13 9.57733 60.1402 9.31151 61.2946 9.31151C61.9933 9.31151 62.6541 9.44063 63.2768 9.69885C63.9148 9.94189 64.4996 10.2912 65.0312 10.7469V9.60771ZM61.6591 18.6076C62.2819 18.6076 62.8439 18.4709 63.3452 18.1975C63.8616 17.9089 64.2642 17.514 64.5528 17.0127C64.8566 16.5114 65.0085 15.9418 65.0085 15.3039C65.0085 14.3469 64.6819 13.5646 64.0287 12.957C63.3908 12.3495 62.6009 12.0457 61.6591 12.0457C60.7022 12.0457 59.9123 12.3571 59.2895 12.9798C58.6819 13.5874 58.3781 14.3697 58.3781 15.3266C58.3781 16.2836 58.6819 17.0735 59.2895 17.6962C59.9123 18.3038 60.7022 18.6076 61.6591 18.6076ZM80.4368 18.7899C79.8748 19.5646 79.1685 20.1798 78.3179 20.6354C77.4672 21.0911 76.5482 21.319 75.5609 21.319C74.4824 21.319 73.4799 21.0532 72.5534 20.5215C71.642 19.9747 70.9129 19.2456 70.366 18.3342C69.8344 17.4076 69.5686 16.4051 69.5686 15.3266C69.5686 14.2482 69.8344 13.2532 70.366 12.3419C70.9129 11.4153 71.642 10.6862 72.5534 10.1545C73.4799 9.60771 74.4824 9.3343 75.5609 9.3343C76.5331 9.3343 77.4444 9.56214 78.2951 10.0178C79.1457 10.4583 79.852 11.0583 80.414 11.8178L78.09 13.39C77.3761 12.5545 76.5331 12.1368 75.5609 12.1368C74.9837 12.1368 74.4521 12.2811 73.966 12.5697C73.4799 12.8583 73.0926 13.2456 72.804 13.7317C72.5154 14.2178 72.3711 14.7494 72.3711 15.3266C72.3711 15.9038 72.5154 16.4355 72.804 16.9216C73.0926 17.4076 73.4799 17.795 73.966 18.0836C74.4521 18.357 74.9837 18.4937 75.5609 18.4937C76.5331 18.4937 77.3761 18.076 78.09 17.2405L80.4368 18.7899ZM86.0968 17.1038C86.0968 17.6203 86.2183 17.9772 86.4614 18.1747C86.7044 18.3722 87.0918 18.4709 87.6234 18.4709C87.9424 18.4709 88.2917 18.4481 88.6715 18.4026V21C87.9576 21.0759 87.3652 21.1139 86.8943 21.1139C85.6791 21.1139 84.7677 20.8405 84.1601 20.2937C83.5677 19.7317 83.2715 18.7291 83.2715 17.2861V12.1368H81.1298V9.60771H83.2715V6.80521L86.0968 5.84826V9.60771H88.6259V12.1368H86.0968V17.1038ZM99.4347 12.7976C99.4347 13.1165 99.6094 13.3596 99.9587 13.5267C100.323 13.6786 100.893 13.838 101.668 14.0051C102.549 14.1874 103.285 14.3925 103.878 14.6203C104.47 14.8482 104.979 15.2127 105.404 15.714C105.845 16.2 106.065 16.8608 106.065 17.6962C106.065 18.4405 105.837 19.0861 105.381 19.6329C104.941 20.1798 104.349 20.5975 103.604 20.8861C102.86 21.1595 102.047 21.2962 101.166 21.2962C99.9663 21.2962 98.9334 21.0684 98.0676 20.6127C97.217 20.157 96.5866 19.5038 96.1765 18.6532L98.5005 17.4456C98.9107 18.4937 99.7993 19.0177 101.166 19.0177C101.759 19.0177 102.268 18.9038 102.693 18.676C103.118 18.4481 103.331 18.1215 103.331 17.6962C103.331 17.3317 103.133 17.0659 102.738 16.8988C102.359 16.7165 101.736 16.519 100.87 16.3064C99.9739 16.0937 99.2448 15.8811 98.6828 15.6684C98.1208 15.4558 97.6347 15.1292 97.2246 14.6887C96.8145 14.233 96.6094 13.633 96.6094 12.8887C96.6094 12.1596 96.8145 11.5292 97.2246 10.9976C97.6347 10.4507 98.1891 10.033 98.8879 9.74442C99.5866 9.45582 100.354 9.31151 101.189 9.31151C102.176 9.31151 103.057 9.51657 103.832 9.9267C104.622 10.3368 105.23 10.9216 105.655 11.6811L103.354 12.8431C102.959 11.9925 102.237 11.5672 101.189 11.5672C100.657 11.5672 100.232 11.6811 99.9132 11.909C99.5942 12.1216 99.4347 12.4178 99.4347 12.7976ZM111.752 17.1038C111.752 17.6203 111.873 17.9772 112.116 18.1747C112.359 18.3722 112.747 18.4709 113.278 18.4709C113.597 18.4709 113.947 18.4481 114.326 18.4026V21C113.612 21.0759 113.02 21.1139 112.549 21.1139C111.334 21.1139 110.423 20.8405 109.815 20.2937C109.223 19.7317 108.926 18.7291 108.926 17.2861V12.1368H106.785V9.60771H108.926V6.80521L111.752 5.84826V9.60771H114.281V12.1368H111.752V17.1038ZM125.152 9.60771H127.978V21H125.152V19.8836C124.621 20.3392 124.036 20.6962 123.398 20.9544C122.775 21.1975 122.114 21.319 121.416 21.319C120.261 21.319 119.251 21.0608 118.385 20.5443C117.519 20.0279 116.851 19.3139 116.38 18.4026C115.925 17.4912 115.697 16.4659 115.697 15.3266C115.697 14.1874 115.925 13.1621 116.38 12.2507C116.851 11.3393 117.519 10.6254 118.385 10.109C119.251 9.57733 120.261 9.31151 121.416 9.31151C122.114 9.31151 122.775 9.44063 123.398 9.69885C124.036 9.94189 124.621 10.2912 125.152 10.7469V9.60771ZM121.78 18.6076C122.403 18.6076 122.965 18.4709 123.466 18.1975C123.983 17.9089 124.385 17.514 124.674 17.0127C124.978 16.5114 125.129 15.9418 125.129 15.3039C125.129 14.3469 124.803 13.5646 124.15 12.957C123.512 12.3495 122.722 12.0457 121.78 12.0457C120.823 12.0457 120.033 12.3571 119.411 12.9798C118.803 13.5874 118.499 14.3697 118.499 15.3266C118.499 16.2836 118.803 17.0735 119.411 17.6962C120.033 18.3038 120.823 18.6076 121.78 18.6076ZM136.671 9.31151C137.339 9.31151 138.015 9.45582 138.699 9.74442C139.398 10.0178 139.99 10.5191 140.476 11.2482C140.977 11.9773 141.228 12.957 141.228 14.1874V21H138.403V14.1874C138.403 13.3368 138.16 12.7292 137.674 12.3646C137.203 11.9849 136.648 11.795 136.01 11.795C135.372 11.795 134.826 12.0229 134.37 12.4786C133.929 12.9191 133.709 13.633 133.709 14.6203V21H130.884V9.60771H133.709V10.5647C134.119 10.1849 134.575 9.88113 135.076 9.65328C135.577 9.42544 136.109 9.31151 136.671 9.31151ZM152.386 5.0508H155.212V21H152.386V19.9063C151.87 20.362 151.293 20.7114 150.655 20.9544C150.017 21.1975 149.356 21.319 148.673 21.319C147.518 21.319 146.508 21.0608 145.642 20.5443C144.776 20.0279 144.108 19.3139 143.637 18.4026C143.181 17.4912 142.954 16.4659 142.954 15.3266C142.954 14.1874 143.181 13.1621 143.637 12.2507C144.108 11.3393 144.776 10.6254 145.642 10.109C146.508 9.57733 147.518 9.31151 148.673 9.31151C149.356 9.31151 150.009 9.44063 150.632 9.69885C151.27 9.94189 151.855 10.2837 152.386 10.7242V5.0508ZM149.037 18.6076C149.66 18.6076 150.222 18.4709 150.723 18.1975C151.24 17.9089 151.642 17.514 151.931 17.0127C152.235 16.5114 152.386 15.9418 152.386 15.3039C152.386 14.3469 152.06 13.5646 151.407 12.957C150.769 12.3495 149.979 12.0457 149.037 12.0457C148.08 12.0457 147.29 12.3571 146.667 12.9798C146.06 13.5874 145.756 14.3697 145.756 15.3266C145.756 16.2836 146.06 17.0735 146.667 17.6962C147.29 18.3038 148.08 18.6076 149.037 18.6076ZM166.605 9.60771H169.43V21H166.605V19.8836C166.073 20.3392 165.489 20.6962 164.851 20.9544C164.228 21.1975 163.567 21.319 162.868 21.319C161.714 21.319 160.704 21.0608 159.838 20.5443C158.972 20.0279 158.304 19.3139 157.833 18.4026C157.377 17.4912 157.149 16.4659 157.149 15.3266C157.149 14.1874 157.377 13.1621 157.833 12.2507C158.304 11.3393 158.972 10.6254 159.838 10.109C160.704 9.57733 161.714 9.31151 162.868 9.31151C163.567 9.31151 164.228 9.44063 164.851 9.69885C165.489 9.94189 166.073 10.2912 166.605 10.7469V9.60771ZM163.233 18.6076C163.856 18.6076 164.418 18.4709 164.919 18.1975C165.435 17.9089 165.838 17.514 166.127 17.0127C166.43 16.5114 166.582 15.9418 166.582 15.3039C166.582 14.3469 166.256 13.5646 165.603 12.957C164.965 12.3495 164.175 12.0457 163.233 12.0457C162.276 12.0457 161.486 12.3571 160.863 12.9798C160.256 13.5874 159.952 14.3697 159.952 15.3266C159.952 16.2836 160.256 17.0735 160.863 17.6962C161.486 18.3038 162.276 18.6076 163.233 18.6076ZM179.104 9.37987L178.899 12.0457C178.807 12.0153 178.648 12.0001 178.42 12.0001C177.478 12.0001 176.696 12.2735 176.073 12.8203C175.466 13.3672 175.162 14.1115 175.162 15.0532V21H172.337V9.60771H175.162V11.5216C175.42 10.914 175.861 10.4052 176.483 9.99505C177.106 9.58493 177.858 9.37987 178.739 9.37987H179.104ZM189.345 5.0508H192.17V21H189.345V19.9063C188.828 20.362 188.251 20.7114 187.613 20.9544C186.975 21.1975 186.314 21.319 185.631 21.319C184.476 21.319 183.466 21.0608 182.6 20.5443C181.735 20.0279 181.066 19.3139 180.595 18.4026C180.14 17.4912 179.912 16.4659 179.912 15.3266C179.912 14.1874 180.14 13.1621 180.595 12.2507C181.066 11.3393 181.735 10.6254 182.6 10.109C183.466 9.57733 184.476 9.31151 185.631 9.31151C186.314 9.31151 186.967 9.44063 187.59 9.69885C188.228 9.94189 188.813 10.2837 189.345 10.7242V5.0508ZM185.995 18.6076C186.618 18.6076 187.18 18.4709 187.681 18.1975C188.198 17.9089 188.6 17.514 188.889 17.0127C189.193 16.5114 189.345 15.9418 189.345 15.3039C189.345 14.3469 189.018 13.5646 188.365 12.957C187.727 12.3495 186.937 12.0457 185.995 12.0457C185.038 12.0457 184.248 12.3571 183.626 12.9798C183.018 13.5874 182.714 14.3697 182.714 15.3266C182.714 16.2836 183.018 17.0735 183.626 17.6962C184.248 18.3038 185.038 18.6076 185.995 18.6076Z" fill="#E6E8EB"/>
<path d="M3.95772 42.8744V45.7795H8.96463V47.8984H1.71914V35.9365H8.87919V38.0555H3.95772V40.7726H8.45198V42.8744H3.95772ZM17.4984 47.8984L15.1573 43.763H12.9358V47.8984H10.6972V35.9365H15.5504C16.2567 35.9365 16.9117 36.1131 17.5155 36.4663C18.1193 36.808 18.5921 37.2808 18.9339 37.8846C19.287 38.4884 19.4636 39.1435 19.4636 39.8498C19.4636 40.5789 19.2813 41.2453 18.9168 41.8491C18.5522 42.4529 18.0624 42.9257 17.4472 43.2675L20.0446 47.8984H17.4984ZM12.9358 38.0555V41.627H15.5504C16.0402 41.627 16.4617 41.4561 16.8149 41.1143C17.1681 40.7612 17.3446 40.3397 17.3446 39.8498C17.3446 39.3485 17.1681 38.927 16.8149 38.5852C16.4731 38.2321 16.0516 38.0555 15.5504 38.0555H12.9358ZM21.0138 41.9517C21.0138 40.8352 21.2873 39.8042 21.8341 38.8587C22.3923 37.9131 23.1442 37.1669 24.0898 36.6201C25.0353 36.0619 26.0663 35.7827 27.1828 35.7827C28.322 35.7827 29.3758 36.0789 30.3441 36.6713C31.3125 37.2523 32.0587 38.027 32.5827 38.9954L30.6175 40.0378C30.2758 39.434 29.7973 38.9498 29.1821 38.5852C28.5669 38.2093 27.9005 38.0213 27.1828 38.0213C26.4764 38.0213 25.8157 38.1979 25.2005 38.5511C24.5967 38.9042 24.1182 39.3827 23.7651 39.9865C23.4119 40.5903 23.2353 41.2453 23.2353 41.9517C23.2353 42.658 23.4119 43.313 23.7651 43.9168C24.1182 44.5206 24.5967 44.9991 25.2005 45.3523C25.8157 45.7054 26.4764 45.882 27.1828 45.882C27.9233 45.882 28.5954 45.694 29.1992 45.3181C29.8144 44.9421 30.2929 44.4409 30.6346 43.8143L32.5998 44.8909C32.0758 45.8706 31.3296 46.6567 30.3612 47.2491C29.3929 47.8301 28.3334 48.1206 27.1828 48.1206C26.0663 48.1206 25.0353 47.8472 24.0898 47.3003C23.1442 46.7421 22.3923 45.9902 21.8341 45.0447C21.2873 44.0991 21.0138 43.0681 21.0138 41.9517ZM37.7446 44.6516H33.6434V42.8574H37.7446V44.6516ZM39.0058 38.0555V35.9365H47.7893V37.5428L43.1583 47.8984H40.7318L45.1064 38.0555H39.0058ZM58.1549 45.7795V47.8813H49.2518V47.3687C49.3316 46.2409 49.6619 45.1472 50.2429 44.0877C50.8239 43.0282 51.7125 42.2593 52.9087 41.7808C53.1594 41.6669 53.3473 41.5871 53.4727 41.5415C54.0423 41.3023 54.4809 41.1029 54.7885 40.9434C55.1074 40.7726 55.3695 40.5732 55.5745 40.3454C55.791 40.1061 55.8992 39.827 55.8992 39.508C55.8992 39.1321 55.791 38.8131 55.5745 38.5511C55.3695 38.2777 55.1074 38.0726 54.7885 37.9359C54.4695 37.7992 54.1505 37.7308 53.8315 37.7308C53.1366 37.7308 52.5385 37.8732 52.0372 38.158C51.5474 38.4314 51.2569 38.853 51.1657 39.4226L49.0638 39.2004C49.1664 38.4713 49.4455 37.8447 49.9012 37.3207C50.3569 36.7967 50.9265 36.3979 51.61 36.1245C52.3049 35.8511 53.0454 35.7144 53.8315 35.7144C54.5378 35.7144 55.2157 35.8625 55.865 36.1587C56.5144 36.4549 57.0384 36.8821 57.4372 37.4403C57.8359 37.9985 58.0353 38.6536 58.0353 39.4055C58.0353 40.1574 57.853 40.784 57.4884 41.2852C57.1353 41.7865 56.6682 42.2023 56.0872 42.5327C55.5062 42.8517 54.7258 43.1991 53.7461 43.5751C52.8803 43.9168 52.2594 44.6516 51.8834 45.7795H58.1549ZM65.1541 35.9365V45.7795H68.4009V47.8984H59.4294V45.7795H62.9155V38.3289L61.0528 39.4568L59.8908 37.7137L62.9155 35.9536V35.9365H65.1541ZM76.8327 49.5048C76.001 48.5592 75.3403 47.4086 74.8504 46.0529C74.3719 44.6858 74.1327 43.3187 74.1327 41.9517C74.1327 40.5732 74.3719 39.2061 74.8504 37.8504C75.3403 36.4948 76.001 35.3441 76.8327 34.3986L78.1485 35.3897C77.5333 36.5289 77.089 37.5998 76.8156 38.6023C76.5536 39.6049 76.4225 40.7213 76.4225 41.9517C76.4225 43.182 76.5536 44.3042 76.8156 45.3181C77.089 46.3206 77.5333 47.3744 78.1485 48.4794L76.8327 49.5048ZM81.3943 41.7466C81.3943 41.9858 81.5254 42.1681 81.7874 42.2934C82.0608 42.4074 82.488 42.527 83.069 42.6523C83.7298 42.789 84.2823 42.9428 84.7266 43.1137C85.1709 43.2846 85.5525 43.558 85.8715 43.9339C86.2019 44.2985 86.3671 44.794 86.3671 45.4206C86.3671 45.9788 86.1962 46.463 85.8544 46.8731C85.524 47.2833 85.0797 47.5965 84.5215 47.813C83.9633 48.0181 83.3538 48.1206 82.6931 48.1206C81.7931 48.1206 81.0184 47.9497 80.369 47.6079C79.7311 47.2662 79.2583 46.7763 78.9507 46.1383L80.6937 45.2326C81.0013 46.0187 81.6678 46.4117 82.6931 46.4117C83.1374 46.4117 83.519 46.3263 83.838 46.1554C84.157 45.9845 84.3165 45.7396 84.3165 45.4206C84.3165 45.1472 84.1684 44.9478 83.8722 44.8225C83.5874 44.6858 83.1203 44.5377 82.4709 44.3782C81.7988 44.2187 81.2519 44.0592 80.8304 43.8997C80.4089 43.7403 80.0444 43.4953 79.7368 43.1649C79.4292 42.8232 79.2754 42.3732 79.2754 41.815C79.2754 41.2681 79.4292 40.7953 79.7368 40.3966C80.0444 39.9865 80.4602 39.6732 80.9842 39.4568C81.5083 39.2403 82.0836 39.1321 82.7102 39.1321C83.4506 39.1321 84.1114 39.2859 84.6924 39.5935C85.2848 39.9011 85.7405 40.3397 86.0595 40.9093L84.3336 41.7808C84.0374 41.1428 83.4962 40.8238 82.7102 40.8238C82.3114 40.8238 81.9924 40.9093 81.7532 41.0802C81.514 41.2396 81.3943 41.4618 81.3943 41.7466ZM90.6321 44.9763C90.6321 45.3637 90.7232 45.6314 90.9055 45.7795C91.0878 45.9276 91.3783 46.0016 91.777 46.0016C92.0163 46.0016 92.2783 45.9845 92.5631 45.9504V47.8984C92.0277 47.9554 91.5834 47.9839 91.2302 47.9839C90.3188 47.9839 89.6353 47.7788 89.1796 47.3687C88.7353 46.9472 88.5131 46.1953 88.5131 45.113V41.251H86.9068V39.3542H88.5131V37.2523L90.6321 36.5346V39.3542H92.5289V41.251H90.6321V44.9763ZM100.683 39.3542H102.801V47.8984H100.683V47.0611C100.284 47.4029 99.8452 47.6706 99.3667 47.8643C98.8996 48.0465 98.404 48.1377 97.88 48.1377C97.0142 48.1377 96.2566 47.944 95.6072 47.5567C94.9579 47.1693 94.4566 46.6339 94.1035 45.9504C93.7617 45.2668 93.5908 44.4978 93.5908 43.6434C93.5908 42.789 93.7617 42.02 94.1035 41.3365C94.4566 40.6529 94.9579 40.1175 95.6072 39.7302C96.2566 39.3314 97.0142 39.1321 97.88 39.1321C98.404 39.1321 98.8996 39.2289 99.3667 39.4226C99.8452 39.6049 100.284 39.8669 100.683 40.2086V39.3542ZM98.1534 46.1042C98.6205 46.1042 99.042 46.0016 99.418 45.7966C99.8053 45.5801 100.107 45.2839 100.324 44.908C100.551 44.532 100.665 44.1048 100.665 43.6263C100.665 42.9086 100.42 42.3219 99.9306 41.8662C99.4521 41.4105 98.8597 41.1827 98.1534 41.1827C97.4357 41.1827 96.8433 41.4162 96.3762 41.8833C95.9205 42.339 95.6927 42.9257 95.6927 43.6434C95.6927 44.3611 95.9205 44.9535 96.3762 45.4206C96.8433 45.8763 97.4357 46.1042 98.1534 46.1042ZM109.322 39.1321C109.823 39.1321 110.33 39.2403 110.843 39.4568C111.367 39.6618 111.811 40.0378 112.175 40.5846C112.551 41.1314 112.739 41.8662 112.739 42.789V47.8984H110.62V42.789C110.62 42.151 110.438 41.6953 110.074 41.4219C109.72 41.1371 109.305 40.9947 108.826 40.9947C108.348 40.9947 107.937 41.1656 107.596 41.5074C107.265 41.8377 107.1 42.3732 107.1 43.1137V47.8984H104.981V39.3542H107.1V40.0719C107.408 39.7871 107.75 39.5593 108.125 39.3884C108.501 39.2175 108.9 39.1321 109.322 39.1321ZM121.108 35.9365H123.227V47.8984H121.108V47.0782C120.721 47.42 120.288 47.682 119.809 47.8643C119.331 48.0465 118.835 48.1377 118.323 48.1377C117.457 48.1377 116.699 47.944 116.05 47.5567C115.401 47.1693 114.899 46.6339 114.546 45.9504C114.204 45.2668 114.034 44.4978 114.034 43.6434C114.034 42.789 114.204 42.02 114.546 41.3365C114.899 40.6529 115.401 40.1175 116.05 39.7302C116.699 39.3314 117.457 39.1321 118.323 39.1321C118.835 39.1321 119.325 39.2289 119.792 39.4226C120.271 39.6049 120.709 39.8612 121.108 40.1916V35.9365ZM118.596 46.1042C119.063 46.1042 119.485 46.0016 119.861 45.7966C120.248 45.5801 120.55 45.2839 120.766 44.908C120.994 44.532 121.108 44.1048 121.108 43.6263C121.108 42.9086 120.863 42.3219 120.373 41.8662C119.895 41.4105 119.302 41.1827 118.596 41.1827C117.878 41.1827 117.286 41.4162 116.819 41.8833C116.363 42.339 116.135 42.9257 116.135 43.6434C116.135 44.3611 116.363 44.9535 116.819 45.4206C117.286 45.8763 117.878 46.1042 118.596 46.1042ZM131.772 39.3542H133.891V47.8984H131.772V47.0611C131.373 47.4029 130.935 47.6706 130.456 47.8643C129.989 48.0465 129.494 48.1377 128.97 48.1377C128.104 48.1377 127.346 47.944 126.697 47.5567C126.047 47.1693 125.546 46.6339 125.193 45.9504C124.851 45.2668 124.68 44.4978 124.68 43.6434C124.68 42.789 124.851 42.02 125.193 41.3365C125.546 40.6529 126.047 40.1175 126.697 39.7302C127.346 39.3314 128.104 39.1321 128.97 39.1321C129.494 39.1321 129.989 39.2289 130.456 39.4226C130.935 39.6049 131.373 39.8669 131.772 40.2086V39.3542ZM129.243 46.1042C129.71 46.1042 130.132 46.0016 130.508 45.7966C130.895 45.5801 131.197 45.2839 131.413 44.908C131.641 44.532 131.755 44.1048 131.755 43.6263C131.755 42.9086 131.51 42.3219 131.02 41.8662C130.542 41.4105 129.949 41.1827 129.243 41.1827C128.525 41.1827 127.933 41.4162 127.466 41.8833C127.01 42.339 126.782 42.9257 126.782 43.6434C126.782 44.3611 127.01 44.9535 127.466 45.4206C127.933 45.8763 128.525 46.1042 129.243 46.1042ZM141.146 39.1833L140.992 41.1827C140.924 41.1599 140.804 41.1485 140.633 41.1485C139.927 41.1485 139.34 41.3536 138.873 41.7637C138.418 42.1738 138.19 42.732 138.19 43.4384V47.8984H136.071V39.3542H138.19V40.7897C138.383 40.334 138.714 39.9523 139.181 39.6447C139.648 39.3371 140.212 39.1833 140.873 39.1833H141.146ZM148.827 35.9365H150.946V47.8984H148.827V47.0782C148.439 47.42 148.007 47.682 147.528 47.8643C147.05 48.0465 146.554 48.1377 146.041 48.1377C145.176 48.1377 144.418 47.944 143.769 47.5567C143.119 47.1693 142.618 46.6339 142.265 45.9504C141.923 45.2668 141.752 44.4978 141.752 43.6434C141.752 42.789 141.923 42.02 142.265 41.3365C142.618 40.6529 143.119 40.1175 143.769 39.7302C144.418 39.3314 145.176 39.1321 146.041 39.1321C146.554 39.1321 147.044 39.2289 147.511 39.4226C147.989 39.6049 148.428 39.8612 148.827 40.1916V35.9365ZM146.315 46.1042C146.782 46.1042 147.203 46.0016 147.579 45.7966C147.967 45.5801 148.269 45.2839 148.485 44.908C148.713 44.532 148.827 44.1048 148.827 43.6263C148.827 42.9086 148.582 42.3219 148.092 41.8662C147.613 41.4105 147.021 41.1827 146.315 41.1827C145.597 41.1827 145.005 41.4162 144.538 41.8833C144.082 42.339 143.854 42.9257 143.854 43.6434C143.854 44.3611 144.082 44.9535 144.538 45.4206C145.005 45.8763 145.597 46.1042 146.315 46.1042ZM164.743 43.4554V35.9365H166.982V47.8984H165.068L159.873 39.7985V47.8984H157.634V35.9365H159.873L164.743 43.4554ZM176.576 35.9365V38.0555H171.655V40.9264H176.388V43.0453H171.655V47.8984H169.416V35.9365H176.576ZM186.589 35.9365V38.0555H183.291V47.8984H181.069V38.0555H177.788V35.9365H186.589ZM188.484 34.3986C189.315 35.3441 189.97 36.5005 190.449 37.8675C190.927 39.2232 191.167 40.5846 191.167 41.9517C191.167 43.3187 190.922 44.6858 190.432 46.0529C189.953 47.4086 189.304 48.5592 188.484 49.5048L187.151 48.4794C187.766 47.3744 188.21 46.3206 188.484 45.3181C188.757 44.3042 188.894 43.182 188.894 41.9517C188.894 40.7213 188.757 39.6049 188.484 38.6023C188.222 37.5884 187.777 36.5175 187.151 35.3897L188.484 34.3986Z" fill="#E6E8EB" fill-opacity="0.8"/>
</svg>
