<svg width="643" height="437" viewBox="0 0 643 437" fill="none" xmlns="http://www.w3.org/2000/svg">
<g filter="url(#filter0_d_239_9)">
<path d="M116.25 44.25H123.75L128.25 45.5L132 47.5L135.25 50.25L137 52.75L139 56.75L139.5 58.75V66.75L138.5 70.75L136.75 74.5L134.75 78L132.25 81.5L131.75 82L138.75 83.5L143.75 85.5L147 87.5L149.75 89.5L152.25 91.75L155.5 95L159.25 100L161.5 103.5L164.25 106.5L166.75 108L171 109L173.25 109.25H178.25L186 108.25L190.5 108H194.25L199.25 108.5L203 109.5L207.5 111L212.25 113.5L215 115.25L218.25 118.25L220.25 120.5L222.75 124.25L225 128.5L227 134.5L228 142.25V146.5L227 155.5L224.75 164L222.75 169.25L220.5 174L218 178.5L215.5 182.25L213 185.75L209.75 189.5L203 196.25L201 198L196.75 201.5L192.5 204.5L187.25 208L183 210.5L177 213.75L169.25 217.25L162.75 219.75L156.75 221.75V226.25L157.5 227.75L160.75 230.25L164.25 233.25L167.5 236.25L171.25 240L174 243.5L177 247.75L179.75 252.25L181.25 254.5L182.5 256H183.5L185.75 250.75L188.5 243.75L192 234.75L194.5 228.5L196.75 223.5L198.5 220L200.5 218.75L202 218H204.75L211.75 219.5L216.5 220.25L221.5 221.25L227.75 222.25L232.75 223.25L239 224.25L242 225H243.25L244.5 221.5L246.25 216.5L247.5 213L249 210.25L250.5 209.25L252.25 209L254.25 209.75L255.25 211L255.5 211.5L255.25 213.75L254.25 217.5L253 220.75L251.5 224.75L251.25 226.25L254.25 227L258.25 227.5L259.75 228.25L261.25 230L262.25 232.25L262.5 234.75L262 237.5L258.5 245.25L255.5 252.25L252.5 259L250.75 263L249.5 266.25L249.25 267.25L252.5 270.25L254.25 272.75L256 276.5L256.75 279.5V285.5L255.75 288.75L254 291.5L253.5 292.25H253V292.75H252.5L252 293.75L251.75 295.25V298L251 301.5L249.75 304.5L247.75 307L245 309.25L244.5 311.5L243.5 314.75L242 317.75L240.25 320L238.5 321.75L235.75 323.5L232.25 325L229 325.5L223.25 325.75L222.5 327L221.25 328.5L219 329.75L217.75 330L211.75 329.25L203.5 328L193.5 326.25L188 325.25L182 324.25L178.25 323.5L177.75 325.25L175.75 330.75L172.25 337.75L170.75 340.25L170.5 341.75L171.75 346.5L172.5 350.5L173 357V360.5L172.75 365.5L171.75 371L170.5 376.25L170.25 378.25L172.5 378.75L176.75 380.25L181.5 382.75L184.75 385.25L187.75 388.25L190 391.5L191.75 394.5L193.75 400.25L194.25 404.25V407.5L193.75 411.25L193.5 411.75L196.5 412.25L201.5 413.25L205.75 415.25L207 416.75L207.25 417.25V418.75L205.5 420.75L203.25 422.25L196.75 424.25L185.25 426.25L165.5 428L156.5 428.5L147.5 428.75L131 429H102.75L83.75 428.5L74.5 428L51.75 426.25L36.5 424.25L28.75 422.5L25 421L23 419.5L22 418L22.25 416L23.5 414.5L25.5 413.25L30.25 411.75L32.75 411.25L35.25 411L41.5 410.75V407.25L42 402.25L43.75 394.25L45.5 388.75L49.25 377.5L51 371.5L52.25 365.5V359L51 352.5L48.5 345.75L46.5 341.5L46.25 341.25L36.25 341L31.75 340.25L25.25 338L21.25 335.75L18.5 333.75L16 331.75L11.25 327L8.5 323L6.75 320L5 315.5L4.25 312.25L4 309.25V304.5L4.5 299.5L5.75 295.75L7.5 292.5L9.5 290.5L11.25 289.75H14.5L16.5 290.75L18 292.75L19.5 296.25L21.25 301.25L23.25 305.25L25 308L27.25 310.75L29.5 313L32.25 315L35.75 317L37.25 317.5L35.5 308.25L34 297.25L33.75 291.75V288.25L34 281L34.75 275.25L36.25 266.5L38.25 259.25L40.75 252.5L42.5 248.75L45.25 243.5L48.75 238.25L51 235.25L54.25 231.5L58 227.5L59.75 225.25L60.25 223.25L48.5 225H42.75L35.75 223.75L32 222.5L27.5 220.5L24.5 218.75L21.5 216.5L17.5 212.5L15 209L12.25 203.25L10.75 198.25L10 193V184.5L10.75 179L12.75 172.25L15.25 166L18.75 158.75L22 153L23.5 150.25L26.25 145.25L28.25 142L29.75 139.25L31.5 135.25L32.5 132.75L33.5 130.75L34.5 127.75L30.75 125.5L28.25 123.25L26.25 120L25.25 116V112.5L26 109.25L26.75 107.5L29 103.5L31.5 100.25L33.5 97.75L35.25 96L37 94L40.5 90.5L42.5 88.75L46.25 85.25L49 83L52.75 80L55.75 77.75L60.75 74.25H61.25V73L59.25 70.5L57.5 66.75V64.25L59 61.25L60.5 60L62.25 59.25H64.75L67.5 60.25L71.25 63.25L72.25 64.25V64.75H72.75V65.25L74 64.5L78.5 61.25L86.5 56.25L91.25 53.5L96 51L101 48.75L107.5 46.25L113.5 44.75L116.25 44.25ZM126.25 89L122.25 89.5L116 91L109 93.5L104 95.75L95.5 99.75L89 103L77.5 109.5L72 112.75L68.5 114.75L70 116.5L70.75 116.75L71.25 117.75L73.75 120.25L76.75 124.25L79.75 129L82 133.25L84.25 139L86 144.75L87.5 152.5L88 156.25L88.25 160V168.25L87.75 175L85.75 185.25L83.5 192.75L81 199.25L79 203.75L77 208L77.25 209L80 211.25L83.25 213.25L88.5 215.75L92.25 217.25L101.25 219.5L110.75 220.75L113.75 221H123L127.75 220.5L136.5 219.25L142.75 217.75L146.5 216.75L149 216L153 214.75L160.5 212.25L164.5 210.75L168.25 209.25L175.75 205.75L180.75 203L186.75 199.25L190.25 196.75L193.75 194L197.25 191L199.75 188.75L203.75 184.75L206 182L208.5 179L212 173.75L213.25 171.75L215.5 167L216.75 164L218.75 157.75L219.5 154L220.25 149V141.5L219 134L217 129.5L215 126.5L212.75 123.75L210 121.25L206 118.75L201.5 117L199 116.25L194.25 115.75H190.75L181.5 116.5L177.5 117H173L166.75 116L163.5 114.75L160.25 113L157.25 110.25L155.25 107.75L152.75 104L150.25 100.5L147.5 97.5L145.5 95.5L141.5 92.75L137.75 91L132 89.5L126.75 89H126.25ZM204 226.5L200.75 234L198 240.25L195.75 246L192.75 253.25L190 259.75L189 262.5L187 267.5L185.75 270.5L186 271.5L189.75 275L192.25 278L194.25 281.5L195.75 284.5L197.25 289.5L197.5 291L197.75 296.25L198.5 297.75L200 299.75L203.25 305L204.25 307.25L205.5 309.75L205.75 310.5V312.5L204.75 314L203.5 314.75L201.25 314.5L196.25 312.5L191.75 310.25L189.5 309H189L187.25 314.25L186 316.5V317.25L192.75 318.75L201.25 320L206 321L215.75 322.5L216 322L214.25 318L213.75 315.75V311.25L214.5 309L216 306.25L218.25 303.75L219.5 302.75V297.5L220.25 295.25L221.5 293L222.5 291.75L225.5 289.5L225.75 287.75V285L227.25 281L228.75 278.5L230.5 276.75L234 274.5L238.25 273L238.75 271.75L239.25 270.25L241 267.75L242.75 263.5L245.25 257.5L248 251.25L249.5 247.5L252.25 241.25L253.75 237.75L254.75 235.5V234.25L253.25 233.75L249 233.25H247L246.75 236.25L245.75 237.75L244.5 238.75L242.25 239L240.75 238L239.5 236.25L239.75 234.5L240 233.5L238.5 233L237 233.25L236 235L234 236.75L233.5 237H231.5L229.5 235.25L229.25 233V231.5L228.75 231.25L227.5 232.5L226.25 234.5L225.75 235L224 235.25L221.75 234.75L219.5 230.5L218.75 229.75L217.75 230L216.25 232.25L215 233.25L214.5 233.5H212.25L210.75 232.75L210 231.5V227.75L207.75 227L205.75 226.5H204ZM63.75 232.5L61.75 234L58.75 237.25L56 240.75L53.75 244L51.5 247.75L48 254.5L45.75 260.25L44 266.25L42 276.75L41.5 283V295.5L42 301.75L43.75 312.25L45.75 320.75L48.25 328.25L50.25 333L53.75 340.25L55.75 344.25L57.5 349L58.75 353L59.75 360.25V364.25L58.75 372L56.5 379.75L52.25 392.25L50 400L49.25 405.75V408.5L50 411.75L51.5 414.25L53.5 416L56.25 417L63.75 418.25L69.75 418.75L87.75 419.5H91L92.75 418.75L94 417.25L94.25 416.5V411.5L93.25 408.75L91.25 405.5L89.75 403L89.5 400.75L90.5 398.75L92.25 398.25L94.5 399L96 400L97.75 402L99.75 405.5L101.5 410L101.75 411V416L101 418.5V419.5L101.5 419.75L106.75 420H112.25L114.5 419.25L115.5 418.25L115.75 417.25V411.25L114.75 408.25L113.25 405.5L110.75 402.25L110.25 401.25L110.5 399L111.75 397.75L113.25 397.25L115.25 397.5L117.25 399L119.5 401.75L121.5 405.75L122.75 410L123.25 414.25V418.5L125 418.75L128.25 418.25L131.5 417L132.75 416L133.5 414.5L133.75 413.25V406L133 402.25L130.5 397.5L128.5 395.25L126 393.25L122.75 391.25L119.25 389.5L112.25 387L111 385L111.5 382.5L113.25 376.5L114 371.25L114.25 367.25L114 356.5L114.5 355L120.5 353.25L122.25 353L127.5 352.75L130.75 352.25L133.75 351H136.75L138.25 352.25L138.75 353.25V355.25L137.25 357L135.25 358L129 359.5L122 360.5L121.75 360.75L121.5 363L121 371.75L120.25 376.75L119.5 380.5L119.75 381.5L122 383L126 385L129.25 387L132.5 389.5L135.25 392.25L137 394.75L139 398.75L140.75 404L141 406.25V410.75L140.75 415.25L141.5 415.5L153.5 416H155.5L156.75 415.25L157.75 414L158.5 410.5L158.25 408.25L156.25 403.5L155 400.75L154.75 400V397.25L155.5 396L156.25 395.5H158L160 396.5L161.75 398.5L163.75 402.25L164.75 405.5L165.25 408V412.75L164.75 415L165.5 415.75H171L173 415L174 413.75L174.25 413V408L173.5 405L171.75 401.5L170.75 399.75V398L172 396.25L172.75 395.75H174.5L176 396.5L177.25 397.5L179.5 401L181 405.5L181.5 407.5V411L181.25 413.25L182.25 414H183.75L185.5 411.75L186.5 408.5V403.25L185.75 399.75L183.75 395.5L181.5 392.25L179.5 390.25L176 388L171.25 386L165.25 384.75L162.25 383.5L161.25 383.25V379.75L162.25 377.75L163.75 372.25L164.75 367.75L165.75 360.25V356.25L164.75 349.25L164 346.25L162 341V339.75L164.75 335.25L166 332.75L167 330.5L167.5 328.25L166.75 328L162 329.25L158 330.5L154.25 331H147.25L143.25 330.25L139.25 328.75L137 329L130.5 330L124 330.5H117.5L111 330L100.5 328.5L91.75 326.25L88.25 325L83.25 323L77.5 320.25L73.25 317.75L69 314.75L65 311.5L61 307.75L58.75 305.25L55.25 300.5L53.25 297L51.75 294L51 291V289L51.75 287.5L53.25 286.75L55 287L56.25 287.75L57.75 290.25L61.5 296.75L64.75 300.75L67 303.25L69 305.25L71 307L74.5 309.75L79.5 313L83.75 315.25L89 317.5L94 319.25L100 321L110.25 322.75L117 323.25H123.5L129.5 323L135.25 322L137.75 321.5H140.75L144 323L148 323.75L149.75 324H153.75L158.75 323L164.5 320L165.75 319.75L168 320.75L169.5 320.25L171.5 318.75L172.25 317.25V314.75L171.5 312.75L169.75 310.5L167.5 308.25L165.25 306.5L164.5 305V302.75L165.25 301.5L167 300.75L169.5 301L172.5 302.5L175 304.75L176.75 306.5L178 308.25L179.25 310.75L180.25 310.5L181.5 308.25L182 307L181.75 304.5L180 299.75L177.5 296.25L174.5 293.25L171 290.75L169 289.5H168.5L168.25 288.5V286.5L169 284.75L170.25 284.25H173L175.75 285L179.5 287L182.75 290L184.25 292L186.5 296L187.5 297.5L188.75 297L190.25 295.25L190.5 293.5L189.75 288.75L188.75 286.5L187 283L185.25 280.75L183 278.5L179.75 276.25L176.25 274.5L170.25 273L168.75 272.75H163.25L156.5 274.5L151.75 277L149 278.75L146 280.75L141.25 283.75L137 285.75L131.75 287.25L125.5 288H119L114 287.5L106.25 285.5L100.75 283.25L96.5 281L91.5 277.5L88.5 274.75L87.25 273.5L85.25 271L83.5 267.5L83.25 265.25L84.75 263.5L85.75 263L88 263.25L90 264.75L92 267.5L93 269L95 271.25L98.5 273.75L103 276.25L107.75 278.25L113.5 280L117.5 280.5H127.25L132.25 279.75L137 278L141.25 275.5L145.5 272.75L147.25 271.5V271L144.75 269.5L141.25 266.75L139.25 264.5L137.75 262L137.25 260.5V256.5L138.25 253.75L139.75 251.5L141.75 249.75L144 248.75L146.25 248.25H148.5L151.5 249L153 250L155.75 252.75L160 256L163.5 259L167.5 262.75L168.75 264.25L170.75 266.25L176 267L177.5 267.5L178.75 267.25L179.25 266.5V265L177.5 262.75L175.5 260.25L172.5 255.25L170.75 252.25L168.75 249.5L166 246L163 242.75L162 241.5L160 239.75L157.5 237.75L156.75 237.25H155.25L153 239.25L149 242L144.75 244.25L138 246.75L131.25 248.5L122.75 249.5H112.25L102.75 248.75L98 248L90.75 246.25L84.5 244L80.25 242.25L76 240L72.25 237.75L67.75 234.75L65.25 233L63.75 232.5ZM146 255L144.75 256.25L144 258L144.25 259.5L145.25 260.75L146.25 261L147.25 260L149.25 256.75L149.5 255.75L148.25 255H146ZM246.25 275.25L245.25 277.25L244.25 278.5L242.25 279.75L237.75 280.5L235 282.25L233 284.5L232.75 285.25V287.25L233.75 289L235.75 290.25L238.25 291H243.25L246.5 289.75L248.5 288L249.5 284.75L249.75 283L249 279L248 276.5L246.75 275.25H246.25ZM228.5 295.5L227.25 296.75L226 299.25V301.25L227 303.25L228.25 304.25L230.25 305.25L232.5 305.75H237L239.75 305L242 303.5L243.5 301.75L244.25 300.5L244.5 298H237L234 297.25L231 295.75L230.25 295.5H228.5ZM222.75 309.5L221 311.5L220.5 312.75V314.75L221.5 317L223.5 318.25L224.75 318.5H228.25L232.25 317.25L233.75 316.25L235.5 314.75L236.5 313L231.75 312.75L228 311.75L225.25 310.75L223.75 309.5H222.75Z" fill="white"/>
<path d="M285.25 249H423.75L428.75 249.25L432.25 250.25L436.25 252.25L438.25 254.25L440 257.5L441 261.5L441.25 263V315.25L440.75 318.75L440 321.25L437.5 324.75L436.5 326L437 327.5L438.25 330.75L439.75 336.25L440 339V341.5L439.5 345.75L437.75 351.75L435.5 356L433.5 358.75L430.5 362L427 364.75L423.5 366.75L420.75 368L415.25 369.5L411.25 370H409L410.5 372.25L411.75 377L412 381L413 382.5L414.25 383.5L416.25 386.5L417 390L416.25 406.5L415.75 415.75L414.75 420L413.5 422.5L411.25 425L409.25 426.5L406.5 427.25L404 427.5L393 427.75H367L360.25 427.5L356.25 426.5L353.5 424.25L352.25 422.75L350.5 422.5H348.5L346.25 422L343.75 421L341.5 419.5L339.75 417.5L338.5 415.25L337.25 411.25L337 409.75L336.75 402.5V373.75L338 370L339.5 367.5L341.25 365.75L343.5 364.25L347.5 363L354 362.75L385.25 362.25L391 362L388.75 359.5L386 355.75L384 351.75L382.75 348.25L381.75 344.25V335.5L383.75 328.75L385.5 325.5L356.5 325.75L346.5 326H327L293 325.75L285.75 326.25L282 326L278 325L275 323.25L272.5 320.75L271 317.75L270.25 314.75L270 311.75V262.75L270.5 259.25L272 255.75L274 253.25L276.75 251.25L280.5 249.75L282.75 249.25L285.25 249ZM424.25 256L417.25 256.25L282.75 256.5L280.25 257.75L278.75 259L277.75 260.75L277.25 262.75L277 311.5L278 315.75L279.25 317L282.25 318.5L283.5 318.75L301 318.5L329.5 319H390L392.5 317.75L396 315L399.5 313L402.25 311.75L407.5 310.25L409 310H414L418 311L421.5 312.25L425.5 314.5L428.25 316.5L430 317.75L431.5 318L433 317L433.75 315.5L434.25 311.5V262.75L433.75 260.5L432.5 258.5L431 257.25L428.75 256.5L424.25 256Z" fill="white"/>
<path d="M254.5 333.25H258L262.75 334L267.25 335.25L272 337.5L275 339.5L279.25 342.75L280.75 343.5L285 344L300 344.25L306.5 344.75L309.75 345.75L312.75 347.5L315 349.75L317 353.25L318.5 357L319.25 361V414.75L318.75 417L317 420L314.75 422.5L312.75 424.25L309 425.75L307.5 426.25L303.75 426.5H234.5L231.25 425.5L228.25 424L225 421.25L222.75 418.25L221.5 415.5L221 413.25L220.75 409V375.5L207.75 375.25L203.75 373.5L202 372L200.25 369.5L199.5 367.25V364L200.75 361L202.25 359L204.5 357.25L206 356.5L207.25 356.25L210.75 356H222.25L223.5 355.5L227 350L228.75 347.75L231.75 344.25L235.25 341L239 338.25L243 336.25L245.75 335L252.25 333.5L254.5 333.25Z" fill="white"/>
<path d="M291.5 30.75H300L303.25 31L305.25 31.75L306.75 33L307.5 35L307.75 41L309 42.25L314 44.5L315.25 44.25L317 42.75L318.75 40.75L321.25 39.25L323.25 39L325.75 40L328.75 42.75L331.75 46L334.25 49.25L336 52.75L336.25 54.25L334.75 57.25L332.75 59.5L331 61L330.75 62L332 65.25L333 67L338.25 67.25L340.25 67.75L342 69.25L342.5 70.5L343 74.25L343.25 75.25L343.5 79V83.5L343 86L341.5 88.25L339 89L334.75 89.25L333 89.5L331 94.25L330.75 96L334.25 99L335.75 101.5L336 102.25V104L334.25 107.25L331.5 110.5L329.75 112.5L328.5 113.75L326 116L323.5 117.75H321.25L319.75 116.75L317.25 114.5L315.25 112.5L314 112.25L311.25 113.25L307.75 114.75L307.5 120L307 123L305.25 125.25L304.25 125.75L302.5 126H290.5L288.25 125.5L286.25 123.5L285.5 121L285.25 115L279 112.25L278.25 112.5L276 115.25L274.25 116.75L273.25 117.75L271.5 118.25H269.75L268.25 117.25L259.25 108.25L257.25 105.25L257 103.5L258.25 101L261.5 97.75L262 97L261.75 95L260 91L259.5 89.25L257.25 89.5L255.5 89.75L251.75 88.75L250.5 87.75L249.25 85.5L249 84.25V78.5L249.75 71.5L250.5 69.25L251.5 68L253 67.25L254.5 67H260L260.75 64.75L262.25 61.5L261.75 60.25L259 56.5L257.25 53L257.5 51.75L259 49.25L261 47L263.25 44.25L266 41.75L269 40L271.5 39.75L274 40.25L276 41.75L277.75 43.25L278.75 44.75L280 44.5L284 43L285.25 42L286 34.25L287 32.5L290 31L291.5 30.75ZM294.5 65.25L292 65.75L288.5 67.75L286.75 69.5L285.5 71.5L284.25 74.75L284 76V80.25L285 83.5L286.25 86L288.5 88.5L291.5 90.5L295.25 91.25H297.5L300.5 90.75L303 89.5L305.5 87.5L307.5 84.75L308.75 82.25L309.25 79.75V76.25L308.5 73.5L306.75 70.25L304.5 67.75L301.5 66L298.75 65.25H294.5Z" fill="#3F6981"/>
<path d="M321.5 0H328L334.75 1L341.5 3.25L346.25 5.75L350 8.25L352.25 10L355.25 12.75L357.75 15.25L358.25 16L359.5 15.75L362 14.5L366.75 12.75L372.75 11.75H381.75L389.25 13L393.5 14.5L397.5 16.5L400.5 18.25L403 20.25L406.5 23.25L409.75 26.75L412 29.75L414.25 33.5L416.25 37.75L418 43.25L418.5 45.75L418.75 49.25L420 50.5L423.25 52.5L426.25 54.75L429.25 57.5L431.75 60.5L434 64L436 68L437.75 72.25L439 79L439.25 81.5V85.25L438.5 90.75L437.75 95L435.75 100.25L433 105.25L430.5 108.5L428.25 111L425.5 113.5L421.5 116L417 118L413.75 118.75L413 120.5L411.75 123.75L410 127.75L407.75 131.25L405 134.75L402 138L398.75 140.75L395 143.25L392 145L386.5 147.25L379.5 148.75L377.5 149H375L368.75 147.75L366 147.25L365.25 149.75L363.5 153.25L361.5 155.5L358.75 157.5L355.25 159.25L351 160.5L348 160.75L345.25 160.25L341 158.75L339.75 157.75L337.5 156.5L334.75 153.75L332.75 149.75V149.25L330 150.25L326.75 151.5L321 153L318.5 153.25H307.75L304.5 152.75L300.5 151.5L298 150.75L293.5 148.75L288.75 145.75L285.75 143.5L285 143.25H283L276.25 144.75L273.25 145.25H269.25L264.5 144.5L259.5 143.25L255.25 141.5L250.75 139L246.75 136L243.75 133.25L240.75 129.75L238.25 126L236.25 122.25L234.75 118.5L233.25 114L232.75 111L231.5 109.75L227.25 106.75L224.75 104.5L222.25 101.75L219.75 98L217.25 92.75L215.75 88.5L215 84.75L214.25 78.75V75.25L215.25 68.5L216.25 64.75L217.75 61L220.5 55.75L224 51.25L227 48.25L230.5 45.75L233 44L234.5 39.5L235.5 36L237.75 30.5L241 25.25L243.5 22L246 19.25H246.5L246.75 18.5L249.5 16.25L253.25 13.5L258.5 10.75L263.5 9L269.5 7.75L273.25 7.25H278L284 8.25L288.75 9.5L293.5 11.5L294.5 12L295 11L296.75 9.25L300.5 6.5L304.5 4.25L308.25 2.75L313 1.25L319.5 0.25L321.5 0ZM324.25 7L319.25 7.5L312.75 9L307.75 11L303.75 13.5L300.75 16.25L297 20L296 20.5H293.75L291.5 19.25L288 17.25L285.25 16.25L281 15L279.25 14.75H271.75L267.5 15.5L262.5 17L258.5 19L254.5 21.5L251.25 24.5L249 26.75L246.25 30.75L244.75 33.5L243.25 36.75L241.25 45.5L240 49.25L238.75 49.75L236.75 51L234.25 52L231.75 54L229.5 56.25L227.75 58.75L225.5 62.75L223.75 66.5L222.75 70.5L222 74.5V81.25L223.5 88.25L225.5 93L227.5 96L229.75 98.75L231.5 100.5L235 103.25L237.25 104.5L238.75 105.5L239.5 106.75L240.75 114.25L242 117.75L243.5 121.25L245.25 124L247.5 126.75L251 130.25L253.5 132.25L255.75 133.75L259.75 135.75L265.75 137.5L267.5 137.75H273.75L277.75 137.25L284.25 135L286.5 135.25L288.75 136.75L292.5 139.75L295.25 141.5L299.25 143.5L304.25 145.25L310.25 146H318L323 145.25L327 143.75L332.25 141.5L332.75 138.75L334 136.25L335.75 133.75L336.75 132.75V132.25L337.75 131.75L340.5 129.75L343.75 128.25L347 127.75H351.25L354.5 128.25L356.75 129.25L359.5 130.75L362.5 133.5L364.25 136L366.25 140L369.75 141.25L371.5 141.5H378.75L382 141L387.75 139L391.5 137L394.75 134.75L397.75 132.25V131.75L398.75 131.25L401.25 128.25L403.25 125L404.75 122L406.75 114.75L408 113.5L409.5 112.75L414.25 111.75L418.25 109.75L421.25 107.5L424.5 104.5L426.75 101.5L428.5 98.5L430.25 94.25L431.75 87.25L432 84.75V82.25L431.25 77.5L429.75 71.75L427.75 67.5L425.25 64L422.5 61L420.75 59.5L417.75 57.75L415 56.75L412.5 55L411.5 53.25L410.75 45.5L410 42.25L408 37.5L406.25 34.5L404.25 31.75L401.5 28.75L398.75 26.25L395.5 24L393 22.5L388 20.5L381.25 19L379 18.75H375.75L371 19.5L366.5 20.75L359.75 24.25L358 24.75L355.75 24.5L354.25 23.5L351.5 20L346.5 15L342.5 12.25L338.25 10L333.75 8.5L328 7.25L324.25 7ZM348.75 134.5L344.75 135.5L343 136.5L341.5 137.75L340 140L339 143V145L339.75 147.5L340.75 149.5L343 151.75L345.25 153L347.75 153.5H350.5L353.25 152.75L355.5 151.25L357.25 149.5L358.5 147.25L359.25 145.25V142.5L358 139L356 136.75L352.5 135L349.5 134.5H348.75Z" fill="white"/>
<path d="M260.5 154H265.5L270.5 155.25L273.25 156.75L275.75 159L278 162.5L278.75 164.5L280 166.75L280.25 167H284.5L287 168.25L289.25 170L291.75 172.25L293.5 173.75L295.25 176L297 179.75L297.25 180.75V183.5L296 186.5L295.5 188L298.25 187.5H300.25L304.75 188.5L307.75 190.25L310.25 192.5L311.5 194L313.5 195.75L316.5 198.75L318.25 201.25L320.5 205.5L322 207.5L323.25 208H325.25L327 207.75H331.5L336.5 208.5L343 210.25L346.5 212.25L349.5 215L350.5 217L351 218.5H354.25L356 218.25L356.25 214L357.25 211.5L358.75 208.75L361.5 205.75L363.25 203.75L366.75 200.25L369.5 198L372.5 196.25L375.75 195.5H378.5L383 196.25L385.25 196.75L387.25 195L388.5 193.75V192.75L387.25 190.25L387 188.75V182.25L387.5 179.25L389.25 176.25L391.5 173.75L391.75 173.25H392.25L392.75 172.25L403.25 161.75L405.75 160L407.75 159L411.5 158H416.25L420.25 159L422.5 160.25L425 162.5L426.75 164.75L428.25 168L428.75 170.75V174.25L428.25 177.75L427.5 179.75L425.75 182.5L422.75 186L420.75 187.75L419.5 189L418.5 190.25H418V190.75H417.5L417 191.75L412.5 196.25L410 198.25L406.5 200L403.75 200.5H400L397 200H395L393.75 201L392.25 202.75L391.5 203.25L391.75 204.5L393 207L393.25 210L393 214L391.25 217.75L389.75 219.75L388.5 221.25L386.5 223L384.5 225L382.5 226.75L379 229.75L375.75 232L373.25 233.25L372 233.5H366.75L364 232.5L361.5 230.75L359.25 228.5L357.75 226L357.5 225.5L352.25 226L351 226.25L350.5 227.75L348.75 230.5L347 232.5L344.5 234L342.25 235L341 235.25H338.25L336 234.75L332 233.5L327.75 232.25L324 230.75L321.75 229.25L320 227L319 225L318.5 222.75V220L318.75 217.75L317.25 217.25L316 217L314 218.75L312 219.75L309.75 220.25H305.75L302.5 219.75L300.25 218.25L297.75 216L294.75 213L293 211L290.75 208.5L288.25 204.75L287.5 202.5L287.25 200.75V198.75L288 194.75L288.25 194L287 194.25H281.75L280 193.5L277.25 192L275.5 190.25L275 190V189.5L274.25 189.25L272.5 187.25L270.5 185L269.75 184.75L266 185.75L263.75 186L259.75 185.25L256.75 184.25L256.5 185.75L255.25 187.5L254.25 192.25L252.5 195.75L251.25 196.75L248.5 198L243.25 198.25L242.75 199.75L243 201.5L244.5 204V207.25L242.75 211.5L240.5 215L238.5 217.25L237.25 217.75L235.75 217.5L234.25 216.5L233.5 215.25L233.75 213.5L235.75 209.5L236.75 207.75L237 206.5L234.75 205L233.5 203.5L233.25 202.25L234.5 200L235.5 198.75L237.5 197.5L238.25 196.75L237.75 195.75L236.25 194.75H235.5L235 196.25H234.5L234 197.25L232.25 199.25L229.75 201.25L227.25 203.75L227 204.5V206.5L227.75 209.5L229 212.25L229.25 213V214.75L227.5 216.25H225L222.75 215.5L221.5 214L220 210.75L219.25 207.25V203.25L220.5 200.75L222.25 198.25L224.5 195.75L224.75 195.25H225.25L225.5 194.5L228.5 192.25L231.5 190.75L231.25 189.25L230.25 185.5V181.25L231.25 177.5L233.5 174L236.25 171L239.75 168.75L243.75 167.25L247.25 167L248 165.25L248.75 162.25L250.75 159.25L253.5 156.5L256.5 155L260.5 154ZM261.75 161.25L258.5 162.25L256.25 163.75L254.75 166.5V168.5L255.75 170L257.75 172.25L259 175.5L260.25 176.75L262.5 177.75H265.75L267.5 177.25L267.75 176.75L267.25 175V172L267.75 171L268.25 170.75H272L272.25 169.75L271.75 166.5L270.25 164.25L268.75 163L265 161.5L261.75 161.25ZM412.75 165.25L410.5 166.25L408.25 167.75L405 170.75L403.25 172.75L397.75 178.25L395.5 181L395 182.25L394.75 183.75V186.75L396 186.5L397.75 185H400.25L402.25 186.5L402.75 187.5V189.25L402 191.25L401.25 192.5V193.25L403 193L405.5 192.25L408 190L412.75 185.25L414.5 183.25L418.5 179.25L420.25 177L421 174.75L421.25 172.25L420.75 169.25L419.5 167.25L416.75 165.5L416 165.25H412.75ZM281.5 174L280.25 174.75L279 176.25L277.75 177.5L276.25 179.75V181L279.25 184.25L281 186.25L283 187.25L285 187.5L286.25 185L288.75 184.75L289.25 184.25L289.75 182.25L289.5 180.25L288.5 178.75L285.25 175.5L282.75 174H281.5ZM246 174.25L243.25 175L241 176.5L239 178.75L237.75 182V185L239 187.5L241 189.25L243 190.25L244 190.5H246.75L247 190.25L247.25 186.5L248.75 183.5L249 182.75L250 182.25L252 179.75L251.5 177.5L250.5 176L248.75 174.5L247.75 174.25H246ZM301.5 194.75L302 196.25V198L301.25 199.5L300.5 200L298.25 200.25L296.75 199.75L296.25 198.75L295.75 198H295V201.75L296 203.75L299.25 207L301 209L303.75 211.75L306 213H308.25L310.75 211.75L312 210.25L312.5 208.5L312.25 206L310.75 203.25L305 197.5L303.25 195.5L302.25 194.75H301.5ZM375.5 202.75L372.75 204.5L367.25 210L364.25 214L364 215.5L364.25 216L368.25 217L369.75 218L370.25 219V221.5L369.25 223L366.5 224.5L367 225.5L368.25 226.5L370 226.75L372.5 225.75L376 222.75L378 221L380.5 218.75L382.5 217L385.25 214.25L386.25 211.5L386 209.75L384.25 210L382 211.25H379.75L378.5 210.5L377.25 209V206.75L378 205L378.25 204.25H378.75L379.25 203.25L377.75 202.75H375.5ZM330.75 215L331 216.25V218.25L330.25 219.5L329 220.25L326 220.5L325.75 221.25L327 224.25L328.5 225.25L333.25 226.5L336.5 227.75L338.75 228.25L340.75 228L342.25 227.25L341.75 226.25L340 224.5L339.5 223.5V222.25L340.75 220.75V220.25L342.75 219.75L343 218.5L341.5 217.5L337.75 216.25L331.5 215H330.75Z" fill="white"/>
<path d="M252 340.75H258.5L262.5 341.75L267.25 343.5L269.75 345L273.75 348L276.25 350.5L278.5 353.5L279.75 355.25L280.75 357.5L282 360.5L283 363.75L283.5 366L283.75 368.5V375.5L283.5 378.25L282.75 379.5L278.5 381.75L276.75 382.75L274.25 385L272 388.5L270.5 391.75L269.75 394.25L269 395.5L265.75 397.5L262.25 398.75L258 399.25L254 399.5H251.25L247 398.5L245 397.75L242.25 396.75L238.75 394.75L236.5 393L233.75 390.25L231.25 386.75L229.25 382.5L227.5 376.25L227.25 374.75V367.75L228.5 362.5L229.5 358.75L231.5 354.75L233.25 352L235.5 349.25L237.5 347.25L241 344.75L244.5 342.75L249 341.25L252 340.75Z" fill="#3F6981"/>
<path d="M291.5 30.75H300L303.25 31L305.25 31.75L306.75 33L307.5 35L307.75 41L309 42.25L314 44.5L315.25 44.25L317 42.75L318.75 40.75L321.25 39.25L323.25 39L325.75 40L328.75 42.75L331.75 46L334.25 49.25L336 52.75L336.25 54.25L334.75 57.25L332.75 59.5L331 61L330.75 62L332 65.25L333 67L338.25 67.25L340.25 67.75L342 69.25L342.5 70.5L343 74.25L343.25 75.25L343.5 79V83.5L343 86L341.5 88.25L339 89L334.75 89.25L333 89.5L331 94.25L330.75 96L334.25 99L335.75 101.5L336 102.25V104L334.25 107.25L331.5 110.5L329.75 112.5L328.5 113.75L326 116L323.5 117.75H321.25L319.75 116.75L317.25 114.5L315.25 112.5L314 112.25L311.25 113.25L307.75 114.75L307.5 120L307 123L305.25 125.25L304.25 125.75L302.5 126H290.5L288.25 125.5L286.25 123.5L285.5 121L285.25 115L279 112.25L278.25 112.5L276 115.25L274.25 116.75L273.25 117.75L271.5 118.25H269.75L268.25 117.25L259.25 108.25L257.25 105.25L257 103.5L258.25 101L261.5 97.75L262 97L261.75 95L260 91L259.5 89.25L257.25 89.5L255.5 89.75L251.75 88.75L250.5 87.75L249.25 85.5L249 84.25V78.5L249.75 71.5L250.5 69.25L251.5 68L253 67.25L254.5 67H260L260.75 64.75L262.25 61.5L261.75 60.25L259 56.5L257.25 53L257.5 51.75L259 49.25L261 47L263.25 44.25L266 41.75L269 40L271.5 39.75L274 40.25L276 41.75L277.75 43.25L278.75 44.75L280 44.5L284 43L285.25 42L286 34.25L287 32.5L290 31L291.5 30.75ZM292.5 37.5L292 38.75L291.75 43.5L291.25 46.25L290.5 47.5L288 49L283 50.5L280 52H278L275.5 50.5L273 47.75L270.75 46.5L267.5 49.5L265 52V53.5L267.25 56.5L269.75 59.25L270 59.75V61.25L268.25 64.25L267 67.25L266.25 69.25L265.75 72L265 73.25L264.25 73.5L256.5 73.75L256 77.5V81L256.5 82.5L256.75 82.75L263.25 83L264.75 83.75L266 86.75L266.5 89L268.75 94L269.75 96V97.75L268.25 99.75L265.25 102.75L265 104.5L267.75 107.5L270.75 110.25L272 109.75L274.25 107.5L276 105.5L277.25 104.75H279.75L282 105.75L285.75 107.25L288.5 108.5L290.75 109.5L291.25 111L291.5 117.75L292 119.25L292.75 119.75H300.75L301.25 119L301.75 111.25L304.25 109.25L308.25 107.5L314.75 104.25L316.5 105L317.75 106.25L319 107.25L320.75 109.25L322 110L323.25 109.25L326.25 106.5L328.5 104L328.25 102.75L325.25 99.75L323.75 97.75L323.5 97.25V94.25L326.5 87.25L327.5 84.5L328.5 83.25L329 83L336 82.75L336.75 81.25V76L336.25 74.25L335.5 73.75L330.25 73.5L327.5 73L326.75 71.5L325.75 67.75L324.5 64L323.5 62.5L323.25 61.75V60L325 58L326.75 56.25L328.5 54.25V52.75L326.25 50L323 46.75L321.75 47L317.25 51.5L316.25 52H314.5L308.75 49.75L306 49L302.5 47.25L301.75 45.75L301.5 40L301.25 38.25L300.75 37.75L296.5 37.5H292.5Z" fill="white"/>
<path d="M387.5 387.75H407.5L408.75 388.5L409.25 390V396.75L408.75 414.25L408.25 416.75L407 418.5L404.5 419.75L403 420L384 420.5H361.75L360.25 419.75L358.25 418.25L357 415L356.5 411.25L356.25 404.75V401.25L357.25 398L358.5 395L360.5 392.25L363 390.25L366.5 388.75L368.75 388.25L371.25 388L387.5 387.75Z" fill="#3F6981"/>
<path d="M408 317.25H414.5L417.25 317.75L420.5 319.25L423 320.75L425.5 323L427.25 324.75L429.5 328L430.5 330.25L431.75 332.75L432.25 335L432.5 337.5V344L432 347.25L430.25 351.25L428 354.5L427.25 355.5H426.75L426.25 356.5L424.5 358L421.25 360L417.25 361.75L415 362.25L412.75 362.5H408L404.75 362L402 360.75L399.5 359.5L397.25 357.75L395.25 356L393 353.25L391.5 351L389.5 346.75L389 341.5V338.75L389.25 335L390 332.5L392 328.25L394 325.5L395.5 323.75L397.5 322L401.25 319.5L406.25 317.5L408 317.25Z" fill="#3F6981"/>
<path d="M73.25 216L74.5 216.5L77.25 218.25L82 220.75L86.75 223L91 224.25L94 225.25L97.75 226L101.5 227L108.75 227.75L112.75 228.25H124.25L134.25 227L140.25 225.5L143.75 224.75L147 223.75H148.25L148.75 224.5L149 225.75V232.25L148 233.75L146 235.25L143 237L139.75 238.25L136.75 239.5L133 240.75L124.25 242.25L120.75 242.5H113.5L106 241.75L99 240.75L95 239.75L90.5 238.5L85.75 236.75L80.5 234.25L74.5 230.75L71 228L69.25 226.25L68.75 225.25V223.5L70 220.5L71.75 217.5L73.25 216Z" fill="#3F6981"/>
<path d="M295 268.5H303.25L304.5 269L305.75 270.75L307 274L308 278.25L311 288L311.5 288.25L313.75 280L315.75 273L317 270.5L318.5 269.25L319.75 268.75L326 268.5L328.25 269L329.75 270.75L330.25 271.75L330.5 285.25V300.25L330 302.5L328.75 304L327 304.75H324.5L323 303.75L322.5 302.5L322.25 287.75L321.75 280.75L321.25 281.25L319.25 288.5L318 293.25L317 297.25L316 301.75L315 303.5L313 305L311.25 305.25L308.75 304.5L307.25 303.25L305.5 298.5L303.5 291.75L302.5 286.25L301 280.75L300.25 280.5L300.5 282.25L300 290.75V302.5L298.75 304L296.5 304.75L294.25 304.5L292 303L291.75 302.5L292 271.75L293.25 269.5L295 268.5Z" fill="white"/>
<path d="M253 350H255.5L259 350.5L260 351.25L260.25 352L260.75 356L262.5 357.75L264 358.25L265.75 358L267.25 357L268.75 356.25H270.25L271.75 357.25L273.25 359.25L274.25 361.25V364L273 365.25L270.5 366.75L269.75 367.25V373.5L271.25 375.25L273.25 376.5L273.75 377.5V379L271 382.75L269.75 383.75L268.5 384.25L267 384L264.5 382.25H262.5L259.5 384L258.75 385.5L258.25 388.75L257.25 389.75L255.25 390.5H251L249.25 389.75L248.5 388.5L248.25 384.25L246.5 382.25L243.75 381.25L241.25 382.25L240 383L238.25 382.75L237 381.75L235.25 378.75L235 378V375L236.5 373.75L238.25 373.25L239.5 371.75L239.75 370.5V367L239 366V365.5L237.75 365L235.75 363.25L235.5 362L237.25 358.5L238.75 356.75L239.25 356.5H242L244.5 358L246.5 358.25L249.5 357L250 356.25L250.75 351.5L251.5 350.5L253 350Z" fill="white"/>
<path d="M194 125H200.25L204 126L207 127.75L209.5 130L211.25 132.5L213 136L213.5 140L213.25 143.25L212.5 145.75L210.5 149.75L208.5 152.25L205.75 155L202.25 157.25L199 158.75L195.25 159.5L193.75 159.75H189.5L185.5 159L182.5 157.25L180 155L178 152.5L176.5 149.25L176 146.75V142.5L176.5 139.5L178.5 135.5L180.5 132.75L183 130.25L186.25 128L191 125.75L194 125Z" fill="white"/>
<path d="M358 268.5H363.25L365 269L366.75 270.75L368.75 274L371.25 278.75L373.75 283L377.25 288.25L378.25 289L377.75 286V270.75L379.75 269L381.25 268.5H383.5L385.25 269.25L386.75 271V275.75L386.5 280.5V302.25L385.5 303.75L384 304.5H378.75L376.5 303.75L375.25 302.5L373.5 300.25L369.5 294L364.5 286L363.25 284.25L363 302L361.75 304L360 304.75H357.25L355.75 304L354.75 302.5L354.25 300.25V272L354.75 270.5L355.75 269.25L358 268.5Z" fill="white"/>
<path d="M228.75 396.25L230 396.75L231.75 398.5L235.5 401.25L239.5 403.25L243.25 404.75L249.25 406L251 406.25H257.25L266.25 404.75L269 403.75H270.25L271.5 405.75L272.75 408.5L274.5 410.5L274.75 411.25L276 411.75L280 414.25L281.5 414.75L283.5 415H308L310.5 415.5V416.5L307.75 418.75L306.5 419H235L233 418.5L230.5 416.75L229.5 415.5L229 413.75L228.75 411.75L228.5 406V396.5L228.75 396.25Z" fill="#3F6981"/>
<path d="M366 90.25H368.25L372 91L374.5 92.75L376.25 94.75L377.5 96.75V97.25L381.75 97H383L384.75 95L387.25 93.25L389 92.75H393L395.25 93.5L397.5 95L399 97L400 100V103.25L399 106.25L397.5 108.25L395.75 109.75L393.5 110.5H388L386.25 109.75L384 108L382 104.75H378L375.5 108L373.5 110L371 111.25L368.75 112H365.75L362.25 110.75L360.75 110L358.25 107.75L356.75 105.5L356 104.5L350.75 104.25L349.5 103.5L348.5 102.25L348.25 100.25L348.75 98.5L350 97L351 96.5H357.25L357.75 95L359 93.25L361.75 91.25L364 90.5L366 90.25Z" fill="white"/>
<path d="M291.5 385.75H310.75L311.75 386.75L312 388.25L312.25 402.5V406.5L311.5 407.75L310.5 408.25L301 408H285.5L282.5 407.25L281 406.25L279.25 404.5L277.75 402L277 399.25V395.75L278 392L279 390.5L281.5 388.25L284.5 386.75L288.25 386L291.5 385.75Z" fill="#3F6981"/>
<path d="M294.75 58.75H298.5L303.75 59.75L307.75 62L311 64.75L313.25 67.75L315 71.25L315.5 74.75V80.75L314.75 84.75L312.75 88.75L310.25 92.25L308 94.5L304.5 96.5L299 98.25L295.5 98.5L291.25 97.75L287.5 96.25L284.5 94.25L281.75 91.5L280.25 89.75L278.25 86.25L277.25 82.5L276.75 79.25V76.5L278 70.75L280 66.75L282.25 64L284.25 62.25L288.5 60L290 59.5L294.75 58.75ZM294.5 65.25L292 65.75L288.5 67.75L286.75 69.5L285.5 71.5L284.25 74.75L284 76V80.25L285 83.5L286.25 86L288.5 88.5L291.5 90.5L295.25 91.25H297.5L300.5 90.75L303 89.5L305.5 87.5L307.5 84.75L308.75 82.25L309.25 79.75V76.25L308.5 73.5L306.75 70.25L304.5 67.75L301.5 66L298.75 65.25H294.5Z" fill="white"/>
<path d="M391.5 63.5H395L397.5 64L400.25 65.5L402.5 67.75L403.75 70.75L404 71.5V76.25L403 79.25L401.5 81.5L399.75 83.25L397.25 84.75L395 85.25L391 85L388.5 84.25L385.75 82.25L383.5 79.5L382.5 78L382 77.75H356.5L354.75 78L353 77.5L351.75 77L350.5 75L350.25 73.25L351 71.5L352.25 70.25L354.5 70H377.5L383.25 69.25L385.5 66.75L387.25 65.25L390.5 63.75L391.5 63.5Z" fill="white"/>
<path d="M377.25 37.25H379.75L383.25 38L385.25 39.5L386.5 40.75L387.75 42.75L388.25 43.5L396.25 43.75L399.5 44.25L401.25 45.75L402 47.25V49L400.5 51.25L398.75 51.75H387.75L387 54L385.25 56L383.25 57.25L380 58H376L373.75 57.5L371.5 56.25L370.25 55.25L368 51.75L350.75 51.5L349.5 50.75L348.25 48.5V46.75L349.75 44.5L350.5 44L353 43.75H368.5L369 42.5L371 39.75L373 38.25L377.25 37.25Z" fill="white"/>
<path d="M403.25 268.25H418.25L419.5 268.75L420.5 270.75L420.75 271.75V273.75L420 275.5L418.5 276.75L417.5 277H411L410.75 302.5L409.5 303.75L408.5 304.5H403.75L401.25 303.5L400.75 302.5L400.5 277.5L398 277L393 276.75L391.5 276L390.25 273.75L390.5 271.5L391.75 269.25L392.75 268.5L403.25 268.25Z" fill="white"/>
<path d="M348.25 370.25H362.25L362.75 370.5L362.5 371.5L360 374.75L358.5 377L358.25 378.25L358 384.75L357.75 385.25H357.25V385.75L355.25 387.5L354.25 388V388.5H353.75V389L352.5 390L350.75 392.5L350.5 393.75L350.25 409.25L350 413.5L349.25 414.5H347.75L346.25 413.5L345 412.25L344.5 411.5L344.25 409.75V375.25L344.75 373L346.5 371L348.25 370.25Z" fill="#3F6981"/>
<path d="M317.5 159.25H323.5L326.25 160.25L329 162L330.75 163.75L332.5 166.75L333.5 170.5V174.25L332.75 177.25L331.5 179.5L329.25 181.75L325.5 183.75L322.75 184.5H318L315.75 184L313 182.25L310.25 179.5L308.75 177L307.5 173.5V170L309 166L310.75 163.5L313 161.25L316.5 159.5L317.5 159.25ZM319.25 166.25L317.25 167L315.75 168.25L315 169.75L314.75 171V173.5L315.5 175.5L317.5 177.25L319.5 178H322.25L325 176.5L326.25 175L326.75 173.25V170.75L326 168.75L324.25 167L322 166.25H319.25Z" fill="white"/>
<path d="M290.75 361.25L310.75 361.5L311.25 362.25V376.25L311 378.25L310 378.75L299.75 379.25L292.25 379L291.5 378.5L291.25 376.25V371.75L290.75 366.25L290 363V361.5L290.75 361.25Z" fill="#3F6981"/>
<path d="M341 268.5H344.75L346.5 269.25L347.75 270.75L348 271.5V302.25L347 303.5L345.75 304.5H341.75L339.25 303.75L338.25 302.75L338 302V271.75L338.5 270L339.75 269L341 268.5Z" fill="white"/>
<path d="M420 329.5H422L424 331.25L424.5 332.75V335L423.5 337L421.5 339.25L419.75 341.25L416.75 344.75L414 348.25L410.75 351.75L409.25 352.5H406.5L405 351.75L402.5 349.5L399.75 346.5L397.25 343L395.75 339.5L396.5 337.25L398 336L398.5 335.75H400.5L402.5 337.25L404.5 339.75L406.25 342.25L407.5 343.25L408.5 342.75L411.25 339.5L413 337.5L417.5 332L417.75 331.5H418.25L418.75 330.5L420 329.5Z" fill="white"/>
<path d="M115.75 182.25H119L121 184L123.25 187L123.75 188L124.75 188.5L126.75 190L130.5 191.75L133 192.25L136.5 192.5L141 192L144.5 190.75H146.5L148.5 192L149.25 193.25V195.75L148.25 197.25L147 198.25L141.5 199.75L137.25 200.25H134L130.5 199.75L125.25 197.75L121.75 195.75L119.25 193.75L116.5 191L114.25 187.5L113.75 185.75L114 183.75L115 182.5L115.75 182.25Z" fill="white"/>
<path d="M385 369.75H389.75L397.5 370.25L399.25 371L401.25 372.5L403 374.25L404.5 376.75L405 378.25L404.75 380.25L403.5 381H380.5L378.5 380.5L377.75 379.75V376.5L378.25 374.25L379.75 371.5L381 370.5L382.75 370L385 369.75Z" fill="#3F6981"/>
<path d="M205.25 244.75H209.25L216.5 245.75L220 246.5L228.75 247.5L233.5 248.25L235.75 249L236.75 250.25L237 250.75V253.5L236.25 254.75L234.5 256.25L229.5 255.75L217.25 254L213.25 253.25L207 252.25L204.5 251.25L203.25 250.25L203 249.25V247.5L204 245.5L205.25 244.75Z" fill="white"/>
<path d="M120.75 115.25H123L125 116L126.5 117.25L128.5 121L129.5 124L130.25 128.5V132.5L129.5 136L128.5 137.5L126.75 138.5H123.75L122 137.5L120 135.25L118 131.25L117.25 128L116.75 125V120.25L117.5 117.75L118.5 116.25L120.75 115.25Z" fill="white"/>
<path d="M144 111H146L149 112.5L150.75 114.75L152.25 118.5L153 121.5L153.25 126.25L152.75 129.25L151.75 130.75L150.25 132L149.5 132.25H147.5L145.5 131.75L143.5 130L141.75 127.25L141 125.25L140.25 121.5V116.25L141 113.75L142 112.25L144 111Z" fill="white"/>
<path d="M199.25 259H201.75L206.5 259.75L213.75 260.75L226.75 262.75L228.25 264.75V266.75L226.75 268.75L225 269.5H222L211.75 268.25L206 267L200.25 266.25L198.25 265.25L197.5 264L197.25 262L198 260.25L199.25 259Z" fill="white"/>
<path d="M368.5 396.5H370.75L373.5 397.5L375 398.5L376 400.75V404.75L375.25 407.75L374.25 409L371 410H367.5L364.5 408.75L363.25 406.25L363 403L363.75 399.5L364.5 398.25L365.25 397.5L368.5 396.5Z" fill="white"/>
<path d="M286.25 390.5H289.25L292.75 391.75L294.25 394L295 395.75V398.75L293.5 401.25L291.25 402.75L289.75 403.25H286.75L284.5 402.25L282.5 400.25L281.75 398V395L282.5 393.5L284.25 391.5L286.25 390.5Z" fill="white"/>
<path d="M253.5 363.5H255.5L258.25 364.25L260 365.75L260.75 368.25V371.75L260 373.5L258 375.5L256 376.25H252.75L250.75 375.5L249 373.75L248.25 372L248 368.75L248.75 366.75L249.75 365.25L251.75 364L253.5 363.5Z" fill="#3F6981"/>
<path d="M208.5 362.75H217.75L220.75 363L221.25 363.75V366.25L220.75 368L220 368.5H209.25L207.5 367.75L206.5 365.75L206.75 364.5L208 363L208.5 362.75Z" fill="#3F6981"/>
<path d="M286.25 350.5H292.5L302.25 350.75L305.5 351.75L308 353.25L307.75 354.25L305.75 354.5H288L287 353.25L286.25 352L286 350.75L286.25 350.5Z" fill="#3F6981"/>
<path d="M392.25 70.5H394.5L396.5 71.5L397.25 73V75.5L396.5 77L394.5 78.25L394 78.5H392L390 77L389.25 75.5V73.25L390 71.75L391.5 70.75L392.25 70.5Z" fill="#3F6981"/>
<path d="M377 44H379.75L381.25 45L382 46.75V49.25L381 51L379.75 51.75H376.75L375.5 51L374 48.75V46.75L375 45.25L376.25 44.25L377 44Z" fill="#3F6981"/>
<path d="M366.5 96.75L368.75 97L370.25 98.25L371 100V102.5L370.25 103.75L368.25 104.75H365.75L364.5 104.25L363.5 102.75V100.25L364.25 98.25L365.75 97L366.5 96.75Z" fill="#3F6981"/>
<path d="M370 374.25L371.25 374.5L371.5 375V380.25L370.75 381H367L365.75 380.25L365.5 379L366.5 377L368.5 375L370 374.25Z" fill="#3F6981"/>
<path d="M390.25 98.75L392 99L393 99.75L393.25 100.5V102.5L392.5 103.75L391.75 104.25H390L389.25 103L389 102.25V100.25L389.75 99L390.25 98.75Z" fill="#3F6981"/>
</g>
<path d="M470 190.891L625.103 188.835" stroke="#3F6981" stroke-width="4.72054" stroke-linecap="round"/>
<path d="M512.228 237.118L583.212 236.177" stroke="#3F6981" stroke-width="4.72054" stroke-linecap="round"/>
<path d="M569.016 142.941L640 142" stroke="#3F6981" stroke-width="4.72054" stroke-linecap="round"/>
<path d="M523.94 189.88L569.027 143.1" stroke="#3F6981" stroke-width="4.72054" stroke-linecap="round"/>
<path d="M474.96 191.229L511.873 237.085" stroke="#3F6981" stroke-width="4.72054" stroke-linecap="round"/>
<defs>
<filter id="filter0_d_239_9" x="0" y="0" width="445.25" height="437" filterUnits="userSpaceOnUse" color-interpolation-filters="sRGB">
<feFlood flood-opacity="0" result="BackgroundImageFix"/>
<feColorMatrix in="SourceAlpha" type="matrix" values="0 0 0 0 0 0 0 0 0 0 0 0 0 0 0 0 0 0 127 0" result="hardAlpha"/>
<feOffset dy="4"/>
<feGaussianBlur stdDeviation="2"/>
<feComposite in2="hardAlpha" operator="out"/>
<feColorMatrix type="matrix" values="0 0 0 0 0 0 0 0 0 0 0 0 0 0 0 0 0 0 0.25 0"/>
<feBlend mode="normal" in2="BackgroundImageFix" result="effect1_dropShadow_239_9"/>
<feBlend mode="normal" in="SourceGraphic" in2="effect1_dropShadow_239_9" result="shape"/>
</filter>
</defs>
</svg>
