<svg width="550" height="74" viewBox="0 0 550 74" fill="none" xmlns="http://www.w3.org/2000/svg">
<rect width="550" height="74" rx="37" fill="white"/>
<path d="M43.5723 23H45.3897L46.4419 23.0383L47.7045 23.1148L48.7758 23.2104L49.7514 23.3252L50.861 23.4974L51.6836 23.6504L52.4871 23.8226L53.5584 24.0904L54.0176 24.2244L54.8019 24.4731L55.548 24.7409L56.1219 24.9704L56.6193 25.1809L57.2506 25.4678L58.0924 25.927L58.4941 26.1757L58.7237 26.3287L59.0489 26.5583L59.2402 26.7113L59.4506 26.8835L59.6802 27.0939L60.0054 27.4192L60.1776 27.6296L60.388 27.9166L60.5602 28.2035L60.7324 28.567L60.8472 28.9113L60.9046 29.1409L60.9428 29.4279L60.9619 29.7722V44.0053L60.9237 44.4453L60.8472 44.8088L60.7324 45.134L60.5411 45.5358L60.3115 45.8801L60.0437 46.2054L59.9098 46.3393L59.8906 46.3775H59.8524V46.4158H59.8141V46.4541H59.7759V46.4923L59.6228 46.6262L59.3932 46.8367L59.0106 47.1236L58.4367 47.5062L58.1498 47.6784L57.748 47.908L57.3845 48.0802L57.0593 48.2523L56.4663 48.5202L55.6628 48.8454L55.0889 49.0558L54.4193 49.2854L53.5967 49.5341L52.6402 49.7828L51.6836 49.9932L50.9758 50.1271L50.1914 50.261L49.3306 50.3758L48.4888 50.4715L47.6279 50.548L46.5758 50.6245L46.174 50.6436L46.021 50.6628H42.5966V50.6436L40.8557 50.5097L39.727 50.395L39.0192 50.2993L38.1392 50.1654L37.2401 49.9932L36.3601 49.8019L35.4609 49.5723L34.6192 49.3236L33.9305 49.0941L33.3948 48.9028L32.8592 48.6923L32.1896 48.4054L31.6348 48.1375L31.1374 47.8888L30.6783 47.621L30.3722 47.4297L30.1426 47.2767L29.8748 47.0854L29.607 46.8749L29.32 46.6262L28.88 46.1862L28.6696 45.9184L28.5165 45.708L28.3061 45.3445L28.1913 45.0767L28.0765 44.7132L28.0191 44.388L28 44.1584V29.6192L28.0383 29.1983L28.1148 28.8731L28.2296 28.5287L28.3826 28.2226L28.5357 27.9548L28.8035 27.5913L28.9948 27.3809L29.1287 27.2279L29.3583 26.9983L29.5113 26.8644L29.8174 26.6157L30.1618 26.367L30.487 26.1565L30.8887 25.9078L31.4052 25.6209L32.0174 25.3148L32.4957 25.1044L33.1461 24.8365L33.6626 24.6452L34.447 24.3774L35.2122 24.1478L36.0157 23.9374L36.8383 23.7461L37.5844 23.593L38.5983 23.4209L39.5357 23.287L40.607 23.1722L41.5444 23.0957L42.1566 23.0574L43.5723 23ZM43.5914 23.8035L42.3288 23.8417L41.1044 23.9183L40.0331 24.0139L39.0766 24.1287L38.1775 24.2626L37.2401 24.4348L36.2261 24.6644L35.3653 24.8939L34.8679 25.047L34.1026 25.2957L33.4713 25.5252L32.9166 25.7548L32.3618 26.0035L31.9218 26.2139L31.52 26.4244L31.0991 26.6731L30.8313 26.8452L30.5061 27.0748L30.2383 27.2852L29.9704 27.5148L29.7026 27.7826L29.5304 27.9931L29.32 28.28L29.167 28.5287L29.0139 28.8731L28.9183 29.2366L28.88 29.5044V29.9253L28.9374 30.2696L29.0522 30.614L29.2626 31.0157L29.4539 31.2835L29.7026 31.5705L29.9896 31.8574L30.1809 32.0105L30.4487 32.2209L30.9652 32.5653L31.3861 32.814L31.9026 33.0818L32.4192 33.3305L33.0887 33.6175L33.8539 33.9044L34.7148 34.1914L35.4992 34.4209L36.2261 34.6122L37.087 34.8036L37.8714 34.9566L38.5218 35.0714L39.6314 35.2244L40.6836 35.3392L41.621 35.4157L42.7688 35.4731L43.3427 35.4923H45.6766L46.7479 35.454L47.9149 35.3775L48.9288 35.2818L50.0001 35.1479L51.0714 34.9757L51.9706 34.8036L52.8123 34.6122L53.6732 34.3827L54.4958 34.134L55.108 33.9235L55.8158 33.6557L56.5428 33.3496L57.1932 33.0435L57.6524 32.7948L57.9776 32.6035L58.4367 32.2974L58.7428 32.0679L59.0106 31.8383L59.2785 31.5896L59.4124 31.4366L59.6037 31.207L59.8141 30.8627L59.9672 30.5374L60.0819 30.1357L60.1011 30.0018V29.4279L60.0245 29.0261L59.8906 28.6626L59.6993 28.2992L59.508 28.0313L59.2976 27.7826L59.1637 27.6296L59.0106 27.4957L58.7619 27.2661L58.4558 27.0365L58.1498 26.8261L57.7863 26.5965L57.3463 26.3478L56.6193 25.9844L56.0454 25.7357L55.261 25.4296L54.5532 25.1809L53.8071 24.9513L52.9654 24.7217L52.0662 24.5113L51.0906 24.32L50.1149 24.167L49.388 24.0713L48.6801 23.9948L47.5323 23.8991L46.5375 23.8417L45.3897 23.8035H43.5914ZM28.88 31.8383V37.0801L28.9374 37.4436L29.0713 37.807L29.2626 38.1705L29.4539 38.4384L29.6644 38.6871L30.0278 39.0505L30.2191 39.2036L30.5635 39.4714L30.7739 39.6053L31.1757 39.854L31.52 40.0453L32.0365 40.3132L32.5339 40.5427L33.2226 40.8297L33.8922 41.0784L34.5618 41.3079L35.1357 41.4801L35.6905 41.6332L36.5322 41.8436L37.4314 42.0349L38.254 42.1879L39.574 42.3792L40.6262 42.494L41.5444 42.5706L42.5775 42.6279L43.0175 42.6471L43.9166 42.6662H45.0836L45.9827 42.6471L47.1688 42.5897L47.9914 42.5323L48.814 42.4558L49.7897 42.341L50.708 42.2071L51.5497 42.054L52.3915 41.8819L53.4628 41.614L54.1897 41.4036L54.955 41.1549L55.5863 40.9253L56.2367 40.6575L56.581 40.5045L57.1167 40.2558L57.6524 39.9688L58.035 39.7392L58.3793 39.5097L58.5898 39.3566L58.8576 39.1462L59.068 38.9549L59.1254 38.9166V38.8784L59.2019 38.8401L59.4124 38.6105L59.5654 38.4192L59.7567 38.1323L59.9289 37.807L60.0437 37.4627L60.1011 37.1375V31.8766L59.9672 31.9914L59.5845 32.374L59.3741 32.5461L59.1445 32.7375L58.7811 33.0053L58.3985 33.254L57.9776 33.5027L57.5567 33.7322L57.2697 33.8853L56.8297 34.0957L56.2367 34.3444L55.5863 34.5931L54.6871 34.8992L53.788 35.167L52.5636 35.4731L51.588 35.6836L50.7462 35.8366L49.7132 35.9896L48.7567 36.1044L47.7236 36.2001L46.5184 36.2766L46.1358 36.2957L45.4471 36.3149H43.4001L42.4244 36.2766L41.4296 36.2192L40.3583 36.1236L39.3635 36.0088L38.1775 35.8366L37.3357 35.6836L36.1305 35.4157L35.2313 35.1862L34.3896 34.9375L33.6818 34.7079L32.8974 34.4209L32.3426 34.1914L31.5774 33.8279L31.1565 33.5983L30.7548 33.3688L30.1235 32.9479L29.7983 32.6992L29.5878 32.527L29.3391 32.2974L29.1861 32.1635L29.0522 32.0296L29.0139 31.9722H28.9757L28.9374 31.8957L28.88 31.8383ZM28.88 39.0123V44.2349L28.9374 44.5984L29.0522 44.9236L29.2052 45.2297L29.3391 45.4401L29.5113 45.6697L29.6835 45.861L30.0661 46.2436L30.2574 46.3967L30.6209 46.6645L30.9461 46.8749L31.2331 47.0471L31.7496 47.3341L32.2661 47.5828L32.6105 47.7358L33.2609 48.0036L33.7583 48.1949L34.447 48.4245L34.9253 48.5775L35.5948 48.7689L36.6661 49.0367L37.5844 49.228L38.2157 49.3428L39.3827 49.5149L40.167 49.6106L41.4296 49.7254L42.4627 49.7828L43.5149 49.821H45.3897L46.5758 49.7828L47.5706 49.7254L48.508 49.6489L49.5601 49.5341L50.4975 49.4002L51.3967 49.2471L52.4106 49.0367L53.1184 48.8645L53.8262 48.6732L54.5149 48.4628L55.2993 48.1949L55.9306 47.9462L56.2941 47.7932L56.8106 47.5636L57.4611 47.2384L57.9202 46.9706L58.2454 46.7601L58.628 46.4923L58.9532 46.2245L59.1828 46.0141L59.3358 45.861V45.8227H59.3741L59.5654 45.5741L59.795 45.2297L59.9098 45.0001L60.0245 44.6749L60.0819 44.4453L60.1011 44.2923V39.0123L60.0245 39.0505L59.8524 39.2227V39.261L59.7759 39.2992V39.3375L59.6993 39.3758V39.414L59.6228 39.4523V39.4905L59.5463 39.5288L59.4124 39.6627L59.2019 39.8349L58.9532 40.0262L58.6854 40.2175L58.3602 40.4279L57.8819 40.7149L57.3463 41.0019L57.0402 41.1549L56.4471 41.4227L55.701 41.7097L54.8784 41.9966L54.2663 42.1879L53.5776 42.3792L52.4297 42.6662L51.5115 42.8575L50.7654 42.9914L49.9045 43.1253L48.9671 43.2401L48.221 43.3166L47.2645 43.3932L46.2314 43.4506L45.7723 43.4697L44.9879 43.4888H43.9549L42.7114 43.4506L41.6592 43.3932L40.7027 43.3166L39.7844 43.221L38.7705 43.0871L37.814 42.934L36.7809 42.7236L35.8244 42.494L35.0974 42.3027L34.3513 42.0732L33.6435 41.8436L32.9739 41.5949L32.2852 41.3079L31.9026 41.1358L31.2139 40.7914L30.6974 40.4853L30.3913 40.294L30.0661 40.0645L29.8174 39.8731L29.6261 39.7201L29.4348 39.5479L29.2817 39.414L28.9374 39.0697L28.88 39.0123Z" fill="black"/>
<path d="M43.4196 24.6074H45.5431L46.4996 24.6457L47.5901 24.7222L48.5083 24.8179L49.3692 24.9326L50.2492 25.0857L51.1484 25.277L51.9518 25.4874L52.6597 25.6979L53.4058 25.9657L53.9605 26.1953L54.3814 26.3866L54.7449 26.5779L55.0319 26.7309L55.3188 26.9031L55.7014 27.1709L55.8927 27.324L56.1797 27.5727L56.3519 27.764L56.5623 28.0509L56.7153 28.3379L56.811 28.6057L56.8493 28.7588L56.8684 28.9309V29.1796L56.811 29.4857L56.6962 29.7918L56.5432 30.0596L56.3519 30.3083L55.9693 30.6909L55.6058 30.9588L55.1658 31.2457L54.6875 31.5136L54.171 31.7622L53.4823 32.0492L52.9084 32.2596L52.124 32.5083L51.4927 32.6805L50.6701 32.8718L49.9814 33.0057L49.044 33.1588L48.317 33.2544L47.3605 33.3501L46.557 33.4075L45.677 33.4457H43.2666L42.3292 33.4075L41.3153 33.331L40.3205 33.2162L39.517 33.1014L38.6561 32.9483L37.8526 32.7762L37.0491 32.5657L36.303 32.3362L35.5952 32.0875L35.0213 31.8579L34.543 31.6475L33.9691 31.3605L33.5865 31.1309L33.3569 30.9779L33.1274 30.8057L32.8787 30.5953L32.5917 30.3083L32.3813 30.0214L32.19 29.6579L32.1135 29.3901L32.0752 29.1222V28.9501L32.1326 28.6248L32.2474 28.2996L32.4195 27.9935L32.6109 27.7448L33.0126 27.3431L33.3952 27.0561L33.7204 26.8457L34.1987 26.5779L34.7152 26.3292L35.1935 26.1187L35.9204 25.8509L36.6091 25.6213L37.4126 25.3918L38.2161 25.2005L38.9813 25.0474L39.67 24.9326L40.4735 24.8179L41.4109 24.7222L42.5013 24.6457L43.4196 24.6074ZM44.0127 25.3153L42.7883 25.3535L41.8318 25.4109L40.837 25.5066L40.0718 25.6022L39.3257 25.717L38.5222 25.87L37.7761 26.0422L36.9917 26.2526L36.2457 26.4822L35.5761 26.7309L35.0787 26.9413L34.6004 27.1709L34.2178 27.3814L33.9309 27.5727L33.7587 27.7066L33.4909 27.9361L33.2996 28.1466L33.1465 28.3761L33.0126 28.6822L32.9743 28.8544V29.2561L33.0317 29.4857L33.1848 29.7918L33.3378 30.0022L33.7013 30.3657L34.0456 30.6144L34.39 30.8249L34.8109 31.0544L35.2126 31.2266L35.423 31.3222L36.1309 31.5901L36.7431 31.7814L37.2787 31.9344L38.0439 32.1257L38.9622 32.317L39.8996 32.4701L40.7605 32.5849L41.5257 32.6614L42.6161 32.7379L43.63 32.7762H45.2753L46.2892 32.7379L47.1309 32.6805L48.1066 32.5849L48.9675 32.4701L49.8857 32.317L50.8231 32.1257L51.8179 31.877L52.411 31.7049L53.1379 31.4562L53.7118 31.2266L54.0562 31.0735L54.5919 30.8057L55.0127 30.5379L55.2232 30.3848L55.4527 30.1935V30.1553L55.5293 30.117V30.0788L55.6058 30.0405L55.778 29.8301L55.8927 29.6196L55.9693 29.4283L56.0266 29.1605V28.9309L55.9693 28.644L55.8927 28.4335L55.778 28.2231L55.5484 27.9361H55.5101L55.4719 27.8596L55.2423 27.6492L54.9362 27.4387L54.5919 27.2283L54.1901 27.0179L53.7118 26.8074L53.2145 26.6161L52.4492 26.3674L51.5501 26.1187L50.6127 25.9083L50.0197 25.7935L49.2927 25.6787L48.3553 25.5448L47.4944 25.4492L46.4614 25.3726L45.677 25.3344L44.9501 25.3153H44.0127Z" fill="black"/>
<path d="M43.955 26.9028H44.988L45.6194 26.9602L46.1741 27.0559L46.6907 27.1898L47.1115 27.3428L47.3985 27.4767L47.6855 27.6298L47.9724 27.8402L48.1637 28.0124L48.355 28.2802L48.4507 28.5098L48.5081 28.8159L48.4889 29.0455L48.4315 29.2559L48.2976 29.5237L48.1446 29.715L48.0107 29.8489L47.6855 30.0785L47.4176 30.2315L46.9202 30.442L46.4228 30.595L45.9828 30.6907L45.428 30.7672L44.988 30.8055H43.8785L43.1132 30.7289L42.5202 30.6142L42.0611 30.4802L41.6593 30.3272L41.2958 30.1359L41.028 29.9446L40.8176 29.7533L40.6454 29.5237L40.4924 29.2176L40.4541 29.0263V28.7202L40.5115 28.4907L40.6454 28.2228L40.7985 28.0315L41.0089 27.8402L41.2958 27.6489L41.7358 27.4194L42.0993 27.2663L42.5776 27.1133L43.1132 26.9985L43.7063 26.922L43.955 26.9028ZM44.2037 27.6107L43.6106 27.6489L43.1515 27.7063L42.635 27.8211L42.1759 27.9741L41.8698 28.1081L41.5828 28.2994L41.4298 28.4524L41.3341 28.6055L41.2958 28.7394V28.9498L41.3724 29.1602L41.5063 29.3324L41.6785 29.4663L41.8889 29.6002L42.2524 29.7533L42.6924 29.8872L43.1132 29.9829L43.6489 30.0594L44.2228 30.0976H44.7202L45.3324 30.0594L45.7915 30.002L46.2507 29.9063L46.5759 29.8107L46.9011 29.6959L47.2646 29.5046L47.4941 29.3324L47.6089 29.1794L47.6855 28.9881V28.7202L47.6281 28.5481L47.4941 28.3759L47.3411 28.242L47.0924 28.0889L46.6907 27.9168L46.2124 27.7828L45.715 27.6872L45.122 27.6298L44.7202 27.6107H44.2037Z" fill="black"/>
<path d="M55.5858 35.9136L55.6241 35.9327V39.7971L55.5476 39.8736L54.6293 40.1797L53.8258 40.4284L53.6919 40.4666V36.5066L54.2276 36.3344L55.5667 35.9327L55.5858 35.9136Z" fill="black"/>
<path d="M55.5667 43.0879H55.6049L55.6241 43.4896V46.9714L55.5667 47.0288L54.878 47.2584L54.0362 47.5262L53.6919 47.6218V43.6809L53.8449 43.6235L54.7632 43.3557L55.5284 43.107L55.5667 43.0879Z" fill="black"/>
<path d="M58.6858 34.3833H58.724L58.7431 34.5172L58.724 38.2094L58.6284 38.3051L58.3797 38.5155L58.0927 38.7068L57.691 38.9364L57.3084 39.1277L57.0979 39.2425H57.0405V35.359L57.1936 35.2633L57.4997 35.1103L57.8631 34.919L58.2458 34.6894L58.5327 34.4981L58.6858 34.3833Z" fill="black"/>
<path d="M58.6858 41.5376H58.724L58.7431 41.6141L58.724 45.3637L58.5136 45.5359L58.131 45.7846L57.7484 46.0141L57.1936 46.3394L57.0979 46.3968H57.0405V42.5133L57.1936 42.4176L57.4997 42.2646L57.9779 42.0159L58.4371 41.7289L58.6858 41.5376Z" fill="black"/>
<path d="M52.5251 36.8125L52.5825 36.8316V40.7534L52.4868 40.7917L51.1859 41.0212L51.0138 41.0404L50.9946 41.0212V37.176L51.052 37.1186L52.4677 36.8316L52.5251 36.8125Z" fill="black"/>
<path d="M52.5059 43.9868L52.5825 44.0059V47.9086L52.5251 47.9468L51.2051 48.1764L51.0138 48.1955L50.9946 48.1764V44.312L51.1668 44.2546L52.5059 43.9868Z" fill="black"/>
<path d="M33.6241 43.1646L34.2937 43.375L35.1546 43.6619L35.1928 43.7576V47.5837L35.0015 47.5263L34.4467 47.3924L33.6432 47.1437L33.605 47.1054V43.1837L33.6241 43.1646Z" fill="black"/>
<path d="M33.6241 36.0093L34.198 36.1815L35.1163 36.4875L35.1737 36.5258L35.1928 36.6788V40.4093L35.078 40.3902L34.7337 40.2754L33.7198 39.9884L33.605 39.9502V36.0284L33.6241 36.0093Z" fill="black"/>
<path d="M30.564 41.8062L30.6596 41.8444L30.9083 41.9975L31.4631 42.2844L32.0179 42.5331L32.1327 42.5905L32.1518 42.6096L32.1709 46.4549L32.1327 46.5123L31.8648 46.3592L31.5014 46.1679L31.0422 45.9001L30.5831 45.6131L30.564 45.5749V41.8062Z" fill="black"/>
<path d="M30.564 34.6704L30.6596 34.6895L31.0996 34.9574L31.4057 35.1104L31.9031 35.3208L32.1327 35.4165L32.1518 35.4356V39.3383L32.0561 39.3L31.444 38.9748L30.9274 38.6687L30.6214 38.4774L30.564 38.42V34.6704Z" fill="black"/>
<path d="M37.4317 37.0229L37.6039 37.0421L38.7135 37.2334L38.7517 37.2525L38.7709 37.3099L38.7517 41.1551L38.503 41.136L37.5083 40.983L37.4317 40.9638L37.4126 40.9256V37.0612L37.4317 37.0229Z" fill="black"/>
<path d="M37.4317 44.1777L37.5848 44.1969L38.6752 44.3882L38.7517 44.4073L38.7709 48.2908L38.7517 48.3291L38.3309 48.2717L37.4509 48.1378L37.4126 48.0995V44.216L37.4317 44.1777Z" fill="black"/>
<path d="M49.5794 37.3291L49.6559 37.3482L49.6751 37.3674V41.2317L49.6559 41.27L49.4455 41.3083L48.5272 41.423H48.3551L48.3359 40.3517V38.8978L48.3551 37.5013L48.489 37.463L49.5794 37.3291Z" fill="black"/>
<path d="M49.5986 44.4844H49.6559L49.6751 48.3679L49.6559 48.4253L49.4838 48.4635L48.4316 48.5974L48.3551 48.5783L48.3359 47.4496V46.0722L48.3551 44.6565L48.3742 44.6374L49.5986 44.4844Z" fill="black"/>
<path d="M60.981 29.8687H61.0001V43.6618H60.981V29.8687Z" fill="black"/>
<path d="M87.6354 16.6077H90.4606V28H87.6354V27.043C87.2252 27.4228 86.7695 27.7266 86.2683 27.9544C85.767 28.1823 85.2354 28.2962 84.6734 28.2962C84.005 28.2962 83.3215 28.1595 82.6227 27.8861C81.9392 27.5975 81.3468 27.0886 80.8456 26.3595C80.3595 25.6304 80.1164 24.6507 80.1164 23.4203V16.6077H82.9417V23.4203C82.9417 24.2709 83.1772 24.8861 83.6481 25.2659C84.1341 25.6304 84.6961 25.8127 85.3341 25.8127C85.9721 25.8127 86.5113 25.5924 86.9518 25.1519C87.4075 24.6962 87.6354 23.9747 87.6354 22.9874V16.6077ZM99.925 16.3115C101.079 16.3115 102.089 16.5697 102.955 17.0862C103.836 17.6026 104.505 18.3166 104.96 19.2279C105.431 20.1393 105.667 21.1646 105.667 22.3039C105.667 23.4431 105.431 24.4684 104.96 25.3798C104.505 26.2912 103.836 27.0127 102.955 27.5443C102.089 28.0608 101.079 28.319 99.925 28.319C99.2414 28.319 98.5807 28.1975 97.9427 27.9544C97.3199 27.6962 96.7427 27.3392 96.2111 26.8836V32.5569H93.3858V16.6077H96.2111V17.7242C96.7275 17.2685 97.3047 16.9191 97.9427 16.6761C98.5807 16.433 99.2414 16.3115 99.925 16.3115ZM99.5832 25.5848C100.525 25.5848 101.3 25.281 101.907 24.6735C102.53 24.0507 102.841 23.2608 102.841 22.3039C102.841 21.3469 102.53 20.5646 101.907 19.957C101.3 19.3343 100.525 19.0229 99.5832 19.0229C98.9604 19.0229 98.3908 19.1672 97.8744 19.4558C97.3579 19.7292 96.9478 20.1165 96.644 20.6178C96.3554 21.1191 96.2111 21.6887 96.2111 22.3266C96.2111 23.2836 96.5301 24.0659 97.168 24.6735C97.8212 25.281 98.6262 25.5848 99.5832 25.5848ZM110.407 24.7874C110.407 25.0304 110.468 25.2051 110.589 25.3114C110.711 25.4177 110.901 25.4709 111.159 25.4709C111.356 25.4709 111.592 25.4481 111.865 25.4026V28C111.303 28.0911 110.779 28.1367 110.293 28.1367C109.412 28.1367 108.736 27.9089 108.265 27.4532C107.809 26.9823 107.582 26.1544 107.582 24.9697V12.0508H110.407V24.7874ZM118.588 28.319C117.509 28.319 116.507 28.0532 115.58 27.5215C114.669 26.9747 113.94 26.2456 113.393 25.3342C112.861 24.4076 112.595 23.4051 112.595 22.3266C112.595 21.2482 112.861 20.2532 113.393 19.3419C113.94 18.4153 114.669 17.6862 115.58 17.1545C116.507 16.6077 117.509 16.3343 118.588 16.3343C119.666 16.3343 120.661 16.6077 121.572 17.1545C122.499 17.6862 123.228 18.4153 123.76 19.3419C124.307 20.2532 124.58 21.2482 124.58 22.3266C124.58 23.4051 124.307 24.4076 123.76 25.3342C123.228 26.2456 122.499 26.9747 121.572 27.5215C120.661 28.0532 119.666 28.319 118.588 28.319ZM118.565 25.4937C119.142 25.4937 119.674 25.357 120.16 25.0836C120.646 24.795 121.033 24.4076 121.322 23.9216C121.61 23.4355 121.755 22.9038 121.755 22.3266C121.755 21.7494 121.61 21.2178 121.322 20.7317C121.033 20.2456 120.646 19.8583 120.16 19.5697C119.674 19.2811 119.142 19.1368 118.565 19.1368C117.988 19.1368 117.456 19.2811 116.97 19.5697C116.484 19.8583 116.097 20.2456 115.808 20.7317C115.535 21.2178 115.398 21.7494 115.398 22.3266C115.398 22.9038 115.535 23.4355 115.808 23.9216C116.097 24.4076 116.484 24.795 116.97 25.0836C117.456 25.357 117.988 25.4937 118.565 25.4937ZM135.315 16.6077H138.14V28H135.315V26.8836C134.783 27.3392 134.198 27.6962 133.561 27.9544C132.938 28.1975 132.277 28.319 131.578 28.319C130.424 28.319 129.414 28.0608 128.548 27.5443C127.682 27.0279 127.014 26.3139 126.543 25.4026C126.087 24.4912 125.859 23.4659 125.859 22.3266C125.859 21.1874 126.087 20.1621 126.543 19.2507C127.014 18.3393 127.682 17.6254 128.548 17.109C129.414 16.5773 130.424 16.3115 131.578 16.3115C132.277 16.3115 132.938 16.4406 133.561 16.6989C134.198 16.9419 134.783 17.2912 135.315 17.7469V16.6077ZM131.943 25.6076C132.566 25.6076 133.128 25.4709 133.629 25.1975C134.145 24.9089 134.548 24.514 134.836 24.0127C135.14 23.5114 135.292 22.9418 135.292 22.3039C135.292 21.3469 134.966 20.5646 134.312 19.957C133.674 19.3495 132.885 19.0457 131.943 19.0457C130.986 19.0457 130.196 19.3571 129.573 19.9798C128.966 20.5874 128.662 21.3697 128.662 22.3266C128.662 23.2836 128.966 24.0735 129.573 24.6962C130.196 25.3038 130.986 25.6076 131.943 25.6076ZM149.51 12.0508H152.336V28H149.51V26.9063C148.994 27.362 148.417 27.7114 147.779 27.9544C147.141 28.1975 146.48 28.319 145.796 28.319C144.642 28.319 143.632 28.0608 142.766 27.5443C141.9 27.0279 141.232 26.3139 140.761 25.4026C140.305 24.4912 140.077 23.4659 140.077 22.3266C140.077 21.1874 140.305 20.1621 140.761 19.2507C141.232 18.3393 141.9 17.6254 142.766 17.109C143.632 16.5773 144.642 16.3115 145.796 16.3115C146.48 16.3115 147.133 16.4406 147.756 16.6989C148.394 16.9419 148.979 17.2837 149.51 17.7242V12.0508ZM146.161 25.6076C146.784 25.6076 147.346 25.4709 147.847 25.1975C148.363 24.9089 148.766 24.514 149.055 24.0127C149.358 23.5114 149.51 22.9418 149.51 22.3039C149.51 21.3469 149.184 20.5646 148.531 19.957C147.893 19.3495 147.103 19.0457 146.161 19.0457C145.204 19.0457 144.414 19.3571 143.791 19.9798C143.184 20.5874 142.88 21.3697 142.88 22.3266C142.88 23.2836 143.184 24.0735 143.791 24.6962C144.414 25.3038 145.204 25.6076 146.161 25.6076ZM165.036 24.1038C165.036 24.6203 165.157 24.9772 165.401 25.1747C165.644 25.3722 166.031 25.4709 166.563 25.4709C166.882 25.4709 167.231 25.4481 167.611 25.4026V28C166.897 28.0759 166.304 28.1139 165.833 28.1139C164.618 28.1139 163.707 27.8405 163.099 27.2937C162.507 26.7317 162.211 25.7291 162.211 24.2861V19.1368H160.069V16.6077H162.211V13.8052L165.036 12.8483V16.6077H167.565V19.1368H165.036V24.1038ZM174.859 28.319C173.781 28.319 172.778 28.0532 171.852 27.5215C170.94 26.9747 170.211 26.2456 169.664 25.3342C169.133 24.4076 168.867 23.4051 168.867 22.3266C168.867 21.2482 169.133 20.2532 169.664 19.3419C170.211 18.4153 170.94 17.6862 171.852 17.1545C172.778 16.6077 173.781 16.3343 174.859 16.3343C175.938 16.3343 176.933 16.6077 177.844 17.1545C178.771 17.6862 179.5 18.4153 180.031 19.3419C180.578 20.2532 180.852 21.2482 180.852 22.3266C180.852 23.4051 180.578 24.4076 180.031 25.3342C179.5 26.2456 178.771 26.9747 177.844 27.5215C176.933 28.0532 175.938 28.319 174.859 28.319ZM174.837 25.4937C175.414 25.4937 175.945 25.357 176.431 25.0836C176.918 24.795 177.305 24.4076 177.593 23.9216C177.882 23.4355 178.026 22.9038 178.026 22.3266C178.026 21.7494 177.882 21.2178 177.593 20.7317C177.305 20.2456 176.918 19.8583 176.431 19.5697C175.945 19.2811 175.414 19.1368 174.837 19.1368C174.259 19.1368 173.728 19.2811 173.242 19.5697C172.756 19.8583 172.368 20.2456 172.08 20.7317C171.806 21.2178 171.669 21.7494 171.669 22.3266C171.669 22.9038 171.806 23.4355 172.08 23.9216C172.368 24.4076 172.756 24.795 173.242 25.0836C173.728 25.357 174.259 25.4937 174.837 25.4937ZM189.134 28V12.0508H192.096V28H189.134ZM201.152 12.0508C202.093 12.0508 202.967 12.2862 203.772 12.7571C204.577 13.2128 205.207 13.8432 205.663 14.6482C206.134 15.4533 206.369 16.3267 206.369 17.2685C206.369 18.2102 206.134 19.0836 205.663 19.8887C205.207 20.6786 204.577 21.3089 203.772 21.7798C202.967 22.2507 202.093 22.4861 201.152 22.4861H198.326V28H195.342V12.0508H201.152ZM201.152 19.6381C201.805 19.6381 202.359 19.4102 202.815 18.9545C203.286 18.4836 203.521 17.9216 203.521 17.2685C203.521 16.6153 203.286 16.0533 202.815 15.5824C202.359 15.1115 201.805 14.8761 201.152 14.8761H198.326V19.6381H201.152ZM218.194 12.0508V14.8761H211.632V18.7039H217.944V21.5292H211.632V28H208.647V12.0508H218.194ZM226.016 28.2962C224.452 28.2962 223.138 27.9468 222.074 27.2481C221.011 26.5494 220.267 25.6076 219.841 24.4228L222.348 22.9418C222.971 24.5671 224.216 25.3798 226.084 25.3798C226.92 25.3798 227.565 25.1823 228.021 24.7874C228.477 24.3924 228.705 23.9368 228.705 23.4203C228.705 22.9038 228.454 22.4861 227.953 22.1671C227.467 21.8482 226.593 21.5064 225.333 21.1418C224.345 20.838 223.51 20.5115 222.826 20.1621C222.143 19.7976 221.581 19.3115 221.14 18.7039C220.715 18.0963 220.502 17.3292 220.502 16.4027C220.502 15.4609 220.738 14.6406 221.209 13.9419C221.679 13.228 222.302 12.6888 223.077 12.3242C223.867 11.9445 224.725 11.7546 225.651 11.7546C226.943 11.7546 228.059 12.066 229.001 12.6888C229.958 13.2964 230.694 14.1546 231.211 15.2634L228.659 16.7216C228.067 15.3697 227.064 14.6938 225.651 14.6938C225.014 14.6938 224.489 14.8609 224.079 15.1951C223.669 15.5292 223.464 15.9242 223.464 16.3799C223.464 16.7292 223.555 17.0254 223.738 17.2685C223.935 17.5115 224.239 17.7318 224.649 17.9292C225.074 18.1267 225.689 18.3469 226.495 18.59C227.543 18.9241 228.424 19.2735 229.138 19.6381C229.867 20.0026 230.467 20.5115 230.938 21.1646C231.424 21.8026 231.667 22.6077 231.667 23.5798C231.667 24.5367 231.424 25.3722 230.938 26.0861C230.451 26.8 229.776 27.3468 228.91 27.7266C228.059 28.1063 227.095 28.2962 226.016 28.2962Z" fill="black"/>
<path d="M85.4765 46.3542H87.5955V54.8984H85.4765V54.1807C85.1689 54.4655 84.8272 54.6934 84.4512 54.8643C84.0753 55.0351 83.6765 55.1206 83.255 55.1206C82.7538 55.1206 82.2411 55.0181 81.7171 54.813C81.2044 54.5965 80.7601 54.2149 80.3842 53.6681C80.0196 53.1212 79.8373 52.3864 79.8373 51.4637V46.3542H81.9563V51.4637C81.9563 52.1016 82.1329 52.563 82.486 52.8478C82.8506 53.1212 83.2721 53.2579 83.7506 53.2579C84.2291 53.2579 84.6335 53.0928 84.9639 52.7624C85.3056 52.4206 85.4765 51.8795 85.4765 51.139V46.3542ZM94.6937 46.1321C95.5595 46.1321 96.3171 46.3257 96.9665 46.7131C97.6272 47.1004 98.1285 47.6359 98.4703 48.3194C98.8234 49.0029 99 49.7719 99 50.6263C99 51.4808 98.8234 52.2497 98.4703 52.9333C98.1285 53.6168 97.6272 54.1579 96.9665 54.5567C96.3171 54.944 95.5595 55.1377 94.6937 55.1377C94.1811 55.1377 93.6855 55.0465 93.207 54.8643C92.7399 54.6706 92.307 54.4029 91.9083 54.0611V58.3161H89.7893V46.3542H91.9083V47.1916C92.2956 46.8498 92.7286 46.5878 93.207 46.4055C93.6855 46.2232 94.1811 46.1321 94.6937 46.1321ZM94.4374 53.0871C95.1437 53.0871 95.7247 52.8592 96.1804 52.4035C96.6475 51.9364 96.881 51.344 96.881 50.6263C96.881 49.9086 96.6475 49.3219 96.1804 48.8662C95.7247 48.3991 95.1437 48.1656 94.4374 48.1656C93.9703 48.1656 93.5431 48.2738 93.1558 48.4903C92.7684 48.6953 92.4608 48.9858 92.233 49.3618C92.0165 49.7377 91.9083 50.1649 91.9083 50.6434C91.9083 51.3611 92.1475 51.9478 92.626 52.4035C93.1159 52.8592 93.7197 53.0871 94.4374 53.0871ZM102.555 52.489C102.555 52.6712 102.601 52.8023 102.692 52.882C102.783 52.9617 102.925 53.0016 103.119 53.0016C103.267 53.0016 103.444 52.9845 103.649 52.9504V54.8984C103.227 54.9668 102.834 55.001 102.47 55.001C101.809 55.001 101.302 54.8301 100.949 54.4883C100.607 54.1352 100.436 53.5143 100.436 52.6257V42.9365H102.555V52.489ZM108.691 55.1377C107.882 55.1377 107.13 54.9383 106.435 54.5396C105.752 54.1295 105.205 53.5826 104.795 52.8991C104.396 52.2042 104.196 51.4523 104.196 50.6434C104.196 49.8346 104.396 49.0884 104.795 48.4048C105.205 47.7099 105.752 47.1631 106.435 46.7643C107.13 46.3542 107.882 46.1492 108.691 46.1492C109.5 46.1492 110.246 46.3542 110.929 46.7643C111.624 47.1631 112.171 47.7099 112.57 48.4048C112.98 49.0884 113.185 49.8346 113.185 50.6434C113.185 51.4523 112.98 52.2042 112.57 52.8991C112.171 53.5826 111.624 54.1295 110.929 54.5396C110.246 54.9383 109.5 55.1377 108.691 55.1377ZM108.674 53.0187C109.107 53.0187 109.505 52.9162 109.87 52.7111C110.234 52.4947 110.525 52.2042 110.741 51.8396C110.958 51.4751 111.066 51.0763 111.066 50.6434C111.066 50.2105 110.958 49.8118 110.741 49.4472C110.525 49.0827 110.234 48.7922 109.87 48.5757C109.505 48.3593 109.107 48.251 108.674 48.251C108.241 48.251 107.842 48.3593 107.477 48.5757C107.113 48.7922 106.822 49.0827 106.606 49.4472C106.401 49.8118 106.298 50.2105 106.298 50.6434C106.298 51.0763 106.401 51.4751 106.606 51.8396C106.822 52.2042 107.113 52.4947 107.477 52.7111C107.842 52.9162 108.241 53.0187 108.674 53.0187ZM121.236 46.3542H123.355V54.8984H121.236V54.0611C120.837 54.4029 120.399 54.6706 119.92 54.8643C119.453 55.0465 118.958 55.1377 118.434 55.1377C117.568 55.1377 116.81 54.944 116.161 54.5567C115.512 54.1693 115.01 53.6339 114.657 52.9504C114.315 52.2668 114.144 51.4978 114.144 50.6434C114.144 49.789 114.315 49.02 114.657 48.3365C115.01 47.6529 115.512 47.1175 116.161 46.7302C116.81 46.3314 117.568 46.1321 118.434 46.1321C118.958 46.1321 119.453 46.2289 119.92 46.4226C120.399 46.6049 120.837 46.8669 121.236 47.2086V46.3542ZM118.707 53.1042C119.174 53.1042 119.596 53.0016 119.972 52.7966C120.359 52.5801 120.661 52.2839 120.877 51.908C121.105 51.532 121.219 51.1048 121.219 50.6263C121.219 49.9086 120.974 49.3219 120.484 48.8662C120.006 48.4105 119.413 48.1827 118.707 48.1827C117.989 48.1827 117.397 48.4162 116.93 48.8833C116.474 49.339 116.246 49.9257 116.246 50.6434C116.246 51.3611 116.474 51.9535 116.93 52.4206C117.397 52.8763 117.989 53.1042 118.707 53.1042ZM131.883 42.9365H134.002V54.8984H131.883V54.0782C131.495 54.42 131.062 54.682 130.584 54.8643C130.105 55.0465 129.61 55.1377 129.097 55.1377C128.231 55.1377 127.474 54.944 126.825 54.5567C126.175 54.1693 125.674 53.6339 125.321 52.9504C124.979 52.2668 124.808 51.4978 124.808 50.6434C124.808 49.789 124.979 49.02 125.321 48.3365C125.674 47.6529 126.175 47.1175 126.825 46.7302C127.474 46.3314 128.231 46.1321 129.097 46.1321C129.61 46.1321 130.1 46.2289 130.567 46.4226C131.045 46.6049 131.484 46.8612 131.883 47.1916V42.9365ZM129.371 53.1042C129.838 53.1042 130.259 53.0016 130.635 52.7966C131.023 52.5801 131.324 52.2839 131.541 51.908C131.769 51.532 131.883 51.1048 131.883 50.6263C131.883 49.9086 131.638 49.3219 131.148 48.8662C130.669 48.4105 130.077 48.1827 129.371 48.1827C128.653 48.1827 128.061 48.4162 127.593 48.8833C127.138 49.339 126.91 49.9257 126.91 50.6434C126.91 51.3611 127.138 51.9535 127.593 52.4206C128.061 52.8763 128.653 53.1042 129.371 53.1042ZM147.269 46.3542H149.388V54.8984H147.269V54.0611C146.871 54.4029 146.432 54.6706 145.954 54.8643C145.486 55.0465 144.991 55.1377 144.467 55.1377C143.601 55.1377 142.843 54.944 142.194 54.5567C141.545 54.1693 141.043 53.6339 140.69 52.9504C140.349 52.2668 140.178 51.4978 140.178 50.6434C140.178 49.789 140.349 49.02 140.69 48.3365C141.043 47.6529 141.545 47.1175 142.194 46.7302C142.843 46.3314 143.601 46.1321 144.467 46.1321C144.991 46.1321 145.486 46.2289 145.954 46.4226C146.432 46.6049 146.871 46.8669 147.269 47.2086V46.3542ZM144.74 53.1042C145.207 53.1042 145.629 53.0016 146.005 52.7966C146.392 52.5801 146.694 52.2839 146.91 51.908C147.138 51.532 147.252 51.1048 147.252 50.6263C147.252 49.9086 147.007 49.3219 146.517 48.8662C146.039 48.4105 145.447 48.1827 144.74 48.1827C144.023 48.1827 143.43 48.4162 142.963 48.8833C142.507 49.339 142.28 49.9257 142.28 50.6434C142.28 51.3611 142.507 51.9535 142.963 52.4206C143.43 52.8763 144.023 53.1042 144.74 53.1042ZM156.643 46.1833L156.489 48.1827C156.421 48.1599 156.302 48.1485 156.131 48.1485C155.424 48.1485 154.838 48.3536 154.371 48.7637C153.915 49.1738 153.687 49.732 153.687 50.4384V54.8984H151.568V46.3542H153.687V47.7897C153.881 47.334 154.211 46.9523 154.678 46.6447C155.145 46.3371 155.709 46.1833 156.37 46.1833H156.643ZM161.466 51.9763C161.466 52.3637 161.558 52.6314 161.74 52.7795C161.922 52.9276 162.213 53.0016 162.611 53.0016C162.851 53.0016 163.113 52.9845 163.397 52.9504V54.8984C162.862 54.9554 162.418 54.9839 162.065 54.9839C161.153 54.9839 160.47 54.7788 160.014 54.3687C159.57 53.9472 159.348 53.1953 159.348 52.113V48.251H157.741V46.3542H159.348V44.2523L161.466 43.5346V46.3542H163.363V48.251H161.466V51.9763ZM173.455 51.532L175.044 46.3542H177.266L174.497 54.8984H172.395L170.789 49.8232L169.183 54.8984H167.115L164.415 46.3542H166.62L168.158 51.4978L169.661 46.3542H171.917L173.455 51.532ZM182.051 55.1377C181.242 55.1377 180.49 54.9383 179.795 54.5396C179.112 54.1295 178.565 53.5826 178.155 52.8991C177.756 52.2042 177.557 51.4523 177.557 50.6434C177.557 49.8346 177.756 49.0884 178.155 48.4048C178.565 47.7099 179.112 47.1631 179.795 46.7643C180.49 46.3542 181.242 46.1492 182.051 46.1492C182.86 46.1492 183.606 46.3542 184.289 46.7643C184.984 47.1631 185.531 47.7099 185.93 48.4048C186.34 49.0884 186.545 49.8346 186.545 50.6434C186.545 51.4523 186.34 52.2042 185.93 52.8991C185.531 53.5826 184.984 54.1295 184.289 54.5396C183.606 54.9383 182.86 55.1377 182.051 55.1377ZM182.034 53.0187C182.467 53.0187 182.865 52.9162 183.23 52.7111C183.595 52.4947 183.885 52.2042 184.101 51.8396C184.318 51.4751 184.426 51.0763 184.426 50.6434C184.426 50.2105 184.318 49.8118 184.101 49.4472C183.885 49.0827 183.595 48.7922 183.23 48.5757C182.865 48.3593 182.467 48.251 182.034 48.251C181.601 48.251 181.202 48.3593 180.838 48.5757C180.473 48.7922 180.183 49.0827 179.966 49.4472C179.761 49.8118 179.658 50.2105 179.658 50.6434C179.658 51.0763 179.761 51.4751 179.966 51.8396C180.183 52.2042 180.473 52.4947 180.838 52.7111C181.202 52.9162 181.601 53.0187 182.034 53.0187ZM192.973 46.1833L192.819 48.1827C192.751 48.1599 192.631 48.1485 192.46 48.1485C191.754 48.1485 191.167 48.3536 190.7 48.7637C190.244 49.1738 190.017 49.732 190.017 50.4384V54.8984H187.898V46.3542H190.017V47.7897C190.21 47.334 190.541 46.9523 191.008 46.6447C191.475 46.3371 192.039 46.1833 192.699 46.1833H192.973ZM202.797 54.8984H200.148L197.756 51.7029L196.508 53.07V54.8984H194.389V42.9365H196.508V49.9599L199.721 46.3542H202.677L199.191 50.1479L202.797 54.8984ZM215.156 46.3542H217.275V54.8984H215.156V54.0611C214.757 54.4029 214.318 54.6706 213.84 54.8643C213.373 55.0465 212.877 55.1377 212.353 55.1377C211.487 55.1377 210.73 54.944 210.081 54.5567C209.431 54.1693 208.93 53.6339 208.577 52.9504C208.235 52.2668 208.064 51.4978 208.064 50.6434C208.064 49.789 208.235 49.02 208.577 48.3365C208.93 47.6529 209.431 47.1175 210.081 46.7302C210.73 46.3314 211.487 46.1321 212.353 46.1321C212.877 46.1321 213.373 46.2289 213.84 46.4226C214.318 46.6049 214.757 46.8669 215.156 47.2086V46.3542ZM212.627 53.1042C213.094 53.1042 213.515 53.0016 213.891 52.7966C214.279 52.5801 214.58 52.2839 214.797 51.908C215.025 51.532 215.139 51.1048 215.139 50.6263C215.139 49.9086 214.894 49.3219 214.404 48.8662C213.925 48.4105 213.333 48.1827 212.627 48.1827C211.909 48.1827 211.317 48.4162 210.85 48.8833C210.394 49.339 210.166 49.9257 210.166 50.6434C210.166 51.3611 210.394 51.9535 210.85 52.4206C211.317 52.8763 211.909 53.1042 212.627 53.1042ZM223.795 46.1321C224.296 46.1321 224.803 46.2403 225.316 46.4568C225.84 46.6618 226.284 47.0378 226.649 47.5846C227.025 48.1314 227.213 48.8662 227.213 49.789V54.8984H225.094V49.789C225.094 49.151 224.911 48.6953 224.547 48.4219C224.194 48.1371 223.778 47.9947 223.299 47.9947C222.821 47.9947 222.411 48.1656 222.069 48.5074C221.739 48.8377 221.573 49.3732 221.573 50.1137V54.8984H219.454V46.3542H221.573V47.0719C221.881 46.7871 222.223 46.5593 222.599 46.3884C222.975 46.2175 223.373 46.1321 223.795 46.1321ZM235.581 42.9365H237.7V54.8984H235.581V54.0782C235.194 54.42 234.761 54.682 234.283 54.8643C233.804 55.0465 233.309 55.1377 232.796 55.1377C231.93 55.1377 231.173 54.944 230.523 54.5567C229.874 54.1693 229.373 53.6339 229.019 52.9504C228.678 52.2668 228.507 51.4978 228.507 50.6434C228.507 49.789 228.678 49.02 229.019 48.3365C229.373 47.6529 229.874 47.1175 230.523 46.7302C231.173 46.3314 231.93 46.1321 232.796 46.1321C233.309 46.1321 233.799 46.2289 234.266 46.4226C234.744 46.6049 235.183 46.8612 235.581 47.1916V42.9365ZM233.069 53.1042C233.537 53.1042 233.958 53.0016 234.334 52.7966C234.721 52.5801 235.023 52.2839 235.24 51.908C235.467 51.532 235.581 51.1048 235.581 50.6263C235.581 49.9086 235.336 49.3219 234.847 48.8662C234.368 48.4105 233.776 48.1827 233.069 48.1827C232.352 48.1827 231.759 48.4162 231.292 48.8833C230.837 49.339 230.609 49.9257 230.609 50.6434C230.609 51.3611 230.837 51.9535 231.292 52.4206C231.759 52.8763 232.352 53.1042 233.069 53.1042ZM254.129 46.1321C254.631 46.1321 255.138 46.2403 255.65 46.4568C256.163 46.6618 256.602 47.0378 256.966 47.5846C257.342 48.1314 257.53 48.8662 257.53 49.789V54.8984H255.428V49.789C255.428 49.151 255.246 48.6953 254.881 48.4219C254.528 48.1371 254.112 47.9947 253.634 47.9947C253.224 47.9947 252.865 48.12 252.557 48.3707C252.25 48.6099 252.05 48.9972 251.959 49.5327V49.789V54.8984H249.857V49.789C249.857 49.151 249.675 48.6953 249.311 48.4219C248.957 48.1371 248.536 47.9947 248.046 47.9947C247.659 47.9947 247.305 48.1143 246.986 48.3536C246.679 48.5928 246.48 48.9744 246.388 49.4985V54.8984H244.269V46.3542H246.388V47.0207C246.673 46.7473 246.998 46.5308 247.362 46.3713C247.738 46.2118 248.137 46.1321 248.559 46.1321C249.083 46.1321 249.612 46.246 250.148 46.4738C250.683 46.7017 251.11 47.0833 251.429 47.6188C251.726 47.1973 252.113 46.8441 252.591 46.5593C253.07 46.2745 253.583 46.1321 254.129 46.1321ZM263.221 46.1321C264.041 46.1321 264.776 46.3371 265.425 46.7473C266.086 47.146 266.599 47.6871 266.963 48.3707C267.328 49.0542 267.51 49.8118 267.51 50.6434C267.51 50.9168 267.487 51.1675 267.442 51.3953H260.846C261.016 51.9991 261.318 52.4719 261.751 52.8136C262.184 53.144 262.737 53.3092 263.409 53.3092C263.819 53.3092 264.212 53.2181 264.588 53.0358C264.975 52.8535 265.266 52.62 265.459 52.3352L267.083 53.2921C266.684 53.8845 266.166 54.3402 265.528 54.6592C264.901 54.9668 264.178 55.1206 263.358 55.1206C262.446 55.1206 261.637 54.9269 260.931 54.5396C260.225 54.1522 259.678 53.6168 259.291 52.9333C258.915 52.2497 258.727 51.4808 258.727 50.6263C258.727 49.7833 258.915 49.02 259.291 48.3365C259.678 47.6529 260.213 47.1175 260.897 46.7302C261.58 46.3314 262.355 46.1321 263.221 46.1321ZM265.528 49.7377C265.437 49.1909 265.18 48.7637 264.759 48.4561C264.349 48.1371 263.83 47.9776 263.204 47.9776C262.771 47.9776 262.372 48.0574 262.008 48.2169C261.654 48.3764 261.37 48.5928 261.153 48.8662C260.937 49.1396 260.823 49.4301 260.811 49.7377H265.528ZM271.724 51.9763C271.724 52.3637 271.815 52.6314 271.997 52.7795C272.179 52.9276 272.47 53.0016 272.869 53.0016C273.108 53.0016 273.37 52.9845 273.655 52.9504V54.8984C273.119 54.9554 272.675 54.9839 272.322 54.9839C271.41 54.9839 270.727 54.7788 270.271 54.3687C269.827 53.9472 269.605 53.1953 269.605 52.113V48.251H267.998V46.3542H269.605V44.2523L271.724 43.5346V46.3542H273.62V48.251H271.724V51.9763ZM281.774 46.3542H283.893V54.8984H281.774V54.0611C281.375 54.4029 280.937 54.6706 280.458 54.8643C279.991 55.0465 279.496 55.1377 278.971 55.1377C278.106 55.1377 277.348 54.944 276.699 54.5567C276.049 54.1693 275.548 53.6339 275.195 52.9504C274.853 52.2668 274.682 51.4978 274.682 50.6434C274.682 49.789 274.853 49.02 275.195 48.3365C275.548 47.6529 276.049 47.1175 276.699 46.7302C277.348 46.3314 278.106 46.1321 278.971 46.1321C279.496 46.1321 279.991 46.2289 280.458 46.4226C280.937 46.6049 281.375 46.8669 281.774 47.2086V46.3542ZM279.245 53.1042C279.712 53.1042 280.133 53.0016 280.509 52.7966C280.897 52.5801 281.199 52.2839 281.415 51.908C281.643 51.532 281.757 51.1048 281.757 50.6263C281.757 49.9086 281.512 49.3219 281.022 48.8662C280.544 48.4105 279.951 48.1827 279.245 48.1827C278.527 48.1827 277.935 48.4162 277.468 48.8833C277.012 49.339 276.784 49.9257 276.784 50.6434C276.784 51.3611 277.012 51.9535 277.468 52.4206C277.935 52.8763 278.527 53.1042 279.245 53.1042ZM292.42 42.9365H294.539V54.8984H292.42V54.0782C292.033 54.42 291.6 54.682 291.122 54.8643C290.643 55.0465 290.148 55.1377 289.635 55.1377C288.769 55.1377 288.012 54.944 287.362 54.5567C286.713 54.1693 286.212 53.6339 285.859 52.9504C285.517 52.2668 285.346 51.4978 285.346 50.6434C285.346 49.789 285.517 49.02 285.859 48.3365C286.212 47.6529 286.713 47.1175 287.362 46.7302C288.012 46.3314 288.769 46.1321 289.635 46.1321C290.148 46.1321 290.638 46.2289 291.105 46.4226C291.583 46.6049 292.022 46.8612 292.42 47.1916V42.9365ZM289.908 53.1042C290.376 53.1042 290.797 53.0016 291.173 52.7966C291.56 52.5801 291.862 52.2839 292.079 51.908C292.307 51.532 292.42 51.1048 292.42 50.6263C292.42 49.9086 292.176 49.3219 291.686 48.8662C291.207 48.4105 290.615 48.1827 289.908 48.1827C289.191 48.1827 288.598 48.4162 288.131 48.8833C287.676 49.339 287.448 49.9257 287.448 50.6434C287.448 51.3611 287.676 51.9535 288.131 52.4206C288.598 52.8763 289.191 53.1042 289.908 53.1042ZM303.084 46.3542H305.203V54.8984H303.084V54.0611C302.686 54.4029 302.247 54.6706 301.769 54.8643C301.302 55.0465 300.806 55.1377 300.282 55.1377C299.416 55.1377 298.659 54.944 298.009 54.5567C297.36 54.1693 296.859 53.6339 296.505 52.9504C296.164 52.2668 295.993 51.4978 295.993 50.6434C295.993 49.789 296.164 49.02 296.505 48.3365C296.859 47.6529 297.36 47.1175 298.009 46.7302C298.659 46.3314 299.416 46.1321 300.282 46.1321C300.806 46.1321 301.302 46.2289 301.769 46.4226C302.247 46.6049 302.686 46.8669 303.084 47.2086V46.3542ZM300.555 53.1042C301.022 53.1042 301.444 53.0016 301.82 52.7966C302.207 52.5801 302.509 52.2839 302.726 51.908C302.953 51.532 303.067 51.1048 303.067 50.6263C303.067 49.9086 302.822 49.3219 302.333 48.8662C301.854 48.4105 301.262 48.1827 300.555 48.1827C299.838 48.1827 299.245 48.4162 298.778 48.8833C298.322 49.339 298.095 49.9257 298.095 50.6434C298.095 51.3611 298.322 51.9535 298.778 52.4206C299.245 52.8763 299.838 53.1042 300.555 53.1042Z" fill="#6A6A6A"/>
</svg>
