<svg width="322" height="93" viewBox="0 0 322 93" fill="none" xmlns="http://www.w3.org/2000/svg">
<path d="M32.259 20.35C33.7257 20.35 35.209 20.6667 36.709 21.3C38.209 21.9 39.4923 23 40.559 24.6C41.659 26.2 42.209 28.35 42.209 31.05V46H36.059V31.05C36.059 29.1833 35.5257 27.85 34.459 27.05C33.4257 26.2167 32.209 25.8 30.809 25.8C29.609 25.8 28.559 26.1667 27.659 26.9C26.759 27.6 26.1757 28.7333 25.909 30.3V31.05V46H19.759V31.05C19.759 29.1833 19.2257 27.85 18.159 27.05C17.1257 26.2167 15.8923 25.8 14.459 25.8C13.3257 25.8 12.2923 26.15 11.359 26.85C10.459 27.55 9.87565 28.6667 9.60898 30.2V46H3.40898V21H9.60898V22.95C10.4423 22.15 11.3923 21.5167 12.459 21.05C13.559 20.5833 14.7257 20.35 15.959 20.35C17.4923 20.35 19.0423 20.6833 20.609 21.35C22.1757 22.0167 23.4257 23.1333 24.359 24.7C25.2257 23.4667 26.359 22.4333 27.759 21.6C29.159 20.7667 30.659 20.35 32.259 20.35ZM51.2867 16.85C50.1201 16.85 49.2034 16.5333 48.5367 15.9C47.8701 15.2667 47.5367 14.4 47.5367 13.3C47.5367 12.1667 47.8701 11.2833 48.5367 10.65C49.2034 10.0167 50.1201 9.7 51.2867 9.7C52.4534 9.7 53.3701 10.0167 54.0367 10.65C54.7034 11.2833 55.0367 12.1667 55.0367 13.3C55.0367 14.3667 54.6867 15.2333 53.9867 15.9C53.3201 16.5333 52.4201 16.85 51.2867 16.85ZM48.1367 46V21H54.3367V46H48.1367ZM73.2379 20.35C74.7046 20.35 76.1879 20.6667 77.6879 21.3C79.2212 21.9 80.5212 23 81.5879 24.6C82.6879 26.2 83.2379 28.35 83.2379 31.05V46H77.0379V31.05C77.0379 29.1833 76.5046 27.85 75.4379 27.05C74.4046 26.2167 73.1879 25.8 71.7879 25.8C70.3879 25.8 69.1879 26.3 68.1879 27.3C67.2212 28.2667 66.7379 29.8333 66.7379 32V46H60.5379V21H66.7379V23.1C67.6379 22.2667 68.6379 21.6 69.7379 21.1C70.8379 20.6 72.0046 20.35 73.2379 20.35ZM96.3852 37.45C96.3852 38.5833 96.6518 39.3667 97.1852 39.8C97.7185 40.2333 98.5685 40.45 99.7352 40.45C100.435 40.45 101.202 40.4 102.035 40.3V46C100.468 46.1667 99.1685 46.25 98.1352 46.25C95.4685 46.25 93.4685 45.65 92.1352 44.45C90.8352 43.2167 90.1852 41.0167 90.1852 37.85V26.55H85.4852V21H90.1852V14.85L96.3852 12.75V21H101.935V26.55H96.3852V37.45ZM136.905 21H143.405L134.655 46.05C133.355 49.4833 131.555 52.05 129.255 53.75C126.988 55.4833 124.305 56.2333 121.205 56V50C121.405 50.0333 121.705 50.05 122.105 50.05C124.771 50.05 126.855 48.4333 128.355 45.2L117.355 21H124.005L131.355 36.9L136.905 21ZM158.665 46.7C156.298 46.7 154.098 46.1167 152.065 44.95C150.065 43.75 148.465 42.15 147.265 40.15C146.098 38.1167 145.515 35.9167 145.515 33.55C145.515 31.1833 146.098 29 147.265 27C148.465 24.9667 150.065 23.3667 152.065 22.2C154.098 21 156.298 20.4 158.665 20.4C161.032 20.4 163.215 21 165.215 22.2C167.248 23.3667 168.848 24.9667 170.015 27C171.215 29 171.815 31.1833 171.815 33.55C171.815 35.9167 171.215 38.1167 170.015 40.15C168.848 42.15 167.248 43.75 165.215 44.95C163.215 46.1167 161.032 46.7 158.665 46.7ZM158.615 40.5C159.882 40.5 161.048 40.2 162.115 39.6C163.182 38.9667 164.032 38.1167 164.665 37.05C165.298 35.9833 165.615 34.8167 165.615 33.55C165.615 32.2833 165.298 31.1167 164.665 30.05C164.032 28.9833 163.182 28.1333 162.115 27.5C161.048 26.8667 159.882 26.55 158.615 26.55C157.348 26.55 156.182 26.8667 155.115 27.5C154.048 28.1333 153.198 28.9833 152.565 30.05C151.965 31.1167 151.665 32.2833 151.665 33.55C151.665 34.8167 151.965 35.9833 152.565 37.05C153.198 38.1167 154.048 38.9667 155.115 39.6C156.182 40.2 157.348 40.5 158.615 40.5ZM191.522 21H197.722V46H191.522V43.9C190.622 44.7333 189.622 45.4 188.522 45.9C187.422 46.4 186.256 46.65 185.022 46.65C183.556 46.65 182.056 46.35 180.522 45.75C179.022 45.1167 177.722 44 176.622 42.4C175.556 40.8 175.022 38.65 175.022 35.95V21H181.222V35.95C181.222 37.8167 181.739 39.1667 182.772 40C183.839 40.8 185.072 41.2 186.472 41.2C187.872 41.2 189.056 40.7167 190.022 39.75C191.022 38.75 191.522 37.1667 191.522 35V21ZM218.991 20.5L218.541 26.35C218.341 26.2833 217.991 26.25 217.491 26.25C215.425 26.25 213.708 26.85 212.341 28.05C211.008 29.25 210.341 30.8833 210.341 32.95V46H204.141V21H210.341V25.2C210.908 23.8667 211.875 22.75 213.241 21.85C214.608 20.95 216.258 20.5 218.191 20.5H218.991ZM257.127 33V11H263.677V46H258.077L242.877 22.3V46H236.327V11H242.877L257.127 33ZM291.75 11V17.2H277.35V25.6H291.2V31.8H277.35V46H270.8V11H291.75ZM321.046 11V17.2H311.396V46H304.896V17.2H295.296V11H321.046Z" fill="#E6E8EB"/>
<path d="M10.6936 86.06C10.2003 86.74 9.58026 87.28 8.83359 87.68C8.08693 88.08 7.28026 88.28 6.41359 88.28C5.46693 88.28 4.58693 88.0467 3.77359 87.58C2.97359 87.1 2.33359 86.46 1.85359 85.66C1.38693 84.8467 1.15359 83.9667 1.15359 83.02C1.15359 82.0733 1.38693 81.2 1.85359 80.4C2.33359 79.5867 2.97359 78.9467 3.77359 78.48C4.58693 78 5.46693 77.76 6.41359 77.76C7.26693 77.76 8.06693 77.96 8.81359 78.36C9.56026 78.7467 10.1803 79.2733 10.6736 79.94L8.63359 81.32C8.00693 80.5867 7.26693 80.22 6.41359 80.22C5.90693 80.22 5.44026 80.3467 5.01359 80.6C4.58693 80.8533 4.24693 81.1933 3.99359 81.62C3.74026 82.0467 3.61359 82.5133 3.61359 83.02C3.61359 83.5267 3.74026 83.9933 3.99359 84.42C4.24693 84.8467 4.58693 85.1867 5.01359 85.44C5.44026 85.68 5.90693 85.8 6.41359 85.8C7.26693 85.8 8.00693 85.4333 8.63359 84.7L10.6936 86.06ZM16.6675 88.28C15.7208 88.28 14.8408 88.0467 14.0275 87.58C13.2275 87.1 12.5875 86.46 12.1075 85.66C11.6408 84.8467 11.4075 83.9667 11.4075 83.02C11.4075 82.0733 11.6408 81.2 12.1075 80.4C12.5875 79.5867 13.2275 78.9467 14.0275 78.48C14.8408 78 15.7208 77.76 16.6675 77.76C17.6142 77.76 18.4875 78 19.2875 78.48C20.1008 78.9467 20.7408 79.5867 21.2075 80.4C21.6875 81.2 21.9275 82.0733 21.9275 83.02C21.9275 83.9667 21.6875 84.8467 21.2075 85.66C20.7408 86.46 20.1008 87.1 19.2875 87.58C18.4875 88.0467 17.6142 88.28 16.6675 88.28ZM16.6475 85.8C17.1542 85.8 17.6208 85.68 18.0475 85.44C18.4742 85.1867 18.8142 84.8467 19.0675 84.42C19.3208 83.9933 19.4475 83.5267 19.4475 83.02C19.4475 82.5133 19.3208 82.0467 19.0675 81.62C18.8142 81.1933 18.4742 80.8533 18.0475 80.6C17.6208 80.3467 17.1542 80.22 16.6475 80.22C16.1408 80.22 15.6742 80.3467 15.2475 80.6C14.8208 80.8533 14.4808 81.1933 14.2275 81.62C13.9875 82.0467 13.8675 82.5133 13.8675 83.02C13.8675 83.5267 13.9875 83.9933 14.2275 84.42C14.4808 84.8467 14.8208 85.1867 15.2475 85.44C15.6742 85.68 16.1408 85.8 16.6475 85.8ZM28.5905 77.74C29.1771 77.74 29.7705 77.8667 30.3705 78.12C30.9838 78.36 31.5038 78.8 31.9305 79.44C32.3705 80.08 32.5905 80.94 32.5905 82.02V88H30.1105V82.02C30.1105 81.2733 29.8971 80.74 29.4705 80.42C29.0571 80.0867 28.5705 79.92 28.0105 79.92C27.4505 79.92 26.9705 80.12 26.5705 80.52C26.1838 80.9067 25.9905 81.5333 25.9905 82.4V88H23.5105V78H25.9905V78.84C26.3505 78.5067 26.7505 78.24 27.1905 78.04C27.6305 77.84 28.0971 77.74 28.5905 77.74ZM40.5358 76.1C40.2024 76.06 39.9024 76.04 39.6358 76.04C39.1691 76.04 38.8291 76.1267 38.6158 76.3C38.4024 76.4733 38.2958 76.7933 38.2958 77.26V78H40.5158V80.22H38.2958V88H35.8158V80.22H34.1558V78H35.8158V77.1C35.8158 75.8333 36.0758 74.96 36.5958 74.48C37.1158 73.9867 37.9024 73.74 38.9558 73.74C39.3691 73.74 39.8958 73.7733 40.5358 73.84V76.1ZM43.2158 76.34C42.7491 76.34 42.3824 76.2133 42.1158 75.96C41.8491 75.7067 41.7158 75.36 41.7158 74.92C41.7158 74.4667 41.8491 74.1133 42.1158 73.86C42.3824 73.6067 42.7491 73.48 43.2158 73.48C43.6824 73.48 44.0491 73.6067 44.3158 73.86C44.5824 74.1133 44.7158 74.4667 44.7158 74.92C44.7158 75.3467 44.5758 75.6933 44.2958 75.96C44.0291 76.2133 43.6691 76.34 43.2158 76.34ZM41.9558 88V78H44.4358V88H41.9558ZM54.7689 78H57.2489V87.5C57.2489 88.4467 57.0089 89.28 56.5289 90C56.0622 90.72 55.4089 91.2733 54.5689 91.66C53.7289 92.06 52.7889 92.26 51.7489 92.26C50.5889 92.26 49.5356 92.0333 48.5889 91.58C47.6422 91.14 46.9756 90.56 46.5889 89.84L48.7089 88.62C48.9089 89.0067 49.2822 89.3267 49.8289 89.58C50.3756 89.8467 51.0356 89.98 51.8089 89.98C52.6622 89.98 53.3689 89.7467 53.9289 89.28C54.4889 88.8267 54.7689 88.2333 54.7689 87.5V87.04C54.3156 87.44 53.8089 87.7467 53.2489 87.96C52.6889 88.1733 52.1089 88.28 51.5089 88.28C50.4956 88.28 49.6089 88.0533 48.8489 87.6C48.0889 87.1467 47.5022 86.52 47.0889 85.72C46.6889 84.92 46.4889 84.02 46.4889 83.02C46.4889 82.02 46.6889 81.12 47.0889 80.32C47.5022 79.52 48.0889 78.8933 48.8489 78.44C49.6089 77.9733 50.4956 77.74 51.5089 77.74C52.1089 77.74 52.6822 77.8533 53.2289 78.08C53.7889 78.2933 54.3022 78.5933 54.7689 78.98V78ZM51.8289 85.9C52.3756 85.9 52.8689 85.78 53.3089 85.54C53.7622 85.2867 54.1156 84.94 54.3689 84.5C54.6356 84.06 54.7689 83.56 54.7689 83C54.7689 82.16 54.4822 81.4733 53.9089 80.94C53.3489 80.4067 52.6556 80.14 51.8289 80.14C50.9889 80.14 50.2956 80.4133 49.7489 80.96C49.2156 81.4933 48.9489 82.18 48.9489 83.02C48.9489 83.86 49.2156 84.5533 49.7489 85.1C50.2956 85.6333 50.9889 85.9 51.8289 85.9ZM65.7089 78H68.1889V88H65.7089V87.16C65.3489 87.4933 64.9489 87.76 64.5089 87.96C64.0689 88.16 63.6022 88.26 63.1089 88.26C62.5222 88.26 61.9222 88.14 61.3089 87.9C60.7089 87.6467 60.1889 87.2 59.7489 86.56C59.3222 85.92 59.1089 85.06 59.1089 83.98V78H61.5889V83.98C61.5889 84.7267 61.7956 85.2667 62.2089 85.6C62.6356 85.92 63.1289 86.08 63.6889 86.08C64.2489 86.08 64.7222 85.8867 65.1089 85.5C65.5089 85.1 65.7089 84.4667 65.7089 83.6V78ZM76.6966 77.8L76.5166 80.14C76.4366 80.1133 76.2966 80.1 76.0966 80.1C75.2699 80.1 74.5832 80.34 74.0366 80.82C73.5032 81.3 73.2366 81.9533 73.2366 82.78V88H70.7566V78H73.2366V79.68C73.4632 79.1467 73.8499 78.7 74.3966 78.34C74.9432 77.98 75.6032 77.8 76.3766 77.8H76.6966ZM82.4878 77.74C83.4478 77.74 84.3078 77.98 85.0678 78.46C85.8411 78.9267 86.4411 79.56 86.8678 80.36C87.2945 81.16 87.5078 82.0467 87.5078 83.02C87.5078 83.34 87.4811 83.6333 87.4278 83.9H79.7078C79.9078 84.6067 80.2611 85.16 80.7678 85.56C81.2745 85.9467 81.9211 86.14 82.7078 86.14C83.1878 86.14 83.6478 86.0333 84.0878 85.82C84.5411 85.6067 84.8811 85.3333 85.1078 85L87.0078 86.12C86.5411 86.8133 85.9345 87.3467 85.1878 87.72C84.4545 88.08 83.6078 88.26 82.6478 88.26C81.5811 88.26 80.6345 88.0333 79.8078 87.58C78.9811 87.1267 78.3411 86.5 77.8878 85.7C77.4478 84.9 77.2278 84 77.2278 83C77.2278 82.0133 77.4478 81.12 77.8878 80.32C78.3411 79.52 78.9678 78.8933 79.7678 78.44C80.5678 77.9733 81.4745 77.74 82.4878 77.74ZM85.1878 81.96C85.0811 81.32 84.7811 80.82 84.2878 80.46C83.8078 80.0867 83.2011 79.9 82.4678 79.9C81.9611 79.9 81.4945 79.9933 81.0678 80.18C80.6545 80.3667 80.3211 80.62 80.0678 80.94C79.8145 81.26 79.6811 81.6 79.6678 81.96H85.1878ZM101.264 78H103.864L100.364 88.02C99.8442 89.3933 99.1242 90.42 98.2042 91.1C97.2976 91.7933 96.2242 92.0933 94.9842 92V89.6C95.0642 89.6133 95.1842 89.62 95.3442 89.62C96.4109 89.62 97.2442 88.9733 97.8442 87.68L93.4442 78H96.1042L99.0442 84.36L101.264 78ZM109.968 88.28C109.022 88.28 108.142 88.0467 107.328 87.58C106.528 87.1 105.888 86.46 105.408 85.66C104.942 84.8467 104.708 83.9667 104.708 83.02C104.708 82.0733 104.942 81.2 105.408 80.4C105.888 79.5867 106.528 78.9467 107.328 78.48C108.142 78 109.022 77.76 109.968 77.76C110.915 77.76 111.788 78 112.588 78.48C113.402 78.9467 114.042 79.5867 114.508 80.4C114.988 81.2 115.228 82.0733 115.228 83.02C115.228 83.9667 114.988 84.8467 114.508 85.66C114.042 86.46 113.402 87.1 112.588 87.58C111.788 88.0467 110.915 88.28 109.968 88.28ZM109.948 85.8C110.455 85.8 110.922 85.68 111.348 85.44C111.775 85.1867 112.115 84.8467 112.368 84.42C112.622 83.9933 112.748 83.5267 112.748 83.02C112.748 82.5133 112.622 82.0467 112.368 81.62C112.115 81.1933 111.775 80.8533 111.348 80.6C110.922 80.3467 110.455 80.22 109.948 80.22C109.442 80.22 108.975 80.3467 108.548 80.6C108.122 80.8533 107.782 81.1933 107.528 81.62C107.288 82.0467 107.168 82.5133 107.168 83.02C107.168 83.5267 107.288 83.9933 107.528 84.42C107.782 84.8467 108.122 85.1867 108.548 85.44C108.975 85.68 109.442 85.8 109.948 85.8ZM123.111 78H125.591V88H123.111V87.16C122.751 87.4933 122.351 87.76 121.911 87.96C121.471 88.16 121.005 88.26 120.511 88.26C119.925 88.26 119.325 88.14 118.711 87.9C118.111 87.6467 117.591 87.2 117.151 86.56C116.725 85.92 116.511 85.06 116.511 83.98V78H118.991V83.98C118.991 84.7267 119.198 85.2667 119.611 85.6C120.038 85.92 120.531 86.08 121.091 86.08C121.651 86.08 122.125 85.8867 122.511 85.5C122.911 85.1 123.111 84.4667 123.111 83.6V78ZM134.099 77.8L133.919 80.14C133.839 80.1133 133.699 80.1 133.499 80.1C132.672 80.1 131.986 80.34 131.439 80.82C130.906 81.3 130.639 81.9533 130.639 82.78V88H128.159V78H130.639V79.68C130.866 79.1467 131.252 78.7 131.799 78.34C132.346 77.98 133.006 77.8 133.779 77.8H134.099ZM146.853 77.74C147.867 77.74 148.753 77.9733 149.513 78.44C150.273 78.8933 150.853 79.52 151.253 80.32C151.667 81.12 151.873 82.02 151.873 83.02C151.873 84.02 151.667 84.92 151.253 85.72C150.853 86.52 150.273 87.1467 149.513 87.6C148.753 88.0533 147.867 88.28 146.853 88.28C146.2 88.28 145.573 88.1533 144.973 87.9C144.373 87.6467 143.84 87.2933 143.373 86.84V88H140.893V74H143.373V79.18C143.84 78.7267 144.373 78.3733 144.973 78.12C145.587 77.8667 146.213 77.74 146.853 77.74ZM146.533 85.9C147.373 85.9 148.06 85.6333 148.593 85.1C149.14 84.5533 149.413 83.86 149.413 83.02C149.413 82.18 149.14 81.4933 148.593 80.96C148.06 80.4133 147.373 80.14 146.533 80.14C145.707 80.14 145.007 80.4067 144.433 80.94C143.873 81.4733 143.593 82.16 143.593 83C143.593 83.56 143.72 84.06 143.973 84.5C144.24 84.94 144.593 85.2867 145.033 85.54C145.487 85.78 145.987 85.9 146.533 85.9ZM156.108 85.18C156.108 85.3933 156.161 85.5467 156.268 85.64C156.374 85.7333 156.541 85.78 156.768 85.78C156.941 85.78 157.148 85.76 157.388 85.72V88C156.894 88.08 156.434 88.12 156.008 88.12C155.234 88.12 154.641 87.92 154.228 87.52C153.828 87.1067 153.628 86.38 153.628 85.34V74H156.108V85.18ZM163.289 88.28C162.342 88.28 161.462 88.0467 160.649 87.58C159.849 87.1 159.209 86.46 158.729 85.66C158.262 84.8467 158.029 83.9667 158.029 83.02C158.029 82.0733 158.262 81.2 158.729 80.4C159.209 79.5867 159.849 78.9467 160.649 78.48C161.462 78 162.342 77.76 163.289 77.76C164.235 77.76 165.109 78 165.909 78.48C166.722 78.9467 167.362 79.5867 167.829 80.4C168.309 81.2 168.549 82.0733 168.549 83.02C168.549 83.9667 168.309 84.8467 167.829 85.66C167.362 86.46 166.722 87.1 165.909 87.58C165.109 88.0467 164.235 88.28 163.289 88.28ZM163.269 85.8C163.775 85.8 164.242 85.68 164.669 85.44C165.095 85.1867 165.435 84.8467 165.689 84.42C165.942 83.9933 166.069 83.5267 166.069 83.02C166.069 82.5133 165.942 82.0467 165.689 81.62C165.435 81.1933 165.095 80.8533 164.669 80.6C164.242 80.3467 163.775 80.22 163.269 80.22C162.762 80.22 162.295 80.3467 161.869 80.6C161.442 80.8533 161.102 81.1933 160.849 81.62C160.609 82.0467 160.489 82.5133 160.489 83.02C160.489 83.5267 160.609 83.9933 160.849 84.42C161.102 84.8467 161.442 85.1867 161.869 85.44C162.295 85.68 162.762 85.8 163.269 85.8ZM179.112 86.06C178.618 86.74 177.998 87.28 177.252 87.68C176.505 88.08 175.698 88.28 174.832 88.28C173.885 88.28 173.005 88.0467 172.192 87.58C171.392 87.1 170.752 86.46 170.272 85.66C169.805 84.8467 169.572 83.9667 169.572 83.02C169.572 82.0733 169.805 81.2 170.272 80.4C170.752 79.5867 171.392 78.9467 172.192 78.48C173.005 78 173.885 77.76 174.832 77.76C175.685 77.76 176.485 77.96 177.232 78.36C177.978 78.7467 178.598 79.2733 179.092 79.94L177.052 81.32C176.425 80.5867 175.685 80.22 174.832 80.22C174.325 80.22 173.858 80.3467 173.432 80.6C173.005 80.8533 172.665 81.1933 172.412 81.62C172.158 82.0467 172.032 82.5133 172.032 83.02C172.032 83.5267 172.158 83.9933 172.412 84.42C172.665 84.8467 173.005 85.1867 173.432 85.44C173.858 85.68 174.325 85.8 174.832 85.8C175.685 85.8 176.425 85.4333 177.052 84.7L179.112 86.06ZM190.421 88H187.321L184.521 84.26L183.061 85.86V88H180.581V74H183.061V82.22L186.821 78H190.281L186.201 82.44L190.421 88ZM200.889 86.06C200.396 86.74 199.776 87.28 199.029 87.68C198.282 88.08 197.476 88.28 196.609 88.28C195.662 88.28 194.782 88.0467 193.969 87.58C193.169 87.1 192.529 86.46 192.049 85.66C191.582 84.8467 191.349 83.9667 191.349 83.02C191.349 82.0733 191.582 81.2 192.049 80.4C192.529 79.5867 193.169 78.9467 193.969 78.48C194.782 78 195.662 77.76 196.609 77.76C197.462 77.76 198.262 77.96 199.009 78.36C199.756 78.7467 200.376 79.2733 200.869 79.94L198.829 81.32C198.202 80.5867 197.462 80.22 196.609 80.22C196.102 80.22 195.636 80.3467 195.209 80.6C194.782 80.8533 194.442 81.1933 194.189 81.62C193.936 82.0467 193.809 82.5133 193.809 83.02C193.809 83.5267 193.936 83.9933 194.189 84.42C194.442 84.8467 194.782 85.1867 195.209 85.44C195.636 85.68 196.102 85.8 196.609 85.8C197.462 85.8 198.202 85.4333 198.829 84.7L200.889 86.06ZM211.553 88H209.093V82.08C209.093 81.3333 208.88 80.8 208.453 80.48C208.04 80.1467 207.547 79.98 206.973 79.98C206.52 79.98 206.107 80.12 205.733 80.4C205.373 80.68 205.14 81.1267 205.033 81.74V88H202.553V74H205.033V78.84C205.367 78.52 205.747 78.2667 206.173 78.08C206.613 77.8933 207.08 77.8 207.573 77.8C208.16 77.8 208.753 77.9267 209.353 78.18C209.953 78.42 210.467 78.8533 210.893 79.48C211.333 80.1067 211.553 80.9533 211.553 82.02V88ZM221.409 78H223.889V88H221.409V87.02C220.942 87.42 220.429 87.7333 219.869 87.96C219.322 88.1733 218.742 88.28 218.129 88.28C217.116 88.28 216.229 88.0533 215.469 87.6C214.709 87.1467 214.122 86.52 213.709 85.72C213.309 84.92 213.109 84.02 213.109 83.02C213.109 82.02 213.309 81.12 213.709 80.32C214.122 79.52 214.709 78.8933 215.469 78.44C216.229 77.9733 217.116 77.74 218.129 77.74C218.742 77.74 219.322 77.8533 219.869 78.08C220.429 78.2933 220.942 78.6 221.409 79V78ZM218.449 85.9C218.996 85.9 219.489 85.78 219.929 85.54C220.382 85.2867 220.736 84.94 220.989 84.5C221.256 84.06 221.389 83.56 221.389 83C221.389 82.16 221.102 81.4733 220.529 80.94C219.969 80.4067 219.276 80.14 218.449 80.14C217.609 80.14 216.916 80.4133 216.369 80.96C215.836 81.4933 215.569 82.18 215.569 83.02C215.569 83.86 215.836 84.5533 216.369 85.1C216.916 85.6333 217.609 85.9 218.449 85.9ZM227.72 76.34C227.253 76.34 226.887 76.2133 226.62 75.96C226.353 75.7067 226.22 75.36 226.22 74.92C226.22 74.4667 226.353 74.1133 226.62 73.86C226.887 73.6067 227.253 73.48 227.72 73.48C228.187 73.48 228.553 73.6067 228.82 73.86C229.087 74.1133 229.22 74.4667 229.22 74.92C229.22 75.3467 229.08 75.6933 228.8 75.96C228.533 76.2133 228.173 76.34 227.72 76.34ZM226.46 88V78H228.94V88H226.46ZM236.501 77.74C237.087 77.74 237.681 77.8667 238.281 78.12C238.894 78.36 239.414 78.8 239.841 79.44C240.281 80.08 240.501 80.94 240.501 82.02V88H238.021V82.02C238.021 81.2733 237.807 80.74 237.381 80.42C236.967 80.0867 236.481 79.92 235.921 79.92C235.361 79.92 234.881 80.12 234.481 80.52C234.094 80.9067 233.901 81.5333 233.901 82.4V88H231.421V78H233.901V78.84C234.261 78.5067 234.661 78.24 235.101 78.04C235.541 77.84 236.007 77.74 236.501 77.74ZM250.163 80.8C250.163 81.08 250.316 81.2933 250.623 81.44C250.943 81.5733 251.443 81.7133 252.123 81.86C252.896 82.02 253.543 82.2 254.063 82.4C254.583 82.6 255.029 82.92 255.403 83.36C255.789 83.7867 255.983 84.3667 255.983 85.1C255.983 85.7533 255.783 86.32 255.383 86.8C254.996 87.28 254.476 87.6467 253.823 87.9C253.169 88.14 252.456 88.26 251.683 88.26C250.629 88.26 249.723 88.06 248.963 87.66C248.216 87.26 247.663 86.6867 247.303 85.94L249.343 84.88C249.703 85.8 250.483 86.26 251.683 86.26C252.203 86.26 252.649 86.16 253.023 85.96C253.396 85.76 253.583 85.4733 253.583 85.1C253.583 84.78 253.409 84.5467 253.063 84.4C252.729 84.24 252.183 84.0667 251.423 83.88C250.636 83.6933 249.996 83.5067 249.503 83.32C249.009 83.1333 248.583 82.8467 248.223 82.46C247.863 82.06 247.683 81.5333 247.683 80.88C247.683 80.24 247.863 79.6867 248.223 79.22C248.583 78.74 249.069 78.3733 249.683 78.12C250.296 77.8667 250.969 77.74 251.703 77.74C252.569 77.74 253.343 77.92 254.023 78.28C254.716 78.64 255.249 79.1533 255.623 79.82L253.603 80.84C253.256 80.0933 252.623 79.72 251.703 79.72C251.236 79.72 250.863 79.82 250.583 80.02C250.303 80.2067 250.163 80.4667 250.163 80.8ZM262.214 77.74C263.174 77.74 264.034 77.98 264.794 78.46C265.568 78.9267 266.168 79.56 266.594 80.36C267.021 81.16 267.234 82.0467 267.234 83.02C267.234 83.34 267.208 83.6333 267.154 83.9H259.434C259.634 84.6067 259.988 85.16 260.494 85.56C261.001 85.9467 261.648 86.14 262.434 86.14C262.914 86.14 263.374 86.0333 263.814 85.82C264.268 85.6067 264.608 85.3333 264.834 85L266.734 86.12C266.268 86.8133 265.661 87.3467 264.914 87.72C264.181 88.08 263.334 88.26 262.374 88.26C261.308 88.26 260.361 88.0333 259.534 87.58C258.708 87.1267 258.068 86.5 257.614 85.7C257.174 84.9 256.954 84 256.954 83C256.954 82.0133 257.174 81.12 257.614 80.32C258.068 79.52 258.694 78.8933 259.494 78.44C260.294 77.9733 261.201 77.74 262.214 77.74ZM264.914 81.96C264.808 81.32 264.508 80.82 264.014 80.46C263.534 80.0867 262.928 79.9 262.194 79.9C261.688 79.9 261.221 79.9933 260.794 80.18C260.381 80.3667 260.048 80.62 259.794 80.94C259.541 81.26 259.408 81.6 259.394 81.96H264.914ZM272.166 84.58C272.166 85.0333 272.272 85.3467 272.486 85.52C272.699 85.6933 273.039 85.78 273.506 85.78C273.786 85.78 274.092 85.76 274.426 85.72V88C273.799 88.0667 273.279 88.1 272.866 88.1C271.799 88.1 270.999 87.86 270.466 87.38C269.946 86.8867 269.686 86.0067 269.686 84.74V80.22H267.806V78H269.686V75.54L272.166 74.7V78H274.386V80.22H272.166V84.58ZM280.154 84.58C280.154 85.0333 280.261 85.3467 280.474 85.52C280.687 85.6933 281.027 85.78 281.494 85.78C281.774 85.78 282.081 85.76 282.414 85.72V88C281.787 88.0667 281.267 88.1 280.854 88.1C279.787 88.1 278.987 87.86 278.454 87.38C277.934 86.8867 277.674 86.0067 277.674 84.74V80.22H275.794V78H277.674V75.54L280.154 74.7V78H282.374V80.22H280.154V84.58ZM285.689 76.34C285.222 76.34 284.856 76.2133 284.589 75.96C284.322 75.7067 284.189 75.36 284.189 74.92C284.189 74.4667 284.322 74.1133 284.589 73.86C284.856 73.6067 285.222 73.48 285.689 73.48C286.156 73.48 286.522 73.6067 286.789 73.86C287.056 74.1133 287.189 74.4667 287.189 74.92C287.189 75.3467 287.049 75.6933 286.769 75.96C286.502 76.2133 286.142 76.34 285.689 76.34ZM284.429 88V78H286.909V88H284.429ZM294.469 77.74C295.056 77.74 295.649 77.8667 296.249 78.12C296.863 78.36 297.383 78.8 297.809 79.44C298.249 80.08 298.469 80.94 298.469 82.02V88H295.989V82.02C295.989 81.2733 295.776 80.74 295.349 80.42C294.936 80.0867 294.449 79.92 293.889 79.92C293.329 79.92 292.849 80.12 292.449 80.52C292.063 80.9067 291.869 81.5333 291.869 82.4V88H289.389V78H291.869V78.84C292.229 78.5067 292.629 78.24 293.069 78.04C293.509 77.84 293.976 77.74 294.469 77.74ZM308.304 78H310.784V87.5C310.784 88.4467 310.544 89.28 310.064 90C309.597 90.72 308.944 91.2733 308.104 91.66C307.264 92.06 306.324 92.26 305.284 92.26C304.124 92.26 303.071 92.0333 302.124 91.58C301.177 91.14 300.511 90.56 300.124 89.84L302.244 88.62C302.444 89.0067 302.817 89.3267 303.364 89.58C303.911 89.8467 304.571 89.98 305.344 89.98C306.197 89.98 306.904 89.7467 307.464 89.28C308.024 88.8267 308.304 88.2333 308.304 87.5V87.04C307.851 87.44 307.344 87.7467 306.784 87.96C306.224 88.1733 305.644 88.28 305.044 88.28C304.031 88.28 303.144 88.0533 302.384 87.6C301.624 87.1467 301.037 86.52 300.624 85.72C300.224 84.92 300.024 84.02 300.024 83.02C300.024 82.02 300.224 81.12 300.624 80.32C301.037 79.52 301.624 78.8933 302.384 78.44C303.144 77.9733 304.031 77.74 305.044 77.74C305.644 77.74 306.217 77.8533 306.764 78.08C307.324 78.2933 307.837 78.5933 308.304 78.98V78ZM305.364 85.9C305.911 85.9 306.404 85.78 306.844 85.54C307.297 85.2867 307.651 84.94 307.904 84.5C308.171 84.06 308.304 83.56 308.304 83C308.304 82.16 308.017 81.4733 307.444 80.94C306.884 80.4067 306.191 80.14 305.364 80.14C304.524 80.14 303.831 80.4133 303.284 80.96C302.751 81.4933 302.484 82.18 302.484 83.02C302.484 83.86 302.751 84.5533 303.284 85.1C303.831 85.6333 304.524 85.9 305.364 85.9ZM315.104 80.8C315.104 81.08 315.257 81.2933 315.564 81.44C315.884 81.5733 316.384 81.7133 317.064 81.86C317.837 82.02 318.484 82.2 319.004 82.4C319.524 82.6 319.971 82.92 320.344 83.36C320.731 83.7867 320.924 84.3667 320.924 85.1C320.924 85.7533 320.724 86.32 320.324 86.8C319.937 87.28 319.417 87.6467 318.764 87.9C318.111 88.14 317.397 88.26 316.624 88.26C315.571 88.26 314.664 88.06 313.904 87.66C313.157 87.26 312.604 86.6867 312.244 85.94L314.284 84.88C314.644 85.8 315.424 86.26 316.624 86.26C317.144 86.26 317.591 86.16 317.964 85.96C318.337 85.76 318.524 85.4733 318.524 85.1C318.524 84.78 318.351 84.5467 318.004 84.4C317.671 84.24 317.124 84.0667 316.364 83.88C315.577 83.6933 314.937 83.5067 314.444 83.32C313.951 83.1333 313.524 82.8467 313.164 82.46C312.804 82.06 312.624 81.5333 312.624 80.88C312.624 80.24 312.804 79.6867 313.164 79.22C313.524 78.74 314.011 78.3733 314.624 78.12C315.237 77.8667 315.911 77.74 316.644 77.74C317.511 77.74 318.284 77.92 318.964 78.28C319.657 78.64 320.191 79.1533 320.564 79.82L318.544 80.84C318.197 80.0933 317.564 79.72 316.644 79.72C316.177 79.72 315.804 79.82 315.524 80.02C315.244 80.2067 315.104 80.4667 315.104 80.8Z" fill="#E6E8EB"/>
</svg>
