<svg width="242" height="33" viewBox="0 0 242 33" fill="none" xmlns="http://www.w3.org/2000/svg">
<path d="M48.8826 11.3894C49.718 11.3894 50.563 11.5698 51.4174 11.9305C52.2718 12.2723 53.0028 12.8989 53.6104 13.8103C54.237 14.7216 54.5503 15.9463 54.5503 17.4843V26H51.0471V17.4843C51.0471 16.421 50.7433 15.6615 50.1358 15.2058C49.5472 14.7311 48.8541 14.4938 48.0567 14.4938C47.3731 14.4938 46.775 14.7026 46.2624 15.1204C45.7497 15.5191 45.4175 16.1647 45.2656 17.0571V17.4843V26H41.7624V17.4843C41.7624 16.421 41.4586 15.6615 40.851 15.2058C40.2624 14.7311 39.5599 14.4938 38.7435 14.4938C38.0979 14.4938 37.5093 14.6932 36.9777 15.0919C36.465 15.4906 36.1327 16.1267 35.9808 17.0001V26H32.4492V11.7596H35.9808V12.8704C36.4555 12.4147 36.9967 12.0539 37.6042 11.7881C38.2308 11.5223 38.8954 11.3894 39.5979 11.3894C40.4713 11.3894 41.3542 11.5793 42.2466 11.959C43.139 12.3387 43.851 12.9748 44.3827 13.8672C44.8763 13.1647 45.5219 12.5761 46.3193 12.1014C47.1168 11.6267 47.9712 11.3894 48.8826 11.3894ZM59.7211 9.39574C59.0565 9.39574 58.5344 9.21536 58.1546 8.85461C57.7749 8.49385 57.585 8.00018 57.585 7.37361C57.585 6.72805 57.7749 6.22489 58.1546 5.86413C58.5344 5.50338 59.0565 5.323 59.7211 5.323C60.3856 5.323 60.9078 5.50338 61.2875 5.86413C61.6673 6.22489 61.8571 6.72805 61.8571 7.37361C61.8571 7.9812 61.6578 8.47486 61.259 8.85461C60.8793 9.21536 60.3666 9.39574 59.7211 9.39574ZM57.9268 26V11.7596H61.4584V26H57.9268ZM72.2248 11.3894C73.0602 11.3894 73.9051 11.5698 74.7596 11.9305C75.633 12.2723 76.3735 12.8989 76.9811 13.8103C77.6076 14.7216 77.9209 15.9463 77.9209 17.4843V26H74.3893V17.4843C74.3893 16.421 74.0855 15.6615 73.4779 15.2058C72.8893 14.7311 72.1963 14.4938 71.3988 14.4938C70.6014 14.4938 69.9178 14.7786 69.3482 15.3482C68.7976 15.8988 68.5223 16.7912 68.5223 18.0254V26H64.9907V11.7596H68.5223V12.9558C69.0349 12.4812 69.6046 12.1014 70.2311 11.8166C70.8577 11.5318 71.5223 11.3894 72.2248 11.3894ZM85.4098 21.1298C85.4098 21.7754 85.5617 22.2216 85.8655 22.4684C86.1693 22.7152 86.6535 22.8386 87.318 22.8386C87.7167 22.8386 88.1534 22.8102 88.6281 22.7532V26C87.7357 26.0949 86.9952 26.1424 86.4066 26.1424C84.8877 26.1424 83.7484 25.8006 82.9889 25.1171C82.2484 24.4146 81.8782 23.1614 81.8782 21.3576V14.921H79.201V11.7596H81.8782V8.25651L85.4098 7.06032V11.7596H88.5712V14.921H85.4098V21.1298ZM93.2916 9.39574C92.6271 9.39574 92.1049 9.21536 91.7252 8.85461C91.3454 8.49385 91.1556 8.00018 91.1556 7.37361C91.1556 6.72805 91.3454 6.22489 91.7252 5.86413C92.1049 5.50338 92.6271 5.323 93.2916 5.323C93.9562 5.323 94.4783 5.50338 94.8581 5.86413C95.2378 6.22489 95.4277 6.72805 95.4277 7.37361C95.4277 7.9812 95.2283 8.47486 94.8296 8.85461C94.4498 9.21536 93.9372 9.39574 93.2916 9.39574ZM91.4973 26V11.7596H95.0289V26H91.4973ZM105.795 11.3894C106.631 11.3894 107.476 11.5698 108.33 11.9305C109.204 12.2723 109.944 12.8989 110.552 13.8103C111.178 14.7216 111.491 15.9463 111.491 17.4843V26H107.96V17.4843C107.96 16.421 107.656 15.6615 107.048 15.2058C106.46 14.7311 105.767 14.4938 104.969 14.4938C104.172 14.4938 103.488 14.7786 102.919 15.3482C102.368 15.8988 102.093 16.7912 102.093 18.0254V26H98.5612V11.7596H102.093V12.9558C102.605 12.4812 103.175 12.1014 103.802 11.8166C104.428 11.5318 105.093 11.3894 105.795 11.3894ZM125.496 11.7596H129.028V25.288C129.028 26.6361 128.686 27.8228 128.003 28.8481C127.338 29.8734 126.408 30.6613 125.212 31.212C124.015 31.7816 122.677 32.0664 121.196 32.0664C119.544 32.0664 118.044 31.7436 116.696 31.098C115.348 30.4715 114.398 29.6455 113.848 28.6202L116.867 26.8829C117.152 27.4335 117.683 27.8892 118.462 28.25C119.24 28.6297 120.18 28.8196 121.281 28.8196C122.496 28.8196 123.503 28.4873 124.3 27.8228C125.098 27.1772 125.496 26.3323 125.496 25.288V24.6329C124.851 25.2025 124.129 25.6392 123.332 25.943C122.534 26.2468 121.708 26.3987 120.854 26.3987C119.411 26.3987 118.148 26.0759 117.066 25.4304C115.984 24.7848 115.148 23.8924 114.56 22.7532C113.99 21.614 113.705 20.3323 113.705 18.9083C113.705 17.4843 113.99 16.2026 114.56 15.0634C115.148 13.9242 115.984 13.0318 117.066 12.3862C118.148 11.7217 119.411 11.3894 120.854 11.3894C121.708 11.3894 122.525 11.5508 123.303 11.8736C124.101 12.1774 124.832 12.6046 125.496 13.1552V11.7596ZM121.31 23.0095C122.088 23.0095 122.791 22.8386 123.417 22.4969C124.063 22.1361 124.566 21.6424 124.927 21.0159C125.307 20.3893 125.496 19.6773 125.496 18.8798C125.496 17.6836 125.088 16.7058 124.272 15.9463C123.474 15.1868 122.487 14.8071 121.31 14.8071C120.114 14.8071 119.126 15.1963 118.348 15.9748C117.588 16.7343 117.209 17.7121 117.209 18.9083C117.209 20.1045 117.588 21.0918 118.348 21.8703C119.126 22.6298 120.114 23.0095 121.31 23.0095ZM148.149 11.3894C149.592 11.3894 150.855 11.7122 151.937 12.3577C153.038 13.0033 153.874 13.8957 154.443 15.0349C155.032 16.1742 155.326 17.4558 155.326 18.8798C155.326 20.3039 155.032 21.5855 154.443 22.7247C153.874 23.8639 153.038 24.7658 151.937 25.4304C150.855 26.0759 149.592 26.3987 148.149 26.3987C147.295 26.3987 146.469 26.2468 145.671 25.943C144.893 25.6203 144.171 25.1741 143.507 24.6044V31.6961H139.975V11.7596H143.507V13.1552C144.152 12.5856 144.874 12.1489 145.671 11.8451C146.469 11.5413 147.295 11.3894 148.149 11.3894ZM147.722 22.981C148.899 22.981 149.867 22.6013 150.627 21.8418C151.405 21.0633 151.795 20.076 151.795 18.8798C151.795 17.6836 151.405 16.7058 150.627 15.9463C149.867 15.1678 148.899 14.7786 147.722 14.7786C146.943 14.7786 146.231 14.959 145.586 15.3197C144.94 15.6615 144.428 16.1457 144.048 16.7722C143.687 17.3988 143.507 18.1108 143.507 18.9083C143.507 20.1045 143.905 21.0823 144.703 21.8418C145.519 22.6013 146.526 22.981 147.722 22.981ZM166.179 11.4748L165.922 14.8071C165.808 14.7691 165.609 14.7501 165.324 14.7501C164.147 14.7501 163.169 15.0919 162.391 15.7754C161.631 16.459 161.252 17.3893 161.252 18.5665V26H157.72V11.7596H161.252V14.152C161.574 13.3925 162.125 12.7565 162.903 12.2438C163.682 11.7312 164.622 11.4748 165.723 11.4748H166.179ZM174.342 26.3987C172.994 26.3987 171.741 26.0665 170.583 25.4019C169.443 24.7184 168.532 23.807 167.849 22.6678C167.184 21.5095 166.852 20.2564 166.852 18.9083C166.852 17.5602 167.184 16.3166 167.849 15.1773C168.532 14.0191 169.443 13.1077 170.583 12.4432C171.741 11.7596 172.994 11.4179 174.342 11.4179C175.69 11.4179 176.934 11.7596 178.073 12.4432C179.231 13.1077 180.143 14.0191 180.807 15.1773C181.491 16.3166 181.833 17.5602 181.833 18.9083C181.833 20.2564 181.491 21.5095 180.807 22.6678C180.143 23.807 179.231 24.7184 178.073 25.4019C176.934 26.0665 175.69 26.3987 174.342 26.3987ZM174.314 22.8671C175.035 22.8671 175.7 22.6962 176.307 22.3545C176.915 21.9937 177.399 21.5095 177.76 20.902C178.121 20.2944 178.301 19.6298 178.301 18.9083C178.301 18.1868 178.121 17.5222 177.76 16.9147C177.399 16.3071 176.915 15.8229 176.307 15.4621C175.7 15.1014 175.035 14.921 174.314 14.921C173.592 14.921 172.928 15.1014 172.32 15.4621C171.712 15.8229 171.228 16.3071 170.868 16.9147C170.526 17.5222 170.355 18.1868 170.355 18.9083C170.355 19.6298 170.526 20.2944 170.868 20.902C171.228 21.5095 171.712 21.9937 172.32 22.3545C172.928 22.6962 173.592 22.8671 174.314 22.8671ZM196.875 23.2374C196.172 24.2057 195.289 24.9747 194.226 25.5443C193.163 26.1139 192.014 26.3987 190.78 26.3987C189.432 26.3987 188.179 26.0665 187.02 25.4019C185.881 24.7184 184.97 23.807 184.286 22.6678C183.622 21.5095 183.289 20.2564 183.289 18.9083C183.289 17.5602 183.622 16.3166 184.286 15.1773C184.97 14.0191 185.881 13.1077 187.02 12.4432C188.179 11.7596 189.432 11.4179 190.78 11.4179C191.995 11.4179 193.134 11.7027 194.197 12.2723C195.261 12.8229 196.144 13.5729 196.846 14.5223L193.941 16.4874C193.049 15.4431 191.995 14.921 190.78 14.921C190.058 14.921 189.394 15.1014 188.786 15.4621C188.179 15.8229 187.694 16.3071 187.334 16.9147C186.973 17.5222 186.792 18.1868 186.792 18.9083C186.792 19.6298 186.973 20.2944 187.334 20.902C187.694 21.5095 188.179 21.9937 188.786 22.3545C189.394 22.6962 190.058 22.8671 190.78 22.8671C191.995 22.8671 193.049 22.345 193.941 21.3007L196.875 23.2374ZM205.493 11.3894C206.86 11.3894 208.085 11.7312 209.167 12.4147C210.268 13.0792 211.123 13.9811 211.73 15.1204C212.338 16.2596 212.642 17.5222 212.642 18.9083C212.642 19.364 212.604 19.7817 212.528 20.1615H201.534C201.819 21.1678 202.322 21.9557 203.044 22.5254C203.765 23.076 204.686 23.3513 205.806 23.3513C206.49 23.3513 207.145 23.1994 207.771 22.8956C208.417 22.5918 208.901 22.2026 209.224 21.7279L211.93 23.3228C211.265 24.3101 210.401 25.0696 209.338 25.6013C208.294 26.1139 207.088 26.3702 205.721 26.3702C204.202 26.3702 202.854 26.0475 201.677 25.4019C200.499 24.7563 199.588 23.8639 198.942 22.7247C198.316 21.5855 198.003 20.3039 198.003 18.8798C198.003 17.4748 198.316 16.2026 198.942 15.0634C199.588 13.9242 200.48 13.0318 201.62 12.3862C202.759 11.7217 204.05 11.3894 205.493 11.3894ZM209.338 17.3988C209.186 16.4874 208.759 15.7754 208.056 15.2628C207.373 14.7311 206.509 14.4653 205.464 14.4653C204.743 14.4653 204.078 14.5982 203.471 14.864C202.882 15.1299 202.408 15.4906 202.047 15.9463C201.686 16.402 201.496 16.8862 201.477 17.3988H209.338ZM217.952 15.7469C217.952 16.1457 218.17 16.4495 218.607 16.6583C219.063 16.8482 219.775 17.0476 220.743 17.2564C221.844 17.4843 222.765 17.7406 223.506 18.0254C224.246 18.3102 224.882 18.7659 225.414 19.3925C225.965 20.0001 226.24 20.826 226.24 21.8703C226.24 22.8007 225.955 23.6076 225.385 24.2912C224.835 24.9747 224.094 25.4968 223.164 25.8576C222.234 26.1994 221.218 26.3702 220.116 26.3702C218.616 26.3702 217.325 26.0854 216.243 25.5158C215.18 24.9462 214.392 24.1298 213.879 23.0665L216.784 21.557C217.297 22.8671 218.408 23.5222 220.116 23.5222C220.857 23.5222 221.493 23.3798 222.025 23.095C222.556 22.8102 222.822 22.4019 222.822 21.8703C222.822 21.4146 222.575 21.0823 222.082 20.8735C221.607 20.6456 220.828 20.3988 219.746 20.133C218.626 19.8672 217.715 19.6013 217.012 19.3355C216.31 19.0697 215.702 18.6615 215.189 18.1108C214.677 17.5412 214.42 16.7912 214.42 15.8609C214.42 14.9495 214.677 14.1615 215.189 13.497C215.702 12.8134 216.395 12.2913 217.268 11.9305C218.142 11.5698 219.101 11.3894 220.145 11.3894C221.379 11.3894 222.48 11.6457 223.449 12.1584C224.436 12.671 225.196 13.402 225.727 14.3514L222.851 15.8039C222.357 14.7406 221.455 14.209 220.145 14.209C219.48 14.209 218.949 14.3514 218.55 14.6362C218.151 14.902 217.952 15.2723 217.952 15.7469ZM231.664 15.7469C231.664 16.1457 231.882 16.4495 232.319 16.6583C232.775 16.8482 233.487 17.0476 234.455 17.2564C235.556 17.4843 236.477 17.7406 237.218 18.0254C237.958 18.3102 238.594 18.7659 239.126 19.3925C239.676 20.0001 239.952 20.826 239.952 21.8703C239.952 22.8007 239.667 23.6076 239.097 24.2912C238.547 24.9747 237.806 25.4968 236.876 25.8576C235.945 26.1994 234.93 26.3702 233.828 26.3702C232.328 26.3702 231.037 26.0854 229.955 25.5158C228.892 24.9462 228.104 24.1298 227.591 23.0665L230.496 21.557C231.009 22.8671 232.12 23.5222 233.828 23.5222C234.569 23.5222 235.205 23.3798 235.737 23.095C236.268 22.8102 236.534 22.4019 236.534 21.8703C236.534 21.4146 236.287 21.0823 235.794 20.8735C235.319 20.6456 234.54 20.3988 233.458 20.133C232.338 19.8672 231.427 19.6013 230.724 19.3355C230.021 19.0697 229.414 18.6615 228.901 18.1108C228.389 17.5412 228.132 16.7912 228.132 15.8609C228.132 14.9495 228.389 14.1615 228.901 13.497C229.414 12.8134 230.107 12.2913 230.98 11.9305C231.854 11.5698 232.813 11.3894 233.857 11.3894C235.091 11.3894 236.192 11.6457 237.161 12.1584C238.148 12.671 238.907 13.402 239.439 14.3514L236.563 15.8039C236.069 14.7406 235.167 14.209 233.857 14.209C233.192 14.209 232.661 14.3514 232.262 14.6362C231.863 14.902 231.664 15.2723 231.664 15.7469Z" fill="#E6E8EB"/>
<path d="M9.43768 9H10.5391L11.1768 9.02319L11.942 9.06957L12.5913 9.12754L13.1826 9.1971L13.8551 9.30145L14.3536 9.3942L14.8406 9.49855L15.4899 9.66087L15.7681 9.74203L16.2435 9.89275L16.6957 10.0551L17.0435 10.1942L17.3449 10.3217L17.7275 10.4957L18.2377 10.7739L18.4812 10.9246L18.6203 11.0174L18.8174 11.1565L18.9333 11.2493L19.0609 11.3536L19.2 11.4812L19.3971 11.6783L19.5014 11.8058L19.629 11.9797L19.7333 12.1536L19.8377 12.3739L19.9072 12.5826L19.942 12.7217L19.9652 12.8957L19.9768 13.1043V21.7304L19.9536 21.9971L19.9072 22.2174L19.8377 22.4145L19.7217 22.658L19.5826 22.8667L19.4203 23.0638L19.3391 23.1449L19.3275 23.1681H19.3043V23.1913H19.2812V23.2145H19.258V23.2377L19.1652 23.3188L19.0261 23.4464L18.7942 23.6203L18.4464 23.8522L18.2725 23.9565L18.029 24.0957L17.8087 24.2L17.6116 24.3043L17.2522 24.4667L16.7652 24.6638L16.4174 24.7913L16.0116 24.9304L15.513 25.0812L14.9333 25.2319L14.3536 25.3594L13.9246 25.4406L13.4493 25.5217L12.9275 25.5913L12.4174 25.6493L11.8957 25.6957L11.258 25.742L11.0145 25.7536L10.9217 25.7652H8.84638V25.7536L7.7913 25.6725L7.10725 25.6029L6.67826 25.5449L6.14493 25.4638L5.6 25.3594L5.06667 25.2435L4.52174 25.1043L4.01159 24.9536L3.5942 24.8145L3.26957 24.6986L2.94493 24.571L2.53913 24.3971L2.2029 24.2348L1.90145 24.0841L1.62319 23.9217L1.43768 23.8058L1.29855 23.713L1.13623 23.5971L0.973913 23.4696L0.8 23.3188L0.533333 23.0522L0.405797 22.8899L0.313043 22.7623L0.185507 22.542L0.115942 22.3797L0.0463768 22.1594L0.0115942 21.9623L0 21.8232V13.0116L0.0231884 12.7565L0.0695652 12.5594L0.13913 12.3507L0.231884 12.1652L0.324638 12.0029L0.486957 11.7826L0.602899 11.6551L0.684058 11.5623L0.823188 11.4232L0.915942 11.342L1.10145 11.1913L1.31015 11.0406L1.50725 10.913L1.75072 10.7623L2.06377 10.5884L2.43478 10.4029L2.72464 10.2754L3.11884 10.113L3.43188 9.9971L3.90725 9.83478L4.37101 9.69565L4.85797 9.56812L5.35652 9.45217L5.8087 9.35942L6.42319 9.25507L6.9913 9.17391L7.64058 9.10435L8.2087 9.05797L8.57971 9.03478L9.43768 9ZM9.44928 9.48696L8.68406 9.51014L7.94203 9.55652L7.29275 9.61449L6.71304 9.68406L6.16812 9.76522L5.6 9.86957L4.98551 10.0087L4.46377 10.1478L4.16232 10.2406L3.69855 10.3913L3.31594 10.5304L2.97971 10.6696L2.64348 10.8203L2.37681 10.9478L2.13333 11.0754L1.87826 11.2261L1.71594 11.3304L1.51884 11.4696L1.35652 11.5971L1.1942 11.7362L1.03188 11.8986L0.927536 12.0261L0.8 12.2L0.707246 12.3507L0.614493 12.5594L0.556522 12.7797L0.533333 12.942V13.1971L0.568116 13.4058L0.637681 13.6145L0.765217 13.858L0.881159 14.0203L1.03188 14.1942L1.2058 14.3681L1.32174 14.4609L1.48406 14.5884L1.7971 14.7971L2.05217 14.9478L2.36522 15.1101L2.67826 15.2609L3.08406 15.4348L3.54783 15.6087L4.06957 15.7826L4.54493 15.9217L4.98551 16.0377L5.50725 16.1536L5.98261 16.2464L6.37681 16.3159L7.04928 16.4087L7.68696 16.4783L8.25507 16.5246L8.95072 16.5594L9.29855 16.571H10.713L11.3623 16.5478L12.0696 16.5014L12.6841 16.4435L13.3333 16.3623L13.9826 16.258L14.5275 16.1536L15.0377 16.0377L15.5594 15.8986L16.058 15.7478L16.429 15.6203L16.858 15.458L17.2986 15.2725L17.6928 15.087L17.971 14.9362L18.1681 14.8203L18.4464 14.6348L18.6319 14.4957L18.7942 14.3565L18.9565 14.2058L19.0377 14.113L19.1536 13.9739L19.2812 13.7652L19.3739 13.5681L19.4435 13.3246L19.4551 13.2435V12.8957L19.4087 12.6522L19.3275 12.4319L19.2116 12.2116L19.0957 12.0493L18.9681 11.8986L18.887 11.8058L18.7942 11.7246L18.6435 11.5855L18.458 11.4464L18.2725 11.3188L18.0522 11.1797L17.7855 11.029L17.3449 10.8087L16.9971 10.658L16.5217 10.4725L16.0928 10.3217L15.6406 10.1826L15.1304 10.0435L14.5855 9.91594L13.9942 9.8L13.4029 9.70725L12.9623 9.64928L12.5333 9.6029L11.8377 9.54493L11.2348 9.51014L10.5391 9.48696H9.44928ZM0.533333 14.3565V17.5333L0.568116 17.7536L0.649275 17.9739L0.765217 18.1942L0.881159 18.3565L1.0087 18.5072L1.22899 18.7275L1.34493 18.8203L1.55362 18.9826L1.68116 19.0638L1.92464 19.2145L2.13333 19.3304L2.44638 19.4928L2.74783 19.6319L3.16522 19.8058L3.57101 19.9565L3.97681 20.0957L4.32464 20.2L4.66087 20.2928L5.17101 20.4203L5.71594 20.5362L6.21449 20.629L7.01449 20.7449L7.65217 20.8145L8.2087 20.8609L8.83478 20.8957L9.10145 20.9072L9.64638 20.9188H10.3536L10.8986 20.9072L11.6174 20.8725L12.1159 20.8377L12.6145 20.7913L13.2058 20.7217L13.7623 20.6406L14.2725 20.5478L14.7826 20.4435L15.4319 20.2812L15.8725 20.1536L16.3362 20.0029L16.7188 19.8638L17.113 19.7014L17.3217 19.6087L17.6464 19.458L17.971 19.2841L18.2029 19.1449L18.4116 19.0058L18.5391 18.913L18.7015 18.7855L18.829 18.6696L18.8638 18.6464V18.6232L18.9101 18.6L19.0377 18.4609L19.1304 18.3449L19.2464 18.171L19.3507 17.9739L19.4203 17.7652L19.4551 17.5681V14.3797L19.3739 14.4493L19.142 14.6812L19.0145 14.7855L18.8754 14.9014L18.6551 15.0638L18.4232 15.2145L18.1681 15.3652L17.913 15.5043L17.7391 15.5971L17.4725 15.7246L17.113 15.8754L16.7188 16.0261L16.1739 16.2116L15.629 16.3739L14.887 16.5594L14.2957 16.687L13.7855 16.7797L13.1594 16.8725L12.5797 16.942L11.9536 17L11.2232 17.0464L10.9913 17.058L10.5739 17.0696H9.33333L8.74203 17.0464L8.13913 17.0116L7.48986 16.9536L6.88696 16.8841L6.16812 16.7797L5.65797 16.687L4.92754 16.5246L4.38261 16.3855L3.87246 16.2348L3.44348 16.0957L2.96812 15.9217L2.63188 15.7826L2.16812 15.5623L1.91304 15.4232L1.66957 15.2841L1.28696 15.029L1.08986 14.8783L0.962319 14.7739L0.811594 14.6348L0.718841 14.5536L0.637681 14.4725L0.614493 14.4377H0.591304L0.568116 14.3913L0.533333 14.3565ZM0.533333 18.7043V21.8696L0.568116 22.0899L0.637681 22.287L0.730435 22.4725L0.811594 22.6L0.915942 22.7391L1.02029 22.8551L1.25217 23.087L1.36812 23.1797L1.58841 23.342L1.78551 23.4696L1.95942 23.5739L2.27246 23.7478L2.58551 23.8986L2.7942 23.9913L3.18841 24.1536L3.48986 24.2696L3.90725 24.4087L4.1971 24.5014L4.6029 24.6174L5.25217 24.7797L5.8087 24.8957L6.1913 24.9652L6.89855 25.0696L7.37391 25.1275L8.13913 25.1971L8.76522 25.2319L9.4029 25.2551H10.5391L11.258 25.2319L11.8609 25.1971L12.429 25.1507L13.0667 25.0812L13.6348 25L14.1797 24.9072L14.7942 24.7797L15.2232 24.6754L15.6522 24.5594L16.0696 24.4319L16.5449 24.2696L16.9275 24.1188L17.1478 24.0261L17.4609 23.887L17.8551 23.6899L18.1333 23.5275L18.3304 23.4L18.5623 23.2377L18.7594 23.0754L18.8986 22.9478L18.9913 22.8551V22.8319H19.0145L19.1304 22.6812L19.2696 22.4725L19.3391 22.3333L19.4087 22.1362L19.4435 21.9971L19.4551 21.9043V18.7043L19.4087 18.7275L19.3043 18.8319V18.8551L19.258 18.8783V18.9014L19.2116 18.9246V18.9478L19.1652 18.971V18.9942L19.1188 19.0174L19.0377 19.0985L18.9101 19.2029L18.7594 19.3188L18.5971 19.4348L18.4 19.5623L18.1101 19.7362L17.7855 19.9101L17.6 20.0029L17.2406 20.1652L16.7884 20.3391L16.2899 20.513L15.9188 20.629L15.5014 20.7449L14.8058 20.9188L14.2493 21.0348L13.7971 21.1159L13.2754 21.1971L12.7072 21.2667L12.2551 21.313L11.6754 21.3594L11.0493 21.3942L10.771 21.4058L10.2957 21.4174H9.66957L8.91594 21.3942L8.27826 21.3594L7.69855 21.313L7.14203 21.2551L6.52754 21.1739L5.94783 21.0812L5.32174 20.9536L4.74203 20.8145L4.30145 20.6986L3.84928 20.5594L3.42029 20.4203L3.01449 20.2696L2.5971 20.0957L2.36522 19.9913L1.94783 19.7826L1.63478 19.5971L1.44928 19.4812L1.25217 19.342L1.10145 19.2261L0.985507 19.1333L0.869565 19.029L0.776812 18.9478L0.568116 18.7391L0.533333 18.7043Z" fill="white"/>
<path d="M9.34509 9.97412H10.632L11.2118 9.99731L11.8726 10.0437L12.4291 10.1017L12.9509 10.1712L13.4842 10.264L14.0291 10.3799L14.5161 10.5075L14.9451 10.635L15.3973 10.7973L15.7335 10.9364L15.9886 11.0524L16.2089 11.1683L16.3828 11.2611L16.5567 11.3654L16.7886 11.5277L16.9045 11.6205L17.0784 11.7712L17.1828 11.8872L17.3103 12.0611L17.4031 12.235L17.461 12.3973L17.4842 12.4901L17.4958 12.5944V12.7451L17.461 12.9306L17.3915 13.1161L17.2987 13.2785L17.1828 13.4292L16.9509 13.6611L16.7306 13.8234L16.4639 13.9973L16.1741 14.1596L15.861 14.3104L15.4436 14.4843L15.0958 14.6118L14.6205 14.7625L14.2378 14.8669L13.7393 14.9828L13.3219 15.064L12.7538 15.1567L12.3132 15.2147L11.7335 15.2727L11.2465 15.3075L10.7132 15.3306H9.25234L8.68422 15.3075L8.06973 15.2611L7.46683 15.1915L6.97987 15.1219L6.45813 15.0292L5.97118 14.9248L5.48422 14.7973L5.03205 14.6582L4.60306 14.5075L4.25523 14.3683L3.96538 14.2408L3.61755 14.0669L3.38567 13.9277L3.24654 13.835L3.10741 13.7306L2.95668 13.6031L2.78277 13.4292L2.65523 13.2553L2.53929 13.035L2.49291 12.8727L2.46973 12.7104V12.606L2.50451 12.4089L2.57407 12.2118L2.67842 12.0263L2.79436 11.8756L3.03784 11.6321L3.26973 11.4582L3.46683 11.3306L3.75668 11.1683L4.06973 11.0176L4.35958 10.8901L4.80016 10.7277L5.21755 10.5886L5.70451 10.4495L6.19147 10.3335L6.65523 10.2408L7.07262 10.1712L7.55958 10.1017L8.1277 10.0437L8.78857 9.99731L9.34509 9.97412ZM9.70451 10.4031L8.96248 10.4263L8.38277 10.4611L7.77987 10.519L7.3161 10.577L6.86393 10.6466L6.37697 10.7393L5.9248 10.8437L5.44944 10.9712L4.99726 11.1104L4.59147 11.2611L4.29002 11.3886L4.00016 11.5277L3.76828 11.6553L3.59436 11.7712L3.49002 11.8524L3.3277 11.9915L3.21176 12.119L3.119 12.2582L3.03784 12.4437L3.01465 12.548V12.7915L3.04944 12.9306L3.14219 13.1161L3.23494 13.2437L3.45523 13.464L3.66393 13.6147L3.87262 13.7422L4.1277 13.8814L4.37118 13.9857L4.49871 14.0437L4.9277 14.206L5.29871 14.3219L5.62335 14.4147L6.08712 14.5306L6.64364 14.6466L7.21176 14.7393L7.73349 14.8089L8.19726 14.8553L8.85813 14.9017L9.47262 14.9248H10.4697L11.0842 14.9017L11.5944 14.8669L12.1857 14.8089L12.7074 14.7393L13.2639 14.6466L13.832 14.5306L14.4349 14.3799L14.7944 14.2756L15.2349 14.1248L15.5828 13.9857L15.7915 13.893L16.1161 13.7306L16.3712 13.5683L16.4987 13.4756L16.6378 13.3596V13.3364L16.6842 13.3133V13.2901L16.7306 13.2669L16.8349 13.1393L16.9045 13.0118L16.9509 12.8959L16.9857 12.7335V12.5944L16.9509 12.4205L16.9045 12.293L16.8349 12.1654L16.6958 11.9915H16.6726L16.6494 11.9451L16.5103 11.8176L16.3248 11.6901L16.1161 11.5625L15.8726 11.435L15.5828 11.3075L15.2813 11.1915L14.8176 11.0408L14.2726 10.8901L13.7045 10.7625L13.3451 10.693L12.9045 10.6234L12.3364 10.5422L11.8147 10.4843L11.1886 10.4379L10.7132 10.4147L10.2726 10.4031H9.70451Z" fill="white"/>
<path d="M9.66959 11.3652H10.2957L10.6783 11.4L11.0145 11.458L11.3276 11.5391L11.5826 11.6319L11.7565 11.7131L11.9305 11.8058L12.1044 11.9334L12.2203 12.0377L12.3363 12.2L12.3942 12.3391L12.429 12.5247L12.4174 12.6638L12.3826 12.7913L12.3015 12.9536L12.2087 13.0696L12.1276 13.1507L11.9305 13.2899L11.7681 13.3826L11.4667 13.5102L11.1652 13.6029L10.8986 13.6609L10.5623 13.7073L10.2957 13.7305H9.62321L9.15945 13.6841L8.80003 13.6145L8.52176 13.5334L8.27829 13.4406L8.058 13.3247L7.89568 13.2087L7.76814 13.0928L7.66379 12.9536L7.57104 12.7681L7.54785 12.6522V12.4667L7.58263 12.3276L7.66379 12.1652L7.75655 12.0493L7.88408 11.9334L8.058 11.8174L8.32466 11.6783L8.54495 11.5855L8.83481 11.4928L9.15945 11.4232L9.51887 11.3768L9.66959 11.3652ZM9.82032 11.7942L9.46089 11.8174L9.18263 11.8522L8.86959 11.9218L8.59133 12.0145L8.40582 12.0957L8.23191 12.2116L8.13916 12.3044L8.08118 12.3971L8.058 12.4783V12.6058L8.10437 12.7334L8.18553 12.8377L8.28988 12.9189L8.41742 13L8.63771 13.0928L8.90437 13.1739L9.15945 13.2319L9.48408 13.2783L9.83191 13.3015H10.1334L10.5044 13.2783L10.7826 13.2435L11.0609 13.1855L11.258 13.1276L11.4551 13.058L11.6754 12.942L11.8145 12.8377L11.8841 12.7449L11.9305 12.629V12.4667L11.8957 12.3623L11.8145 12.258L11.7218 12.1768L11.571 12.0841L11.3276 11.9797L11.0377 11.8986L10.7363 11.8406L10.3768 11.8058L10.1334 11.7942H9.82032Z" fill="white"/>
<path d="M16.7186 16.8262L16.7418 16.8378V19.1798L16.6954 19.2262L16.1389 19.4117L15.652 19.5624L15.5708 19.5856V17.1856L15.8954 17.0812L16.707 16.8378L16.7186 16.8262Z" fill="white"/>
<path d="M16.707 21.1743H16.7302L16.7418 21.4178V23.5279L16.707 23.5627L16.2896 23.7019L15.7795 23.8642L15.5708 23.9221V21.5337L15.6636 21.499L16.2201 21.3366L16.6838 21.1859L16.707 21.1743Z" fill="white"/>
<path d="M18.5972 15.8989H18.6204L18.632 15.9801L18.6204 18.2178L18.5624 18.2757L18.4117 18.4033L18.2378 18.5192L17.9943 18.6583L17.7624 18.7743L17.6349 18.8439H17.6001V16.4902L17.6929 16.4323L17.8784 16.3395L18.0986 16.2236L18.3305 16.0844L18.5044 15.9685L18.5972 15.8989Z" fill="white"/>
<path d="M18.5972 20.2349H18.6204L18.632 20.2812L18.6204 22.5537L18.4929 22.6581L18.261 22.8088L18.0291 22.9479L17.6929 23.145L17.6349 23.1798H17.6001V20.8262L17.6929 20.7682L17.8784 20.6754L18.1682 20.5247L18.4465 20.3508L18.5972 20.2349Z" fill="white"/>
<path d="M14.8636 17.3711L14.8984 17.3827V19.7595L14.8404 19.7827L14.052 19.9218L13.9476 19.9334L13.936 19.9218V17.5914L13.9708 17.5566L14.8288 17.3827L14.8636 17.3711Z" fill="white"/>
<path d="M14.852 21.7192L14.8984 21.7308V24.0961L14.8636 24.1192L14.0636 24.2584L13.9476 24.27L13.936 24.2584V21.9163L14.0404 21.8816L14.852 21.7192Z" fill="white"/>
<path d="M3.40857 21.2207L3.81436 21.3482L4.3361 21.5222L4.35929 21.5801V23.899L4.24335 23.8642L3.90712 23.783L3.42016 23.6323L3.39697 23.6091V21.2323L3.40857 21.2207Z" fill="white"/>
<path d="M3.40857 16.8843L3.75639 16.9886L4.31291 17.1741L4.3477 17.1973L4.35929 17.2901V19.5509L4.28973 19.5393L4.08103 19.4698L3.46654 19.2959L3.39697 19.2727V16.8959L3.40857 16.8843Z" fill="white"/>
<path d="M1.55371 20.3975L1.61168 20.4206L1.76241 20.5134L2.09864 20.6873L2.43487 20.838L2.50444 20.8728L2.51603 20.8844L2.52762 23.2149L2.50444 23.2496L2.34212 23.1569L2.12183 23.0409L1.84357 22.8786L1.56531 22.7047L1.55371 22.6815V20.3975Z" fill="white"/>
<path d="M1.55371 16.0728L1.61168 16.0843L1.87835 16.2467L2.06386 16.3394L2.36531 16.467L2.50444 16.5249L2.51603 16.5365V18.9017L2.45806 18.8786L2.08704 18.6814L1.774 18.4959L1.58849 18.38L1.55371 18.3452V16.0728Z" fill="white"/>
<path d="M5.71618 17.4985L5.82053 17.5101L6.493 17.6261L6.51618 17.6377L6.52778 17.6724L6.51618 20.0029L6.36546 19.9913L5.76256 19.8985L5.71618 19.8869L5.70459 19.8638V17.5217L5.71618 17.4985Z" fill="white"/>
<path d="M5.71618 21.835L5.80894 21.8466L6.46981 21.9625L6.51618 21.9741L6.52778 24.3277L6.51618 24.3509L6.26111 24.3161L5.72778 24.235L5.70459 24.2118V21.8581L5.71618 21.835Z" fill="white"/>
<path d="M13.0783 17.6841L13.1247 17.6957L13.1363 17.7073V20.0493L13.1247 20.0725L12.9972 20.0957L12.4406 20.1652H12.3363L12.3247 19.516V18.6348L12.3363 17.7884L12.4175 17.7652L13.0783 17.6841Z" fill="white"/>
<path d="M13.0899 22.0205H13.1247L13.1363 24.3741L13.1247 24.4089L13.0204 24.4321L12.3827 24.5133L12.3363 24.5017L12.3247 23.8176V22.9828L12.3363 22.1249L12.3479 22.1133L13.0899 22.0205Z" fill="white"/>
<path d="M19.9883 13.1626H19.9999V21.522H19.9883V13.1626Z" fill="white"/>
</svg>
