<svg width="550" height="74" viewBox="0 0 550 74" fill="none" xmlns="http://www.w3.org/2000/svg">
<rect width="550" height="74" rx="37" fill="white"/>
<path d="M56.4814 16L57.5965 16.0656L58.3181 16.328L59.0396 16.7871L59.4332 17.1151L59.8923 17.771L60.2859 18.8205L60.4171 19.4765V20.0668L60.1547 21.1163L59.8267 21.9691L59.302 22.8874L58.9084 23.4777L58.8428 23.6745L60.0891 23.8713L61.073 24.1337L61.729 24.4616L62.3193 24.9208L62.9097 25.5767L63.3688 26.5606L63.5 26.9542V28.0693L62.8441 30.9554L62.5161 32.4641L62.2537 33.5136L61.7946 35.4158L61.2042 37.974L60.7451 40.0074L60.0891 42.828L59.0396 47.2228L58.7772 48.4035L58.5804 48.9938L58.0557 51.2896L57.6621 53.1262L57.3342 54.7005L57.0062 55.4876L56.6782 56.0124L56.0879 56.6683L55.5631 57.0619L54.6448 57.521L54.1201 57.5866H53.4641L52.4802 57.3899L51.1683 57.0619L49.3317 56.6683L47.2327 56.1436L45.724 55.8156L43.297 55.2253L41.3292 54.7661L39.4926 54.3725L38.4431 53.8478L37.9183 53.3886L37.4592 52.7983L37.1312 52.0767L37 51.6832V50.5025L37.1968 49.5186L37.8527 46.8948L38.1807 45.3205L38.3775 44.5334L38.7054 43.0248L39.1646 40.9913L39.4926 39.6139L40.0173 37.1213L40.4765 35.2191L40.6733 34.3007L41.0668 32.6609L41.4604 31.0866L41.7228 29.8403L41.9851 28.7908L42.2475 27.479L42.5755 25.9703L42.8379 24.9208L43.1658 23.5433L43.6906 22.5594L44.0186 22.1658L44.6745 21.7067L45.5928 21.2475L46.5111 21.1819L47.4951 21.3131L49.5285 21.7067L51.3651 22.1002V21.7067L51.8899 20.0668L52.4146 18.8861L53.0705 17.9678L53.8577 17.1151L54.448 16.6559L55.3663 16.1968L55.8911 16.0656L56.4814 16ZM56.4158 17.5743L55.8255 17.7054L55.0384 18.1646L54.3824 18.755L53.9233 19.4109L53.3985 20.3948L52.8738 21.8379L52.8082 22.297L53.1361 22.4938L55.3007 22.953L56.1535 23.1498L57.203 23.2153L57.7933 22.4282L58.2525 21.6411L58.5804 20.854L58.8428 19.87V19.2797L58.4493 18.4926L58.1213 18.099L57.4653 17.7054L56.9406 17.5743H56.4158ZM46.052 22.7562L45.396 23.0842L45.0681 23.3465L44.6089 24.0025L44.4777 24.7896L44.1498 25.9047L43.8874 27.2822L43.5594 28.5285L43.2314 29.9715L42.3131 34.0384L41.9851 35.4814L41.526 37.4493L41.2636 38.5644L40.5421 41.5161L40.2141 43.0903L40.0173 43.9431L39.8205 44.927L39.5582 45.8453L39.1646 47.6163L38.5743 50.0433L38.5087 50.5025V51.0928L38.6399 51.6832L39.0334 52.3391L39.6894 52.7983L40.2797 52.9951L41.6572 53.323L43.2314 53.651L44.4777 53.979L45.6584 54.2413L48.3478 54.8973L49.8564 55.2253L50.6436 55.422L52.021 55.6844L53.2017 56.0124L53.9889 56.078L54.6448 55.8812L55.3007 55.3564L55.6943 54.7661L55.9567 53.7822L56.4158 51.7488L57.1374 48.6658L57.5965 46.698L57.9245 45.4517L58.5804 42.6312L59.4988 38.8923L59.8267 37.3181L60.2859 35.2847L60.7451 33.1856L61.0074 32.2673L61.5322 29.9059L61.9913 27.6757L61.9257 27.0198L61.5322 26.2983L61.2042 25.9047L60.8106 25.7079L59.4332 25.38L57.7933 25.052L56.4158 24.724L55.3007 24.5272L53.1361 24.0681L53.2673 24.9864L53.4641 25.4455L54.3824 25.9047L54.776 26.3639L54.8416 26.4951V27.5446L54.5792 28.0693L54.2512 28.3973L53.7265 28.7252L53.005 28.7908L52.5458 28.6597L51.9554 28.2005L51.5619 27.479L51.4963 26.6262L51.9554 25.7079L51.8243 24.9864L51.4963 23.7401L50.4468 23.4777L48.8069 23.1498L47.9542 23.0186L47.4295 22.8218L46.9047 22.7562H46.052Z" fill="black"/>
<path d="M48.7416 39.876L49.2663 39.9416L50.7094 40.2039L51.103 40.4663V40.9255L50.8406 41.5814L50.5782 41.7126L49.6599 41.647L49.3975 42.4341L49.1352 43.6148H49.6599L50.1847 43.8116L50.2503 43.9428V44.4676L50.1847 44.9923L50.5782 45.1235L50.8406 45.3859V46.1074L50.775 46.5666L51.5621 46.7634H51.6933L52.2181 44.4676L52.4149 43.8116L52.6772 43.746L53.3332 44.0084L53.3988 44.074V44.6643L53.2676 45.6483L53.9891 45.7794L54.2515 45.1235L54.3827 44.5987L55.0386 44.6643L55.3666 44.8611L55.4322 44.9923L55.2354 45.9106L54.9074 46.4354L54.1203 46.5666L53.9235 47.1569L53.7923 47.8785L53.8579 48.2064L54.3827 48.4688L54.4483 48.5344V49.2559L54.2515 50.2398L53.9891 50.7646L53.8579 50.8958L53.202 50.8302L52.874 50.5022L52.9396 49.7807L53.202 48.9936L53.1364 48.6656L52.6116 48.4032L52.4805 48.928L52.2181 49.3215H51.4965L50.5782 49.1247L50.2503 48.928L50.3159 48.0096L50.3814 47.7473L49.7255 47.6817L49.3975 47.6161L49.3319 48.2064L49.0696 48.6L48.6104 48.5344L48.1512 48.3376L48.0857 48.272V47.8129L48.1512 47.2881L47.2329 46.8289L47.1673 46.4354L47.2329 45.9106L47.1673 45.845L46.7082 45.7794L46.4458 45.5171V44.7955L46.7738 44.2708L47.3641 44.3364L48.6104 44.7299L48.7416 44.8611L48.676 46.0418L49.4631 46.2386H49.5943L49.7911 45.3203L48.8072 44.7299V44.2708L49.004 43.6148L48.0201 43.2213L47.9545 43.1557V42.6965L48.4136 40.7943L48.7416 39.876Z" fill="black"/>
<path d="M45.1336 46.3042L45.7239 46.3698L47.1014 46.829L47.2326 47.0913L47.1014 47.8785L47.0358 48.2064L47.8229 48.4032L48.0197 48.6656L47.8229 49.3215V49.5183L48.6756 49.6495L48.938 49.7807L49.1348 48.8624L49.2004 48.7968L49.7907 48.8624L50.1843 49.0591L50.1187 49.6495L50.0531 49.9775L50.6435 50.1742L51.8898 50.371L52.0865 50.6334V51.027L51.8242 51.6829L52.5457 51.8141L53.5296 52.0765L53.464 52.6012L53.2672 53.2572L53.136 53.3884L52.5457 53.3228L51.2994 52.9948L50.1843 52.7324L49.6596 52.5356L49.5284 52.2733L49.594 51.5517L49.6596 51.3549L48.938 51.2893L48.4133 51.1582V51.6173L48.1509 52.2733L47.5605 52.2077L47.167 52.0109V50.8302L47.3638 50.1742L47.4949 49.8463L47.1014 49.5183L46.7078 49.3215L46.6422 49.2559L46.7078 48.7312L46.7734 48.3376L45.7895 48.272L45.5271 48.928L45.3959 49.0591H44.5432L42.7066 48.7312L42.641 49.6495L43.9529 49.9119L45.1336 50.1087L45.2648 49.5183L45.3303 49.4527H45.8551L46.2487 49.7151L46.4454 49.9775L46.3798 50.371L46.0519 51.3549L45.7239 51.5517L44.9368 51.4861L43.5593 51.2238L42.4442 50.8958L41.5915 50.6334L41.1979 50.371L41.1323 50.3054V49.6495L41.4603 48.6L41.6571 47.7473L41.8539 47.3537L42.313 47.2881L43.7561 47.5505L44.5432 47.7473L44.6744 47.1569L45.0024 46.4354L45.1336 46.3042Z" fill="black"/>
<path d="M45.7242 29.1841L46.3801 29.2497L46.7737 29.4465L46.9705 29.9712L47.4952 32.7918L47.6264 33.3821V33.6445H47.7576L47.8232 33.0541L48.1511 31.8078L48.3479 30.8239L48.6759 29.9056L49.0039 29.84L49.7254 30.0368L49.8566 30.2336L49.7254 31.3487L49.2007 33.7101L48.5447 36.2682L48.2167 37.0554L48.1511 37.121H47.4952L47.036 36.9898L46.7737 36.3338L46.3801 34.3004L46.1833 33.5133L46.1177 33.0541L45.7898 34.1036L45.4618 35.6779L45.1338 36.465L45.0026 36.5962L44.2811 36.5306L44.0187 36.2682L43.9531 36.1371L44.0187 35.4155L44.2811 34.1692L44.5435 33.1197L44.7403 32.0702L45.0026 31.0863L45.265 29.5776L45.5274 29.2497L45.7242 29.1841Z" fill="black"/>
<path d="M51.1687 30.4312L51.8902 30.4967L52.8741 30.7591L53.9892 30.9559L54.3172 31.2839V31.8742L54.0548 32.4646L53.9236 32.5302L53.0709 32.4646L52.0214 32.2678L51.8246 32.8581L51.6934 33.7764L52.6117 33.9732L53.0053 34.2356V34.6948L52.7429 35.4163L52.6117 35.5475L51.8246 35.4163L51.4966 35.2851H51.2999L51.0375 36.1378L50.7095 37.5153L50.3159 37.7121L49.7256 37.6465L49.332 37.4497V36.7938L49.7256 35.2195L50.0536 33.842L50.5127 31.9398L50.7751 30.8247L51.0375 30.4967L51.1687 30.4312Z" fill="black"/>
<path d="M56.8366 32L57.5582 32.0656L58.5421 32.328L59.6572 32.5248L59.9851 32.8527V33.4431L59.7228 34.0334L59.5916 34.099L58.7389 34.0334L57.6894 33.8366L57.4926 34.427L57.3614 35.3453L56.5 35.5L57.0346 35.8829L56.8366 35.8829L56.6349 36.5719L56.5 36.5L57.1646 36.854H56.9678L56.7054 37.7067L56.3775 39.0842L55.9839 39.2809L55.3936 39.2153L55 39.0186V38.3626L55.3936 36.7884L55.7215 35.4109L56.1807 33.5087L56.4431 32.3936L56.7054 32.0656L56.8366 32Z" fill="black"/>
<path d="M58.0002 32.3687L57.3219 32.1141L56.3218 31.9227L55.232 31.6152L54.7941 31.768L54.5375 32.2997L54.5172 32.9454L54.6068 33.0615L55.4032 33.3731L56.434 33.652L56.3546 34.2692L56.0735 35.1533L56.434 35.4241L56.6035 35.9252L55.7722 35.5811L55.6033 36.3491L56.1635 36.3491L56.0735 36.233L55.595 36.5975L55.7722 36.683L55.6378 37.565L55.3344 38.9481L55.6033 39.2964L56.1635 39.494L56.6035 39.4878L56.8886 38.8971L57.2185 37.3083L57.5219 35.9252L57.9352 34.0125L58.1836 32.8942L58.0899 32.4847L58.0002 32.3687Z" fill="black"/>
<path d="M44.0191 39.0234L44.675 39.089L45.5277 39.2858L46.5116 39.5482L47.2332 39.745L47.43 40.1385L47.102 42.3031L46.8396 43.1559L46.6428 43.4182H46.1181L44.2814 43.0903L43.2319 42.6967L43.0352 42.4999V41.9752L43.2319 41.188L43.6911 39.5482L44.0191 39.0234ZM44.8062 40.5321L44.6094 41.1224V41.5816L45.1998 41.844L45.5933 41.9752L45.8557 41.5816L46.0525 41.0569V40.7945L45.4621 40.6633L44.8062 40.5321Z" fill="black"/>
<path d="M52.2836 40.729H52.8083L54.3826 41.1226L55.4977 41.3849L55.8912 41.5817L55.9568 41.7129V42.3689L55.7601 43.4184L55.4977 43.7463L54.9073 43.6807L53.8578 43.156L53.7266 43.0248L53.7922 42.3689L52.8739 42.1721L52.7427 42.6312L52.546 42.8936L51.8244 42.9592L51.4309 43.6151L51.2997 43.7463H50.8405L50.5125 43.5495L50.3813 43.4184L50.4469 42.8936L50.7093 41.9097L50.9717 41.6473L51.4964 41.8441H51.6932L51.89 41.1226L52.1524 40.7946L52.2836 40.729Z" fill="black"/>
<path d="M44.3464 44.0083H44.8056L45.2647 44.2051L45.3303 44.5331L45.0679 45.3858L44.8056 45.5826H44.084L44.0184 46.1073L43.6905 46.5009H43.0345L42.313 46.2385L42.1162 46.1073V45.3858L42.2474 44.861L42.4442 44.5986H43.0345L44.1496 44.7954L44.2152 44.2051L44.3464 44.0083Z" fill="black"/>
<path d="M93.6049 16.3115C94.2733 16.3115 94.9492 16.4558 95.6327 16.7444C96.3163 17.0178 96.9011 17.5191 97.3872 18.2482C97.8884 18.9773 98.139 19.957 98.139 21.1874V28H95.3365V21.1874C95.3365 20.3368 95.0935 19.7292 94.6074 19.3646C94.1366 18.9849 93.5821 18.795 92.9442 18.795C92.3973 18.795 91.9189 18.9621 91.5087 19.2963C91.0986 19.6153 90.8328 20.1317 90.7113 20.8456V21.1874V28H87.9088V21.1874C87.9088 20.3368 87.6657 19.7292 87.1797 19.3646C86.7088 18.9849 86.1468 18.795 85.4936 18.795C84.9772 18.795 84.5063 18.9545 84.081 19.2735C83.6708 19.5925 83.405 20.1013 83.2835 20.8001V28H80.4582V16.6077H83.2835V17.4963C83.6632 17.1318 84.0962 16.8432 84.5822 16.6305C85.0835 16.4178 85.6151 16.3115 86.1771 16.3115C86.8759 16.3115 87.5822 16.4634 88.2961 16.7672C89.01 17.071 89.5796 17.5799 90.0049 18.2938C90.3999 17.7318 90.9163 17.2609 91.5543 16.8811C92.1923 16.5014 92.8758 16.3115 93.6049 16.3115ZM102.276 14.7166C101.744 14.7166 101.326 14.5723 101.023 14.2837C100.719 13.9951 100.567 13.6001 100.567 13.0989C100.567 12.5824 100.719 12.1799 101.023 11.8913C101.326 11.6027 101.744 11.4584 102.276 11.4584C102.807 11.4584 103.225 11.6027 103.529 11.8913C103.833 12.1799 103.985 12.5824 103.985 13.0989C103.985 13.585 103.825 13.9799 103.506 14.2837C103.202 14.5723 102.792 14.7166 102.276 14.7166ZM100.84 28V16.6077H103.666V28H100.84ZM112.279 16.3115C112.947 16.3115 113.623 16.4558 114.306 16.7444C115.005 17.0178 115.598 17.5191 116.084 18.2482C116.585 18.9773 116.836 19.957 116.836 21.1874V28H114.01V21.1874C114.01 20.3368 113.767 19.7292 113.281 19.3646C112.81 18.9849 112.256 18.795 111.618 18.795C110.98 18.795 110.433 19.0229 109.977 19.4786C109.537 19.9191 109.317 20.633 109.317 21.6203V28H106.491V16.6077H109.317V17.5647C109.727 17.1849 110.182 16.8811 110.684 16.6533C111.185 16.4254 111.717 16.3115 112.279 16.3115ZM122.827 24.1038C122.827 24.6203 122.948 24.9772 123.191 25.1747C123.434 25.3722 123.822 25.4709 124.353 25.4709C124.672 25.4709 125.022 25.4481 125.401 25.4026V28C124.687 28.0759 124.095 28.1139 123.624 28.1139C122.409 28.1139 121.498 27.8405 120.89 27.2937C120.298 26.7317 120.001 25.7291 120.001 24.2861V19.1368H117.86V16.6077H120.001V13.8052L122.827 12.8483V16.6077H125.356V19.1368H122.827V24.1038ZM143.342 22.076V12.0508H146.326V28H143.775L136.848 17.2001V28H133.863V12.0508H136.848L143.342 22.076ZM159.119 12.0508V14.8761H152.557V18.7039H158.868V21.5292H152.557V28H149.572V12.0508H159.119ZM172.469 12.0508V14.8761H168.071V28H165.109V14.8761H160.735V12.0508H172.469Z" fill="black"/>
<path d="M87.7664 53.2409C87.3449 53.8219 86.8151 54.2833 86.1771 54.625C85.5392 54.9668 84.8499 55.1377 84.1094 55.1377C83.3006 55.1377 82.5487 54.9383 81.8538 54.5396C81.1702 54.1295 80.6234 53.5826 80.2133 52.8991C79.8145 52.2042 79.6152 51.4523 79.6152 50.6434C79.6152 49.8346 79.8145 49.0884 80.2133 48.4048C80.6234 47.7099 81.1702 47.1631 81.8538 46.7643C82.5487 46.3542 83.3006 46.1492 84.1094 46.1492C84.8385 46.1492 85.5221 46.32 86.1601 46.6618C86.798 46.9922 87.3278 47.4422 87.7493 48.0118L86.0063 49.1909C85.4708 48.5643 84.8385 48.251 84.1094 48.251C83.6765 48.251 83.2778 48.3593 82.9133 48.5757C82.5487 48.7922 82.2582 49.0827 82.0417 49.4472C81.8253 49.8118 81.7171 50.2105 81.7171 50.6434C81.7171 51.0763 81.8253 51.4751 82.0417 51.8396C82.2582 52.2042 82.5487 52.4947 82.9133 52.7111C83.2778 52.9162 83.6765 53.0187 84.1094 53.0187C84.8385 53.0187 85.4708 52.7054 86.0063 52.0788L87.7664 53.2409ZM94.2638 46.1833L94.11 48.1827C94.0417 48.1599 93.9221 48.1485 93.7512 48.1485C93.0449 48.1485 92.4582 48.3536 91.9911 48.7637C91.5354 49.1738 91.3075 49.732 91.3075 50.4384V54.8984H89.1886V46.3542H91.3075V47.7897C91.5012 47.334 91.8316 46.9523 92.2987 46.6447C92.7658 46.3371 93.3297 46.1833 93.9904 46.1833H94.2638ZM99.212 46.1321C100.032 46.1321 100.767 46.3371 101.416 46.7473C102.077 47.146 102.59 47.6871 102.954 48.3707C103.319 49.0542 103.501 49.8118 103.501 50.6434C103.501 50.9168 103.478 51.1675 103.433 51.3953H96.8367C97.0076 51.9991 97.3095 52.4719 97.7424 52.8136C98.1753 53.144 98.7278 53.3092 99.4 53.3092C99.8101 53.3092 100.203 53.2181 100.579 53.0358C100.966 52.8535 101.257 52.62 101.451 52.3352L103.074 53.2921C102.675 53.8845 102.157 54.3402 101.519 54.6592C100.892 54.9668 100.169 55.1206 99.3487 55.1206C98.4373 55.1206 97.6285 54.9269 96.9222 54.5396C96.2158 54.1522 95.669 53.6168 95.2817 52.9333C94.9057 52.2497 94.7178 51.4808 94.7178 50.6263C94.7178 49.7833 94.9057 49.02 95.2817 48.3365C95.669 47.6529 96.2044 47.1175 96.888 46.7302C97.5715 46.3314 98.3462 46.1321 99.212 46.1321ZM101.519 49.7377C101.428 49.1909 101.171 48.7637 100.75 48.4561C100.34 48.1371 99.8215 47.9776 99.1949 47.9776C98.762 47.9776 98.3633 48.0574 97.9987 48.2169C97.6456 48.3764 97.3608 48.5928 97.1443 48.8662C96.9279 49.1396 96.8139 49.4301 96.8025 49.7377H101.519ZM111.541 46.3542H113.659V54.8984H111.541V54.0611C111.142 54.4029 110.703 54.6706 110.225 54.8643C109.758 55.0465 109.262 55.1377 108.738 55.1377C107.872 55.1377 107.115 54.944 106.465 54.5567C105.816 54.1693 105.315 53.6339 104.961 52.9504C104.62 52.2668 104.449 51.4978 104.449 50.6434C104.449 49.789 104.62 49.02 104.961 48.3365C105.315 47.6529 105.816 47.1175 106.465 46.7302C107.115 46.3314 107.872 46.1321 108.738 46.1321C109.262 46.1321 109.758 46.2289 110.225 46.4226C110.703 46.6049 111.142 46.8669 111.541 47.2086V46.3542ZM109.011 53.1042C109.479 53.1042 109.9 53.0016 110.276 52.7966C110.663 52.5801 110.965 52.2839 111.182 51.908C111.409 51.532 111.523 51.1048 111.523 50.6263C111.523 49.9086 111.278 49.3219 110.789 48.8662C110.31 48.4105 109.718 48.1827 109.011 48.1827C108.294 48.1827 107.701 48.4162 107.234 48.8833C106.779 49.339 106.551 49.9257 106.551 50.6434C106.551 51.3611 106.779 51.9535 107.234 52.4206C107.701 52.8763 108.294 53.1042 109.011 53.1042ZM118.562 51.9763C118.562 52.3637 118.653 52.6314 118.835 52.7795C119.018 52.9276 119.308 53.0016 119.707 53.0016C119.946 53.0016 120.208 52.9845 120.493 52.9504V54.8984C119.957 54.9554 119.513 54.9839 119.16 54.9839C118.249 54.9839 117.565 54.7788 117.109 54.3687C116.665 53.9472 116.443 53.1953 116.443 52.113V48.251H114.837V46.3542H116.443V44.2523L118.562 43.5346V46.3542H120.459V48.251H118.562V51.9763ZM125.863 46.1321C126.683 46.1321 127.418 46.3371 128.067 46.7473C128.728 47.146 129.24 47.6871 129.605 48.3707C129.97 49.0542 130.152 49.8118 130.152 50.6434C130.152 50.9168 130.129 51.1675 130.083 51.3953H123.487C123.658 51.9991 123.96 52.4719 124.393 52.8136C124.826 53.144 125.378 53.3092 126.051 53.3092C126.461 53.3092 126.854 53.2181 127.23 53.0358C127.617 52.8535 127.908 52.62 128.101 52.3352L129.725 53.2921C129.326 53.8845 128.808 54.3402 128.17 54.6592C127.543 54.9668 126.82 55.1206 125.999 55.1206C125.088 55.1206 124.279 54.9269 123.573 54.5396C122.866 54.1522 122.32 53.6168 121.932 52.9333C121.556 52.2497 121.368 51.4808 121.368 50.6263C121.368 49.7833 121.556 49.02 121.932 48.3365C122.32 47.6529 122.855 47.1175 123.539 46.7302C124.222 46.3314 124.997 46.1321 125.863 46.1321ZM128.17 49.7377C128.078 49.1909 127.822 48.7637 127.401 48.4561C126.99 48.1371 126.472 47.9776 125.846 47.9776C125.413 47.9776 125.014 48.0574 124.649 48.2169C124.296 48.3764 124.011 48.5928 123.795 48.8662C123.578 49.1396 123.465 49.4301 123.453 49.7377H128.17ZM143.444 50.4554V42.9365H145.682V54.8984H143.768L138.573 46.7985V54.8984H136.335V42.9365H138.573L143.444 50.4554ZM155.276 42.9365V45.0555H150.355V47.9264H155.089V50.0453H150.355V54.8984H148.116V42.9365H155.276ZM165.289 42.9365V45.0555H161.991V54.8984H159.769V45.0555H156.488V42.9365H165.289ZM175.042 55.1377C174.233 55.1377 173.481 54.9383 172.786 54.5396C172.103 54.1295 171.556 53.5826 171.146 52.8991C170.747 52.2042 170.548 51.4523 170.548 50.6434C170.548 49.8346 170.747 49.0884 171.146 48.4048C171.556 47.7099 172.103 47.1631 172.786 46.7643C173.481 46.3542 174.233 46.1492 175.042 46.1492C175.851 46.1492 176.597 46.3542 177.281 46.7643C177.975 47.1631 178.522 47.7099 178.921 48.4048C179.331 49.0884 179.536 49.8346 179.536 50.6434C179.536 51.4523 179.331 52.2042 178.921 52.8991C178.522 53.5826 177.975 54.1295 177.281 54.5396C176.597 54.9383 175.851 55.1377 175.042 55.1377ZM175.025 53.0187C175.458 53.0187 175.856 52.9162 176.221 52.7111C176.586 52.4947 176.876 52.2042 177.093 51.8396C177.309 51.4751 177.417 51.0763 177.417 50.6434C177.417 50.2105 177.309 49.8118 177.093 49.4472C176.876 49.0827 176.586 48.7922 176.221 48.5757C175.856 48.3593 175.458 48.251 175.025 48.251C174.592 48.251 174.193 48.3593 173.829 48.5757C173.464 48.7922 173.174 49.0827 172.957 49.4472C172.752 49.8118 172.65 50.2105 172.65 50.6434C172.65 51.0763 172.752 51.4751 172.957 51.8396C173.174 52.2042 173.464 52.4947 173.829 52.7111C174.193 52.9162 174.592 53.0187 175.025 53.0187ZM185.229 46.1321C185.73 46.1321 186.237 46.2403 186.75 46.4568C187.274 46.6618 187.718 47.0378 188.083 47.5846C188.459 48.1314 188.647 48.8662 188.647 49.789V54.8984H186.528V49.789C186.528 49.151 186.346 48.6953 185.981 48.4219C185.628 48.1371 185.212 47.9947 184.734 47.9947C184.255 47.9947 183.845 48.1656 183.503 48.5074C183.173 48.8377 183.008 49.3732 183.008 50.1137V54.8984H180.889V46.3542H183.008V47.0719C183.315 46.7871 183.657 46.5593 184.033 46.3884C184.409 46.2175 184.808 46.1321 185.229 46.1321ZM200.149 46.1321C201.015 46.1321 201.772 46.3314 202.422 46.7302C203.071 47.1175 203.567 47.6529 203.909 48.3365C204.262 49.02 204.438 49.789 204.438 50.6434C204.438 51.4978 204.262 52.2668 203.909 52.9504C203.567 53.6339 203.071 54.1693 202.422 54.5567C201.772 54.944 201.015 55.1377 200.149 55.1377C199.591 55.1377 199.055 55.0294 198.543 54.813C198.03 54.5965 197.574 54.2946 197.176 53.9073V54.8984H195.057V42.9365H197.176V47.3624C197.574 46.9751 198.03 46.6732 198.543 46.4568C199.067 46.2403 199.602 46.1321 200.149 46.1321ZM199.876 53.1042C200.593 53.1042 201.18 52.8763 201.636 52.4206C202.103 51.9535 202.336 51.3611 202.336 50.6434C202.336 49.9257 202.103 49.339 201.636 48.8833C201.18 48.4162 200.593 48.1827 199.876 48.1827C199.169 48.1827 198.571 48.4105 198.081 48.8662C197.603 49.3219 197.364 49.9086 197.364 50.6263C197.364 51.1048 197.472 51.532 197.688 51.908C197.916 52.2839 198.218 52.5801 198.594 52.7966C198.981 53.0016 199.409 53.1042 199.876 53.1042ZM208.056 52.489C208.056 52.6712 208.102 52.8023 208.193 52.882C208.284 52.9617 208.426 53.0016 208.62 53.0016C208.768 53.0016 208.945 52.9845 209.15 52.9504V54.8984C208.728 54.9668 208.335 55.001 207.971 55.001C207.31 55.001 206.803 54.8301 206.45 54.4883C206.108 54.1352 205.937 53.5143 205.937 52.6257V42.9365H208.056V52.489ZM214.192 55.1377C213.383 55.1377 212.631 54.9383 211.936 54.5396C211.253 54.1295 210.706 53.5826 210.296 52.8991C209.897 52.2042 209.698 51.4523 209.698 50.6434C209.698 49.8346 209.897 49.0884 210.296 48.4048C210.706 47.7099 211.253 47.1631 211.936 46.7643C212.631 46.3542 213.383 46.1492 214.192 46.1492C215.001 46.1492 215.747 46.3542 216.43 46.7643C217.125 47.1631 217.672 47.7099 218.071 48.4048C218.481 49.0884 218.686 49.8346 218.686 50.6434C218.686 51.4523 218.481 52.2042 218.071 52.8991C217.672 53.5826 217.125 54.1295 216.43 54.5396C215.747 54.9383 215.001 55.1377 214.192 55.1377ZM214.175 53.0187C214.608 53.0187 215.006 52.9162 215.371 52.7111C215.735 52.4947 216.026 52.2042 216.242 51.8396C216.459 51.4751 216.567 51.0763 216.567 50.6434C216.567 50.2105 216.459 49.8118 216.242 49.4472C216.026 49.0827 215.735 48.7922 215.371 48.5757C215.006 48.3593 214.608 48.251 214.175 48.251C213.742 48.251 213.343 48.3593 212.978 48.5757C212.614 48.7922 212.323 49.0827 212.107 49.4472C211.902 49.8118 211.799 50.2105 211.799 50.6434C211.799 51.0763 211.902 51.4751 212.107 51.8396C212.323 52.2042 212.614 52.4947 212.978 52.7111C213.343 52.9162 213.742 53.0187 214.175 53.0187ZM227.711 53.2409C227.29 53.8219 226.76 54.2833 226.122 54.625C225.484 54.9668 224.795 55.1377 224.054 55.1377C223.245 55.1377 222.494 54.9383 221.799 54.5396C221.115 54.1295 220.568 53.5826 220.158 52.8991C219.759 52.2042 219.56 51.4523 219.56 50.6434C219.56 49.8346 219.759 49.0884 220.158 48.4048C220.568 47.7099 221.115 47.1631 221.799 46.7643C222.494 46.3542 223.245 46.1492 224.054 46.1492C224.783 46.1492 225.467 46.32 226.105 46.6618C226.743 46.9922 227.273 47.4422 227.694 48.0118L225.951 49.1909C225.416 48.5643 224.783 48.251 224.054 48.251C223.621 48.251 223.223 48.3593 222.858 48.5757C222.494 48.7922 222.203 49.0827 221.987 49.4472C221.77 49.8118 221.662 50.2105 221.662 50.6434C221.662 51.0763 221.77 51.4751 221.987 51.8396C222.203 52.2042 222.494 52.4947 222.858 52.7111C223.223 52.9162 223.621 53.0187 224.054 53.0187C224.783 53.0187 225.416 52.7054 225.951 52.0788L227.711 53.2409ZM237.374 54.8984H234.725L232.333 51.7029L231.086 53.07V54.8984H228.967V42.9365H231.086V49.9599L234.298 46.3542H237.254L233.768 50.1479L237.374 54.8984ZM246.318 53.2409C245.897 53.8219 245.367 54.2833 244.729 54.625C244.091 54.9668 243.402 55.1377 242.661 55.1377C241.853 55.1377 241.101 54.9383 240.406 54.5396C239.722 54.1295 239.175 53.5826 238.765 52.8991C238.366 52.2042 238.167 51.4523 238.167 50.6434C238.167 49.8346 238.366 49.0884 238.765 48.4048C239.175 47.7099 239.722 47.1631 240.406 46.7643C241.101 46.3542 241.853 46.1492 242.661 46.1492C243.39 46.1492 244.074 46.32 244.712 46.6618C245.35 46.9922 245.88 47.4422 246.301 48.0118L244.558 49.1909C244.023 48.5643 243.39 48.251 242.661 48.251C242.228 48.251 241.83 48.3593 241.465 48.5757C241.101 48.7922 240.81 49.0827 240.594 49.4472C240.377 49.8118 240.269 50.2105 240.269 50.6434C240.269 51.0763 240.377 51.4751 240.594 51.8396C240.81 52.2042 241.101 52.4947 241.465 52.7111C241.83 52.9162 242.228 53.0187 242.661 53.0187C243.39 53.0187 244.023 52.7054 244.558 52.0788L246.318 53.2409ZM255.43 54.8984H253.328V49.8403C253.328 49.2023 253.146 48.7466 252.782 48.4732C252.428 48.1884 252.007 48.046 251.517 48.046C251.13 48.046 250.777 48.1656 250.458 48.4048C250.15 48.6441 249.951 49.0257 249.859 49.5498V54.8984H247.741V42.9365H249.859V47.0719C250.144 46.7985 250.469 46.5821 250.834 46.4226C251.209 46.2631 251.608 46.1833 252.03 46.1833C252.531 46.1833 253.038 46.2916 253.551 46.508C254.063 46.7131 254.502 47.0833 254.866 47.6188C255.242 48.1542 255.43 48.8776 255.43 49.789V54.8984ZM263.851 46.3542H265.97V54.8984H263.851V54.0611C263.452 54.4029 263.014 54.6706 262.535 54.8643C262.068 55.0465 261.573 55.1377 261.049 55.1377C260.183 55.1377 259.425 54.944 258.776 54.5567C258.127 54.1693 257.625 53.6339 257.272 52.9504C256.93 52.2668 256.759 51.4978 256.759 50.6434C256.759 49.789 256.93 49.02 257.272 48.3365C257.625 47.6529 258.127 47.1175 258.776 46.7302C259.425 46.3314 260.183 46.1321 261.049 46.1321C261.573 46.1321 262.068 46.2289 262.535 46.4226C263.014 46.6049 263.452 46.8669 263.851 47.2086V46.3542ZM261.322 53.1042C261.789 53.1042 262.211 53.0016 262.587 52.7966C262.974 52.5801 263.276 52.2839 263.492 51.908C263.72 51.532 263.834 51.1048 263.834 50.6263C263.834 49.9086 263.589 49.3219 263.099 48.8662C262.621 48.4105 262.028 48.1827 261.322 48.1827C260.604 48.1827 260.012 48.4162 259.545 48.8833C259.089 49.339 258.861 49.9257 258.861 50.6434C258.861 51.3611 259.089 51.9535 259.545 52.4206C260.012 52.8763 260.604 53.1042 261.322 53.1042ZM269.243 44.9359C268.845 44.9359 268.531 44.8277 268.304 44.6112C268.076 44.3947 267.962 44.0985 267.962 43.7226C267.962 43.3353 268.076 43.0334 268.304 42.8169C268.531 42.6005 268.845 42.4922 269.243 42.4922C269.642 42.4922 269.956 42.6005 270.183 42.8169C270.411 43.0334 270.525 43.3353 270.525 43.7226C270.525 44.0872 270.406 44.3834 270.166 44.6112C269.938 44.8277 269.631 44.9359 269.243 44.9359ZM268.167 54.8984V46.3542H270.286V54.8984H268.167ZM276.746 46.1321C277.247 46.1321 277.754 46.2403 278.267 46.4568C278.791 46.6618 279.235 47.0378 279.599 47.5846C279.975 48.1314 280.163 48.8662 280.163 49.789V54.8984H278.044V49.789C278.044 49.151 277.862 48.6953 277.498 48.4219C277.144 48.1371 276.729 47.9947 276.25 47.9947C275.772 47.9947 275.362 48.1656 275.02 48.5074C274.689 48.8377 274.524 49.3732 274.524 50.1137V54.8984H272.405V46.3542H274.524V47.0719C274.832 46.7871 275.174 46.5593 275.55 46.3884C275.925 46.2175 276.324 46.1321 276.746 46.1321Z" fill="#6A6A6A"/>
</svg>
