<svg width="166" height="65" viewBox="0 0 166 65" fill="none" xmlns="http://www.w3.org/2000/svg">
<path d="M70.1468 7.90896H72.4013V20.6362H70.1468V19.7635C69.7346 20.1271 69.274 20.4059 68.7649 20.5999C68.2558 20.7938 67.7286 20.8908 67.1831 20.8908C66.2619 20.8908 65.4558 20.6847 64.7649 20.2726C64.074 19.8605 63.5407 19.2908 63.1649 18.5635C62.8013 17.8362 62.6195 17.018 62.6195 16.109C62.6195 15.1999 62.8013 14.3817 63.1649 13.6544C63.5407 12.9271 64.074 12.3574 64.7649 11.9453C65.4558 11.5211 66.2619 11.309 67.1831 11.309C67.7286 11.309 68.2498 11.412 68.7468 11.618C69.2558 11.812 69.7225 12.0847 70.1468 12.4362V7.90896ZM67.474 18.7271C67.971 18.7271 68.4195 18.618 68.8195 18.3999C69.2316 18.1696 69.5528 17.8544 69.7831 17.4544C70.0255 17.0544 70.1468 16.5999 70.1468 16.0908C70.1468 15.3271 69.8861 14.7029 69.3649 14.218C68.8558 13.7332 68.2255 13.4908 67.474 13.4908C66.7104 13.4908 66.0801 13.7393 65.5831 14.2362C65.0983 14.7211 64.8558 15.3453 64.8558 16.109C64.8558 16.8726 65.0983 17.5029 65.5831 17.9999C66.0801 18.4847 66.7104 18.7271 67.474 18.7271ZM78.6385 11.309C79.5112 11.309 80.2931 11.5271 80.984 11.9635C81.687 12.3877 82.2325 12.9635 82.6203 13.6908C83.0082 14.418 83.2021 15.2241 83.2021 16.109C83.2021 16.3999 83.1779 16.6665 83.1294 16.909H76.1112C76.2931 17.5514 76.6143 18.0544 77.0749 18.418C77.5355 18.7696 78.1234 18.9453 78.8385 18.9453C79.2749 18.9453 79.6931 18.8484 80.0931 18.6544C80.5052 18.4605 80.8143 18.212 81.0203 17.909L82.7476 18.9271C82.3234 19.5574 81.7718 20.0423 81.0931 20.3817C80.4264 20.709 79.6567 20.8726 78.784 20.8726C77.8143 20.8726 76.9537 20.6665 76.2021 20.2544C75.4506 19.8423 74.8688 19.2726 74.4567 18.5453C74.0567 17.818 73.8567 16.9999 73.8567 16.0908C73.8567 15.1938 74.0567 14.3817 74.4567 13.6544C74.8688 12.9271 75.4385 12.3574 76.1658 11.9453C76.8931 11.5211 77.7173 11.309 78.6385 11.309ZM81.0931 15.1453C80.9961 14.5635 80.7234 14.109 80.2749 13.7817C79.8385 13.4423 79.287 13.2726 78.6203 13.2726C78.1597 13.2726 77.7355 13.3574 77.3476 13.5271C76.9718 13.6968 76.6688 13.9271 76.4385 14.218C76.2082 14.509 76.087 14.818 76.0749 15.1453H81.0931ZM87.6852 17.5271C87.6852 17.9393 87.7822 18.2241 87.9762 18.3817C88.1701 18.5393 88.4792 18.618 88.9034 18.618C89.158 18.618 89.4368 18.5999 89.7398 18.5635V20.6362C89.1701 20.6968 88.6974 20.7271 88.3216 20.7271C87.3519 20.7271 86.6246 20.509 86.1398 20.0726C85.6671 19.6241 85.4307 18.8241 85.4307 17.6726V13.5635H83.7216V11.5453H85.4307V9.30896L87.6852 8.54532V11.5453H89.7034V13.5635H87.6852V17.5271ZM98.3787 11.5453H100.633V20.6362H98.3787V19.7453C97.9545 20.109 97.4878 20.3938 96.9787 20.5999C96.4817 20.7938 95.9545 20.8908 95.3969 20.8908C94.4757 20.8908 93.6696 20.6847 92.9787 20.2726C92.2878 19.8605 91.7545 19.2908 91.3787 18.5635C91.0151 17.8362 90.8333 17.018 90.8333 16.109C90.8333 15.1999 91.0151 14.3817 91.3787 13.6544C91.7545 12.9271 92.2878 12.3574 92.9787 11.9453C93.6696 11.5211 94.4757 11.309 95.3969 11.309C95.9545 11.309 96.4817 11.412 96.9787 11.618C97.4878 11.812 97.9545 12.0908 98.3787 12.4544V11.5453ZM95.6878 18.7271C96.1848 18.7271 96.6333 18.618 97.0333 18.3999C97.4454 18.1696 97.7666 17.8544 97.9969 17.4544C98.2393 17.0544 98.3605 16.5999 98.3605 16.0908C98.3605 15.3271 98.0999 14.7029 97.5787 14.218C97.0696 13.7332 96.4393 13.4908 95.6878 13.4908C94.9242 13.4908 94.2939 13.7393 93.7969 14.2362C93.312 14.7211 93.0696 15.3453 93.0696 16.109C93.0696 16.8726 93.312 17.5029 93.7969 17.9999C94.2939 18.4847 94.9242 18.7271 95.6878 18.7271ZM104.116 10.0362C103.692 10.0362 103.358 9.92108 103.116 9.69077C102.874 9.46047 102.752 9.14532 102.752 8.74532C102.752 8.3332 102.874 8.01199 103.116 7.78168C103.358 7.55138 103.692 7.43623 104.116 7.43623C104.54 7.43623 104.874 7.55138 105.116 7.78168C105.358 8.01199 105.48 8.3332 105.48 8.74532C105.48 9.1332 105.352 9.44835 105.098 9.69077C104.855 9.92108 104.528 10.0362 104.116 10.0362ZM102.971 20.6362V11.5453H105.225V20.6362H102.971ZM109.735 18.0726C109.735 18.2665 109.783 18.4059 109.88 18.4908C109.977 18.5756 110.129 18.618 110.335 18.618C110.492 18.618 110.68 18.5999 110.898 18.5635V20.6362C110.45 20.709 110.032 20.7453 109.644 20.7453C108.941 20.7453 108.401 20.5635 108.026 20.1999C107.662 19.8241 107.48 19.1635 107.48 18.218V7.90896H109.735V18.0726ZM114.575 14.0908C114.575 14.3453 114.715 14.5393 114.993 14.6726C115.284 14.7938 115.739 14.9211 116.357 15.0544C117.06 15.1999 117.648 15.3635 118.121 15.5453C118.593 15.7271 118.999 16.018 119.339 16.418C119.69 16.8059 119.866 17.3332 119.866 17.9999C119.866 18.5938 119.684 19.109 119.321 19.5453C118.969 19.9817 118.496 20.315 117.902 20.5453C117.308 20.7635 116.66 20.8726 115.957 20.8726C114.999 20.8726 114.175 20.6908 113.484 20.3271C112.805 19.9635 112.302 19.4423 111.975 18.7635L113.83 17.7999C114.157 18.6362 114.866 19.0544 115.957 19.0544C116.43 19.0544 116.836 18.9635 117.175 18.7817C117.515 18.5999 117.684 18.3393 117.684 17.9999C117.684 17.709 117.527 17.4968 117.212 17.3635C116.908 17.218 116.412 17.0605 115.721 16.8908C115.005 16.7211 114.424 16.5514 113.975 16.3817C113.527 16.212 113.139 15.9514 112.812 15.5999C112.484 15.2362 112.321 14.7574 112.321 14.1635C112.321 13.5817 112.484 13.0787 112.812 12.6544C113.139 12.218 113.581 11.8847 114.139 11.6544C114.696 11.4241 115.308 11.309 115.975 11.309C116.763 11.309 117.466 11.4726 118.084 11.7999C118.715 12.1271 119.199 12.5938 119.539 13.1999L117.702 14.1271C117.387 13.4484 116.812 13.109 115.975 13.109C115.551 13.109 115.212 13.1999 114.957 13.3817C114.702 13.5514 114.575 13.7877 114.575 14.0908Z" fill="#E6E8EB"/>
<path d="M68.0922 33.4548H69.7831V40.2729H68.0922V39.6048C67.774 39.8775 67.424 40.0911 67.0422 40.2457C66.6695 40.3911 66.274 40.4639 65.8558 40.4639C65.1649 40.4639 64.5604 40.3093 64.0422 40.0002C63.524 39.6911 63.124 39.2639 62.8422 38.7184C62.5695 38.1729 62.4331 37.5593 62.4331 36.8775C62.4331 36.1957 62.5695 35.582 62.8422 35.0366C63.124 34.4911 63.524 34.0639 64.0422 33.7548C64.5604 33.4366 65.1649 33.2775 65.8558 33.2775C66.274 33.2775 66.6695 33.3548 67.0422 33.5093C67.424 33.6548 67.774 33.8639 68.0922 34.1366V33.4548ZM66.074 38.8411C66.4468 38.8411 66.7831 38.7593 67.0831 38.5957C67.3922 38.4229 67.6331 38.1866 67.8058 37.8866C67.9877 37.5866 68.0786 37.2457 68.0786 36.8639C68.0786 36.2911 67.8831 35.8229 67.4922 35.4593C67.1104 35.0957 66.6377 34.9139 66.074 34.9139C65.5013 34.9139 65.0286 35.1002 64.6558 35.4729C64.2922 35.8366 64.1104 36.3048 64.1104 36.8775C64.1104 37.4502 64.2922 37.9229 64.6558 38.2957C65.0286 38.6593 65.5013 38.8411 66.074 38.8411ZM76.588 30.7275H78.2789V40.2729H76.588V39.6184C76.2789 39.8911 75.9334 40.1002 75.5516 40.2457C75.1698 40.3911 74.7743 40.4639 74.3653 40.4639C73.6743 40.4639 73.0698 40.3093 72.5516 40.0002C72.0334 39.6911 71.6334 39.2639 71.3516 38.7184C71.0789 38.1729 70.9425 37.5593 70.9425 36.8775C70.9425 36.1957 71.0789 35.582 71.3516 35.0366C71.6334 34.4911 72.0334 34.0639 72.5516 33.7548C73.0698 33.4366 73.6743 33.2775 74.3653 33.2775C74.7743 33.2775 75.1653 33.3548 75.538 33.5093C75.9198 33.6548 76.2698 33.8593 76.588 34.1229V30.7275ZM74.5834 38.8411C74.9562 38.8411 75.2925 38.7593 75.5925 38.5957C75.9016 38.4229 76.1425 38.1866 76.3153 37.8866C76.4971 37.5866 76.588 37.2457 76.588 36.8639C76.588 36.2911 76.3925 35.8229 76.0016 35.4593C75.6198 35.0957 75.1471 34.9139 74.5834 34.9139C74.0107 34.9139 73.538 35.1002 73.1653 35.4729C72.8016 35.8366 72.6198 36.3048 72.6198 36.8775C72.6198 37.4502 72.8016 37.9229 73.1653 38.2957C73.538 38.6593 74.0107 38.8411 74.5834 38.8411ZM85.0841 30.7275H86.775V40.2729H85.0841V39.6184C84.775 39.8911 84.4295 40.1002 84.0477 40.2457C83.6659 40.3911 83.2704 40.4639 82.8613 40.4639C82.1704 40.4639 81.5659 40.3093 81.0477 40.0002C80.5295 39.6911 80.1295 39.2639 79.8477 38.7184C79.575 38.1729 79.4386 37.5593 79.4386 36.8775C79.4386 36.1957 79.575 35.582 79.8477 35.0366C80.1295 34.4911 80.5295 34.0639 81.0477 33.7548C81.5659 33.4366 82.1704 33.2775 82.8613 33.2775C83.2704 33.2775 83.6613 33.3548 84.0341 33.5093C84.4159 33.6548 84.7659 33.8593 85.0841 34.1229V30.7275ZM83.0795 38.8411C83.4523 38.8411 83.7886 38.7593 84.0886 38.5957C84.3977 38.4229 84.6386 38.1866 84.8113 37.8866C84.9932 37.5866 85.0841 37.2457 85.0841 36.8639C85.0841 36.2911 84.8886 35.8229 84.4977 35.4593C84.1159 35.0957 83.6432 34.9139 83.0795 34.9139C82.5068 34.9139 82.0341 35.1002 81.6613 35.4729C81.2977 35.8366 81.1159 36.3048 81.1159 36.8775C81.1159 37.4502 81.2977 37.9229 81.6613 38.2957C82.0341 38.6593 82.5068 38.8411 83.0795 38.8411ZM97.3624 33.4548H99.0534V40.2729H97.3624V39.6048C97.0443 39.8775 96.6943 40.0911 96.3124 40.2457C95.9397 40.3911 95.5443 40.4639 95.1261 40.4639C94.4352 40.4639 93.8306 40.3093 93.3124 40.0002C92.7943 39.6911 92.3943 39.2639 92.1124 38.7184C91.8397 38.1729 91.7034 37.5593 91.7034 36.8775C91.7034 36.1957 91.8397 35.582 92.1124 35.0366C92.3943 34.4911 92.7943 34.0639 93.3124 33.7548C93.8306 33.4366 94.4352 33.2775 95.1261 33.2775C95.5443 33.2775 95.9397 33.3548 96.3124 33.5093C96.6943 33.6548 97.0443 33.8639 97.3624 34.1366V33.4548ZM95.3443 38.8411C95.717 38.8411 96.0534 38.7593 96.3534 38.5957C96.6624 38.4229 96.9034 38.1866 97.0761 37.8866C97.2579 37.5866 97.3488 37.2457 97.3488 36.8639C97.3488 36.2911 97.1534 35.8229 96.7624 35.4593C96.3806 35.0957 95.9079 34.9139 95.3443 34.9139C94.7715 34.9139 94.2988 35.1002 93.9261 35.4729C93.5624 35.8366 93.3806 36.3048 93.3806 36.8775C93.3806 37.4502 93.5624 37.9229 93.9261 38.2957C94.2988 38.6593 94.7715 38.8411 95.3443 38.8411ZM104.843 33.3184L104.72 34.9139C104.665 34.8957 104.57 34.8866 104.434 34.8866C103.87 34.8866 103.402 35.0502 103.029 35.3775C102.665 35.7048 102.484 36.1502 102.484 36.7139V40.2729H100.793V33.4548H102.484V34.6002C102.638 34.2366 102.902 33.932 103.275 33.6866C103.647 33.4411 104.097 33.3184 104.625 33.3184H104.843ZM108.692 37.9411C108.692 38.2502 108.764 38.4639 108.91 38.582C109.055 38.7002 109.287 38.7593 109.605 38.7593C109.796 38.7593 110.005 38.7457 110.233 38.7184V40.2729C109.805 40.3184 109.451 40.3411 109.169 40.3411C108.442 40.3411 107.896 40.1775 107.533 39.8502C107.178 39.5139 107.001 38.9139 107.001 38.0502V34.9684H105.719V33.4548H107.001V31.7775L108.692 31.2048V33.4548H110.205V34.9684H108.692V37.9411ZM118.258 37.5866L119.526 33.4548H121.299L119.09 40.2729H117.413L116.131 36.2229L114.849 40.2729H113.199L111.045 33.4548H112.804L114.031 37.5593L115.231 33.4548H117.031L118.258 37.5866ZM125.118 40.4639C124.472 40.4639 123.872 40.3048 123.318 39.9866C122.772 39.6593 122.336 39.2229 122.009 38.6775C121.69 38.1229 121.531 37.5229 121.531 36.8775C121.531 36.232 121.69 35.6366 122.009 35.0911C122.336 34.5366 122.772 34.1002 123.318 33.782C123.872 33.4548 124.472 33.2911 125.118 33.2911C125.763 33.2911 126.359 33.4548 126.904 33.782C127.459 34.1002 127.895 34.5366 128.213 35.0911C128.54 35.6366 128.704 36.232 128.704 36.8775C128.704 37.5229 128.54 38.1229 128.213 38.6775C127.895 39.2229 127.459 39.6593 126.904 39.9866C126.359 40.3048 125.763 40.4639 125.118 40.4639ZM125.104 38.7729C125.449 38.7729 125.768 38.6911 126.059 38.5275C126.349 38.3548 126.581 38.1229 126.754 37.832C126.927 37.5411 127.013 37.2229 127.013 36.8775C127.013 36.532 126.927 36.2139 126.754 35.9229C126.581 35.632 126.349 35.4002 126.059 35.2275C125.768 35.0548 125.449 34.9684 125.104 34.9684C124.759 34.9684 124.44 35.0548 124.149 35.2275C123.859 35.4002 123.627 35.632 123.454 35.9229C123.29 36.2139 123.209 36.532 123.209 36.8775C123.209 37.2229 123.29 37.5411 123.454 37.832C123.627 38.1229 123.859 38.3548 124.149 38.5275C124.44 38.6911 124.759 38.7729 125.104 38.7729ZM133.833 33.3184L133.711 34.9139C133.656 34.8957 133.561 34.8866 133.424 34.8866C132.861 34.8866 132.392 35.0502 132.02 35.3775C131.656 35.7048 131.474 36.1502 131.474 36.7139V40.2729H129.783V33.4548H131.474V34.6002C131.629 34.2366 131.892 33.932 132.265 33.6866C132.638 33.4411 133.088 33.3184 133.615 33.3184H133.833ZM141.673 40.2729H139.559L137.65 37.7229L136.654 38.8139V40.2729H134.964V30.7275H136.654V36.332L139.218 33.4548H141.577L138.795 36.482L141.673 40.2729ZM63.6195 48.3229C63.3013 48.3229 63.0513 48.2366 62.8695 48.0639C62.6877 47.8911 62.5968 47.6548 62.5968 47.3548C62.5968 47.0457 62.6877 46.8048 62.8695 46.632C63.0513 46.4593 63.3013 46.3729 63.6195 46.3729C63.9377 46.3729 64.1877 46.4593 64.3695 46.632C64.5513 46.8048 64.6422 47.0457 64.6422 47.3548C64.6422 47.6457 64.5468 47.882 64.3558 48.0639C64.174 48.2366 63.9286 48.3229 63.6195 48.3229ZM62.7604 56.2729V49.4548H64.4513V56.2729H62.7604ZM69.6062 49.2775C70.0062 49.2775 70.4107 49.3639 70.8198 49.5366C71.238 49.7002 71.5925 50.0002 71.8834 50.4366C72.1834 50.8729 72.3334 51.4593 72.3334 52.1957V56.2729H70.6425V52.1957C70.6425 51.6866 70.4971 51.3229 70.2062 51.1048C69.9243 50.8775 69.5925 50.7639 69.2107 50.7639C68.8289 50.7639 68.5016 50.9002 68.2289 51.1729C67.9653 51.4366 67.8334 51.8639 67.8334 52.4548V56.2729H66.1425V49.4548H67.8334V50.0275C68.0789 49.8002 68.3516 49.6184 68.6516 49.482C68.9516 49.3457 69.2698 49.2775 69.6062 49.2775ZM77.7507 48.1593C77.5234 48.132 77.3189 48.1184 77.1371 48.1184C76.8189 48.1184 76.5871 48.1775 76.4416 48.2957C76.2961 48.4139 76.2234 48.632 76.2234 48.9502V49.4548H77.7371V50.9684H76.2234V56.2729H74.5325V50.9684H73.4007V49.4548H74.5325V48.8411C74.5325 47.9775 74.7098 47.382 75.0643 47.0548C75.4189 46.7184 75.9552 46.5502 76.6734 46.5502C76.9552 46.5502 77.3143 46.5729 77.7507 46.6184V48.1593ZM81.6784 56.4639C81.0329 56.4639 80.4329 56.3048 79.8784 55.9866C79.3329 55.6593 78.8966 55.2229 78.5693 54.6775C78.2511 54.1229 78.092 53.5229 78.092 52.8775C78.092 52.232 78.2511 51.6366 78.5693 51.0911C78.8966 50.5366 79.3329 50.1002 79.8784 49.782C80.4329 49.4548 81.0329 49.2911 81.6784 49.2911C82.3238 49.2911 82.9193 49.4548 83.4648 49.782C84.0193 50.1002 84.4557 50.5366 84.7738 51.0911C85.1011 51.6366 85.2648 52.232 85.2648 52.8775C85.2648 53.5229 85.1011 54.1229 84.7738 54.6775C84.4557 55.2229 84.0193 55.6593 83.4648 55.9866C82.9193 56.3048 82.3238 56.4639 81.6784 56.4639ZM81.6648 54.7729C82.0102 54.7729 82.3284 54.6911 82.6193 54.5275C82.9102 54.3548 83.142 54.1229 83.3148 53.832C83.4875 53.5411 83.5738 53.2229 83.5738 52.8775C83.5738 52.532 83.4875 52.2139 83.3148 51.9229C83.142 51.632 82.9102 51.4002 82.6193 51.2275C82.3284 51.0548 82.0102 50.9684 81.6648 50.9684C81.3193 50.9684 81.0011 51.0548 80.7102 51.2275C80.4193 51.4002 80.1875 51.632 80.0148 51.9229C79.8511 52.2139 79.7693 52.532 79.7693 52.8775C79.7693 53.2229 79.8511 53.5411 80.0148 53.832C80.1875 54.1229 80.4193 54.3548 80.7102 54.5275C81.0011 54.6911 81.3193 54.7729 81.6648 54.7729ZM90.3941 49.3184L90.2713 50.9139C90.2168 50.8957 90.1213 50.8866 89.985 50.8866C89.4213 50.8866 88.9531 51.0502 88.5804 51.3775C88.2168 51.7048 88.035 52.1502 88.035 52.7139V56.2729H86.3441V49.4548H88.035V50.6002C88.1895 50.2366 88.4531 49.932 88.8259 49.6866C89.1986 49.4411 89.6486 49.3184 90.1759 49.3184H90.3941ZM99.3925 49.2775C99.7925 49.2775 100.197 49.3639 100.606 49.5366C101.015 49.7002 101.365 50.0002 101.656 50.4366C101.956 50.8729 102.106 51.4593 102.106 52.1957V56.2729H100.429V52.1957C100.429 51.6866 100.283 51.3229 99.9925 51.1048C99.7106 50.8775 99.3788 50.7639 98.997 50.7639C98.6697 50.7639 98.3834 50.8639 98.1379 51.0639C97.8925 51.2548 97.7334 51.5639 97.6606 51.9911V52.1957V56.2729H95.9834V52.1957C95.9834 51.6866 95.8379 51.3229 95.547 51.1048C95.2652 50.8775 94.9288 50.7639 94.5379 50.7639C94.2288 50.7639 93.947 50.8593 93.6925 51.0502C93.447 51.2411 93.2879 51.5457 93.2152 51.9639V56.2729H91.5243V49.4548H93.2152V49.9866C93.4425 49.7684 93.7015 49.5957 93.9925 49.4684C94.2925 49.3411 94.6106 49.2775 94.947 49.2775C95.3652 49.2775 95.7879 49.3684 96.2152 49.5502C96.6425 49.732 96.9834 50.0366 97.2379 50.4639C97.4743 50.1275 97.7834 49.8457 98.1652 49.6184C98.547 49.3911 98.9561 49.2775 99.3925 49.2775ZM108.695 49.4548H110.386V56.2729H108.695V55.6048C108.377 55.8775 108.027 56.0911 107.645 56.2457C107.272 56.3911 106.877 56.4639 106.459 56.4639C105.768 56.4639 105.163 56.3093 104.645 56.0002C104.127 55.6911 103.727 55.2639 103.445 54.7184C103.172 54.1729 103.036 53.5593 103.036 52.8775C103.036 52.1957 103.172 51.582 103.445 51.0366C103.727 50.4911 104.127 50.0639 104.645 49.7548C105.163 49.4366 105.768 49.2775 106.459 49.2775C106.877 49.2775 107.272 49.3548 107.645 49.5093C108.027 49.6548 108.377 49.8639 108.695 50.1366V49.4548ZM106.677 54.8411C107.05 54.8411 107.386 54.7593 107.686 54.5957C107.995 54.4229 108.236 54.1866 108.409 53.8866C108.59 53.5866 108.681 53.2457 108.681 52.8639C108.681 52.2911 108.486 51.8229 108.095 51.4593C107.713 51.0957 107.24 50.9139 106.677 50.9139C106.104 50.9139 105.631 51.1002 105.259 51.4729C104.895 51.8366 104.713 52.3048 104.713 52.8775C104.713 53.4502 104.895 53.9229 105.259 54.2957C105.631 54.6593 106.104 54.8411 106.677 54.8411ZM114.298 53.9411C114.298 54.2502 114.371 54.4639 114.516 54.582C114.662 54.7002 114.893 54.7593 115.212 54.7593C115.403 54.7593 115.612 54.7457 115.839 54.7184V56.2729C115.412 56.3184 115.057 56.3411 114.775 56.3411C114.048 56.3411 113.503 56.1775 113.139 55.8502C112.784 55.5139 112.607 54.9139 112.607 54.0502V50.9684H111.325V49.4548H112.607V47.7775L114.298 47.2048V49.4548H115.812V50.9684H114.298V53.9411ZM118.072 48.3229C117.754 48.3229 117.504 48.2366 117.322 48.0639C117.14 47.8911 117.049 47.6548 117.049 47.3548C117.049 47.0457 117.14 46.8048 117.322 46.632C117.504 46.4593 117.754 46.3729 118.072 46.3729C118.39 46.3729 118.64 46.4593 118.822 46.632C119.004 46.8048 119.094 47.0457 119.094 47.3548C119.094 47.6457 118.999 47.882 118.808 48.0639C118.626 48.2366 118.381 48.3229 118.072 48.3229ZM117.213 56.2729V49.4548H118.904V56.2729H117.213ZM123.533 56.4639C122.888 56.4639 122.288 56.3048 121.733 55.9866C121.188 55.6593 120.751 55.2229 120.424 54.6775C120.106 54.1229 119.947 53.5229 119.947 52.8775C119.947 52.232 120.106 51.6366 120.424 51.0911C120.751 50.5366 121.188 50.1002 121.733 49.782C122.288 49.4548 122.888 49.2911 123.533 49.2911C124.178 49.2911 124.774 49.4548 125.319 49.782C125.874 50.1002 126.31 50.5366 126.628 51.0911C126.956 51.6366 127.119 52.232 127.119 52.8775C127.119 53.5229 126.956 54.1229 126.628 54.6775C126.31 55.2229 125.874 55.6593 125.319 55.9866C124.774 56.3048 124.178 56.4639 123.533 56.4639ZM123.519 54.7729C123.865 54.7729 124.183 54.6911 124.474 54.5275C124.765 54.3548 124.997 54.1229 125.169 53.832C125.342 53.5411 125.428 53.2229 125.428 52.8775C125.428 52.532 125.342 52.2139 125.169 51.9229C124.997 51.632 124.765 51.4002 124.474 51.2275C124.183 51.0548 123.865 50.9684 123.519 50.9684C123.174 50.9684 122.856 51.0548 122.565 51.2275C122.274 51.4002 122.042 51.632 121.869 51.9229C121.706 52.2139 121.624 52.532 121.624 52.8775C121.624 53.2229 121.706 53.5411 121.869 53.832C122.042 54.1229 122.274 54.3548 122.565 54.5275C122.856 54.6911 123.174 54.7729 123.519 54.7729ZM131.662 49.2775C132.062 49.2775 132.467 49.3639 132.876 49.5366C133.294 49.7002 133.649 50.0002 133.94 50.4366C134.24 50.8729 134.39 51.4593 134.39 52.1957V56.2729H132.699V52.1957C132.699 51.6866 132.553 51.3229 132.262 51.1048C131.98 50.8775 131.649 50.7639 131.267 50.7639C130.885 50.7639 130.558 50.9002 130.285 51.1729C130.021 51.4366 129.89 51.8639 129.89 52.4548V56.2729H128.199V49.4548H129.89V50.0275C130.135 49.8002 130.408 49.6184 130.708 49.482C131.008 49.3457 131.326 49.2775 131.662 49.2775Z" fill="#E6E8EB" fill-opacity="0.8"/>
<rect x="0.341918" y="0.286254" width="49.4275" height="64.4275" rx="24.7137" fill="#04DB00" stroke="#04DB00" stroke-width="0.572507"/>
<path d="M33.4557 39.1454V43.059H16.8784V42.1045C17.0269 40.0045 17.6421 37.9681 18.7239 35.9954C19.8057 34.0226 21.4603 32.5908 23.6875 31.6999C24.1542 31.4878 24.5042 31.3393 24.7375 31.2545C25.7981 30.809 26.6148 30.4378 27.1875 30.1408C27.7815 29.8226 28.2693 29.4514 28.6512 29.0272C29.0542 28.5817 29.2557 28.062 29.2557 27.4681C29.2557 26.7681 29.0542 26.1742 28.6512 25.6863C28.2693 25.1772 27.7815 24.7954 27.1875 24.5408C26.5936 24.2863 25.9996 24.159 25.4057 24.159C24.1118 24.159 22.9981 24.4242 22.0648 24.9545C21.1527 25.4635 20.6118 26.2484 20.4421 27.309L16.5284 26.8954C16.7193 25.5378 17.239 24.3711 18.0875 23.3954C18.936 22.4196 19.9966 21.6772 21.2693 21.1681C22.5633 20.659 23.9421 20.4045 25.4057 20.4045C26.7209 20.4045 27.983 20.6802 29.1921 21.2317C30.4012 21.7832 31.3769 22.5787 32.1193 23.6181C32.8618 24.6575 33.233 25.8772 33.233 27.2772C33.233 28.6772 32.8936 29.8438 32.2148 30.7772C31.5572 31.7105 30.6875 32.4848 29.6057 33.0999C28.5239 33.6939 27.0709 34.3408 25.2466 35.0408C23.6345 35.6772 22.4784 37.0454 21.7784 39.1454H33.4557Z" fill="black"/>
</svg>
