<svg width="166" height="65" viewBox="0 0 166 65" fill="none" xmlns="http://www.w3.org/2000/svg">
<path d="M73.6399 11.309C74.1732 11.309 74.7126 11.4241 75.2581 11.6544C75.8035 11.8726 76.2702 12.2726 76.6581 12.8544C77.0581 13.4362 77.2581 14.218 77.2581 15.1999V20.6362H75.0217V15.1999C75.0217 14.5211 74.8278 14.0362 74.4399 13.7453C74.0641 13.4423 73.6217 13.2908 73.1126 13.2908C72.6763 13.2908 72.2944 13.4241 71.9672 13.6908C71.6399 13.9453 71.4278 14.3574 71.3308 14.9271V15.1999V20.6362H69.0944V15.1999C69.0944 14.5211 68.9005 14.0362 68.5126 13.7453C68.1369 13.4423 67.6884 13.2908 67.1672 13.2908C66.755 13.2908 66.3793 13.418 66.0399 13.6726C65.7126 13.9271 65.5005 14.3332 65.4035 14.8908V20.6362H63.149V11.5453H65.4035V12.2544C65.7066 11.9635 66.052 11.7332 66.4399 11.5635C66.8399 11.3938 67.2641 11.309 67.7126 11.309C68.2702 11.309 68.8338 11.4302 69.4035 11.6726C69.9732 11.915 70.4278 12.3211 70.7672 12.8908C71.0823 12.4423 71.4944 12.0665 72.0035 11.7635C72.5126 11.4605 73.0581 11.309 73.6399 11.309ZM80.5591 10.0362C80.1348 10.0362 79.8015 9.92108 79.5591 9.69077C79.3166 9.46047 79.1954 9.14532 79.1954 8.74532C79.1954 8.3332 79.3166 8.01199 79.5591 7.78168C79.8015 7.55138 80.1348 7.43623 80.5591 7.43623C80.9833 7.43623 81.3166 7.55138 81.5591 7.78168C81.8015 8.01199 81.9227 8.3332 81.9227 8.74532C81.9227 9.1332 81.7954 9.44835 81.5409 9.69077C81.2985 9.92108 80.9712 10.0362 80.5591 10.0362ZM79.4136 20.6362V11.5453H81.6682V20.6362H79.4136ZM88.5413 11.309C89.0747 11.309 89.614 11.4241 90.1595 11.6544C90.7171 11.8726 91.1898 12.2726 91.5777 12.8544C91.9777 13.4362 92.1777 14.218 92.1777 15.1999V20.6362H89.9231V15.1999C89.9231 14.5211 89.7292 14.0362 89.3413 13.7453C88.9656 13.4423 88.5231 13.2908 88.014 13.2908C87.505 13.2908 87.0686 13.4726 86.705 13.8362C86.3534 14.1877 86.1777 14.7574 86.1777 15.5453V20.6362H83.9231V11.5453H86.1777V12.309C86.505 12.0059 86.8686 11.7635 87.2686 11.5817C87.6686 11.3999 88.0928 11.309 88.5413 11.309ZM96.9585 17.5271C96.9585 17.9393 97.0555 18.2241 97.2494 18.3817C97.4434 18.5393 97.7524 18.618 98.1767 18.618C98.4312 18.618 98.71 18.5999 99.0131 18.5635V20.6362C98.4434 20.6968 97.9706 20.7271 97.5949 20.7271C96.6252 20.7271 95.8979 20.509 95.4131 20.0726C94.9403 19.6241 94.704 18.8241 94.704 17.6726V13.5635H92.9949V11.5453H94.704V9.30896L96.9585 8.54532V11.5453H98.9767V13.5635H96.9585V17.5271Z" fill="#E6E8EB"/>
<path d="M68.9808 38.9502C68.6444 39.4139 68.2217 39.782 67.7126 40.0548C67.2035 40.3275 66.6535 40.4639 66.0626 40.4639C65.4172 40.4639 64.8172 40.3048 64.2626 39.9866C63.7172 39.6593 63.2808 39.2229 62.9535 38.6775C62.6354 38.1229 62.4763 37.5229 62.4763 36.8775C62.4763 36.232 62.6354 35.6366 62.9535 35.0911C63.2808 34.5366 63.7172 34.1002 64.2626 33.782C64.8172 33.4548 65.4172 33.2911 66.0626 33.2911C66.6444 33.2911 67.1899 33.4275 67.699 33.7002C68.2081 33.9639 68.6308 34.3229 68.9672 34.7775L67.5763 35.7184C67.149 35.2184 66.6444 34.9684 66.0626 34.9684C65.7172 34.9684 65.399 35.0548 65.1081 35.2275C64.8172 35.4002 64.5854 35.632 64.4126 35.9229C64.2399 36.2139 64.1535 36.532 64.1535 36.8775C64.1535 37.2229 64.2399 37.5411 64.4126 37.832C64.5854 38.1229 64.8172 38.3548 65.1081 38.5275C65.399 38.6911 65.7172 38.7729 66.0626 38.7729C66.6444 38.7729 67.149 38.5229 67.5763 38.0229L68.9808 38.9502ZM74.1657 33.3184L74.043 34.9139C73.9884 34.8957 73.893 34.8866 73.7566 34.8866C73.193 34.8866 72.7248 35.0502 72.3521 35.3775C71.9884 35.7048 71.8066 36.1502 71.8066 36.7139V40.2729H70.1157V33.4548H71.8066V34.6002C71.9612 34.2366 72.2248 33.932 72.5975 33.6866C72.9703 33.4411 73.4203 33.3184 73.9475 33.3184H74.1657ZM78.1143 33.2775C78.7688 33.2775 79.3552 33.4411 79.8734 33.7684C80.4007 34.0866 80.8097 34.5184 81.1007 35.0639C81.3916 35.6093 81.537 36.2139 81.537 36.8775C81.537 37.0957 81.5188 37.2957 81.4825 37.4775H76.2188C76.3552 37.9593 76.5961 38.3366 76.9416 38.6093C77.287 38.8729 77.7279 39.0048 78.2643 39.0048C78.5916 39.0048 78.9052 38.932 79.2052 38.7866C79.5143 38.6411 79.7461 38.4548 79.9007 38.2275L81.1961 38.9911C80.8779 39.4639 80.4643 39.8275 79.9552 40.082C79.4552 40.3275 78.8779 40.4502 78.2234 40.4502C77.4961 40.4502 76.8507 40.2957 76.287 39.9866C75.7234 39.6775 75.287 39.2502 74.9779 38.7048C74.6779 38.1593 74.5279 37.5457 74.5279 36.8639C74.5279 36.1911 74.6779 35.582 74.9779 35.0366C75.287 34.4911 75.7143 34.0639 76.2597 33.7548C76.8052 33.4366 77.4234 33.2775 78.1143 33.2775ZM79.9552 36.1548C79.8825 35.7184 79.6779 35.3775 79.3416 35.132C79.0143 34.8775 78.6007 34.7502 78.1007 34.7502C77.7552 34.7502 77.437 34.8139 77.1461 34.9411C76.8643 35.0684 76.637 35.2411 76.4643 35.4593C76.2916 35.6775 76.2007 35.9093 76.1916 36.1548H79.9552ZM87.9523 33.4548H89.6432V40.2729H87.9523V39.6048C87.6341 39.8775 87.2841 40.0911 86.9023 40.2457C86.5296 40.3911 86.1341 40.4639 85.7159 40.4639C85.025 40.4639 84.4205 40.3093 83.9023 40.0002C83.3841 39.6911 82.9841 39.2639 82.7023 38.7184C82.4296 38.1729 82.2932 37.5593 82.2932 36.8775C82.2932 36.1957 82.4296 35.582 82.7023 35.0366C82.9841 34.4911 83.3841 34.0639 83.9023 33.7548C84.4205 33.4366 85.025 33.2775 85.7159 33.2775C86.1341 33.2775 86.5296 33.3548 86.9023 33.5093C87.2841 33.6548 87.6341 33.8639 87.9523 34.1366V33.4548ZM85.9341 38.8411C86.3068 38.8411 86.6432 38.7593 86.9432 38.5957C87.2523 38.4229 87.4932 38.1866 87.6659 37.8866C87.8477 37.5866 87.9387 37.2457 87.9387 36.8639C87.9387 36.2911 87.7432 35.8229 87.3523 35.4593C86.9705 35.0957 86.4977 34.9139 85.9341 34.9139C85.3614 34.9139 84.8887 35.1002 84.5159 35.4729C84.1523 35.8366 83.9705 36.3048 83.9705 36.8775C83.9705 37.4502 84.1523 37.9229 84.5159 38.2957C84.8887 38.6593 85.3614 38.8411 85.9341 38.8411ZM93.5552 37.9411C93.5552 38.2502 93.628 38.4639 93.7734 38.582C93.9189 38.7002 94.1507 38.7593 94.4689 38.7593C94.6598 38.7593 94.8689 38.7457 95.0961 38.7184V40.2729C94.6689 40.3184 94.3143 40.3411 94.0325 40.3411C93.3052 40.3411 92.7598 40.1775 92.3961 39.8502C92.0416 39.5139 91.8643 38.9139 91.8643 38.0502V34.9684H90.5825V33.4548H91.8643V31.7775L93.5552 31.2048V33.4548H95.0689V34.9684H93.5552V37.9411ZM99.3812 33.2775C100.036 33.2775 100.622 33.4411 101.14 33.7684C101.668 34.0866 102.077 34.5184 102.368 35.0639C102.658 35.6093 102.804 36.2139 102.804 36.8775C102.804 37.0957 102.786 37.2957 102.749 37.4775H97.4857C97.6221 37.9593 97.863 38.3366 98.2084 38.6093C98.5539 38.8729 98.9948 39.0048 99.5312 39.0048C99.8584 39.0048 100.172 38.932 100.472 38.7866C100.781 38.6411 101.013 38.4548 101.168 38.2275L102.463 38.9911C102.145 39.4639 101.731 39.8275 101.222 40.082C100.722 40.3275 100.145 40.4502 99.4903 40.4502C98.763 40.4502 98.1175 40.2957 97.5539 39.9866C96.9903 39.6775 96.5539 39.2502 96.2448 38.7048C95.9448 38.1593 95.7948 37.5457 95.7948 36.8639C95.7948 36.1911 95.9448 35.582 96.2448 35.0366C96.5539 34.4911 96.9812 34.0639 97.5266 33.7548C98.0721 33.4366 98.6903 33.2775 99.3812 33.2775ZM101.222 36.1548C101.149 35.7184 100.945 35.3775 100.608 35.132C100.281 34.8775 99.8675 34.7502 99.3675 34.7502C99.0221 34.7502 98.7039 34.8139 98.413 34.9411C98.1312 35.0684 97.9039 35.2411 97.7312 35.4593C97.5584 35.6775 97.4675 35.9093 97.4584 36.1548H101.222ZM113.411 36.7275V30.7275H115.197V40.2729H113.67L109.524 33.8093V40.2729H107.738V30.7275H109.524L113.411 36.7275ZM122.853 30.7275V32.4184H118.926V34.7093H122.703V36.4002H118.926V40.2729H117.139V30.7275H122.853ZM130.843 30.7275V32.4184H128.211V40.2729H126.438V32.4184H123.82V30.7275H130.843ZM138.626 40.4639C137.98 40.4639 137.38 40.3048 136.826 39.9866C136.28 39.6593 135.844 39.2229 135.517 38.6775C135.198 38.1229 135.039 37.5229 135.039 36.8775C135.039 36.232 135.198 35.6366 135.517 35.0911C135.844 34.5366 136.28 34.1002 136.826 33.782C137.38 33.4548 137.98 33.2911 138.626 33.2911C139.271 33.2911 139.867 33.4548 140.412 33.782C140.967 34.1002 141.403 34.5366 141.721 35.0911C142.048 35.6366 142.212 36.232 142.212 36.8775C142.212 37.5229 142.048 38.1229 141.721 38.6775C141.403 39.2229 140.967 39.6593 140.412 39.9866C139.867 40.3048 139.271 40.4639 138.626 40.4639ZM138.612 38.7729C138.957 38.7729 139.276 38.6911 139.567 38.5275C139.857 38.3548 140.089 38.1229 140.262 37.832C140.435 37.5411 140.521 37.2229 140.521 36.8775C140.521 36.532 140.435 36.2139 140.262 35.9229C140.089 35.632 139.857 35.4002 139.567 35.2275C139.276 35.0548 138.957 34.9684 138.612 34.9684C138.267 34.9684 137.948 35.0548 137.657 35.2275C137.367 35.4002 137.135 35.632 136.962 35.9229C136.798 36.2139 136.717 36.532 136.717 36.8775C136.717 37.2229 136.798 37.5411 136.962 37.832C137.135 38.1229 137.367 38.3548 137.657 38.5275C137.948 38.6911 138.267 38.7729 138.612 38.7729ZM146.755 33.2775C147.155 33.2775 147.56 33.3639 147.969 33.5366C148.387 33.7002 148.741 34.0002 149.032 34.4366C149.332 34.8729 149.482 35.4593 149.482 36.1957V40.2729H147.791V36.1957C147.791 35.6866 147.646 35.3229 147.355 35.1048C147.073 34.8775 146.741 34.7639 146.36 34.7639C145.978 34.7639 145.65 34.9002 145.378 35.1729C145.114 35.4366 144.982 35.8639 144.982 36.4548V40.2729H143.291V33.4548H144.982V34.0275C145.228 33.8002 145.5 33.6184 145.8 33.482C146.1 33.3457 146.419 33.2775 146.755 33.2775ZM66.9217 49.2775C67.6126 49.2775 68.2172 49.4366 68.7354 49.7548C69.2535 50.0639 69.649 50.4911 69.9217 51.0366C70.2035 51.582 70.3444 52.1957 70.3444 52.8775C70.3444 53.5593 70.2035 54.1729 69.9217 54.7184C69.649 55.2639 69.2535 55.6911 68.7354 56.0002C68.2172 56.3093 67.6126 56.4639 66.9217 56.4639C66.4763 56.4639 66.049 56.3775 65.6399 56.2048C65.2308 56.032 64.8672 55.7911 64.549 55.482V56.2729H62.8581V46.7275H64.549V50.2593C64.8672 49.9502 65.2308 49.7093 65.6399 49.5366C66.0581 49.3639 66.4854 49.2775 66.9217 49.2775ZM66.7035 54.8411C67.2763 54.8411 67.7444 54.6593 68.1081 54.2957C68.4808 53.9229 68.6672 53.4502 68.6672 52.8775C68.6672 52.3048 68.4808 51.8366 68.1081 51.4729C67.7444 51.1002 67.2763 50.9139 66.7035 50.9139C66.1399 50.9139 65.6626 51.0957 65.2717 51.4593C64.8899 51.8229 64.699 52.2911 64.699 52.8639C64.699 53.2457 64.7854 53.5866 64.9581 53.8866C65.1399 54.1866 65.3808 54.4229 65.6808 54.5957C65.9899 54.7593 66.3308 54.8411 66.7035 54.8411ZM73.2315 54.3502C73.2315 54.4957 73.2679 54.6002 73.3406 54.6639C73.4133 54.7275 73.527 54.7593 73.6815 54.7593C73.7997 54.7593 73.9406 54.7457 74.1042 54.7184V56.2729C73.7679 56.3275 73.4542 56.3548 73.1633 56.3548C72.6361 56.3548 72.2315 56.2184 71.9497 55.9457C71.677 55.6639 71.5406 55.1684 71.5406 54.4593V46.7275H73.2315V54.3502ZM78.1276 56.4639C77.4822 56.4639 76.8822 56.3048 76.3276 55.9866C75.7822 55.6593 75.3458 55.2229 75.0185 54.6775C74.7003 54.1229 74.5412 53.5229 74.5412 52.8775C74.5412 52.232 74.7003 51.6366 75.0185 51.0911C75.3458 50.5366 75.7822 50.1002 76.3276 49.782C76.8822 49.4548 77.4822 49.2911 78.1276 49.2911C78.7731 49.2911 79.3685 49.4548 79.914 49.782C80.4685 50.1002 80.9049 50.5366 81.2231 51.0911C81.5503 51.6366 81.714 52.232 81.714 52.8775C81.714 53.5229 81.5503 54.1229 81.2231 54.6775C80.9049 55.2229 80.4685 55.6593 79.914 55.9866C79.3685 56.3048 78.7731 56.4639 78.1276 56.4639ZM78.114 54.7729C78.4594 54.7729 78.7776 54.6911 79.0685 54.5275C79.3594 54.3548 79.5912 54.1229 79.764 53.832C79.9367 53.5411 80.0231 53.2229 80.0231 52.8775C80.0231 52.532 79.9367 52.2139 79.764 51.9229C79.5912 51.632 79.3594 51.4002 79.0685 51.2275C78.7776 51.0548 78.4594 50.9684 78.114 50.9684C77.7685 50.9684 77.4503 51.0548 77.1594 51.2275C76.8685 51.4002 76.6367 51.632 76.464 51.9229C76.3003 52.2139 76.2185 52.532 76.2185 52.8775C76.2185 53.2229 76.3003 53.5411 76.464 53.832C76.6367 54.1229 76.8685 54.3548 77.1594 54.5275C77.4503 54.6911 77.7685 54.7729 78.114 54.7729ZM88.916 54.9502C88.5796 55.4139 88.1569 55.782 87.6478 56.0548C87.1387 56.3275 86.5887 56.4639 85.9978 56.4639C85.3524 56.4639 84.7524 56.3048 84.1978 55.9866C83.6524 55.6593 83.216 55.2229 82.8887 54.6775C82.5705 54.1229 82.4115 53.5229 82.4115 52.8775C82.4115 52.232 82.5705 51.6366 82.8887 51.0911C83.216 50.5366 83.6524 50.1002 84.1978 49.782C84.7524 49.4548 85.3524 49.2911 85.9978 49.2911C86.5796 49.2911 87.1251 49.4275 87.6342 49.7002C88.1433 49.9639 88.566 50.3229 88.9024 50.7775L87.5115 51.7184C87.0842 51.2184 86.5796 50.9684 85.9978 50.9684C85.6524 50.9684 85.3342 51.0548 85.0433 51.2275C84.7524 51.4002 84.5205 51.632 84.3478 51.9229C84.1751 52.2139 84.0887 52.532 84.0887 52.8775C84.0887 53.2229 84.1751 53.5411 84.3478 53.832C84.5205 54.1229 84.7524 54.3548 85.0433 54.5275C85.3342 54.6911 85.6524 54.7729 85.9978 54.7729C86.5796 54.7729 87.0842 54.5229 87.5115 54.0229L88.916 54.9502ZM96.6268 56.2729H94.5132L92.6041 53.7229L91.6086 54.8139V56.2729H89.9177V46.7275H91.6086V52.332L94.1723 49.4548H96.5314L93.7496 52.482L96.6268 56.2729ZM103.764 54.9502C103.428 55.4139 103.005 55.782 102.496 56.0548C101.987 56.3275 101.437 56.4639 100.846 56.4639C100.201 56.4639 99.6006 56.3048 99.046 55.9866C98.5006 55.6593 98.0642 55.2229 97.7369 54.6775C97.4187 54.1229 97.2596 53.5229 97.2596 52.8775C97.2596 52.232 97.4187 51.6366 97.7369 51.0911C98.0642 50.5366 98.5006 50.1002 99.046 49.782C99.6006 49.4548 100.201 49.2911 100.846 49.2911C101.428 49.2911 101.973 49.4275 102.482 49.7002C102.991 49.9639 103.414 50.3229 103.751 50.7775L102.36 51.7184C101.932 51.2184 101.428 50.9684 100.846 50.9684C100.501 50.9684 100.182 51.0548 99.8915 51.2275C99.6006 51.4002 99.3687 51.632 99.196 51.9229C99.0233 52.2139 98.9369 52.532 98.9369 52.8775C98.9369 53.2229 99.0233 53.5411 99.196 53.832C99.3687 54.1229 99.6006 54.3548 99.8915 54.5275C100.182 54.6911 100.501 54.7729 100.846 54.7729C101.428 54.7729 101.932 54.5229 102.36 54.0229L103.764 54.9502ZM111.035 56.2729H109.358V52.2366C109.358 51.7275 109.213 51.3639 108.922 51.1457C108.64 50.9184 108.304 50.8048 107.913 50.8048C107.604 50.8048 107.322 50.9002 107.067 51.0911C106.822 51.282 106.663 51.5866 106.59 52.0048V56.2729H104.899V46.7275H106.59V50.0275C106.817 49.8093 107.076 49.6366 107.367 49.5093C107.667 49.382 107.985 49.3184 108.322 49.3184C108.722 49.3184 109.126 49.4048 109.535 49.5775C109.945 49.7411 110.295 50.0366 110.585 50.4639C110.885 50.8911 111.035 51.4684 111.035 52.1957V56.2729ZM117.755 49.4548H119.446V56.2729H117.755V55.6048C117.437 55.8775 117.087 56.0911 116.705 56.2457C116.332 56.3911 115.937 56.4639 115.519 56.4639C114.828 56.4639 114.223 56.3093 113.705 56.0002C113.187 55.6911 112.787 55.2639 112.505 54.7184C112.232 54.1729 112.096 53.5593 112.096 52.8775C112.096 52.1957 112.232 51.582 112.505 51.0366C112.787 50.4911 113.187 50.0639 113.705 49.7548C114.223 49.4366 114.828 49.2775 115.519 49.2775C115.937 49.2775 116.332 49.3548 116.705 49.5093C117.087 49.6548 117.437 49.8639 117.755 50.1366V49.4548ZM115.737 54.8411C116.11 54.8411 116.446 54.7593 116.746 54.5957C117.055 54.4229 117.296 54.1866 117.469 53.8866C117.651 53.5866 117.742 53.2457 117.742 52.8639C117.742 52.2911 117.546 51.8229 117.155 51.4593C116.773 51.0957 116.301 50.9139 115.737 50.9139C115.164 50.9139 114.692 51.1002 114.319 51.4729C113.955 51.8366 113.773 52.3048 113.773 52.8775C113.773 53.4502 113.955 53.9229 114.319 54.2957C114.692 54.6593 115.164 54.8411 115.737 54.8411ZM122.058 48.3229C121.74 48.3229 121.49 48.2366 121.308 48.0639C121.126 47.8911 121.035 47.6548 121.035 47.3548C121.035 47.0457 121.126 46.8048 121.308 46.632C121.49 46.4593 121.74 46.3729 122.058 46.3729C122.376 46.3729 122.626 46.4593 122.808 46.632C122.99 46.8048 123.081 47.0457 123.081 47.3548C123.081 47.6457 122.985 47.882 122.795 48.0639C122.613 48.2366 122.367 48.3229 122.058 48.3229ZM121.199 56.2729V49.4548H122.89V56.2729H121.199ZM128.045 49.2775C128.445 49.2775 128.849 49.3639 129.259 49.5366C129.677 49.7002 130.031 50.0002 130.322 50.4366C130.622 50.8729 130.772 51.4593 130.772 52.1957V56.2729H129.081V52.1957C129.081 51.6866 128.936 51.3229 128.645 51.1048C128.363 50.8775 128.031 50.7639 127.649 50.7639C127.268 50.7639 126.94 50.9002 126.668 51.1729C126.404 51.4366 126.272 51.8639 126.272 52.4548V56.2729H124.581V49.4548H126.272V50.0275C126.518 49.8002 126.79 49.6184 127.09 49.482C127.39 49.3457 127.709 49.2775 128.045 49.2775Z" fill="#E6E8EB" fill-opacity="0.8"/>
<rect x="0.453246" y="0.286254" width="49.4275" height="64.4275" rx="24.7137" fill="white" stroke="white" stroke-width="0.572507"/>
<path d="M31.4352 34.8181H33.8216V38.7635H31.4352V43.0908H27.2989V38.7635H16.3852V34.8181L23.3534 20.8181H27.967L21.0307 34.8181H27.2989V29.8545H31.4352V34.8181Z" fill="black"/>
</svg>
