<svg width="190" height="65" viewBox="0 0 190 65" fill="none" xmlns="http://www.w3.org/2000/svg">
<path d="M68.6047 11.3635L68.441 13.4908C68.3683 13.4665 68.241 13.4544 68.0592 13.4544C67.3077 13.4544 66.6834 13.6726 66.1865 14.109C65.7016 14.5453 65.4592 15.1393 65.4592 15.8908V20.6362H63.2047V11.5453H65.4592V13.0726C65.6653 12.5877 66.0168 12.1817 66.5137 11.8544C67.0107 11.5271 67.6107 11.3635 68.3137 11.3635H68.6047ZM73.8694 11.309C74.7422 11.309 75.524 11.5271 76.2149 11.9635C76.9179 12.3877 77.4634 12.9635 77.8512 13.6908C78.2391 14.418 78.4331 15.2241 78.4331 16.109C78.4331 16.3999 78.4088 16.6665 78.3603 16.909H71.3422C71.524 17.5514 71.8452 18.0544 72.3058 18.418C72.7664 18.7696 73.3543 18.9453 74.0694 18.9453C74.5058 18.9453 74.924 18.8484 75.324 18.6544C75.7361 18.4605 76.0452 18.212 76.2512 17.909L77.9785 18.9271C77.5543 19.5574 77.0028 20.0423 76.324 20.3817C75.6573 20.709 74.8876 20.8726 74.0149 20.8726C73.0452 20.8726 72.1846 20.6665 71.4331 20.2544C70.6815 19.8423 70.0997 19.2726 69.6876 18.5453C69.2876 17.818 69.0876 16.9999 69.0876 16.0908C69.0876 15.1938 69.2876 14.3817 69.6876 13.6544C70.0997 12.9271 70.6694 12.3574 71.3967 11.9453C72.124 11.5211 72.9482 11.309 73.8694 11.309ZM76.324 15.1453C76.227 14.5635 75.9543 14.109 75.5058 13.7817C75.0694 13.4423 74.5179 13.2726 73.8512 13.2726C73.3906 13.2726 72.9664 13.3574 72.5785 13.5271C72.2028 13.6968 71.8997 13.9271 71.6694 14.218C71.4391 14.509 71.3179 14.818 71.3058 15.1453H76.324ZM83.2667 17.909L85.6485 11.5453H88.0304L84.6485 20.6362H81.8849L78.5031 11.5453H80.8849L83.2667 17.909ZM90.4691 10.0362C90.0449 10.0362 89.7116 9.92108 89.4691 9.69077C89.2267 9.46047 89.1055 9.14532 89.1055 8.74532C89.1055 8.3332 89.2267 8.01199 89.4691 7.78168C89.7116 7.55138 90.0449 7.43623 90.4691 7.43623C90.8934 7.43623 91.2267 7.55138 91.4691 7.78168C91.7116 8.01199 91.8328 8.3332 91.8328 8.74532C91.8328 9.1332 91.7055 9.44835 91.451 9.69077C91.2085 9.92108 90.8813 10.0362 90.4691 10.0362ZM89.3237 20.6362V11.5453H91.5782V20.6362H89.3237ZM97.7508 11.309C98.6235 11.309 99.4054 11.5271 100.096 11.9635C100.799 12.3877 101.345 12.9635 101.733 13.6908C102.121 14.418 102.314 15.2241 102.314 16.109C102.314 16.3999 102.29 16.6665 102.242 16.909H95.2235C95.4054 17.5514 95.7266 18.0544 96.1872 18.418C96.6478 18.7696 97.2357 18.9453 97.9508 18.9453C98.3872 18.9453 98.8054 18.8484 99.2054 18.6544C99.6175 18.4605 99.9266 18.212 100.133 17.909L101.86 18.9271C101.436 19.5574 100.884 20.0423 100.205 20.3817C99.5387 20.709 98.769 20.8726 97.8963 20.8726C96.9266 20.8726 96.066 20.6665 95.3145 20.2544C94.5629 19.8423 93.9811 19.2726 93.569 18.5453C93.169 17.818 92.969 16.9999 92.969 16.0908C92.969 15.1938 93.169 14.3817 93.569 13.6544C93.9811 12.9271 94.5508 12.3574 95.2781 11.9453C96.0054 11.5211 96.8296 11.309 97.7508 11.309ZM100.205 15.1453C100.108 14.5635 99.8357 14.109 99.3872 13.7817C98.9508 13.4423 98.3993 13.2726 97.7326 13.2726C97.272 13.2726 96.8478 13.3574 96.4599 13.5271C96.0842 13.6968 95.7811 13.9271 95.5508 14.218C95.3205 14.509 95.1993 14.818 95.1872 15.1453H100.205ZM112.184 17.0544L113.875 11.5453H116.239L113.294 20.6362H111.057L109.348 15.2362L107.639 20.6362H105.439L102.566 11.5453H104.912L106.548 17.018L108.148 11.5453H110.548L112.184 17.0544Z" fill="white"/>
<path d="M66.9764 33.5259L66.8537 35.1214C66.7992 35.1032 66.7037 35.0941 66.5673 35.0941C66.0037 35.0941 65.5355 35.2577 65.1628 35.585C64.7992 35.9123 64.6173 36.3577 64.6173 36.9214V40.4805H62.9264V33.6623H64.6173V34.8077C64.7719 34.4441 65.0355 34.1396 65.4083 33.8941C65.781 33.6486 66.231 33.5259 66.7583 33.5259H66.9764ZM70.925 33.485C71.5796 33.485 72.1659 33.6487 72.6841 33.9759C73.2114 34.2941 73.6205 34.7259 73.9114 35.2714C74.2023 35.8168 74.3477 36.4214 74.3477 37.085C74.3477 37.3032 74.3296 37.5032 74.2932 37.685H69.0296C69.1659 38.1668 69.4068 38.5441 69.7523 38.8168C70.0977 39.0805 70.5387 39.2123 71.075 39.2123C71.4023 39.2123 71.7159 39.1396 72.0159 38.9941C72.325 38.8487 72.5568 38.6623 72.7114 38.435L74.0068 39.1987C73.6887 39.6714 73.275 40.035 72.7659 40.2896C72.2659 40.535 71.6887 40.6577 71.0341 40.6577C70.3068 40.6577 69.6614 40.5032 69.0977 40.1941C68.5341 39.885 68.0977 39.4577 67.7887 38.9123C67.4887 38.3668 67.3387 37.7532 67.3387 37.0714C67.3387 36.3987 67.4887 35.7896 67.7887 35.2441C68.0977 34.6987 68.525 34.2714 69.0705 33.9623C69.6159 33.6441 70.2341 33.485 70.925 33.485ZM72.7659 36.3623C72.6932 35.9259 72.4887 35.585 72.1523 35.3396C71.825 35.085 71.4114 34.9577 70.9114 34.9577C70.5659 34.9577 70.2477 35.0214 69.9568 35.1486C69.675 35.2759 69.4477 35.4487 69.275 35.6668C69.1023 35.885 69.0114 36.1168 69.0023 36.3623H72.7659ZM77.973 38.435L79.7594 33.6623H81.5457L79.0094 40.4805H76.9366L74.4003 33.6623H76.1866L77.973 38.435ZM83.3748 32.5305C83.0566 32.5305 82.8066 32.4441 82.6248 32.2714C82.443 32.0986 82.3521 31.8623 82.3521 31.5623C82.3521 31.2532 82.443 31.0123 82.6248 30.8396C82.8066 30.6668 83.0566 30.5805 83.3748 30.5805C83.693 30.5805 83.943 30.6668 84.1248 30.8396C84.3066 31.0123 84.3975 31.2532 84.3975 31.5623C84.3975 31.8532 84.3021 32.0896 84.1112 32.2714C83.9294 32.4441 83.6839 32.5305 83.3748 32.5305ZM82.5157 40.4805V33.6623H84.2066V40.4805H82.5157ZM88.8361 33.485C89.4906 33.485 90.077 33.6487 90.5952 33.9759C91.1224 34.2941 91.5315 34.7259 91.8224 35.2714C92.1133 35.8168 92.2588 36.4214 92.2588 37.085C92.2588 37.3032 92.2406 37.5032 92.2042 37.685H86.9406C87.077 38.1668 87.3179 38.5441 87.6633 38.8168C88.0088 39.0805 88.4497 39.2123 88.9861 39.2123C89.3133 39.2123 89.627 39.1396 89.927 38.9941C90.2361 38.8487 90.4679 38.6623 90.6224 38.435L91.9179 39.1987C91.5997 39.6714 91.1861 40.035 90.677 40.2896C90.177 40.535 89.5997 40.6577 88.9452 40.6577C88.2179 40.6577 87.5724 40.5032 87.0088 40.1941C86.4452 39.885 86.0088 39.4577 85.6997 38.9123C85.3997 38.3668 85.2497 37.7532 85.2497 37.0714C85.2497 36.3987 85.3997 35.7896 85.6997 35.2441C86.0088 34.6987 86.4361 34.2714 86.9815 33.9623C87.527 33.6441 88.1452 33.485 88.8361 33.485ZM90.677 36.3623C90.6042 35.9259 90.3997 35.585 90.0633 35.3396C89.7361 35.085 89.3224 34.9577 88.8224 34.9577C88.477 34.9577 88.1588 35.0214 87.8679 35.1486C87.5861 35.2759 87.3588 35.4487 87.1861 35.6668C87.0133 35.885 86.9224 36.1168 86.9133 36.3623H90.677ZM99.6613 37.7941L100.929 33.6623H102.702L100.493 40.4805H98.8159L97.534 36.4305L96.2522 40.4805H94.6022L92.4477 33.6623H94.2068L95.434 37.7668L96.634 33.6623H98.434L99.6613 37.7941ZM112.63 33.6623H114.321V40.4805H112.63V39.8123C112.312 40.085 111.962 40.2987 111.58 40.4532C111.207 40.5987 110.812 40.6714 110.394 40.6714C109.703 40.6714 109.098 40.5168 108.58 40.2077C108.062 39.8987 107.662 39.4714 107.38 38.9259C107.107 38.3805 106.971 37.7668 106.971 37.085C106.971 36.4032 107.107 35.7896 107.38 35.2441C107.662 34.6987 108.062 34.2714 108.58 33.9623C109.098 33.6441 109.703 33.485 110.394 33.485C110.812 33.485 111.207 33.5623 111.58 33.7168C111.962 33.8623 112.312 34.0714 112.63 34.3441V33.6623ZM110.612 39.0487C110.985 39.0487 111.321 38.9668 111.621 38.8032C111.93 38.6305 112.171 38.3941 112.344 38.0941C112.525 37.7941 112.616 37.4532 112.616 37.0714C112.616 36.4987 112.421 36.0305 112.03 35.6668C111.648 35.3032 111.175 35.1214 110.612 35.1214C110.039 35.1214 109.566 35.3077 109.194 35.6805C108.83 36.0441 108.648 36.5123 108.648 37.085C108.648 37.6577 108.83 38.1305 109.194 38.5032C109.566 38.8668 110.039 39.0487 110.612 39.0487ZM119.524 33.485C119.924 33.485 120.329 33.5714 120.738 33.7441C121.156 33.9077 121.51 34.2077 121.801 34.6441C122.101 35.0805 122.251 35.6668 122.251 36.4032V40.4805H120.56V36.4032C120.56 35.8941 120.415 35.5305 120.124 35.3123C119.842 35.085 119.51 34.9714 119.129 34.9714C118.747 34.9714 118.419 35.1077 118.147 35.3805C117.883 35.6441 117.751 36.0714 117.751 36.6623V40.4805H116.06V33.6623H117.751V34.235C117.997 34.0077 118.269 33.8259 118.569 33.6896C118.869 33.5532 119.188 33.485 119.524 33.485ZM128.929 30.935H130.62V40.4805H128.929V39.8259C128.62 40.0987 128.275 40.3077 127.893 40.4532C127.511 40.5987 127.116 40.6714 126.707 40.6714C126.016 40.6714 125.411 40.5168 124.893 40.2077C124.375 39.8987 123.975 39.4714 123.693 38.9259C123.42 38.3805 123.284 37.7668 123.284 37.085C123.284 36.4032 123.42 35.7896 123.693 35.2441C123.975 34.6987 124.375 34.2714 124.893 33.9623C125.411 33.6441 126.016 33.485 126.707 33.485C127.116 33.485 127.507 33.5623 127.879 33.7168C128.261 33.8623 128.611 34.0668 128.929 34.3305V30.935ZM126.925 39.0487C127.298 39.0487 127.634 38.9668 127.934 38.8032C128.243 38.6305 128.484 38.3941 128.657 38.0941C128.839 37.7941 128.929 37.4532 128.929 37.0714C128.929 36.4987 128.734 36.0305 128.343 35.6668C127.961 35.3032 127.489 35.1214 126.925 35.1214C126.352 35.1214 125.879 35.3077 125.507 35.6805C125.143 36.0441 124.961 36.5123 124.961 37.085C124.961 37.6577 125.143 38.1305 125.507 38.5032C125.879 38.8668 126.352 39.0487 126.925 39.0487ZM139.776 33.485C140.467 33.485 141.071 33.6396 141.59 33.9486C142.117 34.2577 142.517 34.685 142.79 35.2305C143.071 35.7759 143.212 36.3896 143.212 37.0714C143.212 37.7532 143.071 38.3668 142.79 38.9123C142.517 39.4577 142.117 39.8896 141.59 40.2077C141.071 40.5168 140.467 40.6714 139.776 40.6714C139.367 40.6714 138.971 40.5987 138.59 40.4532C138.217 40.2987 137.871 40.085 137.553 39.8123V43.2077H135.862V33.6623H137.553V34.3305C137.862 34.0577 138.208 33.8487 138.59 33.7032C138.971 33.5577 139.367 33.485 139.776 33.485ZM139.571 39.035C140.135 39.035 140.599 38.8532 140.962 38.4896C141.335 38.1168 141.521 37.6441 141.521 37.0714C141.521 36.4987 141.335 36.0305 140.962 35.6668C140.599 35.2941 140.135 35.1077 139.571 35.1077C139.199 35.1077 138.858 35.1941 138.549 35.3668C138.24 35.5305 137.994 35.7623 137.812 36.0623C137.64 36.3623 137.553 36.7032 137.553 37.085C137.553 37.6577 137.744 38.1259 138.126 38.4896C138.517 38.8532 138.999 39.035 139.571 39.035ZM148.787 33.6623H150.478V40.4805H148.787V39.9077C148.542 40.135 148.269 40.3168 147.969 40.4532C147.669 40.5896 147.351 40.6577 147.014 40.6577C146.614 40.6577 146.205 40.5759 145.787 40.4123C145.378 40.2396 145.023 39.935 144.723 39.4987C144.433 39.0623 144.287 38.4759 144.287 37.7396V33.6623H145.978V37.7396C145.978 38.2487 146.119 38.6168 146.401 38.8441C146.692 39.0623 147.028 39.1714 147.41 39.1714C147.792 39.1714 148.114 39.0396 148.378 38.7759C148.651 38.5032 148.787 38.0714 148.787 37.4805V33.6623ZM156.292 33.485C156.983 33.485 157.588 33.6441 158.106 33.9623C158.624 34.2714 159.02 34.6987 159.292 35.2441C159.574 35.7896 159.715 36.4032 159.715 37.085C159.715 37.7668 159.574 38.3805 159.292 38.9259C159.02 39.4714 158.624 39.8987 158.106 40.2077C157.588 40.5168 156.983 40.6714 156.292 40.6714C155.847 40.6714 155.42 40.585 155.01 40.4123C154.601 40.2396 154.238 39.9987 153.92 39.6896V40.4805H152.229V30.935H153.92V34.4668C154.238 34.1577 154.601 33.9168 155.01 33.7441C155.429 33.5714 155.856 33.485 156.292 33.485ZM156.074 39.0487C156.647 39.0487 157.115 38.8668 157.479 38.5032C157.851 38.1305 158.038 37.6577 158.038 37.085C158.038 36.5123 157.851 36.0441 157.479 35.6805C157.115 35.3077 156.647 35.1214 156.074 35.1214C155.51 35.1214 155.033 35.3032 154.642 35.6668C154.26 36.0305 154.07 36.4987 154.07 37.0714C154.07 37.4532 154.156 37.7941 154.329 38.0941C154.51 38.3941 154.751 38.6305 155.051 38.8032C155.36 38.9668 155.701 39.0487 156.074 39.0487ZM162.602 38.5577C162.602 38.7032 162.638 38.8077 162.711 38.8714C162.784 38.935 162.898 38.9668 163.052 38.9668C163.17 38.9668 163.311 38.9532 163.475 38.9259V40.4805C163.138 40.535 162.825 40.5623 162.534 40.5623C162.007 40.5623 161.602 40.4259 161.32 40.1532C161.048 39.8714 160.911 39.3759 160.911 38.6668V30.935H162.602V38.5577ZM165.632 32.5305C165.314 32.5305 165.064 32.4441 164.882 32.2714C164.701 32.0986 164.61 31.8623 164.61 31.5623C164.61 31.2532 164.701 31.0123 164.882 30.8396C165.064 30.6668 165.314 30.5805 165.632 30.5805C165.951 30.5805 166.201 30.6668 166.382 30.8396C166.564 31.0123 166.655 31.2532 166.655 31.5623C166.655 31.8532 166.56 32.0896 166.369 32.2714C166.187 32.4441 165.942 32.5305 165.632 32.5305ZM164.773 40.4805V33.6623H166.464V40.4805H164.773ZM169.442 35.5714C169.442 35.7623 169.546 35.9077 169.755 36.0077C169.974 36.0987 170.315 36.1941 170.778 36.2941C171.305 36.4032 171.746 36.5259 172.101 36.6623C172.455 36.7987 172.76 37.0168 173.015 37.3168C173.278 37.6077 173.41 38.0032 173.41 38.5032C173.41 38.9487 173.274 39.335 173.001 39.6623C172.737 39.9896 172.383 40.2396 171.937 40.4123C171.492 40.5759 171.005 40.6577 170.478 40.6577C169.76 40.6577 169.142 40.5214 168.624 40.2487C168.115 39.9759 167.737 39.585 167.492 39.0759L168.883 38.3532C169.128 38.9805 169.66 39.2941 170.478 39.2941C170.833 39.2941 171.137 39.2259 171.392 39.0896C171.646 38.9532 171.774 38.7577 171.774 38.5032C171.774 38.285 171.655 38.1259 171.419 38.0259C171.192 37.9168 170.819 37.7987 170.301 37.6714C169.765 37.5441 169.328 37.4168 168.992 37.2896C168.655 37.1623 168.365 36.9668 168.119 36.7032C167.874 36.4305 167.751 36.0714 167.751 35.6259C167.751 35.1896 167.874 34.8123 168.119 34.4941C168.365 34.1668 168.696 33.9168 169.115 33.7441C169.533 33.5714 169.992 33.485 170.492 33.485C171.083 33.485 171.61 33.6077 172.074 33.8532C172.546 34.0987 172.91 34.4487 173.165 34.9032L171.787 35.5987C171.551 35.0896 171.119 34.835 170.492 34.835C170.174 34.835 169.919 34.9032 169.728 35.0396C169.537 35.1668 169.442 35.3441 169.442 35.5714ZM180.497 40.4805H178.82V36.4441C178.82 35.935 178.675 35.5714 178.384 35.3532C178.102 35.1259 177.766 35.0123 177.375 35.0123C177.066 35.0123 176.784 35.1077 176.529 35.2987C176.284 35.4896 176.125 35.7941 176.052 36.2123V40.4805H174.361V30.935H176.052V34.235C176.279 34.0168 176.538 33.8441 176.829 33.7168C177.129 33.5896 177.447 33.5259 177.784 33.5259C178.184 33.5259 178.588 33.6123 178.997 33.785C179.407 33.9487 179.757 34.2441 180.047 34.6714C180.347 35.0987 180.497 35.6759 180.497 36.4032V40.4805Z" fill="white"/>
<rect x="0.222656" width="50" height="65" rx="25" fill="white"/>
<path d="M25.3823 29.2499C27.8641 29.2499 29.8262 29.8438 31.2686 31.0317C32.7111 32.1984 33.4323 33.8105 33.4323 35.8681C33.4323 38.2226 32.7111 40.0787 31.2686 41.4363C29.8262 42.7726 27.8641 43.4408 25.3823 43.4408C22.9005 43.4408 20.9065 42.8893 19.4005 41.7863C17.9156 40.6832 17.1096 39.1666 16.9823 37.2363L20.9277 36.759C21.1186 37.6287 21.6065 38.3181 22.3914 38.8272C23.1974 39.3151 24.1944 39.559 25.3823 39.559C26.6762 39.559 27.6944 39.2302 28.4368 38.5726C29.1793 37.9151 29.5505 37.0135 29.5505 35.8681C29.5505 34.9135 29.1793 34.1605 28.4368 33.609C27.6944 33.0575 26.6762 32.7817 25.3823 32.7817H20.9914V32.7181L17.9686 32.7817L19.4641 20.8181H32.6368V24.7635H22.9323L22.3596 29.2499H25.3823Z" fill="black"/>
</svg>
